M48
; DRILL file {KiCad 9.0.6-9.0.6~ubuntu24.04.1} date 2025-11-25T19:54:43+0100
; FORMAT={-:-/ absolute / inch / decimal}
; #@! TF.CreationDate,2025-11-25T19:54:43+01:00
; #@! TF.GenerationSoftware,Kicad,Pcbnew,9.0.6-9.0.6~ubuntu24.04.1
; #@! TF.FileFunction,Plated,1,4,PTH
FMAT,2
INCH
; #@! TA.AperFunction,Plated,PTH,ViaDrill
T1C0.0118
; #@! TA.AperFunction,Plated,PTH,ComponentDrill
T2C0.0315
; #@! TA.AperFunction,Plated,PTH,ComponentDrill
T3C0.0469
; #@! TA.AperFunction,Plated,PTH,ComponentDrill
T4C0.0524
; #@! TA.AperFunction,Plated,PTH,ComponentDrill
T5C0.1260
%
G90
G05
T1
X4.2028Y-2.1925
X4.2028Y-2.2217
X4.2028Y-2.2508
X4.2028Y-2.2799
X4.2028Y-2.3091
X4.2028Y-2.3382
X4.2331Y-2.1929
X4.2331Y-2.222
X4.2331Y-2.2512
X4.2331Y-2.2803
X4.2331Y-2.3094
X4.2331Y-2.3386
X4.3858Y-2.1929
X4.3858Y-2.222
X4.3858Y-2.2512
X4.3858Y-2.2803
X4.3858Y-2.3094
X4.3858Y-2.3386
X4.4161Y-2.1937
X4.4161Y-2.2228
X4.4161Y-2.252
X4.4161Y-2.2811
X4.4161Y-2.3102
X4.4161Y-2.3394
X4.4472Y-2.1937
X4.4472Y-2.2228
X4.4472Y-2.252
X4.4472Y-2.2811
X4.4472Y-2.3102
X4.4472Y-2.3394
X4.4862Y-1.9835
X4.6358Y-2.028
X4.6555Y-2.75
X4.6772Y-2.3701
X4.6949Y-2.0866
X4.7209Y-2.3374
X4.7539Y-2.0866
X4.763Y-2.4346
X4.7736Y-2.75
X4.8039Y-2.7831
X4.8118Y-2.9697
X4.813Y-2.0866
X4.8213Y-2.363
X4.8327Y-2.75
X4.872Y-2.0866
X4.8839Y-2.276
X4.8917Y-2.7504
X4.9311Y-2.0866
X4.9508Y-2.75
X4.9902Y-2.0866
X5.0008Y-2.2705
X5.0504Y-1.9957
X5.0807Y-1.9835
X5.0953Y-2.4886
X5.1453Y-2.239
X5.172Y-2.7394
X5.2457Y-2.9157
X5.2933Y-2.0969
X5.3547Y-2.1283
X5.4469Y-2.1874
X5.4488Y-2.1138
T2
X4.2328Y-2.4677
X4.3115Y-2.4677
X4.3903Y-2.4677
X5.1929Y-1.8874
X5.1929Y-1.9661
X5.1929Y-2.0449
T3
X4.3055Y-2.6024
X4.3055Y-2.7024
X5.3531Y-2.3366
X5.3531Y-2.4366
X5.3531Y-2.5366
X5.3531Y-2.6366
X5.3531Y-2.7366
T4
X4.4744Y-2.932
X4.498Y-2.7391
X5.0689Y-2.7391
X5.0925Y-2.932
T5
X4.2913Y-1.9488
X4.2913Y-2.9331
X5.374Y-1.9488
X5.374Y-2.9331
M30
