%TF.GenerationSoftware,KiCad,Pcbnew,9.0.6-9.0.6~ubuntu24.04.1*%
%TF.CreationDate,2025-11-25T19:54:41+01:00*%
%TF.ProjectId,BB3plus DVID adapter,42423370-6c75-4732-9044-564944206164,rev?*%
%TF.SameCoordinates,Original*%
%TF.FileFunction,Copper,L1,Top*%
%TF.FilePolarity,Positive*%
%FSLAX46Y46*%
G04 Gerber Fmt 4.6, Leading zero omitted, Abs format (unit mm)*
G04 Created by KiCad (PCBNEW 9.0.6-9.0.6~ubuntu24.04.1) date 2025-11-25 19:54:41*
%MOMM*%
%LPD*%
G01*
G04 APERTURE LIST*
G04 Aperture macros list*
%AMRoundRect*
0 Rectangle with rounded corners*
0 $1 Rounding radius*
0 $2 $3 $4 $5 $6 $7 $8 $9 X,Y pos of 4 corners*
0 Add a 4 corners polygon primitive as box body*
4,1,4,$2,$3,$4,$5,$6,$7,$8,$9,$2,$3,0*
0 Add four circle primitives for the rounded corners*
1,1,$1+$1,$2,$3*
1,1,$1+$1,$4,$5*
1,1,$1+$1,$6,$7*
1,1,$1+$1,$8,$9*
0 Add four rect primitives between the rounded corners*
20,1,$1+$1,$2,$3,$4,$5,0*
20,1,$1+$1,$4,$5,$6,$7,0*
20,1,$1+$1,$6,$7,$8,$9,0*
20,1,$1+$1,$8,$9,$2,$3,0*%
G04 Aperture macros list end*
%TA.AperFunction,SMDPad,CuDef*%
%ADD10RoundRect,0.050800X0.901700X0.520700X-0.901700X0.520700X-0.901700X-0.520700X0.901700X-0.520700X0*%
%TD*%
%TA.AperFunction,SMDPad,CuDef*%
%ADD11RoundRect,0.050800X1.536700X2.489200X-1.536700X2.489200X-1.536700X-2.489200X1.536700X-2.489200X0*%
%TD*%
%TA.AperFunction,ComponentPad*%
%ADD12R,1.358000X1.358000*%
%TD*%
%TA.AperFunction,ComponentPad*%
%ADD13C,1.358000*%
%TD*%
%TA.AperFunction,SMDPad,CuDef*%
%ADD14RoundRect,0.225000X0.250000X-0.225000X0.250000X0.225000X-0.250000X0.225000X-0.250000X-0.225000X0*%
%TD*%
%TA.AperFunction,SMDPad,CuDef*%
%ADD15RoundRect,0.200000X-0.275000X0.200000X-0.275000X-0.200000X0.275000X-0.200000X0.275000X0.200000X0*%
%TD*%
%TA.AperFunction,ComponentPad*%
%ADD16C,5.500000*%
%TD*%
%TA.AperFunction,SMDPad,CuDef*%
%ADD17R,1.168400X0.304800*%
%TD*%
%TA.AperFunction,SMDPad,CuDef*%
%ADD18R,0.300000X1.000000*%
%TD*%
%TA.AperFunction,SMDPad,CuDef*%
%ADD19R,2.000000X1.300000*%
%TD*%
%TA.AperFunction,SMDPad,CuDef*%
%ADD20RoundRect,0.225000X0.225000X0.250000X-0.225000X0.250000X-0.225000X-0.250000X0.225000X-0.250000X0*%
%TD*%
%TA.AperFunction,ComponentPad*%
%ADD21RoundRect,0.250000X0.845000X-0.620000X0.845000X0.620000X-0.845000X0.620000X-0.845000X-0.620000X0*%
%TD*%
%TA.AperFunction,ComponentPad*%
%ADD22O,2.190000X1.740000*%
%TD*%
%TA.AperFunction,SMDPad,CuDef*%
%ADD23R,0.300000X1.900000*%
%TD*%
%TA.AperFunction,ComponentPad*%
%ADD24C,1.995000*%
%TD*%
%TA.AperFunction,SMDPad,CuDef*%
%ADD25RoundRect,0.250000X-0.475000X0.250000X-0.475000X-0.250000X0.475000X-0.250000X0.475000X0.250000X0*%
%TD*%
%TA.AperFunction,ComponentPad*%
%ADD26RoundRect,0.250000X-0.845000X0.620000X-0.845000X-0.620000X0.845000X-0.620000X0.845000X0.620000X0*%
%TD*%
%TA.AperFunction,SMDPad,CuDef*%
%ADD27RoundRect,0.200000X0.200000X0.275000X-0.200000X0.275000X-0.200000X-0.275000X0.200000X-0.275000X0*%
%TD*%
%TA.AperFunction,SMDPad,CuDef*%
%ADD28RoundRect,0.250000X0.475000X-0.250000X0.475000X0.250000X-0.475000X0.250000X-0.475000X-0.250000X0*%
%TD*%
%TA.AperFunction,ViaPad*%
%ADD29C,0.500000*%
%TD*%
%TA.AperFunction,Conductor*%
%ADD30C,0.203200*%
%TD*%
%TA.AperFunction,Conductor*%
%ADD31C,0.609600*%
%TD*%
%TA.AperFunction,Conductor*%
%ADD32C,0.304800*%
%TD*%
%TA.AperFunction,Conductor*%
%ADD33C,0.127000*%
%TD*%
G04 APERTURE END LIST*
D10*
%TO.P,IC1,1,INPUT*%
%TO.N,+5V*%
X115310000Y-59840000D03*
%TO.P,IC1,2,ADJ/GND*%
%TO.N,GND*%
X115310000Y-57528600D03*
%TO.P,IC1,3,OUTPUT*%
%TO.N,+3V3*%
X115310000Y-55217200D03*
D11*
%TO.P,IC1,4,ADJ/GND*%
%TO.N,GND*%
X109544200Y-57528600D03*
%TD*%
D12*
%TO.P,JP2,1,1*%
%TO.N,+3V3*%
X131900000Y-47940000D03*
D13*
%TO.P,JP2,2,2*%
%TO.N,Net-(X4-GPIO0{slash}BL_PWM)*%
X131900000Y-49940000D03*
%TO.P,JP2,3,3*%
%TO.N,Net-(X3-Pin_1)*%
X131900000Y-51940000D03*
%TD*%
D14*
%TO.P,JP4,1,1*%
%TO.N,Net-(IC2-SDA)*%
X119050000Y-57289000D03*
%TO.P,JP4,2,2*%
%TO.N,Net-(X4-SDA)*%
X119050000Y-55739000D03*
%TD*%
D15*
%TO.P,R3,1,1*%
%TO.N,+5V*%
X119660000Y-62855000D03*
%TO.P,R3,2,2*%
%TO.N,Net-(IC2-SCL)*%
X119660000Y-64505000D03*
%TD*%
D16*
%TO.P,H3,1,1*%
%TO.N,unconnected-(H3-Pad1)*%
X136500000Y-74500000D03*
%TD*%
%TO.P,H2,1,1*%
%TO.N,unconnected-(H2-Pad1)*%
X136500000Y-49500000D03*
%TD*%
D17*
%TO.P,IC2,1,A0*%
%TO.N,GND*%
X131809800Y-54915021D03*
%TO.P,IC2,2,A1*%
X131809800Y-55565007D03*
%TO.P,IC2,3,A2*%
X131809800Y-56214993D03*
%TO.P,IC2,4,GND*%
X131809800Y-56864979D03*
%TO.P,IC2,5,SDA*%
%TO.N,Net-(IC2-SDA)*%
X137550200Y-56864979D03*
%TO.P,IC2,6,SCL*%
%TO.N,Net-(IC2-SCL)*%
X137550200Y-56214993D03*
%TO.P,IC2,7,WP*%
%TO.N,GND*%
X137550200Y-55565007D03*
%TO.P,IC2,8,VCC*%
%TO.N,+5V*%
X137550200Y-54915021D03*
%TD*%
D16*
%TO.P,H1,1,1*%
%TO.N,unconnected-(H1-Pad1)*%
X109000000Y-49500000D03*
%TD*%
D18*
%TO.P,X4,1,GND*%
%TO.N,GND*%
X126750000Y-52252500D03*
%TO.P,X4,2,DPHY_CLK_N*%
%TO.N,/CK-*%
X126250001Y-52252500D03*
%TO.P,X4,3,DPHY_CLK_P*%
%TO.N,/CK+*%
X125749999Y-52252500D03*
%TO.P,X4,4,GND*%
%TO.N,GND*%
X125250000Y-52252500D03*
%TO.P,X4,5,DPHY_D0_N*%
%TO.N,/D0-*%
X124749999Y-52252500D03*
%TO.P,X4,6,DPHY_D0_P*%
%TO.N,/D0+*%
X124250000Y-52252500D03*
%TO.P,X4,7,GND*%
%TO.N,GND*%
X123750001Y-52252500D03*
%TO.P,X4,8,DPHY_D1_N*%
%TO.N,/D1-*%
X123249999Y-52252500D03*
%TO.P,X4,9,DPHY_D1_P*%
%TO.N,/D1+*%
X122750000Y-52252500D03*
%TO.P,X4,10,GND*%
%TO.N,GND*%
X122249998Y-52252500D03*
%TO.P,X4,11,DPHY_D2_N*%
%TO.N,/D2-*%
X121750000Y-52252500D03*
%TO.P,X4,12,DPHY_D2_P*%
%TO.N,/D2+*%
X121250000Y-52252500D03*
%TO.P,X4,13,GND*%
%TO.N,GND*%
X120749999Y-52252500D03*
%TO.P,X4,14,CTRL1*%
%TO.N,unconnected-(X4-CTRL1-Pad14)*%
X120250000Y-52252500D03*
%TO.P,X4,15,CTRL2*%
%TO.N,unconnected-(X4-CTRL2-Pad15)*%
X119749998Y-52252500D03*
%TO.P,X4,16,GND*%
%TO.N,GND*%
X119249999Y-52252500D03*
%TO.P,X4,17,GPIO0/BL_PWM*%
%TO.N,Net-(X4-GPIO0{slash}BL_PWM)*%
X118750000Y-52252500D03*
%TO.P,X4,18,GPIO1/~{TOUCH_IRQ}*%
%TO.N,Net-(X3-Pin_3)*%
X118249999Y-52252500D03*
%TO.P,X4,19,GND*%
%TO.N,GND*%
X117750000Y-52252500D03*
%TO.P,X4,20,SCL*%
%TO.N,Net-(X4-SCL)*%
X117250001Y-52252500D03*
%TO.P,X4,21,SDA*%
%TO.N,Net-(X4-SDA)*%
X116749999Y-52252500D03*
%TO.P,X4,22,+3V3*%
%TO.N,+3V3*%
X116250000Y-52252500D03*
D19*
%TO.P,X4,SH,SH*%
%TO.N,GND*%
X129049990Y-49552501D03*
X113950010Y-49552501D03*
%TD*%
D15*
%TO.P,R2,1,1*%
%TO.N,+5V*%
X118190000Y-62855000D03*
%TO.P,R2,2,2*%
%TO.N,Net-(IC2-SDA)*%
X118190000Y-64505000D03*
%TD*%
D20*
%TO.P,C3,1,1*%
%TO.N,+5V*%
X137565000Y-53470000D03*
%TO.P,C3,2,2*%
%TO.N,GND*%
X136015000Y-53470000D03*
%TD*%
D21*
%TO.P,X3,1,Pin_1*%
%TO.N,Net-(X3-Pin_1)*%
X135970000Y-69510000D03*
D22*
%TO.P,X3,2,Pin_2*%
%TO.N,GND*%
X135970000Y-66970000D03*
%TO.P,X3,3,Pin_3*%
%TO.N,Net-(X3-Pin_3)*%
X135970000Y-64430000D03*
%TO.P,X3,4,Pin_4*%
%TO.N,Net-(IC2-SCL)*%
X135970000Y-61890000D03*
%TO.P,X3,5,Pin_5*%
%TO.N,Net-(IC2-SDA)*%
X135970000Y-59350000D03*
%TD*%
D23*
%TO.P,X1,1,D2+*%
%TO.N,/D2+*%
X126250000Y-68672500D03*
%TO.P,X1,2,D2S*%
%TO.N,GND*%
X125750000Y-68672500D03*
%TO.P,X1,3,D2-*%
%TO.N,/D2-*%
X125250000Y-68672500D03*
%TO.P,X1,4,D1+*%
%TO.N,/D1+*%
X124750000Y-68672500D03*
%TO.P,X1,5,D1S*%
%TO.N,GND*%
X124250000Y-68672500D03*
%TO.P,X1,6,D1-*%
%TO.N,/D1-*%
X123750000Y-68672500D03*
%TO.P,X1,7,D0+*%
%TO.N,/D0+*%
X123250000Y-68672500D03*
%TO.P,X1,8,D0S*%
%TO.N,GND*%
X122750000Y-68672500D03*
%TO.P,X1,9,D0-*%
%TO.N,/D0-*%
X122250000Y-68672500D03*
%TO.P,X1,10,CK+*%
%TO.N,/CK+*%
X121750000Y-68672500D03*
%TO.P,X1,11,CKS*%
%TO.N,GND*%
X121250000Y-68672500D03*
%TO.P,X1,12,CK-*%
%TO.N,/CK-*%
X120750000Y-68672500D03*
%TO.P,X1,13,CEC*%
%TO.N,unconnected-(X1-CEC-Pad13)*%
X120250000Y-68672500D03*
%TO.P,X1,14,UTILITY/HEAC+*%
%TO.N,unconnected-(X1-UTILITY{slash}HEAC+-Pad14)*%
X119750000Y-68672500D03*
%TO.P,X1,15,SCL*%
%TO.N,Net-(IC2-SCL)*%
X119250000Y-68672500D03*
%TO.P,X1,16,SDA*%
%TO.N,Net-(IC2-SDA)*%
X118750000Y-68672500D03*
%TO.P,X1,17,GND*%
%TO.N,GND*%
X118250000Y-68672500D03*
%TO.P,X1,18,+5V*%
%TO.N,Net-(X1-+5V)*%
X117750000Y-68672500D03*
%TO.P,X1,19,HPD/HEAC-*%
%TO.N,Net-(X1-HPD{slash}HEAC-)*%
X117250000Y-68672500D03*
D24*
%TO.P,X1,SH,SH*%
%TO.N,GND*%
X113650000Y-74472500D03*
X114250000Y-69572500D03*
X128750000Y-69572500D03*
X129350000Y-74472500D03*
%TD*%
D16*
%TO.P,H4,1,1*%
%TO.N,unconnected-(H4-Pad1)*%
X109000000Y-74500000D03*
%TD*%
D25*
%TO.P,C1,1,1*%
%TO.N,GND*%
X117419600Y-58278600D03*
%TO.P,C1,2,2*%
%TO.N,+5V*%
X117419600Y-60178600D03*
%TD*%
D26*
%TO.P,X2,1,Pin_1*%
%TO.N,Net-(X2-Pin_1)*%
X109360000Y-66100000D03*
D22*
%TO.P,X2,2,Pin_2*%
%TO.N,GND*%
X109360000Y-68640000D03*
%TD*%
D12*
%TO.P,JP1,1,1*%
%TO.N,Net-(X1-+5V)*%
X111512500Y-62680000D03*
D13*
%TO.P,JP1,2,2*%
%TO.N,+5V*%
X109512500Y-62680000D03*
%TO.P,JP1,3,3*%
%TO.N,Net-(X2-Pin_1)*%
X107512500Y-62680000D03*
%TD*%
D14*
%TO.P,JP3,1,1*%
%TO.N,Net-(IC2-SCL)*%
X120420000Y-57289000D03*
%TO.P,JP3,2,2*%
%TO.N,Net-(X4-SCL)*%
X120420000Y-55739000D03*
%TD*%
D27*
%TO.P,R1,1,1*%
%TO.N,Net-(X1-+5V)*%
X117305000Y-66610000D03*
%TO.P,R1,2,2*%
%TO.N,Net-(X1-HPD{slash}HEAC-)*%
X115655000Y-66610000D03*
%TD*%
D28*
%TO.P,C2,1,1*%
%TO.N,GND*%
X117419600Y-56778600D03*
%TO.P,C2,2,2*%
%TO.N,+3V3*%
X117419600Y-54878600D03*
%TD*%
D29*
%TO.N,+5V*%
X138400000Y-53690000D03*
X118800000Y-60200000D03*
%TO.N,GND*%
X112170000Y-56460000D03*
X107520000Y-55700000D03*
X117750000Y-51510000D03*
X118250000Y-69850000D03*
X111400000Y-56440000D03*
X113950000Y-50380000D03*
X107520000Y-57920000D03*
X122460000Y-60020000D03*
X121250000Y-69850000D03*
X107520000Y-56440000D03*
X138350000Y-55560000D03*
X112960000Y-59420000D03*
X112170000Y-57200000D03*
X126750000Y-53000000D03*
X112960000Y-57940000D03*
X124250000Y-69860000D03*
X119250000Y-53000000D03*
X111400000Y-57920000D03*
X120750000Y-53000000D03*
X129420000Y-63210000D03*
X127020000Y-57670000D03*
X129050000Y-50380000D03*
X122220000Y-75430000D03*
X111400000Y-58660000D03*
X106750000Y-57170000D03*
X106750000Y-56430000D03*
X131370000Y-69580000D03*
X124050000Y-57810000D03*
X107520000Y-58660000D03*
X133240000Y-74060000D03*
X112960000Y-56460000D03*
X112960000Y-55720000D03*
X122750000Y-69850000D03*
X106750000Y-59390000D03*
X123750000Y-53000000D03*
X106750000Y-58650000D03*
X112170000Y-58680000D03*
X111400000Y-59400000D03*
X125250000Y-53000000D03*
X111400000Y-55700000D03*
X112170000Y-57940000D03*
X136010000Y-54060000D03*
X106750000Y-55690000D03*
X111400000Y-57180000D03*
X112960000Y-57200000D03*
X112960000Y-58680000D03*
X107520000Y-59400000D03*
X130690000Y-56870000D03*
X107520000Y-57180000D03*
X106750000Y-57910000D03*
X112170000Y-59420000D03*
X112170000Y-55720000D03*
X122250000Y-53000000D03*
X125750000Y-69850000D03*
X122020000Y-70690000D03*
%TO.N,Net-(IC2-SDA)*%
X119910000Y-59370000D03*
%TO.N,Net-(IC2-SCL)*%
X120980000Y-61840000D03*
%TO.N,Net-(X3-Pin_3)*%
X128280000Y-50690000D03*
X134450000Y-53260000D03*
%TD*%
D30*
%TO.N,+3V3*%
X116250000Y-51140000D02*
X116250000Y-52252500D01*
X131900000Y-47940000D02*
X119450000Y-47940000D01*
X119450000Y-47940000D02*
X116250000Y-51140000D01*
D31*
%TO.N,+5V*%
X109512500Y-62107500D02*
X110350000Y-61270000D01*
X117130000Y-61270000D02*
X117430000Y-60970000D01*
X109512500Y-62680000D02*
X109512500Y-62107500D01*
D30*
X118190000Y-62330000D02*
X117130000Y-61270000D01*
X119660000Y-62855000D02*
X118190000Y-62855000D01*
X137550200Y-54915021D02*
X137550200Y-53484800D01*
D31*
X110350000Y-61270000D02*
X117130000Y-61270000D01*
X117419600Y-60178600D02*
X118778600Y-60178600D01*
X138400000Y-53690000D02*
X137785000Y-53690000D01*
D30*
X137550200Y-53484800D02*
X137565000Y-53470000D01*
D31*
X117419600Y-60178600D02*
X115648600Y-60178600D01*
X137785000Y-53690000D02*
X137565000Y-53470000D01*
X117419600Y-60959600D02*
X117419600Y-60178600D01*
X117430000Y-60970000D02*
X117419600Y-60959600D01*
X115648600Y-60178600D02*
X115310000Y-59840000D01*
D30*
X118190000Y-62855000D02*
X118190000Y-62330000D01*
D31*
X118778600Y-60178600D02*
X118800000Y-60200000D01*
D30*
%TO.N,GND*%
X131809800Y-55565007D02*
X130704993Y-55565007D01*
X130690000Y-56190000D02*
X130690000Y-56870000D01*
X130690000Y-55180000D02*
X130690000Y-55580000D01*
X130954979Y-54915021D02*
X130690000Y-55180000D01*
X130714993Y-56214993D02*
X130690000Y-56190000D01*
X130695021Y-56864979D02*
X130690000Y-56870000D01*
X130690000Y-55580000D02*
X130690000Y-56190000D01*
X131809800Y-56864979D02*
X130695021Y-56864979D01*
X131809800Y-54915021D02*
X130954979Y-54915021D01*
X131809800Y-56214993D02*
X130714993Y-56214993D01*
X130704993Y-55565007D02*
X130690000Y-55580000D01*
%TO.N,Net-(IC2-SDA)*%
X119050000Y-57289000D02*
X119050000Y-58510000D01*
X119050000Y-58510000D02*
X119910000Y-59370000D01*
X137550200Y-56864979D02*
X137550200Y-57769800D01*
X120430000Y-59890000D02*
X119910000Y-59370000D01*
X119055000Y-63640000D02*
X120120000Y-63640000D01*
X118750000Y-65065000D02*
X118190000Y-64505000D01*
X120430000Y-63330000D02*
X120430000Y-59890000D01*
X137550200Y-57769800D02*
X135970000Y-59350000D01*
X118190000Y-64505000D02*
X119055000Y-63640000D01*
X118750000Y-68672500D02*
X118750000Y-65065000D01*
X120120000Y-63640000D02*
X120430000Y-63330000D01*
%TO.N,Net-(X1-HPD{slash}HEAC-)*%
X115655000Y-66610000D02*
X115655000Y-67735000D01*
X116592500Y-68672500D02*
X117250000Y-68672500D01*
X115655000Y-67735000D02*
X116592500Y-68672500D01*
%TO.N,Net-(IC2-SCL)*%
X137982000Y-56214993D02*
X138364000Y-56596993D01*
X138364000Y-59496000D02*
X135970000Y-61890000D01*
X120980000Y-63930000D02*
X120980000Y-61840000D01*
X137550200Y-56214993D02*
X137982000Y-56214993D01*
X119660000Y-64505000D02*
X120405000Y-64505000D01*
X120405000Y-64505000D02*
X120980000Y-63930000D01*
X119250000Y-68672500D02*
X119250000Y-64915000D01*
X138364000Y-56596993D02*
X138364000Y-59496000D01*
X120340000Y-57289000D02*
X120980000Y-57929000D01*
X119250000Y-64915000D02*
X119660000Y-64505000D01*
X120980000Y-57929000D02*
X120980000Y-61840000D01*
D31*
%TO.N,Net-(X1-+5V)*%
X113370000Y-62680000D02*
X117300000Y-66610000D01*
X117300000Y-66610000D02*
X117305000Y-66610000D01*
D32*
X117750000Y-67055000D02*
X117305000Y-66610000D01*
X117750000Y-68672500D02*
X117750000Y-67055000D01*
D31*
X111512500Y-62680000D02*
X113370000Y-62680000D01*
D30*
%TO.N,Net-(X3-Pin_1)*%
X134179800Y-68814800D02*
X134179800Y-63106774D01*
X134119800Y-63046773D02*
X134119800Y-54159800D01*
X135970000Y-69510000D02*
X134875000Y-69510000D01*
X134119800Y-54159800D02*
X131900000Y-51940000D01*
X134875000Y-69510000D02*
X134179800Y-68814800D01*
X134179800Y-63106774D02*
X134119800Y-63046773D01*
D33*
%TO.N,/D0-*%
X129382301Y-61712301D02*
X129076973Y-62017629D01*
X128574072Y-60724465D02*
X128574071Y-60724465D01*
X122250000Y-68672500D02*
X122250000Y-70097501D01*
X127460517Y-60401173D02*
X127765844Y-60095843D01*
X128250777Y-59143935D02*
X128178934Y-59072092D01*
X130406052Y-61299210D02*
X130334209Y-61227367D01*
X127999330Y-59862356D02*
X128250777Y-59610909D01*
X129615788Y-61478814D02*
X129382301Y-61712301D01*
X132307000Y-64277788D02*
X130154606Y-62125394D01*
X128843482Y-60814270D02*
X128663876Y-60993876D01*
X127855646Y-60006040D02*
X127909528Y-59952159D01*
X128250784Y-61299203D02*
X128178941Y-61227360D01*
X127280910Y-59251699D02*
X126824235Y-58795023D01*
X129292496Y-61442890D02*
X129382299Y-61353088D01*
X128430386Y-59790517D02*
X128125057Y-60095845D01*
X128969202Y-59862360D02*
X128897359Y-59790517D01*
X130154605Y-62017631D02*
X130406052Y-61766183D01*
X122250000Y-70097501D02*
X122623000Y-70470501D01*
X128897367Y-61838023D02*
X129202694Y-61532693D01*
X127532359Y-60580778D02*
X127460516Y-60508935D01*
X127352750Y-59323539D02*
X127280910Y-59251699D01*
X129687627Y-60580785D02*
X129615784Y-60508942D01*
X128484269Y-60814268D02*
X128574072Y-60724465D01*
X127945451Y-60275451D02*
X127640123Y-60580779D01*
X129292497Y-61442890D02*
X129292496Y-61442890D01*
X127909528Y-59952159D02*
X127999330Y-59862356D01*
X124626999Y-56597787D02*
X124626999Y-53125501D01*
X127765844Y-60095843D02*
X127855647Y-60006040D01*
X130154606Y-62125394D02*
X130154605Y-62125394D01*
X128663874Y-60634663D02*
X128969202Y-60329334D01*
X128178942Y-61119598D02*
X128484269Y-60814268D01*
X132307000Y-69992606D02*
X132307000Y-64277788D01*
X128574071Y-60724465D02*
X128663874Y-60634663D01*
X128663876Y-60993876D02*
X128358548Y-61299204D01*
X124626999Y-53125501D02*
X124749999Y-53002501D01*
X128969209Y-62017628D02*
X128897366Y-61945785D01*
X124877394Y-73047000D02*
X129252606Y-73047000D01*
X129148811Y-60508942D02*
X128843482Y-60814270D01*
X129867236Y-61227367D02*
X129615788Y-61478814D01*
X129382299Y-61353088D02*
X129687627Y-61047759D01*
X124749999Y-53002501D02*
X124749999Y-52252500D01*
X122623000Y-70470501D02*
X122623000Y-70792606D01*
X127855647Y-60006040D02*
X127855646Y-60006040D01*
X129202694Y-61532693D02*
X129292497Y-61442890D01*
X128125057Y-60095845D02*
X127945451Y-60275451D01*
X126824235Y-58795023D02*
X124626999Y-56597787D01*
X122623000Y-70792606D02*
X124877394Y-73047000D01*
X129252606Y-73047000D02*
X132307000Y-69992606D01*
X127711961Y-59072092D02*
X127460513Y-59323539D01*
X128250777Y-59610909D02*
G75*
G03*
X128250799Y-59143913I-233477J233509D01*
G01*
X128897359Y-59790517D02*
G75*
G03*
X128430385Y-59790516I-233487J-233484D01*
G01*
X129687627Y-61047759D02*
G75*
G03*
X129687599Y-60580813I-233527J233459D01*
G01*
X130154605Y-62125394D02*
G75*
G02*
X130154592Y-62017619I53895J53894D01*
G01*
X127640123Y-60580779D02*
G75*
G02*
X127532318Y-60580820I-53923J53879D01*
G01*
X127460516Y-60508935D02*
G75*
G02*
X127460562Y-60401219I53884J53835D01*
G01*
X129615784Y-60508942D02*
G75*
G03*
X129148810Y-60508941I-233487J-233484D01*
G01*
X128178941Y-61227360D02*
G75*
G02*
X128178962Y-61119619I53859J53860D01*
G01*
X127460513Y-59323539D02*
G75*
G02*
X127352751Y-59323539I-53881J53880D01*
G01*
X130334209Y-61227367D02*
G75*
G03*
X129867235Y-61227366I-233487J-233484D01*
G01*
X128969202Y-60329334D02*
G75*
G03*
X128969249Y-59862313I-233502J233534D01*
G01*
X128178934Y-59072092D02*
G75*
G03*
X127711962Y-59072092I-233486J-233484D01*
G01*
X129076973Y-62017629D02*
G75*
G02*
X128969217Y-62017620I-53873J53929D01*
G01*
X128358548Y-61299204D02*
G75*
G02*
X128250817Y-61299170I-53848J53904D01*
G01*
X128897366Y-61945785D02*
G75*
G02*
X128897363Y-61838018I53834J53885D01*
G01*
X130406052Y-61766183D02*
G75*
G03*
X130406049Y-61299214I-233452J233483D01*
G01*
%TO.N,/CK-*%
X123957394Y-76477000D02*
X121123000Y-73642606D01*
X128085776Y-57296564D02*
X133197000Y-62407788D01*
X126127000Y-55337788D02*
X127068823Y-56279611D01*
X127068823Y-56279611D02*
X127068821Y-56279610D01*
X126127000Y-53125502D02*
X126127000Y-55337788D01*
X126250001Y-52252500D02*
X126250001Y-53002501D01*
X127715400Y-56926189D02*
X127787243Y-56998031D01*
X126250001Y-53002501D02*
X126127000Y-53125502D01*
X127895005Y-56028163D02*
X127966847Y-56100005D01*
X129952212Y-76477000D02*
X123957394Y-76477000D01*
X127787243Y-56998031D02*
X128085776Y-57296564D01*
X121123000Y-73642606D02*
X121123000Y-70470501D01*
X120750000Y-70097501D02*
X120750000Y-68672500D01*
X121123000Y-70470501D02*
X120750000Y-70097501D01*
X133197000Y-62407788D02*
X133197000Y-73232212D01*
X127966848Y-56566979D02*
X127715399Y-56818425D01*
X127176585Y-56279611D02*
X127428033Y-56028164D01*
X133197000Y-73232212D02*
X129952212Y-76477000D01*
X127428033Y-56028164D02*
G75*
G02*
X127894985Y-56028182I233467J-233436D01*
G01*
X127966847Y-56100005D02*
G75*
G02*
X127966856Y-56566987I-233447J-233495D01*
G01*
X127068821Y-56279610D02*
G75*
G03*
X127176582Y-56279607I53879J53910D01*
G01*
X127715399Y-56818425D02*
G75*
G03*
X127715406Y-56926183I53901J-53875D01*
G01*
%TO.N,/D0+*%
X127891566Y-59251698D02*
X127640118Y-59503145D01*
X128789604Y-62197234D02*
X128717761Y-62125391D01*
X122877000Y-70687394D02*
X122877000Y-70585209D01*
X123965041Y-71597444D02*
X123947888Y-71614596D01*
X128214859Y-60365254D02*
X128214859Y-60365253D01*
X127173145Y-59503145D02*
X127101305Y-59431304D01*
X128394467Y-60544861D02*
X128394466Y-60544860D01*
X123409073Y-71075782D02*
X123426225Y-71058629D01*
X122877000Y-70470501D02*
X123250000Y-70097501D01*
X124373000Y-53125501D02*
X124250000Y-53002501D01*
X123768284Y-71434993D02*
X123785458Y-71417818D01*
X130226447Y-61478815D02*
X130154604Y-61406972D01*
X123049862Y-70860256D02*
X122877000Y-70687394D01*
X128789597Y-60041966D02*
X128717754Y-59970123D01*
X124373000Y-56703000D02*
X124373000Y-53125501D01*
X123085781Y-70896174D02*
X123049862Y-70860256D01*
X123444992Y-71255385D02*
X123409073Y-71219467D01*
X127819725Y-59682751D02*
X128071172Y-59431304D01*
X129975000Y-62305000D02*
X129975000Y-62304999D01*
X129508022Y-60760391D02*
X129436179Y-60688548D01*
X128304664Y-60634664D02*
X128394467Y-60544861D01*
X128933284Y-61083679D02*
X128933284Y-61083678D01*
X129561908Y-61891907D02*
X129256578Y-62197234D01*
X128304662Y-60275451D02*
X128214859Y-60365254D01*
X129112892Y-61263286D02*
X129112891Y-61263285D01*
X129975000Y-61838026D02*
X130226447Y-61586578D01*
X127586239Y-59916239D02*
X127676042Y-59826436D01*
X128609991Y-59970123D02*
X128304662Y-60275451D01*
X129328416Y-60688548D02*
X129023087Y-60993876D01*
X124144647Y-71633366D02*
X124108725Y-71597444D01*
X129023087Y-60993876D02*
X128933284Y-61083679D01*
X132053000Y-69887394D02*
X129147394Y-72793000D01*
X123804203Y-71614596D02*
X123768284Y-71578678D01*
X128394466Y-60544860D02*
X128484269Y-60455057D01*
X127352754Y-60760384D02*
X127280911Y-60688541D01*
X128214859Y-60365253D02*
X128125058Y-60455057D01*
X128071179Y-61478809D02*
X127999336Y-61406966D01*
X128717760Y-61658417D02*
X129023089Y-61353089D01*
X127676042Y-59826436D02*
X127676041Y-59826435D01*
X129023089Y-61353089D02*
X129112892Y-61263286D01*
X129651709Y-61802103D02*
X129561908Y-61891907D01*
X127101305Y-59431304D02*
X126644629Y-58974629D01*
X123785458Y-71274133D02*
X123749536Y-71238211D01*
X130046841Y-61406972D02*
X129795393Y-61658419D01*
X128125058Y-60455057D02*
X127819728Y-60760384D01*
X126644629Y-58974629D02*
X124373000Y-56703000D01*
X127280910Y-60221567D02*
X127586239Y-59916239D01*
X129795393Y-61658419D02*
X129651709Y-61802103D01*
X124982606Y-72793000D02*
X124127495Y-71937889D01*
X129202694Y-61173482D02*
X129508022Y-60868154D01*
X124250000Y-53002501D02*
X124250000Y-52252500D01*
X128843483Y-61173482D02*
X128538153Y-61478809D01*
X127676041Y-59826435D02*
X127729922Y-59772553D01*
X129975000Y-62305000D02*
X132053000Y-64383000D01*
X128071172Y-59323541D02*
X127999329Y-59251698D01*
X127729922Y-59772553D02*
X127819725Y-59682751D01*
X124127495Y-71794204D02*
X124144647Y-71777051D01*
X123605852Y-71238211D02*
X123588677Y-71255385D01*
X128933284Y-61083678D02*
X128843483Y-61173482D01*
X132053000Y-64383000D02*
X132053000Y-69887394D01*
X127999335Y-60939992D02*
X128304664Y-60634664D01*
X129112891Y-61263285D02*
X129202694Y-61173482D01*
X123426225Y-70914944D02*
X123390303Y-70879022D01*
X123250000Y-70097501D02*
X123250000Y-68672500D01*
X128484269Y-60455057D02*
X128789597Y-60149729D01*
X129147394Y-72793000D02*
X124982606Y-72793000D01*
X123246619Y-70879022D02*
X123229466Y-70896174D01*
X122877000Y-70585209D02*
X122877000Y-70470501D01*
X127999329Y-59251698D02*
G75*
G03*
X127891565Y-59251697I-53882J-53880D01*
G01*
X123785458Y-71417818D02*
G75*
G03*
X123785434Y-71274157I-71858J71818D01*
G01*
X127640118Y-59503145D02*
G75*
G02*
X127173145Y-59503145I-233486J233487D01*
G01*
X128717761Y-62125391D02*
G75*
G02*
X128717756Y-61658413I233439J233491D01*
G01*
X127280911Y-60688541D02*
G75*
G02*
X127280956Y-60221614I233489J233441D01*
G01*
X124144647Y-71777051D02*
G75*
G03*
X124144656Y-71633358I-71847J71851D01*
G01*
X124127495Y-71937889D02*
G75*
G02*
X124127448Y-71794157I71805J71889D01*
G01*
X128071172Y-59431304D02*
G75*
G03*
X128071195Y-59323519I-53872J53904D01*
G01*
X123588677Y-71255385D02*
G75*
G02*
X123444992Y-71255385I-71842J71843D01*
G01*
X127819728Y-60760384D02*
G75*
G02*
X127352754Y-60760384I-233487J233489D01*
G01*
X123409073Y-71219467D02*
G75*
G02*
X123409048Y-71075757I71827J71867D01*
G01*
X129436179Y-60688548D02*
G75*
G03*
X129328417Y-60688548I-53881J-53880D01*
G01*
X123390303Y-70879022D02*
G75*
G03*
X123246619Y-70879022I-71842J-71842D01*
G01*
X123426225Y-71058629D02*
G75*
G03*
X123426212Y-70914958I-71825J71829D01*
G01*
X130154604Y-61406972D02*
G75*
G03*
X130046840Y-61406971I-53882J-53880D01*
G01*
X127999336Y-61406966D02*
G75*
G02*
X127999356Y-60940014I233464J233466D01*
G01*
X124108725Y-71597444D02*
G75*
G03*
X123965041Y-71597444I-71842J-71842D01*
G01*
X123947888Y-71614596D02*
G75*
G02*
X123804203Y-71614596I-71842J71843D01*
G01*
X123768284Y-71578678D02*
G75*
G02*
X123768248Y-71434957I71816J71878D01*
G01*
X129975000Y-62304999D02*
G75*
G02*
X129974987Y-61838014I233500J233499D01*
G01*
X128538153Y-61478809D02*
G75*
G02*
X128071179Y-61478809I-233487J233489D01*
G01*
X123229466Y-70896174D02*
G75*
G02*
X123085781Y-70896174I-71842J71843D01*
G01*
X123749536Y-71238211D02*
G75*
G03*
X123605852Y-71238211I-71842J-71842D01*
G01*
X129256578Y-62197234D02*
G75*
G02*
X128789604Y-62197234I-233487J233489D01*
G01*
X129508022Y-60868154D02*
G75*
G03*
X129507995Y-60760418I-53922J53854D01*
G01*
X130226447Y-61586578D02*
G75*
G03*
X130226444Y-61478819I-53847J53878D01*
G01*
X128717754Y-59970123D02*
G75*
G03*
X128609992Y-59970123I-53881J-53880D01*
G01*
X128789597Y-60149729D02*
G75*
G03*
X128789645Y-60041919I-53897J53929D01*
G01*
%TO.N,/D2-*%
X121627000Y-56064665D02*
X121627000Y-56524793D01*
X123246458Y-62517246D02*
X123066853Y-62696852D01*
X126892440Y-66163229D02*
X126964282Y-66235071D01*
X126425468Y-65085599D02*
X126120138Y-65390926D01*
X124144483Y-63415271D02*
X124449811Y-63109943D01*
X125635204Y-65983623D02*
X125707046Y-66055465D01*
X121935343Y-61206131D02*
X121935341Y-61206130D01*
X122833368Y-61493499D02*
X122581919Y-61744945D01*
X122222709Y-62463365D02*
X122528037Y-62158036D01*
X122617840Y-62068233D02*
X122617840Y-62068234D01*
X124198365Y-62391523D02*
X124270207Y-62463365D01*
X126209940Y-65660334D02*
X126263820Y-65606451D01*
X126353624Y-65516650D02*
X126605071Y-65265203D01*
X122043104Y-62391523D02*
X122114946Y-62463365D01*
X124683298Y-63954086D02*
X124503693Y-64133692D01*
X125401717Y-65031716D02*
X125491520Y-64941913D01*
X125491520Y-64941913D02*
X125491520Y-64941914D01*
X123964877Y-63594876D02*
X124054680Y-63505073D01*
X126120138Y-65390926D02*
X125940533Y-65570532D01*
X126353625Y-64546783D02*
X126425467Y-64618625D01*
X124988628Y-63648759D02*
X124683298Y-63954086D01*
X125814809Y-66055465D02*
X126120137Y-65750136D01*
X125401718Y-64672506D02*
X125222113Y-64852112D01*
X124270208Y-62930339D02*
X123964878Y-63235666D01*
X124198364Y-64546783D02*
X124270206Y-64618625D01*
X125707048Y-64367179D02*
X125401718Y-64672506D01*
X125491520Y-64941914D02*
X125581323Y-64852111D01*
X124862903Y-64133691D02*
X125168231Y-63828363D01*
X123336260Y-62786653D02*
X123336260Y-62786654D01*
X126037394Y-71497000D02*
X125623000Y-71082606D01*
X123964878Y-63235666D02*
X123785273Y-63415272D01*
X127002606Y-71497000D02*
X126037394Y-71497000D01*
X124377969Y-64618625D02*
X124683297Y-64313296D01*
X122707643Y-61978431D02*
X123012971Y-61673103D01*
X126263820Y-65606451D02*
X126353624Y-65516650D01*
X123479944Y-63828363D02*
X123551786Y-63900205D01*
X123659549Y-63900205D02*
X123964877Y-63594876D01*
X124916784Y-65265203D02*
X124988626Y-65337045D01*
X126209940Y-65660333D02*
X126209940Y-65660334D01*
X122617840Y-62068234D02*
X122707643Y-61978431D01*
X122389000Y-55455065D02*
X122389000Y-55556665D01*
X123426063Y-62696851D02*
X123731391Y-62391523D01*
X124773100Y-64223494D02*
X124862903Y-64133691D01*
X123551788Y-62211919D02*
X123246458Y-62517246D01*
X122058800Y-55886865D02*
X121703200Y-55886865D01*
X125581323Y-64852111D02*
X125886651Y-64546783D01*
X126120137Y-65750136D02*
X126209940Y-65660333D01*
X123785273Y-63415272D02*
X123479944Y-63720600D01*
X124916785Y-63109943D02*
X124988627Y-63181785D01*
X125250000Y-70097501D02*
X125250000Y-68672500D01*
X125635205Y-63828363D02*
X125707047Y-63900205D01*
X124773100Y-64223493D02*
X124773100Y-64223494D01*
X123066853Y-62696852D02*
X122761524Y-63002180D01*
X122761525Y-60954683D02*
X122833367Y-61026525D01*
X122761524Y-63109943D02*
X122833366Y-63181785D01*
X121750000Y-52252500D02*
X121750000Y-53002501D01*
X124054680Y-63505073D02*
X124054680Y-63505074D01*
X127347000Y-66617788D02*
X127347000Y-71152606D01*
X127347000Y-71152606D02*
X127002606Y-71497000D01*
X121750000Y-53002501D02*
X121627000Y-53125501D01*
X123336260Y-62786654D02*
X123426063Y-62696851D01*
X121627000Y-55963065D02*
X121627000Y-56064665D01*
X121627000Y-60897788D02*
X121935343Y-61206131D01*
X121627000Y-53125501D02*
X121627000Y-55048665D01*
X122528037Y-62158036D02*
X122617840Y-62068233D01*
X124683297Y-64313296D02*
X124773100Y-64223493D01*
X125096389Y-65337045D02*
X125401717Y-65031716D01*
X121703200Y-55124865D02*
X122058800Y-55124865D01*
X125623000Y-70470501D02*
X125250000Y-70097501D01*
X123479945Y-61673103D02*
X123551787Y-61744945D01*
X122581919Y-61744945D02*
X122348433Y-61978432D01*
X127143888Y-65804019D02*
X126892439Y-66055465D01*
X123246457Y-62876456D02*
X123336260Y-62786653D01*
X121627000Y-56524793D02*
X121627000Y-60897788D01*
X125222113Y-64852112D02*
X124916784Y-65157440D01*
X127072045Y-65265203D02*
X127143887Y-65337045D01*
X124503693Y-64133692D02*
X124198364Y-64439020D01*
X126964282Y-66235071D02*
X127199606Y-66470394D01*
X125940533Y-65570532D02*
X125635204Y-65875860D01*
X122043105Y-61206131D02*
X122294553Y-60954684D01*
X125623000Y-71082606D02*
X125623000Y-70470501D01*
X122941129Y-63181785D02*
X123246457Y-62876456D01*
X122348433Y-61978432D02*
X122043104Y-62283760D01*
X124054680Y-63505074D02*
X124144483Y-63415271D01*
X127199606Y-66470394D02*
X127347000Y-66617788D01*
X124270207Y-62463365D02*
G75*
G02*
X124270256Y-62930386I-233507J-233535D01*
G01*
X124988626Y-65337045D02*
G75*
G03*
X125096389Y-65337046I53882J53883D01*
G01*
X121703200Y-55886865D02*
G75*
G03*
X121626965Y-55963065I0J-76235D01*
G01*
X122833367Y-61026525D02*
G75*
G02*
X122833356Y-61493486I-233467J-233475D01*
G01*
X122389000Y-55556665D02*
G75*
G02*
X122058800Y-55886900I-330200J-35D01*
G01*
X124270206Y-64618625D02*
G75*
G03*
X124377969Y-64618626I53882J53883D01*
G01*
X122114946Y-62463365D02*
G75*
G03*
X122222709Y-62463366I53882J53883D01*
G01*
X122058800Y-55124865D02*
G75*
G02*
X122389035Y-55455065I0J-330235D01*
G01*
X121627000Y-55048665D02*
G75*
G03*
X121703200Y-55124900I76200J-35D01*
G01*
X122043104Y-62283760D02*
G75*
G03*
X122043145Y-62391481I53896J-53840D01*
G01*
X127143887Y-65337045D02*
G75*
G02*
X127143856Y-65803986I-233487J-233455D01*
G01*
X124916784Y-65157440D02*
G75*
G03*
X124916805Y-65265182I53916J-53860D01*
G01*
X124198364Y-64439020D02*
G75*
G03*
X124198365Y-64546781I53836J-53880D01*
G01*
X122833366Y-63181785D02*
G75*
G03*
X122941129Y-63181786I53882J53883D01*
G01*
X123551786Y-63900205D02*
G75*
G03*
X123659549Y-63900206I53882J53883D01*
G01*
X125707046Y-66055465D02*
G75*
G03*
X125814809Y-66055466I53882J53883D01*
G01*
X123731391Y-62391523D02*
G75*
G02*
X124198365Y-62391523I233487J-233489D01*
G01*
X122294553Y-60954684D02*
G75*
G02*
X122761486Y-60954722I233447J-233516D01*
G01*
X124988627Y-63181785D02*
G75*
G02*
X124988656Y-63648786I-233527J-233515D01*
G01*
X123012971Y-61673103D02*
G75*
G02*
X123479945Y-61673103I233487J-233489D01*
G01*
X126605071Y-65265203D02*
G75*
G02*
X127072045Y-65265203I233487J-233489D01*
G01*
X122761524Y-63002180D02*
G75*
G03*
X122761485Y-63109981I53876J-53920D01*
G01*
X125886651Y-64546783D02*
G75*
G02*
X126353625Y-64546783I233487J-233489D01*
G01*
X126425467Y-64618625D02*
G75*
G02*
X126425456Y-65085586I-233467J-233475D01*
G01*
X126892439Y-66055465D02*
G75*
G03*
X126892486Y-66163182I53861J-53835D01*
G01*
X125707047Y-63900205D02*
G75*
G02*
X125707056Y-64367187I-233447J-233495D01*
G01*
X121935341Y-61206130D02*
G75*
G03*
X122043081Y-61206108I53859J53830D01*
G01*
X123479944Y-63720600D02*
G75*
G03*
X123479925Y-63828382I53856J-53900D01*
G01*
X124449811Y-63109943D02*
G75*
G02*
X124916785Y-63109943I233487J-233489D01*
G01*
X125635204Y-65875860D02*
G75*
G03*
X125635245Y-65983581I53896J-53840D01*
G01*
X125168231Y-63828363D02*
G75*
G02*
X125635205Y-63828363I233487J-233489D01*
G01*
X123551787Y-61744945D02*
G75*
G02*
X123551756Y-62211886I-233487J-233455D01*
G01*
%TO.N,/D1-*%
X127658407Y-62468538D02*
X127353077Y-62773865D01*
X126868144Y-61211302D02*
X126939986Y-61283144D01*
X130720000Y-66140788D02*
X130720000Y-70338818D01*
X126814262Y-62235050D02*
X127119590Y-61929722D01*
X123126999Y-53125501D02*
X123126999Y-58547787D01*
X124712884Y-59056042D02*
X124784726Y-59127884D01*
X128051492Y-63472280D02*
X130720000Y-66140788D01*
X130720000Y-70338818D02*
X128961818Y-72097000D01*
X125427394Y-72097000D02*
X124123000Y-70792606D01*
X126634657Y-62055445D02*
X126455052Y-62235051D01*
X125736632Y-61516631D02*
X125431303Y-61821959D01*
X126724459Y-62324853D02*
X126814262Y-62235050D01*
X125610908Y-62001564D02*
X125916236Y-61696235D01*
X125431303Y-61929722D02*
X125503145Y-62001564D01*
X124712883Y-61211302D02*
X124784725Y-61283144D01*
X123249999Y-53002501D02*
X123126999Y-53125501D01*
X124123000Y-70792606D02*
X124123000Y-70470501D01*
X124299792Y-60079791D02*
X123994463Y-60385119D01*
X124892488Y-61283144D02*
X125197816Y-60977815D01*
X126221567Y-61031698D02*
X125916237Y-61337025D01*
X124659002Y-60079790D02*
X124964330Y-59774462D01*
X125377422Y-60798210D02*
X125682750Y-60492882D01*
X126149724Y-60492882D02*
X126221566Y-60564724D01*
X124174068Y-60564724D02*
X124479396Y-60259395D01*
X127766168Y-63186956D02*
X127838010Y-63258799D01*
X125916237Y-61337025D02*
X125736632Y-61516631D01*
X125287619Y-60888012D02*
X125287619Y-60888013D01*
X123249999Y-52252500D02*
X123249999Y-53002501D01*
X124784727Y-59594858D02*
X124533278Y-59846304D01*
X125431304Y-59774462D02*
X125503146Y-59846304D01*
X127838010Y-63258799D02*
X128051492Y-63472280D01*
X123994463Y-60492882D02*
X124066305Y-60564724D01*
X126724459Y-62324852D02*
X126724459Y-62324853D01*
X126329328Y-62719984D02*
X126634656Y-62414655D01*
X127047748Y-63438404D02*
X127299195Y-63186956D01*
X123994464Y-59307490D02*
X124245912Y-59056043D01*
X126455052Y-62235051D02*
X126149723Y-62540379D01*
X123126999Y-58547787D02*
X123886702Y-59307490D01*
X126868143Y-63366562D02*
X126939985Y-63438404D01*
X127353077Y-62773865D02*
X127209393Y-62917550D01*
X128961818Y-72097000D02*
X125427394Y-72097000D01*
X124123000Y-70470501D02*
X123750000Y-70097501D01*
X127119590Y-63007352D02*
X126868143Y-63258799D01*
X126095842Y-61516630D02*
X126401170Y-61211302D01*
X123886702Y-59307490D02*
X123886700Y-59307489D01*
X125287619Y-60888013D02*
X125377422Y-60798210D01*
X124569199Y-60169592D02*
X124569199Y-60169593D01*
X126149723Y-62648142D02*
X126221565Y-62719984D01*
X127586564Y-61929722D02*
X127658406Y-62001564D01*
X126939987Y-61750118D02*
X126634657Y-62055445D01*
X124479396Y-60259395D02*
X124569199Y-60169592D01*
X126634656Y-62414655D02*
X126724459Y-62324852D01*
X126006039Y-61606432D02*
X126006039Y-61606433D01*
X124533278Y-59846304D02*
X124299792Y-60079791D01*
X125197817Y-60618605D02*
X125018212Y-60798211D01*
X125503147Y-60313278D02*
X125197817Y-60618605D01*
X124569199Y-60169593D02*
X124659002Y-60079790D01*
X126006039Y-61606433D02*
X126095842Y-61516630D01*
X125197816Y-60977815D02*
X125287619Y-60888012D01*
X125916236Y-61696235D02*
X126006039Y-61606432D01*
X125018212Y-60798211D02*
X124712883Y-61103539D01*
X123750000Y-70097501D02*
X123750000Y-68672500D01*
X127209393Y-62917550D02*
X127119590Y-63007352D01*
X124784725Y-61283144D02*
G75*
G03*
X124892488Y-61283145I53882J53883D01*
G01*
X126939985Y-63438404D02*
G75*
G03*
X127047748Y-63438405I53882J53883D01*
G01*
X127299195Y-63186956D02*
G75*
G02*
X127766168Y-63186955I233487J-233487D01*
G01*
X125503146Y-59846304D02*
G75*
G02*
X125503156Y-60313287I-233446J-233496D01*
G01*
X123886700Y-59307489D02*
G75*
G03*
X123994481Y-59307508I53900J53889D01*
G01*
X127658406Y-62001564D02*
G75*
G02*
X127658456Y-62468586I-233506J-233536D01*
G01*
X126401170Y-61211302D02*
G75*
G02*
X126868144Y-61211302I233487J-233489D01*
G01*
X124964330Y-59774462D02*
G75*
G02*
X125431304Y-59774462I233487J-233489D01*
G01*
X124245912Y-59056043D02*
G75*
G02*
X124712886Y-59056040I233488J-233457D01*
G01*
X124784726Y-59127884D02*
G75*
G02*
X124784756Y-59594886I-233526J-233516D01*
G01*
X125682750Y-60492882D02*
G75*
G02*
X126149724Y-60492882I233487J-233489D01*
G01*
X125431303Y-61821959D02*
G75*
G03*
X125431343Y-61929681I53897J-53841D01*
G01*
X126149723Y-62540379D02*
G75*
G03*
X126149683Y-62648181I53877J-53921D01*
G01*
X126939986Y-61283144D02*
G75*
G02*
X126939956Y-61750086I-233486J-233456D01*
G01*
X126221566Y-60564724D02*
G75*
G02*
X126221556Y-61031686I-233466J-233476D01*
G01*
X124712883Y-61103539D02*
G75*
G03*
X124712903Y-61211282I53917J-53861D01*
G01*
X127119590Y-61929722D02*
G75*
G02*
X127586564Y-61929722I233487J-233489D01*
G01*
X126221565Y-62719984D02*
G75*
G03*
X126329328Y-62719985I53882J53883D01*
G01*
X126868143Y-63258799D02*
G75*
G03*
X126868123Y-63366582I53857J-53901D01*
G01*
X123994463Y-60385119D02*
G75*
G03*
X123994463Y-60492881I53837J-53881D01*
G01*
X125503145Y-62001564D02*
G75*
G03*
X125610908Y-62001565I53882J53883D01*
G01*
X124066305Y-60564724D02*
G75*
G03*
X124174068Y-60564725I53882J53883D01*
G01*
%TO.N,/D1+*%
X126688538Y-63546168D02*
X126760380Y-63618010D01*
X125018212Y-60439001D02*
X124928409Y-60528804D01*
X125377421Y-61157421D02*
X125467224Y-61067618D01*
X123707096Y-59487096D02*
X123707095Y-59487094D01*
X124120186Y-59900186D02*
X123814858Y-60205514D01*
X125532606Y-71843000D02*
X128856606Y-71843000D01*
X128856606Y-71843000D02*
X130466000Y-70233606D01*
X126904064Y-62504458D02*
X126993868Y-62414657D01*
X124174069Y-59487095D02*
X124425517Y-59235648D01*
X126814261Y-62594261D02*
X126904064Y-62504458D01*
X127478800Y-62288932D02*
X127173472Y-62594261D01*
X125467224Y-61067618D02*
X125557028Y-60977817D01*
X124605122Y-59415253D02*
X124353673Y-59666699D01*
X125079803Y-71390197D02*
X125532606Y-71843000D01*
X126508933Y-62899590D02*
X126814261Y-62594261D01*
X127406959Y-62109328D02*
X127478801Y-62181170D01*
X126688539Y-61390908D02*
X126760381Y-61462750D01*
X125970118Y-62827748D02*
X126041960Y-62899590D01*
X125646829Y-61247223D02*
X125557026Y-61337026D01*
X124377000Y-70470501D02*
X124377000Y-70539122D01*
X123814858Y-60672488D02*
X123886700Y-60744330D01*
X124750000Y-68672500D02*
X124750000Y-70097501D01*
X124377000Y-70539122D02*
X124377000Y-70687394D01*
X124353673Y-59666699D02*
X124120186Y-59900186D01*
X124928409Y-60528803D02*
X124838606Y-60618606D01*
X127029787Y-62737944D02*
X126939985Y-62827747D01*
X125251698Y-62109328D02*
X125323540Y-62181170D01*
X125557026Y-61337026D02*
X125251698Y-61642354D01*
X130466000Y-70233606D02*
X130466000Y-66246000D01*
X125072093Y-61462750D02*
X125377421Y-61157421D01*
X122873000Y-58653000D02*
X123707096Y-59487096D01*
X124700288Y-71010682D02*
X124736210Y-71046604D01*
X124838606Y-60618606D02*
X124533278Y-60923934D01*
X124928409Y-60528804D02*
X124928409Y-60528803D01*
X127586563Y-63366562D02*
X127658405Y-63438404D01*
X125646829Y-61247224D02*
X125646829Y-61247223D01*
X126993868Y-62414657D02*
X127299195Y-62109327D01*
X124750000Y-70097501D02*
X124377000Y-70470501D01*
X124659001Y-60439001D02*
X124748804Y-60349198D01*
X126455052Y-61875841D02*
X126365249Y-61965644D01*
X126365249Y-61965643D02*
X126275446Y-62055446D01*
X124874238Y-70477525D02*
X124910159Y-70513446D01*
X125323540Y-60133672D02*
X125018212Y-60439001D01*
X130466000Y-66246000D02*
X127871886Y-63651886D01*
X125790513Y-62181170D02*
X126095841Y-61875841D01*
X126275448Y-61696237D02*
X126580775Y-61390907D01*
X125251699Y-59954068D02*
X125323541Y-60025910D01*
X122750000Y-53002501D02*
X122873000Y-53125501D01*
X127083669Y-62684063D02*
X127029787Y-62737944D01*
X127173472Y-62594261D02*
X127083669Y-62684064D01*
X124533278Y-61390908D02*
X124605120Y-61462750D01*
X126365249Y-61965644D02*
X126365249Y-61965643D01*
X124533279Y-59235647D02*
X124605121Y-59307489D01*
X125736632Y-61157421D02*
X125646829Y-61247224D01*
X122750000Y-52252500D02*
X122750000Y-53002501D01*
X126939985Y-62827747D02*
X126688538Y-63079194D01*
X126095841Y-61875841D02*
X126185644Y-61786038D01*
X125970119Y-60672488D02*
X126041961Y-60744330D01*
X127083669Y-62684064D02*
X127083669Y-62684063D01*
X126185644Y-61786038D02*
X126275448Y-61696237D01*
X127658405Y-63438404D02*
X127871886Y-63651886D01*
X124910159Y-70657130D02*
X124700288Y-70866998D01*
X126760380Y-61570512D02*
X126455052Y-61875841D01*
X126275446Y-62055446D02*
X125970118Y-62360774D01*
X124520684Y-70687394D02*
X124730554Y-70477525D01*
X124353673Y-60744330D02*
X124659001Y-60439001D01*
X124736210Y-71046604D02*
X125079803Y-71390197D01*
X124748804Y-60349198D02*
X124838608Y-60259397D01*
X125557028Y-60977817D02*
X125862355Y-60672487D01*
X127227353Y-63618010D02*
X127478800Y-63366562D01*
X126041960Y-60852092D02*
X125736632Y-61157421D01*
X122873000Y-53125501D02*
X122873000Y-58653000D01*
X124838608Y-60259397D02*
X125143935Y-59954067D01*
X123886700Y-60744330D02*
G75*
G03*
X124353673Y-60744330I233486J233487D01*
G01*
X124533278Y-60923934D02*
G75*
G03*
X124533299Y-61390887I233522J-233466D01*
G01*
X127478800Y-63366562D02*
G75*
G02*
X127586563Y-63366561I53882J-53883D01*
G01*
X124700288Y-70866998D02*
G75*
G03*
X124700328Y-71010642I71812J-71802D01*
G01*
X125323541Y-60025910D02*
G75*
G02*
X125323550Y-60133682I-53841J-53890D01*
G01*
X124377000Y-70687394D02*
G75*
G03*
X124520684Y-70687394I71842J71842D01*
G01*
X126041961Y-60744330D02*
G75*
G02*
X126041950Y-60852081I-53861J-53870D01*
G01*
X125251698Y-61642354D02*
G75*
G03*
X125251739Y-62109287I233502J-233446D01*
G01*
X126580775Y-61390907D02*
G75*
G02*
X126688582Y-61390864I53925J-53893D01*
G01*
X124730554Y-70477525D02*
G75*
G02*
X124874238Y-70477525I71842J-71842D01*
G01*
X126760380Y-63618010D02*
G75*
G03*
X127227353Y-63618011I233487J233487D01*
G01*
X123814858Y-60205514D02*
G75*
G03*
X123814859Y-60672487I233442J-233486D01*
G01*
X124910159Y-70513446D02*
G75*
G02*
X124910171Y-70657142I-71859J-71854D01*
G01*
X126688538Y-63079194D02*
G75*
G03*
X126688519Y-63546187I233462J-233506D01*
G01*
X125143935Y-59954067D02*
G75*
G02*
X125251683Y-59954084I53865J-53933D01*
G01*
X126760381Y-61462750D02*
G75*
G02*
X126760350Y-61570481I-53881J-53850D01*
G01*
X124605120Y-61462750D02*
G75*
G03*
X125072093Y-61462751I233487J233487D01*
G01*
X126041960Y-62899590D02*
G75*
G03*
X126508933Y-62899590I233486J233487D01*
G01*
X127299195Y-62109327D02*
G75*
G02*
X127406982Y-62109304I53905J-53873D01*
G01*
X125970118Y-62360774D02*
G75*
G03*
X125970079Y-62827787I233482J-233526D01*
G01*
X127478801Y-62181170D02*
G75*
G02*
X127478850Y-62288981I-53901J-53930D01*
G01*
X125862355Y-60672487D02*
G75*
G02*
X125970083Y-60672524I53845J-53913D01*
G01*
X124605121Y-59307489D02*
G75*
G02*
X124605151Y-59415281I-53921J-53911D01*
G01*
X124425517Y-59235648D02*
G75*
G02*
X124533281Y-59235645I53883J-53852D01*
G01*
X125323540Y-62181170D02*
G75*
G03*
X125790513Y-62181170I233486J233487D01*
G01*
X123707095Y-59487094D02*
G75*
G03*
X124174086Y-59487113I233505J233494D01*
G01*
%TO.N,/D2+*%
X127093000Y-70018797D02*
X127093000Y-70069597D01*
X122402314Y-61565340D02*
X122168827Y-61798827D01*
X125850730Y-65301124D02*
X125760927Y-65390927D01*
X123839154Y-64079811D02*
X124144482Y-63774482D01*
X125760929Y-65031718D02*
X126066256Y-64726388D01*
X126299742Y-65929742D02*
X126389545Y-65839939D01*
X123695470Y-63145864D02*
X123605667Y-63235667D01*
X124413890Y-63864284D02*
X124324087Y-63954087D01*
X124413890Y-63864285D02*
X124413890Y-63864284D01*
X125940533Y-65211322D02*
X125850730Y-65301125D01*
X125042507Y-64672507D02*
X124737179Y-64977835D01*
X121373000Y-61003000D02*
X121755737Y-61385737D01*
X124862902Y-64492902D02*
X124952705Y-64403099D01*
X125850730Y-65301125D02*
X125850730Y-65301124D01*
X126443428Y-65786059D02*
X126533229Y-65696255D01*
X124503693Y-63774482D02*
X124413890Y-63864285D01*
X121863499Y-62571129D02*
X121935341Y-62642971D01*
X122135000Y-55455065D02*
X122135000Y-55556665D01*
X123695470Y-63145865D02*
X123695470Y-63145864D01*
X121373000Y-56524793D02*
X121373000Y-61003000D01*
X123515865Y-62966259D02*
X123605669Y-62876458D01*
X126865511Y-70272797D02*
X126865511Y-70323597D01*
X122222710Y-61385736D02*
X122474158Y-61134289D01*
X126142606Y-71243000D02*
X125877000Y-70977394D01*
X123605667Y-63235667D02*
X123300339Y-63540995D01*
X122797445Y-62247839D02*
X122887249Y-62158038D01*
X122887247Y-62517247D02*
X122581919Y-62822575D01*
X125042509Y-64313298D02*
X125347836Y-64007968D01*
X125877000Y-70470501D02*
X126250000Y-70097501D01*
X124737179Y-65444809D02*
X124809021Y-65516651D01*
X125877000Y-70977394D02*
X125877000Y-70470501D01*
X121373000Y-56064665D02*
X121373000Y-56524793D01*
X122887249Y-62158038D02*
X123192576Y-61852708D01*
X126892440Y-65444809D02*
X126964282Y-65516651D01*
X126991400Y-69663197D02*
X126967111Y-69663197D01*
X124234285Y-63684679D02*
X124324089Y-63594878D01*
X126964281Y-65624413D02*
X126712834Y-65875861D01*
X125581322Y-65211322D02*
X125671125Y-65121519D01*
X124018759Y-64726389D02*
X124090601Y-64798231D01*
X126795794Y-71141400D02*
X126795794Y-71117111D01*
X124737180Y-63289549D02*
X124809022Y-63361391D01*
X127093000Y-71047394D02*
X126897394Y-71243000D01*
X124324087Y-63954087D02*
X124018759Y-64259415D01*
X125760927Y-65390927D02*
X125455599Y-65696255D01*
X126170000Y-71243000D02*
X126142606Y-71243000D01*
X126694194Y-71015511D02*
X126643394Y-71015511D01*
X122653763Y-61313894D02*
X122402314Y-61565340D01*
X123785273Y-63056062D02*
X123695470Y-63145865D01*
X124324089Y-63594878D02*
X124629416Y-63289548D01*
X123605669Y-62876458D02*
X123910996Y-62571128D01*
X126541794Y-71117111D02*
X126541794Y-71141400D01*
X126865511Y-69764797D02*
X126865511Y-69815597D01*
X126389545Y-65839939D02*
X126443428Y-65786059D01*
X125455600Y-64007969D02*
X125527442Y-64079811D01*
X126440194Y-71243000D02*
X126389394Y-71243000D01*
X126389394Y-71243000D02*
X126170000Y-71243000D01*
X124018760Y-62571129D02*
X124090602Y-62642971D01*
X123426062Y-63056062D02*
X123515865Y-62966259D01*
X126712833Y-66342833D02*
X126784677Y-66414676D01*
X127093000Y-70577597D02*
X127093000Y-71047394D01*
X124090601Y-62750733D02*
X123785273Y-63056062D01*
X124557574Y-64798231D02*
X124862902Y-64492902D01*
X126533229Y-65696255D02*
X126784676Y-65444808D01*
X122977050Y-62427444D02*
X122887247Y-62517247D01*
X122402314Y-62642971D02*
X122707642Y-62337642D01*
X123372181Y-62032313D02*
X123066853Y-62337642D01*
X121373000Y-55963065D02*
X121373000Y-56064665D01*
X121250000Y-52252500D02*
X121250000Y-53002501D01*
X123300339Y-64007969D02*
X123372181Y-64079811D01*
X122168827Y-61798827D02*
X121863499Y-62104155D01*
X126784677Y-66414676D02*
X127020000Y-66650000D01*
X126967111Y-69917197D02*
X126991400Y-69917197D01*
X125132310Y-64582705D02*
X125132310Y-64582704D01*
X126991400Y-70171197D02*
X126967111Y-70171197D01*
X125222113Y-64492902D02*
X125132310Y-64582705D01*
X122581920Y-61134288D02*
X122653762Y-61206130D01*
X121373000Y-53125501D02*
X121373000Y-55048665D01*
X123120734Y-63361391D02*
X123426062Y-63056062D01*
X126250000Y-70097501D02*
X126250000Y-68672500D01*
X125455599Y-66163229D02*
X125527441Y-66235071D01*
X125671125Y-65121519D02*
X125760929Y-65031718D01*
X124144482Y-63774482D02*
X124234285Y-63684679D01*
X123300340Y-61852709D02*
X123372182Y-61924551D01*
X122977050Y-62427445D02*
X122977050Y-62427444D01*
X123066853Y-62337642D02*
X122977050Y-62427445D01*
X126967111Y-70425197D02*
X126991400Y-70425197D01*
X125275994Y-65516651D02*
X125581322Y-65211322D01*
X122707642Y-62337642D02*
X122797445Y-62247839D01*
X122581919Y-63289549D02*
X122653761Y-63361391D01*
X127020000Y-66650000D02*
X127093000Y-66723000D01*
X121703200Y-55378865D02*
X122058800Y-55378865D01*
X121250000Y-53002501D02*
X121373000Y-53125501D01*
X126245861Y-64905993D02*
X125940533Y-65211322D01*
X126174020Y-64726389D02*
X126245862Y-64798231D01*
X121755737Y-61385737D02*
X121755736Y-61385735D01*
X124809021Y-63469153D02*
X124503693Y-63774482D01*
X127093000Y-70526797D02*
X127093000Y-70577597D01*
X127093000Y-66723000D02*
X127093000Y-69561597D01*
X124952705Y-64403099D02*
X125042509Y-64313298D01*
X125994414Y-66235071D02*
X126299742Y-65929742D01*
X122058800Y-55632865D02*
X121703200Y-55632865D01*
X125132310Y-64582704D02*
X125042507Y-64672507D01*
X125527441Y-64187573D02*
X125222113Y-64492902D01*
X126066256Y-64726388D02*
G75*
G02*
X126173983Y-64726426I53844J-53912D01*
G01*
X122653761Y-63361391D02*
G75*
G03*
X123120734Y-63361391I233486J233487D01*
G01*
X122474158Y-61134289D02*
G75*
G02*
X122581881Y-61134327I53842J-53911D01*
G01*
X126865511Y-69815597D02*
G75*
G03*
X126967111Y-69917189I101589J-3D01*
G01*
X126643394Y-71015511D02*
G75*
G03*
X126541811Y-71117111I6J-101589D01*
G01*
X124090602Y-62642971D02*
G75*
G02*
X124090650Y-62750781I-53902J-53929D01*
G01*
X127093000Y-70069597D02*
G75*
G02*
X126991400Y-70171200I-101600J-3D01*
G01*
X126784676Y-65444808D02*
G75*
G02*
X126892482Y-65444766I53924J-53892D01*
G01*
X125455599Y-65696255D02*
G75*
G03*
X125455641Y-66163187I233501J-233445D01*
G01*
X124090601Y-64798231D02*
G75*
G03*
X124557574Y-64798231I233486J233487D01*
G01*
X124737179Y-64977835D02*
G75*
G03*
X124737201Y-65444787I233521J-233465D01*
G01*
X122058800Y-55378865D02*
G75*
G02*
X122135035Y-55455065I0J-76235D01*
G01*
X127093000Y-69561597D02*
G75*
G02*
X126991400Y-69663200I-101600J-3D01*
G01*
X125527442Y-64079811D02*
G75*
G02*
X125527450Y-64187582I-53842J-53889D01*
G01*
X125527441Y-66235071D02*
G75*
G03*
X125994414Y-66235072I233487J233487D01*
G01*
X121703200Y-55632865D02*
G75*
G03*
X121372965Y-55963065I0J-330235D01*
G01*
X121935341Y-62642971D02*
G75*
G03*
X122402314Y-62642972I233487J233487D01*
G01*
X124018759Y-64259415D02*
G75*
G03*
X124018761Y-64726387I233441J-233485D01*
G01*
X125347836Y-64007968D02*
G75*
G02*
X125455583Y-64007986I53864J-53932D01*
G01*
X123192576Y-61852708D02*
G75*
G02*
X123300382Y-61852666I53924J-53892D01*
G01*
X126795794Y-71117111D02*
G75*
G03*
X126694194Y-71015506I-101594J11D01*
G01*
X126245862Y-64798231D02*
G75*
G02*
X126245850Y-64905981I-53862J-53869D01*
G01*
X121863499Y-62104155D02*
G75*
G03*
X121863541Y-62571087I233501J-233445D01*
G01*
X123910996Y-62571128D02*
G75*
G02*
X124018782Y-62571106I53904J-53872D01*
G01*
X126991400Y-69917197D02*
G75*
G02*
X127093003Y-70018797I0J-101603D01*
G01*
X126991400Y-70425197D02*
G75*
G02*
X127093003Y-70526797I0J-101603D01*
G01*
X122653762Y-61206130D02*
G75*
G02*
X122653751Y-61313881I-53862J-53870D01*
G01*
X122581919Y-62822575D02*
G75*
G03*
X122581881Y-63289587I233481J-233525D01*
G01*
X123372182Y-61924551D02*
G75*
G02*
X123372150Y-62032281I-53882J-53849D01*
G01*
X123300339Y-63540995D02*
G75*
G03*
X123300321Y-64007987I233461J-233505D01*
G01*
X126967111Y-70171197D02*
G75*
G03*
X126865497Y-70272797I-11J-101603D01*
G01*
X121755736Y-61385735D02*
G75*
G03*
X122222686Y-61385713I233464J233435D01*
G01*
X124629416Y-63289548D02*
G75*
G02*
X124737183Y-63289547I53884J-53852D01*
G01*
X126712834Y-65875861D02*
G75*
G03*
X126712880Y-66342785I233466J-233439D01*
G01*
X124809022Y-63361391D02*
G75*
G02*
X124809050Y-63469181I-53922J-53909D01*
G01*
X126541794Y-71141400D02*
G75*
G02*
X126440194Y-71242994I-101594J0D01*
G01*
X126897394Y-71243000D02*
G75*
G02*
X126795800Y-71141400I6J101600D01*
G01*
X124809021Y-65516651D02*
G75*
G03*
X125275994Y-65516651I233486J233487D01*
G01*
X126967111Y-69663197D02*
G75*
G03*
X126865497Y-69764797I-11J-101603D01*
G01*
X121373000Y-55048665D02*
G75*
G03*
X121703200Y-55378900I330200J-35D01*
G01*
X122135000Y-55556665D02*
G75*
G02*
X122058800Y-55632900I-76200J-35D01*
G01*
X123372181Y-64079811D02*
G75*
G03*
X123839154Y-64079811I233486J233487D01*
G01*
X126964282Y-65516651D02*
G75*
G02*
X126964250Y-65624381I-53882J-53849D01*
G01*
X126865511Y-70323597D02*
G75*
G03*
X126967111Y-70425189I101589J-3D01*
G01*
%TO.N,/CK+*%
X121377000Y-73537394D02*
X124062606Y-76223000D01*
X121478600Y-72241283D02*
X121502850Y-72241283D01*
X124062606Y-76223000D02*
X129847000Y-76223000D01*
X121750000Y-70097501D02*
X121377000Y-70470501D01*
X125873000Y-55443000D02*
X126889217Y-56459217D01*
X121377000Y-72647683D02*
X121377000Y-72924910D01*
X129847000Y-76223000D02*
X132943000Y-73127000D01*
X121377000Y-72924910D02*
X121377000Y-73537394D01*
X125749999Y-53002501D02*
X125873000Y-53125502D01*
X125749999Y-52252500D02*
X125749999Y-53002501D01*
X121377000Y-70470501D02*
X121377000Y-71123683D01*
X121750000Y-68672500D02*
X121750000Y-70097501D01*
X132943000Y-73127000D02*
X132943000Y-62513000D01*
X121502858Y-71479283D02*
X121478600Y-71479283D01*
X121377000Y-72596883D02*
X121377000Y-72647683D01*
X121478600Y-71225283D02*
X121502858Y-71225283D01*
X127607637Y-57177637D02*
X127906170Y-57476170D01*
X126889217Y-56459217D02*
X126889216Y-56459215D01*
X121377000Y-71580883D02*
X121377000Y-71631683D01*
X121502850Y-72495283D02*
X121478600Y-72495283D01*
X125873000Y-53125502D02*
X125873000Y-55443000D01*
X127715400Y-56207768D02*
X127787242Y-56279610D01*
X121377000Y-72088883D02*
X121377000Y-72139683D01*
X121604458Y-71326883D02*
X121604458Y-71377683D01*
X127356190Y-56459216D02*
X127607638Y-56207769D01*
X121604458Y-71834883D02*
X121604458Y-71885683D01*
X132943000Y-62513000D02*
X127906170Y-57476170D01*
X121478600Y-71733283D02*
X121502858Y-71733283D01*
X121604450Y-72342883D02*
X121604450Y-72393683D01*
X127787243Y-56387374D02*
X127535794Y-56638820D01*
X121502858Y-71987283D02*
X121478600Y-71987283D01*
X127535795Y-57105794D02*
X127607637Y-57177637D01*
X121604458Y-71377683D02*
G75*
G02*
X121502858Y-71479258I-101558J-17D01*
G01*
X121377000Y-71631683D02*
G75*
G03*
X121478600Y-71733300I101600J-17D01*
G01*
X121604458Y-71885683D02*
G75*
G02*
X121502858Y-71987258I-101558J-17D01*
G01*
X121377000Y-71123683D02*
G75*
G03*
X121478600Y-71225300I101600J-17D01*
G01*
X121478600Y-72495283D02*
G75*
G03*
X121376983Y-72596883I0J-101617D01*
G01*
X121502850Y-72241283D02*
G75*
G02*
X121604417Y-72342883I-50J-101617D01*
G01*
X121604450Y-72393683D02*
G75*
G02*
X121502850Y-72495350I-101650J-17D01*
G01*
X121502858Y-71733283D02*
G75*
G02*
X121604517Y-71834883I42J-101617D01*
G01*
X127535794Y-56638820D02*
G75*
G03*
X127535801Y-57105788I233506J-233480D01*
G01*
X121377000Y-72139683D02*
G75*
G03*
X121478600Y-72241300I101600J-17D01*
G01*
X121478600Y-71987283D02*
G75*
G03*
X121376983Y-72088883I0J-101617D01*
G01*
X127787242Y-56279610D02*
G75*
G02*
X127787251Y-56387382I-53842J-53890D01*
G01*
X127607638Y-56207769D02*
G75*
G02*
X127715380Y-56207787I53862J-53831D01*
G01*
X121478600Y-71479283D02*
G75*
G03*
X121376983Y-71580883I0J-101617D01*
G01*
X121502858Y-71225283D02*
G75*
G02*
X121604517Y-71326883I42J-101617D01*
G01*
X126889216Y-56459215D02*
G75*
G03*
X127356187Y-56459212I233484J233515D01*
G01*
D31*
%TO.N,Net-(X2-Pin_1)*%
X109360000Y-65990000D02*
X107512500Y-64142500D01*
X107512500Y-64142500D02*
X107512500Y-62680000D01*
X109360000Y-66100000D02*
X109360000Y-65990000D01*
D30*
%TO.N,Net-(X4-GPIO0{slash}BL_PWM)*%
X118750000Y-51549300D02*
X119079100Y-51220200D01*
X130619800Y-51220200D02*
X131900000Y-49940000D01*
X118750000Y-52252500D02*
X118750000Y-51549300D01*
X119079100Y-51220200D02*
X130619800Y-51220200D01*
%TO.N,Net-(X3-Pin_3)*%
X135970000Y-64430000D02*
X134450000Y-62910000D01*
X118252600Y-52249899D02*
X118252600Y-51297400D01*
X118252600Y-51297400D02*
X118860000Y-50690000D01*
X118249999Y-52252500D02*
X118252600Y-52249899D01*
X118860000Y-50690000D02*
X128280000Y-50690000D01*
X134450000Y-62910000D02*
X134450000Y-53260000D01*
%TO.N,Net-(X4-SCL)*%
X120340000Y-55490000D02*
X118380000Y-53530000D01*
X118380000Y-53530000D02*
X117520000Y-53530000D01*
X120340000Y-55739000D02*
X120340000Y-55490000D01*
X117520000Y-53530000D02*
X117250001Y-53260001D01*
X117250001Y-53260001D02*
X117250001Y-52252500D01*
%TO.N,Net-(X4-SDA)*%
X119050000Y-55739000D02*
X119050000Y-54680000D01*
X118230200Y-53860200D02*
X117383226Y-53860200D01*
X117383226Y-53860200D02*
X116749999Y-53226973D01*
X119050000Y-54680000D02*
X118230200Y-53860200D01*
X116749999Y-53226973D02*
X116749999Y-52252500D01*
%TD*%
%TA.AperFunction,Conductor*%
%TO.N,GND*%
G36*
X114049831Y-52619213D02*
G01*
X114086376Y-52669513D01*
X114091300Y-52700600D01*
X114091300Y-55536091D01*
X114091970Y-55549728D01*
X114092305Y-55556553D01*
X114094238Y-55576175D01*
X114097241Y-55596426D01*
X114110740Y-55664286D01*
X114110744Y-55664300D01*
X114122615Y-55703436D01*
X114122618Y-55703444D01*
X114137635Y-55739698D01*
X114137642Y-55739712D01*
X114148977Y-55760919D01*
X114158922Y-55788715D01*
X114168566Y-55837201D01*
X114168567Y-55837204D01*
X114224814Y-55921382D01*
X114224816Y-55921384D01*
X114308999Y-55977634D01*
X114383233Y-55992400D01*
X114441588Y-55992399D01*
X114461218Y-55994333D01*
X114503554Y-56002755D01*
X114503560Y-56002756D01*
X114504663Y-56002919D01*
X114523813Y-56005760D01*
X114523815Y-56005760D01*
X114523826Y-56005762D01*
X114543450Y-56007695D01*
X114563908Y-56008700D01*
X114563918Y-56008700D01*
X117936082Y-56008700D01*
X117936092Y-56008700D01*
X117956551Y-56007695D01*
X117976174Y-56005762D01*
X117996432Y-56002757D01*
X118064294Y-55989258D01*
X118064304Y-55989254D01*
X118064309Y-55989254D01*
X118103436Y-55977384D01*
X118103444Y-55977381D01*
X118103444Y-55977380D01*
X118103447Y-55977380D01*
X118139709Y-55962359D01*
X118151976Y-55955801D01*
X118213181Y-55944870D01*
X118269123Y-55972002D01*
X118298433Y-56026834D01*
X118300000Y-56044522D01*
X118300000Y-59464636D01*
X118280787Y-59523767D01*
X118230487Y-59560312D01*
X118168313Y-59560312D01*
X118139662Y-59545579D01*
X118108994Y-59522945D01*
X118046825Y-59501191D01*
X117979901Y-59477774D01*
X117949253Y-59474900D01*
X117949247Y-59474900D01*
X116889955Y-59474900D01*
X116889944Y-59474901D01*
X116859301Y-59477773D01*
X116730203Y-59522946D01*
X116730202Y-59522947D01*
X116626537Y-59599456D01*
X116567552Y-59619111D01*
X116508278Y-59600341D01*
X116471358Y-59550316D01*
X116466199Y-59518514D01*
X116466199Y-59294234D01*
X116466199Y-59294233D01*
X116451434Y-59219999D01*
X116451432Y-59219997D01*
X116451432Y-59219995D01*
X116395185Y-59135817D01*
X116395183Y-59135815D01*
X116311002Y-59079567D01*
X116311001Y-59079566D01*
X116311000Y-59079565D01*
X116310999Y-59079565D01*
X116255198Y-59068466D01*
X116236767Y-59064800D01*
X116236766Y-59064800D01*
X114383234Y-59064800D01*
X114308998Y-59079566D01*
X114308995Y-59079567D01*
X114224817Y-59135814D01*
X114224815Y-59135816D01*
X114168565Y-59220000D01*
X114153800Y-59294233D01*
X114153800Y-60385765D01*
X114168566Y-60460001D01*
X114168567Y-60460004D01*
X114224814Y-60544182D01*
X114224815Y-60544182D01*
X114224816Y-60544184D01*
X114274309Y-60577255D01*
X114312800Y-60626081D01*
X114315241Y-60688207D01*
X114280698Y-60739903D01*
X114222367Y-60761422D01*
X114218418Y-60761500D01*
X110283049Y-60761500D01*
X110153729Y-60796151D01*
X110153728Y-60796151D01*
X110037773Y-60863099D01*
X109330337Y-61570535D01*
X109274939Y-61598761D01*
X109259202Y-61600000D01*
X106301100Y-61600000D01*
X106241969Y-61580787D01*
X106205424Y-61530487D01*
X106200500Y-61499400D01*
X106200500Y-52700600D01*
X106219713Y-52641469D01*
X106270013Y-52604924D01*
X106301100Y-52600000D01*
X113990700Y-52600000D01*
X114049831Y-52619213D01*
G37*
%TD.AperFunction*%
%TD*%
%TA.AperFunction,Conductor*%
%TO.N,+3V3*%
G36*
X116155716Y-51701932D02*
G01*
X116223576Y-51715431D01*
X116259839Y-51730452D01*
X116308966Y-51763277D01*
X116336722Y-51791033D01*
X116369547Y-51840160D01*
X116384568Y-51876422D01*
X116394366Y-51925674D01*
X116396299Y-51945302D01*
X116396299Y-52772567D01*
X116398067Y-52781451D01*
X116400000Y-52801078D01*
X116400000Y-54200000D01*
X117936092Y-54200000D01*
X117955716Y-54201932D01*
X118023576Y-54215431D01*
X118059839Y-54230452D01*
X118108966Y-54263277D01*
X118136722Y-54291033D01*
X118169547Y-54340160D01*
X118184568Y-54376422D01*
X118198067Y-54444280D01*
X118200000Y-54463908D01*
X118200000Y-55536091D01*
X118198067Y-55555717D01*
X118198067Y-55555719D01*
X118184568Y-55623577D01*
X118169547Y-55659839D01*
X118136722Y-55708966D01*
X118108966Y-55736722D01*
X118059839Y-55769547D01*
X118023577Y-55784568D01*
X117982184Y-55792802D01*
X117955715Y-55798067D01*
X117936092Y-55800000D01*
X114563908Y-55800000D01*
X114544284Y-55798067D01*
X114512450Y-55791735D01*
X114476422Y-55784568D01*
X114440160Y-55769547D01*
X114391033Y-55736722D01*
X114363277Y-55708966D01*
X114330452Y-55659839D01*
X114315431Y-55623575D01*
X114301933Y-55555717D01*
X114300000Y-55536091D01*
X114300000Y-51963908D01*
X114301933Y-51944282D01*
X114315431Y-51876424D01*
X114315432Y-51876422D01*
X114330452Y-51840160D01*
X114363279Y-51791030D01*
X114391030Y-51763279D01*
X114440160Y-51730451D01*
X114476424Y-51715431D01*
X114544282Y-51701933D01*
X114563908Y-51700000D01*
X116136092Y-51700000D01*
X116155716Y-51701932D01*
G37*
%TD.AperFunction*%
%TD*%
M02*
