%TF.GenerationSoftware,KiCad,Pcbnew,9.0.6-9.0.6~ubuntu24.04.1*%
%TF.CreationDate,2025-11-25T19:54:41+01:00*%
%TF.ProjectId,BB3plus DVID adapter,42423370-6c75-4732-9044-564944206164,rev?*%
%TF.SameCoordinates,Original*%
%TF.FileFunction,Copper,L4,Bot*%
%TF.FilePolarity,Positive*%
%FSLAX46Y46*%
G04 Gerber Fmt 4.6, Leading zero omitted, Abs format (unit mm)*
G04 Created by KiCad (PCBNEW 9.0.6-9.0.6~ubuntu24.04.1) date 2025-11-25 19:54:41*
%MOMM*%
%LPD*%
G01*
G04 APERTURE LIST*
G04 Aperture macros list*
%AMRoundRect*
0 Rectangle with rounded corners*
0 $1 Rounding radius*
0 $2 $3 $4 $5 $6 $7 $8 $9 X,Y pos of 4 corners*
0 Add a 4 corners polygon primitive as box body*
4,1,4,$2,$3,$4,$5,$6,$7,$8,$9,$2,$3,0*
0 Add four circle primitives for the rounded corners*
1,1,$1+$1,$2,$3*
1,1,$1+$1,$4,$5*
1,1,$1+$1,$6,$7*
1,1,$1+$1,$8,$9*
0 Add four rect primitives between the rounded corners*
20,1,$1+$1,$2,$3,$4,$5,0*
20,1,$1+$1,$4,$5,$6,$7,0*
20,1,$1+$1,$6,$7,$8,$9,0*
20,1,$1+$1,$8,$9,$2,$3,0*%
G04 Aperture macros list end*
%TA.AperFunction,ComponentPad*%
%ADD10R,1.358000X1.358000*%
%TD*%
%TA.AperFunction,ComponentPad*%
%ADD11C,1.358000*%
%TD*%
%TA.AperFunction,ComponentPad*%
%ADD12C,5.500000*%
%TD*%
%TA.AperFunction,ComponentPad*%
%ADD13RoundRect,0.250000X0.845000X-0.620000X0.845000X0.620000X-0.845000X0.620000X-0.845000X-0.620000X0*%
%TD*%
%TA.AperFunction,ComponentPad*%
%ADD14O,2.190000X1.740000*%
%TD*%
%TA.AperFunction,ComponentPad*%
%ADD15C,1.995000*%
%TD*%
%TA.AperFunction,ComponentPad*%
%ADD16RoundRect,0.250000X-0.845000X0.620000X-0.845000X-0.620000X0.845000X-0.620000X0.845000X0.620000X0*%
%TD*%
%TA.AperFunction,ViaPad*%
%ADD17C,0.500000*%
%TD*%
%TA.AperFunction,Conductor*%
%ADD18C,0.609600*%
%TD*%
%TA.AperFunction,Conductor*%
%ADD19C,0.203200*%
%TD*%
G04 APERTURE END LIST*
D10*
%TO.P,JP2,1,1*%
%TO.N,+3V3*%
X131900000Y-47940000D03*
D11*
%TO.P,JP2,2,2*%
%TO.N,Net-(X4-GPIO0{slash}BL_PWM)*%
X131900000Y-49940000D03*
%TO.P,JP2,3,3*%
%TO.N,Net-(X3-Pin_1)*%
X131900000Y-51940000D03*
%TD*%
D12*
%TO.P,H3,1,1*%
%TO.N,unconnected-(H3-Pad1)*%
X136500000Y-74500000D03*
%TD*%
%TO.P,H2,1,1*%
%TO.N,unconnected-(H2-Pad1)*%
X136500000Y-49500000D03*
%TD*%
%TO.P,H1,1,1*%
%TO.N,unconnected-(H1-Pad1)*%
X109000000Y-49500000D03*
%TD*%
D13*
%TO.P,X3,1,Pin_1*%
%TO.N,Net-(X3-Pin_1)*%
X135970000Y-69510000D03*
D14*
%TO.P,X3,2,Pin_2*%
%TO.N,GND*%
X135970000Y-66970000D03*
%TO.P,X3,3,Pin_3*%
%TO.N,Net-(X3-Pin_3)*%
X135970000Y-64430000D03*
%TO.P,X3,4,Pin_4*%
%TO.N,Net-(IC2-SCL)*%
X135970000Y-61890000D03*
%TO.P,X3,5,Pin_5*%
%TO.N,Net-(IC2-SDA)*%
X135970000Y-59350000D03*
%TD*%
D15*
%TO.P,X1,SH,SH*%
%TO.N,GND*%
X113650000Y-74472500D03*
X114250000Y-69572500D03*
X128750000Y-69572500D03*
X129350000Y-74472500D03*
%TD*%
D12*
%TO.P,H4,1,1*%
%TO.N,unconnected-(H4-Pad1)*%
X109000000Y-74500000D03*
%TD*%
D16*
%TO.P,X2,1,Pin_1*%
%TO.N,Net-(X2-Pin_1)*%
X109360000Y-66100000D03*
D14*
%TO.P,X2,2,Pin_2*%
%TO.N,GND*%
X109360000Y-68640000D03*
%TD*%
D10*
%TO.P,JP1,1,1*%
%TO.N,Net-(X1-+5V)*%
X111512500Y-62680000D03*
D11*
%TO.P,JP1,2,2*%
%TO.N,+5V*%
X109512500Y-62680000D03*
%TO.P,JP1,3,3*%
%TO.N,Net-(X2-Pin_1)*%
X107512500Y-62680000D03*
%TD*%
D17*
%TO.N,+5V*%
X138400000Y-53690000D03*
X118800000Y-60200000D03*
%TO.N,GND*%
X112170000Y-56460000D03*
X107520000Y-55700000D03*
X117750000Y-51510000D03*
X118250000Y-69850000D03*
X111400000Y-56440000D03*
X113950000Y-50380000D03*
X107520000Y-57920000D03*
X122460000Y-60020000D03*
X121250000Y-69850000D03*
X107520000Y-56440000D03*
X138350000Y-55560000D03*
X112960000Y-59420000D03*
X112170000Y-57200000D03*
X126750000Y-53000000D03*
X112960000Y-57940000D03*
X124250000Y-69860000D03*
X119250000Y-53000000D03*
X111400000Y-57920000D03*
X120750000Y-53000000D03*
X129420000Y-63210000D03*
X127020000Y-57670000D03*
X129050000Y-50380000D03*
X122220000Y-75430000D03*
X111400000Y-58660000D03*
X106750000Y-57170000D03*
X106750000Y-56430000D03*
X131370000Y-69580000D03*
X124050000Y-57810000D03*
X107520000Y-58660000D03*
X133240000Y-74060000D03*
X112960000Y-56460000D03*
X112960000Y-55720000D03*
X122750000Y-69850000D03*
X106750000Y-59390000D03*
X123750000Y-53000000D03*
X106750000Y-58650000D03*
X112170000Y-58680000D03*
X111400000Y-59400000D03*
X125250000Y-53000000D03*
X111400000Y-55700000D03*
X112170000Y-57940000D03*
X136010000Y-54060000D03*
X106750000Y-55690000D03*
X111400000Y-57180000D03*
X112960000Y-57200000D03*
X112960000Y-58680000D03*
X107520000Y-59400000D03*
X130690000Y-56870000D03*
X107520000Y-57180000D03*
X106750000Y-57910000D03*
X112170000Y-59420000D03*
X112170000Y-55720000D03*
X122250000Y-53000000D03*
X125750000Y-69850000D03*
X122020000Y-70690000D03*
%TO.N,Net-(IC2-SDA)*%
X119910000Y-59370000D03*
%TO.N,Net-(IC2-SCL)*%
X120980000Y-61840000D03*
%TO.N,Net-(X3-Pin_3)*%
X128280000Y-50690000D03*
X134450000Y-53260000D03*
%TD*%
D18*
%TO.N,+5V*%
X137324200Y-54765800D02*
X138400000Y-53690000D01*
X121025800Y-54765800D02*
X137324200Y-54765800D01*
X118960000Y-60040000D02*
X118960000Y-56831600D01*
X118960000Y-56831600D02*
X121025800Y-54765800D01*
X118800000Y-60200000D02*
X118960000Y-60040000D01*
D19*
%TO.N,Net-(IC2-SDA)*%
X135970000Y-59350000D02*
X119930000Y-59350000D01*
X119930000Y-59350000D02*
X119910000Y-59370000D01*
%TO.N,Net-(IC2-SCL)*%
X121030000Y-61890000D02*
X120980000Y-61840000D01*
X135970000Y-61890000D02*
X121030000Y-61890000D01*
%TO.N,Net-(X3-Pin_3)*%
X128280000Y-51340000D02*
X128280000Y-50690000D01*
X134450000Y-53260000D02*
X130200000Y-53260000D01*
X130200000Y-53260000D02*
X128280000Y-51340000D01*
%TD*%
M02*
