  0
SECTION
  2
HEADER
  9
$ANGBASE
  50
0.0
  9
$ANGDIR
  70
1
  9
$MEASUREMENT
  70
1
  0
ENDSEC
  0
SECTION
  2
TABLES
  0
TABLE
  2
LTYPE
  70
4
  0
LTYPE
  5
40F
  2
CONTINUOUS
  70
0
  3
Solid line
  72
65
  73
0
  40
0.0
  0
LTYPE
  5
410
  2
DASHDOT
 70
0
  3
Dash Dot ____ _ ____ _
 72
65
 73
4
 40
2.0
 49
1.25
 49
-0.25
 49
0.25
 49
-0.25
  0
LTYPE
  5
411
  2
DASHED
 70
0
  3
Dashed __ __ __ __ __
 72
65
 73
2
 40
0.75
 49
0.5
 49
-0.25
  0
LTYPE
  5
43B
  2
DOTTED
 70
0
  3
Dotted .  .  .  .
 72
65
 73
2
 40
0.2
 49
0.0
 49
-0.2
  0
ENDTAB
  0
TABLE
  2
STYLE
  70
4
  0
STYLE
  2
KICAD
  70
0
  40
0
  41
1
  42
1
  50
0
  71
0
  3
isocp.shx
  0
STYLE
  2
KICADB
  70
0
  40
0
  41
1
  42
1
  50
0
  71
0
  3
isocp.shx
  0
STYLE
  2
KICADI
  70
0
  40
0
  41
1
  42
1
  50
15
  71
0
  3
isocp.shx
  0
STYLE
  2
KICADBI
  70
0
  40
0
  41
1
  42
1
  50
15
  71
0
  3
isocp.shx
  0
ENDTAB
  0
TABLE
  2
LAYER
  70
1
  0
LAYER
  2
BLACK
  70
0
  62
7
  6
CONTINUOUS
  0
ENDTAB
  0
ENDSEC
  0
SECTION
  2
ENTITIES
0
LINE
8
BLACK
6
CONTINUOUS
10
303.1999999999999886
20
99.
11
308.3000000000000114
21
99.
0
LINE
8
BLACK
6
CONTINUOUS
10
308.3000000000000114
20
99.
11
308.3000000000000114
21
93.
0
LINE
8
BLACK
6
CONTINUOUS
10
308.3000000000000114
20
93.
11
303.1999999999999886
21
93.
0
LINE
8
BLACK
6
CONTINUOUS
10
303.1999999999999886
20
93.
11
303.1999999999999886
21
99.
0
LINE
8
BLACK
6
CONTINUOUS
10
436.1999999999999886
20
99.
11
441.2999999999999545
21
99.
0
LINE
8
BLACK
6
CONTINUOUS
10
441.2999999999999545
20
99.
11
441.2999999999999545
21
93.
0
LINE
8
BLACK
6
CONTINUOUS
10
441.2999999999999545
20
93.
11
436.1999999999999886
21
93.
0
LINE
8
BLACK
6
CONTINUOUS
10
436.1999999999999886
20
93.
11
436.1999999999999886
21
99.
0
LINE
8
BLACK
6
CONTINUOUS
10
529.1999999999999318
20
99.
11
534.2999999999999545
21
99.
0
LINE
8
BLACK
6
CONTINUOUS
10
534.2999999999999545
20
99.
11
534.2999999999999545
21
93.
0
LINE
8
BLACK
6
CONTINUOUS
10
534.2999999999999545
20
93.
11
529.1999999999999318
21
93.
0
LINE
8
BLACK
6
CONTINUOUS
10
529.1999999999999318
20
93.
11
529.1999999999999318
21
99.
0
LINE
8
BLACK
6
CONTINUOUS
10
517.1999999999999318
20
99.
11
522.2999999999999545
21
99.
0
LINE
8
BLACK
6
CONTINUOUS
10
522.2999999999999545
20
99.
11
522.2999999999999545
21
93.
0
LINE
8
BLACK
6
CONTINUOUS
10
522.2999999999999545
20
93.
11
517.1999999999999318
21
93.
0
LINE
8
BLACK
6
CONTINUOUS
10
517.1999999999999318
20
93.
11
517.1999999999999318
21
99.
0
LINE
8
BLACK
6
CONTINUOUS
10
427.1999999999999886
20
99.
11
432.2999999999999545
21
99.
0
LINE
8
BLACK
6
CONTINUOUS
10
432.2999999999999545
20
99.
11
432.2999999999999545
21
93.
0
LINE
8
BLACK
6
CONTINUOUS
10
432.2999999999999545
20
93.
11
427.1999999999999886
21
93.
0
LINE
8
BLACK
6
CONTINUOUS
10
427.1999999999999886
20
93.
11
427.1999999999999886
21
99.
0
LINE
8
BLACK
6
CONTINUOUS
10
293.5999999999999659
20
152.5
11
295.0999999999999659
21
152.5
0
LINE
8
BLACK
6
CONTINUOUS
10
644.0154219999999441
20
-166.9430140000000051
11
644.4599210000000085
21
-166.5620150000000024
0
CIRCLE
8
BLACK
10
224.5
20
-168.5
40
2.9499999999999997
0
LINE
8
BLACK
6
CONTINUOUS
10
528.5499999999999545
20
-163.797520999999989
11
529.5026279999999588
21
-164.3475210000000004
0
LINE
8
BLACK
6
CONTINUOUS
10
529.8490379999999504
20
-164.547520999999989
11
530.8016659999999547
21
-165.0975210000000004
0
LINE
8
BLACK
6
CONTINUOUS
10
531.1480759999999464
20
-165.297520999999989
11
531.75
21
-165.6450419999999895
0
LINE
8
BLACK
6
CONTINUOUS
10
643.0629229999999552
20
-167.8320129999999892
11
643.1264599999999518
21
-167.8320129999999892
0
LINE
8
BLACK
6
CONTINUOUS
10
547.6197509999999511
20
130.8172700000000077
11
547.6832859999999528
21
130.8172700000000077
0
LINE
8
BLACK
6
CONTINUOUS
10
432.9499999999999886
20
46.7975209999999961
11
431.9973719999999844
21
47.3475210000000004
0
LINE
8
BLACK
6
CONTINUOUS
10
431.6509619999999927
20
47.5475209999999961
11
430.6983339999999885
21
48.0975210000000004
0
LINE
8
BLACK
6
CONTINUOUS
10
430.3519239999999968
20
48.2975209999999961
11
429.75
21
48.6450419999999966
0
LINE
8
BLACK
6
CONTINUOUS
10
295.0802479999999832
20
130.8807449999999903
11
295.0167129999999815
21
130.8807449999999903
0
LINE
8
BLACK
6
CONTINUOUS
10
547.8102509999999938
20
131.9602639999999951
11
547.8102509999999938
21
130.8172700000000077
0
LINE
8
BLACK
6
CONTINUOUS
10
643.1899230000000216
20
-171.1340089999999918
11
643.1899230000000216
21
-170.0545109999999909
0
LINE
8
BLACK
6
CONTINUOUS
10
302.5500000000000114
20
43.1024789999999953
11
303.5026279999999588
21
42.5524789999999982
0
LINE
8
BLACK
6
CONTINUOUS
10
303.8490380000000073
20
42.3524789999999953
11
304.8016660000000115
21
41.8024789999999982
0
LINE
8
BLACK
6
CONTINUOUS
10
305.1480760000000032
20
41.6024789999999953
11
305.75
21
41.2549579999999949
0
LINE
8
BLACK
6
CONTINUOUS
10
547.7467510000000175
20
134.1192549999999812
11
547.8102509999999938
21
134.1192549999999812
0
LINE
8
BLACK
6
CONTINUOUS
10
549.1000000000000227
20
152.5
11
549.1000000000000227
21
97.5
0
LINE
8
BLACK
6
CONTINUOUS
10
423.8454719999999725
20
91.9690360000000027
11
424.2899749999999699
21
91.5245369999999951
0
LINE
8
BLACK
6
CONTINUOUS
10
294.9532479999999737
20
134.1827299999999923
11
294.8897479999999973
21
134.1827299999999923
0
LINE
8
BLACK
6
CONTINUOUS
10
294.8897479999999973
20
130.8807449999999903
11
294.8897479999999973
21
131.9602419999999938
0
LINE
8
BLACK
6
CONTINUOUS
10
293.5
20
61.5
11
293.5
21
-178.5
0
LINE
8
BLACK
6
CONTINUOUS
10
547.6197509999999511
20
130.8172700000000077
11
547.6832859999999528
21
130.8172700000000077
0
CIRCLE
8
BLACK
10
429.75
20
44.9499999999999957
40
2.6899999999999999
0
LINE
8
BLACK
6
CONTINUOUS
10
184.9604980000000012
20
-171.1340089999999918
11
184.8969979999999964
21
-171.1340089999999918
0
LINE
8
BLACK
6
CONTINUOUS
10
643.0629229999999552
20
49.8457149999999984
11
643.1264599999999518
21
49.8457149999999984
0
LINE
8
BLACK
6
CONTINUOUS
10
422.9564879999999789
20
92.7945339999999987
11
423.4009909999999763
21
92.3499999999999943
0
LINE
8
BLACK
6
CONTINUOUS
10
643.1899230000000216
20
49.8457149999999984
11
643.1899230000000216
21
50.9887139999999945
0
CIRCLE
8
BLACK
10
313.5
20
-129.5
40
1.8999999999999999
0
LINE
8
BLACK
6
CONTINUOUS
10
643.1899230000000216
20
52.0682119999999955
11
643.1899230000000216
21
53.147711000000001
0
LINE
8
BLACK
6
CONTINUOUS
10
305.75
20
-54.5549579999999992
11
304.7973719999999958
21
-55.1049579999999963
0
LINE
8
BLACK
6
CONTINUOUS
10
304.4509620000000041
20
-55.3049579999999992
11
303.4983339999999998
21
-55.8549579999999963
0
LINE
8
BLACK
6
CONTINUOUS
10
303.1519240000000082
20
-56.0549579999999992
11
302.5500000000000114
21
-56.4024789999999996
0
LINE
8
BLACK
6
CONTINUOUS
10
528.5499999999999545
20
-60.0975210000000004
11
529.5026279999999588
21
-60.6475209999999976
0
LINE
8
BLACK
6
CONTINUOUS
10
529.8490379999999504
20
-60.8475210000000004
11
530.8016659999999547
21
-61.3975209999999976
0
LINE
8
BLACK
6
CONTINUOUS
10
531.1480759999999464
20
-61.5975210000000004
11
531.75
21
-61.9450419999999937
0
LINE
8
BLACK
6
CONTINUOUS
10
184.7699979999999869
20
-168.9115170000000035
11
184.7699979999999869
21
-167.8320190000000025
0
LINE
8
BLACK
6
CONTINUOUS
10
294.0642499999999586
20
129.9917609999999968
11
293.6197510000000079
21
129.5472579999999994
0
LINE
8
BLACK
6
CONTINUOUS
10
547.8102509999999938
20
134.1192549999999812
11
548.2547849999999698
21
134.5637580000000071
0
LINE
8
BLACK
6
CONTINUOUS
10
543.1000000000000227
20
91.5
11
299.5999999999999659
21
91.5
0
LINE
8
BLACK
6
CONTINUOUS
10
548.6357489999999189
20
135.0082390000000032
11
549.0802479999999832
21
135.4527420000000006
0
LINE
8
BLACK
6
CONTINUOUS
10
435.5499999999999545
20
-163.797520999999989
11
436.5026279999999588
21
-164.3475210000000004
0
LINE
8
BLACK
6
CONTINUOUS
10
436.8490380000000073
20
-164.547520999999989
11
437.8016659999999547
21
-165.0975210000000004
0
LINE
8
BLACK
6
CONTINUOUS
10
438.1480760000000032
20
-165.297520999999989
11
438.75
21
-165.6450419999999895
0
LINE
8
BLACK
6
CONTINUOUS
10
438.75
20
-158.2549579999999878
11
437.7973719999999958
21
-158.8049579999999992
0
LINE
8
BLACK
6
CONTINUOUS
10
437.4509620000000041
20
-159.0049579999999878
11
436.4983339999999998
21
-159.5549579999999992
0
LINE
8
BLACK
6
CONTINUOUS
10
436.1519240000000082
20
-159.7549579999999878
11
435.5499999999999545
21
-160.1024789999999882
0
LINE
8
BLACK
6
CONTINUOUS
10
531.75
20
-54.5549579999999992
11
530.7973719999999958
21
-55.1049579999999963
0
LINE
8
BLACK
6
CONTINUOUS
10
530.4509620000000041
20
-55.3049579999999992
11
529.4983339999999998
21
-55.8549579999999963
0
LINE
8
BLACK
6
CONTINUOUS
10
529.1519240000000082
20
-56.0549579999999992
11
528.5499999999999545
21
-56.4024789999999996
0
LINE
8
BLACK
6
CONTINUOUS
10
184.8334979999999916
20
-171.1340089999999918
11
184.8969979999999964
21
-171.1340089999999918
0
LINE
8
BLACK
6
CONTINUOUS
10
308.9499999999999886
20
46.7975209999999961
11
307.9973719999999844
21
47.3475210000000004
0
LINE
8
BLACK
6
CONTINUOUS
10
307.6509619999999927
20
47.5475209999999961
11
306.6983339999999885
21
48.0975210000000004
0
LINE
8
BLACK
6
CONTINUOUS
10
306.3519239999999968
20
48.2975209999999961
11
305.75
21
48.6450419999999966
0
LINE
8
BLACK
6
CONTINUOUS
10
302.5500000000000114
20
-56.4024789999999996
11
302.5500000000000114
21
-57.5024789999999939
0
LINE
8
BLACK
6
CONTINUOUS
10
302.5500000000000114
20
-57.9024789999999996
11
302.5500000000000114
21
-59.0024789999999939
0
LINE
8
BLACK
6
CONTINUOUS
10
302.5500000000000114
20
-59.4024789999999996
11
302.5500000000000114
21
-60.0975210000000004
0
LINE
8
BLACK
6
CONTINUOUS
10
294.8897479999999973
20
133.0397360000000049
11
294.8897479999999973
21
134.1827299999999923
0
LINE
8
BLACK
6
CONTINUOUS
10
305.75
20
-158.2549579999999878
11
304.7973719999999958
21
-158.8049579999999992
0
LINE
8
BLACK
6
CONTINUOUS
10
304.4509620000000041
20
-159.0049579999999878
11
303.4983339999999998
21
-159.5549579999999992
0
LINE
8
BLACK
6
CONTINUOUS
10
303.1519240000000082
20
-159.7549579999999878
11
302.5500000000000114
21
-160.1024789999999882
0
LINE
8
BLACK
6
CONTINUOUS
10
643.1899230000000216
20
-167.8320129999999892
11
643.0629229999999552
21
-167.8320129999999892
0
LINE
8
BLACK
6
CONTINUOUS
10
547.6832859999999528
20
130.8172700000000077
11
547.7467510000000175
21
130.8172700000000077
0
LINE
8
BLACK
6
CONTINUOUS
10
184.8969979999999964
20
53.1476979999999983
11
184.8334979999999916
21
53.1476979999999983
0
LINE
8
BLACK
6
CONTINUOUS
10
308.9499999999999886
20
-60.0975210000000004
11
308.9499999999999886
21
-58.997520999999999
0
LINE
8
BLACK
6
CONTINUOUS
10
308.9499999999999886
20
-58.5975210000000004
11
308.9499999999999886
21
-57.497520999999999
0
LINE
8
BLACK
6
CONTINUOUS
10
308.9499999999999886
20
-57.0975210000000004
11
308.9499999999999886
21
-56.4024789999999996
0
ARC
8
BLACK
10
299.5999999999999659
20
97.5
40
4.5
50
-180.00000000
51
-90.00000000
0
LINE
8
BLACK
6
CONTINUOUS
10
548.6357489999999189
20
135.0082390000000032
11
549.0802479999999832
21
135.4527420000000006
0
LINE
8
BLACK
6
CONTINUOUS
10
184.8969979999999964
20
49.8457019999999957
11
184.8334979999999916
21
49.8457019999999957
0
LINE
8
BLACK
6
CONTINUOUS
10
534.9499999999999318
20
-163.797520999999989
11
534.9499999999999318
21
-162.6975209999999947
0
LINE
8
BLACK
6
CONTINUOUS
10
534.9499999999999318
20
-162.297520999999989
11
534.9499999999999318
21
-161.1975209999999947
0
LINE
8
BLACK
6
CONTINUOUS
10
534.9499999999999318
20
-160.797520999999989
11
534.9499999999999318
21
-160.1024789999999882
0
LINE
8
BLACK
6
CONTINUOUS
10
294.9532479999999737
20
130.8807449999999903
11
294.8897479999999973
21
130.8807449999999903
0
LINE
8
BLACK
6
CONTINUOUS
10
294.8897479999999973
20
130.8807449999999903
11
294.4452139999999645
21
130.4362419999999929
0
LINE
8
BLACK
6
CONTINUOUS
10
583.5
20
61.5
11
583.5
21
-178.5
0
LINE
8
BLACK
6
CONTINUOUS
10
184.9604980000000012
20
49.8457019999999957
11
184.8969979999999964
21
49.8457019999999957
0
LINE
8
BLACK
6
CONTINUOUS
10
547.6000000000000227
20
97.5
11
547.6000000000000227
21
152.5
0
CIRCLE
8
BLACK
10
421.25
20
52.5
40
2.9499999999999997
0
LINE
8
BLACK
6
CONTINUOUS
10
308.9499999999999886
20
-56.4024789999999996
11
307.9973719999999844
21
-55.8524789999999953
0
LINE
8
BLACK
6
CONTINUOUS
10
307.6509619999999927
20
-55.6524789999999996
11
306.6983339999999885
21
-55.1024789999999953
0
LINE
8
BLACK
6
CONTINUOUS
10
306.3519239999999968
20
-54.9024789999999996
11
305.75
21
-54.5549579999999992
0
CIRCLE
8
BLACK
10
531.75
20
-161.9499999999999886
40
2.6899999999999999
0
CIRCLE
8
BLACK
10
438.75
20
-161.9499999999999886
40
2.6899999999999999
0
LINE
8
BLACK
6
CONTINUOUS
10
422.9564879999999789
20
92.9850339999999989
11
422.9564879999999789
21
92.9214989999999972
0
LINE
8
BLACK
6
CONTINUOUS
10
547.6832859999999528
20
134.1192549999999812
11
547.7467510000000175
21
134.1192549999999812
0
LINE
8
BLACK
6
CONTINUOUS
10
418.828993999999966
20
91.9690360000000027
11
418.3844909999999686
21
91.5245369999999951
0
LINE
8
BLACK
6
CONTINUOUS
10
516.5499999999999545
20
40.9024789999999996
11
517.5026279999999588
21
40.3524789999999953
0
LINE
8
BLACK
6
CONTINUOUS
10
517.8490379999999504
20
40.1524789999999996
11
518.8016659999999547
21
39.6024789999999953
0
LINE
8
BLACK
6
CONTINUOUS
10
519.1480759999999464
20
39.4024789999999996
11
519.75
21
39.0549579999999992
0
LINE
8
BLACK
6
CONTINUOUS
10
534.9499999999999318
20
-160.1024789999999882
11
533.9973719999999275
21
-159.5524790000000053
0
LINE
8
BLACK
6
CONTINUOUS
10
533.6509619999999359
20
-159.3524789999999882
11
532.6983339999999316
21
-158.8024790000000053
0
LINE
8
BLACK
6
CONTINUOUS
10
532.35192399999994
20
-158.6024789999999882
11
531.75
21
-158.2549579999999878
0
LINE
8
BLACK
6
CONTINUOUS
10
643.1899230000000216
20
53.147711000000001
11
643.5709219999999959
21
53.5922099999999944
0
CIRCLE
8
BLACK
10
531.75
20
-58.25
40
2.6899999999999999
0
LINE
8
BLACK
6
CONTINUOUS
10
419.654502999999977
20
92.9850339999999989
11
419.654502999999977
21
92.9214989999999972
0
LINE
8
BLACK
6
CONTINUOUS
10
184.7699979999999869
20
53.1476979999999983
11
184.3254989999999793
21
53.5921969999999988
0
LINE
8
BLACK
6
CONTINUOUS
10
548.6357489999999189
20
129.9917609999999968
11
549.0802479999999832
21
129.5472579999999994
0
LINE
8
BLACK
6
CONTINUOUS
10
305.75
20
41.2549579999999949
11
306.7026280000000042
21
41.8049579999999992
0
LINE
8
BLACK
6
CONTINUOUS
10
307.0490379999999959
20
42.0049579999999949
11
308.0016660000000002
21
42.5549579999999992
0
LINE
8
BLACK
6
CONTINUOUS
10
308.3480759999999918
20
42.7549579999999949
11
308.9499999999999886
21
43.1024789999999953
0
LINE
8
BLACK
6
CONTINUOUS
10
293.5999999999999659
20
152.5
11
293.5999999999999659
21
97.5
0
LINE
8
BLACK
6
CONTINUOUS
10
420.7974969999999644
20
92.7945339999999987
11
419.654502999999977
21
92.7945339999999987
0
LINE
8
BLACK
6
CONTINUOUS
10
183.8809990000000028
20
-172.0230159999999842
11
183.5
21
-172.4675079999999809
0
LINE
8
BLACK
6
CONTINUOUS
10
295.0999999999999659
20
97.5
11
295.0999999999999659
21
152.5
0
LINE
8
BLACK
6
CONTINUOUS
10
418.828993999999966
20
91.9690360000000027
11
418.3844909999999686
21
91.5245369999999951
0
LINE
8
BLACK
6
CONTINUOUS
10
644.5
20
61.5
11
583.5
21
61.5
0
LINE
8
BLACK
6
CONTINUOUS
10
643.1264599999999518
20
53.147711000000001
11
643.1899230000000216
21
53.147711000000001
0
LINE
8
BLACK
6
CONTINUOUS
10
305.75
20
-165.6450419999999895
11
306.7026280000000042
21
-165.0950420000000065
0
LINE
8
BLACK
6
CONTINUOUS
10
307.0490379999999959
20
-164.8950419999999895
11
308.0016660000000002
21
-164.3450420000000065
0
LINE
8
BLACK
6
CONTINUOUS
10
308.3480759999999918
20
-164.1450419999999895
11
308.9499999999999886
21
-163.797520999999989
0
LINE
8
BLACK
6
CONTINUOUS
10
644.5
20
-178.5
11
644.5
21
61.5
0
LINE
8
BLACK
6
CONTINUOUS
10
423.8454719999999725
20
91.9690360000000027
11
424.2899749999999699
21
91.5245369999999951
0
LINE
8
BLACK
6
CONTINUOUS
10
294.9532479999999737
20
134.1827299999999923
11
294.8897479999999973
21
134.1827299999999923
0
LINE
8
BLACK
6
CONTINUOUS
10
295.0802479999999832
20
134.1827299999999923
11
295.0167129999999815
21
134.1827299999999923
0
LINE
8
BLACK
6
CONTINUOUS
10
422.9564879999999789
20
92.7945339999999987
11
421.8769909999999754
21
92.7945339999999987
0
LINE
8
BLACK
6
CONTINUOUS
10
643.1264599999999518
20
-171.1340089999999918
11
643.0629229999999552
21
-171.1340089999999918
0
LINE
8
BLACK
6
CONTINUOUS
10
184.7699979999999869
20
52.0681989999999999
11
184.7699979999999869
21
53.1476979999999983
0
CIRCLE
8
BLACK
10
224.5
20
51.5
40
2.9499999999999997
0
LINE
8
BLACK
6
CONTINUOUS
10
438.75
20
-165.6450419999999895
11
439.7026280000000042
21
-165.0950420000000065
0
LINE
8
BLACK
6
CONTINUOUS
10
440.0490379999999959
20
-164.8950419999999895
11
441.0016660000000002
21
-164.3450420000000065
0
LINE
8
BLACK
6
CONTINUOUS
10
441.3480759999999918
20
-164.1450419999999895
11
441.9499999999999886
21
-163.797520999999989
0
LINE
8
BLACK
6
CONTINUOUS
10
531.75
20
-61.9450419999999937
11
532.7026280000000042
21
-61.3950419999999966
0
LINE
8
BLACK
6
CONTINUOUS
10
533.0490379999999959
20
-61.1950419999999937
11
534.0016660000000002
21
-60.6450419999999966
0
LINE
8
BLACK
6
CONTINUOUS
10
534.3480759999999918
20
-60.4450419999999937
11
534.9499999999999318
21
-60.0975210000000004
0
CIRCLE
8
BLACK
10
313.5
20
-148.5
40
2.1000000000000001
0
LINE
8
BLACK
6
CONTINUOUS
10
642.9994229999999789
20
49.8457149999999984
11
643.0629229999999552
21
49.8457149999999984
0
LINE
8
BLACK
6
CONTINUOUS
10
244.5
20
-178.5
11
183.5
21
-178.5
0
LINE
8
BLACK
6
CONTINUOUS
10
302.5500000000000114
20
-160.1024789999999882
11
302.5500000000000114
21
-161.2024789999999825
0
LINE
8
BLACK
6
CONTINUOUS
10
302.5500000000000114
20
-161.6024789999999882
11
302.5500000000000114
21
-162.7024789999999825
0
LINE
8
BLACK
6
CONTINUOUS
10
302.5500000000000114
20
-163.1024789999999882
11
302.5500000000000114
21
-163.797520999999989
0
LINE
8
BLACK
6
CONTINUOUS
10
184.7699979999999869
20
-167.8320190000000025
11
184.3254989999999793
21
-167.3875170000000026
0
LINE
8
BLACK
6
CONTINUOUS
10
422.9564879999999789
20
92.8580339999999893
11
422.9564879999999789
21
92.7945339999999987
0
ARC
8
BLACK
10
543.1000000000000227
20
97.5
40
6.
50
-90.00000000
51
-0.00000000
0
LINE
8
BLACK
6
CONTINUOUS
10
643.
20
-178.5
11
642.9998190000000022
21
-177.4000000000000057
0
LINE
8
BLACK
6
CONTINUOUS
10
642.9997529999999415
20
-177.
11
642.9995719999999437
21
-175.9000000000000057
0
LINE
8
BLACK
6
CONTINUOUS
10
642.9995059999999967
20
-175.5
11
642.9993249999999989
21
-174.4000000000000057
0
LINE
8
BLACK
6
CONTINUOUS
10
642.9992589999999382
20
-174.
11
642.9990779999999404
21
-172.9000000000000057
0
LINE
8
BLACK
6
CONTINUOUS
10
642.9990119999999933
20
-172.5
11
642.9988309999999956
21
-171.4000000000000057
0
LINE
8
BLACK
6
CONTINUOUS
10
642.9987659999999323
20
-171.
11
642.9985849999999346
21
-169.9000000000000057
0
LINE
8
BLACK
6
CONTINUOUS
10
642.9985189999999875
20
-169.5
11
642.9983379999999897
21
-168.4000000000000057
0
LINE
8
BLACK
6
CONTINUOUS
10
642.998271999999929
20
-168.
11
642.9980909999999312
21
-166.9000000000000057
0
LINE
8
BLACK
6
CONTINUOUS
10
642.9980249999999842
20
-166.5
11
642.9978439999999864
21
-165.4000000000000057
0
LINE
8
BLACK
6
CONTINUOUS
10
642.9977779999999257
20
-165.
11
642.9975969999999279
21
-163.9000000000000057
0
LINE
8
BLACK
6
CONTINUOUS
10
642.9975309999999808
20
-163.5
11
642.9973499999999831
21
-162.4000000000000057
0
LINE
8
BLACK
6
CONTINUOUS
10
642.9972839999999223
20
-162.
11
642.9971029999999246
21
-160.9000000000000057
0
LINE
8
BLACK
6
CONTINUOUS
10
642.9970369999999775
20
-160.5
11
642.9968559999999798
21
-159.4000000000000057
0
LINE
8
BLACK
6
CONTINUOUS
10
642.996789999999919
20
-159.
11
642.9966089999999213
21
-157.9000000000000057
0
LINE
8
BLACK
6
CONTINUOUS
10
642.9965439999999717
20
-157.5
11
642.9963629999999739
21
-156.4000000000000057
0
LINE
8
BLACK
6
CONTINUOUS
10
642.9962970000000269
20
-156.
11
642.9961159999999154
21
-154.9000000000000057
0
LINE
8
BLACK
6
CONTINUOUS
10
642.9960499999999683
20
-154.5
11
642.9958689999999706
21
-153.4000000000000057
0
LINE
8
BLACK
6
CONTINUOUS
10
642.9958030000000235
20
-153.
11
642.9956220000000258
21
-151.9000000000000057
0
LINE
8
BLACK
6
CONTINUOUS
10
642.995555999999965
20
-151.5
11
642.9953749999999673
21
-150.4000000000000057
0
LINE
8
BLACK
6
CONTINUOUS
10
642.9953090000000202
20
-150.
11
642.9951280000000224
21
-148.9000000000000057
0
LINE
8
BLACK
6
CONTINUOUS
10
642.9950619999999617
20
-148.5
11
642.9948809999999639
21
-147.4000000000000057
0
LINE
8
BLACK
6
CONTINUOUS
10
642.9948150000000169
20
-147.
11
642.9946340000000191
21
-145.9000000000000057
0
LINE
8
BLACK
6
CONTINUOUS
10
642.9945679999999584
20
-145.5
11
642.9943869999999606
21
-144.4000000000000057
0
LINE
8
BLACK
6
CONTINUOUS
10
642.994322000000011
20
-144.
11
642.9941410000000133
21
-142.9000000000000057
0
LINE
8
BLACK
6
CONTINUOUS
10
642.9940749999999525
20
-142.5
11
642.9938939999999548
21
-141.4000010000000032
0
LINE
8
BLACK
6
CONTINUOUS
10
642.9938280000000077
20
-141.0000009999999975
11
642.9936470000000099
21
-139.9000010000000032
0
LINE
8
BLACK
6
CONTINUOUS
10
642.9935809999999492
20
-139.5000009999999975
11
642.9933999999999514
21
-138.4000010000000032
0
LINE
8
BLACK
6
CONTINUOUS
10
642.9933340000000044
20
-138.0000009999999975
11
642.9931530000000066
21
-136.9000010000000032
0
LINE
8
BLACK
6
CONTINUOUS
10
642.9930869999999459
20
-136.5000009999999975
11
642.9929059999999481
21
-135.4000010000000032
0
LINE
8
BLACK
6
CONTINUOUS
10
642.9928400000000011
20
-135.0000009999999975
11
642.9926590000000033
21
-133.9000010000000032
0
LINE
8
BLACK
6
CONTINUOUS
10
642.9925929999999425
20
-133.5000009999999975
11
642.9924119999999448
21
-132.4000010000000032
0
LINE
8
BLACK
6
CONTINUOUS
10
642.9923459999999977
20
-132.0000009999999975
11
642.992165
21
-130.9000010000000032
0
LINE
8
BLACK
6
CONTINUOUS
10
642.9920999999999367
20
-130.5000009999999975
11
642.9919189999999389
21
-129.4000010000000032
0
LINE
8
BLACK
6
CONTINUOUS
10
642.9918529999999919
20
-129.0000009999999975
11
642.9916719999999941
21
-127.9000009999999889
0
LINE
8
BLACK
6
CONTINUOUS
10
642.9916059999999334
20
-127.5000009999999975
11
642.9914249999999356
21
-126.4000009999999889
0
LINE
8
BLACK
6
CONTINUOUS
10
642.9913589999999886
20
-126.0000009999999975
11
642.9911779999999908
21
-124.9000009999999889
0
LINE
8
BLACK
6
CONTINUOUS
10
642.99111199999993
20
-124.5000009999999975
11
642.9909309999999323
21
-123.4000009999999889
0
LINE
8
BLACK
6
CONTINUOUS
10
642.9908649999999852
20
-123.0000009999999975
11
642.9906839999999875
21
-121.9000009999999889
0
LINE
8
BLACK
6
CONTINUOUS
10
642.9906179999999267
20
-121.5000009999999975
11
642.990436999999929
21
-120.4000009999999889
0
LINE
8
BLACK
6
CONTINUOUS
10
642.9903709999999819
20
-120.0000009999999975
11
642.9901899999999841
21
-118.9000009999999889
0
LINE
8
BLACK
6
CONTINUOUS
10
642.9901249999999209
20
-118.5000009999999975
11
642.9899429999999256
21
-117.4000009999999889
0
LINE
8
BLACK
6
CONTINUOUS
10
642.9898779999999761
20
-117.0000009999999975
11
642.9896969999999783
21
-115.9000009999999889
0
LINE
8
BLACK
6
CONTINUOUS
10
642.9896309999999175
20
-115.5000009999999975
11
642.9894499999999198
21
-114.4000009999999889
0
LINE
8
BLACK
6
CONTINUOUS
10
642.9893839999999727
20
-114.0000009999999975
11
642.989202999999975
21
-112.9000009999999889
0
LINE
8
BLACK
6
CONTINUOUS
10
642.9891369999999142
20
-112.5000009999999975
11
642.9889559999999165
21
-111.4000009999999889
0
LINE
8
BLACK
6
CONTINUOUS
10
642.9888899999999694
20
-111.0000009999999975
11
642.9887089999999716
21
-109.9000009999999889
0
LINE
8
BLACK
6
CONTINUOUS
10
642.9886430000000246
20
-109.5000009999999975
11
642.9884620000000268
21
-108.4000009999999889
0
LINE
8
BLACK
6
CONTINUOUS
10
642.9883959999999661
20
-108.0000009999999975
11
642.9882149999999683
21
-106.9000009999999889
0
LINE
8
BLACK
6
CONTINUOUS
10
642.9881490000000213
20
-106.5000009999999975
11
642.9879680000000235
21
-105.4000009999999889
0
LINE
8
BLACK
6
CONTINUOUS
10
642.9879029999999602
20
-105.0000009999999975
11
642.987720999999965
21
-103.9000009999999889
0
LINE
8
BLACK
6
CONTINUOUS
10
642.9876560000000154
20
-103.5000009999999975
11
642.9874750000000176
21
-102.4000009999999889
0
LINE
8
BLACK
6
CONTINUOUS
10
642.9874089999999569
20
-102.0000009999999975
11
642.9872279999999591
21
-100.9000009999999889
0
LINE
8
BLACK
6
CONTINUOUS
10
642.9871620000000121
20
-100.5000009999999975
11
642.9869810000000143
21
-99.4000009999999889
0
LINE
8
BLACK
6
CONTINUOUS
10
642.9869149999999536
20
-99.0000009999999975
11
642.9867339999999558
21
-97.9000009999999889
0
LINE
8
BLACK
6
CONTINUOUS
10
642.9866680000000088
20
-97.5000009999999975
11
642.986487000000011
21
-96.4000009999999889
0
LINE
8
BLACK
6
CONTINUOUS
10
642.9864209999999503
20
-96.0000009999999975
11
642.9862399999999525
21
-94.9000009999999889
0
LINE
8
BLACK
6
CONTINUOUS
10
642.9861740000000054
20
-94.5000009999999975
11
642.9859930000000077
21
-93.4000009999999889
0
LINE
8
BLACK
6
CONTINUOUS
10
642.9859269999999469
20
-93.0000009999999975
11
642.9857459999999492
21
-91.9000009999999889
0
LINE
8
BLACK
6
CONTINUOUS
10
642.9856809999999996
20
-91.5000009999999975
11
642.9854990000000043
21
-90.4000009999999889
0
LINE
8
BLACK
6
CONTINUOUS
10
642.9854339999999411
20
-90.0000009999999975
11
642.9852529999999433
21
-88.9000009999999889
0
LINE
8
BLACK
6
CONTINUOUS
10
642.9851869999999963
20
-88.5000009999999975
11
642.9850059999999985
21
-87.4000009999999889
0
LINE
8
BLACK
6
CONTINUOUS
10
642.9849399999999378
20
-87.0000009999999975
11
642.98475899999994
21
-85.9000010000000032
0
LINE
8
BLACK
6
CONTINUOUS
10
642.9846929999999929
20
-85.5000009999999975
11
642.9845119999999952
21
-84.4000010000000032
0
LINE
8
BLACK
6
CONTINUOUS
10
642.9844459999999344
20
-84.0000009999999975
11
642.9842649999999367
21
-82.9000010000000032
0
LINE
8
BLACK
6
CONTINUOUS
10
642.9841989999999896
20
-82.5000009999999975
11
642.9840179999999918
21
-81.4000010000000032
0
LINE
8
BLACK
6
CONTINUOUS
10
642.9839519999999311
20
-81.0000009999999975
11
642.9837709999999333
21
-79.9000010000000032
0
LINE
8
BLACK
6
CONTINUOUS
10
642.9837049999999863
20
-79.5000009999999975
11
642.9835239999999885
21
-78.4000010000000032
0
LINE
8
BLACK
6
CONTINUOUS
10
642.9834589999999253
20
-78.0000009999999975
11
642.98327699999993
21
-76.9000010000000032
0
LINE
8
BLACK
6
CONTINUOUS
10
642.9832119999999804
20
-76.5000009999999975
11
642.9830309999999827
21
-75.4000010000000032
0
LINE
8
BLACK
6
CONTINUOUS
10
642.9829649999999219
20
-75.0000009999999975
11
642.9827839999999242
21
-73.9000010000000032
0
LINE
8
BLACK
6
CONTINUOUS
10
642.9827179999999771
20
-73.5000009999999975
11
642.9825369999999793
21
-72.4000010000000032
0
LINE
8
BLACK
6
CONTINUOUS
10
642.9824709999999186
20
-72.0000009999999975
11
642.9822899999999208
21
-70.9000010000000032
0
LINE
8
BLACK
6
CONTINUOUS
10
642.9822239999999738
20
-70.5000009999999975
11
642.982042999999976
21
-69.4000010000000032
0
LINE
8
BLACK
6
CONTINUOUS
10
642.9819769999999153
20
-69.0000009999999975
11
642.9817959999999175
21
-67.9000010000000032
0
LINE
8
BLACK
6
CONTINUOUS
10
642.9817299999999705
20
-67.500001999999995
11
642.9815489999999727
21
-66.4000020000000006
0
LINE
8
BLACK
6
CONTINUOUS
10
642.9814830000000256
20
-66.000001999999995
11
642.9813019999999142
21
-64.9000020000000006
0
LINE
8
BLACK
6
CONTINUOUS
10
642.9812369999999646
20
-64.500001999999995
11
642.9810549999999694
21
-63.4000020000000006
0
LINE
8
BLACK
6
CONTINUOUS
10
642.9809900000000198
20
-63.000001999999995
11
642.980809000000022
21
-61.9000020000000006
0
LINE
8
BLACK
6
CONTINUOUS
10
642.9807429999999613
20
-61.500001999999995
11
642.9805619999999635
21
-60.4000020000000006
0
LINE
8
BLACK
6
CONTINUOUS
10
642.9804960000000165
20
-60.000001999999995
11
642.9803150000000187
21
-58.9000020000000006
0
LINE
8
BLACK
6
CONTINUOUS
10
642.980248999999958
20
-58.500001999999995
11
642.9800679999999602
21
-57.4000020000000006
0
LINE
8
BLACK
6
CONTINUOUS
10
642.9800020000000131
20
-57.000001999999995
11
642.9798210000000154
21
-55.9000020000000006
0
LINE
8
BLACK
6
CONTINUOUS
10
642.9797549999999546
20
-55.500001999999995
11
642.9795739999999569
21
-54.4000020000000006
0
LINE
8
BLACK
6
CONTINUOUS
10
642.9795080000000098
20
-54.000001999999995
11
642.979327000000012
21
-52.9000020000000006
0
LINE
8
BLACK
6
CONTINUOUS
10
642.9792609999999513
20
-52.500001999999995
11
642.9790799999999535
21
-51.4000020000000006
0
LINE
8
BLACK
6
CONTINUOUS
10
642.979015000000004
20
-51.000001999999995
11
642.9788340000000062
21
-49.9000020000000006
0
LINE
8
BLACK
6
CONTINUOUS
10
642.9787679999999455
20
-49.500001999999995
11
642.9785869999999477
21
-48.4000020000000006
0
LINE
8
BLACK
6
CONTINUOUS
10
642.9785210000000006
20
-48.000001999999995
11
642.9783400000000029
21
-46.9000020000000006
0
LINE
8
BLACK
6
CONTINUOUS
10
642.9782739999999421
20
-46.500001999999995
11
642.9780929999999444
21
-45.4000020000000006
0
LINE
8
BLACK
6
CONTINUOUS
10
642.9780269999999973
20
-45.000001999999995
11
642.9778459999999995
21
-43.9000020000000006
0
LINE
8
BLACK
6
CONTINUOUS
10
642.9777799999999388
20
-43.500001999999995
11
642.977598999999941
21
-42.4000020000000006
0
LINE
8
BLACK
6
CONTINUOUS
10
642.977532999999994
20
-42.000001999999995
11
642.9773519999999962
21
-40.9000020000000006
0
LINE
8
BLACK
6
CONTINUOUS
10
642.9772859999999355
20
-40.500001999999995
11
642.9771049999999377
21
-39.4000020000000006
0
LINE
8
BLACK
6
CONTINUOUS
10
642.9770389999999907
20
-39.000001999999995
11
642.9768579999999929
21
-37.9000020000000006
0
LINE
8
BLACK
6
CONTINUOUS
10
642.9767929999999296
20
-37.500001999999995
11
642.9766119999999319
21
-36.4000020000000006
0
LINE
8
BLACK
6
CONTINUOUS
10
642.9765459999999848
20
-36.000001999999995
11
642.976364999999987
21
-34.9000020000000006
0
LINE
8
BLACK
6
CONTINUOUS
10
642.9762989999999263
20
-34.500001999999995
11
642.9761179999999285
21
-33.4000020000000006
0
LINE
8
BLACK
6
CONTINUOUS
10
642.9760519999999815
20
-33.0000020000000021
11
642.9758709999999837
21
-31.9000019999999971
0
LINE
8
BLACK
6
CONTINUOUS
10
642.975804999999923
20
-31.5000019999999985
11
642.9756239999999252
21
-30.4000019999999971
0
LINE
8
BLACK
6
CONTINUOUS
10
642.9755579999999782
20
-30.0000019999999985
11
642.9753769999999804
21
-28.9000019999999971
0
LINE
8
BLACK
6
CONTINUOUS
10
642.9753109999999197
20
-28.5000019999999985
11
642.9751299999999219
21
-27.4000019999999971
0
LINE
8
BLACK
6
CONTINUOUS
10
642.9750639999999748
20
-27.0000019999999985
11
642.9748829999999771
21
-25.9000019999999971
0
LINE
8
BLACK
6
CONTINUOUS
10
642.9748169999999163
20
-25.5000019999999985
11
642.9746359999999186
21
-24.4000020000000006
0
LINE
8
BLACK
6
CONTINUOUS
10
642.974570999999969
20
-24.0000019999999985
11
642.9743899999999712
21
-22.9000020000000006
0
LINE
8
BLACK
6
CONTINUOUS
10
642.9743240000000242
20
-22.5000019999999985
11
642.9741430000000264
21
-21.4000020000000006
0
LINE
8
BLACK
6
CONTINUOUS
10
642.9740769999999657
20
-21.0000019999999985
11
642.9738959999999679
21
-19.9000020000000006
0
LINE
8
BLACK
6
CONTINUOUS
10
642.9738300000000208
20
-19.5000019999999985
11
642.9736490000000231
21
-18.4000020000000006
0
LINE
8
BLACK
6
CONTINUOUS
10
642.9735829999999623
20
-18.0000019999999985
11
642.9734019999999646
21
-16.9000020000000006
0
LINE
8
BLACK
6
CONTINUOUS
10
642.9733360000000175
20
-16.5000019999999985
11
642.9731550000000198
21
-15.4000019999999989
0
LINE
8
BLACK
6
CONTINUOUS
10
642.973088999999959
20
-15.0000019999999985
11
642.9729079999999612
21
-13.9000019999999989
0
LINE
8
BLACK
6
CONTINUOUS
10
642.9728420000000142
20
-13.5000019999999985
11
642.9726610000000164
21
-12.4000019999999989
0
LINE
8
BLACK
6
CONTINUOUS
10
642.9725949999999557
20
-12.0000020000000003
11
642.9724139999999579
21
-10.9000019999999989
0
LINE
8
BLACK
6
CONTINUOUS
10
642.9723490000000083
20
-10.5000020000000003
11
642.9721680000000106
21
-9.4000019999999989
0
LINE
8
BLACK
6
CONTINUOUS
10
642.9721019999999498
20
-9.0000020000000003
11
642.9719209999999521
21
-7.9000019999999997
0
LINE
8
BLACK
6
CONTINUOUS
10
642.971855000000005
20
-7.5000019999999994
11
642.9716740000000073
21
-6.4000019999999997
0
LINE
8
BLACK
6
CONTINUOUS
10
642.9716079999999465
20
-6.0000019999999994
11
642.9714269999999487
21
-4.9000019999999997
0
LINE
8
BLACK
6
CONTINUOUS
10
642.9713610000000017
20
-4.5000019999999994
11
642.9711800000000039
21
-3.4000019999999997
0
LINE
8
BLACK
6
CONTINUOUS
10
642.9711139999999432
20
-3.0000019999999998
11
642.9709329999999454
21
-1.900002
0
LINE
8
BLACK
6
CONTINUOUS
10
642.9708669999999984
20
-1.5000019999999998
11
642.9706860000000006
21
-0.400002
0
LINE
8
BLACK
6
CONTINUOUS
10
642.9706199999999399
20
-0.000002
11
642.9704389999999421
21
1.099998
0
LINE
8
BLACK
6
CONTINUOUS
10
642.9703739999999925
20
1.4999979999999999
11
642.9701919999999973
21
2.5999979999999998
0
LINE
8
BLACK
6
CONTINUOUS
10
642.970126999999934
20
2.9999979999999997
11
642.9699459999999362
21
4.0999980000000003
0
LINE
8
BLACK
6
CONTINUOUS
10
642.9698799999999892
20
4.4999979999999997
11
642.9696989999999914
21
5.5999979999999994
0
LINE
8
BLACK
6
CONTINUOUS
10
642.9696329999999307
20
5.9999979999999997
11
642.9694519999999329
21
7.0999970000000001
0
LINE
8
BLACK
6
CONTINUOUS
10
642.9693859999999859
20
7.4999969999999996
11
642.9692049999999881
21
8.5999970000000001
0
LINE
8
BLACK
6
CONTINUOUS
10
642.9691389999999274
20
8.9999970000000005
11
642.9689579999999296
21
10.0999970000000001
0
LINE
8
BLACK
6
CONTINUOUS
10
642.9688919999999825
20
10.4999969999999987
11
642.9687109999999848
21
11.5999970000000001
0
LINE
8
BLACK
6
CONTINUOUS
10
642.968644999999924
20
11.9999969999999987
11
642.9684639999999263
21
13.0999970000000001
0
LINE
8
BLACK
6
CONTINUOUS
10
642.9683979999999792
20
13.4999969999999987
11
642.9682169999999815
21
14.5999970000000001
0
LINE
8
BLACK
6
CONTINUOUS
10
642.9681519999999182
20
14.9999969999999987
11
642.9679699999999229
21
16.0999969999999983
0
LINE
8
BLACK
6
CONTINUOUS
10
642.9679049999999734
20
16.4999970000000005
11
642.9677239999999756
21
17.5999969999999983
0
LINE
8
BLACK
6
CONTINUOUS
10
642.9676579999999149
20
17.9999970000000005
11
642.9674769999999171
21
19.0999969999999983
0
LINE
8
BLACK
6
CONTINUOUS
10
642.96741099999997
20
19.4999970000000005
11
642.9672299999999723
21
20.5999969999999983
0
LINE
8
BLACK
6
CONTINUOUS
10
642.9671640000000252
20
20.9999970000000005
11
642.9669830000000275
21
22.0999969999999983
0
LINE
8
BLACK
6
CONTINUOUS
10
642.9669169999999667
20
22.4999970000000005
11
642.966735999999969
21
23.5999969999999983
0
LINE
8
BLACK
6
CONTINUOUS
10
642.9666700000000219
20
23.9999970000000005
11
642.9664890000000241
21
25.0999969999999983
0
LINE
8
BLACK
6
CONTINUOUS
10
642.9664229999999634
20
25.4999970000000005
11
642.9662419999999656
21
26.5999969999999983
0
LINE
8
BLACK
6
CONTINUOUS
10
642.9661760000000186
20
26.9999970000000005
11
642.9659950000000208
21
28.0999969999999983
0
LINE
8
BLACK
6
CONTINUOUS
10
642.9659299999999575
20
28.4999970000000005
11
642.9657479999999623
21
29.5999969999999983
0
LINE
8
BLACK
6
CONTINUOUS
10
642.9656830000000127
20
29.9999969999999969
11
642.965502000000015
21
31.0999969999999983
0
LINE
8
BLACK
6
CONTINUOUS
10
642.9654359999999542
20
31.4999969999999969
11
642.9652549999999565
21
32.5999970000000019
0
LINE
8
BLACK
6
CONTINUOUS
10
642.9651890000000094
20
32.9999970000000005
11
642.9650080000000116
21
34.0999970000000019
0
LINE
8
BLACK
6
CONTINUOUS
10
642.9649419999999509
20
34.4999970000000005
11
642.9647609999999531
21
35.5999970000000019
0
LINE
8
BLACK
6
CONTINUOUS
10
642.9646950000000061
20
35.9999970000000005
11
642.9645140000000083
21
37.0999969999999948
0
LINE
8
BLACK
6
CONTINUOUS
10
642.9644479999999476
20
37.4999970000000005
11
642.9642669999999498
21
38.5999969999999948
0
LINE
8
BLACK
6
CONTINUOUS
10
642.9642010000000028
20
38.9999970000000005
11
642.964020000000005
21
40.0999969999999948
0
LINE
8
BLACK
6
CONTINUOUS
10
642.9639539999999442
20
40.4999970000000005
11
642.9637729999999465
21
41.5999969999999948
0
LINE
8
BLACK
6
CONTINUOUS
10
642.9637079999999969
20
41.9999970000000005
11
642.9635260000000017
21
43.0999969999999948
0
LINE
8
BLACK
6
CONTINUOUS
10
642.9634609999999384
20
43.4999970000000005
11
642.9632799999999406
21
44.5999969999999948
0
LINE
8
BLACK
6
CONTINUOUS
10
642.9632139999999936
20
44.9999970000000005
11
642.9630329999999958
21
46.0999969999999948
0
LINE
8
BLACK
6
CONTINUOUS
10
642.9629669999999351
20
46.4999970000000005
11
642.9627859999999373
21
47.5999969999999948
0
LINE
8
BLACK
6
CONTINUOUS
10
642.9627199999999903
20
47.9999970000000005
11
642.9625389999999925
21
49.0999969999999948
0
LINE
8
BLACK
6
CONTINUOUS
10
642.9624729999999317
20
49.4999970000000005
11
642.962291999999934
21
50.5999969999999948
0
LINE
8
BLACK
6
CONTINUOUS
10
642.9622259999999869
20
50.9999970000000005
11
642.9620449999999892
21
52.0999969999999948
0
LINE
8
BLACK
6
CONTINUOUS
10
642.9619789999999284
20
52.4999970000000005
11
642.9617979999999307
21
53.5999969999999948
0
LINE
8
BLACK
6
CONTINUOUS
10
642.9617319999999836
20
53.9999970000000005
11
642.9615509999999858
21
55.0999969999999948
0
LINE
8
BLACK
6
CONTINUOUS
10
642.9614859999999226
20
55.4999970000000005
11
642.9613039999999273
21
56.5999969999999948
0
LINE
8
BLACK
6
CONTINUOUS
10
642.9612389999999778
20
56.9999970000000005
11
642.96105799999998
21
58.0999969999999948
0
LINE
8
BLACK
6
CONTINUOUS
10
642.9609919999999192
20
58.4999970000000005
11
642.9608109999999215
21
59.5999969999999948
0
LINE
8
BLACK
6
CONTINUOUS
10
642.9607449999999744
20
59.9999970000000005
11
642.9605639999999767
21
61.0999969999999948
0
LINE
8
BLACK
6
CONTINUOUS
10
642.9604979999999159
20
61.4999970000000005
11
642.9604979999999159
21
61.5
0
LINE
8
BLACK
6
CONTINUOUS
10
547.8102509999999938
20
134.1192549999999812
11
547.8102509999999938
21
133.0397580000000062
0
CIRCLE
8
BLACK
10
529.
20
41.5
40
2.1000000000000001
0
LINE
8
BLACK
6
CONTINUOUS
10
644.0154219999999441
20
54.0367099999999994
11
644.4599210000000085
21
54.4812089999999998
0
CIRCLE
8
BLACK
10
603.5
20
51.5
40
1.6499999999999999
0
LINE
8
BLACK
6
CONTINUOUS
10
294.0642499999999586
20
135.0082390000000032
11
293.6197510000000079
21
135.4527420000000006
0
LINE
8
BLACK
6
CONTINUOUS
10
295.
20
-178.5
11
295.
21
-177.4000000000000057
0
LINE
8
BLACK
6
CONTINUOUS
10
295.
20
-177.
11
295.
21
-175.9000000000000057
0
LINE
8
BLACK
6
CONTINUOUS
10
295.
20
-175.5
11
295.
21
-174.4000000000000057
0
LINE
8
BLACK
6
CONTINUOUS
10
295.
20
-174.
11
295.
21
-172.9000000000000057
0
LINE
8
BLACK
6
CONTINUOUS
10
295.
20
-172.5
11
295.
21
-171.4000000000000057
0
LINE
8
BLACK
6
CONTINUOUS
10
295.
20
-171.
11
295.
21
-169.9000000000000057
0
LINE
8
BLACK
6
CONTINUOUS
10
295.
20
-169.5
11
295.
21
-168.4000000000000057
0
LINE
8
BLACK
6
CONTINUOUS
10
295.
20
-168.
11
295.
21
-166.9000000000000057
0
LINE
8
BLACK
6
CONTINUOUS
10
295.
20
-166.5
11
295.
21
-165.4000000000000057
0
LINE
8
BLACK
6
CONTINUOUS
10
295.
20
-165.
11
295.
21
-163.9000000000000057
0
LINE
8
BLACK
6
CONTINUOUS
10
295.
20
-163.5
11
295.
21
-162.4000000000000057
0
LINE
8
BLACK
6
CONTINUOUS
10
295.
20
-162.
11
295.
21
-160.9000000000000057
0
LINE
8
BLACK
6
CONTINUOUS
10
295.
20
-160.5
11
295.
21
-159.4000000000000057
0
LINE
8
BLACK
6
CONTINUOUS
10
295.
20
-159.
11
295.
21
-157.9000000000000057
0
LINE
8
BLACK
6
CONTINUOUS
10
295.
20
-157.5
11
295.
21
-156.4000000000000057
0
LINE
8
BLACK
6
CONTINUOUS
10
295.
20
-156.
11
295.
21
-154.9000000000000057
0
LINE
8
BLACK
6
CONTINUOUS
10
295.
20
-154.5
11
295.
21
-153.4000000000000057
0
LINE
8
BLACK
6
CONTINUOUS
10
295.
20
-153.
11
295.
21
-151.9000000000000057
0
LINE
8
BLACK
6
CONTINUOUS
10
295.
20
-151.5
11
295.
21
-150.4000000000000057
0
LINE
8
BLACK
6
CONTINUOUS
10
295.
20
-150.
11
295.
21
-148.9000000000000057
0
LINE
8
BLACK
6
CONTINUOUS
10
295.
20
-148.5
11
295.
21
-147.4000000000000057
0
LINE
8
BLACK
6
CONTINUOUS
10
295.
20
-147.
11
295.
21
-145.9000000000000057
0
LINE
8
BLACK
6
CONTINUOUS
10
295.
20
-145.5
11
295.
21
-144.4000000000000057
0
LINE
8
BLACK
6
CONTINUOUS
10
295.
20
-144.
11
295.
21
-142.9000000000000057
0
LINE
8
BLACK
6
CONTINUOUS
10
295.
20
-142.5
11
295.
21
-141.4000000000000057
0
LINE
8
BLACK
6
CONTINUOUS
10
295.
20
-141.
11
295.
21
-139.9000000000000057
0
LINE
8
BLACK
6
CONTINUOUS
10
295.
20
-139.5
11
295.
21
-138.4000000000000057
0
LINE
8
BLACK
6
CONTINUOUS
10
295.
20
-138.
11
295.
21
-136.9000000000000057
0
LINE
8
BLACK
6
CONTINUOUS
10
295.
20
-136.5
11
295.
21
-135.4000000000000057
0
LINE
8
BLACK
6
CONTINUOUS
10
295.
20
-135.
11
295.
21
-133.9000000000000057
0
LINE
8
BLACK
6
CONTINUOUS
10
295.
20
-133.5
11
295.
21
-132.4000000000000057
0
LINE
8
BLACK
6
CONTINUOUS
10
295.
20
-132.
11
295.
21
-130.9000000000000057
0
LINE
8
BLACK
6
CONTINUOUS
10
295.
20
-130.5
11
295.
21
-129.4000000000000057
0
LINE
8
BLACK
6
CONTINUOUS
10
295.
20
-129.
11
295.
21
-127.8999999999999915
0
LINE
8
BLACK
6
CONTINUOUS
10
295.
20
-127.5
11
295.
21
-126.3999999999999915
0
LINE
8
BLACK
6
CONTINUOUS
10
295.
20
-126.
11
295.
21
-124.8999999999999915
0
LINE
8
BLACK
6
CONTINUOUS
10
295.
20
-124.5
11
295.
21
-123.3999999999999915
0
LINE
8
BLACK
6
CONTINUOUS
10
295.
20
-123.
11
295.
21
-121.8999999999999915
0
LINE
8
BLACK
6
CONTINUOUS
10
295.
20
-121.5
11
295.
21
-120.3999999999999915
0
LINE
8
BLACK
6
CONTINUOUS
10
295.
20
-120.
11
295.
21
-118.8999999999999915
0
LINE
8
BLACK
6
CONTINUOUS
10
295.
20
-118.5
11
295.
21
-117.3999999999999915
0
LINE
8
BLACK
6
CONTINUOUS
10
295.
20
-117.
11
295.
21
-115.8999999999999915
0
LINE
8
BLACK
6
CONTINUOUS
10
295.
20
-115.5
11
295.
21
-114.3999999999999915
0
LINE
8
BLACK
6
CONTINUOUS
10
295.
20
-114.
11
295.
21
-112.8999999999999915
0
LINE
8
BLACK
6
CONTINUOUS
10
295.
20
-112.5
11
295.
21
-111.3999999999999915
0
LINE
8
BLACK
6
CONTINUOUS
10
295.
20
-111.
11
295.
21
-109.8999999999999915
0
LINE
8
BLACK
6
CONTINUOUS
10
295.
20
-109.5
11
295.
21
-108.3999999999999915
0
LINE
8
BLACK
6
CONTINUOUS
10
295.
20
-108.
11
295.
21
-106.8999999999999915
0
LINE
8
BLACK
6
CONTINUOUS
10
295.
20
-106.5
11
295.
21
-105.3999999999999915
0
LINE
8
BLACK
6
CONTINUOUS
10
295.
20
-105.
11
295.
21
-103.8999999999999915
0
LINE
8
BLACK
6
CONTINUOUS
10
295.
20
-103.5
11
295.
21
-102.3999999999999915
0
LINE
8
BLACK
6
CONTINUOUS
10
295.
20
-102.
11
295.
21
-100.8999999999999915
0
LINE
8
BLACK
6
CONTINUOUS
10
295.
20
-100.5
11
295.
21
-99.3999999999999915
0
LINE
8
BLACK
6
CONTINUOUS
10
295.
20
-99.
11
295.
21
-97.8999999999999915
0
LINE
8
BLACK
6
CONTINUOUS
10
295.
20
-97.5
11
295.
21
-96.3999999999999915
0
LINE
8
BLACK
6
CONTINUOUS
10
295.
20
-96.
11
295.
21
-94.8999999999999915
0
LINE
8
BLACK
6
CONTINUOUS
10
295.
20
-94.5
11
295.
21
-93.3999999999999915
0
LINE
8
BLACK
6
CONTINUOUS
10
295.
20
-93.
11
295.
21
-91.8999999999999915
0
LINE
8
BLACK
6
CONTINUOUS
10
295.
20
-91.5
11
295.
21
-90.3999999999999915
0
LINE
8
BLACK
6
CONTINUOUS
10
295.
20
-90.
11
295.
21
-88.8999999999999915
0
LINE
8
BLACK
6
CONTINUOUS
10
295.
20
-88.5
11
295.
21
-87.3999999999999915
0
LINE
8
BLACK
6
CONTINUOUS
10
295.
20
-87.
11
295.
21
-85.8999999999999915
0
LINE
8
BLACK
6
CONTINUOUS
10
295.
20
-85.5
11
295.
21
-84.3999999999999915
0
LINE
8
BLACK
6
CONTINUOUS
10
295.
20
-84.
11
295.
21
-82.8999999999999915
0
LINE
8
BLACK
6
CONTINUOUS
10
295.
20
-82.5
11
295.
21
-81.3999999999999915
0
LINE
8
BLACK
6
CONTINUOUS
10
295.
20
-81.
11
295.
21
-79.8999999999999915
0
LINE
8
BLACK
6
CONTINUOUS
10
295.
20
-79.5
11
295.
21
-78.3999999999999915
0
LINE
8
BLACK
6
CONTINUOUS
10
295.
20
-78.
11
295.
21
-76.8999999999999915
0
LINE
8
BLACK
6
CONTINUOUS
10
295.
20
-76.5
11
295.
21
-75.3999999999999915
0
LINE
8
BLACK
6
CONTINUOUS
10
295.
20
-75.
11
295.
21
-73.8999999999999915
0
LINE
8
BLACK
6
CONTINUOUS
10
295.
20
-73.5
11
295.
21
-72.3999999999999915
0
LINE
8
BLACK
6
CONTINUOUS
10
295.
20
-72.
11
295.
21
-70.8999999999999915
0
LINE
8
BLACK
6
CONTINUOUS
10
295.
20
-70.5
11
295.
21
-69.3999999999999915
0
LINE
8
BLACK
6
CONTINUOUS
10
295.
20
-69.
11
295.
21
-67.8999999999999915
0
LINE
8
BLACK
6
CONTINUOUS
10
295.
20
-67.5
11
295.
21
-66.3999999999999915
0
LINE
8
BLACK
6
CONTINUOUS
10
295.
20
-66.
11
295.
21
-64.8999999999999915
0
LINE
8
BLACK
6
CONTINUOUS
10
295.
20
-64.5
11
295.
21
-63.3999999999999986
0
LINE
8
BLACK
6
CONTINUOUS
10
295.
20
-63.
11
295.
21
-61.8999999999999986
0
LINE
8
BLACK
6
CONTINUOUS
10
295.
20
-61.5
11
295.
21
-60.3999999999999986
0
LINE
8
BLACK
6
CONTINUOUS
10
295.
20
-60.
11
295.
21
-58.8999999999999986
0
LINE
8
BLACK
6
CONTINUOUS
10
295.
20
-58.5
11
295.
21
-57.3999999999999986
0
LINE
8
BLACK
6
CONTINUOUS
10
295.
20
-57.
11
295.
21
-55.8999999999999986
0
LINE
8
BLACK
6
CONTINUOUS
10
295.
20
-55.5
11
295.
21
-54.3999999999999986
0
LINE
8
BLACK
6
CONTINUOUS
10
295.
20
-54.
11
295.
21
-52.8999999999999986
0
LINE
8
BLACK
6
CONTINUOUS
10
295.
20
-52.5
11
295.
21
-51.3999999999999986
0
LINE
8
BLACK
6
CONTINUOUS
10
295.
20
-51.
11
295.
21
-49.8999999999999986
0
LINE
8
BLACK
6
CONTINUOUS
10
295.
20
-49.5
11
295.
21
-48.3999999999999986
0
LINE
8
BLACK
6
CONTINUOUS
10
295.
20
-48.
11
295.
21
-46.8999999999999986
0
LINE
8
BLACK
6
CONTINUOUS
10
295.
20
-46.5
11
295.
21
-45.3999999999999986
0
LINE
8
BLACK
6
CONTINUOUS
10
295.
20
-45.
11
295.
21
-43.8999999999999986
0
LINE
8
BLACK
6
CONTINUOUS
10
295.
20
-43.5
11
295.
21
-42.3999999999999986
0
LINE
8
BLACK
6
CONTINUOUS
10
295.
20
-42.
11
295.
21
-40.8999999999999986
0
LINE
8
BLACK
6
CONTINUOUS
10
295.
20
-40.5
11
295.
21
-39.3999999999999986
0
LINE
8
BLACK
6
CONTINUOUS
10
295.
20
-39.
11
295.
21
-37.8999999999999986
0
LINE
8
BLACK
6
CONTINUOUS
10
295.
20
-37.5
11
295.
21
-36.3999999999999986
0
LINE
8
BLACK
6
CONTINUOUS
10
295.
20
-36.
11
295.
21
-34.8999999999999986
0
LINE
8
BLACK
6
CONTINUOUS
10
295.
20
-34.5
11
295.
21
-33.3999999999999986
0
LINE
8
BLACK
6
CONTINUOUS
10
295.
20
-33.
11
295.
21
-31.8999999999999986
0
LINE
8
BLACK
6
CONTINUOUS
10
295.
20
-31.5
11
295.
21
-30.3999999999999986
0
LINE
8
BLACK
6
CONTINUOUS
10
295.
20
-30.
11
295.
21
-28.8999999999999986
0
LINE
8
BLACK
6
CONTINUOUS
10
295.
20
-28.5
11
295.
21
-27.3999999999999986
0
LINE
8
BLACK
6
CONTINUOUS
10
295.
20
-27.
11
295.
21
-25.8999999999999986
0
LINE
8
BLACK
6
CONTINUOUS
10
295.
20
-25.5
11
295.
21
-24.3999999999999986
0
LINE
8
BLACK
6
CONTINUOUS
10
295.
20
-24.
11
295.
21
-22.8999999999999986
0
LINE
8
BLACK
6
CONTINUOUS
10
295.
20
-22.5
11
295.
21
-21.3999999999999986
0
LINE
8
BLACK
6
CONTINUOUS
10
295.
20
-21.
11
295.
21
-19.8999999999999986
0
LINE
8
BLACK
6
CONTINUOUS
10
295.
20
-19.5
11
295.
21
-18.3999999999999986
0
LINE
8
BLACK
6
CONTINUOUS
10
295.
20
-18.
11
295.
21
-16.8999999999999986
0
LINE
8
BLACK
6
CONTINUOUS
10
295.
20
-16.5
11
295.
21
-15.3999999999999986
0
LINE
8
BLACK
6
CONTINUOUS
10
295.
20
-15.
11
295.
21
-13.8999999999999986
0
LINE
8
BLACK
6
CONTINUOUS
10
295.
20
-13.5
11
295.
21
-12.3999999999999986
0
LINE
8
BLACK
6
CONTINUOUS
10
295.
20
-12.
11
295.
21
-10.9000000000000004
0
LINE
8
BLACK
6
CONTINUOUS
10
295.
20
-10.5
11
295.
21
-9.4000000000000004
0
LINE
8
BLACK
6
CONTINUOUS
10
295.
20
-9.
11
295.
21
-7.8999999999999995
0
LINE
8
BLACK
6
CONTINUOUS
10
295.
20
-7.5
11
295.
21
-6.3999999999999995
0
LINE
8
BLACK
6
CONTINUOUS
10
295.
20
-6.
11
295.
21
-4.8999999999999995
0
LINE
8
BLACK
6
CONTINUOUS
10
295.
20
-4.5
11
295.
21
-3.3999999999999999
0
LINE
8
BLACK
6
CONTINUOUS
10
295.
20
-3.
11
295.
21
-1.8999999999999999
0
LINE
8
BLACK
6
CONTINUOUS
10
295.
20
-1.5
11
295.
21
-0.4
0
LINE
8
BLACK
6
CONTINUOUS
10
295.
20
0.
11
295.
21
1.0999999999999999
0
LINE
8
BLACK
6
CONTINUOUS
10
295.
20
1.5
11
295.
21
2.6000000000000001
0
LINE
8
BLACK
6
CONTINUOUS
10
295.
20
3.
11
295.
21
4.0999999999999996
0
LINE
8
BLACK
6
CONTINUOUS
10
295.
20
4.5
11
295.
21
5.5999999999999996
0
LINE
8
BLACK
6
CONTINUOUS
10
295.
20
6.
11
295.
21
7.0999999999999996
0
LINE
8
BLACK
6
CONTINUOUS
10
295.
20
7.5
11
295.
21
8.5999999999999996
0
LINE
8
BLACK
6
CONTINUOUS
10
295.
20
9.
11
295.
21
10.0999999999999996
0
LINE
8
BLACK
6
CONTINUOUS
10
295.
20
10.5
11
295.
21
11.5999999999999996
0
LINE
8
BLACK
6
CONTINUOUS
10
295.
20
12.
11
295.
21
13.0999999999999996
0
LINE
8
BLACK
6
CONTINUOUS
10
295.
20
13.5
11
295.
21
14.5999999999999996
0
LINE
8
BLACK
6
CONTINUOUS
10
295.
20
15.
11
295.
21
16.0999999999999979
0
LINE
8
BLACK
6
CONTINUOUS
10
295.
20
16.5
11
295.
21
17.5999999999999979
0
LINE
8
BLACK
6
CONTINUOUS
10
295.
20
18.
11
295.
21
19.0999999999999979
0
LINE
8
BLACK
6
CONTINUOUS
10
295.
20
19.5
11
295.
21
20.5999999999999979
0
LINE
8
BLACK
6
CONTINUOUS
10
295.
20
21.
11
295.
21
22.0999999999999979
0
LINE
8
BLACK
6
CONTINUOUS
10
295.
20
22.5
11
295.
21
23.5999999999999979
0
LINE
8
BLACK
6
CONTINUOUS
10
295.
20
24.
11
295.
21
25.0999999999999979
0
LINE
8
BLACK
6
CONTINUOUS
10
295.
20
25.5
11
295.
21
26.5999999999999979
0
LINE
8
BLACK
6
CONTINUOUS
10
295.
20
27.
11
295.
21
28.0999999999999979
0
LINE
8
BLACK
6
CONTINUOUS
10
295.
20
28.5
11
295.
21
29.5999999999999979
0
LINE
8
BLACK
6
CONTINUOUS
10
295.
20
30.
11
295.
21
31.0999999999999979
0
LINE
8
BLACK
6
CONTINUOUS
10
295.
20
31.5
11
295.
21
32.6000000000000014
0
LINE
8
BLACK
6
CONTINUOUS
10
295.
20
33.
11
295.
21
34.1000000000000014
0
LINE
8
BLACK
6
CONTINUOUS
10
295.
20
34.5
11
295.
21
35.6000000000000014
0
LINE
8
BLACK
6
CONTINUOUS
10
295.
20
36.
11
295.
21
37.1000000000000014
0
LINE
8
BLACK
6
CONTINUOUS
10
295.
20
37.5
11
295.
21
38.6000000000000014
0
LINE
8
BLACK
6
CONTINUOUS
10
295.
20
39.
11
295.
21
40.1000000000000014
0
LINE
8
BLACK
6
CONTINUOUS
10
295.
20
40.5
11
295.
21
41.6000000000000014
0
LINE
8
BLACK
6
CONTINUOUS
10
295.
20
42.
11
295.
21
43.1000000000000014
0
LINE
8
BLACK
6
CONTINUOUS
10
295.
20
43.5
11
295.
21
44.6000000000000014
0
LINE
8
BLACK
6
CONTINUOUS
10
295.
20
45.
11
295.
21
46.1000000000000014
0
LINE
8
BLACK
6
CONTINUOUS
10
295.
20
46.5
11
295.
21
47.5999999999999943
0
LINE
8
BLACK
6
CONTINUOUS
10
295.
20
48.
11
295.
21
49.0999999999999943
0
LINE
8
BLACK
6
CONTINUOUS
10
295.
20
49.5
11
295.
21
50.5999999999999943
0
LINE
8
BLACK
6
CONTINUOUS
10
295.
20
51.
11
295.
21
52.0999999999999943
0
LINE
8
BLACK
6
CONTINUOUS
10
295.
20
52.5
11
295.
21
53.5999999999999943
0
LINE
8
BLACK
6
CONTINUOUS
10
295.
20
54.
11
295.
21
55.0999999999999943
0
LINE
8
BLACK
6
CONTINUOUS
10
295.
20
55.5
11
295.
21
56.5999999999999943
0
LINE
8
BLACK
6
CONTINUOUS
10
295.
20
57.
11
295.
21
58.0999999999999943
0
LINE
8
BLACK
6
CONTINUOUS
10
295.
20
58.5
11
295.
21
59.5999999999999943
0
LINE
8
BLACK
6
CONTINUOUS
10
295.
20
60.
11
295.
21
61.0999999999999943
0
LINE
8
BLACK
6
CONTINUOUS
10
184.7699979999999869
20
-171.1340089999999918
11
184.3254989999999793
21
-171.5785139999999842
0
LINE
8
BLACK
6
CONTINUOUS
10
184.8334979999999916
20
49.8457019999999957
11
184.7699979999999869
21
49.8457019999999957
0
LINE
8
BLACK
6
CONTINUOUS
10
305.75
20
-61.9450419999999937
11
306.7026280000000042
21
-61.3950419999999966
0
LINE
8
BLACK
6
CONTINUOUS
10
307.0490379999999959
20
-61.1950419999999937
11
308.0016660000000002
21
-60.6450419999999966
0
LINE
8
BLACK
6
CONTINUOUS
10
308.3480759999999918
20
-60.4450419999999937
11
308.9499999999999886
21
-60.0975210000000004
0
LINE
8
BLACK
6
CONTINUOUS
10
528.5499999999999545
20
-160.1024789999999882
11
528.5499999999999545
21
-161.2024789999999825
0
LINE
8
BLACK
6
CONTINUOUS
10
528.5499999999999545
20
-161.6024789999999882
11
528.5499999999999545
21
-162.7024789999999825
0
LINE
8
BLACK
6
CONTINUOUS
10
528.5499999999999545
20
-163.1024789999999882
11
528.5499999999999545
21
-163.797520999999989
0
LINE
8
BLACK
6
CONTINUOUS
10
308.9499999999999886
20
-160.1024789999999882
11
307.9973719999999844
21
-159.5524790000000053
0
LINE
8
BLACK
6
CONTINUOUS
10
307.6509619999999927
20
-159.3524789999999882
11
306.6983339999999885
21
-158.8024790000000053
0
LINE
8
BLACK
6
CONTINUOUS
10
306.3519239999999968
20
-158.6024789999999882
11
305.75
21
-158.2549579999999878
0
LINE
8
BLACK
6
CONTINUOUS
10
422.9564879999999789
20
92.7945339999999987
11
423.4009909999999763
21
92.3499999999999943
0
LINE
8
BLACK
6
CONTINUOUS
10
547.6000000000000227
20
152.5
11
549.1000000000000227
21
152.5
0
CIRCLE
8
BLACK
10
305.75
20
-58.25
40
2.6899999999999999
0
LINE
8
BLACK
6
CONTINUOUS
10
643.1899230000000216
20
49.8457149999999984
11
643.5709219999999959
21
49.401215999999998
0
LINE
8
BLACK
6
CONTINUOUS
10
183.8809990000000028
20
-166.9430219999999849
11
183.5
21
-166.5620199999999897
0
LINE
8
BLACK
6
CONTINUOUS
10
429.75
20
48.6450419999999966
11
428.7973719999999958
21
48.0950419999999994
0
LINE
8
BLACK
6
CONTINUOUS
10
428.4509620000000041
20
47.8950419999999966
11
427.4983339999999998
21
47.3450419999999994
0
LINE
8
BLACK
6
CONTINUOUS
10
427.1519240000000082
20
47.1450419999999966
11
426.5499999999999545
21
46.7975209999999961
0
LINE
8
BLACK
6
CONTINUOUS
10
547.8102509999999938
20
130.8172700000000077
11
548.2547849999999698
21
130.3727669999999819
0
ARC
8
BLACK
10
543.1000000000000227
20
97.5
40
4.5
50
-90.00000000
51
-0.00000000
0
LINE
8
BLACK
6
CONTINUOUS
10
294.9532479999999737
20
130.8807449999999903
11
294.8897479999999973
21
130.8807449999999903
0
LINE
8
BLACK
6
CONTINUOUS
10
516.5499999999999545
20
44.5975210000000004
11
516.5499999999999545
21
43.497520999999999
0
LINE
8
BLACK
6
CONTINUOUS
10
516.5499999999999545
20
43.0975210000000004
11
516.5499999999999545
21
41.997520999999999
0
LINE
8
BLACK
6
CONTINUOUS
10
516.5499999999999545
20
41.5975210000000004
11
516.5499999999999545
21
40.9024789999999996
0
LINE
8
BLACK
6
CONTINUOUS
10
294.0642499999999586
20
129.9917609999999968
11
293.6197510000000079
21
129.5472579999999994
0
LINE
8
BLACK
6
CONTINUOUS
10
547.6197509999999511
20
134.1192549999999812
11
547.6832859999999528
21
134.1192549999999812
0
CIRCLE
8
BLACK
10
421.25
20
-169.5
40
2.9499999999999997
0
LINE
8
BLACK
6
CONTINUOUS
10
543.1000000000000227
20
93.
11
299.5999999999999659
21
93.
0
CIRCLE
8
BLACK
10
603.5
20
-168.5
40
1.6499999999999999
0
CIRCLE
8
BLACK
10
421.25
20
52.5
40
1.6499999999999999
0
LINE
8
BLACK
6
CONTINUOUS
10
294.0642499999999586
20
135.0082390000000032
11
293.6197510000000079
21
135.4527420000000006
0
LINE
8
BLACK
6
CONTINUOUS
10
547.8102509999999938
20
134.1192549999999812
11
548.2547849999999698
21
134.5637580000000071
0
CIRCLE
8
BLACK
10
421.25
20
-169.5
40
1.6499999999999999
0
LINE
8
BLACK
6
CONTINUOUS
10
441.9499999999999886
20
-163.797520999999989
11
441.9499999999999886
21
-162.6975209999999947
0
LINE
8
BLACK
6
CONTINUOUS
10
441.9499999999999886
20
-162.297520999999989
11
441.9499999999999886
21
-161.1975209999999947
0
LINE
8
BLACK
6
CONTINUOUS
10
441.9499999999999886
20
-160.797520999999989
11
441.9499999999999886
21
-160.1024789999999882
0
LINE
8
BLACK
6
CONTINUOUS
10
519.75
20
46.4450420000000008
11
518.7973719999999958
21
45.8950419999999966
0
LINE
8
BLACK
6
CONTINUOUS
10
518.4509620000000041
20
45.6950420000000008
11
517.4983339999999998
21
45.1450419999999966
0
LINE
8
BLACK
6
CONTINUOUS
10
517.1519240000000082
20
44.9450420000000008
11
516.5499999999999545
21
44.5975210000000004
0
LINE
8
BLACK
6
CONTINUOUS
10
184.8334979999999916
20
-171.1340089999999918
11
184.7699979999999869
21
-171.1340089999999918
0
LINE
8
BLACK
6
CONTINUOUS
10
295.0802479999999832
20
130.8807449999999903
11
294.9532479999999737
21
130.8807449999999903
0
LINE
8
BLACK
6
CONTINUOUS
10
419.2099999999999795
20
92.3499999999999943
11
418.828993999999966
21
91.9690360000000027
0
LINE
8
BLACK
6
CONTINUOUS
10
644.0154219999999441
20
-172.0230080000000044
11
644.4599210000000085
21
-172.4675069999999835
0
LINE
8
BLACK
6
CONTINUOUS
10
184.7699979999999869
20
49.8457019999999957
11
184.3254989999999793
21
49.4012029999999953
0
LINE
8
BLACK
6
CONTINUOUS
10
435.5499999999999545
20
-160.1024789999999882
11
435.5499999999999545
21
-161.2024789999999825
0
LINE
8
BLACK
6
CONTINUOUS
10
435.5499999999999545
20
-161.6024789999999882
11
435.5499999999999545
21
-162.7024789999999825
0
LINE
8
BLACK
6
CONTINUOUS
10
435.5499999999999545
20
-163.1024789999999882
11
435.5499999999999545
21
-163.797520999999989
0
LINE
8
BLACK
6
CONTINUOUS
10
519.75
20
39.0549579999999992
11
520.7026280000000042
21
39.6049579999999963
0
LINE
8
BLACK
6
CONTINUOUS
10
521.0490379999999959
20
39.8049579999999992
11
522.0016660000000002
21
40.3549579999999963
0
LINE
8
BLACK
6
CONTINUOUS
10
522.3480759999999918
20
40.5549579999999992
11
522.9499999999999318
21
40.9024789999999996
0
LINE
8
BLACK
6
CONTINUOUS
10
419.654502999999977
20
92.8580339999999893
11
419.654502999999977
21
92.7945339999999987
0
LINE
8
BLACK
6
CONTINUOUS
10
643.1264599999999518
20
49.8457149999999984
11
643.1899230000000216
21
49.8457149999999984
0
LINE
8
BLACK
6
CONTINUOUS
10
302.5500000000000114
20
-60.0975210000000004
11
303.5026279999999588
21
-60.6475209999999976
0
LINE
8
BLACK
6
CONTINUOUS
10
303.8490380000000073
20
-60.8475210000000004
11
304.8016660000000115
21
-61.3975209999999976
0
LINE
8
BLACK
6
CONTINUOUS
10
305.1480760000000032
20
-61.5975210000000004
11
305.75
21
-61.9450419999999937
0
LINE
8
BLACK
6
CONTINUOUS
10
426.5499999999999545
20
46.7975209999999961
11
426.5499999999999545
21
45.6975209999999947
0
LINE
8
BLACK
6
CONTINUOUS
10
426.5499999999999545
20
45.2975209999999961
11
426.5499999999999545
21
44.1975209999999947
0
LINE
8
BLACK
6
CONTINUOUS
10
426.5499999999999545
20
43.7975209999999961
11
426.5499999999999545
21
43.1024789999999953
0
LINE
8
BLACK
6
CONTINUOUS
10
522.9499999999999318
20
40.9024789999999996
11
522.9499999999999318
21
42.002479000000001
0
LINE
8
BLACK
6
CONTINUOUS
10
522.9499999999999318
20
42.4024789999999996
11
522.9499999999999318
21
43.502479000000001
0
LINE
8
BLACK
6
CONTINUOUS
10
522.9499999999999318
20
43.9024789999999996
11
522.9499999999999318
21
44.5975210000000004
0
LINE
8
BLACK
6
CONTINUOUS
10
643.1899230000000216
20
-171.1340089999999918
11
643.5709219999999959
21
-171.5785089999999968
0
LINE
8
BLACK
6
CONTINUOUS
10
184.9604980000000012
20
-167.8320190000000025
11
184.7699979999999869
21
-167.8320190000000025
0
LINE
8
BLACK
6
CONTINUOUS
10
548.2547849999999698
20
130.3727669999999819
11
548.6357489999999189
21
129.9917609999999968
0
LINE
8
BLACK
6
CONTINUOUS
10
547.7467510000000175
20
134.1192549999999812
11
547.8102509999999938
21
134.1192549999999812
0
CIRCLE
8
BLACK
10
529.
20
22.5
40
1.8999999999999999
0
LINE
8
BLACK
6
CONTINUOUS
10
295.0802479999999832
20
130.8807449999999903
11
295.0167129999999815
21
130.8807449999999903
0
LINE
8
BLACK
6
CONTINUOUS
10
184.8334979999999916
20
-167.8320190000000025
11
184.7699979999999869
21
-167.8320190000000025
0
LINE
8
BLACK
6
CONTINUOUS
10
429.75
20
41.2549579999999949
11
430.7026280000000042
21
41.8049579999999992
0
LINE
8
BLACK
6
CONTINUOUS
10
431.0490379999999959
20
42.0049579999999949
11
432.0016660000000002
21
42.5549579999999992
0
LINE
8
BLACK
6
CONTINUOUS
10
432.3480759999999918
20
42.7549579999999949
11
432.9499999999999886
21
43.1024789999999953
0
LINE
8
BLACK
6
CONTINUOUS
10
308.9499999999999886
20
-163.797520999999989
11
308.9499999999999886
21
-162.6975209999999947
0
LINE
8
BLACK
6
CONTINUOUS
10
308.9499999999999886
20
-162.297520999999989
11
308.9499999999999886
21
-161.1975209999999947
0
LINE
8
BLACK
6
CONTINUOUS
10
308.9499999999999886
20
-160.797520999999989
11
308.9499999999999886
21
-160.1024789999999882
0
LINE
8
BLACK
6
CONTINUOUS
10
534.9499999999999318
20
-60.0975210000000004
11
534.9499999999999318
21
-58.997520999999999
0
LINE
8
BLACK
6
CONTINUOUS
10
534.9499999999999318
20
-58.5975210000000004
11
534.9499999999999318
21
-57.497520999999999
0
LINE
8
BLACK
6
CONTINUOUS
10
534.9499999999999318
20
-57.0975210000000004
11
534.9499999999999318
21
-56.4024789999999996
0
LINE
8
BLACK
6
CONTINUOUS
10
183.5
20
61.5
11
244.5
21
61.5
0
LINE
8
BLACK
6
CONTINUOUS
10
184.8334979999999916
20
53.1476979999999983
11
184.7699979999999869
21
53.1476979999999983
0
ARC
8
BLACK
10
299.5999999999999659
20
97.5
40
6.
50
-180.00000000
51
-90.00000000
0
LINE
8
BLACK
6
CONTINUOUS
10
295.0167129999999815
20
134.1827299999999923
11
294.9532479999999737
21
134.1827299999999923
0
CIRCLE
8
BLACK
10
313.5
20
22.5
40
1.8999999999999999
0
LINE
8
BLACK
6
CONTINUOUS
10
643.1264599999999518
20
-171.1340089999999918
11
643.1899230000000216
21
-171.1340089999999918
0
LINE
8
BLACK
6
CONTINUOUS
10
548.6357489999999189
20
129.9917609999999968
11
549.0802479999999832
21
129.5472579999999994
0
LINE
8
BLACK
6
CONTINUOUS
10
422.9564879999999789
20
92.9850339999999989
11
422.9564879999999789
21
92.8580339999999893
0
LINE
8
BLACK
6
CONTINUOUS
10
183.8809990000000028
20
54.0366969999999966
11
183.5
21
54.4811959999999971
0
LINE
8
BLACK
6
CONTINUOUS
10
531.75
20
-158.2549579999999878
11
530.7973719999999958
21
-158.8049579999999992
0
LINE
8
BLACK
6
CONTINUOUS
10
530.4509620000000041
20
-159.0049579999999878
11
529.4983339999999998
21
-159.5549579999999992
0
LINE
8
BLACK
6
CONTINUOUS
10
529.1519240000000082
20
-159.7549579999999878
11
528.5499999999999545
21
-160.1024789999999882
0
LINE
8
BLACK
6
CONTINUOUS
10
547.7467510000000175
20
130.8172700000000077
11
547.8102509999999938
21
130.8172700000000077
0
LINE
8
BLACK
6
CONTINUOUS
10
302.5500000000000114
20
-163.797520999999989
11
303.5026279999999588
21
-164.3475210000000004
0
LINE
8
BLACK
6
CONTINUOUS
10
303.8490380000000073
20
-164.547520999999989
11
304.8016660000000115
21
-165.0975210000000004
0
LINE
8
BLACK
6
CONTINUOUS
10
305.1480760000000032
20
-165.297520999999989
11
305.75
21
-165.6450419999999895
0
LINE
8
BLACK
6
CONTINUOUS
10
419.654502999999977
20
92.9850339999999989
11
419.654502999999977
21
92.9214989999999972
0
LINE
8
BLACK
6
CONTINUOUS
10
294.8897479999999973
20
130.8807449999999903
11
294.4452139999999645
21
130.4362419999999929
0
CIRCLE
8
BLACK
10
603.5
20
-168.5
40
2.9499999999999997
0
LINE
8
BLACK
6
CONTINUOUS
10
302.5500000000000114
20
46.7975209999999961
11
302.5500000000000114
21
45.6975209999999947
0
LINE
8
BLACK
6
CONTINUOUS
10
302.5500000000000114
20
45.2975209999999961
11
302.5500000000000114
21
44.1975209999999947
0
LINE
8
BLACK
6
CONTINUOUS
10
302.5500000000000114
20
43.7975209999999961
11
302.5500000000000114
21
43.1024789999999953
0
LINE
8
BLACK
6
CONTINUOUS
10
184.7699979999999869
20
-171.1340089999999918
11
184.7699979999999869
21
-170.0545109999999909
0
LINE
8
BLACK
6
CONTINUOUS
10
184.9604980000000012
20
53.1476979999999983
11
184.8969979999999964
21
53.1476979999999983
0
CIRCLE
8
BLACK
10
224.5
20
51.5
40
1.6499999999999999
0
LINE
8
BLACK
6
CONTINUOUS
10
295.0802479999999832
20
134.1827299999999923
11
295.0167129999999815
21
134.1827299999999923
0
CIRCLE
8
BLACK
10
529.
20
-148.5
40
2.1000000000000001
0
LINE
8
BLACK
6
CONTINUOUS
10
305.75
20
48.6450419999999966
11
304.7973719999999958
21
48.0950419999999994
0
LINE
8
BLACK
6
CONTINUOUS
10
304.4509620000000041
20
47.8950419999999966
11
303.4983339999999998
21
47.3450419999999994
0
LINE
8
BLACK
6
CONTINUOUS
10
303.1519240000000082
20
47.1450419999999966
11
302.5500000000000114
21
46.7975209999999961
0
LINE
8
BLACK
6
CONTINUOUS
10
534.9499999999999318
20
-56.4024789999999996
11
533.9973719999999275
21
-55.8524789999999953
0
LINE
8
BLACK
6
CONTINUOUS
10
533.6509619999999359
20
-55.6524789999999996
11
532.6983339999999316
21
-55.1024789999999953
0
LINE
8
BLACK
6
CONTINUOUS
10
532.35192399999994
20
-54.9024789999999996
11
531.75
21
-54.5549579999999992
0
LINE
8
BLACK
6
CONTINUOUS
10
244.5
20
61.5
11
244.5
21
-178.5
0
CIRCLE
8
BLACK
10
224.5
20
-168.5
40
1.6499999999999999
0
LINE
8
BLACK
6
CONTINUOUS
10
643.1899230000000216
20
-168.9115119999999877
11
643.1899230000000216
21
-167.8320129999999892
0
LINE
8
BLACK
6
CONTINUOUS
10
183.5
20
-178.5
11
183.5
21
61.5
0
LINE
8
BLACK
6
CONTINUOUS
10
528.5499999999999545
20
-56.4024789999999996
11
528.5499999999999545
21
-57.5024789999999939
0
LINE
8
BLACK
6
CONTINUOUS
10
528.5499999999999545
20
-57.9024789999999996
11
528.5499999999999545
21
-59.0024789999999939
0
LINE
8
BLACK
6
CONTINUOUS
10
528.5499999999999545
20
-59.4024789999999996
11
528.5499999999999545
21
-60.0975210000000004
0
LINE
8
BLACK
6
CONTINUOUS
10
419.654502999999977
20
92.8580339999999893
11
419.654502999999977
21
92.7945339999999987
0
LINE
8
BLACK
6
CONTINUOUS
10
422.9564879999999789
20
92.8580339999999893
11
422.9564879999999789
21
92.7945339999999987
0
LINE
8
BLACK
6
CONTINUOUS
10
547.6197509999999511
20
134.1192549999999812
11
547.7467510000000175
21
134.1192549999999812
0
CIRCLE
8
BLACK
10
313.5
20
41.5
40
2.1000000000000001
0
CIRCLE
8
BLACK
10
529.
20
-129.5
40
1.8999999999999999
0
LINE
8
BLACK
6
CONTINUOUS
10
294.4452139999999645
20
134.6272329999999897
11
294.0642499999999586
21
135.0082390000000032
0
LINE
8
BLACK
6
CONTINUOUS
10
547.6197509999999511
20
134.1192549999999812
11
547.6832859999999528
21
134.1192549999999812
0
LINE
8
BLACK
6
CONTINUOUS
10
184.7699979999999869
20
49.8457019999999957
11
184.7699979999999869
21
50.9887009999999989
0
LINE
8
BLACK
6
CONTINUOUS
10
583.5
20
-178.5
11
644.5
21
-178.5
0
LINE
8
BLACK
6
CONTINUOUS
10
547.5
20
-178.5
11
547.5
21
-177.4000000000000057
0
LINE
8
BLACK
6
CONTINUOUS
10
547.5
20
-177.
11
547.5
21
-175.9000000000000057
0
LINE
8
BLACK
6
CONTINUOUS
10
547.5
20
-175.5
11
547.5
21
-174.4000000000000057
0
LINE
8
BLACK
6
CONTINUOUS
10
547.5
20
-174.
11
547.5
21
-172.9000000000000057
0
LINE
8
BLACK
6
CONTINUOUS
10
547.5
20
-172.5
11
547.5
21
-171.4000000000000057
0
LINE
8
BLACK
6
CONTINUOUS
10
547.5
20
-171.
11
547.5
21
-169.9000000000000057
0
LINE
8
BLACK
6
CONTINUOUS
10
547.5
20
-169.5
11
547.5
21
-168.4000000000000057
0
LINE
8
BLACK
6
CONTINUOUS
10
547.5
20
-168.
11
547.5
21
-166.9000000000000057
0
LINE
8
BLACK
6
CONTINUOUS
10
547.5
20
-166.5
11
547.5
21
-165.4000000000000057
0
LINE
8
BLACK
6
CONTINUOUS
10
547.5
20
-165.
11
547.5
21
-163.9000000000000057
0
LINE
8
BLACK
6
CONTINUOUS
10
547.5
20
-163.5
11
547.5
21
-162.4000000000000057
0
LINE
8
BLACK
6
CONTINUOUS
10
547.5
20
-162.
11
547.5
21
-160.9000000000000057
0
LINE
8
BLACK
6
CONTINUOUS
10
547.5
20
-160.5
11
547.5
21
-159.4000000000000057
0
LINE
8
BLACK
6
CONTINUOUS
10
547.5
20
-159.
11
547.5
21
-157.9000000000000057
0
LINE
8
BLACK
6
CONTINUOUS
10
547.5
20
-157.5
11
547.5
21
-156.4000000000000057
0
LINE
8
BLACK
6
CONTINUOUS
10
547.5
20
-156.
11
547.5
21
-154.9000000000000057
0
LINE
8
BLACK
6
CONTINUOUS
10
547.5
20
-154.5
11
547.5
21
-153.4000000000000057
0
LINE
8
BLACK
6
CONTINUOUS
10
547.5
20
-153.
11
547.5
21
-151.9000000000000057
0
LINE
8
BLACK
6
CONTINUOUS
10
547.5
20
-151.5
11
547.5
21
-150.4000000000000057
0
LINE
8
BLACK
6
CONTINUOUS
10
547.5
20
-150.
11
547.5
21
-148.9000000000000057
0
LINE
8
BLACK
6
CONTINUOUS
10
547.5
20
-148.5
11
547.5
21
-147.4000000000000057
0
LINE
8
BLACK
6
CONTINUOUS
10
547.5
20
-147.
11
547.5
21
-145.9000000000000057
0
LINE
8
BLACK
6
CONTINUOUS
10
547.5
20
-145.5
11
547.5
21
-144.4000000000000057
0
LINE
8
BLACK
6
CONTINUOUS
10
547.5
20
-144.
11
547.5
21
-142.9000000000000057
0
LINE
8
BLACK
6
CONTINUOUS
10
547.5
20
-142.5
11
547.5
21
-141.4000000000000057
0
LINE
8
BLACK
6
CONTINUOUS
10
547.5
20
-141.
11
547.5
21
-139.9000000000000057
0
LINE
8
BLACK
6
CONTINUOUS
10
547.5
20
-139.5
11
547.5
21
-138.4000000000000057
0
LINE
8
BLACK
6
CONTINUOUS
10
547.5
20
-138.
11
547.5
21
-136.9000000000000057
0
LINE
8
BLACK
6
CONTINUOUS
10
547.5
20
-136.5
11
547.5
21
-135.4000000000000057
0
LINE
8
BLACK
6
CONTINUOUS
10
547.5
20
-135.
11
547.5
21
-133.9000000000000057
0
LINE
8
BLACK
6
CONTINUOUS
10
547.5
20
-133.5
11
547.5
21
-132.4000000000000057
0
LINE
8
BLACK
6
CONTINUOUS
10
547.5
20
-132.
11
547.5
21
-130.9000000000000057
0
LINE
8
BLACK
6
CONTINUOUS
10
547.5
20
-130.5
11
547.5
21
-129.4000000000000057
0
LINE
8
BLACK
6
CONTINUOUS
10
547.5
20
-129.
11
547.5
21
-127.8999999999999915
0
LINE
8
BLACK
6
CONTINUOUS
10
547.5
20
-127.5
11
547.5
21
-126.3999999999999915
0
LINE
8
BLACK
6
CONTINUOUS
10
547.5
20
-126.
11
547.5
21
-124.8999999999999915
0
LINE
8
BLACK
6
CONTINUOUS
10
547.5
20
-124.5
11
547.5
21
-123.3999999999999915
0
LINE
8
BLACK
6
CONTINUOUS
10
547.5
20
-123.
11
547.5
21
-121.8999999999999915
0
LINE
8
BLACK
6
CONTINUOUS
10
547.5
20
-121.5
11
547.5
21
-120.3999999999999915
0
LINE
8
BLACK
6
CONTINUOUS
10
547.5
20
-120.
11
547.5
21
-118.8999999999999915
0
LINE
8
BLACK
6
CONTINUOUS
10
547.5
20
-118.5
11
547.5
21
-117.3999999999999915
0
LINE
8
BLACK
6
CONTINUOUS
10
547.5
20
-117.
11
547.5
21
-115.8999999999999915
0
LINE
8
BLACK
6
CONTINUOUS
10
547.5
20
-115.5
11
547.5
21
-114.3999999999999915
0
LINE
8
BLACK
6
CONTINUOUS
10
547.5
20
-114.
11
547.5
21
-112.8999999999999915
0
LINE
8
BLACK
6
CONTINUOUS
10
547.5
20
-112.5
11
547.5
21
-111.3999999999999915
0
LINE
8
BLACK
6
CONTINUOUS
10
547.5
20
-111.
11
547.5
21
-109.8999999999999915
0
LINE
8
BLACK
6
CONTINUOUS
10
547.5
20
-109.5
11
547.5
21
-108.3999999999999915
0
LINE
8
BLACK
6
CONTINUOUS
10
547.5
20
-108.
11
547.5
21
-106.8999999999999915
0
LINE
8
BLACK
6
CONTINUOUS
10
547.5
20
-106.5
11
547.5
21
-105.3999999999999915
0
LINE
8
BLACK
6
CONTINUOUS
10
547.5
20
-105.
11
547.5
21
-103.8999999999999915
0
LINE
8
BLACK
6
CONTINUOUS
10
547.5
20
-103.5
11
547.5
21
-102.3999999999999915
0
LINE
8
BLACK
6
CONTINUOUS
10
547.5
20
-102.
11
547.5
21
-100.8999999999999915
0
LINE
8
BLACK
6
CONTINUOUS
10
547.5
20
-100.5
11
547.5
21
-99.3999999999999915
0
LINE
8
BLACK
6
CONTINUOUS
10
547.5
20
-99.
11
547.5
21
-97.8999999999999915
0
LINE
8
BLACK
6
CONTINUOUS
10
547.5
20
-97.5
11
547.5
21
-96.3999999999999915
0
LINE
8
BLACK
6
CONTINUOUS
10
547.5
20
-96.
11
547.5
21
-94.8999999999999915
0
LINE
8
BLACK
6
CONTINUOUS
10
547.5
20
-94.5
11
547.5
21
-93.3999999999999915
0
LINE
8
BLACK
6
CONTINUOUS
10
547.5
20
-93.
11
547.5
21
-91.8999999999999915
0
LINE
8
BLACK
6
CONTINUOUS
10
547.5
20
-91.5
11
547.5
21
-90.3999999999999915
0
LINE
8
BLACK
6
CONTINUOUS
10
547.5
20
-90.
11
547.5
21
-88.8999999999999915
0
LINE
8
BLACK
6
CONTINUOUS
10
547.5
20
-88.5
11
547.5
21
-87.3999999999999915
0
LINE
8
BLACK
6
CONTINUOUS
10
547.5
20
-87.
11
547.5
21
-85.8999999999999915
0
LINE
8
BLACK
6
CONTINUOUS
10
547.5
20
-85.5
11
547.5
21
-84.3999999999999915
0
LINE
8
BLACK
6
CONTINUOUS
10
547.5
20
-84.
11
547.5
21
-82.8999999999999915
0
LINE
8
BLACK
6
CONTINUOUS
10
547.5
20
-82.5
11
547.5
21
-81.3999999999999915
0
LINE
8
BLACK
6
CONTINUOUS
10
547.5
20
-81.
11
547.5
21
-79.8999999999999915
0
LINE
8
BLACK
6
CONTINUOUS
10
547.5
20
-79.5
11
547.5
21
-78.3999999999999915
0
LINE
8
BLACK
6
CONTINUOUS
10
547.5
20
-78.
11
547.5
21
-76.8999999999999915
0
LINE
8
BLACK
6
CONTINUOUS
10
547.5
20
-76.5
11
547.5
21
-75.3999999999999915
0
LINE
8
BLACK
6
CONTINUOUS
10
547.5
20
-75.
11
547.5
21
-73.8999999999999915
0
LINE
8
BLACK
6
CONTINUOUS
10
547.5
20
-73.5
11
547.5
21
-72.3999999999999915
0
LINE
8
BLACK
6
CONTINUOUS
10
547.5
20
-72.
11
547.5
21
-70.8999999999999915
0
LINE
8
BLACK
6
CONTINUOUS
10
547.5
20
-70.5
11
547.5
21
-69.3999999999999915
0
LINE
8
BLACK
6
CONTINUOUS
10
547.5
20
-69.
11
547.5
21
-67.8999999999999915
0
LINE
8
BLACK
6
CONTINUOUS
10
547.5
20
-67.5
11
547.5
21
-66.3999999999999915
0
LINE
8
BLACK
6
CONTINUOUS
10
547.5
20
-66.
11
547.5
21
-64.8999999999999915
0
LINE
8
BLACK
6
CONTINUOUS
10
547.5
20
-64.5
11
547.5
21
-63.3999999999999986
0
LINE
8
BLACK
6
CONTINUOUS
10
547.5
20
-63.
11
547.5
21
-61.8999999999999986
0
LINE
8
BLACK
6
CONTINUOUS
10
547.5
20
-61.5
11
547.5
21
-60.3999999999999986
0
LINE
8
BLACK
6
CONTINUOUS
10
547.5
20
-60.
11
547.5
21
-58.8999999999999986
0
LINE
8
BLACK
6
CONTINUOUS
10
547.5
20
-58.5
11
547.5
21
-57.3999999999999986
0
LINE
8
BLACK
6
CONTINUOUS
10
547.5
20
-57.
11
547.5
21
-55.8999999999999986
0
LINE
8
BLACK
6
CONTINUOUS
10
547.5
20
-55.5
11
547.5
21
-54.3999999999999986
0
LINE
8
BLACK
6
CONTINUOUS
10
547.5
20
-54.
11
547.5
21
-52.8999999999999986
0
LINE
8
BLACK
6
CONTINUOUS
10
547.5
20
-52.5
11
547.5
21
-51.3999999999999986
0
LINE
8
BLACK
6
CONTINUOUS
10
547.5
20
-51.
11
547.5
21
-49.8999999999999986
0
LINE
8
BLACK
6
CONTINUOUS
10
547.5
20
-49.5
11
547.5
21
-48.3999999999999986
0
LINE
8
BLACK
6
CONTINUOUS
10
547.5
20
-48.
11
547.5
21
-46.8999999999999986
0
LINE
8
BLACK
6
CONTINUOUS
10
547.5
20
-46.5
11
547.5
21
-45.3999999999999986
0
LINE
8
BLACK
6
CONTINUOUS
10
547.5
20
-45.
11
547.5
21
-43.8999999999999986
0
LINE
8
BLACK
6
CONTINUOUS
10
547.5
20
-43.5
11
547.5
21
-42.3999999999999986
0
LINE
8
BLACK
6
CONTINUOUS
10
547.5
20
-42.
11
547.5
21
-40.8999999999999986
0
LINE
8
BLACK
6
CONTINUOUS
10
547.5
20
-40.5
11
547.5
21
-39.3999999999999986
0
LINE
8
BLACK
6
CONTINUOUS
10
547.5
20
-39.
11
547.5
21
-37.8999999999999986
0
LINE
8
BLACK
6
CONTINUOUS
10
547.5
20
-37.5
11
547.5
21
-36.3999999999999986
0
LINE
8
BLACK
6
CONTINUOUS
10
547.5
20
-36.
11
547.5
21
-34.8999999999999986
0
LINE
8
BLACK
6
CONTINUOUS
10
547.5
20
-34.5
11
547.5
21
-33.3999999999999986
0
LINE
8
BLACK
6
CONTINUOUS
10
547.5
20
-33.
11
547.5
21
-31.8999999999999986
0
LINE
8
BLACK
6
CONTINUOUS
10
547.5
20
-31.5
11
547.5
21
-30.3999999999999986
0
LINE
8
BLACK
6
CONTINUOUS
10
547.5
20
-30.
11
547.5
21
-28.8999999999999986
0
LINE
8
BLACK
6
CONTINUOUS
10
547.5
20
-28.5
11
547.5
21
-27.3999999999999986
0
LINE
8
BLACK
6
CONTINUOUS
10
547.5
20
-27.
11
547.5
21
-25.8999999999999986
0
LINE
8
BLACK
6
CONTINUOUS
10
547.5
20
-25.5
11
547.5
21
-24.3999999999999986
0
LINE
8
BLACK
6
CONTINUOUS
10
547.5
20
-24.
11
547.5
21
-22.8999999999999986
0
LINE
8
BLACK
6
CONTINUOUS
10
547.5
20
-22.5
11
547.5
21
-21.3999999999999986
0
LINE
8
BLACK
6
CONTINUOUS
10
547.5
20
-21.
11
547.5
21
-19.8999999999999986
0
LINE
8
BLACK
6
CONTINUOUS
10
547.5
20
-19.5
11
547.5
21
-18.3999999999999986
0
LINE
8
BLACK
6
CONTINUOUS
10
547.5
20
-18.
11
547.5
21
-16.8999999999999986
0
LINE
8
BLACK
6
CONTINUOUS
10
547.5
20
-16.5
11
547.5
21
-15.3999999999999986
0
LINE
8
BLACK
6
CONTINUOUS
10
547.5
20
-15.
11
547.5
21
-13.8999999999999986
0
LINE
8
BLACK
6
CONTINUOUS
10
547.5
20
-13.5
11
547.5
21
-12.3999999999999986
0
LINE
8
BLACK
6
CONTINUOUS
10
547.5
20
-12.
11
547.5
21
-10.9000000000000004
0
LINE
8
BLACK
6
CONTINUOUS
10
547.5
20
-10.5
11
547.5
21
-9.4000000000000004
0
LINE
8
BLACK
6
CONTINUOUS
10
547.5
20
-9.
11
547.5
21
-7.8999999999999995
0
LINE
8
BLACK
6
CONTINUOUS
10
547.5
20
-7.5
11
547.5
21
-6.3999999999999995
0
LINE
8
BLACK
6
CONTINUOUS
10
547.5
20
-6.
11
547.5
21
-4.8999999999999995
0
LINE
8
BLACK
6
CONTINUOUS
10
547.5
20
-4.5
11
547.5
21
-3.3999999999999999
0
LINE
8
BLACK
6
CONTINUOUS
10
547.5
20
-3.
11
547.5
21
-1.8999999999999999
0
LINE
8
BLACK
6
CONTINUOUS
10
547.5
20
-1.5
11
547.5
21
-0.4
0
LINE
8
BLACK
6
CONTINUOUS
10
547.5
20
0.
11
547.5
21
1.0999999999999999
0
LINE
8
BLACK
6
CONTINUOUS
10
547.5
20
1.5
11
547.5
21
2.6000000000000001
0
LINE
8
BLACK
6
CONTINUOUS
10
547.5
20
3.
11
547.5
21
4.0999999999999996
0
LINE
8
BLACK
6
CONTINUOUS
10
547.5
20
4.5
11
547.5
21
5.5999999999999996
0
LINE
8
BLACK
6
CONTINUOUS
10
547.5
20
6.
11
547.5
21
7.0999999999999996
0
LINE
8
BLACK
6
CONTINUOUS
10
547.5
20
7.5
11
547.5
21
8.5999999999999996
0
LINE
8
BLACK
6
CONTINUOUS
10
547.5
20
9.
11
547.5
21
10.0999999999999996
0
LINE
8
BLACK
6
CONTINUOUS
10
547.5
20
10.5
11
547.5
21
11.5999999999999996
0
LINE
8
BLACK
6
CONTINUOUS
10
547.5
20
12.
11
547.5
21
13.0999999999999996
0
LINE
8
BLACK
6
CONTINUOUS
10
547.5
20
13.5
11
547.5
21
14.5999999999999996
0
LINE
8
BLACK
6
CONTINUOUS
10
547.5
20
15.
11
547.5
21
16.0999999999999979
0
LINE
8
BLACK
6
CONTINUOUS
10
547.5
20
16.5
11
547.5
21
17.5999999999999979
0
LINE
8
BLACK
6
CONTINUOUS
10
547.5
20
18.
11
547.5
21
19.0999999999999979
0
LINE
8
BLACK
6
CONTINUOUS
10
547.5
20
19.5
11
547.5
21
20.5999999999999979
0
LINE
8
BLACK
6
CONTINUOUS
10
547.5
20
21.
11
547.5
21
22.0999999999999979
0
LINE
8
BLACK
6
CONTINUOUS
10
547.5
20
22.5
11
547.5
21
23.5999999999999979
0
LINE
8
BLACK
6
CONTINUOUS
10
547.5
20
24.
11
547.5
21
25.0999999999999979
0
LINE
8
BLACK
6
CONTINUOUS
10
547.5
20
25.5
11
547.5
21
26.5999999999999979
0
LINE
8
BLACK
6
CONTINUOUS
10
547.5
20
27.
11
547.5
21
28.0999999999999979
0
LINE
8
BLACK
6
CONTINUOUS
10
547.5
20
28.5
11
547.5
21
29.5999999999999979
0
LINE
8
BLACK
6
CONTINUOUS
10
547.5
20
30.
11
547.5
21
31.0999999999999979
0
LINE
8
BLACK
6
CONTINUOUS
10
547.5
20
31.5
11
547.5
21
32.6000000000000014
0
LINE
8
BLACK
6
CONTINUOUS
10
547.5
20
33.
11
547.5
21
34.1000000000000014
0
LINE
8
BLACK
6
CONTINUOUS
10
547.5
20
34.5
11
547.5
21
35.6000000000000014
0
LINE
8
BLACK
6
CONTINUOUS
10
547.5
20
36.
11
547.5
21
37.1000000000000014
0
LINE
8
BLACK
6
CONTINUOUS
10
547.5
20
37.5
11
547.5
21
38.6000000000000014
0
LINE
8
BLACK
6
CONTINUOUS
10
547.5
20
39.
11
547.5
21
40.1000000000000014
0
LINE
8
BLACK
6
CONTINUOUS
10
547.5
20
40.5
11
547.5
21
41.6000000000000014
0
LINE
8
BLACK
6
CONTINUOUS
10
547.5
20
42.
11
547.5
21
43.1000000000000014
0
LINE
8
BLACK
6
CONTINUOUS
10
547.5
20
43.5
11
547.5
21
44.6000000000000014
0
LINE
8
BLACK
6
CONTINUOUS
10
547.5
20
45.
11
547.5
21
46.1000000000000014
0
LINE
8
BLACK
6
CONTINUOUS
10
547.5
20
46.5
11
547.5
21
47.5999999999999943
0
LINE
8
BLACK
6
CONTINUOUS
10
547.5
20
48.
11
547.5
21
49.0999999999999943
0
LINE
8
BLACK
6
CONTINUOUS
10
547.5
20
49.5
11
547.5
21
50.5999999999999943
0
LINE
8
BLACK
6
CONTINUOUS
10
547.5
20
51.
11
547.5
21
52.0999999999999943
0
LINE
8
BLACK
6
CONTINUOUS
10
547.5
20
52.5
11
547.5
21
53.5999999999999943
0
LINE
8
BLACK
6
CONTINUOUS
10
547.5
20
54.
11
547.5
21
55.0999999999999943
0
LINE
8
BLACK
6
CONTINUOUS
10
547.5
20
55.5
11
547.5
21
56.5999999999999943
0
LINE
8
BLACK
6
CONTINUOUS
10
547.5
20
57.
11
547.5
21
58.0999999999999943
0
LINE
8
BLACK
6
CONTINUOUS
10
547.5
20
58.5
11
547.5
21
59.5999999999999943
0
LINE
8
BLACK
6
CONTINUOUS
10
547.5
20
60.
11
547.5
21
61.0999999999999943
0
CIRCLE
8
BLACK
10
519.75
20
42.75
40
2.6899999999999999
0
LINE
8
BLACK
6
CONTINUOUS
10
419.654502999999977
20
92.9214989999999972
11
419.654502999999977
21
92.8580339999999893
0
LINE
8
BLACK
6
CONTINUOUS
10
419.654502999999977
20
92.7945339999999987
11
419.2099999999999795
21
92.3499999999999943
0
CIRCLE
8
BLACK
10
603.5
20
51.5
40
2.9499999999999997
0
LINE
8
BLACK
6
CONTINUOUS
10
183.8809990000000028
20
49.0202029999999951
11
183.5
21
48.5757039999999947
0
LINE
8
BLACK
6
CONTINUOUS
10
294.8897479999999973
20
134.1827299999999923
11
294.4452139999999645
21
134.6272329999999897
0
LINE
8
BLACK
6
CONTINUOUS
10
185.
20
-178.5
11
184.9998190000000022
21
-177.4000000000000057
0
LINE
8
BLACK
6
CONTINUOUS
10
184.9997529999999983
20
-177.
11
184.9995720000000006
21
-175.9000000000000057
0
LINE
8
BLACK
6
CONTINUOUS
10
184.9995059999999967
20
-175.5
11
184.9993249999999989
21
-174.4000000000000057
0
LINE
8
BLACK
6
CONTINUOUS
10
184.999258999999995
20
-174.
11
184.9990779999999972
21
-172.9000000000000057
0
LINE
8
BLACK
6
CONTINUOUS
10
184.9990119999999933
20
-172.5
11
184.9988309999999956
21
-171.4000000000000057
0
LINE
8
BLACK
6
CONTINUOUS
10
184.9987659999999892
20
-171.
11
184.9985849999999914
21
-169.9000000000000057
0
LINE
8
BLACK
6
CONTINUOUS
10
184.9985189999999875
20
-169.5
11
184.9983379999999897
21
-168.4000000000000057
0
LINE
8
BLACK
6
CONTINUOUS
10
184.9982719999999858
20
-168.
11
184.9980909999999881
21
-166.9000000000000057
0
LINE
8
BLACK
6
CONTINUOUS
10
184.9980249999999842
20
-166.5
11
184.9978439999999864
21
-165.4000000000000057
0
LINE
8
BLACK
6
CONTINUOUS
10
184.9977779999999825
20
-165.
11
184.9975969999999847
21
-163.9000000000000057
0
LINE
8
BLACK
6
CONTINUOUS
10
184.9975309999999808
20
-163.5
11
184.9973499999999831
21
-162.4000000000000057
0
LINE
8
BLACK
6
CONTINUOUS
10
184.9972839999999792
20
-162.
11
184.9971029999999814
21
-160.9000000000000057
0
LINE
8
BLACK
6
CONTINUOUS
10
184.9970369999999775
20
-160.5
11
184.9968559999999798
21
-159.4000000000000057
0
LINE
8
BLACK
6
CONTINUOUS
10
184.9967900000000043
20
-159.
11
184.9966089999999781
21
-157.9000000000000057
0
LINE
8
BLACK
6
CONTINUOUS
10
184.9965440000000001
20
-157.5
11
184.9963630000000023
21
-156.4000000000000057
0
LINE
8
BLACK
6
CONTINUOUS
10
184.9962969999999984
20
-156.
11
184.9961160000000007
21
-154.9000000000000057
0
LINE
8
BLACK
6
CONTINUOUS
10
184.9960499999999968
20
-154.5
11
184.995868999999999
21
-153.4000000000000057
0
LINE
8
BLACK
6
CONTINUOUS
10
184.9958029999999951
20
-153.
11
184.9956219999999973
21
-151.9000000000000057
0
LINE
8
BLACK
6
CONTINUOUS
10
184.9955559999999934
20
-151.5
11
184.9953749999999957
21
-150.4000000000000057
0
LINE
8
BLACK
6
CONTINUOUS
10
184.9953089999999918
20
-150.
11
184.995127999999994
21
-148.9000000000000057
0
LINE
8
BLACK
6
CONTINUOUS
10
184.9950619999999901
20
-148.5
11
184.9948809999999924
21
-147.4000000000000057
0
LINE
8
BLACK
6
CONTINUOUS
10
184.9948149999999885
20
-147.
11
184.9946339999999907
21
-145.9000000000000057
0
LINE
8
BLACK
6
CONTINUOUS
10
184.9945679999999868
20
-145.5
11
184.994386999999989
21
-144.4000000000000057
0
LINE
8
BLACK
6
CONTINUOUS
10
184.9943219999999826
20
-144.
11
184.9941409999999848
21
-142.9000000000000057
0
LINE
8
BLACK
6
CONTINUOUS
10
184.9940749999999809
20
-142.5
11
184.9938939999999832
21
-141.4000010000000032
0
LINE
8
BLACK
6
CONTINUOUS
10
184.9938279999999793
20
-141.0000009999999975
11
184.9936469999999815
21
-139.9000010000000032
0
LINE
8
BLACK
6
CONTINUOUS
10
184.9935809999999776
20
-139.5000009999999975
11
184.9933999999999799
21
-138.4000010000000032
0
LINE
8
BLACK
6
CONTINUOUS
10
184.9933340000000044
20
-138.0000009999999975
11
184.9931529999999782
21
-136.9000010000000032
0
LINE
8
BLACK
6
CONTINUOUS
10
184.9930870000000027
20
-136.5000009999999975
11
184.992906000000005
21
-135.4000010000000032
0
LINE
8
BLACK
6
CONTINUOUS
10
184.9928400000000011
20
-135.0000009999999975
11
184.9926590000000033
21
-133.9000010000000032
0
LINE
8
BLACK
6
CONTINUOUS
10
184.9925929999999994
20
-133.5000009999999975
11
184.9924120000000016
21
-132.4000010000000032
0
LINE
8
BLACK
6
CONTINUOUS
10
184.9923459999999977
20
-132.0000009999999975
11
184.992165
21
-130.9000010000000032
0
LINE
8
BLACK
6
CONTINUOUS
10
184.9920999999999935
20
-130.5000009999999975
11
184.9919189999999958
21
-129.4000010000000032
0
LINE
8
BLACK
6
CONTINUOUS
10
184.9918529999999919
20
-129.0000009999999975
11
184.9916719999999941
21
-127.9000009999999889
0
LINE
8
BLACK
6
CONTINUOUS
10
184.9916059999999902
20
-127.5000009999999975
11
184.9914249999999925
21
-126.4000009999999889
0
LINE
8
BLACK
6
CONTINUOUS
10
184.9913589999999886
20
-126.0000009999999975
11
184.9911779999999908
21
-124.9000009999999889
0
LINE
8
BLACK
6
CONTINUOUS
10
184.9911119999999869
20
-124.5000009999999975
11
184.9909309999999891
21
-123.4000009999999889
0
LINE
8
BLACK
6
CONTINUOUS
10
184.9908649999999852
20
-123.0000009999999975
11
184.9906839999999875
21
-121.9000009999999889
0
LINE
8
BLACK
6
CONTINUOUS
10
184.9906179999999836
20
-121.5000009999999975
11
184.9904369999999858
21
-120.4000009999999889
0
LINE
8
BLACK
6
CONTINUOUS
10
184.9903709999999819
20
-120.0000009999999975
11
184.9901899999999841
21
-118.9000009999999889
0
LINE
8
BLACK
6
CONTINUOUS
10
184.9901249999999777
20
-118.5000009999999975
11
184.9899429999999825
21
-117.4000009999999889
0
LINE
8
BLACK
6
CONTINUOUS
10
184.9898780000000045
20
-117.0000009999999975
11
184.9896969999999783
21
-115.9000009999999889
0
LINE
8
BLACK
6
CONTINUOUS
10
184.9896310000000028
20
-115.5000009999999975
11
184.989450000000005
21
-114.4000009999999889
0
LINE
8
BLACK
6
CONTINUOUS
10
184.9893840000000012
20
-114.0000009999999975
11
184.9892030000000034
21
-112.9000009999999889
0
LINE
8
BLACK
6
CONTINUOUS
10
184.9891369999999995
20
-112.5000009999999975
11
184.9889560000000017
21
-111.4000009999999889
0
LINE
8
BLACK
6
CONTINUOUS
10
184.9888899999999978
20
-111.0000009999999975
11
184.9887090000000001
21
-109.9000009999999889
0
LINE
8
BLACK
6
CONTINUOUS
10
184.9886429999999962
20
-109.5000009999999975
11
184.9884619999999984
21
-108.4000009999999889
0
LINE
8
BLACK
6
CONTINUOUS
10
184.9883959999999945
20
-108.0000009999999975
11
184.9882149999999967
21
-106.9000009999999889
0
LINE
8
BLACK
6
CONTINUOUS
10
184.9881489999999928
20
-106.5000009999999975
11
184.9879679999999951
21
-105.4000009999999889
0
LINE
8
BLACK
6
CONTINUOUS
10
184.9879029999999887
20
-105.0000009999999975
11
184.9877209999999934
21
-103.9000009999999889
0
LINE
8
BLACK
6
CONTINUOUS
10
184.987655999999987
20
-103.5000009999999975
11
184.9874749999999892
21
-102.4000009999999889
0
LINE
8
BLACK
6
CONTINUOUS
10
184.9874089999999853
20
-102.0000009999999975
11
184.9872279999999876
21
-100.9000009999999889
0
LINE
8
BLACK
6
CONTINUOUS
10
184.9871619999999837
20
-100.5000009999999975
11
184.9869809999999859
21
-99.4000009999999889
0
LINE
8
BLACK
6
CONTINUOUS
10
184.986914999999982
20
-99.0000009999999975
11
184.9867339999999842
21
-97.9000009999999889
0
LINE
8
BLACK
6
CONTINUOUS
10
184.9866679999999803
20
-97.5000009999999975
11
184.9864869999999826
21
-96.4000009999999889
0
LINE
8
BLACK
6
CONTINUOUS
10
184.9864209999999787
20
-96.0000009999999975
11
184.9862399999999809
21
-94.9000009999999889
0
LINE
8
BLACK
6
CONTINUOUS
10
184.9861740000000054
20
-94.5000009999999975
11
184.9859929999999792
21
-93.4000009999999889
0
LINE
8
BLACK
6
CONTINUOUS
10
184.9859270000000038
20
-93.0000009999999975
11
184.9857459999999776
21
-91.9000009999999889
0
LINE
8
BLACK
6
CONTINUOUS
10
184.9856809999999996
20
-91.5000009999999975
11
184.9854990000000043
21
-90.4000009999999889
0
LINE
8
BLACK
6
CONTINUOUS
10
184.9854339999999979
20
-90.0000009999999975
11
184.9852530000000002
21
-88.9000009999999889
0
LINE
8
BLACK
6
CONTINUOUS
10
184.9851869999999963
20
-88.5000009999999975
11
184.9850059999999985
21
-87.4000009999999889
0
LINE
8
BLACK
6
CONTINUOUS
10
184.9849399999999946
20
-87.0000009999999975
11
184.9847589999999968
21
-85.9000010000000032
0
LINE
8
BLACK
6
CONTINUOUS
10
184.9846929999999929
20
-85.5000009999999975
11
184.9845119999999952
21
-84.4000010000000032
0
LINE
8
BLACK
6
CONTINUOUS
10
184.9844459999999913
20
-84.0000009999999975
11
184.9842649999999935
21
-82.9000010000000032
0
LINE
8
BLACK
6
CONTINUOUS
10
184.9841989999999896
20
-82.5000009999999975
11
184.9840179999999918
21
-81.4000010000000032
0
LINE
8
BLACK
6
CONTINUOUS
10
184.9839519999999879
20
-81.0000009999999975
11
184.9837709999999902
21
-79.9000010000000032
0
LINE
8
BLACK
6
CONTINUOUS
10
184.9837049999999863
20
-79.5000009999999975
11
184.9835239999999885
21
-78.4000010000000032
0
LINE
8
BLACK
6
CONTINUOUS
10
184.9834589999999821
20
-78.0000009999999975
11
184.9832769999999869
21
-76.9000010000000032
0
LINE
8
BLACK
6
CONTINUOUS
10
184.9832119999999804
20
-76.5000009999999975
11
184.9830309999999827
21
-75.4000010000000032
0
LINE
8
BLACK
6
CONTINUOUS
10
184.9829649999999788
20
-75.0000009999999975
11
184.982783999999981
21
-73.9000010000000032
0
LINE
8
BLACK
6
CONTINUOUS
10
184.9827180000000055
20
-73.5000009999999975
11
184.9825369999999793
21
-72.4000010000000032
0
LINE
8
BLACK
6
CONTINUOUS
10
184.9824710000000039
20
-72.0000009999999975
11
184.9822899999999777
21
-70.9000010000000032
0
LINE
8
BLACK
6
CONTINUOUS
10
184.9822240000000022
20
-70.5000009999999975
11
184.9820430000000044
21
-69.4000010000000032
0
LINE
8
BLACK
6
CONTINUOUS
10
184.9819770000000005
20
-69.0000009999999975
11
184.9817960000000028
21
-67.9000010000000032
0
LINE
8
BLACK
6
CONTINUOUS
10
184.9817299999999989
20
-67.500001999999995
11
184.9815490000000011
21
-66.4000020000000006
0
LINE
8
BLACK
6
CONTINUOUS
10
184.9814829999999972
20
-66.000001999999995
11
184.9813019999999995
21
-64.9000020000000006
0
LINE
8
BLACK
6
CONTINUOUS
10
184.981236999999993
20
-64.500001999999995
11
184.9810549999999978
21
-63.4000020000000006
0
LINE
8
BLACK
6
CONTINUOUS
10
184.9809899999999914
20
-63.000001999999995
11
184.9808089999999936
21
-61.9000020000000006
0
LINE
8
BLACK
6
CONTINUOUS
10
184.9807429999999897
20
-61.500001999999995
11
184.9805619999999919
21
-60.4000020000000006
0
LINE
8
BLACK
6
CONTINUOUS
10
184.980495999999988
20
-60.000001999999995
11
184.9803149999999903
21
-58.9000020000000006
0
LINE
8
BLACK
6
CONTINUOUS
10
184.9802489999999864
20
-58.500001999999995
11
184.9800679999999886
21
-57.4000020000000006
0
LINE
8
BLACK
6
CONTINUOUS
10
184.9800019999999847
20
-57.000001999999995
11
184.979820999999987
21
-55.9000020000000006
0
LINE
8
BLACK
6
CONTINUOUS
10
184.9797549999999831
20
-55.500001999999995
11
184.9795739999999853
21
-54.4000020000000006
0
LINE
8
BLACK
6
CONTINUOUS
10
184.9795079999999814
20
-54.000001999999995
11
184.9793269999999836
21
-52.9000020000000006
0
LINE
8
BLACK
6
CONTINUOUS
10
184.9792609999999797
20
-52.500001999999995
11
184.979079999999982
21
-51.4000020000000006
0
LINE
8
BLACK
6
CONTINUOUS
10
184.979015000000004
20
-51.000001999999995
11
184.9788339999999778
21
-49.9000020000000006
0
LINE
8
BLACK
6
CONTINUOUS
10
184.9787680000000023
20
-49.500001999999995
11
184.9785870000000045
21
-48.4000020000000006
0
LINE
8
BLACK
6
CONTINUOUS
10
184.9785210000000006
20
-48.000001999999995
11
184.9783400000000029
21
-46.9000020000000006
0
LINE
8
BLACK
6
CONTINUOUS
10
184.978273999999999
20
-46.500001999999995
11
184.9780930000000012
21
-45.4000020000000006
0
LINE
8
BLACK
6
CONTINUOUS
10
184.9780269999999973
20
-45.000001999999995
11
184.9778459999999995
21
-43.9000020000000006
0
LINE
8
BLACK
6
CONTINUOUS
10
184.9777799999999957
20
-43.500001999999995
11
184.9775989999999979
21
-42.4000020000000006
0
LINE
8
BLACK
6
CONTINUOUS
10
184.977532999999994
20
-42.000001999999995
11
184.9773519999999962
21
-40.9000020000000006
0
LINE
8
BLACK
6
CONTINUOUS
10
184.9772859999999923
20
-40.500001999999995
11
184.9771049999999946
21
-39.4000020000000006
0
LINE
8
BLACK
6
CONTINUOUS
10
184.9770389999999907
20
-39.000001999999995
11
184.9768579999999929
21
-37.9000020000000006
0
LINE
8
BLACK
6
CONTINUOUS
10
184.9767929999999865
20
-37.500001999999995
11
184.9766119999999887
21
-36.4000020000000006
0
LINE
8
BLACK
6
CONTINUOUS
10
184.9765459999999848
20
-36.000001999999995
11
184.976364999999987
21
-34.9000020000000006
0
LINE
8
BLACK
6
CONTINUOUS
10
184.9762989999999832
20
-34.500001999999995
11
184.9761179999999854
21
-33.4000020000000006
0
LINE
8
BLACK
6
CONTINUOUS
10
184.9760519999999815
20
-33.0000020000000021
11
184.9758709999999837
21
-31.9000019999999971
0
LINE
8
BLACK
6
CONTINUOUS
10
184.9758049999999798
20
-31.5000019999999985
11
184.9756239999999821
21
-30.4000019999999971
0
LINE
8
BLACK
6
CONTINUOUS
10
184.9755579999999782
20
-30.0000019999999985
11
184.9753769999999804
21
-28.9000019999999971
0
LINE
8
BLACK
6
CONTINUOUS
10
184.9753110000000049
20
-28.5000019999999985
11
184.9751299999999787
21
-27.4000019999999971
0
LINE
8
BLACK
6
CONTINUOUS
10
184.9750640000000033
20
-27.0000019999999985
11
184.9748830000000055
21
-25.9000019999999971
0
LINE
8
BLACK
6
CONTINUOUS
10
184.9748170000000016
20
-25.5000019999999985
11
184.9746360000000038
21
-24.4000020000000006
0
LINE
8
BLACK
6
CONTINUOUS
10
184.9745709999999974
20
-24.0000019999999985
11
184.9743899999999996
21
-22.9000020000000006
0
LINE
8
BLACK
6
CONTINUOUS
10
184.9743239999999957
20
-22.5000019999999985
11
184.974142999999998
21
-21.4000020000000006
0
LINE
8
BLACK
6
CONTINUOUS
10
184.9740769999999941
20
-21.0000019999999985
11
184.9738959999999963
21
-19.9000020000000006
0
LINE
8
BLACK
6
CONTINUOUS
10
184.9738299999999924
20
-19.5000019999999985
11
184.9736489999999947
21
-18.4000020000000006
0
LINE
8
BLACK
6
CONTINUOUS
10
184.9735829999999908
20
-18.0000019999999985
11
184.973401999999993
21
-16.9000020000000006
0
LINE
8
BLACK
6
CONTINUOUS
10
184.9733359999999891
20
-16.5000019999999985
11
184.9731549999999913
21
-15.4000019999999989
0
LINE
8
BLACK
6
CONTINUOUS
10
184.9730889999999874
20
-15.0000019999999985
11
184.9729079999999897
21
-13.9000019999999989
0
LINE
8
BLACK
6
CONTINUOUS
10
184.9728419999999858
20
-13.5000019999999985
11
184.972660999999988
21
-12.4000019999999989
0
LINE
8
BLACK
6
CONTINUOUS
10
184.9725949999999841
20
-12.0000020000000003
11
184.9724139999999863
21
-10.9000019999999989
0
LINE
8
BLACK
6
CONTINUOUS
10
184.9723489999999799
20
-10.5000020000000003
11
184.9721679999999822
21
-9.4000019999999989
0
LINE
8
BLACK
6
CONTINUOUS
10
184.9721019999999783
20
-9.0000020000000003
11
184.9719209999999805
21
-7.9000019999999997
0
LINE
8
BLACK
6
CONTINUOUS
10
184.971855000000005
20
-7.5000019999999994
11
184.9716739999999788
21
-6.4000019999999997
0
LINE
8
BLACK
6
CONTINUOUS
10
184.9716080000000034
20
-6.0000019999999994
11
184.9714270000000056
21
-4.9000019999999997
0
LINE
8
BLACK
6
CONTINUOUS
10
184.9713610000000017
20
-4.5000019999999994
11
184.9711800000000039
21
-3.4000019999999997
0
LINE
8
BLACK
6
CONTINUOUS
10
184.971114
20
-3.0000019999999998
11
184.9709330000000023
21
-1.900002
0
LINE
8
BLACK
6
CONTINUOUS
10
184.9708669999999984
20
-1.5000019999999998
11
184.9706860000000006
21
-0.400002
0
LINE
8
BLACK
6
CONTINUOUS
10
184.9706199999999967
20
-0.000002
11
184.9704389999999989
21
1.099998
0
LINE
8
BLACK
6
CONTINUOUS
10
184.9703739999999925
20
1.4999979999999999
11
184.9701919999999973
21
2.5999979999999998
0
LINE
8
BLACK
6
CONTINUOUS
10
184.9701269999999909
20
2.9999979999999997
11
184.9699459999999931
21
4.0999980000000003
0
LINE
8
BLACK
6
CONTINUOUS
10
184.9698799999999892
20
4.4999979999999997
11
184.9696989999999914
21
5.5999979999999994
0
LINE
8
BLACK
6
CONTINUOUS
10
184.9696329999999875
20
5.9999979999999997
11
184.9694519999999898
21
7.0999970000000001
0
LINE
8
BLACK
6
CONTINUOUS
10
184.9693859999999859
20
7.4999969999999996
11
184.9692049999999881
21
8.5999970000000001
0
LINE
8
BLACK
6
CONTINUOUS
10
184.9691389999999842
20
8.9999970000000005
11
184.9689579999999864
21
10.0999970000000001
0
LINE
8
BLACK
6
CONTINUOUS
10
184.9688919999999825
20
10.4999969999999987
11
184.9687109999999848
21
11.5999970000000001
0
LINE
8
BLACK
6
CONTINUOUS
10
184.9686449999999809
20
11.9999969999999987
11
184.9684639999999831
21
13.0999970000000001
0
LINE
8
BLACK
6
CONTINUOUS
10
184.9683979999999792
20
13.4999969999999987
11
184.9682169999999815
21
14.5999970000000001
0
LINE
8
BLACK
6
CONTINUOUS
10
184.9681520000000035
20
14.9999969999999987
11
184.9679699999999798
21
16.0999969999999983
0
LINE
8
BLACK
6
CONTINUOUS
10
184.9679050000000018
20
16.4999970000000005
11
184.967724000000004
21
17.5999969999999983
0
LINE
8
BLACK
6
CONTINUOUS
10
184.9676580000000001
20
17.9999970000000005
11
184.9674770000000024
21
19.0999969999999983
0
LINE
8
BLACK
6
CONTINUOUS
10
184.9674109999999985
20
19.4999970000000005
11
184.9672300000000007
21
20.5999969999999983
0
LINE
8
BLACK
6
CONTINUOUS
10
184.9671639999999968
20
20.9999970000000005
11
184.966982999999999
21
22.0999969999999983
0
LINE
8
BLACK
6
CONTINUOUS
10
184.9669169999999951
20
22.4999970000000005
11
184.9667359999999974
21
23.5999969999999983
0
LINE
8
BLACK
6
CONTINUOUS
10
184.9666699999999935
20
23.9999970000000005
11
184.9664889999999957
21
25.0999969999999983
0
LINE
8
BLACK
6
CONTINUOUS
10
184.9664229999999918
20
25.4999970000000005
11
184.9662419999999941
21
26.5999969999999983
0
LINE
8
BLACK
6
CONTINUOUS
10
184.9661759999999902
20
26.9999970000000005
11
184.9659949999999924
21
28.0999969999999983
0
LINE
8
BLACK
6
CONTINUOUS
10
184.965929999999986
20
28.4999970000000005
11
184.9657479999999907
21
29.5999969999999983
0
LINE
8
BLACK
6
CONTINUOUS
10
184.9656829999999843
20
29.9999969999999969
11
184.9655019999999865
21
31.0999969999999983
0
LINE
8
BLACK
6
CONTINUOUS
10
184.9654359999999826
20
31.4999969999999969
11
184.9652549999999849
21
32.5999970000000019
0
LINE
8
BLACK
6
CONTINUOUS
10
184.965188999999981
20
32.9999970000000005
11
184.9650079999999832
21
34.0999970000000019
0
LINE
8
BLACK
6
CONTINUOUS
10
184.9649419999999793
20
34.4999970000000005
11
184.9647609999999815
21
35.5999970000000019
0
LINE
8
BLACK
6
CONTINUOUS
10
184.9646949999999777
20
35.9999970000000005
11
184.9645139999999799
21
37.0999969999999948
0
LINE
8
BLACK
6
CONTINUOUS
10
184.9644480000000044
20
37.4999970000000005
11
184.9642669999999782
21
38.5999969999999948
0
LINE
8
BLACK
6
CONTINUOUS
10
184.9642010000000028
20
38.9999970000000005
11
184.964020000000005
21
40.0999969999999948
0
LINE
8
BLACK
6
CONTINUOUS
10
184.9639540000000011
20
40.4999970000000005
11
184.9637730000000033
21
41.5999969999999948
0
LINE
8
BLACK
6
CONTINUOUS
10
184.9637079999999969
20
41.9999970000000005
11
184.9635260000000017
21
43.0999969999999948
0
LINE
8
BLACK
6
CONTINUOUS
10
184.9634609999999952
20
43.4999970000000005
11
184.9632799999999975
21
44.5999969999999948
0
LINE
8
BLACK
6
CONTINUOUS
10
184.9632139999999936
20
44.9999970000000005
11
184.9630329999999958
21
46.0999969999999948
0
LINE
8
BLACK
6
CONTINUOUS
10
184.9629669999999919
20
46.4999970000000005
11
184.9627859999999941
21
47.5999969999999948
0
LINE
8
BLACK
6
CONTINUOUS
10
184.9627199999999903
20
47.9999970000000005
11
184.9625389999999925
21
49.0999969999999948
0
LINE
8
BLACK
6
CONTINUOUS
10
184.9624729999999886
20
49.4999970000000005
11
184.9622919999999908
21
50.5999969999999948
0
LINE
8
BLACK
6
CONTINUOUS
10
184.9622259999999869
20
50.9999970000000005
11
184.9620449999999892
21
52.0999969999999948
0
LINE
8
BLACK
6
CONTINUOUS
10
184.9619789999999853
20
52.4999970000000005
11
184.9617979999999875
21
53.5999969999999948
0
LINE
8
BLACK
6
CONTINUOUS
10
184.9617319999999836
20
53.9999970000000005
11
184.9615509999999858
21
55.0999969999999948
0
LINE
8
BLACK
6
CONTINUOUS
10
184.9614859999999794
20
55.4999970000000005
11
184.9613039999999842
21
56.5999969999999948
0
LINE
8
BLACK
6
CONTINUOUS
10
184.9612389999999778
20
56.9999970000000005
11
184.96105799999998
21
58.0999969999999948
0
LINE
8
BLACK
6
CONTINUOUS
10
184.9609920000000045
20
58.4999970000000005
11
184.9608109999999783
21
59.5999969999999948
0
LINE
8
BLACK
6
CONTINUOUS
10
184.9607450000000028
20
59.9999970000000005
11
184.9605640000000051
21
61.0999969999999948
0
LINE
8
BLACK
6
CONTINUOUS
10
184.9604980000000012
20
61.4999970000000005
11
184.9604980000000012
21
61.5
0
LINE
8
BLACK
6
CONTINUOUS
10
432.9499999999999886
20
43.1024789999999953
11
432.9499999999999886
21
44.2024789999999967
0
LINE
8
BLACK
6
CONTINUOUS
10
432.9499999999999886
20
44.6024789999999953
11
432.9499999999999886
21
45.7024789999999967
0
LINE
8
BLACK
6
CONTINUOUS
10
432.9499999999999886
20
46.1024789999999953
11
432.9499999999999886
21
46.7975209999999961
0
LINE
8
BLACK
6
CONTINUOUS
10
522.9499999999999318
20
44.5975210000000004
11
521.9973719999999275
21
45.1475209999999976
0
LINE
8
BLACK
6
CONTINUOUS
10
521.6509619999999359
20
45.3475210000000004
11
520.6983339999999316
21
45.8975209999999976
0
LINE
8
BLACK
6
CONTINUOUS
10
520.35192399999994
20
46.0975210000000004
11
519.75
21
46.4450420000000008
0
LINE
8
BLACK
6
CONTINUOUS
10
441.9499999999999886
20
-160.1024789999999882
11
440.9973719999999844
21
-159.5524790000000053
0
LINE
8
BLACK
6
CONTINUOUS
10
440.6509619999999927
20
-159.3524789999999882
11
439.6983339999999885
21
-158.8024790000000053
0
LINE
8
BLACK
6
CONTINUOUS
10
439.3519239999999968
20
-158.6024789999999882
11
438.75
21
-158.2549579999999878
0
LINE
8
BLACK
6
CONTINUOUS
10
426.5499999999999545
20
43.1024789999999953
11
427.5026279999999588
21
42.5524789999999982
0
LINE
8
BLACK
6
CONTINUOUS
10
427.8490380000000073
20
42.3524789999999953
11
428.8016659999999547
21
41.8024789999999982
0
LINE
8
BLACK
6
CONTINUOUS
10
429.1480760000000032
20
41.6024789999999953
11
429.75
21
41.2549579999999949
0
LINE
8
BLACK
6
CONTINUOUS
10
293.5
20
61.5
11
549.
21
61.5
0
LINE
8
BLACK
6
CONTINUOUS
10
293.5
20
-178.5
11
549.
21
-178.5
0
LINE
8
BLACK
6
CONTINUOUS
10
184.7699979999999869
20
53.1476979999999983
11
184.8969979999999964
21
53.1476979999999983
0
LINE
8
BLACK
6
CONTINUOUS
10
184.8969979999999964
20
-167.8320190000000025
11
184.8334979999999916
21
-167.8320190000000025
0
LINE
8
BLACK
6
CONTINUOUS
10
422.9564879999999789
20
92.9214989999999972
11
422.9564879999999789
21
92.8580339999999893
0
LINE
8
BLACK
6
CONTINUOUS
10
643.1264599999999518
20
-167.8320129999999892
11
643.1899230000000216
21
-167.8320129999999892
0
LINE
8
BLACK
6
CONTINUOUS
10
642.9994229999999789
20
53.147711000000001
11
643.0629229999999552
21
53.147711000000001
0
LINE
8
BLACK
6
CONTINUOUS
10
547.7467510000000175
20
130.8172700000000077
11
547.8102509999999938
21
130.8172700000000077
0
LINE
8
BLACK
6
CONTINUOUS
10
422.9564879999999789
20
92.9850339999999989
11
422.9564879999999789
21
92.9214989999999972
0
LINE
8
BLACK
6
CONTINUOUS
10
644.0154219999999441
20
49.0202159999999978
11
644.4599210000000085
21
48.5757169999999974
0
LINE
8
BLACK
6
CONTINUOUS
10
531.75
20
-165.6450419999999895
11
532.7026280000000042
21
-165.0950420000000065
0
LINE
8
BLACK
6
CONTINUOUS
10
533.0490379999999959
20
-164.8950419999999895
11
534.0016660000000002
21
-164.3450420000000065
0
LINE
8
BLACK
6
CONTINUOUS
10
534.3480759999999918
20
-164.1450419999999895
11
534.9499999999999318
21
-163.797520999999989
0
LINE
8
BLACK
6
CONTINUOUS
10
642.9994229999999789
20
-167.8320129999999892
11
643.0629229999999552
21
-167.8320129999999892
0
LINE
8
BLACK
6
CONTINUOUS
10
308.9499999999999886
20
43.1024789999999953
11
308.9499999999999886
21
44.2024789999999967
0
LINE
8
BLACK
6
CONTINUOUS
10
308.9499999999999886
20
44.6024789999999953
11
308.9499999999999886
21
45.7024789999999967
0
LINE
8
BLACK
6
CONTINUOUS
10
308.9499999999999886
20
46.1024789999999953
11
308.9499999999999886
21
46.7975209999999961
0
LINE
8
BLACK
6
CONTINUOUS
10
643.1899230000000216
20
-167.8320129999999892
11
643.5709219999999959
21
-167.3875139999999817
0
LINE
8
BLACK
6
CONTINUOUS
10
549.
20
61.5
11
549.
21
-178.5
0
CIRCLE
8
BLACK
10
305.75
20
-161.9499999999999886
40
2.6899999999999999
0
LINE
8
BLACK
6
CONTINUOUS
10
642.9994229999999789
20
-171.1340089999999918
11
643.0629229999999552
21
-171.1340089999999918
0
CIRCLE
8
BLACK
10
305.75
20
44.9499999999999957
40
2.6899999999999999
0
LINE
8
BLACK
6
CONTINUOUS
10
295.0167129999999815
20
130.8807449999999903
11
294.9532479999999737
21
130.8807449999999903
0
LINE
8
BLACK
6
CONTINUOUS
10
584.5393470000000207
20
67.5155609999999911
11
584.5393470000000207
21
69.5155609999999911
0
LINE
8
BLACK
6
CONTINUOUS
10
584.5393470000000207
20
68.7536569999999898
11
584.7298230000000103
21
68.8488949999999988
0
LINE
8
BLACK
6
CONTINUOUS
10
584.7298230000000103
20
68.8488949999999988
11
585.1107759999999871
21
68.8488949999999988
0
LINE
8
BLACK
6
CONTINUOUS
10
585.1107759999999871
20
68.8488949999999988
11
585.3012519999999768
21
68.7536569999999898
0
LINE
8
BLACK
6
CONTINUOUS
10
585.3012519999999768
20
68.7536569999999898
11
585.3964899999999716
21
68.658418999999995
0
LINE
8
BLACK
6
CONTINUOUS
10
585.3964899999999716
20
68.658418999999995
11
585.4917279999999664
21
68.4679419999999936
0
LINE
8
BLACK
6
CONTINUOUS
10
585.4917279999999664
20
68.4679419999999936
11
585.4917279999999664
21
67.8965139999999963
0
LINE
8
BLACK
6
CONTINUOUS
10
585.4917279999999664
20
67.8965139999999963
11
585.3964899999999716
21
67.7060379999999924
0
LINE
8
BLACK
6
CONTINUOUS
10
585.3964899999999716
20
67.7060379999999924
11
585.3012519999999768
21
67.6107999999999976
0
LINE
8
BLACK
6
CONTINUOUS
10
585.3012519999999768
20
67.6107999999999976
11
585.1107759999999871
21
67.5155609999999911
0
LINE
8
BLACK
6
CONTINUOUS
10
585.1107759999999871
20
67.5155609999999911
11
584.7298230000000103
21
67.5155609999999911
0
LINE
8
BLACK
6
CONTINUOUS
10
584.7298230000000103
20
67.5155609999999911
11
584.5393470000000207
21
67.6107999999999976
0
LINE
8
BLACK
6
CONTINUOUS
10
586.6345850000000155
20
67.5155609999999911
11
586.4441090000000258
21
67.6107999999999976
0
LINE
8
BLACK
6
CONTINUOUS
10
586.4441090000000258
20
67.6107999999999976
11
586.3488709999999173
21
67.7060379999999924
0
LINE
8
BLACK
6
CONTINUOUS
10
586.3488709999999173
20
67.7060379999999924
11
586.2536329999999225
21
67.8965139999999963
0
LINE
8
BLACK
6
CONTINUOUS
10
586.2536329999999225
20
67.8965139999999963
11
586.2536329999999225
21
68.4679419999999936
0
LINE
8
BLACK
6
CONTINUOUS
10
586.2536329999999225
20
68.4679419999999936
11
586.3488709999999173
21
68.658418999999995
0
LINE
8
BLACK
6
CONTINUOUS
10
586.3488709999999173
20
68.658418999999995
11
586.4441090000000258
21
68.7536569999999898
0
LINE
8
BLACK
6
CONTINUOUS
10
586.4441090000000258
20
68.7536569999999898
11
586.6345850000000155
21
68.8488949999999988
0
LINE
8
BLACK
6
CONTINUOUS
10
586.6345850000000155
20
68.8488949999999988
11
586.9202999999999975
21
68.8488949999999988
0
LINE
8
BLACK
6
CONTINUOUS
10
586.9202999999999975
20
68.8488949999999988
11
587.1107759999999871
21
68.7536569999999898
0
LINE
8
BLACK
6
CONTINUOUS
10
587.1107759999999871
20
68.7536569999999898
11
587.2060139999999819
21
68.658418999999995
0
LINE
8
BLACK
6
CONTINUOUS
10
587.2060139999999819
20
68.658418999999995
11
587.3012519999999768
21
68.4679419999999936
0
LINE
8
BLACK
6
CONTINUOUS
10
587.3012519999999768
20
68.4679419999999936
11
587.3012519999999768
21
67.8965139999999963
0
LINE
8
BLACK
6
CONTINUOUS
10
587.3012519999999768
20
67.8965139999999963
11
587.2060139999999819
21
67.7060379999999924
0
LINE
8
BLACK
6
CONTINUOUS
10
587.2060139999999819
20
67.7060379999999924
11
587.1107759999999871
21
67.6107999999999976
0
LINE
8
BLACK
6
CONTINUOUS
10
587.1107759999999871
20
67.6107999999999976
11
586.9202999999999975
21
67.5155609999999911
0
LINE
8
BLACK
6
CONTINUOUS
10
586.9202999999999975
20
67.5155609999999911
11
586.6345850000000155
21
67.5155609999999911
0
LINE
8
BLACK
6
CONTINUOUS
10
587.8726809999999432
20
68.8488949999999988
11
588.6345850000000155
21
68.8488949999999988
0
LINE
8
BLACK
6
CONTINUOUS
10
588.1583949999999277
20
69.5155609999999911
11
588.1583949999999277
21
67.8012760000000014
0
LINE
8
BLACK
6
CONTINUOUS
10
588.1583949999999277
20
67.8012760000000014
11
588.2536329999999225
21
67.6107999999999976
0
LINE
8
BLACK
6
CONTINUOUS
10
588.2536329999999225
20
67.6107999999999976
11
588.4441090000000258
21
67.5155609999999911
0
LINE
8
BLACK
6
CONTINUOUS
10
588.4441090000000258
20
67.5155609999999911
11
588.6345850000000155
21
67.5155609999999911
0
LINE
8
BLACK
6
CONTINUOUS
10
589.0155379999999923
20
68.8488949999999988
11
589.7774419999999509
21
68.8488949999999988
0
LINE
8
BLACK
6
CONTINUOUS
10
589.3012519999999768
20
69.5155609999999911
11
589.3012519999999768
21
67.8012760000000014
0
LINE
8
BLACK
6
CONTINUOUS
10
589.3012519999999768
20
67.8012760000000014
11
589.3964899999999716
21
67.6107999999999976
0
LINE
8
BLACK
6
CONTINUOUS
10
589.3964899999999716
20
67.6107999999999976
11
589.5869659999999612
21
67.5155609999999911
0
LINE
8
BLACK
6
CONTINUOUS
10
589.5869659999999612
20
67.5155609999999911
11
589.7774419999999509
21
67.5155609999999911
0
LINE
8
BLACK
6
CONTINUOUS
10
590.7298230000000103
20
67.5155609999999911
11
590.5393470000000207
21
67.6107999999999976
0
LINE
8
BLACK
6
CONTINUOUS
10
590.5393470000000207
20
67.6107999999999976
11
590.4441090000000258
21
67.7060379999999924
0
LINE
8
BLACK
6
CONTINUOUS
10
590.4441090000000258
20
67.7060379999999924
11
590.3488709999999173
21
67.8965139999999963
0
LINE
8
BLACK
6
CONTINUOUS
10
590.3488709999999173
20
67.8965139999999963
11
590.3488709999999173
21
68.4679419999999936
0
LINE
8
BLACK
6
CONTINUOUS
10
590.3488709999999173
20
68.4679419999999936
11
590.4441090000000258
21
68.658418999999995
0
LINE
8
BLACK
6
CONTINUOUS
10
590.4441090000000258
20
68.658418999999995
11
590.5393470000000207
21
68.7536569999999898
0
LINE
8
BLACK
6
CONTINUOUS
10
590.5393470000000207
20
68.7536569999999898
11
590.7298230000000103
21
68.8488949999999988
0
LINE
8
BLACK
6
CONTINUOUS
10
590.7298230000000103
20
68.8488949999999988
11
591.0155379999999923
21
68.8488949999999988
0
LINE
8
BLACK
6
CONTINUOUS
10
591.0155379999999923
20
68.8488949999999988
11
591.2060139999999819
21
68.7536569999999898
0
LINE
8
BLACK
6
CONTINUOUS
10
591.2060139999999819
20
68.7536569999999898
11
591.3012519999999768
21
68.658418999999995
0
LINE
8
BLACK
6
CONTINUOUS
10
591.3012519999999768
20
68.658418999999995
11
591.3964899999999716
21
68.4679419999999936
0
LINE
8
BLACK
6
CONTINUOUS
10
591.3964899999999716
20
68.4679419999999936
11
591.3964899999999716
21
67.8965139999999963
0
LINE
8
BLACK
6
CONTINUOUS
10
591.3964899999999716
20
67.8965139999999963
11
591.3012519999999768
21
67.7060379999999924
0
LINE
8
BLACK
6
CONTINUOUS
10
591.3012519999999768
20
67.7060379999999924
11
591.2060139999999819
21
67.6107999999999976
0
LINE
8
BLACK
6
CONTINUOUS
10
591.2060139999999819
20
67.6107999999999976
11
591.0155379999999923
21
67.5155609999999911
0
LINE
8
BLACK
6
CONTINUOUS
10
591.0155379999999923
20
67.5155609999999911
11
590.7298230000000103
21
67.5155609999999911
0
LINE
8
BLACK
6
CONTINUOUS
10
592.2536329999999225
20
67.5155609999999911
11
592.2536329999999225
21
68.8488949999999988
0
LINE
8
BLACK
6
CONTINUOUS
10
592.2536329999999225
20
68.658418999999995
11
592.3488709999999173
21
68.7536569999999898
0
LINE
8
BLACK
6
CONTINUOUS
10
592.3488709999999173
20
68.7536569999999898
11
592.5393470000000207
21
68.8488949999999988
0
LINE
8
BLACK
6
CONTINUOUS
10
592.5393470000000207
20
68.8488949999999988
11
592.8250620000000026
21
68.8488949999999988
0
LINE
8
BLACK
6
CONTINUOUS
10
592.8250620000000026
20
68.8488949999999988
11
593.0155379999999923
21
68.7536569999999898
0
LINE
8
BLACK
6
CONTINUOUS
10
593.0155379999999923
20
68.7536569999999898
11
593.1107759999999871
21
68.5631800000000027
0
LINE
8
BLACK
6
CONTINUOUS
10
593.1107759999999871
20
68.5631800000000027
11
593.1107759999999871
21
67.5155609999999911
0
LINE
8
BLACK
6
CONTINUOUS
10
593.1107759999999871
20
68.5631800000000027
11
593.2060139999999819
21
68.7536569999999898
0
LINE
8
BLACK
6
CONTINUOUS
10
593.2060139999999819
20
68.7536569999999898
11
593.3964899999999716
21
68.8488949999999988
0
LINE
8
BLACK
6
CONTINUOUS
10
593.3964899999999716
20
68.8488949999999988
11
593.6822039999999561
21
68.8488949999999988
0
LINE
8
BLACK
6
CONTINUOUS
10
593.6822039999999561
20
68.8488949999999988
11
593.8726809999999432
21
68.7536569999999898
0
LINE
8
BLACK
6
CONTINUOUS
10
593.8726809999999432
20
68.7536569999999898
11
593.967918999999938
21
68.5631800000000027
0
LINE
8
BLACK
6
CONTINUOUS
10
593.967918999999938
20
68.5631800000000027
11
593.967918999999938
21
67.5155609999999911
0
LINE
8
BLACK
6
CONTINUOUS
10
596.4441100000000233
20
68.8488949999999988
11
596.4441100000000233
21
66.8488949999999988
0
LINE
8
BLACK
6
CONTINUOUS
10
596.4441100000000233
20
68.7536569999999898
11
596.634586000000013
21
68.8488949999999988
0
LINE
8
BLACK
6
CONTINUOUS
10
596.634586000000013
20
68.8488949999999988
11
597.0155389999999898
21
68.8488949999999988
0
LINE
8
BLACK
6
CONTINUOUS
10
597.0155389999999898
20
68.8488949999999988
11
597.2060149999999794
21
68.7536569999999898
0
LINE
8
BLACK
6
CONTINUOUS
10
597.2060149999999794
20
68.7536569999999898
11
597.3012529999999742
21
68.658418999999995
0
LINE
8
BLACK
6
CONTINUOUS
10
597.3012529999999742
20
68.658418999999995
11
597.3964909999999691
21
68.4679419999999936
0
LINE
8
BLACK
6
CONTINUOUS
10
597.3964909999999691
20
68.4679419999999936
11
597.3964909999999691
21
67.8965139999999963
0
LINE
8
BLACK
6
CONTINUOUS
10
597.3964909999999691
20
67.8965139999999963
11
597.3012529999999742
21
67.7060379999999924
0
LINE
8
BLACK
6
CONTINUOUS
10
597.3012529999999742
20
67.7060379999999924
11
597.2060149999999794
21
67.6107999999999976
0
LINE
8
BLACK
6
CONTINUOUS
10
597.2060149999999794
20
67.6107999999999976
11
597.0155389999999898
21
67.5155609999999911
0
LINE
8
BLACK
6
CONTINUOUS
10
597.0155389999999898
20
67.5155609999999911
11
596.634586000000013
21
67.5155609999999911
0
LINE
8
BLACK
6
CONTINUOUS
10
596.634586000000013
20
67.5155609999999911
11
596.4441100000000233
21
67.6107999999999976
0
LINE
8
BLACK
6
CONTINUOUS
10
599.1107769999999846
20
67.5155609999999911
11
599.1107769999999846
21
68.5631800000000027
0
LINE
8
BLACK
6
CONTINUOUS
10
599.1107769999999846
20
68.5631800000000027
11
599.0155389999999898
21
68.7536569999999898
0
LINE
8
BLACK
6
CONTINUOUS
10
599.0155389999999898
20
68.7536569999999898
11
598.8250630000000001
21
68.8488949999999988
0
LINE
8
BLACK
6
CONTINUOUS
10
598.8250630000000001
20
68.8488949999999988
11
598.4441100000000233
21
68.8488949999999988
0
LINE
8
BLACK
6
CONTINUOUS
10
598.4441100000000233
20
68.8488949999999988
11
598.25363399999992
21
68.7536569999999898
0
LINE
8
BLACK
6
CONTINUOUS
10
599.1107769999999846
20
67.6107999999999976
11
598.9203009999999949
21
67.5155609999999911
0
LINE
8
BLACK
6
CONTINUOUS
10
598.9203009999999949
20
67.5155609999999911
11
598.4441100000000233
21
67.5155609999999911
0
LINE
8
BLACK
6
CONTINUOUS
10
598.4441100000000233
20
67.5155609999999911
11
598.25363399999992
21
67.6107999999999976
0
LINE
8
BLACK
6
CONTINUOUS
10
598.25363399999992
20
67.6107999999999976
11
598.1583959999999252
21
67.8012760000000014
0
LINE
8
BLACK
6
CONTINUOUS
10
598.1583959999999252
20
67.8012760000000014
11
598.1583959999999252
21
67.9917519999999911
0
LINE
8
BLACK
6
CONTINUOUS
10
598.1583959999999252
20
67.9917519999999911
11
598.25363399999992
21
68.1822279999999949
0
LINE
8
BLACK
6
CONTINUOUS
10
598.25363399999992
20
68.1822279999999949
11
598.4441100000000233
21
68.277466000000004
0
LINE
8
BLACK
6
CONTINUOUS
10
598.4441100000000233
20
68.277466000000004
11
598.9203009999999949
21
68.277466000000004
0
LINE
8
BLACK
6
CONTINUOUS
10
598.9203009999999949
20
68.277466000000004
11
599.1107769999999846
21
68.3727039999999988
0
LINE
8
BLACK
6
CONTINUOUS
10
600.0631579999999303
20
68.8488949999999988
11
600.0631579999999303
21
67.5155609999999911
0
LINE
8
BLACK
6
CONTINUOUS
10
600.0631579999999303
20
68.658418999999995
11
600.1583959999999252
21
68.7536569999999898
0
LINE
8
BLACK
6
CONTINUOUS
10
600.1583959999999252
20
68.7536569999999898
11
600.3488720000000285
21
68.8488949999999988
0
LINE
8
BLACK
6
CONTINUOUS
10
600.3488720000000285
20
68.8488949999999988
11
600.6345870000000104
21
68.8488949999999988
0
LINE
8
BLACK
6
CONTINUOUS
10
600.6345870000000104
20
68.8488949999999988
11
600.8250630000000001
21
68.7536569999999898
0
LINE
8
BLACK
6
CONTINUOUS
10
600.8250630000000001
20
68.7536569999999898
11
600.9203009999999949
21
68.5631800000000027
0
LINE
8
BLACK
6
CONTINUOUS
10
600.9203009999999949
20
68.5631800000000027
11
600.9203009999999949
21
67.5155609999999911
0
LINE
8
BLACK
6
CONTINUOUS
10
602.6345870000000104
20
67.6107999999999976
11
602.4441110000000208
21
67.5155609999999911
0
LINE
8
BLACK
6
CONTINUOUS
10
602.4441110000000208
20
67.5155609999999911
11
602.0631579999999303
21
67.5155609999999911
0
LINE
8
BLACK
6
CONTINUOUS
10
602.0631579999999303
20
67.5155609999999911
11
601.8726819999999407
21
67.6107999999999976
0
LINE
8
BLACK
6
CONTINUOUS
10
601.8726819999999407
20
67.6107999999999976
11
601.7774439999999458
21
67.8012760000000014
0
LINE
8
BLACK
6
CONTINUOUS
10
601.7774439999999458
20
67.8012760000000014
11
601.7774439999999458
21
68.5631800000000027
0
LINE
8
BLACK
6
CONTINUOUS
10
601.7774439999999458
20
68.5631800000000027
11
601.8726819999999407
21
68.7536569999999898
0
LINE
8
BLACK
6
CONTINUOUS
10
601.8726819999999407
20
68.7536569999999898
11
602.0631579999999303
21
68.8488949999999988
0
LINE
8
BLACK
6
CONTINUOUS
10
602.0631579999999303
20
68.8488949999999988
11
602.4441110000000208
21
68.8488949999999988
0
LINE
8
BLACK
6
CONTINUOUS
10
602.4441110000000208
20
68.8488949999999988
11
602.6345870000000104
21
68.7536569999999898
0
LINE
8
BLACK
6
CONTINUOUS
10
602.6345870000000104
20
68.7536569999999898
11
602.7298250000000053
21
68.5631800000000027
0
LINE
8
BLACK
6
CONTINUOUS
10
602.7298250000000053
20
68.5631800000000027
11
602.7298250000000053
21
68.3727039999999988
0
LINE
8
BLACK
6
CONTINUOUS
10
602.7298250000000053
20
68.3727039999999988
11
601.7774439999999458
21
68.1822279999999949
0
LINE
8
BLACK
6
CONTINUOUS
10
603.8726819999999407
20
67.5155609999999911
11
603.682205999999951
21
67.6107999999999976
0
LINE
8
BLACK
6
CONTINUOUS
10
603.682205999999951
20
67.6107999999999976
11
603.5869679999999562
21
67.8012760000000014
0
LINE
8
BLACK
6
CONTINUOUS
10
603.5869679999999562
20
67.8012760000000014
11
603.5869679999999562
21
69.5155609999999911
0
LINE
8
BLACK
6
CONTINUOUS
10
604.7298250000000053
20
67.6107999999999976
11
604.7298250000000053
21
67.5155609999999911
0
LINE
8
BLACK
6
CONTINUOUS
10
604.7298250000000053
20
67.5155609999999911
11
604.6345870000000104
21
67.3250850000000014
0
LINE
8
BLACK
6
CONTINUOUS
10
604.6345870000000104
20
67.3250850000000014
11
604.5393490000000156
21
67.2298469999999924
0
LINE
8
BLACK
6
CONTINUOUS
10
607.1107779999999821
20
67.5155609999999911
11
607.1107779999999821
21
68.8488949999999988
0
LINE
8
BLACK
6
CONTINUOUS
10
607.1107779999999821
20
68.4679419999999936
11
607.2060159999999769
21
68.658418999999995
0
LINE
8
BLACK
6
CONTINUOUS
10
607.2060159999999769
20
68.658418999999995
11
607.3012539999999717
21
68.7536569999999898
0
LINE
8
BLACK
6
CONTINUOUS
10
607.3012539999999717
20
68.7536569999999898
11
607.4917299999999614
21
68.8488949999999988
0
LINE
8
BLACK
6
CONTINUOUS
10
607.4917299999999614
20
68.8488949999999988
11
607.6822069999999485
21
68.8488949999999988
0
LINE
8
BLACK
6
CONTINUOUS
10
608.348873000000026
20
67.5155609999999911
11
608.348873000000026
21
68.8488949999999988
0
LINE
8
BLACK
6
CONTINUOUS
10
608.348873000000026
20
69.5155609999999911
11
608.2536349999999175
21
69.4203229999999962
0
LINE
8
BLACK
6
CONTINUOUS
10
608.2536349999999175
20
69.4203229999999962
11
608.348873000000026
21
69.3250850000000014
0
LINE
8
BLACK
6
CONTINUOUS
10
608.348873000000026
20
69.3250850000000014
11
608.4441110000000208
21
69.4203229999999962
0
LINE
8
BLACK
6
CONTINUOUS
10
608.4441110000000208
20
69.4203229999999962
11
608.348873000000026
21
69.5155609999999911
0
LINE
8
BLACK
6
CONTINUOUS
10
608.348873000000026
20
69.5155609999999911
11
608.348873000000026
21
69.3250850000000014
0
LINE
8
BLACK
6
CONTINUOUS
10
610.1583969999999226
20
68.8488949999999988
11
610.1583969999999226
21
67.2298469999999924
0
LINE
8
BLACK
6
CONTINUOUS
10
610.1583969999999226
20
67.2298469999999924
11
610.0631589999999278
21
67.0393710000000027
0
LINE
8
BLACK
6
CONTINUOUS
10
610.0631589999999278
20
67.0393710000000027
11
609.967920999999933
21
66.9441329999999937
0
LINE
8
BLACK
6
CONTINUOUS
10
609.967920999999933
20
66.9441329999999937
11
609.7774439999999458
21
66.8488949999999988
0
LINE
8
BLACK
6
CONTINUOUS
10
609.7774439999999458
20
66.8488949999999988
11
609.4917299999999614
21
66.8488949999999988
0
LINE
8
BLACK
6
CONTINUOUS
10
609.4917299999999614
20
66.8488949999999988
11
609.3012539999999717
21
66.9441329999999937
0
LINE
8
BLACK
6
CONTINUOUS
10
610.1583969999999226
20
67.6107999999999976
11
609.967920999999933
21
67.5155609999999911
0
LINE
8
BLACK
6
CONTINUOUS
10
609.967920999999933
20
67.5155609999999911
11
609.5869679999999562
21
67.5155609999999911
0
LINE
8
BLACK
6
CONTINUOUS
10
609.5869679999999562
20
67.5155609999999911
11
609.3964919999999665
21
67.6107999999999976
0
LINE
8
BLACK
6
CONTINUOUS
10
609.3964919999999665
20
67.6107999999999976
11
609.3012539999999717
21
67.7060379999999924
0
LINE
8
BLACK
6
CONTINUOUS
10
609.3012539999999717
20
67.7060379999999924
11
609.2060159999999769
21
67.8965139999999963
0
LINE
8
BLACK
6
CONTINUOUS
10
609.2060159999999769
20
67.8965139999999963
11
609.2060159999999769
21
68.4679419999999936
0
LINE
8
BLACK
6
CONTINUOUS
10
609.2060159999999769
20
68.4679419999999936
11
609.3012539999999717
21
68.658418999999995
0
LINE
8
BLACK
6
CONTINUOUS
10
609.3012539999999717
20
68.658418999999995
11
609.3964919999999665
21
68.7536569999999898
0
LINE
8
BLACK
6
CONTINUOUS
10
609.3964919999999665
20
68.7536569999999898
11
609.5869679999999562
21
68.8488949999999988
0
LINE
8
BLACK
6
CONTINUOUS
10
609.5869679999999562
20
68.8488949999999988
11
609.967920999999933
21
68.8488949999999988
0
LINE
8
BLACK
6
CONTINUOUS
10
609.967920999999933
20
68.8488949999999988
11
610.1583969999999226
21
68.7536569999999898
0
LINE
8
BLACK
6
CONTINUOUS
10
611.1107779999999821
20
67.5155609999999911
11
611.1107779999999821
21
69.5155609999999911
0
LINE
8
BLACK
6
CONTINUOUS
10
611.967920999999933
20
67.5155609999999911
11
611.967920999999933
21
68.5631800000000027
0
LINE
8
BLACK
6
CONTINUOUS
10
611.967920999999933
20
68.5631800000000027
11
611.8726829999999381
21
68.7536569999999898
0
LINE
8
BLACK
6
CONTINUOUS
10
611.8726829999999381
20
68.7536569999999898
11
611.6822069999999485
21
68.8488949999999988
0
LINE
8
BLACK
6
CONTINUOUS
10
611.6822069999999485
20
68.8488949999999988
11
611.3964919999999665
21
68.8488949999999988
0
LINE
8
BLACK
6
CONTINUOUS
10
611.3964919999999665
20
68.8488949999999988
11
611.2060159999999769
21
68.7536569999999898
0
LINE
8
BLACK
6
CONTINUOUS
10
611.2060159999999769
20
68.7536569999999898
11
611.1107779999999821
21
68.658418999999995
0
LINE
8
BLACK
6
CONTINUOUS
10
612.6345880000000079
20
68.8488949999999988
11
613.3964919999999665
21
68.8488949999999988
0
LINE
8
BLACK
6
CONTINUOUS
10
612.9203019999999924
20
69.5155609999999911
11
612.9203019999999924
21
67.8012760000000014
0
LINE
8
BLACK
6
CONTINUOUS
10
612.9203019999999924
20
67.8012760000000014
11
613.0155399999999872
21
67.6107999999999976
0
LINE
8
BLACK
6
CONTINUOUS
10
613.0155399999999872
20
67.6107999999999976
11
613.2060159999999769
21
67.5155609999999911
0
LINE
8
BLACK
6
CONTINUOUS
10
613.2060159999999769
20
67.5155609999999911
11
613.3964919999999665
21
67.5155609999999911
0
LINE
8
BLACK
6
CONTINUOUS
10
615.396492999999964
20
68.8488949999999988
11
615.8726829999999381
21
67.5155609999999911
0
LINE
8
BLACK
6
CONTINUOUS
10
615.8726829999999381
20
67.5155609999999911
11
616.3488740000000234
21
68.8488949999999988
0
LINE
8
BLACK
6
CONTINUOUS
10
617.1107789999999795
20
67.5155609999999911
11
617.1107789999999795
21
68.8488949999999988
0
LINE
8
BLACK
6
CONTINUOUS
10
617.1107789999999795
20
69.5155609999999911
11
617.0155409999999847
21
69.4203229999999962
0
LINE
8
BLACK
6
CONTINUOUS
10
617.0155409999999847
20
69.4203229999999962
11
617.1107789999999795
21
69.3250850000000014
0
LINE
8
BLACK
6
CONTINUOUS
10
617.1107789999999795
20
69.3250850000000014
11
617.2060169999999744
21
69.4203229999999962
0
LINE
8
BLACK
6
CONTINUOUS
10
617.2060169999999744
20
69.4203229999999962
11
617.1107789999999795
21
69.5155609999999911
0
LINE
8
BLACK
6
CONTINUOUS
10
617.1107789999999795
20
69.5155609999999911
11
617.1107789999999795
21
69.3250850000000014
0
LINE
8
BLACK
6
CONTINUOUS
10
618.8250649999999951
20
67.6107999999999976
11
618.6345890000000054
21
67.5155609999999911
0
LINE
8
BLACK
6
CONTINUOUS
10
618.6345890000000054
20
67.5155609999999911
11
618.2536360000000286
21
67.5155609999999911
0
LINE
8
BLACK
6
CONTINUOUS
10
618.2536360000000286
20
67.5155609999999911
11
618.0631599999999253
21
67.6107999999999976
0
LINE
8
BLACK
6
CONTINUOUS
10
618.0631599999999253
20
67.6107999999999976
11
617.9679219999999304
21
67.8012760000000014
0
LINE
8
BLACK
6
CONTINUOUS
10
617.9679219999999304
20
67.8012760000000014
11
617.9679219999999304
21
68.5631800000000027
0
LINE
8
BLACK
6
CONTINUOUS
10
617.9679219999999304
20
68.5631800000000027
11
618.0631599999999253
21
68.7536569999999898
0
LINE
8
BLACK
6
CONTINUOUS
10
618.0631599999999253
20
68.7536569999999898
11
618.2536360000000286
21
68.8488949999999988
0
LINE
8
BLACK
6
CONTINUOUS
10
618.2536360000000286
20
68.8488949999999988
11
618.6345890000000054
21
68.8488949999999988
0
LINE
8
BLACK
6
CONTINUOUS
10
618.6345890000000054
20
68.8488949999999988
11
618.8250649999999951
21
68.7536569999999898
0
LINE
8
BLACK
6
CONTINUOUS
10
618.8250649999999951
20
68.7536569999999898
11
618.9203029999999899
21
68.5631800000000027
0
LINE
8
BLACK
6
CONTINUOUS
10
618.9203029999999899
20
68.5631800000000027
11
618.9203029999999899
21
68.3727039999999988
0
LINE
8
BLACK
6
CONTINUOUS
10
618.9203029999999899
20
68.3727039999999988
11
617.9679219999999304
21
68.1822279999999949
0
LINE
8
BLACK
6
CONTINUOUS
10
619.5869699999999511
20
68.8488949999999988
11
619.9679219999999304
21
67.5155609999999911
0
LINE
8
BLACK
6
CONTINUOUS
10
619.9679219999999304
20
67.5155609999999911
11
620.3488750000000209
21
68.4679419999999936
0
LINE
8
BLACK
6
CONTINUOUS
10
620.3488750000000209
20
68.4679419999999936
11
620.7298270000000002
21
67.5155609999999911
0
LINE
8
BLACK
6
CONTINUOUS
10
620.7298270000000002
20
67.5155609999999911
11
621.1107789999999795
21
68.8488949999999988
0
LINE
8
BLACK
6
CONTINUOUS
10
294.9060139999999706
20
160.0631799999999885
11
295.1917280000000119
21
159.9679419999999936
0
LINE
8
BLACK
6
CONTINUOUS
10
295.1917280000000119
20
159.9679419999999936
11
295.2869660000000067
21
159.8727039999999988
0
LINE
8
BLACK
6
CONTINUOUS
10
295.2869660000000067
20
159.8727039999999988
11
295.3822040000000015
21
159.6822279999999807
0
LINE
8
BLACK
6
CONTINUOUS
10
295.3822040000000015
20
159.6822279999999807
11
295.3822040000000015
21
159.3965139999999963
0
LINE
8
BLACK
6
CONTINUOUS
10
295.3822040000000015
20
159.3965139999999963
11
295.2869660000000067
21
159.2060380000000066
0
LINE
8
BLACK
6
CONTINUOUS
10
295.2869660000000067
20
159.2060380000000066
11
295.1917280000000119
21
159.1107999999999834
0
LINE
8
BLACK
6
CONTINUOUS
10
295.1917280000000119
20
159.1107999999999834
11
295.0012519999999654
21
159.0155609999999911
0
LINE
8
BLACK
6
CONTINUOUS
10
295.0012519999999654
20
159.0155609999999911
11
294.2393470000000093
21
159.0155609999999911
0
LINE
8
BLACK
6
CONTINUOUS
10
294.2393470000000093
20
159.0155609999999911
11
294.2393470000000093
21
161.0155609999999911
0
LINE
8
BLACK
6
CONTINUOUS
10
294.2393470000000093
20
161.0155609999999911
11
294.9060139999999706
21
161.0155609999999911
0
LINE
8
BLACK
6
CONTINUOUS
10
294.9060139999999706
20
161.0155609999999911
11
295.0964899999999602
21
160.9203229999999962
0
LINE
8
BLACK
6
CONTINUOUS
10
295.0964899999999602
20
160.9203229999999962
11
295.1917280000000119
21
160.8250850000000014
0
LINE
8
BLACK
6
CONTINUOUS
10
295.1917280000000119
20
160.8250850000000014
11
295.2869660000000067
21
160.6346089999999833
0
LINE
8
BLACK
6
CONTINUOUS
10
295.2869660000000067
20
160.6346089999999833
11
295.2869660000000067
21
160.4441329999999937
0
LINE
8
BLACK
6
CONTINUOUS
10
295.2869660000000067
20
160.4441329999999937
11
295.1917280000000119
21
160.253657000000004
0
LINE
8
BLACK
6
CONTINUOUS
10
295.1917280000000119
20
160.253657000000004
11
295.0964899999999602
21
160.1584189999999808
0
LINE
8
BLACK
6
CONTINUOUS
10
295.0964899999999602
20
160.1584189999999808
11
294.9060139999999706
21
160.0631799999999885
0
LINE
8
BLACK
6
CONTINUOUS
10
294.9060139999999706
20
160.0631799999999885
11
294.2393470000000093
21
160.0631799999999885
0
LINE
8
BLACK
6
CONTINUOUS
10
296.5250609999999938
20
159.0155609999999911
11
296.3345850000000041
21
159.1107999999999834
0
LINE
8
BLACK
6
CONTINUOUS
10
296.3345850000000041
20
159.1107999999999834
11
296.2393470000000093
21
159.2060380000000066
0
LINE
8
BLACK
6
CONTINUOUS
10
296.2393470000000093
20
159.2060380000000066
11
296.1441090000000145
21
159.3965139999999963
0
LINE
8
BLACK
6
CONTINUOUS
10
296.1441090000000145
20
159.3965139999999963
11
296.1441090000000145
21
159.9679419999999936
0
LINE
8
BLACK
6
CONTINUOUS
10
296.1441090000000145
20
159.9679419999999936
11
296.2393470000000093
21
160.1584189999999808
0
LINE
8
BLACK
6
CONTINUOUS
10
296.2393470000000093
20
160.1584189999999808
11
296.3345850000000041
21
160.253657000000004
0
LINE
8
BLACK
6
CONTINUOUS
10
296.3345850000000041
20
160.253657000000004
11
296.5250609999999938
21
160.3488949999999988
0
LINE
8
BLACK
6
CONTINUOUS
10
296.5250609999999938
20
160.3488949999999988
11
296.8107759999999757
21
160.3488949999999988
0
LINE
8
BLACK
6
CONTINUOUS
10
296.8107759999999757
20
160.3488949999999988
11
297.0012519999999654
21
160.253657000000004
0
LINE
8
BLACK
6
CONTINUOUS
10
297.0012519999999654
20
160.253657000000004
11
297.0964899999999602
21
160.1584189999999808
0
LINE
8
BLACK
6
CONTINUOUS
10
297.0964899999999602
20
160.1584189999999808
11
297.1917280000000119
21
159.9679419999999936
0
LINE
8
BLACK
6
CONTINUOUS
10
297.1917280000000119
20
159.9679419999999936
11
297.1917280000000119
21
159.3965139999999963
0
LINE
8
BLACK
6
CONTINUOUS
10
297.1917280000000119
20
159.3965139999999963
11
297.0964899999999602
21
159.2060380000000066
0
LINE
8
BLACK
6
CONTINUOUS
10
297.0964899999999602
20
159.2060380000000066
11
297.0012519999999654
21
159.1107999999999834
0
LINE
8
BLACK
6
CONTINUOUS
10
297.0012519999999654
20
159.1107999999999834
11
296.8107759999999757
21
159.0155609999999911
0
LINE
8
BLACK
6
CONTINUOUS
10
296.8107759999999757
20
159.0155609999999911
11
296.5250609999999938
21
159.0155609999999911
0
LINE
8
BLACK
6
CONTINUOUS
10
297.7631569999999783
20
160.3488949999999988
11
298.5250609999999938
21
160.3488949999999988
0
LINE
8
BLACK
6
CONTINUOUS
10
298.0488709999999628
20
161.0155609999999911
11
298.0488709999999628
21
159.3012760000000014
0
LINE
8
BLACK
6
CONTINUOUS
10
298.0488709999999628
20
159.3012760000000014
11
298.1441090000000145
21
159.1107999999999834
0
LINE
8
BLACK
6
CONTINUOUS
10
298.1441090000000145
20
159.1107999999999834
11
298.3345850000000041
21
159.0155609999999911
0
LINE
8
BLACK
6
CONTINUOUS
10
298.3345850000000041
20
159.0155609999999911
11
298.5250609999999938
21
159.0155609999999911
0
LINE
8
BLACK
6
CONTINUOUS
10
298.9060139999999706
20
160.3488949999999988
11
299.667917999999986
21
160.3488949999999988
0
LINE
8
BLACK
6
CONTINUOUS
10
299.1917280000000119
20
161.0155609999999911
11
299.1917280000000119
21
159.3012760000000014
0
LINE
8
BLACK
6
CONTINUOUS
10
299.1917280000000119
20
159.3012760000000014
11
299.2869660000000067
21
159.1107999999999834
0
LINE
8
BLACK
6
CONTINUOUS
10
299.2869660000000067
20
159.1107999999999834
11
299.4774419999999964
21
159.0155609999999911
0
LINE
8
BLACK
6
CONTINUOUS
10
299.4774419999999964
20
159.0155609999999911
11
299.667917999999986
21
159.0155609999999911
0
LINE
8
BLACK
6
CONTINUOUS
10
300.6202989999999886
20
159.0155609999999911
11
300.429822999999999
21
159.1107999999999834
0
LINE
8
BLACK
6
CONTINUOUS
10
300.429822999999999
20
159.1107999999999834
11
300.3345850000000041
21
159.2060380000000066
0
LINE
8
BLACK
6
CONTINUOUS
10
300.3345850000000041
20
159.2060380000000066
11
300.2393470000000093
21
159.3965139999999963
0
LINE
8
BLACK
6
CONTINUOUS
10
300.2393470000000093
20
159.3965139999999963
11
300.2393470000000093
21
159.9679419999999936
0
LINE
8
BLACK
6
CONTINUOUS
10
300.2393470000000093
20
159.9679419999999936
11
300.3345850000000041
21
160.1584189999999808
0
LINE
8
BLACK
6
CONTINUOUS
10
300.3345850000000041
20
160.1584189999999808
11
300.429822999999999
21
160.253657000000004
0
LINE
8
BLACK
6
CONTINUOUS
10
300.429822999999999
20
160.253657000000004
11
300.6202989999999886
21
160.3488949999999988
0
LINE
8
BLACK
6
CONTINUOUS
10
300.6202989999999886
20
160.3488949999999988
11
300.9060139999999706
21
160.3488949999999988
0
LINE
8
BLACK
6
CONTINUOUS
10
300.9060139999999706
20
160.3488949999999988
11
301.0964899999999602
21
160.253657000000004
0
LINE
8
BLACK
6
CONTINUOUS
10
301.0964899999999602
20
160.253657000000004
11
301.1917280000000119
21
160.1584189999999808
0
LINE
8
BLACK
6
CONTINUOUS
10
301.1917280000000119
20
160.1584189999999808
11
301.2869660000000067
21
159.9679419999999936
0
LINE
8
BLACK
6
CONTINUOUS
10
301.2869660000000067
20
159.9679419999999936
11
301.2869660000000067
21
159.3965139999999963
0
LINE
8
BLACK
6
CONTINUOUS
10
301.2869660000000067
20
159.3965139999999963
11
301.1917280000000119
21
159.2060380000000066
0
LINE
8
BLACK
6
CONTINUOUS
10
301.1917280000000119
20
159.2060380000000066
11
301.0964899999999602
21
159.1107999999999834
0
LINE
8
BLACK
6
CONTINUOUS
10
301.0964899999999602
20
159.1107999999999834
11
300.9060139999999706
21
159.0155609999999911
0
LINE
8
BLACK
6
CONTINUOUS
10
300.9060139999999706
20
159.0155609999999911
11
300.6202989999999886
21
159.0155609999999911
0
LINE
8
BLACK
6
CONTINUOUS
10
302.1441090000000145
20
159.0155609999999911
11
302.1441090000000145
21
160.3488949999999988
0
LINE
8
BLACK
6
CONTINUOUS
10
302.1441090000000145
20
160.1584189999999808
11
302.2393470000000093
21
160.253657000000004
0
LINE
8
BLACK
6
CONTINUOUS
10
302.2393470000000093
20
160.253657000000004
11
302.429822999999999
21
160.3488949999999988
0
LINE
8
BLACK
6
CONTINUOUS
10
302.429822999999999
20
160.3488949999999988
11
302.7155379999999809
21
160.3488949999999988
0
LINE
8
BLACK
6
CONTINUOUS
10
302.7155379999999809
20
160.3488949999999988
11
302.9060139999999706
21
160.253657000000004
0
LINE
8
BLACK
6
CONTINUOUS
10
302.9060139999999706
20
160.253657000000004
11
303.0012519999999654
21
160.0631799999999885
0
LINE
8
BLACK
6
CONTINUOUS
10
303.0012519999999654
20
160.0631799999999885
11
303.0012519999999654
21
159.0155609999999911
0
LINE
8
BLACK
6
CONTINUOUS
10
303.0012519999999654
20
160.0631799999999885
11
303.0964899999999602
21
160.253657000000004
0
LINE
8
BLACK
6
CONTINUOUS
10
303.0964899999999602
20
160.253657000000004
11
303.2869660000000067
21
160.3488949999999988
0
LINE
8
BLACK
6
CONTINUOUS
10
303.2869660000000067
20
160.3488949999999988
11
303.5726799999999912
21
160.3488949999999988
0
LINE
8
BLACK
6
CONTINUOUS
10
303.5726799999999912
20
160.3488949999999988
11
303.7631569999999783
21
160.253657000000004
0
LINE
8
BLACK
6
CONTINUOUS
10
303.7631569999999783
20
160.253657000000004
11
303.8583949999999732
21
160.0631799999999885
0
LINE
8
BLACK
6
CONTINUOUS
10
303.8583949999999732
20
160.0631799999999885
11
303.8583949999999732
21
159.0155609999999911
0
LINE
8
BLACK
6
CONTINUOUS
10
306.3345860000000016
20
160.3488949999999988
11
306.3345860000000016
21
158.3488949999999988
0
LINE
8
BLACK
6
CONTINUOUS
10
306.3345860000000016
20
160.253657000000004
11
306.5250619999999913
21
160.3488949999999988
0
LINE
8
BLACK
6
CONTINUOUS
10
306.5250619999999913
20
160.3488949999999988
11
306.906014999999968
21
160.3488949999999988
0
LINE
8
BLACK
6
CONTINUOUS
10
306.906014999999968
20
160.3488949999999988
11
307.0964909999999577
21
160.253657000000004
0
LINE
8
BLACK
6
CONTINUOUS
10
307.0964909999999577
20
160.253657000000004
11
307.1917290000000094
21
160.1584189999999808
0
LINE
8
BLACK
6
CONTINUOUS
10
307.1917290000000094
20
160.1584189999999808
11
307.2869670000000042
21
159.9679419999999936
0
LINE
8
BLACK
6
CONTINUOUS
10
307.2869670000000042
20
159.9679419999999936
11
307.2869670000000042
21
159.3965139999999963
0
LINE
8
BLACK
6
CONTINUOUS
10
307.2869670000000042
20
159.3965139999999963
11
307.1917290000000094
21
159.2060380000000066
0
LINE
8
BLACK
6
CONTINUOUS
10
307.1917290000000094
20
159.2060380000000066
11
307.0964909999999577
21
159.1107999999999834
0
LINE
8
BLACK
6
CONTINUOUS
10
307.0964909999999577
20
159.1107999999999834
11
306.906014999999968
21
159.0155609999999911
0
LINE
8
BLACK
6
CONTINUOUS
10
306.906014999999968
20
159.0155609999999911
11
306.5250619999999913
21
159.0155609999999911
0
LINE
8
BLACK
6
CONTINUOUS
10
306.5250619999999913
20
159.0155609999999911
11
306.3345860000000016
21
159.1107999999999834
0
LINE
8
BLACK
6
CONTINUOUS
10
309.0012529999999629
20
159.0155609999999911
11
309.0012529999999629
21
160.0631799999999885
0
LINE
8
BLACK
6
CONTINUOUS
10
309.0012529999999629
20
160.0631799999999885
11
308.906014999999968
21
160.253657000000004
0
LINE
8
BLACK
6
CONTINUOUS
10
308.906014999999968
20
160.253657000000004
11
308.7155389999999784
21
160.3488949999999988
0
LINE
8
BLACK
6
CONTINUOUS
10
308.7155389999999784
20
160.3488949999999988
11
308.3345860000000016
21
160.3488949999999988
0
LINE
8
BLACK
6
CONTINUOUS
10
308.3345860000000016
20
160.3488949999999988
11
308.144110000000012
21
160.253657000000004
0
LINE
8
BLACK
6
CONTINUOUS
10
309.0012529999999629
20
159.1107999999999834
11
308.8107769999999732
21
159.0155609999999911
0
LINE
8
BLACK
6
CONTINUOUS
10
308.8107769999999732
20
159.0155609999999911
11
308.3345860000000016
21
159.0155609999999911
0
LINE
8
BLACK
6
CONTINUOUS
10
308.3345860000000016
20
159.0155609999999911
11
308.144110000000012
21
159.1107999999999834
0
LINE
8
BLACK
6
CONTINUOUS
10
308.144110000000012
20
159.1107999999999834
11
308.0488719999999603
21
159.3012760000000014
0
LINE
8
BLACK
6
CONTINUOUS
10
308.0488719999999603
20
159.3012760000000014
11
308.0488719999999603
21
159.4917519999999911
0
LINE
8
BLACK
6
CONTINUOUS
10
308.0488719999999603
20
159.4917519999999911
11
308.144110000000012
21
159.6822279999999807
0
LINE
8
BLACK
6
CONTINUOUS
10
308.144110000000012
20
159.6822279999999807
11
308.3345860000000016
21
159.777466000000004
0
LINE
8
BLACK
6
CONTINUOUS
10
308.3345860000000016
20
159.777466000000004
11
308.8107769999999732
21
159.777466000000004
0
LINE
8
BLACK
6
CONTINUOUS
10
308.8107769999999732
20
159.777466000000004
11
309.0012529999999629
21
159.8727039999999988
0
LINE
8
BLACK
6
CONTINUOUS
10
309.9536339999999655
20
160.3488949999999988
11
309.9536339999999655
21
159.0155609999999911
0
LINE
8
BLACK
6
CONTINUOUS
10
309.9536339999999655
20
160.1584189999999808
11
310.0488719999999603
21
160.253657000000004
0
LINE
8
BLACK
6
CONTINUOUS
10
310.0488719999999603
20
160.253657000000004
11
310.2393480000000068
21
160.3488949999999988
0
LINE
8
BLACK
6
CONTINUOUS
10
310.2393480000000068
20
160.3488949999999988
11
310.5250629999999887
21
160.3488949999999988
0
LINE
8
BLACK
6
CONTINUOUS
10
310.5250629999999887
20
160.3488949999999988
11
310.7155389999999784
21
160.253657000000004
0
LINE
8
BLACK
6
CONTINUOUS
10
310.7155389999999784
20
160.253657000000004
11
310.8107769999999732
21
160.0631799999999885
0
LINE
8
BLACK
6
CONTINUOUS
10
310.8107769999999732
20
160.0631799999999885
11
310.8107769999999732
21
159.0155609999999911
0
LINE
8
BLACK
6
CONTINUOUS
10
312.5250629999999887
20
159.1107999999999834
11
312.3345869999999991
21
159.0155609999999911
0
LINE
8
BLACK
6
CONTINUOUS
10
312.3345869999999991
20
159.0155609999999911
11
311.9536339999999655
21
159.0155609999999911
0
LINE
8
BLACK
6
CONTINUOUS
10
311.9536339999999655
20
159.0155609999999911
11
311.7631579999999758
21
159.1107999999999834
0
LINE
8
BLACK
6
CONTINUOUS
10
311.7631579999999758
20
159.1107999999999834
11
311.667919999999981
21
159.3012760000000014
0
LINE
8
BLACK
6
CONTINUOUS
10
311.667919999999981
20
159.3012760000000014
11
311.667919999999981
21
160.0631799999999885
0
LINE
8
BLACK
6
CONTINUOUS
10
311.667919999999981
20
160.0631799999999885
11
311.7631579999999758
21
160.253657000000004
0
LINE
8
BLACK
6
CONTINUOUS
10
311.7631579999999758
20
160.253657000000004
11
311.9536339999999655
21
160.3488949999999988
0
LINE
8
BLACK
6
CONTINUOUS
10
311.9536339999999655
20
160.3488949999999988
11
312.3345869999999991
21
160.3488949999999988
0
LINE
8
BLACK
6
CONTINUOUS
10
312.3345869999999991
20
160.3488949999999988
11
312.5250629999999887
21
160.253657000000004
0
LINE
8
BLACK
6
CONTINUOUS
10
312.5250629999999887
20
160.253657000000004
11
312.6203009999999836
21
160.0631799999999885
0
LINE
8
BLACK
6
CONTINUOUS
10
312.6203009999999836
20
160.0631799999999885
11
312.6203009999999836
21
159.8727039999999988
0
LINE
8
BLACK
6
CONTINUOUS
10
312.6203009999999836
20
159.8727039999999988
11
311.667919999999981
21
159.6822279999999807
0
LINE
8
BLACK
6
CONTINUOUS
10
313.7631579999999758
20
159.0155609999999911
11
313.5726819999999861
21
159.1107999999999834
0
LINE
8
BLACK
6
CONTINUOUS
10
313.5726819999999861
20
159.1107999999999834
11
313.4774439999999913
21
159.3012760000000014
0
LINE
8
BLACK
6
CONTINUOUS
10
313.4774439999999913
20
159.3012760000000014
11
313.4774439999999913
21
161.0155609999999911
0
LINE
8
BLACK
6
CONTINUOUS
10
314.6203009999999836
20
159.1107999999999834
11
314.6203009999999836
21
159.0155609999999911
0
LINE
8
BLACK
6
CONTINUOUS
10
314.6203009999999836
20
159.0155609999999911
11
314.5250629999999887
21
158.8250850000000014
0
LINE
8
BLACK
6
CONTINUOUS
10
314.5250629999999887
20
158.8250850000000014
11
314.4298249999999939
21
158.7298470000000066
0
LINE
8
BLACK
6
CONTINUOUS
10
316.7155399999999759
20
160.3488949999999988
11
317.4774439999999913
21
160.3488949999999988
0
LINE
8
BLACK
6
CONTINUOUS
10
317.0012539999999603
20
159.0155609999999911
11
317.0012539999999603
21
160.7298470000000066
0
LINE
8
BLACK
6
CONTINUOUS
10
317.0012539999999603
20
160.7298470000000066
11
317.096492000000012
21
160.9203229999999962
0
LINE
8
BLACK
6
CONTINUOUS
10
317.096492000000012
20
160.9203229999999962
11
317.2869680000000017
21
161.0155609999999911
0
LINE
8
BLACK
6
CONTINUOUS
10
317.2869680000000017
20
161.0155609999999911
11
317.4774439999999913
21
161.0155609999999911
0
LINE
8
BLACK
6
CONTINUOUS
10
318.1441110000000094
20
159.0155609999999911
11
318.1441110000000094
21
160.3488949999999988
0
LINE
8
BLACK
6
CONTINUOUS
10
318.1441110000000094
20
159.9679419999999936
11
318.2393490000000043
21
160.1584189999999808
0
LINE
8
BLACK
6
CONTINUOUS
10
318.2393490000000043
20
160.1584189999999808
11
318.3345869999999991
21
160.253657000000004
0
LINE
8
BLACK
6
CONTINUOUS
10
318.3345869999999991
20
160.253657000000004
11
318.5250629999999887
21
160.3488949999999988
0
LINE
8
BLACK
6
CONTINUOUS
10
318.5250629999999887
20
160.3488949999999988
11
318.7155399999999759
21
160.3488949999999988
0
LINE
8
BLACK
6
CONTINUOUS
10
319.667919999999981
20
159.0155609999999911
11
319.4774439999999913
21
159.1107999999999834
0
LINE
8
BLACK
6
CONTINUOUS
10
319.4774439999999913
20
159.1107999999999834
11
319.3822059999999965
21
159.2060380000000066
0
LINE
8
BLACK
6
CONTINUOUS
10
319.3822059999999965
20
159.2060380000000066
11
319.2869680000000017
21
159.3965139999999963
0
LINE
8
BLACK
6
CONTINUOUS
10
319.2869680000000017
20
159.3965139999999963
11
319.2869680000000017
21
159.9679419999999936
0
LINE
8
BLACK
6
CONTINUOUS
10
319.2869680000000017
20
159.9679419999999936
11
319.3822059999999965
21
160.1584189999999808
0
LINE
8
BLACK
6
CONTINUOUS
10
319.3822059999999965
20
160.1584189999999808
11
319.4774439999999913
21
160.253657000000004
0
LINE
8
BLACK
6
CONTINUOUS
10
319.4774439999999913
20
160.253657000000004
11
319.667919999999981
21
160.3488949999999988
0
LINE
8
BLACK
6
CONTINUOUS
10
319.667919999999981
20
160.3488949999999988
11
319.9536349999999629
21
160.3488949999999988
0
LINE
8
BLACK
6
CONTINUOUS
10
319.9536349999999629
20
160.3488949999999988
11
320.1441110000000094
21
160.253657000000004
0
LINE
8
BLACK
6
CONTINUOUS
10
320.1441110000000094
20
160.253657000000004
11
320.2393490000000043
21
160.1584189999999808
0
LINE
8
BLACK
6
CONTINUOUS
10
320.2393490000000043
20
160.1584189999999808
11
320.3345869999999991
21
159.9679419999999936
0
LINE
8
BLACK
6
CONTINUOUS
10
320.3345869999999991
20
159.9679419999999936
11
320.3345869999999991
21
159.3965139999999963
0
LINE
8
BLACK
6
CONTINUOUS
10
320.3345869999999991
20
159.3965139999999963
11
320.2393490000000043
21
159.2060380000000066
0
LINE
8
BLACK
6
CONTINUOUS
10
320.2393490000000043
20
159.2060380000000066
11
320.1441110000000094
21
159.1107999999999834
0
LINE
8
BLACK
6
CONTINUOUS
10
320.1441110000000094
20
159.1107999999999834
11
319.9536349999999629
21
159.0155609999999911
0
LINE
8
BLACK
6
CONTINUOUS
10
319.9536349999999629
20
159.0155609999999911
11
319.667919999999981
21
159.0155609999999911
0
LINE
8
BLACK
6
CONTINUOUS
10
321.1917300000000068
20
160.3488949999999988
11
321.1917300000000068
21
159.0155609999999911
0
LINE
8
BLACK
6
CONTINUOUS
10
321.1917300000000068
20
160.1584189999999808
11
321.2869680000000017
21
160.253657000000004
0
LINE
8
BLACK
6
CONTINUOUS
10
321.2869680000000017
20
160.253657000000004
11
321.4774439999999913
21
160.3488949999999988
0
LINE
8
BLACK
6
CONTINUOUS
10
321.4774439999999913
20
160.3488949999999988
11
321.7631589999999733
21
160.3488949999999988
0
LINE
8
BLACK
6
CONTINUOUS
10
321.7631589999999733
20
160.3488949999999988
11
321.9536349999999629
21
160.253657000000004
0
LINE
8
BLACK
6
CONTINUOUS
10
321.9536349999999629
20
160.253657000000004
11
322.0488729999999578
21
160.0631799999999885
0
LINE
8
BLACK
6
CONTINUOUS
10
322.0488729999999578
20
160.0631799999999885
11
322.0488729999999578
21
159.0155609999999911
0
LINE
8
BLACK
6
CONTINUOUS
10
322.7155399999999759
20
160.3488949999999988
11
323.4774439999999913
21
160.3488949999999988
0
LINE
8
BLACK
6
CONTINUOUS
10
323.0012539999999603
20
161.0155609999999911
11
323.0012539999999603
21
159.3012760000000014
0
LINE
8
BLACK
6
CONTINUOUS
10
323.0012539999999603
20
159.3012760000000014
11
323.096492000000012
21
159.1107999999999834
0
LINE
8
BLACK
6
CONTINUOUS
10
323.096492000000012
20
159.1107999999999834
11
323.2869680000000017
21
159.0155609999999911
0
LINE
8
BLACK
6
CONTINUOUS
10
323.2869680000000017
20
159.0155609999999911
11
323.4774439999999913
21
159.0155609999999911
0
LINE
8
BLACK
6
CONTINUOUS
10
325.4774449999999888
20
160.3488949999999988
11
325.9536349999999629
21
159.0155609999999911
0
LINE
8
BLACK
6
CONTINUOUS
10
325.9536349999999629
20
159.0155609999999911
11
326.4298259999999914
21
160.3488949999999988
0
LINE
8
BLACK
6
CONTINUOUS
10
327.1917310000000043
20
159.0155609999999911
11
327.1917310000000043
21
160.3488949999999988
0
LINE
8
BLACK
6
CONTINUOUS
10
327.1917310000000043
20
161.0155609999999911
11
327.0964930000000095
21
160.9203229999999962
0
LINE
8
BLACK
6
CONTINUOUS
10
327.0964930000000095
20
160.9203229999999962
11
327.1917310000000043
21
160.8250850000000014
0
LINE
8
BLACK
6
CONTINUOUS
10
327.1917310000000043
20
160.8250850000000014
11
327.2869689999999991
21
160.9203229999999962
0
LINE
8
BLACK
6
CONTINUOUS
10
327.2869689999999991
20
160.9203229999999962
11
327.1917310000000043
21
161.0155609999999911
0
LINE
8
BLACK
6
CONTINUOUS
10
327.1917310000000043
20
161.0155609999999911
11
327.1917310000000043
21
160.8250850000000014
0
LINE
8
BLACK
6
CONTINUOUS
10
328.906016999999963
20
159.1107999999999834
11
328.7155409999999733
21
159.0155609999999911
0
LINE
8
BLACK
6
CONTINUOUS
10
328.7155409999999733
20
159.0155609999999911
11
328.3345879999999966
21
159.0155609999999911
0
LINE
8
BLACK
6
CONTINUOUS
10
328.3345879999999966
20
159.0155609999999911
11
328.1441120000000069
21
159.1107999999999834
0
LINE
8
BLACK
6
CONTINUOUS
10
328.1441120000000069
20
159.1107999999999834
11
328.0488740000000121
21
159.3012760000000014
0
LINE
8
BLACK
6
CONTINUOUS
10
328.0488740000000121
20
159.3012760000000014
11
328.0488740000000121
21
160.0631799999999885
0
LINE
8
BLACK
6
CONTINUOUS
10
328.0488740000000121
20
160.0631799999999885
11
328.1441120000000069
21
160.253657000000004
0
LINE
8
BLACK
6
CONTINUOUS
10
328.1441120000000069
20
160.253657000000004
11
328.3345879999999966
21
160.3488949999999988
0
LINE
8
BLACK
6
CONTINUOUS
10
328.3345879999999966
20
160.3488949999999988
11
328.7155409999999733
21
160.3488949999999988
0
LINE
8
BLACK
6
CONTINUOUS
10
328.7155409999999733
20
160.3488949999999988
11
328.906016999999963
21
160.253657000000004
0
LINE
8
BLACK
6
CONTINUOUS
10
328.906016999999963
20
160.253657000000004
11
329.0012549999999578
21
160.0631799999999885
0
LINE
8
BLACK
6
CONTINUOUS
10
329.0012549999999578
20
160.0631799999999885
11
329.0012549999999578
21
159.8727039999999988
0
LINE
8
BLACK
6
CONTINUOUS
10
329.0012549999999578
20
159.8727039999999988
11
328.0488740000000121
21
159.6822279999999807
0
LINE
8
BLACK
6
CONTINUOUS
10
329.6679219999999759
20
160.3488949999999988
11
330.0488740000000121
21
159.0155609999999911
0
LINE
8
BLACK
6
CONTINUOUS
10
330.0488740000000121
20
159.0155609999999911
11
330.4298269999999889
21
159.9679419999999936
0
LINE
8
BLACK
6
CONTINUOUS
10
330.4298269999999889
20
159.9679419999999936
11
330.8107789999999682
21
159.0155609999999911
0
LINE
8
BLACK
6
CONTINUOUS
10
330.8107789999999682
20
159.0155609999999911
11
331.1917310000000043
21
160.3488949999999988
0
LINE
8
BLACK
6
CONTINUOUS
10
185.406013999999999
20
68.5631800000000027
11
185.6917279999999835
21
68.4679419999999936
0
LINE
8
BLACK
6
CONTINUOUS
10
185.6917279999999835
20
68.4679419999999936
11
185.7869659999999783
21
68.3727039999999988
0
LINE
8
BLACK
6
CONTINUOUS
10
185.7869659999999783
20
68.3727039999999988
11
185.8822040000000015
21
68.1822279999999949
0
LINE
8
BLACK
6
CONTINUOUS
10
185.8822040000000015
20
68.1822279999999949
11
185.8822040000000015
21
67.8965139999999963
0
LINE
8
BLACK
6
CONTINUOUS
10
185.8822040000000015
20
67.8965139999999963
11
185.7869659999999783
21
67.7060379999999924
0
LINE
8
BLACK
6
CONTINUOUS
10
185.7869659999999783
20
67.7060379999999924
11
185.6917279999999835
21
67.6107999999999976
0
LINE
8
BLACK
6
CONTINUOUS
10
185.6917279999999835
20
67.6107999999999976
11
185.5012519999999938
21
67.5155609999999911
0
LINE
8
BLACK
6
CONTINUOUS
10
185.5012519999999938
20
67.5155609999999911
11
184.7393469999999809
21
67.5155609999999911
0
LINE
8
BLACK
6
CONTINUOUS
10
184.7393469999999809
20
67.5155609999999911
11
184.7393469999999809
21
69.5155609999999911
0
LINE
8
BLACK
6
CONTINUOUS
10
184.7393469999999809
20
69.5155609999999911
11
185.406013999999999
21
69.5155609999999911
0
LINE
8
BLACK
6
CONTINUOUS
10
185.406013999999999
20
69.5155609999999911
11
185.5964899999999886
21
69.4203229999999962
0
LINE
8
BLACK
6
CONTINUOUS
10
185.5964899999999886
20
69.4203229999999962
11
185.6917279999999835
21
69.3250850000000014
0
LINE
8
BLACK
6
CONTINUOUS
10
185.6917279999999835
20
69.3250850000000014
11
185.7869659999999783
21
69.1346089999999975
0
LINE
8
BLACK
6
CONTINUOUS
10
185.7869659999999783
20
69.1346089999999975
11
185.7869659999999783
21
68.9441329999999937
0
LINE
8
BLACK
6
CONTINUOUS
10
185.7869659999999783
20
68.9441329999999937
11
185.6917279999999835
21
68.7536569999999898
0
LINE
8
BLACK
6
CONTINUOUS
10
185.6917279999999835
20
68.7536569999999898
11
185.5964899999999886
21
68.658418999999995
0
LINE
8
BLACK
6
CONTINUOUS
10
185.5964899999999886
20
68.658418999999995
11
185.406013999999999
21
68.5631800000000027
0
LINE
8
BLACK
6
CONTINUOUS
10
185.406013999999999
20
68.5631800000000027
11
184.7393469999999809
21
68.5631800000000027
0
LINE
8
BLACK
6
CONTINUOUS
10
187.0250609999999938
20
67.5155609999999911
11
186.8345850000000041
21
67.6107999999999976
0
LINE
8
BLACK
6
CONTINUOUS
10
186.8345850000000041
20
67.6107999999999976
11
186.7393469999999809
21
67.7060379999999924
0
LINE
8
BLACK
6
CONTINUOUS
10
186.7393469999999809
20
67.7060379999999924
11
186.6441089999999861
21
67.8965139999999963
0
LINE
8
BLACK
6
CONTINUOUS
10
186.6441089999999861
20
67.8965139999999963
11
186.6441089999999861
21
68.4679419999999936
0
LINE
8
BLACK
6
CONTINUOUS
10
186.6441089999999861
20
68.4679419999999936
11
186.7393469999999809
21
68.658418999999995
0
LINE
8
BLACK
6
CONTINUOUS
10
186.7393469999999809
20
68.658418999999995
11
186.8345850000000041
21
68.7536569999999898
0
LINE
8
BLACK
6
CONTINUOUS
10
186.8345850000000041
20
68.7536569999999898
11
187.0250609999999938
21
68.8488949999999988
0
LINE
8
BLACK
6
CONTINUOUS
10
187.0250609999999938
20
68.8488949999999988
11
187.3107760000000042
21
68.8488949999999988
0
LINE
8
BLACK
6
CONTINUOUS
10
187.3107760000000042
20
68.8488949999999988
11
187.5012519999999938
21
68.7536569999999898
0
LINE
8
BLACK
6
CONTINUOUS
10
187.5012519999999938
20
68.7536569999999898
11
187.5964899999999886
21
68.658418999999995
0
LINE
8
BLACK
6
CONTINUOUS
10
187.5964899999999886
20
68.658418999999995
11
187.6917279999999835
21
68.4679419999999936
0
LINE
8
BLACK
6
CONTINUOUS
10
187.6917279999999835
20
68.4679419999999936
11
187.6917279999999835
21
67.8965139999999963
0
LINE
8
BLACK
6
CONTINUOUS
10
187.6917279999999835
20
67.8965139999999963
11
187.5964899999999886
21
67.7060379999999924
0
LINE
8
BLACK
6
CONTINUOUS
10
187.5964899999999886
20
67.7060379999999924
11
187.5012519999999938
21
67.6107999999999976
0
LINE
8
BLACK
6
CONTINUOUS
10
187.5012519999999938
20
67.6107999999999976
11
187.3107760000000042
21
67.5155609999999911
0
LINE
8
BLACK
6
CONTINUOUS
10
187.3107760000000042
20
67.5155609999999911
11
187.0250609999999938
21
67.5155609999999911
0
LINE
8
BLACK
6
CONTINUOUS
10
188.2631569999999783
20
68.8488949999999988
11
189.0250609999999938
21
68.8488949999999988
0
LINE
8
BLACK
6
CONTINUOUS
10
188.5488709999999912
20
69.5155609999999911
11
188.5488709999999912
21
67.8012760000000014
0
LINE
8
BLACK
6
CONTINUOUS
10
188.5488709999999912
20
67.8012760000000014
11
188.6441089999999861
21
67.6107999999999976
0
LINE
8
BLACK
6
CONTINUOUS
10
188.6441089999999861
20
67.6107999999999976
11
188.8345850000000041
21
67.5155609999999911
0
LINE
8
BLACK
6
CONTINUOUS
10
188.8345850000000041
20
67.5155609999999911
11
189.0250609999999938
21
67.5155609999999911
0
LINE
8
BLACK
6
CONTINUOUS
10
189.406013999999999
20
68.8488949999999988
11
190.167917999999986
21
68.8488949999999988
0
LINE
8
BLACK
6
CONTINUOUS
10
189.6917279999999835
20
69.5155609999999911
11
189.6917279999999835
21
67.8012760000000014
0
LINE
8
BLACK
6
CONTINUOUS
10
189.6917279999999835
20
67.8012760000000014
11
189.7869659999999783
21
67.6107999999999976
0
LINE
8
BLACK
6
CONTINUOUS
10
189.7869659999999783
20
67.6107999999999976
11
189.9774419999999964
21
67.5155609999999911
0
LINE
8
BLACK
6
CONTINUOUS
10
189.9774419999999964
20
67.5155609999999911
11
190.167917999999986
21
67.5155609999999911
0
LINE
8
BLACK
6
CONTINUOUS
10
191.1202989999999886
20
67.5155609999999911
11
190.929822999999999
21
67.6107999999999976
0
LINE
8
BLACK
6
CONTINUOUS
10
190.929822999999999
20
67.6107999999999976
11
190.8345850000000041
21
67.7060379999999924
0
LINE
8
BLACK
6
CONTINUOUS
10
190.8345850000000041
20
67.7060379999999924
11
190.7393469999999809
21
67.8965139999999963
0
LINE
8
BLACK
6
CONTINUOUS
10
190.7393469999999809
20
67.8965139999999963
11
190.7393469999999809
21
68.4679419999999936
0
LINE
8
BLACK
6
CONTINUOUS
10
190.7393469999999809
20
68.4679419999999936
11
190.8345850000000041
21
68.658418999999995
0
LINE
8
BLACK
6
CONTINUOUS
10
190.8345850000000041
20
68.658418999999995
11
190.929822999999999
21
68.7536569999999898
0
LINE
8
BLACK
6
CONTINUOUS
10
190.929822999999999
20
68.7536569999999898
11
191.1202989999999886
21
68.8488949999999988
0
LINE
8
BLACK
6
CONTINUOUS
10
191.1202989999999886
20
68.8488949999999988
11
191.406013999999999
21
68.8488949999999988
0
LINE
8
BLACK
6
CONTINUOUS
10
191.406013999999999
20
68.8488949999999988
11
191.5964899999999886
21
68.7536569999999898
0
LINE
8
BLACK
6
CONTINUOUS
10
191.5964899999999886
20
68.7536569999999898
11
191.6917279999999835
21
68.658418999999995
0
LINE
8
BLACK
6
CONTINUOUS
10
191.6917279999999835
20
68.658418999999995
11
191.7869659999999783
21
68.4679419999999936
0
LINE
8
BLACK
6
CONTINUOUS
10
191.7869659999999783
20
68.4679419999999936
11
191.7869659999999783
21
67.8965139999999963
0
LINE
8
BLACK
6
CONTINUOUS
10
191.7869659999999783
20
67.8965139999999963
11
191.6917279999999835
21
67.7060379999999924
0
LINE
8
BLACK
6
CONTINUOUS
10
191.6917279999999835
20
67.7060379999999924
11
191.5964899999999886
21
67.6107999999999976
0
LINE
8
BLACK
6
CONTINUOUS
10
191.5964899999999886
20
67.6107999999999976
11
191.406013999999999
21
67.5155609999999911
0
LINE
8
BLACK
6
CONTINUOUS
10
191.406013999999999
20
67.5155609999999911
11
191.1202989999999886
21
67.5155609999999911
0
LINE
8
BLACK
6
CONTINUOUS
10
192.6441089999999861
20
67.5155609999999911
11
192.6441089999999861
21
68.8488949999999988
0
LINE
8
BLACK
6
CONTINUOUS
10
192.6441089999999861
20
68.658418999999995
11
192.7393469999999809
21
68.7536569999999898
0
LINE
8
BLACK
6
CONTINUOUS
10
192.7393469999999809
20
68.7536569999999898
11
192.929822999999999
21
68.8488949999999988
0
LINE
8
BLACK
6
CONTINUOUS
10
192.929822999999999
20
68.8488949999999988
11
193.2155379999999809
21
68.8488949999999988
0
LINE
8
BLACK
6
CONTINUOUS
10
193.2155379999999809
20
68.8488949999999988
11
193.406013999999999
21
68.7536569999999898
0
LINE
8
BLACK
6
CONTINUOUS
10
193.406013999999999
20
68.7536569999999898
11
193.5012519999999938
21
68.5631800000000027
0
LINE
8
BLACK
6
CONTINUOUS
10
193.5012519999999938
20
68.5631800000000027
11
193.5012519999999938
21
67.5155609999999911
0
LINE
8
BLACK
6
CONTINUOUS
10
193.5012519999999938
20
68.5631800000000027
11
193.5964899999999886
21
68.7536569999999898
0
LINE
8
BLACK
6
CONTINUOUS
10
193.5964899999999886
20
68.7536569999999898
11
193.7869659999999783
21
68.8488949999999988
0
LINE
8
BLACK
6
CONTINUOUS
10
193.7869659999999783
20
68.8488949999999988
11
194.0726799999999912
21
68.8488949999999988
0
LINE
8
BLACK
6
CONTINUOUS
10
194.0726799999999912
20
68.8488949999999988
11
194.2631569999999783
21
68.7536569999999898
0
LINE
8
BLACK
6
CONTINUOUS
10
194.2631569999999783
20
68.7536569999999898
11
194.3583950000000016
21
68.5631800000000027
0
LINE
8
BLACK
6
CONTINUOUS
10
194.3583950000000016
20
68.5631800000000027
11
194.3583950000000016
21
67.5155609999999911
0
LINE
8
BLACK
6
CONTINUOUS
10
196.8345860000000016
20
68.8488949999999988
11
196.8345860000000016
21
66.8488949999999988
0
LINE
8
BLACK
6
CONTINUOUS
10
196.8345860000000016
20
68.7536569999999898
11
197.0250619999999913
21
68.8488949999999988
0
LINE
8
BLACK
6
CONTINUOUS
10
197.0250619999999913
20
68.8488949999999988
11
197.4060149999999965
21
68.8488949999999988
0
LINE
8
BLACK
6
CONTINUOUS
10
197.4060149999999965
20
68.8488949999999988
11
197.5964909999999861
21
68.7536569999999898
0
LINE
8
BLACK
6
CONTINUOUS
10
197.5964909999999861
20
68.7536569999999898
11
197.6917289999999809
21
68.658418999999995
0
LINE
8
BLACK
6
CONTINUOUS
10
197.6917289999999809
20
68.658418999999995
11
197.7869670000000042
21
68.4679419999999936
0
LINE
8
BLACK
6
CONTINUOUS
10
197.7869670000000042
20
68.4679419999999936
11
197.7869670000000042
21
67.8965139999999963
0
LINE
8
BLACK
6
CONTINUOUS
10
197.7869670000000042
20
67.8965139999999963
11
197.6917289999999809
21
67.7060379999999924
0
LINE
8
BLACK
6
CONTINUOUS
10
197.6917289999999809
20
67.7060379999999924
11
197.5964909999999861
21
67.6107999999999976
0
LINE
8
BLACK
6
CONTINUOUS
10
197.5964909999999861
20
67.6107999999999976
11
197.4060149999999965
21
67.5155609999999911
0
LINE
8
BLACK
6
CONTINUOUS
10
197.4060149999999965
20
67.5155609999999911
11
197.0250619999999913
21
67.5155609999999911
0
LINE
8
BLACK
6
CONTINUOUS
10
197.0250619999999913
20
67.5155609999999911
11
196.8345860000000016
21
67.6107999999999976
0
LINE
8
BLACK
6
CONTINUOUS
10
199.5012529999999913
20
67.5155609999999911
11
199.5012529999999913
21
68.5631800000000027
0
LINE
8
BLACK
6
CONTINUOUS
10
199.5012529999999913
20
68.5631800000000027
11
199.4060149999999965
21
68.7536569999999898
0
LINE
8
BLACK
6
CONTINUOUS
10
199.4060149999999965
20
68.7536569999999898
11
199.2155389999999784
21
68.8488949999999988
0
LINE
8
BLACK
6
CONTINUOUS
10
199.2155389999999784
20
68.8488949999999988
11
198.8345860000000016
21
68.8488949999999988
0
LINE
8
BLACK
6
CONTINUOUS
10
198.8345860000000016
20
68.8488949999999988
11
198.6441099999999835
21
68.7536569999999898
0
LINE
8
BLACK
6
CONTINUOUS
10
199.5012529999999913
20
67.6107999999999976
11
199.3107770000000016
21
67.5155609999999911
0
LINE
8
BLACK
6
CONTINUOUS
10
199.3107770000000016
20
67.5155609999999911
11
198.8345860000000016
21
67.5155609999999911
0
LINE
8
BLACK
6
CONTINUOUS
10
198.8345860000000016
20
67.5155609999999911
11
198.6441099999999835
21
67.6107999999999976
0
LINE
8
BLACK
6
CONTINUOUS
10
198.6441099999999835
20
67.6107999999999976
11
198.5488719999999887
21
67.8012760000000014
0
LINE
8
BLACK
6
CONTINUOUS
10
198.5488719999999887
20
67.8012760000000014
11
198.5488719999999887
21
67.9917519999999911
0
LINE
8
BLACK
6
CONTINUOUS
10
198.5488719999999887
20
67.9917519999999911
11
198.6441099999999835
21
68.1822279999999949
0
LINE
8
BLACK
6
CONTINUOUS
10
198.6441099999999835
20
68.1822279999999949
11
198.8345860000000016
21
68.277466000000004
0
LINE
8
BLACK
6
CONTINUOUS
10
198.8345860000000016
20
68.277466000000004
11
199.3107770000000016
21
68.277466000000004
0
LINE
8
BLACK
6
CONTINUOUS
10
199.3107770000000016
20
68.277466000000004
11
199.5012529999999913
21
68.3727039999999988
0
LINE
8
BLACK
6
CONTINUOUS
10
200.4536339999999939
20
68.8488949999999988
11
200.4536339999999939
21
67.5155609999999911
0
LINE
8
BLACK
6
CONTINUOUS
10
200.4536339999999939
20
68.658418999999995
11
200.5488719999999887
21
68.7536569999999898
0
LINE
8
BLACK
6
CONTINUOUS
10
200.5488719999999887
20
68.7536569999999898
11
200.7393479999999784
21
68.8488949999999988
0
LINE
8
BLACK
6
CONTINUOUS
10
200.7393479999999784
20
68.8488949999999988
11
201.0250629999999887
21
68.8488949999999988
0
LINE
8
BLACK
6
CONTINUOUS
10
201.0250629999999887
20
68.8488949999999988
11
201.2155389999999784
21
68.7536569999999898
0
LINE
8
BLACK
6
CONTINUOUS
10
201.2155389999999784
20
68.7536569999999898
11
201.3107770000000016
21
68.5631800000000027
0
LINE
8
BLACK
6
CONTINUOUS
10
201.3107770000000016
20
68.5631800000000027
11
201.3107770000000016
21
67.5155609999999911
0
LINE
8
BLACK
6
CONTINUOUS
10
203.0250629999999887
20
67.6107999999999976
11
202.8345869999999991
21
67.5155609999999911
0
LINE
8
BLACK
6
CONTINUOUS
10
202.8345869999999991
20
67.5155609999999911
11
202.4536339999999939
21
67.5155609999999911
0
LINE
8
BLACK
6
CONTINUOUS
10
202.4536339999999939
20
67.5155609999999911
11
202.2631580000000042
21
67.6107999999999976
0
LINE
8
BLACK
6
CONTINUOUS
10
202.2631580000000042
20
67.6107999999999976
11
202.167919999999981
21
67.8012760000000014
0
LINE
8
BLACK
6
CONTINUOUS
10
202.167919999999981
20
67.8012760000000014
11
202.167919999999981
21
68.5631800000000027
0
LINE
8
BLACK
6
CONTINUOUS
10
202.167919999999981
20
68.5631800000000027
11
202.2631580000000042
21
68.7536569999999898
0
LINE
8
BLACK
6
CONTINUOUS
10
202.2631580000000042
20
68.7536569999999898
11
202.4536339999999939
21
68.8488949999999988
0
LINE
8
BLACK
6
CONTINUOUS
10
202.4536339999999939
20
68.8488949999999988
11
202.8345869999999991
21
68.8488949999999988
0
LINE
8
BLACK
6
CONTINUOUS
10
202.8345869999999991
20
68.8488949999999988
11
203.0250629999999887
21
68.7536569999999898
0
LINE
8
BLACK
6
CONTINUOUS
10
203.0250629999999887
20
68.7536569999999898
11
203.1203009999999836
21
68.5631800000000027
0
LINE
8
BLACK
6
CONTINUOUS
10
203.1203009999999836
20
68.5631800000000027
11
203.1203009999999836
21
68.3727039999999988
0
LINE
8
BLACK
6
CONTINUOUS
10
203.1203009999999836
20
68.3727039999999988
11
202.167919999999981
21
68.1822279999999949
0
LINE
8
BLACK
6
CONTINUOUS
10
204.2631580000000042
20
67.5155609999999911
11
204.0726819999999861
21
67.6107999999999976
0
LINE
8
BLACK
6
CONTINUOUS
10
204.0726819999999861
20
67.6107999999999976
11
203.9774439999999913
21
67.8012760000000014
0
LINE
8
BLACK
6
CONTINUOUS
10
203.9774439999999913
20
67.8012760000000014
11
203.9774439999999913
21
69.5155609999999911
0
LINE
8
BLACK
6
CONTINUOUS
10
205.1203009999999836
20
67.6107999999999976
11
205.1203009999999836
21
67.5155609999999911
0
LINE
8
BLACK
6
CONTINUOUS
10
205.1203009999999836
20
67.5155609999999911
11
205.0250629999999887
21
67.3250850000000014
0
LINE
8
BLACK
6
CONTINUOUS
10
205.0250629999999887
20
67.3250850000000014
11
204.9298249999999939
21
67.2298469999999924
0
LINE
8
BLACK
6
CONTINUOUS
10
207.7869680000000017
20
67.5155609999999911
11
207.5964919999999836
21
67.6107999999999976
0
LINE
8
BLACK
6
CONTINUOUS
10
207.5964919999999836
20
67.6107999999999976
11
207.5012539999999888
21
67.8012760000000014
0
LINE
8
BLACK
6
CONTINUOUS
10
207.5012539999999888
20
67.8012760000000014
11
207.5012539999999888
21
69.5155609999999911
0
LINE
8
BLACK
6
CONTINUOUS
10
209.3107779999999991
20
67.6107999999999976
11
209.120301999999981
21
67.5155609999999911
0
LINE
8
BLACK
6
CONTINUOUS
10
209.120301999999981
20
67.5155609999999911
11
208.7393490000000043
21
67.5155609999999911
0
LINE
8
BLACK
6
CONTINUOUS
10
208.7393490000000043
20
67.5155609999999911
11
208.5488729999999862
21
67.6107999999999976
0
LINE
8
BLACK
6
CONTINUOUS
10
208.5488729999999862
20
67.6107999999999976
11
208.4536349999999914
21
67.8012760000000014
0
LINE
8
BLACK
6
CONTINUOUS
10
208.4536349999999914
20
67.8012760000000014
11
208.4536349999999914
21
68.5631800000000027
0
LINE
8
BLACK
6
CONTINUOUS
10
208.4536349999999914
20
68.5631800000000027
11
208.5488729999999862
21
68.7536569999999898
0
LINE
8
BLACK
6
CONTINUOUS
10
208.5488729999999862
20
68.7536569999999898
11
208.7393490000000043
21
68.8488949999999988
0
LINE
8
BLACK
6
CONTINUOUS
10
208.7393490000000043
20
68.8488949999999988
11
209.120301999999981
21
68.8488949999999988
0
LINE
8
BLACK
6
CONTINUOUS
10
209.120301999999981
20
68.8488949999999988
11
209.3107779999999991
21
68.7536569999999898
0
LINE
8
BLACK
6
CONTINUOUS
10
209.3107779999999991
20
68.7536569999999898
11
209.4060159999999939
21
68.5631800000000027
0
LINE
8
BLACK
6
CONTINUOUS
10
209.4060159999999939
20
68.5631800000000027
11
209.4060159999999939
21
68.3727039999999988
0
LINE
8
BLACK
6
CONTINUOUS
10
209.4060159999999939
20
68.3727039999999988
11
208.4536349999999914
21
68.1822279999999949
0
LINE
8
BLACK
6
CONTINUOUS
10
209.9774449999999888
20
68.8488949999999988
11
210.7393490000000043
21
68.8488949999999988
0
LINE
8
BLACK
6
CONTINUOUS
10
210.2631590000000017
20
67.5155609999999911
11
210.2631590000000017
21
69.2298469999999924
0
LINE
8
BLACK
6
CONTINUOUS
10
210.2631590000000017
20
69.2298469999999924
11
210.3583969999999965
21
69.4203229999999962
0
LINE
8
BLACK
6
CONTINUOUS
10
210.3583969999999965
20
69.4203229999999962
11
210.5488729999999862
21
69.5155609999999911
0
LINE
8
BLACK
6
CONTINUOUS
10
210.5488729999999862
20
69.5155609999999911
11
210.7393490000000043
21
69.5155609999999911
0
LINE
8
BLACK
6
CONTINUOUS
10
211.120301999999981
20
68.8488949999999988
11
211.8822059999999965
21
68.8488949999999988
0
LINE
8
BLACK
6
CONTINUOUS
10
211.4060159999999939
20
69.5155609999999911
11
211.4060159999999939
21
67.8012760000000014
0
LINE
8
BLACK
6
CONTINUOUS
10
211.4060159999999939
20
67.8012760000000014
11
211.5012539999999888
21
67.6107999999999976
0
LINE
8
BLACK
6
CONTINUOUS
10
211.5012539999999888
20
67.6107999999999976
11
211.6917299999999784
21
67.5155609999999911
0
LINE
8
BLACK
6
CONTINUOUS
10
211.6917299999999784
20
67.5155609999999911
11
211.8822059999999965
21
67.5155609999999911
0
LINE
8
BLACK
6
CONTINUOUS
10
213.882206999999994
20
68.8488949999999988
11
214.3583969999999965
21
67.5155609999999911
0
LINE
8
BLACK
6
CONTINUOUS
10
214.3583969999999965
20
67.5155609999999911
11
214.8345879999999966
21
68.8488949999999988
0
LINE
8
BLACK
6
CONTINUOUS
10
215.5964929999999811
20
67.5155609999999911
11
215.5964929999999811
21
68.8488949999999988
0
LINE
8
BLACK
6
CONTINUOUS
10
215.5964929999999811
20
69.5155609999999911
11
215.5012549999999862
21
69.4203229999999962
0
LINE
8
BLACK
6
CONTINUOUS
10
215.5012549999999862
20
69.4203229999999962
11
215.5964929999999811
21
69.3250850000000014
0
LINE
8
BLACK
6
CONTINUOUS
10
215.5964929999999811
20
69.3250850000000014
11
215.6917310000000043
21
69.4203229999999962
0
LINE
8
BLACK
6
CONTINUOUS
10
215.6917310000000043
20
69.4203229999999962
11
215.5964929999999811
21
69.5155609999999911
0
LINE
8
BLACK
6
CONTINUOUS
10
215.5964929999999811
20
69.5155609999999911
11
215.5964929999999811
21
69.3250850000000014
0
LINE
8
BLACK
6
CONTINUOUS
10
217.3107789999999966
20
67.6107999999999976
11
217.1203029999999785
21
67.5155609999999911
0
LINE
8
BLACK
6
CONTINUOUS
10
217.1203029999999785
20
67.5155609999999911
11
216.7393500000000017
21
67.5155609999999911
0
LINE
8
BLACK
6
CONTINUOUS
10
216.7393500000000017
20
67.5155609999999911
11
216.5488739999999837
21
67.6107999999999976
0
LINE
8
BLACK
6
CONTINUOUS
10
216.5488739999999837
20
67.6107999999999976
11
216.4536359999999888
21
67.8012760000000014
0
LINE
8
BLACK
6
CONTINUOUS
10
216.4536359999999888
20
67.8012760000000014
11
216.4536359999999888
21
68.5631800000000027
0
LINE
8
BLACK
6
CONTINUOUS
10
216.4536359999999888
20
68.5631800000000027
11
216.5488739999999837
21
68.7536569999999898
0
LINE
8
BLACK
6
CONTINUOUS
10
216.5488739999999837
20
68.7536569999999898
11
216.7393500000000017
21
68.8488949999999988
0
LINE
8
BLACK
6
CONTINUOUS
10
216.7393500000000017
20
68.8488949999999988
11
217.1203029999999785
21
68.8488949999999988
0
LINE
8
BLACK
6
CONTINUOUS
10
217.1203029999999785
20
68.8488949999999988
11
217.3107789999999966
21
68.7536569999999898
0
LINE
8
BLACK
6
CONTINUOUS
10
217.3107789999999966
20
68.7536569999999898
11
217.4060169999999914
21
68.5631800000000027
0
LINE
8
BLACK
6
CONTINUOUS
10
217.4060169999999914
20
68.5631800000000027
11
217.4060169999999914
21
68.3727039999999988
0
LINE
8
BLACK
6
CONTINUOUS
10
217.4060169999999914
20
68.3727039999999988
11
216.4536359999999888
21
68.1822279999999949
0
LINE
8
BLACK
6
CONTINUOUS
10
218.0726839999999811
20
68.8488949999999988
11
218.4536359999999888
21
67.5155609999999911
0
LINE
8
BLACK
6
CONTINUOUS
10
218.4536359999999888
20
67.5155609999999911
11
218.834588999999994
21
68.4679419999999936
0
LINE
8
BLACK
6
CONTINUOUS
10
218.834588999999994
20
68.4679419999999936
11
219.2155410000000018
21
67.5155609999999911
0
LINE
8
BLACK
6
CONTINUOUS
10
219.2155410000000018
20
67.5155609999999911
11
219.5964929999999811
21
68.8488949999999988
0
LINE
8
BLACK
6
CONTINUOUS
10
294.9060139999999706
20
68.5631800000000027
11
295.1917280000000119
21
68.4679419999999936
0
LINE
8
BLACK
6
CONTINUOUS
10
295.1917280000000119
20
68.4679419999999936
11
295.2869660000000067
21
68.3727039999999988
0
LINE
8
BLACK
6
CONTINUOUS
10
295.2869660000000067
20
68.3727039999999988
11
295.3822040000000015
21
68.1822279999999949
0
LINE
8
BLACK
6
CONTINUOUS
10
295.3822040000000015
20
68.1822279999999949
11
295.3822040000000015
21
67.8965139999999963
0
LINE
8
BLACK
6
CONTINUOUS
10
295.3822040000000015
20
67.8965139999999963
11
295.2869660000000067
21
67.7060379999999924
0
LINE
8
BLACK
6
CONTINUOUS
10
295.2869660000000067
20
67.7060379999999924
11
295.1917280000000119
21
67.6107999999999976
0
LINE
8
BLACK
6
CONTINUOUS
10
295.1917280000000119
20
67.6107999999999976
11
295.0012519999999654
21
67.5155609999999911
0
LINE
8
BLACK
6
CONTINUOUS
10
295.0012519999999654
20
67.5155609999999911
11
294.2393470000000093
21
67.5155609999999911
0
LINE
8
BLACK
6
CONTINUOUS
10
294.2393470000000093
20
67.5155609999999911
11
294.2393470000000093
21
69.5155609999999911
0
LINE
8
BLACK
6
CONTINUOUS
10
294.2393470000000093
20
69.5155609999999911
11
294.9060139999999706
21
69.5155609999999911
0
LINE
8
BLACK
6
CONTINUOUS
10
294.9060139999999706
20
69.5155609999999911
11
295.0964899999999602
21
69.4203229999999962
0
LINE
8
BLACK
6
CONTINUOUS
10
295.0964899999999602
20
69.4203229999999962
11
295.1917280000000119
21
69.3250850000000014
0
LINE
8
BLACK
6
CONTINUOUS
10
295.1917280000000119
20
69.3250850000000014
11
295.2869660000000067
21
69.1346089999999975
0
LINE
8
BLACK
6
CONTINUOUS
10
295.2869660000000067
20
69.1346089999999975
11
295.2869660000000067
21
68.9441329999999937
0
LINE
8
BLACK
6
CONTINUOUS
10
295.2869660000000067
20
68.9441329999999937
11
295.1917280000000119
21
68.7536569999999898
0
LINE
8
BLACK
6
CONTINUOUS
10
295.1917280000000119
20
68.7536569999999898
11
295.0964899999999602
21
68.658418999999995
0
LINE
8
BLACK
6
CONTINUOUS
10
295.0964899999999602
20
68.658418999999995
11
294.9060139999999706
21
68.5631800000000027
0
LINE
8
BLACK
6
CONTINUOUS
10
294.9060139999999706
20
68.5631800000000027
11
294.2393470000000093
21
68.5631800000000027
0
LINE
8
BLACK
6
CONTINUOUS
10
296.5250609999999938
20
67.5155609999999911
11
296.3345850000000041
21
67.6107999999999976
0
LINE
8
BLACK
6
CONTINUOUS
10
296.3345850000000041
20
67.6107999999999976
11
296.2393470000000093
21
67.7060379999999924
0
LINE
8
BLACK
6
CONTINUOUS
10
296.2393470000000093
20
67.7060379999999924
11
296.1441090000000145
21
67.8965139999999963
0
LINE
8
BLACK
6
CONTINUOUS
10
296.1441090000000145
20
67.8965139999999963
11
296.1441090000000145
21
68.4679419999999936
0
LINE
8
BLACK
6
CONTINUOUS
10
296.1441090000000145
20
68.4679419999999936
11
296.2393470000000093
21
68.658418999999995
0
LINE
8
BLACK
6
CONTINUOUS
10
296.2393470000000093
20
68.658418999999995
11
296.3345850000000041
21
68.7536569999999898
0
LINE
8
BLACK
6
CONTINUOUS
10
296.3345850000000041
20
68.7536569999999898
11
296.5250609999999938
21
68.8488949999999988
0
LINE
8
BLACK
6
CONTINUOUS
10
296.5250609999999938
20
68.8488949999999988
11
296.8107759999999757
21
68.8488949999999988
0
LINE
8
BLACK
6
CONTINUOUS
10
296.8107759999999757
20
68.8488949999999988
11
297.0012519999999654
21
68.7536569999999898
0
LINE
8
BLACK
6
CONTINUOUS
10
297.0012519999999654
20
68.7536569999999898
11
297.0964899999999602
21
68.658418999999995
0
LINE
8
BLACK
6
CONTINUOUS
10
297.0964899999999602
20
68.658418999999995
11
297.1917280000000119
21
68.4679419999999936
0
LINE
8
BLACK
6
CONTINUOUS
10
297.1917280000000119
20
68.4679419999999936
11
297.1917280000000119
21
67.8965139999999963
0
LINE
8
BLACK
6
CONTINUOUS
10
297.1917280000000119
20
67.8965139999999963
11
297.0964899999999602
21
67.7060379999999924
0
LINE
8
BLACK
6
CONTINUOUS
10
297.0964899999999602
20
67.7060379999999924
11
297.0012519999999654
21
67.6107999999999976
0
LINE
8
BLACK
6
CONTINUOUS
10
297.0012519999999654
20
67.6107999999999976
11
296.8107759999999757
21
67.5155609999999911
0
LINE
8
BLACK
6
CONTINUOUS
10
296.8107759999999757
20
67.5155609999999911
11
296.5250609999999938
21
67.5155609999999911
0
LINE
8
BLACK
6
CONTINUOUS
10
297.7631569999999783
20
68.8488949999999988
11
298.5250609999999938
21
68.8488949999999988
0
LINE
8
BLACK
6
CONTINUOUS
10
298.0488709999999628
20
69.5155609999999911
11
298.0488709999999628
21
67.8012760000000014
0
LINE
8
BLACK
6
CONTINUOUS
10
298.0488709999999628
20
67.8012760000000014
11
298.1441090000000145
21
67.6107999999999976
0
LINE
8
BLACK
6
CONTINUOUS
10
298.1441090000000145
20
67.6107999999999976
11
298.3345850000000041
21
67.5155609999999911
0
LINE
8
BLACK
6
CONTINUOUS
10
298.3345850000000041
20
67.5155609999999911
11
298.5250609999999938
21
67.5155609999999911
0
LINE
8
BLACK
6
CONTINUOUS
10
298.9060139999999706
20
68.8488949999999988
11
299.667917999999986
21
68.8488949999999988
0
LINE
8
BLACK
6
CONTINUOUS
10
299.1917280000000119
20
69.5155609999999911
11
299.1917280000000119
21
67.8012760000000014
0
LINE
8
BLACK
6
CONTINUOUS
10
299.1917280000000119
20
67.8012760000000014
11
299.2869660000000067
21
67.6107999999999976
0
LINE
8
BLACK
6
CONTINUOUS
10
299.2869660000000067
20
67.6107999999999976
11
299.4774419999999964
21
67.5155609999999911
0
LINE
8
BLACK
6
CONTINUOUS
10
299.4774419999999964
20
67.5155609999999911
11
299.667917999999986
21
67.5155609999999911
0
LINE
8
BLACK
6
CONTINUOUS
10
300.6202989999999886
20
67.5155609999999911
11
300.429822999999999
21
67.6107999999999976
0
LINE
8
BLACK
6
CONTINUOUS
10
300.429822999999999
20
67.6107999999999976
11
300.3345850000000041
21
67.7060379999999924
0
LINE
8
BLACK
6
CONTINUOUS
10
300.3345850000000041
20
67.7060379999999924
11
300.2393470000000093
21
67.8965139999999963
0
LINE
8
BLACK
6
CONTINUOUS
10
300.2393470000000093
20
67.8965139999999963
11
300.2393470000000093
21
68.4679419999999936
0
LINE
8
BLACK
6
CONTINUOUS
10
300.2393470000000093
20
68.4679419999999936
11
300.3345850000000041
21
68.658418999999995
0
LINE
8
BLACK
6
CONTINUOUS
10
300.3345850000000041
20
68.658418999999995
11
300.429822999999999
21
68.7536569999999898
0
LINE
8
BLACK
6
CONTINUOUS
10
300.429822999999999
20
68.7536569999999898
11
300.6202989999999886
21
68.8488949999999988
0
LINE
8
BLACK
6
CONTINUOUS
10
300.6202989999999886
20
68.8488949999999988
11
300.9060139999999706
21
68.8488949999999988
0
LINE
8
BLACK
6
CONTINUOUS
10
300.9060139999999706
20
68.8488949999999988
11
301.0964899999999602
21
68.7536569999999898
0
LINE
8
BLACK
6
CONTINUOUS
10
301.0964899999999602
20
68.7536569999999898
11
301.1917280000000119
21
68.658418999999995
0
LINE
8
BLACK
6
CONTINUOUS
10
301.1917280000000119
20
68.658418999999995
11
301.2869660000000067
21
68.4679419999999936
0
LINE
8
BLACK
6
CONTINUOUS
10
301.2869660000000067
20
68.4679419999999936
11
301.2869660000000067
21
67.8965139999999963
0
LINE
8
BLACK
6
CONTINUOUS
10
301.2869660000000067
20
67.8965139999999963
11
301.1917280000000119
21
67.7060379999999924
0
LINE
8
BLACK
6
CONTINUOUS
10
301.1917280000000119
20
67.7060379999999924
11
301.0964899999999602
21
67.6107999999999976
0
LINE
8
BLACK
6
CONTINUOUS
10
301.0964899999999602
20
67.6107999999999976
11
300.9060139999999706
21
67.5155609999999911
0
LINE
8
BLACK
6
CONTINUOUS
10
300.9060139999999706
20
67.5155609999999911
11
300.6202989999999886
21
67.5155609999999911
0
LINE
8
BLACK
6
CONTINUOUS
10
302.1441090000000145
20
67.5155609999999911
11
302.1441090000000145
21
68.8488949999999988
0
LINE
8
BLACK
6
CONTINUOUS
10
302.1441090000000145
20
68.658418999999995
11
302.2393470000000093
21
68.7536569999999898
0
LINE
8
BLACK
6
CONTINUOUS
10
302.2393470000000093
20
68.7536569999999898
11
302.429822999999999
21
68.8488949999999988
0
LINE
8
BLACK
6
CONTINUOUS
10
302.429822999999999
20
68.8488949999999988
11
302.7155379999999809
21
68.8488949999999988
0
LINE
8
BLACK
6
CONTINUOUS
10
302.7155379999999809
20
68.8488949999999988
11
302.9060139999999706
21
68.7536569999999898
0
LINE
8
BLACK
6
CONTINUOUS
10
302.9060139999999706
20
68.7536569999999898
11
303.0012519999999654
21
68.5631800000000027
0
LINE
8
BLACK
6
CONTINUOUS
10
303.0012519999999654
20
68.5631800000000027
11
303.0012519999999654
21
67.5155609999999911
0
LINE
8
BLACK
6
CONTINUOUS
10
303.0012519999999654
20
68.5631800000000027
11
303.0964899999999602
21
68.7536569999999898
0
LINE
8
BLACK
6
CONTINUOUS
10
303.0964899999999602
20
68.7536569999999898
11
303.2869660000000067
21
68.8488949999999988
0
LINE
8
BLACK
6
CONTINUOUS
10
303.2869660000000067
20
68.8488949999999988
11
303.5726799999999912
21
68.8488949999999988
0
LINE
8
BLACK
6
CONTINUOUS
10
303.5726799999999912
20
68.8488949999999988
11
303.7631569999999783
21
68.7536569999999898
0
LINE
8
BLACK
6
CONTINUOUS
10
303.7631569999999783
20
68.7536569999999898
11
303.8583949999999732
21
68.5631800000000027
0
LINE
8
BLACK
6
CONTINUOUS
10
303.8583949999999732
20
68.5631800000000027
11
303.8583949999999732
21
67.5155609999999911
0
LINE
8
BLACK
6
CONTINUOUS
10
306.3345860000000016
20
68.8488949999999988
11
306.3345860000000016
21
66.8488949999999988
0
LINE
8
BLACK
6
CONTINUOUS
10
306.3345860000000016
20
68.7536569999999898
11
306.5250619999999913
21
68.8488949999999988
0
LINE
8
BLACK
6
CONTINUOUS
10
306.5250619999999913
20
68.8488949999999988
11
306.906014999999968
21
68.8488949999999988
0
LINE
8
BLACK
6
CONTINUOUS
10
306.906014999999968
20
68.8488949999999988
11
307.0964909999999577
21
68.7536569999999898
0
LINE
8
BLACK
6
CONTINUOUS
10
307.0964909999999577
20
68.7536569999999898
11
307.1917290000000094
21
68.658418999999995
0
LINE
8
BLACK
6
CONTINUOUS
10
307.1917290000000094
20
68.658418999999995
11
307.2869670000000042
21
68.4679419999999936
0
LINE
8
BLACK
6
CONTINUOUS
10
307.2869670000000042
20
68.4679419999999936
11
307.2869670000000042
21
67.8965139999999963
0
LINE
8
BLACK
6
CONTINUOUS
10
307.2869670000000042
20
67.8965139999999963
11
307.1917290000000094
21
67.7060379999999924
0
LINE
8
BLACK
6
CONTINUOUS
10
307.1917290000000094
20
67.7060379999999924
11
307.0964909999999577
21
67.6107999999999976
0
LINE
8
BLACK
6
CONTINUOUS
10
307.0964909999999577
20
67.6107999999999976
11
306.906014999999968
21
67.5155609999999911
0
LINE
8
BLACK
6
CONTINUOUS
10
306.906014999999968
20
67.5155609999999911
11
306.5250619999999913
21
67.5155609999999911
0
LINE
8
BLACK
6
CONTINUOUS
10
306.5250619999999913
20
67.5155609999999911
11
306.3345860000000016
21
67.6107999999999976
0
LINE
8
BLACK
6
CONTINUOUS
10
309.0012529999999629
20
67.5155609999999911
11
309.0012529999999629
21
68.5631800000000027
0
LINE
8
BLACK
6
CONTINUOUS
10
309.0012529999999629
20
68.5631800000000027
11
308.906014999999968
21
68.7536569999999898
0
LINE
8
BLACK
6
CONTINUOUS
10
308.906014999999968
20
68.7536569999999898
11
308.7155389999999784
21
68.8488949999999988
0
LINE
8
BLACK
6
CONTINUOUS
10
308.7155389999999784
20
68.8488949999999988
11
308.3345860000000016
21
68.8488949999999988
0
LINE
8
BLACK
6
CONTINUOUS
10
308.3345860000000016
20
68.8488949999999988
11
308.144110000000012
21
68.7536569999999898
0
LINE
8
BLACK
6
CONTINUOUS
10
309.0012529999999629
20
67.6107999999999976
11
308.8107769999999732
21
67.5155609999999911
0
LINE
8
BLACK
6
CONTINUOUS
10
308.8107769999999732
20
67.5155609999999911
11
308.3345860000000016
21
67.5155609999999911
0
LINE
8
BLACK
6
CONTINUOUS
10
308.3345860000000016
20
67.5155609999999911
11
308.144110000000012
21
67.6107999999999976
0
LINE
8
BLACK
6
CONTINUOUS
10
308.144110000000012
20
67.6107999999999976
11
308.0488719999999603
21
67.8012760000000014
0
LINE
8
BLACK
6
CONTINUOUS
10
308.0488719999999603
20
67.8012760000000014
11
308.0488719999999603
21
67.9917519999999911
0
LINE
8
BLACK
6
CONTINUOUS
10
308.0488719999999603
20
67.9917519999999911
11
308.144110000000012
21
68.1822279999999949
0
LINE
8
BLACK
6
CONTINUOUS
10
308.144110000000012
20
68.1822279999999949
11
308.3345860000000016
21
68.277466000000004
0
LINE
8
BLACK
6
CONTINUOUS
10
308.3345860000000016
20
68.277466000000004
11
308.8107769999999732
21
68.277466000000004
0
LINE
8
BLACK
6
CONTINUOUS
10
308.8107769999999732
20
68.277466000000004
11
309.0012529999999629
21
68.3727039999999988
0
LINE
8
BLACK
6
CONTINUOUS
10
309.9536339999999655
20
68.8488949999999988
11
309.9536339999999655
21
67.5155609999999911
0
LINE
8
BLACK
6
CONTINUOUS
10
309.9536339999999655
20
68.658418999999995
11
310.0488719999999603
21
68.7536569999999898
0
LINE
8
BLACK
6
CONTINUOUS
10
310.0488719999999603
20
68.7536569999999898
11
310.2393480000000068
21
68.8488949999999988
0
LINE
8
BLACK
6
CONTINUOUS
10
310.2393480000000068
20
68.8488949999999988
11
310.5250629999999887
21
68.8488949999999988
0
LINE
8
BLACK
6
CONTINUOUS
10
310.5250629999999887
20
68.8488949999999988
11
310.7155389999999784
21
68.7536569999999898
0
LINE
8
BLACK
6
CONTINUOUS
10
310.7155389999999784
20
68.7536569999999898
11
310.8107769999999732
21
68.5631800000000027
0
LINE
8
BLACK
6
CONTINUOUS
10
310.8107769999999732
20
68.5631800000000027
11
310.8107769999999732
21
67.5155609999999911
0
LINE
8
BLACK
6
CONTINUOUS
10
312.5250629999999887
20
67.6107999999999976
11
312.3345869999999991
21
67.5155609999999911
0
LINE
8
BLACK
6
CONTINUOUS
10
312.3345869999999991
20
67.5155609999999911
11
311.9536339999999655
21
67.5155609999999911
0
LINE
8
BLACK
6
CONTINUOUS
10
311.9536339999999655
20
67.5155609999999911
11
311.7631579999999758
21
67.6107999999999976
0
LINE
8
BLACK
6
CONTINUOUS
10
311.7631579999999758
20
67.6107999999999976
11
311.667919999999981
21
67.8012760000000014
0
LINE
8
BLACK
6
CONTINUOUS
10
311.667919999999981
20
67.8012760000000014
11
311.667919999999981
21
68.5631800000000027
0
LINE
8
BLACK
6
CONTINUOUS
10
311.667919999999981
20
68.5631800000000027
11
311.7631579999999758
21
68.7536569999999898
0
LINE
8
BLACK
6
CONTINUOUS
10
311.7631579999999758
20
68.7536569999999898
11
311.9536339999999655
21
68.8488949999999988
0
LINE
8
BLACK
6
CONTINUOUS
10
311.9536339999999655
20
68.8488949999999988
11
312.3345869999999991
21
68.8488949999999988
0
LINE
8
BLACK
6
CONTINUOUS
10
312.3345869999999991
20
68.8488949999999988
11
312.5250629999999887
21
68.7536569999999898
0
LINE
8
BLACK
6
CONTINUOUS
10
312.5250629999999887
20
68.7536569999999898
11
312.6203009999999836
21
68.5631800000000027
0
LINE
8
BLACK
6
CONTINUOUS
10
312.6203009999999836
20
68.5631800000000027
11
312.6203009999999836
21
68.3727039999999988
0
LINE
8
BLACK
6
CONTINUOUS
10
312.6203009999999836
20
68.3727039999999988
11
311.667919999999981
21
68.1822279999999949
0
LINE
8
BLACK
6
CONTINUOUS
10
313.7631579999999758
20
67.5155609999999911
11
313.5726819999999861
21
67.6107999999999976
0
LINE
8
BLACK
6
CONTINUOUS
10
313.5726819999999861
20
67.6107999999999976
11
313.4774439999999913
21
67.8012760000000014
0
LINE
8
BLACK
6
CONTINUOUS
10
313.4774439999999913
20
67.8012760000000014
11
313.4774439999999913
21
69.5155609999999911
0
LINE
8
BLACK
6
CONTINUOUS
10
314.6203009999999836
20
67.6107999999999976
11
314.6203009999999836
21
67.5155609999999911
0
LINE
8
BLACK
6
CONTINUOUS
10
314.6203009999999836
20
67.5155609999999911
11
314.5250629999999887
21
67.3250850000000014
0
LINE
8
BLACK
6
CONTINUOUS
10
314.5250629999999887
20
67.3250850000000014
11
314.4298249999999939
21
67.2298469999999924
0
LINE
8
BLACK
6
CONTINUOUS
10
316.7155399999999759
20
68.8488949999999988
11
317.4774439999999913
21
68.8488949999999988
0
LINE
8
BLACK
6
CONTINUOUS
10
317.0012539999999603
20
69.5155609999999911
11
317.0012539999999603
21
67.8012760000000014
0
LINE
8
BLACK
6
CONTINUOUS
10
317.0012539999999603
20
67.8012760000000014
11
317.096492000000012
21
67.6107999999999976
0
LINE
8
BLACK
6
CONTINUOUS
10
317.096492000000012
20
67.6107999999999976
11
317.2869680000000017
21
67.5155609999999911
0
LINE
8
BLACK
6
CONTINUOUS
10
317.2869680000000017
20
67.5155609999999911
11
317.4774439999999913
21
67.5155609999999911
0
LINE
8
BLACK
6
CONTINUOUS
10
318.4298249999999939
20
67.5155609999999911
11
318.2393490000000043
21
67.6107999999999976
0
LINE
8
BLACK
6
CONTINUOUS
10
318.2393490000000043
20
67.6107999999999976
11
318.1441110000000094
21
67.7060379999999924
0
LINE
8
BLACK
6
CONTINUOUS
10
318.1441110000000094
20
67.7060379999999924
11
318.0488729999999578
21
67.8965139999999963
0
LINE
8
BLACK
6
CONTINUOUS
10
318.0488729999999578
20
67.8965139999999963
11
318.0488729999999578
21
68.4679419999999936
0
LINE
8
BLACK
6
CONTINUOUS
10
318.0488729999999578
20
68.4679419999999936
11
318.1441110000000094
21
68.658418999999995
0
LINE
8
BLACK
6
CONTINUOUS
10
318.1441110000000094
20
68.658418999999995
11
318.2393490000000043
21
68.7536569999999898
0
LINE
8
BLACK
6
CONTINUOUS
10
318.2393490000000043
20
68.7536569999999898
11
318.4298249999999939
21
68.8488949999999988
0
LINE
8
BLACK
6
CONTINUOUS
10
318.4298249999999939
20
68.8488949999999988
11
318.7155399999999759
21
68.8488949999999988
0
LINE
8
BLACK
6
CONTINUOUS
10
318.7155399999999759
20
68.8488949999999988
11
318.9060159999999655
21
68.7536569999999898
0
LINE
8
BLACK
6
CONTINUOUS
10
318.9060159999999655
20
68.7536569999999898
11
319.0012539999999603
21
68.658418999999995
0
LINE
8
BLACK
6
CONTINUOUS
10
319.0012539999999603
20
68.658418999999995
11
319.096492000000012
21
68.4679419999999936
0
LINE
8
BLACK
6
CONTINUOUS
10
319.096492000000012
20
68.4679419999999936
11
319.096492000000012
21
67.8965139999999963
0
LINE
8
BLACK
6
CONTINUOUS
10
319.096492000000012
20
67.8965139999999963
11
319.0012539999999603
21
67.7060379999999924
0
LINE
8
BLACK
6
CONTINUOUS
10
319.0012539999999603
20
67.7060379999999924
11
318.9060159999999655
21
67.6107999999999976
0
LINE
8
BLACK
6
CONTINUOUS
10
318.9060159999999655
20
67.6107999999999976
11
318.7155399999999759
21
67.5155609999999911
0
LINE
8
BLACK
6
CONTINUOUS
10
318.7155399999999759
20
67.5155609999999911
11
318.4298249999999939
21
67.5155609999999911
0
LINE
8
BLACK
6
CONTINUOUS
10
319.9536349999999629
20
68.8488949999999988
11
319.9536349999999629
21
66.8488949999999988
0
LINE
8
BLACK
6
CONTINUOUS
10
319.9536349999999629
20
68.7536569999999898
11
320.1441110000000094
21
68.8488949999999988
0
LINE
8
BLACK
6
CONTINUOUS
10
320.1441110000000094
20
68.8488949999999988
11
320.5250639999999862
21
68.8488949999999988
0
LINE
8
BLACK
6
CONTINUOUS
10
320.5250639999999862
20
68.8488949999999988
11
320.7155399999999759
21
68.7536569999999898
0
LINE
8
BLACK
6
CONTINUOUS
10
320.7155399999999759
20
68.7536569999999898
11
320.8107779999999707
21
68.658418999999995
0
LINE
8
BLACK
6
CONTINUOUS
10
320.8107779999999707
20
68.658418999999995
11
320.9060159999999655
21
68.4679419999999936
0
LINE
8
BLACK
6
CONTINUOUS
10
320.9060159999999655
20
68.4679419999999936
11
320.9060159999999655
21
67.8965139999999963
0
LINE
8
BLACK
6
CONTINUOUS
10
320.9060159999999655
20
67.8965139999999963
11
320.8107779999999707
21
67.7060379999999924
0
LINE
8
BLACK
6
CONTINUOUS
10
320.8107779999999707
20
67.7060379999999924
11
320.7155399999999759
21
67.6107999999999976
0
LINE
8
BLACK
6
CONTINUOUS
10
320.7155399999999759
20
67.6107999999999976
11
320.5250639999999862
21
67.5155609999999911
0
LINE
8
BLACK
6
CONTINUOUS
10
320.5250639999999862
20
67.5155609999999911
11
320.1441110000000094
21
67.5155609999999911
0
LINE
8
BLACK
6
CONTINUOUS
10
320.1441110000000094
20
67.5155609999999911
11
319.9536349999999629
21
67.6107999999999976
0
LINE
8
BLACK
6
CONTINUOUS
10
323.0964930000000095
20
68.8488949999999988
11
323.5726829999999836
21
67.5155609999999911
0
LINE
8
BLACK
6
CONTINUOUS
10
323.5726829999999836
20
67.5155609999999911
11
324.0488740000000121
21
68.8488949999999988
0
LINE
8
BLACK
6
CONTINUOUS
10
324.8107789999999682
20
67.5155609999999911
11
324.8107789999999682
21
68.8488949999999988
0
LINE
8
BLACK
6
CONTINUOUS
10
324.8107789999999682
20
69.5155609999999911
11
324.7155409999999733
21
69.4203229999999962
0
LINE
8
BLACK
6
CONTINUOUS
10
324.7155409999999733
20
69.4203229999999962
11
324.8107789999999682
21
69.3250850000000014
0
LINE
8
BLACK
6
CONTINUOUS
10
324.8107789999999682
20
69.3250850000000014
11
324.906016999999963
21
69.4203229999999962
0
LINE
8
BLACK
6
CONTINUOUS
10
324.906016999999963
20
69.4203229999999962
11
324.8107789999999682
21
69.5155609999999911
0
LINE
8
BLACK
6
CONTINUOUS
10
324.8107789999999682
20
69.5155609999999911
11
324.8107789999999682
21
69.3250850000000014
0
LINE
8
BLACK
6
CONTINUOUS
10
326.5250649999999837
20
67.6107999999999976
11
326.334588999999994
21
67.5155609999999911
0
LINE
8
BLACK
6
CONTINUOUS
10
326.334588999999994
20
67.5155609999999911
11
325.9536359999999604
21
67.5155609999999911
0
LINE
8
BLACK
6
CONTINUOUS
10
325.9536359999999604
20
67.5155609999999911
11
325.7631599999999708
21
67.6107999999999976
0
LINE
8
BLACK
6
CONTINUOUS
10
325.7631599999999708
20
67.6107999999999976
11
325.6679219999999759
21
67.8012760000000014
0
LINE
8
BLACK
6
CONTINUOUS
10
325.6679219999999759
20
67.8012760000000014
11
325.6679219999999759
21
68.5631800000000027
0
LINE
8
BLACK
6
CONTINUOUS
10
325.6679219999999759
20
68.5631800000000027
11
325.7631599999999708
21
68.7536569999999898
0
LINE
8
BLACK
6
CONTINUOUS
10
325.7631599999999708
20
68.7536569999999898
11
325.9536359999999604
21
68.8488949999999988
0
LINE
8
BLACK
6
CONTINUOUS
10
325.9536359999999604
20
68.8488949999999988
11
326.334588999999994
21
68.8488949999999988
0
LINE
8
BLACK
6
CONTINUOUS
10
326.334588999999994
20
68.8488949999999988
11
326.5250649999999837
21
68.7536569999999898
0
LINE
8
BLACK
6
CONTINUOUS
10
326.5250649999999837
20
68.7536569999999898
11
326.6203029999999785
21
68.5631800000000027
0
LINE
8
BLACK
6
CONTINUOUS
10
326.6203029999999785
20
68.5631800000000027
11
326.6203029999999785
21
68.3727039999999988
0
LINE
8
BLACK
6
CONTINUOUS
10
326.6203029999999785
20
68.3727039999999988
11
325.6679219999999759
21
68.1822279999999949
0
LINE
8
BLACK
6
CONTINUOUS
10
327.2869699999999966
20
68.8488949999999988
11
327.6679219999999759
21
67.5155609999999911
0
LINE
8
BLACK
6
CONTINUOUS
10
327.6679219999999759
20
67.5155609999999911
11
328.0488750000000095
21
68.4679419999999936
0
LINE
8
BLACK
6
CONTINUOUS
10
328.0488750000000095
20
68.4679419999999936
11
328.4298269999999889
21
67.5155609999999911
0
LINE
8
BLACK
6
CONTINUOUS
10
328.4298269999999889
20
67.5155609999999911
11
328.8107789999999682
21
68.8488949999999988
  0
ENDSEC
  0
EOF
