%TF.GenerationSoftware,KiCad,Pcbnew,9.0.7-9.0.7~ubuntu24.04.1*%
%TF.CreationDate,2026-01-29T16:37:05+01:00*%
%TF.ProjectId,Bare front mask full width,42617265-2066-4726-9f6e-74206d61736b,r1B1*%
%TF.SameCoordinates,Original*%
%TF.FileFunction,Copper,L2,Bot*%
%TF.FilePolarity,Positive*%
%FSLAX46Y46*%
G04 Gerber Fmt 4.6, Leading zero omitted, Abs format (unit mm)*
G04 Created by KiCad (PCBNEW 9.0.7-9.0.7~ubuntu24.04.1) date 2026-01-29 16:37:05*
%MOMM*%
%LPD*%
G01*
G04 APERTURE LIST*
%TA.AperFunction,ComponentPad*%
%ADD10C,0.800000*%
%TD*%
%TA.AperFunction,ComponentPad*%
%ADD11C,4.400000*%
%TD*%
G04 APERTURE END LIST*
D10*
%TO.P,REF\u002A\u002A,*%
%TO.N,*%
X147325000Y-146750000D03*
X147855000Y-145480000D03*
X147855000Y-148020000D03*
X149125000Y-144950000D03*
D11*
X149125000Y-146750000D03*
D10*
X149125000Y-148550000D03*
X150395000Y-145480000D03*
X150395000Y-148020000D03*
X150925000Y-146750000D03*
%TD*%
%TO.P,REF\u002A\u002A,*%
%TO.N,*%
X165075000Y-146750000D03*
X165605000Y-145480000D03*
X165605000Y-148020000D03*
X166875000Y-144950000D03*
D11*
X166875000Y-146750000D03*
D10*
X166875000Y-148550000D03*
X168145000Y-145480000D03*
X168145000Y-148020000D03*
X168675000Y-146750000D03*
%TD*%
%TO.P,REF\u002A\u002A,*%
%TO.N,*%
X147325000Y-41750000D03*
X147855000Y-40480000D03*
X147855000Y-43020000D03*
X149125000Y-39950000D03*
D11*
X149125000Y-41750000D03*
D10*
X149125000Y-43550000D03*
X150395000Y-40480000D03*
X150395000Y-43020000D03*
X150925000Y-41750000D03*
%TD*%
%TO.P,REF\u002A\u002A,*%
%TO.N,*%
X156200000Y-146750000D03*
X156730000Y-145480000D03*
X156730000Y-148020000D03*
X158000000Y-144950000D03*
D11*
X158000000Y-146750000D03*
D10*
X158000000Y-148550000D03*
X159270000Y-145480000D03*
X159270000Y-148020000D03*
X159800000Y-146750000D03*
%TD*%
%TO.P,REF\u002A\u002A,*%
%TO.N,*%
X156200000Y-41750000D03*
X156730000Y-40480000D03*
X156730000Y-43020000D03*
X158000000Y-39950000D03*
D11*
X158000000Y-41750000D03*
D10*
X158000000Y-43550000D03*
X159270000Y-40480000D03*
X159270000Y-43020000D03*
X159800000Y-41750000D03*
%TD*%
%TO.P,REF\u002A\u002A,*%
%TO.N,*%
X165075000Y-41750000D03*
X165605000Y-40480000D03*
X165605000Y-43020000D03*
X166875000Y-39950000D03*
D11*
X166875000Y-41750000D03*
D10*
X166875000Y-43550000D03*
X168145000Y-40480000D03*
X168145000Y-43020000D03*
X168675000Y-41750000D03*
%TD*%
%TA.AperFunction,NonConductor*%
G36*
X175242539Y-38720185D02*
G01*
X175288294Y-38772989D01*
X175299500Y-38824500D01*
X175299500Y-149675500D01*
X175279815Y-149742539D01*
X175227011Y-149788294D01*
X175175500Y-149799500D01*
X140824500Y-149799500D01*
X140757461Y-149779815D01*
X140711706Y-149727011D01*
X140700500Y-149675500D01*
X140700500Y-146615186D01*
X146724500Y-146615186D01*
X146724500Y-146884813D01*
X146754686Y-147152719D01*
X146754688Y-147152731D01*
X146814684Y-147415594D01*
X146814687Y-147415602D01*
X146903734Y-147670082D01*
X147020714Y-147912994D01*
X147020716Y-147912997D01*
X147164162Y-148141289D01*
X147332266Y-148352085D01*
X147522915Y-148542734D01*
X147733711Y-148710838D01*
X147962003Y-148854284D01*
X148204921Y-148971267D01*
X148396049Y-149038145D01*
X148459397Y-149060312D01*
X148459405Y-149060315D01*
X148459408Y-149060315D01*
X148459409Y-149060316D01*
X148722268Y-149120312D01*
X148990187Y-149150499D01*
X148990188Y-149150500D01*
X148990191Y-149150500D01*
X149259812Y-149150500D01*
X149259812Y-149150499D01*
X149527732Y-149120312D01*
X149790591Y-149060316D01*
X150045079Y-148971267D01*
X150287997Y-148854284D01*
X150516289Y-148710838D01*
X150727085Y-148542734D01*
X150917734Y-148352085D01*
X151085838Y-148141289D01*
X151229284Y-147912997D01*
X151346267Y-147670079D01*
X151435316Y-147415591D01*
X151495312Y-147152732D01*
X151525500Y-146884809D01*
X151525500Y-146615191D01*
X151525499Y-146615186D01*
X155599500Y-146615186D01*
X155599500Y-146884813D01*
X155629686Y-147152719D01*
X155629688Y-147152731D01*
X155689684Y-147415594D01*
X155689687Y-147415602D01*
X155778734Y-147670082D01*
X155895714Y-147912994D01*
X155895716Y-147912997D01*
X156039162Y-148141289D01*
X156207266Y-148352085D01*
X156397915Y-148542734D01*
X156608711Y-148710838D01*
X156837003Y-148854284D01*
X157079921Y-148971267D01*
X157271049Y-149038145D01*
X157334397Y-149060312D01*
X157334405Y-149060315D01*
X157334408Y-149060315D01*
X157334409Y-149060316D01*
X157597268Y-149120312D01*
X157865187Y-149150499D01*
X157865188Y-149150500D01*
X157865191Y-149150500D01*
X158134812Y-149150500D01*
X158134812Y-149150499D01*
X158402732Y-149120312D01*
X158665591Y-149060316D01*
X158920079Y-148971267D01*
X159162997Y-148854284D01*
X159391289Y-148710838D01*
X159602085Y-148542734D01*
X159792734Y-148352085D01*
X159960838Y-148141289D01*
X160104284Y-147912997D01*
X160221267Y-147670079D01*
X160310316Y-147415591D01*
X160370312Y-147152732D01*
X160400500Y-146884809D01*
X160400500Y-146615191D01*
X160400499Y-146615186D01*
X164474500Y-146615186D01*
X164474500Y-146884813D01*
X164504686Y-147152719D01*
X164504688Y-147152731D01*
X164564684Y-147415594D01*
X164564687Y-147415602D01*
X164653734Y-147670082D01*
X164770714Y-147912994D01*
X164770716Y-147912997D01*
X164914162Y-148141289D01*
X165082266Y-148352085D01*
X165272915Y-148542734D01*
X165483711Y-148710838D01*
X165712003Y-148854284D01*
X165954921Y-148971267D01*
X166146049Y-149038145D01*
X166209397Y-149060312D01*
X166209405Y-149060315D01*
X166209408Y-149060315D01*
X166209409Y-149060316D01*
X166472268Y-149120312D01*
X166740187Y-149150499D01*
X166740188Y-149150500D01*
X166740191Y-149150500D01*
X167009812Y-149150500D01*
X167009812Y-149150499D01*
X167277732Y-149120312D01*
X167540591Y-149060316D01*
X167795079Y-148971267D01*
X168037997Y-148854284D01*
X168266289Y-148710838D01*
X168477085Y-148542734D01*
X168667734Y-148352085D01*
X168835838Y-148141289D01*
X168979284Y-147912997D01*
X169096267Y-147670079D01*
X169185316Y-147415591D01*
X169245312Y-147152732D01*
X169275500Y-146884809D01*
X169275500Y-146615191D01*
X169245312Y-146347268D01*
X169185316Y-146084409D01*
X169096267Y-145829921D01*
X168979284Y-145587003D01*
X168835838Y-145358711D01*
X168667734Y-145147915D01*
X168477085Y-144957266D01*
X168266289Y-144789162D01*
X168037997Y-144645716D01*
X168037994Y-144645714D01*
X167795082Y-144528734D01*
X167540602Y-144439687D01*
X167540594Y-144439684D01*
X167343446Y-144394687D01*
X167277732Y-144379688D01*
X167277728Y-144379687D01*
X167277719Y-144379686D01*
X167009813Y-144349500D01*
X167009809Y-144349500D01*
X166740191Y-144349500D01*
X166740186Y-144349500D01*
X166472280Y-144379686D01*
X166472268Y-144379688D01*
X166209405Y-144439684D01*
X166209397Y-144439687D01*
X165954917Y-144528734D01*
X165712005Y-144645714D01*
X165483712Y-144789161D01*
X165272915Y-144957265D01*
X165082265Y-145147915D01*
X164914161Y-145358712D01*
X164770714Y-145587005D01*
X164653734Y-145829917D01*
X164564687Y-146084397D01*
X164564684Y-146084405D01*
X164504688Y-146347268D01*
X164504686Y-146347280D01*
X164474500Y-146615186D01*
X160400499Y-146615186D01*
X160370312Y-146347268D01*
X160310316Y-146084409D01*
X160221267Y-145829921D01*
X160104284Y-145587003D01*
X159960838Y-145358711D01*
X159792734Y-145147915D01*
X159602085Y-144957266D01*
X159391289Y-144789162D01*
X159162997Y-144645716D01*
X159162994Y-144645714D01*
X158920082Y-144528734D01*
X158665602Y-144439687D01*
X158665594Y-144439684D01*
X158468446Y-144394687D01*
X158402732Y-144379688D01*
X158402728Y-144379687D01*
X158402719Y-144379686D01*
X158134813Y-144349500D01*
X158134809Y-144349500D01*
X157865191Y-144349500D01*
X157865186Y-144349500D01*
X157597280Y-144379686D01*
X157597268Y-144379688D01*
X157334405Y-144439684D01*
X157334397Y-144439687D01*
X157079917Y-144528734D01*
X156837005Y-144645714D01*
X156608712Y-144789161D01*
X156397915Y-144957265D01*
X156207265Y-145147915D01*
X156039161Y-145358712D01*
X155895714Y-145587005D01*
X155778734Y-145829917D01*
X155689687Y-146084397D01*
X155689684Y-146084405D01*
X155629688Y-146347268D01*
X155629686Y-146347280D01*
X155599500Y-146615186D01*
X151525499Y-146615186D01*
X151495312Y-146347268D01*
X151435316Y-146084409D01*
X151346267Y-145829921D01*
X151229284Y-145587003D01*
X151085838Y-145358711D01*
X150917734Y-145147915D01*
X150727085Y-144957266D01*
X150516289Y-144789162D01*
X150287997Y-144645716D01*
X150287994Y-144645714D01*
X150045082Y-144528734D01*
X149790602Y-144439687D01*
X149790594Y-144439684D01*
X149593446Y-144394687D01*
X149527732Y-144379688D01*
X149527728Y-144379687D01*
X149527719Y-144379686D01*
X149259813Y-144349500D01*
X149259809Y-144349500D01*
X148990191Y-144349500D01*
X148990186Y-144349500D01*
X148722280Y-144379686D01*
X148722268Y-144379688D01*
X148459405Y-144439684D01*
X148459397Y-144439687D01*
X148204917Y-144528734D01*
X147962005Y-144645714D01*
X147733712Y-144789161D01*
X147522915Y-144957265D01*
X147332265Y-145147915D01*
X147164161Y-145358712D01*
X147020714Y-145587005D01*
X146903734Y-145829917D01*
X146814687Y-146084397D01*
X146814684Y-146084405D01*
X146754688Y-146347268D01*
X146754686Y-146347280D01*
X146724500Y-146615186D01*
X140700500Y-146615186D01*
X140700500Y-41615186D01*
X146724500Y-41615186D01*
X146724500Y-41884813D01*
X146754686Y-42152719D01*
X146754688Y-42152731D01*
X146814684Y-42415594D01*
X146814687Y-42415602D01*
X146903734Y-42670082D01*
X147020714Y-42912994D01*
X147020716Y-42912997D01*
X147164162Y-43141289D01*
X147332266Y-43352085D01*
X147522915Y-43542734D01*
X147733711Y-43710838D01*
X147962003Y-43854284D01*
X148204921Y-43971267D01*
X148396049Y-44038145D01*
X148459397Y-44060312D01*
X148459405Y-44060315D01*
X148459408Y-44060315D01*
X148459409Y-44060316D01*
X148722268Y-44120312D01*
X148990187Y-44150499D01*
X148990188Y-44150500D01*
X148990191Y-44150500D01*
X149259812Y-44150500D01*
X149259812Y-44150499D01*
X149527732Y-44120312D01*
X149790591Y-44060316D01*
X150045079Y-43971267D01*
X150287997Y-43854284D01*
X150516289Y-43710838D01*
X150727085Y-43542734D01*
X150917734Y-43352085D01*
X151085838Y-43141289D01*
X151229284Y-42912997D01*
X151346267Y-42670079D01*
X151435316Y-42415591D01*
X151495312Y-42152732D01*
X151525500Y-41884809D01*
X151525500Y-41615191D01*
X151525499Y-41615186D01*
X155599500Y-41615186D01*
X155599500Y-41884813D01*
X155629686Y-42152719D01*
X155629688Y-42152731D01*
X155689684Y-42415594D01*
X155689687Y-42415602D01*
X155778734Y-42670082D01*
X155895714Y-42912994D01*
X155895716Y-42912997D01*
X156039162Y-43141289D01*
X156207266Y-43352085D01*
X156397915Y-43542734D01*
X156608711Y-43710838D01*
X156837003Y-43854284D01*
X157079921Y-43971267D01*
X157271049Y-44038145D01*
X157334397Y-44060312D01*
X157334405Y-44060315D01*
X157334408Y-44060315D01*
X157334409Y-44060316D01*
X157597268Y-44120312D01*
X157865187Y-44150499D01*
X157865188Y-44150500D01*
X157865191Y-44150500D01*
X158134812Y-44150500D01*
X158134812Y-44150499D01*
X158402732Y-44120312D01*
X158665591Y-44060316D01*
X158920079Y-43971267D01*
X159162997Y-43854284D01*
X159391289Y-43710838D01*
X159602085Y-43542734D01*
X159792734Y-43352085D01*
X159960838Y-43141289D01*
X160104284Y-42912997D01*
X160221267Y-42670079D01*
X160310316Y-42415591D01*
X160370312Y-42152732D01*
X160400500Y-41884809D01*
X160400500Y-41615191D01*
X160400499Y-41615186D01*
X164474500Y-41615186D01*
X164474500Y-41884813D01*
X164504686Y-42152719D01*
X164504688Y-42152731D01*
X164564684Y-42415594D01*
X164564687Y-42415602D01*
X164653734Y-42670082D01*
X164770714Y-42912994D01*
X164770716Y-42912997D01*
X164914162Y-43141289D01*
X165082266Y-43352085D01*
X165272915Y-43542734D01*
X165483711Y-43710838D01*
X165712003Y-43854284D01*
X165954921Y-43971267D01*
X166146049Y-44038145D01*
X166209397Y-44060312D01*
X166209405Y-44060315D01*
X166209408Y-44060315D01*
X166209409Y-44060316D01*
X166472268Y-44120312D01*
X166740187Y-44150499D01*
X166740188Y-44150500D01*
X166740191Y-44150500D01*
X167009812Y-44150500D01*
X167009812Y-44150499D01*
X167277732Y-44120312D01*
X167540591Y-44060316D01*
X167795079Y-43971267D01*
X168037997Y-43854284D01*
X168266289Y-43710838D01*
X168477085Y-43542734D01*
X168667734Y-43352085D01*
X168835838Y-43141289D01*
X168979284Y-42912997D01*
X169096267Y-42670079D01*
X169185316Y-42415591D01*
X169245312Y-42152732D01*
X169275500Y-41884809D01*
X169275500Y-41615191D01*
X169245312Y-41347268D01*
X169185316Y-41084409D01*
X169096267Y-40829921D01*
X168979284Y-40587003D01*
X168835838Y-40358711D01*
X168667734Y-40147915D01*
X168477085Y-39957266D01*
X168266289Y-39789162D01*
X168037997Y-39645716D01*
X168037994Y-39645714D01*
X167795082Y-39528734D01*
X167540602Y-39439687D01*
X167540594Y-39439684D01*
X167343446Y-39394687D01*
X167277732Y-39379688D01*
X167277728Y-39379687D01*
X167277719Y-39379686D01*
X167009813Y-39349500D01*
X167009809Y-39349500D01*
X166740191Y-39349500D01*
X166740186Y-39349500D01*
X166472280Y-39379686D01*
X166472268Y-39379688D01*
X166209405Y-39439684D01*
X166209397Y-39439687D01*
X165954917Y-39528734D01*
X165712005Y-39645714D01*
X165483712Y-39789161D01*
X165272915Y-39957265D01*
X165082265Y-40147915D01*
X164914161Y-40358712D01*
X164770714Y-40587005D01*
X164653734Y-40829917D01*
X164564687Y-41084397D01*
X164564684Y-41084405D01*
X164504688Y-41347268D01*
X164504686Y-41347280D01*
X164474500Y-41615186D01*
X160400499Y-41615186D01*
X160370312Y-41347268D01*
X160310316Y-41084409D01*
X160221267Y-40829921D01*
X160104284Y-40587003D01*
X159960838Y-40358711D01*
X159792734Y-40147915D01*
X159602085Y-39957266D01*
X159391289Y-39789162D01*
X159162997Y-39645716D01*
X159162994Y-39645714D01*
X158920082Y-39528734D01*
X158665602Y-39439687D01*
X158665594Y-39439684D01*
X158468446Y-39394687D01*
X158402732Y-39379688D01*
X158402728Y-39379687D01*
X158402719Y-39379686D01*
X158134813Y-39349500D01*
X158134809Y-39349500D01*
X157865191Y-39349500D01*
X157865186Y-39349500D01*
X157597280Y-39379686D01*
X157597268Y-39379688D01*
X157334405Y-39439684D01*
X157334397Y-39439687D01*
X157079917Y-39528734D01*
X156837005Y-39645714D01*
X156608712Y-39789161D01*
X156397915Y-39957265D01*
X156207265Y-40147915D01*
X156039161Y-40358712D01*
X155895714Y-40587005D01*
X155778734Y-40829917D01*
X155689687Y-41084397D01*
X155689684Y-41084405D01*
X155629688Y-41347268D01*
X155629686Y-41347280D01*
X155599500Y-41615186D01*
X151525499Y-41615186D01*
X151495312Y-41347268D01*
X151435316Y-41084409D01*
X151346267Y-40829921D01*
X151229284Y-40587003D01*
X151085838Y-40358711D01*
X150917734Y-40147915D01*
X150727085Y-39957266D01*
X150516289Y-39789162D01*
X150287997Y-39645716D01*
X150287994Y-39645714D01*
X150045082Y-39528734D01*
X149790602Y-39439687D01*
X149790594Y-39439684D01*
X149593446Y-39394687D01*
X149527732Y-39379688D01*
X149527728Y-39379687D01*
X149527719Y-39379686D01*
X149259813Y-39349500D01*
X149259809Y-39349500D01*
X148990191Y-39349500D01*
X148990186Y-39349500D01*
X148722280Y-39379686D01*
X148722268Y-39379688D01*
X148459405Y-39439684D01*
X148459397Y-39439687D01*
X148204917Y-39528734D01*
X147962005Y-39645714D01*
X147733712Y-39789161D01*
X147522915Y-39957265D01*
X147332265Y-40147915D01*
X147164161Y-40358712D01*
X147020714Y-40587005D01*
X146903734Y-40829917D01*
X146814687Y-41084397D01*
X146814684Y-41084405D01*
X146754688Y-41347268D01*
X146754686Y-41347280D01*
X146724500Y-41615186D01*
X140700500Y-41615186D01*
X140700500Y-38824500D01*
X140720185Y-38757461D01*
X140772989Y-38711706D01*
X140824500Y-38700500D01*
X175175500Y-38700500D01*
X175242539Y-38720185D01*
G37*
%TD.AperFunction*%
M02*
