%TF.GenerationSoftware,KiCad,Pcbnew,9.0.7-9.0.7~ubuntu24.04.1*%
%TF.CreationDate,2026-01-29T16:37:05+01:00*%
%TF.ProjectId,Bare front mask full width,42617265-2066-4726-9f6e-74206d61736b,r1B1*%
%TF.SameCoordinates,Original*%
%TF.FileFunction,Soldermask,Top*%
%TF.FilePolarity,Negative*%
%FSLAX46Y46*%
G04 Gerber Fmt 4.6, Leading zero omitted, Abs format (unit mm)*
G04 Created by KiCad (PCBNEW 9.0.7-9.0.7~ubuntu24.04.1) date 2026-01-29 16:37:05*
%MOMM*%
%LPD*%
G01*
G04 APERTURE LIST*
%ADD10C,0.100000*%
%ADD11C,0.800000*%
%ADD12C,4.400000*%
G04 APERTURE END LIST*
D10*
X140500000Y-38500000D02*
X175400000Y-38500000D01*
X175400000Y-44000000D01*
X140500000Y-44000000D01*
X140500000Y-38500000D01*
G36*
X140500000Y-38500000D02*
G01*
X175400000Y-38500000D01*
X175400000Y-44000000D01*
X140500000Y-44000000D01*
X140500000Y-38500000D01*
G37*
X140400000Y-144600000D02*
X175500000Y-144600000D01*
X175500000Y-150100000D01*
X140400000Y-150100000D01*
X140400000Y-144600000D01*
G36*
X140400000Y-144600000D02*
G01*
X175500000Y-144600000D01*
X175500000Y-150100000D01*
X140400000Y-150100000D01*
X140400000Y-144600000D01*
G37*
D11*
%TO.C,REF\u002A\u002A*%
X147325000Y-146750000D03*
X147855000Y-145480000D03*
X147855000Y-148020000D03*
X149125000Y-144950000D03*
D12*
X149125000Y-146750000D03*
D11*
X149125000Y-148550000D03*
X150395000Y-145480000D03*
X150395000Y-148020000D03*
X150925000Y-146750000D03*
%TD*%
%TO.C,REF\u002A\u002A*%
X165075000Y-146750000D03*
X165605000Y-145480000D03*
X165605000Y-148020000D03*
X166875000Y-144950000D03*
D12*
X166875000Y-146750000D03*
D11*
X166875000Y-148550000D03*
X168145000Y-145480000D03*
X168145000Y-148020000D03*
X168675000Y-146750000D03*
%TD*%
%TO.C,REF\u002A\u002A*%
X147325000Y-41750000D03*
X147855000Y-40480000D03*
X147855000Y-43020000D03*
X149125000Y-39950000D03*
D12*
X149125000Y-41750000D03*
D11*
X149125000Y-43550000D03*
X150395000Y-40480000D03*
X150395000Y-43020000D03*
X150925000Y-41750000D03*
%TD*%
%TO.C,REF\u002A\u002A*%
X156200000Y-146750000D03*
X156730000Y-145480000D03*
X156730000Y-148020000D03*
X158000000Y-144950000D03*
D12*
X158000000Y-146750000D03*
D11*
X158000000Y-148550000D03*
X159270000Y-145480000D03*
X159270000Y-148020000D03*
X159800000Y-146750000D03*
%TD*%
%TO.C,REF\u002A\u002A*%
X156200000Y-41750000D03*
X156730000Y-40480000D03*
X156730000Y-43020000D03*
X158000000Y-39950000D03*
D12*
X158000000Y-41750000D03*
D11*
X158000000Y-43550000D03*
X159270000Y-40480000D03*
X159270000Y-43020000D03*
X159800000Y-41750000D03*
%TD*%
%TO.C,REF\u002A\u002A*%
X165075000Y-41750000D03*
X165605000Y-40480000D03*
X165605000Y-43020000D03*
X166875000Y-39950000D03*
D12*
X166875000Y-41750000D03*
D11*
X166875000Y-43550000D03*
X168145000Y-40480000D03*
X168145000Y-43020000D03*
X168675000Y-41750000D03*
%TD*%
M02*
