%TF.GenerationSoftware,KiCad,Pcbnew,9.0.6-9.0.6~ubuntu24.04.1*%
%TF.CreationDate,2025-11-27T18:29:40+01:00*%
%TF.ProjectId,BB3plus DSI TFT display,42423370-6c75-4732-9044-534920544654,r1B2*%
%TF.SameCoordinates,Original*%
%TF.FileFunction,Paste,Bot*%
%TF.FilePolarity,Positive*%
%FSLAX46Y46*%
G04 Gerber Fmt 4.6, Leading zero omitted, Abs format (unit mm)*
G04 Created by KiCad (PCBNEW 9.0.6-9.0.6~ubuntu24.04.1) date 2025-11-27 18:29:40*
%MOMM*%
%LPD*%
G01*
G04 APERTURE LIST*
G04 Aperture macros list*
%AMRoundRect*
0 Rectangle with rounded corners*
0 $1 Rounding radius*
0 $2 $3 $4 $5 $6 $7 $8 $9 X,Y pos of 4 corners*
0 Add a 4 corners polygon primitive as box body*
4,1,4,$2,$3,$4,$5,$6,$7,$8,$9,$2,$3,0*
0 Add four circle primitives for the rounded corners*
1,1,$1+$1,$2,$3*
1,1,$1+$1,$4,$5*
1,1,$1+$1,$6,$7*
1,1,$1+$1,$8,$9*
0 Add four rect primitives between the rounded corners*
20,1,$1+$1,$2,$3,$4,$5,0*
20,1,$1+$1,$4,$5,$6,$7,0*
20,1,$1+$1,$6,$7,$8,$9,0*
20,1,$1+$1,$8,$9,$2,$3,0*%
G04 Aperture macros list end*
%ADD10R,2.400000X1.025000*%
%ADD11R,0.400000X0.500000*%
%ADD12RoundRect,0.200000X0.225000X-0.200000X0.225000X0.200000X-0.225000X0.200000X-0.225000X-0.200000X0*%
%ADD13RoundRect,0.200000X-0.200000X-0.225000X0.200000X-0.225000X0.200000X0.225000X-0.200000X0.225000X0*%
%ADD14RoundRect,0.225609X-0.236891X-0.424391X0.236891X-0.424391X0.236891X0.424391X-0.236891X0.424391X0*%
%ADD15RoundRect,0.045720X0.404280X0.454280X-0.404280X0.454280X-0.404280X-0.454280X0.404280X-0.454280X0*%
%ADD16RoundRect,0.200000X0.200000X0.225000X-0.200000X0.225000X-0.200000X-0.225000X0.200000X-0.225000X0*%
%ADD17RoundRect,0.225000X-0.225000X-0.450000X0.225000X-0.450000X0.225000X0.450000X-0.225000X0.450000X0*%
%ADD18RoundRect,0.046356X0.475144X-0.856144X0.475144X0.856144X-0.475144X0.856144X-0.475144X-0.856144X0*%
%ADD19RoundRect,0.049200X2.440800X-1.488300X2.440800X1.488300X-2.440800X1.488300X-2.440800X-1.488300X0*%
%ADD20R,0.992200X0.662000*%
%ADD21R,0.662000X0.992200*%
%ADD22RoundRect,0.055880X0.769120X2.144120X-0.769120X2.144120X-0.769120X-2.144120X0.769120X-2.144120X0*%
%ADD23RoundRect,0.055880X-0.769120X2.144120X-0.769120X-2.144120X0.769120X-2.144120X0.769120X2.144120X0*%
%ADD24R,0.200000X0.700000*%
%ADD25R,0.700000X1.200000*%
%ADD26RoundRect,0.225000X0.225000X0.450000X-0.225000X0.450000X-0.225000X-0.450000X0.225000X-0.450000X0*%
%ADD27R,0.200000X0.900000*%
%ADD28R,1.900000X1.200000*%
%ADD29RoundRect,0.038100X-0.111900X-0.336900X0.111900X-0.336900X0.111900X0.336900X-0.111900X0.336900X0*%
%ADD30RoundRect,0.045720X-0.404280X-0.454280X0.404280X-0.454280X0.404280X0.454280X-0.404280X0.454280X0*%
%ADD31R,0.150000X1.200000*%
%ADD32R,1.630000X2.700000*%
%ADD33RoundRect,0.036286X-0.088714X0.713714X-0.088714X-0.713714X0.088714X-0.713714X0.088714X0.713714X0*%
G04 APERTURE END LIST*
D10*
X90750000Y-112737500D03*
D11*
X89750000Y-113600000D03*
X91750000Y-113600000D03*
X89750000Y-127000000D03*
X91750000Y-127000000D03*
D10*
X90750000Y-127862500D03*
X95750000Y-112737500D03*
D11*
X94750000Y-113600000D03*
X96750000Y-113600000D03*
X94750000Y-127000000D03*
X96750000Y-127000000D03*
D10*
X95750000Y-127862500D03*
X90750000Y-94737500D03*
D11*
X89750000Y-95600000D03*
X91750000Y-95600000D03*
X89750000Y-109000000D03*
X91750000Y-109000000D03*
D10*
X90750000Y-109862500D03*
X95750000Y-94737500D03*
D11*
X94750000Y-95600000D03*
X96750000Y-95600000D03*
X94750000Y-109000000D03*
X96750000Y-109000000D03*
D10*
X95750000Y-109862500D03*
X90750000Y-76737500D03*
D11*
X89750000Y-77600000D03*
X91750000Y-77600000D03*
X89750000Y-91000000D03*
X91750000Y-91000000D03*
D10*
X90750000Y-91862500D03*
X95750000Y-76737500D03*
D11*
X94750000Y-77600000D03*
X96750000Y-77600000D03*
X94750000Y-91000000D03*
X96750000Y-91000000D03*
D10*
X95750000Y-91862500D03*
X90750000Y-58737500D03*
D11*
X89750000Y-59600000D03*
X91750000Y-59600000D03*
X89750000Y-73000000D03*
X91750000Y-73000000D03*
D10*
X90750000Y-73862500D03*
X95750000Y-58737500D03*
D11*
X94750000Y-59600000D03*
X96750000Y-59600000D03*
X94750000Y-73000000D03*
X96750000Y-73000000D03*
D10*
X95750000Y-73862500D03*
D12*
X145760000Y-82860000D03*
X145760000Y-84410000D03*
D13*
X190785000Y-100220000D03*
X189235000Y-100220000D03*
D14*
X139412500Y-76170000D03*
X137587500Y-76170000D03*
X139412500Y-78080000D03*
X137587500Y-78080000D03*
D15*
X146861100Y-69833900D03*
X145161100Y-69833900D03*
D12*
X98450000Y-76360000D03*
X98450000Y-74810000D03*
D16*
X138240000Y-68170000D03*
X139790000Y-68170000D03*
X141340000Y-68170000D03*
D17*
X107080000Y-103810000D03*
X108980000Y-103810000D03*
D18*
X108431400Y-101705800D03*
X106120000Y-101705800D03*
X103808600Y-101705800D03*
D19*
X106120000Y-95940000D03*
D20*
X139980000Y-81180000D03*
X142697800Y-81180000D03*
D21*
X141193050Y-75773050D03*
X141193050Y-78490850D03*
D12*
X147220000Y-84410000D03*
X147220000Y-82860000D03*
D22*
X143278800Y-76075524D03*
D23*
X146528800Y-76075524D03*
D16*
X152555000Y-66630000D03*
X151005000Y-66630000D03*
D24*
X189250000Y-101780000D03*
X188750000Y-101780000D03*
X188250000Y-101780000D03*
X187750000Y-101780000D03*
X187250000Y-101780000D03*
X186750000Y-101780000D03*
X186250000Y-101780000D03*
X185750000Y-101780000D03*
X185250000Y-101780000D03*
X184750000Y-101780000D03*
D25*
X190450000Y-104430000D03*
X183550000Y-104430000D03*
D12*
X98450000Y-112830000D03*
X98450000Y-111280000D03*
D13*
X142688050Y-79341950D03*
X144238050Y-79341950D03*
D26*
X146746100Y-72283900D03*
X144846100Y-72283900D03*
D17*
X116490000Y-117870000D03*
X118390000Y-117870000D03*
D13*
X151210000Y-59000000D03*
X152760000Y-59000000D03*
X154310000Y-59000000D03*
D12*
X98450000Y-94825000D03*
X98450000Y-93275000D03*
D27*
X115879990Y-119600001D03*
X115379991Y-119600001D03*
X114879989Y-119600001D03*
X114379990Y-119600001D03*
X113879989Y-119600001D03*
X113379990Y-119600001D03*
X112879991Y-119600001D03*
X112379989Y-119600001D03*
X111879990Y-119600001D03*
X111379988Y-119600001D03*
X110879990Y-119600001D03*
X110379990Y-119600001D03*
X109879989Y-119600001D03*
X109379990Y-119600001D03*
X108879988Y-119600001D03*
X108379989Y-119600001D03*
X107879990Y-119600001D03*
X107379989Y-119600001D03*
X106879990Y-119600001D03*
X106379991Y-119600001D03*
X105879989Y-119600001D03*
X105379990Y-119600001D03*
D28*
X118179980Y-122300000D03*
X103080000Y-122300000D03*
D29*
X141326100Y-74273900D03*
X140676100Y-74273900D03*
X140026100Y-74273900D03*
X140026100Y-72023900D03*
X141326100Y-72023900D03*
D12*
X98450000Y-58830000D03*
X98450000Y-57280000D03*
D26*
X105570000Y-103810000D03*
X103670000Y-103810000D03*
D14*
X141828600Y-70293900D03*
X143653600Y-70293900D03*
D30*
X136391100Y-70333900D03*
X138091100Y-70333900D03*
D31*
X127250000Y-86320000D03*
X127750000Y-86320000D03*
X128250000Y-86320000D03*
X128750000Y-86320000D03*
X129250000Y-86320000D03*
X129750000Y-86320000D03*
X130250000Y-86320000D03*
X130750000Y-86320000D03*
X131250000Y-86320000D03*
X131750000Y-86320000D03*
X132250000Y-86320000D03*
X132750000Y-86320000D03*
X133250000Y-86320000D03*
X133750000Y-86320000D03*
X134250000Y-86320000D03*
X134750000Y-86320000D03*
X135250000Y-86320000D03*
X135750000Y-86320000D03*
X136250000Y-86320000D03*
X136750000Y-86320000D03*
X137250000Y-86320000D03*
X137750000Y-86320000D03*
X138250000Y-86320000D03*
X138750000Y-86320000D03*
X139250000Y-86320000D03*
X139750000Y-86320000D03*
X140250000Y-86320000D03*
X140750000Y-86320000D03*
X141250000Y-86320000D03*
X141750000Y-86320000D03*
X142250000Y-86320000D03*
X142750000Y-86320000D03*
X143250000Y-86320000D03*
X143750000Y-86320000D03*
X144250000Y-86320000D03*
X144750000Y-86320000D03*
X145250000Y-86320000D03*
X145750000Y-86320000D03*
X146250000Y-86320000D03*
X146750000Y-86320000D03*
D32*
X148690000Y-89400000D03*
X125310000Y-89400000D03*
D33*
X153750000Y-61000000D03*
X154400000Y-61000000D03*
X155050000Y-61000000D03*
X155700000Y-61000000D03*
X156350000Y-61000000D03*
X157000000Y-61000000D03*
X157650000Y-61000000D03*
X158300000Y-61000000D03*
X158300000Y-66600000D03*
X157650000Y-66600000D03*
X157000000Y-66600000D03*
X156350000Y-66600000D03*
X155700000Y-66600000D03*
X155050000Y-66600000D03*
X154400000Y-66600000D03*
X153750000Y-66600000D03*
M02*
