M48
; DRILL file {KiCad 9.0.6-9.0.6~ubuntu24.04.1} date 2025-11-27T18:29:43+0100
; FORMAT={-:-/ absolute / inch / decimal}
; #@! TF.CreationDate,2025-11-27T18:29:43+01:00
; #@! TF.GenerationSoftware,Kicad,Pcbnew,9.0.6-9.0.6~ubuntu24.04.1
; #@! TF.FileFunction,Plated,1,2,PTH
FMAT,2
INCH
; #@! TA.AperFunction,Plated,PTH,ViaDrill
T1C0.0118
; #@! TA.AperFunction,Plated,PTH,ComponentDrill
T2C0.0240
; #@! TA.AperFunction,Plated,PTH,ComponentDrill
T3C0.1260
%
G90
G05
T1
X3.5732Y-2.2772
X3.5732Y-2.9862
X3.5732Y-3.6925
X3.5732Y-4.4035
X3.8719Y-5.252
X3.8916Y-5.252
X3.9114Y-5.2516
X3.9133Y-2.2677
X3.933Y-2.3076
X3.9331Y-2.2875
X3.9331Y-2.2479
X3.9331Y-5.2075
X3.9331Y-5.1877
X3.9333Y-2.2677
X3.9335Y-5.2273
X3.9531Y-2.2677
X3.9728Y-2.2677
X4.0228Y-3.2047
X4.0965Y-3.6953
X4.0965Y-3.8921
X4.0969Y-3.6622
X4.0969Y-3.8591
X4.1238Y-3.6953
X4.1238Y-3.8921
X4.1241Y-3.6622
X4.1241Y-3.8591
X4.1488Y-4.6799
X4.151Y-3.6961
X4.151Y-3.8929
X4.1514Y-3.663
X4.1514Y-3.8598
X4.172Y-4.2886
X4.1783Y-3.6961
X4.1783Y-3.8929
X4.1787Y-3.663
X4.1787Y-3.8598
X4.2056Y-3.6961
X4.2056Y-3.8929
X4.206Y-3.663
X4.206Y-3.8598
X4.2081Y-4.6799
X4.2252Y-4.3398
X4.2329Y-3.6961
X4.2329Y-3.8929
X4.2333Y-3.663
X4.2333Y-3.8598
X4.2602Y-3.6961
X4.2602Y-3.8929
X4.2606Y-3.663
X4.2606Y-3.8598
X4.2665Y-4.6799
X4.2799Y-4.3921
X4.326Y-4.6795
X4.3311Y-4.4346
X4.385Y-4.6795
X4.389Y-4.4791
X4.4441Y-4.6799
X4.4492Y-4.5366
X4.5034Y-4.6799
X4.6421Y-3.9252
X4.661Y-4.6004
X4.6886Y-3.9807
X4.7386Y-4.0272
X4.7465Y-3.6992
X4.7866Y-4.0807
X4.8087Y-3.7654
X4.8323Y-3.2972
X4.8386Y-4.135
X4.8555Y-3.8173
X4.8925Y-3.3571
X4.9028Y-3.865
X4.9551Y-3.9134
X4.9768Y-3.6091
X5.0071Y-3.9717
X5.0098Y-3.4283
X5.0209Y-3.648
X5.0689Y-3.4283
X5.0689Y-3.6941
X5.0693Y-3.298
X5.0914Y-3.4311
X5.1177Y-3.7449
X5.1244Y-3.4507
X5.1282Y-3.4283
X5.1453Y-3.4717
X5.1507Y-3.4315
X5.1752Y-3.8012
X5.1843Y-3.4512
X5.1866Y-3.4283
X5.189Y-3.5638
X5.2094Y-3.4308
X5.2429Y-3.4512
X5.2461Y-3.428
X5.2465Y-3.6039
X5.2669Y-3.4602
X5.2687Y-3.4313
X5.302Y-3.4512
X5.3051Y-3.428
X5.3079Y-3.665
X5.3248Y-3.3677
X5.372Y-3.3529
X5.3724Y-3.6705
X5.4674Y-2.7691
X5.522Y-3.4276
X5.5657Y-2.5654
X5.5811Y-3.4276
X5.5906Y-2.685
X5.6201Y-3.3669
X5.6404Y-3.4276
X5.6701Y-2.8458
X5.6945Y-3.1246
X5.7185Y-3.3669
X5.7685Y-3.3236
X5.9449Y-2.6598
X5.9547Y-2.3496
X6.0061Y-2.5654
X6.0531Y-3.426
X6.0539Y-3.6287
X6.0539Y-3.6969
X6.0756Y-2.2965
X6.0815Y-3.652
X6.1299Y-3.652
X6.1531Y-3.7154
X6.1551Y-3.4252
X6.1791Y-3.6287
X6.2047Y-3.6512
X6.2047Y-3.7382
X6.2331Y-2.4531
X6.2366Y-3.6512
X6.2638Y-2.6209
X7.411Y-3.8925
X7.5386Y-3.9465
X8.6231Y-2.2677
X8.6231Y-5.252
X8.6429Y-2.2677
X8.6429Y-5.252
X8.6627Y-2.2677
X8.6627Y-5.252
T2
X4.7429Y-4.5217
X4.7461Y-4.6406
X5.7708Y-3.1941
T3
X3.7402Y-2.1063
X3.7402Y-5.4134
X8.3071Y-2.1063
X8.3071Y-5.4134
M30
