M48
; DRILL file KiCad 10.0.6-10.0.6~ubuntu24.04.1 date 2026-09-17T08:37:38
; FORMAT={-:-/ absolute / metric / decimal}
; #@! TF.CreationDate,2026-09-17T08:37:38+02:00
; #@! TF.GenerationSoftware,Kicad,Pcbnew,10.0.6-10.0.6~ubuntu24.04.1
; #@! TF.FileFunction,Plated,1,4,PTH
FMAT,2
METRIC
; #@! TA.AperFunction,Plated,PTH,ViaDrill
T1C0.300
; #@! TA.AperFunction,Plated,PTH,ComponentDrill
T2C0.300
; #@! TA.AperFunction,Plated,PTH,ComponentDrill
T3C0.400
; #@! TA.AperFunction,Plated,PTH,ComponentDrill
T4C0.500
; #@! TA.AperFunction,Plated,PTH,ComponentDrill
T5C0.610
; #@! TA.AperFunction,Plated,PTH,ComponentDrill
T6C0.700
; #@! TA.AperFunction,Plated,PTH,ComponentDrill
T7C0.800
; #@! TA.AperFunction,Plated,PTH,ComponentDrill
T8C0.900
; #@! TA.AperFunction,Plated,PTH,ComponentDrill
T9C0.914
; #@! TA.AperFunction,Plated,PTH,ComponentDrill
T10C1.000
; #@! TA.AperFunction,Plated,PTH,ComponentDrill
T11C1.016
; #@! TA.AperFunction,Plated,PTH,ComponentDrill
T12C1.020
; #@! TA.AperFunction,Plated,PTH,ComponentDrill
T13C1.100
; #@! TA.AperFunction,Plated,PTH,ComponentDrill
T14C1.200
; #@! TA.AperFunction,Plated,PTH,ComponentDrill
T15C1.254
; #@! TA.AperFunction,Plated,PTH,ComponentDrill
T16C1.300
; #@! TA.AperFunction,Plated,PTH,ComponentDrill
T17C1.400
; #@! TA.AperFunction,Plated,PTH,ComponentDrill
T18C1.600
; #@! TA.AperFunction,Plated,PTH,ComponentDrill
T19C1.700
; #@! TA.AperFunction,Plated,PTH,ComponentDrill
T20C1.702
; #@! TA.AperFunction,Plated,PTH,ComponentDrill
T21C2.000
; #@! TA.AperFunction,Plated,PTH,ComponentDrill
T22C2.200
; #@! TA.AperFunction,Plated,PTH,ComponentDrill
T23C2.254
; #@! TA.AperFunction,Plated,PTH,ComponentDrill
T24C2.300
; #@! TA.AperFunction,Plated,PTH,ComponentDrill
T25C3.200
; #@! TA.AperFunction,Plated,PTH,ComponentDrill
T26C4.200
%
G90
G05
T1
X296.69Y-146.39
X298.28Y-143.28
X298.44Y-82.954
X298.44Y-83.589
X298.44Y-84.224
X298.53Y-153.03
X299.26Y-141.24
X299.68Y-82.959
X299.68Y-83.594
X299.68Y-84.229
X301.42Y-91.21
X301.42Y-91.84
X301.42Y-92.47
X301.542Y-100.428
X302.53Y-125.95
X303.5Y-139.9
X303.5Y-140.425
X303.5Y-140.95
X303.5Y-141.475
X303.5Y-142.0
X304.2Y-139.9
X304.2Y-140.425
X304.2Y-140.95
X304.2Y-141.475
X304.2Y-142.0
X304.49Y-118.09
X304.9Y-139.9
X304.9Y-140.425
X304.9Y-140.95
X304.9Y-141.475
X304.9Y-142.0
X305.3Y-120.5
X305.3Y-121.167
X305.3Y-121.833
X305.3Y-122.5
X305.3Y-123.2
X305.3Y-123.867
X305.3Y-124.533
X305.3Y-125.2
X305.5Y-132.7
X305.5Y-133.367
X305.5Y-134.033
X305.5Y-134.7
X305.85Y-100.4
X305.94Y-84.64
X306.0Y-120.5
X306.0Y-121.167
X306.0Y-121.833
X306.0Y-122.5
X306.0Y-123.2
X306.0Y-123.867
X306.0Y-124.533
X306.0Y-125.2
X306.2Y-132.7
X306.2Y-133.367
X306.2Y-134.033
X306.2Y-134.7
X306.609Y-130.108
X308.9Y-128.08
X308.9Y-128.747
X308.9Y-129.413
X309.6Y-128.08
X309.6Y-128.747
X309.6Y-129.413
X309.7Y-122.8
X309.7Y-123.5
X309.7Y-124.2
X309.7Y-133.1
X309.7Y-133.8
X309.7Y-134.5
X309.7Y-135.2
X310.02Y-131.29
X310.12Y-91.61
X310.4Y-122.8
X310.4Y-123.5
X310.4Y-124.2
X310.4Y-133.1
X310.4Y-133.8
X310.4Y-134.5
X310.4Y-135.2
X311.08Y-100.78
X311.28Y-127.75
X311.686Y-129.594
X311.705Y-93.961
X311.705Y-94.471
X312.015Y-127.635
X312.12Y-123.62
X312.42Y-125.16
X312.84Y-98.12
X313.02Y-157.91
X313.59Y-149.97
X313.635Y-93.921
X313.635Y-94.451
X313.77Y-126.24
X314.42Y-91.65
X316.15Y-89.03
X316.16Y-86.01
X317.25Y-87.68
X317.75Y-85.75
X319.25Y-85.77
X320.75Y-85.77
X322.25Y-85.75
X323.75Y-85.75
X325.25Y-85.76
X326.75Y-85.76
X328.19Y-111.51
X328.25Y-85.75
X329.38Y-110.03
X329.75Y-85.76
X331.25Y-85.75
X333.74Y16.76
X333.74Y16.22
X333.74Y15.67
X335.07Y-100.54
X335.071Y-99.9
X335.25Y-85.8
X335.712Y-100.54
X335.713Y-99.9
X336.355Y-100.54
X336.356Y-99.9
X336.85Y-85.95
X336.86Y-88.99
X336.962Y-137.11
X336.962Y-146.11
X336.998Y-100.54
X336.998Y-99.9
X337.4Y11.41
X337.4Y10.84
X337.5Y-146.11
X337.501Y-137.11
X337.64Y-100.54
X337.641Y-99.9
X337.93Y11.41
X337.93Y10.84
X338.04Y-137.11
X338.04Y-146.11
X338.47Y11.41
X338.47Y10.84
X338.47Y-111.04
X338.969Y-104.431
X339.47Y-103.1
X339.83Y-110.03
X339.93Y-119.4
X339.94Y-107.462
X339.94Y-108.038
X340.05Y-94.96
X340.1Y-168.2
X340.1Y-169.8
X340.1Y-170.4
X340.11Y-113.36
X340.121Y-124.37
X340.26Y-115.05
X340.26Y-115.71
X340.33Y-110.44
X340.35Y-112.35
X340.38Y-116.34
X340.38Y-118.76
X340.42Y-119.95
X340.775Y-168.2
X340.775Y-169.8
X340.775Y-170.4
X341.42Y-105.81
X341.45Y-168.2
X341.45Y-169.8
X341.45Y-170.4
X341.59Y-117.55
X341.6Y-108.36
X341.653Y-155.53
X341.653Y-156.165
X341.653Y-156.8
X341.653Y-157.435
X341.653Y-158.07
X341.653Y-158.705
X341.653Y-159.34
X341.653Y-159.975
X341.653Y-160.61
X341.653Y-161.245
X341.653Y-161.88
X341.653Y-162.515
X341.68Y-107.25
X341.688Y-114.255
X341.71Y-109.54
X341.73Y-123.76
X341.89Y-111.58
X341.92Y-113.24
X341.97Y-124.75
X342.125Y-168.2
X342.125Y-169.8
X342.125Y-170.4
X342.32Y-114.52
X342.351Y-155.53
X342.351Y-156.165
X342.351Y-156.8
X342.351Y-157.435
X342.351Y-158.07
X342.351Y-158.705
X342.351Y-159.34
X342.351Y-159.975
X342.351Y-160.61
X342.351Y-161.245
X342.351Y-161.88
X342.351Y-162.515
X342.695Y-116.505
X342.7Y-110.42
X342.7Y-117.12
X342.8Y-168.2
X342.8Y-169.8
X342.8Y-170.4
X342.86Y-113.56
X343.033Y-160.61
X343.05Y-128.76
X343.05Y-155.53
X343.05Y-156.165
X343.05Y-156.8
X343.05Y-157.435
X343.05Y-158.07
X343.05Y-158.705
X343.05Y-159.34
X343.05Y-159.975
X343.05Y-161.245
X343.05Y-161.88
X343.05Y-162.515
X343.21Y-103.411
X343.21Y-103.989
X343.29Y-110.45
X343.29Y-111.08
X343.408Y-114.051
X343.46Y-125.14
X343.46Y-129.31
X343.5Y-120.35
X343.501Y-115.95
X343.51Y-117.55
X343.51Y-118.75
X343.52Y-121.15
X344.55Y-105.83
X344.67Y-108.35
X344.68Y-149.5
X344.78Y-111.94
X344.789Y-109.95
X344.87Y-107.2
X345.52Y-121.48
X346.102Y-100.762
X346.32Y-165.61
X346.34Y-107.78
X346.45Y-121.772
X346.51Y-101.17
X346.512Y-110.829
X347.392Y-101.302
X347.7Y-147.115
X347.8Y-101.71
X347.94Y-109.25
X348.89Y-151.05
X348.92Y-121.6
X348.93Y-108.12
X349.95Y-126.79
X350.01Y-108.63
X351.02Y-99.69
X351.72Y-158.87
X351.74Y-162.18
X351.949Y-172.015
X351.992Y-174.154
X352.66Y-125.26
X352.679Y-172.015
X352.722Y-174.154
X352.85Y-117.88
X353.6Y-125.29
X354.53Y-126.82
X354.6Y-100.78
X355.05Y-101.24
X355.28Y-168.36
X355.28Y-169.09
X355.51Y-111.88
X356.19Y-119.95
X356.25Y-127.76
X356.26Y-100.29
X356.4Y-126.99
X356.65Y-113.86
X356.8Y-102.13
X356.8Y-103.24
X356.83Y-112.52
X356.99Y-166.51
X357.45Y-163.19
X357.59Y-114.68
X358.1Y-158.66
X358.34Y-109.19
X358.4Y-165.536
X358.85Y-128.56
X358.939Y-164.1
X358.939Y-164.64
X359.02Y-104.2
X359.35Y-162.47
X359.52Y-116.12
X359.54Y-113.42
X359.54Y-114.29
X359.56Y-100.8
X359.57Y-156.9
X359.58Y-101.68
X360.05Y-113.86
X360.33Y-126.72
X360.522Y-162.99
X360.522Y-166.07
X360.87Y-117.7
X361.01Y-112.84
X361.01Y-114.75
X361.02Y-115.36
X361.022Y-116.282
X361.099Y-162.99
X361.099Y-166.07
X361.4Y-165.57
X361.51Y-116.592
X361.51Y-117.57
X361.54Y-104.18
X361.721Y-162.97
X362.11Y-157.59
X362.127Y-112.353
X362.15Y-107.17
X362.24Y-108.63
X362.298Y-162.97
X362.546Y13.683
X362.546Y12.958
X362.546Y12.233
X362.546Y11.508
X362.546Y10.783
X362.74Y-111.91
X362.86Y-145.55
X362.98Y-166.04
X363.171Y-171.474
X363.26Y-110.98
X363.34Y13.68
X363.34Y12.955
X363.34Y12.23
X363.34Y11.505
X363.34Y10.78
X363.6Y-132.8
X363.67Y-99.27
X363.75Y-171.291
X363.85Y-111.02
X364.03Y-167.83
X364.03Y-168.46
X364.24Y-109.82
X364.969Y-166.094
X365.17Y-142.79
X365.306Y-159.926
X365.551Y-155.87
X365.6Y33.2
X365.714Y-160.334
X365.787Y-158.177
X366.128Y-155.87
X366.425Y33.2
X366.437Y-157.678
X366.51Y-162.95
X366.67Y-142.79
X366.777Y-166.07
X367.087Y-158.177
X367.25Y33.2
X367.423Y-166.07
X368.075Y33.2
X368.16Y-142.79
X368.9Y33.2
X369.33Y-172.66
X369.35Y-156.03
X369.37Y-157.16
X369.41Y-66.382
X369.41Y-67.031
X369.41Y-67.681
X369.41Y-68.331
X369.41Y-68.98
X369.67Y-142.79
X369.91Y-165.27
X370.11Y-66.382
X370.11Y-67.031
X370.11Y-67.681
X370.11Y-68.331
X370.11Y-68.98
X370.75Y-169.17
X371.17Y-142.79
X371.23Y-165.24
X371.332Y-158.53
X371.74Y-158.122
X372.02Y-164.29
X372.068Y-168.37
X372.159Y-117.597
X372.206Y-62.508
X372.206Y-63.145
X372.206Y-63.782
X372.206Y-64.419
X372.206Y-65.056
X372.27Y-165.11
X372.57Y-116.19
X372.63Y-153.42
X372.66Y-155.511
X372.66Y-156.088
X372.67Y-142.79
X372.68Y-168.7
X372.71Y-165.55
X372.72Y-118.82
X372.72Y-170.4
X372.94Y-115.63
X372.976Y-62.511
X372.976Y-63.148
X372.976Y-63.785
X372.976Y-64.422
X372.976Y-65.059
X373.04Y-166.21
X373.65Y-132.8
X374.16Y-142.79
X374.27Y-119.06
X374.36Y-117.95
X374.56Y-129.61
X374.663Y-143.122
X374.89Y-175.123
X374.92Y-125.81
X375.13Y-129.51
X375.171Y-142.799
X375.2Y-163.74
X375.47Y-120.35
X375.47Y-121.55
X375.47Y-122.75
X375.47Y-123.95
X375.47Y-125.15
X375.62Y-108.14
X375.65Y-116.74
X375.666Y-114.374
X375.67Y-110.712
X375.71Y-118.261
X375.71Y-118.838
X375.87Y-156.66
X375.91Y-126.27
X376.656Y-141.241
X377.16Y-158.95
X377.17Y-140.74
X377.2Y-132.8
X377.26Y-105.74
X377.26Y-108.14
X377.29Y-114.392
X377.45Y-115.55
X377.45Y-116.75
X377.46Y-117.95
X377.46Y-119.15
X377.46Y-120.35
X377.46Y-121.55
X377.46Y-122.75
X377.46Y-125.15
X377.561Y-127.16
X377.65Y-105.28
X377.88Y-125.86
X377.97Y-145.57
X378.138Y-127.16
X378.41Y-158.93
X378.56Y-154.06
X378.656Y-124.076
X378.69Y11.06
X378.745Y22.972
X378.8Y-110.712
X378.943Y-114.664
X378.943Y-115.241
X378.99Y-153.55
X378.998Y-117.064
X378.998Y-117.641
X378.998Y-115.864
X378.998Y-116.441
X378.998Y-118.264
X378.998Y-118.841
X380.49Y11.853
X380.51Y10.17
X381.801Y22.03
X382.378Y22.03
X382.4Y-128.12
X382.42Y-130.99
X382.693Y23.789
X382.97Y-125.84
X383.001Y22.03
X383.32Y-139.37
X383.32Y-140.57
X383.45Y-159.48
X383.55Y-124.36
X383.55Y-125.32
X383.578Y22.03
X384.155Y-149.798
X384.19Y-145.562
X384.75Y-128.25
X384.941Y22.03
X385.219Y-126.413
X385.518Y22.03
X385.55Y-163.7
X385.72Y-81.29
X385.796Y-126.413
X385.83Y23.789
X386.142Y22.02
X386.25Y-128.25
X386.41Y-81.84
X386.66Y-52.98
X386.709Y-126.502
X386.719Y22.02
X386.96Y-82.29
X387.01Y-80.66
X387.17Y-51.99
X387.17Y-107.31
X387.286Y-126.502
X387.293Y-114.026
X387.47Y-105.92
X387.5Y-115.7
X387.68Y-100.84
X387.68Y-101.51
X387.68Y-102.12
X387.68Y-104.51
X387.7Y-103.25
X387.7Y-103.89
X387.74Y-128.25
X387.76Y-99.78
X387.77Y-98.41
X387.87Y-66.361
X387.87Y-67.01
X387.87Y-67.66
X387.87Y-68.309
X387.87Y-68.959
X387.88Y-114.225
X387.888Y-114.802
X387.99Y6.29
X388.018Y-108.876
X388.07Y-129.45
X388.111Y25.185
X388.13Y-110.976
X388.15Y-144.491
X388.21Y-98.99
X388.229Y-126.522
X388.29Y-107.91
X388.328Y-113.012
X388.492Y-113.586
X388.492Y-115.23
X388.5Y-129.02
X388.5Y-161.01
X388.54Y-114.35
X388.547Y-111.489
X388.57Y-66.361
X388.57Y-67.01
X388.57Y-67.66
X388.57Y-68.309
X388.57Y-68.959
X388.588Y-110.149
X388.637Y-109.09
X388.688Y25.185
X388.761Y-79.25
X388.803Y-62.546
X388.803Y-63.183
X388.803Y-63.82
X388.803Y-64.457
X388.803Y-65.094
X388.806Y-126.522
X388.886Y-111.956
X388.945Y-109.578
X388.949Y-110.599
X388.98Y-100.28
X388.997Y-113.158
X389.0Y23.775
X389.01Y-115.75
X389.015Y-108.654
X389.04Y-106.56
X389.045Y-112.511
X389.25Y-128.25
X389.339Y-79.25
X389.573Y-62.549
X389.573Y-63.186
X389.573Y-63.823
X389.573Y-64.46
X389.573Y-65.097
X389.724Y-126.54
X389.94Y-162.041
X390.296Y-75.776
X390.301Y-126.54
X390.38Y20.0
X390.456Y-77.396
X390.507Y-150.708
X390.52Y-59.56
X390.55Y21.32
X390.704Y-76.184
X390.75Y-128.25
X390.79Y-60.16
X390.864Y-77.804
X390.92Y-59.02
X391.17Y26.639
X391.17Y26.061
X391.27Y-129.74
X391.4Y-163.7
X391.56Y20.96
X391.56Y-130.241
X391.77Y22.28
X391.955Y-150.2
X391.955Y-150.899
X391.955Y-151.597
X391.97Y-125.24
X391.99Y-125.95
X392.25Y-128.25
X392.32Y-94.07
X392.414Y-95.655
X392.44Y-103.25
X392.582Y9.45
X392.59Y-150.2
X392.59Y-150.899
X392.59Y-151.597
X392.76Y-91.04
X392.82Y-116.35
X392.94Y-102.05
X393.029Y-125.76
X393.11Y23.8
X393.159Y9.45
X393.225Y-150.2
X393.225Y-150.899
X393.225Y-151.597
X393.278Y-114.724
X393.45Y-100.44
X393.46Y-116.38
X393.488Y-92.489
X393.49Y-106.54
X393.49Y-125.37
X393.71Y-101.01
X393.74Y-128.25
X393.79Y-94.08
X393.801Y-95.648
X393.86Y-150.2
X393.86Y-150.899
X393.86Y-151.58
X393.91Y-98.42
X394.19Y-116.42
X394.22Y-131.76
X394.24Y-102.1
X394.253Y-130.699
X394.46Y-102.71
X394.475Y-114.663
X394.495Y-150.2
X394.495Y-150.899
X394.495Y-151.597
X394.58Y-104.77
X394.58Y-113.53
X394.58Y-117.35
X394.604Y-91.244
X394.74Y-130.22
X394.833Y-93.071
X394.86Y-116.41
X394.88Y-106.74
X394.97Y-161.52
X395.02Y27.68
X395.13Y-89.555
X395.13Y-150.2
X395.13Y-150.899
X395.13Y-151.597
X395.262Y-95.655
X395.3Y-128.907
X395.62Y-90.57
X395.63Y-105.76
X395.765Y-150.2
X395.765Y-150.899
X395.765Y-151.597
X395.81Y-117.58
X395.92Y-85.52
X396.01Y-116.98
X396.05Y-115.89
X396.1Y30.12
X396.238Y-87.4
X396.38Y-127.86
X396.4Y-150.2
X396.4Y-150.899
X396.4Y-151.597
X396.41Y-117.68
X396.56Y-109.14
X396.569Y-94.91
X396.66Y-104.65
X396.83Y-128.29
X396.86Y-86.68
X397.0Y19.83
X397.01Y-106.5
X397.035Y-150.2
X397.035Y-150.899
X397.035Y-151.597
X397.04Y-116.94
X397.06Y-113.05
X397.27Y-128.69
X397.34Y-87.14
X397.55Y-129.488
X397.66Y-115.42
X397.67Y-150.2
X397.67Y-150.899
X397.67Y-151.597
X397.688Y-85.405
X397.89Y-107.46
X397.92Y-109.69
X398.1Y-69.7
X398.1Y-70.36
X398.23Y-92.55
X398.243Y-89.07
X398.25Y25.9
X398.27Y38.96
X398.29Y-82.38
X398.305Y-150.2
X398.305Y-150.899
X398.305Y-151.597
X398.32Y32.83
X398.44Y-8.67
X398.512Y-95.752
X398.622Y-86.113
X398.79Y16.87
X398.79Y15.19
X398.81Y-92.36
X398.87Y-9.22
X398.94Y-150.2
X398.94Y-150.899
X398.94Y-151.597
X398.95Y-61.58
X398.97Y-114.44
X399.08Y-84.78
X399.14Y-107.55
X399.15Y41.68
X399.16Y-88.81
X399.169Y-89.619
X399.231Y-61.068
X399.252Y-9.722
X399.31Y-109.81
X399.47Y-91.02
X399.52Y-98.79
X399.618Y-81.878
X399.66Y-10.13
X399.7Y18.37
X399.71Y13.73
X399.74Y-143.962
X399.8Y-93.08
X399.982Y-101.918
X400.1Y-78.75
X400.13Y-93.59
X400.21Y-58.56
X400.37Y-143.962
X400.472Y-87.762
X400.52Y30.49
X400.52Y-108.08
X400.542Y-83.565
X400.56Y-111.55
X400.73Y-112.84
X400.77Y-144.922
X400.81Y28.07
X400.98Y38.28
X400.98Y37.645
X401.0Y-98.96
X401.04Y-106.67
X401.19Y-91.06
X401.27Y-61.53
X401.4Y-79.53
X401.4Y-111.98
X401.438Y-105.02
X401.457Y18.485
X401.47Y-77.68
X401.48Y-81.9
X401.49Y-78.322
X401.57Y-76.14
X401.592Y-81.29
X401.61Y-144.132
X401.628Y-142.782
X401.66Y-92.64
X401.78Y-61.08
X401.82Y-111.52
X401.84Y-76.8
X402.0Y-98.92
X402.02Y26.03
X402.08Y-100.87
X402.12Y-97.068
X402.26Y-75.8
X402.3Y-144.132
X402.318Y-142.782
X402.34Y-111.03
X402.488Y-108.86
X402.58Y-98.89
X402.6Y24.697
X402.9Y-75.12
X402.91Y-96.69
X402.93Y-126.49
X402.936Y-100.531
X402.94Y-129.91
X402.95Y-85.21
X402.96Y-131.74
X403.156Y-98.929
X403.3Y24.697
X403.38Y-77.68
X403.38Y-79.43
X403.386Y-89.449
X403.4Y-76.8
X403.445Y-83.59
X403.45Y-81.92
X403.46Y-87.52
X403.48Y-81.29
X403.48Y-85.507
X403.54Y-136.02
X403.56Y27.95
X403.661Y-105.32
X403.725Y-55.635
X403.74Y-56.37
X403.77Y-57.12
X403.83Y-134.28
X403.96Y-57.79
X404.015Y-137.055
X404.212Y-85.254
X404.43Y32.055
X404.43Y31.42
X404.47Y-100.33
X404.48Y-126.72
X404.48Y-130.25
X404.5Y-98.95
X404.57Y-123.74
X404.591Y-107.47
X404.65Y-114.5
X404.708Y-92.05
X404.72Y-88.06
X405.013Y-97.058
X405.07Y-89.26
X405.23Y-77.21
X405.26Y-163.77
X405.275Y-164.785
X405.4Y-134.2
X405.45Y-100.62
X405.497Y43.534
X405.58Y-78.75
X405.6Y-106.28
X405.6Y-131.73
X405.64Y-89.58
X405.7Y-96.0
X405.74Y-108.54
X405.98Y-87.61
X406.08Y-77.207
X406.17Y-113.3
X406.2Y-106.2
X406.2Y-138.07
X406.257Y39.236
X406.257Y36.574
X406.356Y-122.295
X406.45Y-165.58
X406.54Y-88.1
X406.54Y-95.122
X406.55Y-87.42
X406.702Y-100.768
X406.796Y-107.962
X406.83Y-73.03
X406.84Y-121.98
X406.87Y-81.33
X406.99Y-124.31
X406.997Y43.534
X407.007Y-74.505
X407.1Y-93.81
X407.101Y-117.783
X407.105Y-94.475
X407.23Y-97.28
X407.29Y-102.91
X407.38Y-108.27
X407.417Y-139.018
X407.43Y-99.31
X407.467Y-163.021
X407.473Y-92.478
X407.51Y-87.28
X407.51Y-91.26
X407.75Y-90.66
X407.86Y-110.67
X407.95Y-88.79
X408.03Y-95.0
X408.05Y-92.49
X408.069Y-91.53
X408.196Y-101.455
X408.46Y-88.04
X408.46Y-104.21
X408.497Y43.534
X408.85Y-139.02
X408.987Y-74.405
X409.12Y-102.43
X409.17Y-120.2
X409.224Y39.236
X409.227Y36.574
X409.777Y-122.27
X409.78Y-138.25
X409.997Y43.534
X410.133Y-93.702
X410.16Y-126.501
X410.16Y-127.2
X410.16Y-127.898
X410.18Y-90.26
X410.181Y-132.431
X410.181Y-133.13
X410.181Y-133.828
X410.236Y-101.964
X410.26Y-80.986
X410.28Y-138.99
X410.29Y-74.485
X410.29Y-92.608
X410.376Y-93.178
X410.63Y-118.28
X410.63Y-119.9
X410.76Y-54.62
X410.76Y-56.13
X410.76Y-61.83
X410.77Y-87.4
X410.787Y-163.27
X410.79Y-55.27
X410.836Y-137.126
X410.838Y-96.682
X410.88Y-126.501
X410.88Y-127.2
X410.88Y-127.898
X410.88Y-132.431
X410.88Y-133.13
X410.88Y-133.828
X410.89Y-61.07
X410.97Y-94.59
X410.986Y-103.176
X411.138Y-101.55
X411.244Y-137.534
X411.3Y-125.17
X411.357Y-120.19
X411.39Y-59.01
X411.39Y-86.03
X411.698Y-98.47
X411.698Y-99.38
X411.719Y-139.744
X411.73Y-123.58
X411.91Y-94.61
X411.912Y-119.758
X411.938Y-118.237
X411.983Y-88.512
X412.02Y-53.38
X412.11Y-72.205
X412.13Y-71.505
X412.23Y-125.118
X412.296Y-139.744
X412.358Y-98.47
X412.358Y-99.38
X412.36Y-74.1
X412.37Y-96.31
X412.4Y-108.54
X412.615Y-62.474
X412.615Y-63.111
X412.615Y-63.748
X412.615Y-64.385
X412.615Y-65.022
X412.667Y31.934
X412.68Y-90.19
X412.73Y-88.41
X412.75Y-125.65
X412.92Y-83.016
X412.94Y-108.86
X412.941Y-135.02
X412.952Y-122.37
X412.997Y43.534
X413.133Y-66.358
X413.133Y-67.008
X413.133Y-67.657
X413.133Y-68.307
X413.133Y-68.956
X413.195Y-129.471
X413.195Y-130.17
X413.195Y-130.868
X413.246Y-136.936
X413.34Y-125.72
X413.385Y-62.478
X413.385Y-63.115
X413.385Y-63.752
X413.385Y-64.389
X413.385Y-65.026
X413.4Y-89.93
X413.47Y-77.38
X413.479Y-120.19
X413.518Y-135.02
X413.55Y-118.83
X413.61Y-139.79
X413.62Y-141.93
X413.654Y-137.344
X413.677Y32.684
X413.76Y15.55
X413.76Y14.44
X413.79Y-89.46
X413.828Y-101.55
X413.83Y-129.471
X413.83Y-130.17
X413.83Y-130.868
X413.833Y-66.358
X413.833Y-67.008
X413.833Y-67.657
X413.833Y-68.307
X413.833Y-68.956
X413.838Y-103.1
X413.93Y-75.08
X414.038Y-99.27
X414.04Y-73.505
X414.06Y-106.792
X414.1Y-71.565
X414.46Y-59.56
X414.465Y-129.471
X414.465Y-130.17
X414.465Y-130.868
X414.47Y-74.62
X414.53Y-93.37
X414.57Y-60.16
X414.697Y37.554
X414.777Y39.494
X414.83Y-106.69
X414.96Y-85.03
X414.96Y-100.77
X414.98Y-88.11
X414.98Y-92.65
X415.09Y6.39
X415.125Y-138.62
X415.125Y-140.14
X415.35Y-119.79
X415.45Y-149.23
X415.48Y-73.83
X415.48Y-106.71
X415.49Y-93.33
X415.81Y-125.25
X415.93Y-85.08
X415.93Y-86.4
X415.94Y-104.42
X416.03Y-93.11
X416.12Y-106.61
X416.14Y-73.77
X416.21Y-94.49
X416.28Y-89.31
X416.35Y-108.66
X416.4Y-91.44
X416.4Y-92.66
X416.43Y-104.05
X416.44Y-121.77
X416.45Y-102.59
X416.48Y-117.326
X416.5Y-95.04
X416.57Y-93.55
X416.63Y-98.96
X416.63Y-99.61
X416.64Y-123.57
X416.64Y-98.14
X416.65Y-150.37
X416.69Y-75.43
X416.7Y-97.51
X416.74Y-149.66
X416.77Y-126.53
X416.77Y-127.2
X416.77Y-127.898
X416.77Y-132.431
X416.77Y-133.13
X416.77Y-133.828
X416.83Y-86.1
X416.95Y-134.84
X416.96Y23.14
X416.969Y-149.03
X417.03Y-119.42
X417.2Y-72.59
X417.33Y-84.08
X417.468Y-126.53
X417.468Y-127.2
X417.468Y-127.898
X417.47Y-92.94
X417.48Y-132.431
X417.48Y-133.13
X417.48Y-133.828
X417.53Y-134.98
X417.55Y-120.23
X417.67Y-75.14
X417.78Y-83.59
X417.81Y9.009
X417.81Y7.659
X417.81Y0.33
X417.81Y-0.37
X417.86Y-40.71
X417.92Y-144.11
X418.152Y-40.128
X418.23Y-140.07
X418.3Y-84.68
X418.33Y-104.53
X418.38Y32.87
X418.39Y34.89
X418.449Y-134.99
X418.64Y-103.07
X418.714Y-104.974
X418.73Y-105.61
X418.9Y-146.42
X418.92Y1.05
X418.969Y-93.349
X419.01Y-89.31
X419.2Y-97.53
X419.22Y-98.42
X419.32Y-82.97
X419.33Y-94.32
X419.48Y-146.42
X419.49Y-103.59
X419.85Y-80.58
X419.866Y-81.181
X419.9Y10.79
X420.04Y-124.67
X420.18Y-34.98
X420.23Y-90.23
X420.32Y-135.95
X420.44Y-86.16
X420.6Y-80.2
X420.71Y-113.92
X420.77Y-35.34
X420.95Y-88.14
X420.986Y-122.112
X420.986Y-122.67
X421.01Y-144.11
X421.012Y-120.355
X421.012Y-120.93
X421.03Y-112.25
X421.42Y-86.66
X421.52Y-111.8
X422.078Y-128.03
X422.08Y-70.13
X422.09Y-112.25
X422.11Y-92.99
X422.13Y-96.813
X422.17Y-94.25
X422.19Y9.293
X422.19Y8.547
X422.19Y7.801
X422.19Y7.055
X422.19Y6.308
X422.19Y5.562
X422.19Y4.816
X422.19Y-86.19
X422.22Y-129.59
X422.22Y-101.73
X422.23Y-132.33
X422.23Y-136.51
X422.28Y-125.33
X422.32Y-135.04
X422.67Y-71.6
X422.84Y-7.1
X422.85Y-8.39
X422.85Y-9.34
X423.01Y-111.96
X423.06Y9.293
X423.06Y8.547
X423.06Y7.801
X423.06Y7.055
X423.06Y6.308
X423.06Y5.562
X423.06Y4.816
X423.16Y-110.03
X423.197Y-116.362
X423.209Y-8.842
X423.233Y-9.772
X423.47Y-70.76
X423.64Y-109.602
X423.75Y-125.34
X423.81Y-108.65
X423.86Y-132.32
X423.87Y-136.51
X423.88Y-129.46
X423.88Y-135.04
X423.908Y9.293
X423.908Y8.547
X423.908Y7.801
X423.908Y7.055
X423.908Y6.308
X423.908Y5.562
X423.908Y4.816
X423.97Y-94.65
X423.97Y-98.95
X424.14Y-107.55
X424.19Y-90.36
X424.19Y-100.34
X424.19Y-101.96
X424.23Y-106.9
X424.23Y-108.15
X424.24Y-104.41
X424.27Y-103.04
X424.283Y-99.597
X424.39Y-5.72
X424.418Y-110.169
X424.48Y-108.96
X424.56Y-73.09
X424.66Y-127.74
X424.76Y-106.17
X424.78Y-93.32
X424.79Y9.293
X424.79Y8.547
X424.79Y7.801
X424.79Y7.055
X424.79Y6.308
X424.79Y5.562
X424.79Y4.816
X424.82Y-82.71
X424.94Y-106.78
X424.94Y-139.22
X425.08Y-95.9
X425.25Y-71.6
X425.61Y9.293
X425.61Y8.547
X425.61Y7.801
X425.61Y7.055
X425.61Y6.308
X425.61Y5.562
X425.61Y4.816
X425.97Y-95.3
X426.138Y-105.54
X426.41Y-73.25
X426.41Y-74.13
X426.45Y-93.47
X426.485Y0.55
X426.54Y-102.6
X426.59Y-95.33
X426.64Y-99.9
X427.19Y-100.34
X428.527Y-71.587
X428.537Y-73.54
X429.32Y-74.63
X430.03Y-41.08
X430.85Y-72.89
X431.45Y-110.205
X431.57Y-72.23
X433.23Y-70.65
X433.35Y-84.62
X433.532Y-91.658
X433.59Y-40.27
X433.933Y-66.369
X433.933Y-67.019
X433.933Y-67.668
X433.933Y-68.318
X433.933Y-68.967
X434.05Y-74.23
X434.633Y-66.369
X434.633Y-67.019
X434.633Y-67.668
X434.633Y-68.318
X434.633Y-68.967
X434.92Y-108.13
X435.49Y-108.558
X435.67Y-80.89
X435.79Y-75.14
X436.0Y-95.81
X436.12Y-110.99
X436.43Y-99.32
X436.51Y-73.54
X437.84Y-112.83
X437.84Y-113.4
X437.84Y-113.96
X438.52Y-112.83
X438.52Y-113.395
X438.52Y-113.96
X439.2Y-112.83
X439.2Y-113.4
X439.2Y-113.96
X440.83Y-74.86
X440.96Y-102.2
X440.98Y-102.99
X441.29Y11.06
X441.29Y10.49
X441.59Y-96.58
X441.61Y-105.73
X441.88Y-76.91
X442.2Y-72.75
X442.27Y-80.58
X442.27Y-110.99
X442.96Y-72.74
X443.39Y-96.57
X443.84Y-93.42
X444.61Y-107.54
X445.73Y-72.15
X445.73Y-72.77
X445.73Y-73.42
X445.73Y-74.07
X445.73Y-74.636
X446.365Y-72.15
X446.365Y-72.8
X446.365Y-73.42
X446.365Y-74.02
X446.365Y-74.636
X447.0Y-72.15
X447.0Y-72.8
X447.0Y-73.42
X447.0Y-74.02
X447.0Y-74.63
X449.22Y-81.14
X449.26Y-81.775
X449.28Y-82.41
X449.84Y-81.14
X449.89Y-81.775
X449.89Y-82.41
X450.49Y-81.14
X450.49Y-81.775
X450.49Y-82.41
X451.11Y-81.775
X451.11Y-82.41
X451.14Y-81.14
X451.76Y-81.14
X451.76Y-81.775
X451.76Y-82.41
X462.513Y-95.81
X462.62Y-106.86
X462.62Y-110.99
X463.31Y-107.14
X463.318Y-108.13
X463.33Y-108.78
X464.4Y-110.9
X465.013Y-132.473
X465.375Y-67.85
X465.375Y-68.47
X465.375Y-69.12
X465.375Y-69.72
X465.375Y-70.35
X465.84Y-131.76
X466.01Y-67.85
X466.01Y-68.5
X466.01Y-69.12
X466.01Y-69.72
X466.01Y-70.35
X466.645Y-67.85
X466.645Y-68.45
X466.645Y-69.12
X466.645Y-69.72
X466.645Y-70.33
X471.29Y-91.04
X471.31Y-95.251
X471.31Y-95.9
X471.46Y-110.21
X471.58Y-111.67
X471.67Y-105.54
X471.67Y-106.18
X473.25Y-87.01
X473.618Y-86.38
X474.093Y-76.853
X474.322Y-58.311
X474.59Y-76.06
X474.62Y-83.89
X474.66Y-84.525
X474.68Y-85.16
X475.24Y-83.89
X475.29Y-84.525
X475.29Y-85.16
X475.72Y-82.4
X475.75Y-81.47
X475.88Y-77.93
X475.89Y-83.89
X475.89Y-84.525
X475.89Y-85.16
X475.92Y-74.82
X476.38Y-81.512
X476.51Y-84.525
X476.51Y-85.16
X476.54Y-83.89
X477.16Y-83.89
X477.16Y-84.525
X477.16Y-85.16
X479.14Y-108.4
X479.14Y-110.22
X479.159Y-113.899
X479.19Y-72.08
X479.19Y-72.753
X479.19Y-73.426
X479.19Y-74.099
X479.19Y-74.771
X479.19Y-75.444
X479.19Y-76.117
X479.19Y-76.79
X479.33Y30.59
X479.39Y37.98
X479.59Y-105.52
X479.759Y-80.228
X480.012Y-72.08
X480.012Y-72.753
X480.012Y-73.426
X480.012Y-74.099
X480.012Y-74.771
X480.012Y-75.444
X480.012Y-76.117
X480.012Y-76.79
X480.05Y-106.18
X480.23Y-79.71
X480.355Y36.19
X480.355Y35.493
X480.355Y34.797
X480.355Y34.1
X480.84Y-72.08
X480.84Y-72.753
X480.84Y-73.426
X480.84Y-74.099
X480.84Y-74.771
X480.84Y-75.444
X480.84Y-76.117
X480.84Y-76.79
X481.74Y33.18
X482.29Y-69.66
X482.31Y-68.1
X482.45Y-59.48
X483.98Y-76.01
X484.03Y-74.78
X484.3Y41.594
X484.985Y12.99
X484.995Y27.55
X485.005Y11.48
X485.015Y26.0
X485.22Y-74.96
X485.41Y42.53
X485.53Y43.17
X485.81Y40.3
X486.14Y-72.85
X486.9Y39.78
X486.9Y26.06
X487.4Y-77.88
X487.41Y43.49
X488.04Y-71.6
X488.185Y26.58
X488.824Y27.554
X489.26Y-81.512
X489.44Y11.43
X489.878Y-81.512
X490.59Y-74.11
X490.68Y-83.0
X490.71Y11.43
X490.74Y39.24
X491.67Y-100.82
X491.67Y-102.15
X491.67Y-102.8
X491.74Y-92.71
X491.99Y36.83
X492.535Y34.29
X492.72Y-92.99
X492.73Y-110.29
X492.96Y-113.9
X493.25Y25.52
X493.785Y30.83
X494.415Y30.83
X494.525Y13.63
X494.96Y24.02
X495.525Y10.52
X495.631Y8.561
X495.82Y28.9
X496.04Y37.93
X496.865Y36.25
X496.865Y35.553
X496.865Y34.857
X496.865Y34.16
X497.515Y10.52
X498.255Y8.4
X498.93Y42.67
X499.6Y41.77
X500.195Y25.58
X500.195Y24.8
X500.88Y43.47
X501.285Y28.97
X501.455Y37.07
X501.575Y25.58
X501.575Y24.8
X503.045Y30.97
X506.095Y34.83
X506.195Y29.43
X506.26Y-78.64
X506.94Y-109.26
X507.03Y-110.757
X507.824Y-116.436
X507.824Y-117.206
X508.45Y-117.206
X508.451Y-116.436
X509.075Y-117.206
X509.077Y-116.436
X509.7Y-117.206
X509.703Y-116.436
X510.326Y-117.206
X510.329Y-116.436
X515.3Y-107.83
X516.02Y-114.9
X519.25Y48.89
X524.0Y-119.583
X524.0Y-120.25
X524.0Y-120.917
X524.0Y-121.583
T2
X368.75Y-166.1
X368.75Y-167.55
X409.2Y-100.76
X414.5Y-97.84
T3
X361.2Y-172.01
X361.6Y-172.71
X362.4Y-172.71
X362.8Y-172.01
X363.2Y-172.71
X363.6Y-172.01
X364.4Y-172.01
X364.8Y-172.71
X365.2Y-172.01
X365.6Y-172.71
X366.4Y-172.71
X366.8Y-172.01
T4
X294.8Y40.2
X294.8Y-63.0
X295.5Y41.7
X295.5Y38.7
X295.5Y-61.5
X295.5Y-64.5
X297.0Y42.4
X297.0Y38.0
X297.0Y-60.8
X297.0Y-65.2
X298.5Y41.7
X298.5Y38.7
X298.5Y-61.5
X298.5Y-64.5
X299.2Y40.2
X299.2Y-63.0
X418.8Y40.2
X419.5Y41.7
X419.5Y38.7
X421.0Y42.4
X421.0Y38.0
X422.5Y41.7
X422.5Y38.7
X423.2Y40.2
X424.8Y-166.7
X425.5Y-165.2
X425.5Y-168.2
X427.0Y-164.5
X427.0Y-168.9
X428.5Y-165.2
X428.5Y-168.2
X429.2Y-166.7
X508.8Y38.0
X509.5Y39.5
X509.5Y36.5
X511.0Y40.2
X511.0Y35.8
X512.5Y39.5
X512.5Y36.5
X513.2Y38.0
X520.8Y-63.0
X520.8Y-166.7
X521.5Y-61.5
X521.5Y-64.5
X521.5Y-165.2
X521.5Y-168.2
X523.0Y-60.8
X523.0Y-65.2
X523.0Y-164.5
X523.0Y-168.9
X524.5Y-61.5
X524.5Y-64.5
X524.5Y-165.2
X524.5Y-168.2
X525.2Y-63.0
X525.2Y-166.7
T5
X302.94Y-91.35
X312.254Y-114.265
X343.959Y-169.96
X364.5Y-154.6
X373.209Y-162.834
X379.835Y13.268
X403.3Y-143.302
X418.59Y-95.74
X479.37Y39.52
X496.04Y39.52
T6
X380.0Y40.63
X380.0Y37.43
X380.5Y42.13
X380.5Y38.93
X382.0Y40.63
X382.0Y37.43
X383.0Y42.13
X383.0Y38.93
X384.0Y40.63
X384.0Y37.43
X385.0Y42.13
X385.0Y38.93
X386.0Y40.63
X386.0Y37.43
X387.5Y42.13
X387.5Y38.93
X388.0Y40.63
X388.0Y37.43
X428.165Y-85.9
X428.165Y-87.9
X428.165Y-89.9
X428.165Y-91.9
X428.165Y-93.9
X428.165Y-95.9
X428.165Y-97.9
X428.165Y-99.9
X428.165Y-101.9
X428.165Y-103.9
X428.165Y-105.9
X428.165Y-109.9
X428.165Y-111.9
X428.165Y-113.9
X428.165Y-115.9
X428.165Y-117.9
X430.165Y-86.9
X430.165Y-88.9
X430.165Y-90.9
X430.165Y-92.9
X430.165Y-94.9
X430.165Y-96.9
X430.165Y-98.9
X430.165Y-100.9
X430.165Y-102.9
X430.165Y-104.9
X430.165Y-108.9
X430.165Y-110.9
X430.165Y-112.9
X430.165Y-114.9
X430.165Y-116.9
X430.165Y-118.9
X432.665Y-86.9
X432.665Y-88.9
X432.665Y-90.9
X432.665Y-92.9
X432.665Y-94.9
X432.665Y-96.9
X432.665Y-98.9
X432.665Y-100.9
X432.665Y-102.9
X432.665Y-104.9
X432.665Y-108.9
X432.665Y-110.9
X432.665Y-112.9
X432.665Y-114.9
X432.665Y-116.9
X432.665Y-118.9
X434.665Y-85.9
X434.665Y-87.9
X434.665Y-89.9
X434.665Y-91.9
X434.665Y-93.9
X434.665Y-95.9
X434.665Y-97.9
X434.665Y-99.9
X434.665Y-101.9
X434.665Y-103.9
X434.665Y-105.9
X434.665Y-109.9
X434.665Y-111.9
X434.665Y-113.9
X434.665Y-115.9
X434.665Y-117.9
X463.665Y-85.9
X463.665Y-87.9
X463.665Y-89.9
X463.665Y-91.9
X463.665Y-93.9
X463.665Y-95.9
X463.665Y-97.9
X463.665Y-99.9
X463.665Y-101.9
X463.665Y-103.9
X463.665Y-105.9
X463.665Y-109.9
X463.665Y-111.9
X463.665Y-113.9
X463.665Y-115.9
X463.665Y-117.9
X465.665Y-86.9
X465.665Y-88.9
X465.665Y-90.9
X465.665Y-92.9
X465.665Y-94.9
X465.665Y-96.9
X465.665Y-98.9
X465.665Y-100.9
X465.665Y-102.9
X465.665Y-104.9
X465.665Y-108.9
X465.665Y-110.9
X465.665Y-112.9
X465.665Y-114.9
X465.665Y-116.9
X465.665Y-118.9
X468.165Y-86.9
X468.165Y-88.9
X468.165Y-90.9
X468.165Y-92.9
X468.165Y-94.9
X468.165Y-96.9
X468.165Y-98.9
X468.165Y-100.9
X468.165Y-102.9
X468.165Y-104.9
X468.165Y-108.9
X468.165Y-110.9
X468.165Y-112.9
X468.165Y-114.9
X468.165Y-116.9
X468.165Y-118.9
X470.165Y-85.9
X470.165Y-87.9
X470.165Y-89.9
X470.165Y-91.9
X470.165Y-93.9
X470.165Y-95.9
X470.165Y-97.9
X470.165Y-99.9
X470.165Y-101.9
X470.165Y-103.9
X470.165Y-105.9
X470.165Y-109.9
X470.165Y-111.9
X470.165Y-113.9
X470.165Y-115.9
X470.165Y-117.9
X481.415Y-85.9
X481.415Y-87.9
X481.415Y-89.9
X481.415Y-91.9
X481.415Y-93.9
X481.415Y-95.9
X481.415Y-97.9
X481.415Y-99.9
X481.415Y-101.9
X481.415Y-103.9
X481.415Y-105.9
X481.415Y-109.9
X481.415Y-111.9
X481.415Y-113.9
X481.415Y-115.9
X481.415Y-117.9
X483.415Y-86.9
X483.415Y-88.9
X483.415Y-90.9
X483.415Y-92.9
X483.415Y-94.9
X483.415Y-96.9
X483.415Y-98.9
X483.415Y-100.9
X483.415Y-102.9
X483.415Y-104.9
X483.415Y-108.9
X483.415Y-110.9
X483.415Y-112.9
X483.415Y-114.9
X483.415Y-116.9
X483.415Y-118.9
X485.915Y-86.9
X485.915Y-88.9
X485.915Y-90.9
X485.915Y-92.9
X485.915Y-94.9
X485.915Y-96.9
X485.915Y-98.9
X485.915Y-100.9
X485.915Y-102.9
X485.915Y-104.9
X485.915Y-108.9
X485.915Y-110.9
X485.915Y-112.9
X485.915Y-114.9
X485.915Y-116.9
X485.915Y-118.9
X487.915Y-85.9
X487.915Y-87.9
X487.915Y-89.9
X487.915Y-91.9
X487.915Y-93.9
X487.915Y-95.9
X487.915Y-97.9
X487.915Y-99.9
X487.915Y-101.9
X487.915Y-103.9
X487.915Y-105.9
X487.915Y-109.9
X487.915Y-111.9
X487.915Y-113.9
X487.915Y-115.9
X487.915Y-117.9
X499.165Y-85.9
X499.165Y-87.9
X499.165Y-89.9
X499.165Y-91.9
X499.165Y-93.9
X499.165Y-95.9
X499.165Y-97.9
X499.165Y-99.9
X499.165Y-101.9
X499.165Y-103.9
X499.165Y-105.9
X499.165Y-109.9
X499.165Y-111.9
X499.165Y-113.9
X499.165Y-115.9
X499.165Y-117.9
X501.165Y-86.9
X501.165Y-88.9
X501.165Y-90.9
X501.165Y-92.9
X501.165Y-94.9
X501.165Y-96.9
X501.165Y-98.9
X501.165Y-100.9
X501.165Y-102.9
X501.165Y-104.9
X501.165Y-108.9
X501.165Y-110.9
X501.165Y-112.9
X501.165Y-114.9
X501.165Y-116.9
X501.165Y-118.9
X503.665Y-86.9
X503.665Y-88.9
X503.665Y-90.9
X503.665Y-92.9
X503.665Y-94.9
X503.665Y-96.9
X503.665Y-98.9
X503.665Y-100.9
X503.665Y-102.9
X503.665Y-104.9
X503.665Y-108.9
X503.665Y-110.9
X503.665Y-112.9
X503.665Y-114.9
X503.665Y-116.9
X503.665Y-118.9
X505.665Y-85.9
X505.665Y-87.9
X505.665Y-89.9
X505.665Y-91.9
X505.665Y-93.9
X505.665Y-95.9
X505.665Y-97.9
X505.665Y-99.9
X505.665Y-101.9
X505.665Y-103.9
X505.665Y-105.9
X505.665Y-109.9
X505.665Y-111.9
X505.665Y-113.9
X505.665Y-115.9
X505.665Y-117.9
X516.915Y-85.9
X516.915Y-87.9
X516.915Y-89.9
X516.915Y-91.9
X516.915Y-93.9
X516.915Y-95.9
X516.915Y-97.9
X516.915Y-99.9
X516.915Y-101.9
X516.915Y-103.9
X516.915Y-105.9
X516.915Y-109.9
X516.915Y-111.9
X516.915Y-113.9
X516.915Y-115.9
X516.915Y-117.9
X518.915Y-86.9
X518.915Y-88.9
X518.915Y-90.9
X518.915Y-92.9
X518.915Y-94.9
X518.915Y-96.9
X518.915Y-98.9
X518.915Y-100.9
X518.915Y-102.9
X518.915Y-104.9
X518.915Y-108.9
X518.915Y-110.9
X518.915Y-112.9
X518.915Y-114.9
X518.915Y-116.9
X518.915Y-118.9
X521.415Y-86.9
X521.415Y-88.9
X521.415Y-90.9
X521.415Y-92.9
X521.415Y-94.9
X521.415Y-96.9
X521.415Y-98.9
X521.415Y-100.9
X521.415Y-102.9
X521.415Y-104.9
X521.415Y-108.9
X521.415Y-110.9
X521.415Y-112.9
X521.415Y-114.9
X521.415Y-116.9
X521.415Y-118.9
X523.415Y-85.9
X523.415Y-87.9
X523.415Y-89.9
X523.415Y-91.9
X523.415Y-93.9
X523.415Y-95.9
X523.415Y-97.9
X523.415Y-99.9
X523.415Y-101.9
X523.415Y-103.9
X523.415Y-105.9
X523.415Y-109.9
X523.415Y-111.9
X523.415Y-113.9
X523.415Y-115.9
X523.415Y-117.9
T8
X304.5Y-155.7
X304.5Y-158.2
X304.5Y-160.7
X304.73Y-164.4
X307.27Y-164.4
X307.5Y-155.7
X307.5Y-158.2
X307.5Y-160.7
X378.285Y33.33
X379.555Y30.79
X380.825Y33.33
X382.095Y30.79
X383.365Y33.33
X384.635Y30.79
X385.905Y33.33
X387.175Y30.79
X388.445Y33.33
X389.715Y30.79
T9
X302.697Y-33.14
X310.197Y-33.14
X313.457Y-33.14
X320.957Y-33.14
X343.2Y12.1
X358.2Y12.1
T10
X307.55Y-109.86
X310.03Y-105.48
X310.09Y-109.86
X312.57Y-105.48
X312.63Y-109.86
X314.32Y-172.06
X316.86Y-172.06
X389.5Y-168.3
X394.5Y-168.3
X407.0Y-169.57
X407.0Y-174.57
X424.0Y20.81
X424.0Y18.27
X424.0Y15.73
X424.0Y13.19
X433.5Y-135.95
X433.5Y-138.49
X433.5Y-141.03
X433.5Y-143.57
X433.5Y-146.11
X433.5Y-148.65
X433.5Y-151.19
X433.5Y-153.73
X433.5Y-156.27
X433.5Y-158.81
X436.04Y-135.95
X436.04Y-138.49
X436.04Y-141.03
X436.04Y-143.57
X436.04Y-146.11
X436.04Y-148.65
X436.04Y-151.19
X436.04Y-153.73
X436.04Y-156.27
X436.04Y-158.81
X469.0Y-135.95
X469.0Y-138.49
X469.0Y-141.03
X469.0Y-143.57
X469.0Y-146.11
X469.0Y-148.65
X469.0Y-151.19
X469.0Y-153.73
X469.0Y-156.27
X469.0Y-158.81
X471.54Y-135.95
X471.54Y-138.49
X471.54Y-141.03
X471.54Y-143.57
X471.54Y-146.11
X471.54Y-148.65
X471.54Y-151.19
X471.54Y-153.73
X471.54Y-156.27
X471.54Y-158.81
X484.675Y36.94
X484.675Y34.4
X484.675Y31.86
X504.5Y-135.95
X504.5Y-138.49
X504.5Y-141.03
X504.5Y-143.57
X504.5Y-146.11
X504.5Y-148.65
X504.5Y-151.19
X504.5Y-153.73
X504.5Y-156.27
X504.5Y-158.81
X507.04Y-135.95
X507.04Y-138.49
X507.04Y-141.03
X507.04Y-143.57
X507.04Y-146.11
X507.04Y-148.65
X507.04Y-151.19
X507.04Y-153.73
X507.04Y-156.27
X507.04Y-158.81
T11
X304.337Y13.77
X304.337Y-6.812
X304.337Y-38.229
X319.323Y13.77
X319.323Y-6.812
X319.323Y-38.229
T12
X376.8Y27.95
X379.34Y27.95
X388.66Y27.95
X391.2Y27.95
T13
X325.35Y-41.227
X330.35Y-41.227
X353.87Y-153.22
X397.31Y-101.65
X424.22Y29.41
X479.54Y23.92
T14
X302.83Y-12.16
X302.83Y-28.16
X303.382Y20.565
X305.58Y-12.66
X305.58Y-27.66
X308.02Y-11.27
X308.02Y-29.05
X310.882Y18.265
X311.83Y8.48
X311.83Y-1.68
X315.64Y-11.27
X315.64Y-29.05
X318.08Y-12.66
X318.08Y-27.66
X320.83Y-12.16
X320.83Y-28.16
X321.477Y20.565
X328.977Y18.265
X339.573Y20.565
X347.073Y18.265
X387.0Y-170.9
X392.0Y-170.9
X397.0Y-170.9
T15
X375.35Y1.99
X382.1Y1.99
T16
X318.55Y-49.01
X318.55Y-61.01
X318.55Y-64.74
X318.55Y-76.74
X330.75Y-49.01
X330.75Y-61.01
X330.75Y-64.74
X330.75Y-76.74
X332.75Y-55.01
X332.75Y-70.74
X420.526Y-40.333
X420.526Y-60.333
X441.358Y-132.59
X441.358Y-137.63
X441.358Y-142.67
X441.358Y-157.96
X448.918Y-132.59
X448.918Y-137.63
X448.918Y-142.67
X448.918Y-157.96
X454.108Y-132.59
X454.108Y-137.63
X454.108Y-142.67
X454.108Y-157.96
X461.668Y-132.59
X461.668Y-137.63
X461.668Y-142.67
X461.668Y-157.96
X476.82Y-132.63
X476.82Y-137.67
X476.82Y-142.71
X476.82Y-158.0
X484.38Y-132.63
X484.38Y-137.67
X484.38Y-142.71
X484.38Y-158.0
X489.62Y-132.63
X489.62Y-137.67
X489.62Y-142.71
X489.62Y-158.0
X497.18Y-132.63
X497.18Y-137.67
X497.18Y-142.71
X497.18Y-158.0
X512.392Y-132.59
X512.392Y-137.63
X512.392Y-142.67
X512.392Y-157.96
X519.952Y-132.59
X519.952Y-137.63
X519.952Y-142.67
X519.952Y-157.96
T17
X434.5Y45.75
X438.0Y45.75
X441.5Y45.75
X445.0Y45.75
X448.5Y45.75
X452.0Y45.75
X455.5Y45.75
X459.0Y45.75
X462.5Y45.75
X466.0Y45.75
X481.0Y45.75
X484.5Y45.75
X488.0Y45.75
X491.5Y45.75
X495.0Y45.75
X498.5Y45.75
X502.0Y45.75
X505.5Y45.75
X509.0Y45.75
X512.5Y45.75
T18
X318.45Y36.0
X318.45Y33.6
X325.45Y36.0
X325.45Y33.6
X332.45Y36.0
X332.45Y33.6
T19
X303.0Y-47.0
X303.0Y-59.871
X303.0Y-72.742
X306.96Y-47.0
X306.96Y-59.871
X306.96Y-72.742
X310.92Y-47.0
X310.92Y-59.871
X310.92Y-72.742
X358.66Y45.26
X358.66Y41.3
X358.66Y37.34
T20
X367.3Y44.9
X367.3Y39.82
T21
X417.5Y-160.2
X417.5Y-175.5
T22
X384.0Y-167.8
X400.0Y-167.8
T23
X340.85Y-74.01
X346.35Y-74.01
T24
X374.55Y46.76
X374.55Y33.42
X377.43Y44.13
X377.43Y38.45
X390.57Y44.13
X390.57Y38.45
X393.45Y46.76
X393.45Y35.15
T25
X297.0Y40.2
X297.0Y-63.0
X297.0Y-166.7
X421.0Y40.2
X427.0Y-166.7
X511.0Y38.0
X523.0Y-63.0
X523.0Y-166.7
T26
X326.5Y-120.25
X326.5Y-132.25
X326.5Y-150.25
X326.5Y-170.25
T4
G00X359.51Y-176.7
M15
G01X359.51Y-177.3
M16
G05
G00X359.87Y-172.3
M15
G01X359.87Y-172.9
M16
G05
G00X368.13Y-172.3
M15
G01X368.13Y-172.9
M16
G05
G00X368.49Y-176.7
M15
G01X368.49Y-177.3
M16
G05
T7
G00X401.9Y48.05
M15
G01X401.9Y48.55
M16
G05
G00X402.5Y43.15
M15
G01X402.5Y43.65
M16
G05
G00X417.0Y43.15
M15
G01X417.0Y43.65
M16
G05
G00X417.6Y48.05
M15
G01X417.6Y48.55
M16
G05
M30
