%TF.GenerationSoftware,KiCad,Pcbnew,10.0.4-10.0.4~ubuntu24.04.1*%
%TF.CreationDate,2026-07-17T10:44:21+02:00*%
%TF.ProjectId,BB3plus mainboard,42423370-6c75-4732-906d-61696e626f61,r1B1*%
%TF.SameCoordinates,Original*%
%TF.FileFunction,Soldermask,Top*%
%TF.FilePolarity,Negative*%
%FSLAX46Y46*%
G04 Gerber Fmt 4.6, Leading zero omitted, Abs format (unit mm)*
G04 Created by KiCad (PCBNEW 10.0.4-10.0.4~ubuntu24.04.1) date 2026-07-17 10:44:21*
%MOMM*%
%LPD*%
G01*
G04 APERTURE LIST*
G04 Aperture macros list*
%AMRoundRect*
0 Rectangle with rounded corners*
0 $1 Rounding radius*
0 $2 $3 $4 $5 $6 $7 $8 $9 X,Y pos of 4 corners*
0 Add a 4 corners polygon primitive as box body*
4,1,4,$2,$3,$4,$5,$6,$7,$8,$9,$2,$3,0*
0 Add four circle primitives for the rounded corners*
1,1,$1+$1,$2,$3*
1,1,$1+$1,$4,$5*
1,1,$1+$1,$6,$7*
1,1,$1+$1,$8,$9*
0 Add four rect primitives between the rounded corners*
20,1,$1+$1,$2,$3,$4,$5,0*
20,1,$1+$1,$4,$5,$6,$7,0*
20,1,$1+$1,$6,$7,$8,$9,0*
20,1,$1+$1,$8,$9,$2,$3,0*%
%AMFreePoly0*
4,1,17,0.355561,0.794901,0.794901,0.355561,0.813500,0.310660,0.813500,-0.310660,0.794901,-0.355561,0.355561,-0.794901,0.310660,-0.813500,-0.310660,-0.813500,-0.355561,-0.794901,-0.794901,-0.355561,-0.813500,-0.310660,-0.813500,0.310660,-0.794901,0.355561,-0.355561,0.794901,-0.310660,0.813500,0.310660,0.813500,0.355561,0.794901,0.355561,0.794901,$1*%
%AMFreePoly1*
4,1,17,0.328969,0.730701,0.730701,0.328969,0.749300,0.284068,0.749300,-0.284068,0.730701,-0.328969,0.328969,-0.730701,0.284068,-0.749300,-0.284068,-0.749300,-0.328969,-0.730701,-0.730701,-0.328969,-0.749300,-0.284068,-0.749300,0.284068,-0.730701,0.328969,-0.328969,0.730701,-0.284068,0.749300,0.284068,0.749300,0.328969,0.730701,0.328969,0.730701,$1*%
%AMFreePoly2*
4,1,17,0.413137,0.933901,0.933901,0.413137,0.952500,0.368236,0.952500,-0.368236,0.933901,-0.413137,0.413137,-0.933901,0.368236,-0.952500,-0.368236,-0.952500,-0.413137,-0.933901,-0.933901,-0.413137,-0.952500,-0.368236,-0.952500,0.368236,-0.933901,0.413137,-0.413137,0.933901,-0.368236,0.952500,0.368236,0.952500,0.413137,0.933901,0.413137,0.933901,$1*%
%AMFreePoly3*
4,1,17,0.360532,0.806901,0.806901,0.360532,0.825500,0.315631,0.825500,-0.315631,0.806901,-0.360532,0.360532,-0.806901,0.315631,-0.825500,-0.315631,-0.825500,-0.360532,-0.806901,-0.806901,-0.360532,-0.825500,-0.315631,-0.825500,0.315631,-0.806901,0.360532,-0.360532,0.806901,-0.315631,0.825500,0.315631,0.825500,0.360532,0.806901,0.360532,0.806901,$1*%
%AMFreePoly4*
4,1,17,0.570952,1.314901,1.314901,0.570952,1.333500,0.526051,1.333500,-0.526051,1.314901,-0.570952,0.570952,-1.314901,0.526051,-1.333500,-0.526051,-1.333500,-0.570952,-1.314901,-1.314901,-0.570952,-1.333500,-0.526051,-1.333500,0.526051,-1.314901,0.570952,-0.570952,1.314901,-0.526051,1.333500,0.526051,1.333500,0.570952,1.314901,0.570952,1.314901,$1*%
G04 Aperture macros list end*
%ADD10C,0.100000*%
%ADD11C,0.000000*%
%ADD12C,0.010000*%
%ADD13C,6.100000*%
%ADD14R,0.700000X0.200000*%
%ADD15R,1.400000X1.400000*%
%ADD16C,1.400000*%
%ADD17RoundRect,0.114300X0.276200X0.099600X-0.276200X0.099600X-0.276200X-0.099600X0.276200X-0.099600X0*%
%ADD18RoundRect,0.114300X0.649200X0.649200X-0.649200X0.649200X-0.649200X-0.649200X0.649200X-0.649200X0*%
%ADD19RoundRect,0.200000X0.200000X0.275000X-0.200000X0.275000X-0.200000X-0.275000X0.200000X-0.275000X0*%
%ADD20RoundRect,0.225000X-0.250000X0.225000X-0.250000X-0.225000X0.250000X-0.225000X0.250000X0.225000X0*%
%ADD21RoundRect,0.225000X0.225000X0.250000X-0.225000X0.250000X-0.225000X-0.250000X0.225000X-0.250000X0*%
%ADD22RoundRect,0.200000X-0.200000X-0.275000X0.200000X-0.275000X0.200000X0.275000X-0.200000X0.275000X0*%
%ADD23RoundRect,0.250000X0.325000X0.650000X-0.325000X0.650000X-0.325000X-0.650000X0.325000X-0.650000X0*%
%ADD24RoundRect,0.102000X1.250000X1.750000X-1.250000X1.750000X-1.250000X-1.750000X1.250000X-1.750000X0*%
%ADD25O,2.704000X3.704000*%
%ADD26RoundRect,0.050800X-0.150000X-0.900000X0.150000X-0.900000X0.150000X0.900000X-0.150000X0.900000X0*%
%ADD27C,0.600000*%
%ADD28O,1.004000X1.604000*%
%ADD29O,2.704000X2.004000*%
%ADD30C,2.744000*%
%ADD31R,2.850000X3.100000*%
%ADD32R,0.812800X0.200000*%
%ADD33R,0.203200X0.600000*%
%ADD34RoundRect,0.225000X0.250000X-0.225000X0.250000X0.225000X-0.250000X0.225000X-0.250000X-0.225000X0*%
%ADD35RoundRect,0.250000X-0.475000X0.250000X-0.475000X-0.250000X0.475000X-0.250000X0.475000X0.250000X0*%
%ADD36RoundRect,0.200000X0.275000X-0.200000X0.275000X0.200000X-0.275000X0.200000X-0.275000X-0.200000X0*%
%ADD37RoundRect,0.102000X-1.500000X-0.800000X1.500000X-0.800000X1.500000X0.800000X-1.500000X0.800000X0*%
%ADD38RoundRect,0.140000X-0.140000X-0.170000X0.140000X-0.170000X0.140000X0.170000X-0.140000X0.170000X0*%
%ADD39RoundRect,0.200000X-0.275000X0.200000X-0.275000X-0.200000X0.275000X-0.200000X0.275000X0.200000X0*%
%ADD40R,0.300000X1.000000*%
%ADD41R,2.000000X1.300000*%
%ADD42RoundRect,0.250000X-0.262500X-0.450000X0.262500X-0.450000X0.262500X0.450000X-0.262500X0.450000X0*%
%ADD43FreePoly0,90.000000*%
%ADD44R,0.762000X0.254000*%
%ADD45R,0.254000X0.762000*%
%ADD46R,1.701800X2.209800*%
%ADD47R,2.895600X1.651000*%
%ADD48RoundRect,0.114300X-0.649200X-0.649200X0.649200X-0.649200X0.649200X0.649200X-0.649200X0.649200X0*%
%ADD49C,2.667000*%
%ADD50RoundRect,0.250000X0.650000X-0.325000X0.650000X0.325000X-0.650000X0.325000X-0.650000X-0.325000X0*%
%ADD51RoundRect,0.300000X2.700000X2.700000X-2.700000X2.700000X-2.700000X-2.700000X2.700000X-2.700000X0*%
%ADD52FreePoly1,0.000000*%
%ADD53RoundRect,0.114300X0.499200X-0.449200X0.499200X0.449200X-0.499200X0.449200X-0.499200X-0.449200X0*%
%ADD54C,1.270000*%
%ADD55RoundRect,0.102000X0.550000X0.750000X-0.550000X0.750000X-0.550000X-0.750000X0.550000X-0.750000X0*%
%ADD56O,1.304000X1.704000*%
%ADD57O,1.404000X1.804000*%
%ADD58RoundRect,0.102000X0.600000X0.800000X-0.600000X0.800000X-0.600000X-0.800000X0.600000X-0.800000X0*%
%ADD59C,2.559000*%
%ADD60C,3.530000*%
%ADD61RoundRect,0.114300X-0.699200X1.949200X-0.699200X-1.949200X0.699200X-1.949200X0.699200X1.949200X0*%
%ADD62C,0.800000*%
%ADD63C,5.500000*%
%ADD64RoundRect,0.114300X-0.649200X0.449200X-0.649200X-0.449200X0.649200X-0.449200X0.649200X0.449200X0*%
%ADD65RoundRect,0.140000X-0.170000X0.140000X-0.170000X-0.140000X0.170000X-0.140000X0.170000X0.140000X0*%
%ADD66C,1.500000*%
%ADD67R,1.016000X1.295400*%
%ADD68C,3.127000*%
%ADD69C,2.077000*%
%ADD70RoundRect,0.250000X0.475000X-0.250000X0.475000X0.250000X-0.475000X0.250000X-0.475000X-0.250000X0*%
%ADD71C,2.350000*%
%ADD72RoundRect,0.102000X-0.604000X0.604000X-0.604000X-0.604000X0.604000X-0.604000X0.604000X0.604000X0*%
%ADD73C,1.412000*%
%ADD74FreePoly2,0.000000*%
%ADD75C,1.905000*%
%ADD76RoundRect,0.114300X-0.355600X-0.063500X0.355600X-0.063500X0.355600X0.063500X-0.355600X0.063500X0*%
%ADD77C,3.500000*%
%ADD78O,2.400000X4.500000*%
%ADD79RoundRect,0.225000X-0.225000X-0.250000X0.225000X-0.250000X0.225000X0.250000X-0.225000X0.250000X0*%
%ADD80RoundRect,0.123536X-0.701964X-0.270164X0.701964X-0.270164X0.701964X0.270164X-0.701964X0.270164X0*%
%ADD81C,1.927000*%
%ADD82C,1.627000*%
%ADD83C,3.089000*%
%ADD84R,0.762000X1.092200*%
%ADD85FreePoly3,0.000000*%
%ADD86RoundRect,0.140000X0.170000X-0.140000X0.170000X0.140000X-0.170000X0.140000X-0.170000X-0.140000X0*%
%ADD87RoundRect,0.114300X-0.449200X-0.499200X0.449200X-0.499200X0.449200X0.499200X-0.449200X0.499200X0*%
%ADD88R,1.168400X0.304800*%
%ADD89R,0.203200X0.711200*%
%ADD90RoundRect,0.102000X-0.700000X-1.050000X0.700000X-1.050000X0.700000X1.050000X-0.700000X1.050000X0*%
%ADD91RoundRect,0.250000X0.450000X-0.262500X0.450000X0.262500X-0.450000X0.262500X-0.450000X-0.262500X0*%
%ADD92C,1.150000*%
%ADD93C,7.400000*%
%ADD94C,1.650000*%
%ADD95RoundRect,0.050800X-0.150000X-0.775000X0.150000X-0.775000X0.150000X0.775000X-0.150000X0.775000X0*%
%ADD96RoundRect,0.050800X-0.600000X-1.375000X0.600000X-1.375000X0.600000X1.375000X-0.600000X1.375000X0*%
%ADD97C,1.250000*%
%ADD98RoundRect,0.063500X0.838200X0.838200X-0.838200X0.838200X-0.838200X-0.838200X0.838200X-0.838200X0*%
%ADD99C,1.803400*%
%ADD100RoundRect,0.250000X0.262500X0.450000X-0.262500X0.450000X-0.262500X-0.450000X0.262500X-0.450000X0*%
%ADD101RoundRect,0.170000X0.680000X-0.680000X0.680000X0.680000X-0.680000X0.680000X-0.680000X-0.680000X0*%
%ADD102C,1.700000*%
%ADD103RoundRect,0.250000X0.250000X0.475000X-0.250000X0.475000X-0.250000X-0.475000X0.250000X-0.475000X0*%
%ADD104RoundRect,0.114300X-0.249200X-0.449200X0.249200X-0.449200X0.249200X0.449200X-0.249200X0.449200X0*%
%ADD105O,3.727000X1.927000*%
%ADD106R,2.200000X2.200000*%
%ADD107C,2.200000*%
%ADD108R,1.092200X0.762000*%
%ADD109RoundRect,0.114300X-0.228600X0.685800X-0.228600X-0.685800X0.228600X-0.685800X0.228600X0.685800X0*%
%ADD110R,1.800000X1.000000*%
%ADD111RoundRect,0.123536X-0.270164X0.701964X-0.270164X-0.701964X0.270164X-0.701964X0.270164X0.701964X0*%
%ADD112RoundRect,0.114300X0.228600X-0.685800X0.228600X0.685800X-0.228600X0.685800X-0.228600X-0.685800X0*%
%ADD113RoundRect,0.114300X0.063500X-0.355600X0.063500X0.355600X-0.063500X0.355600X-0.063500X-0.355600X0*%
%ADD114RoundRect,0.114300X0.649200X-0.649200X0.649200X0.649200X-0.649200X0.649200X-0.649200X-0.649200X0*%
%ADD115R,0.203200X0.900000*%
%ADD116R,0.900000X0.203200*%
%ADD117R,8.102600X8.102600*%
%ADD118RoundRect,0.114300X0.149200X0.374200X-0.149200X0.374200X-0.149200X-0.374200X0.149200X-0.374200X0*%
%ADD119FreePoly4,0.000000*%
%ADD120RoundRect,0.250000X-0.250000X-0.475000X0.250000X-0.475000X0.250000X0.475000X-0.250000X0.475000X0*%
%ADD121O,1.700000X1.700000*%
%ADD122RoundRect,0.102000X0.700000X-0.600000X0.700000X0.600000X-0.700000X0.600000X-0.700000X-0.600000X0*%
%ADD123RoundRect,0.114300X0.249200X-0.724200X0.249200X0.724200X-0.249200X0.724200X-0.249200X-0.724200X0*%
%ADD124RoundRect,0.141900X-0.660100X-0.245100X0.660100X-0.245100X0.660100X0.245100X-0.660100X0.245100X0*%
%ADD125RoundRect,0.102000X1.500000X0.800000X-1.500000X0.800000X-1.500000X-0.800000X1.500000X-0.800000X0*%
%ADD126FreePoly3,180.000000*%
%ADD127R,1.525000X0.450000*%
%ADD128R,2.870000X6.500000*%
%ADD129RoundRect,0.114300X0.165100X-0.628650X0.165100X0.628650X-0.165100X0.628650X-0.165100X-0.628650X0*%
%ADD130C,2.387600*%
%ADD131C,0.990600*%
%ADD132RoundRect,0.457200X-0.000010X-0.000010X0.000010X-0.000010X0.000010X0.000010X-0.000010X0.000010X0*%
%ADD133RoundRect,0.050000X-0.050000X0.350000X-0.050000X-0.350000X0.050000X-0.350000X0.050000X0.350000X0*%
%ADD134RoundRect,0.050000X-0.350000X0.050000X-0.350000X-0.050000X0.350000X-0.050000X0.350000X0.050000X0*%
%ADD135R,1.750000X0.950000*%
%ADD136RoundRect,0.250000X-0.450000X0.262500X-0.450000X-0.262500X0.450000X-0.262500X0.450000X0.262500X0*%
%ADD137RoundRect,0.114300X0.228600X-1.104900X0.228600X1.104900X-0.228600X1.104900X-0.228600X-1.104900X0*%
%ADD138RoundRect,0.140000X0.140000X0.170000X-0.140000X0.170000X-0.140000X-0.170000X0.140000X-0.170000X0*%
%ADD139RoundRect,0.114300X0.449200X0.499200X-0.449200X0.499200X-0.449200X-0.499200X0.449200X-0.499200X0*%
%ADD140RoundRect,0.102000X-0.940500X0.940500X-0.940500X-0.940500X0.940500X-0.940500X0.940500X0.940500X0*%
%ADD141C,2.085000*%
%ADD142C,3.474000*%
%ADD143RoundRect,0.102000X1.050000X1.050000X-1.050000X1.050000X-1.050000X-1.050000X1.050000X-1.050000X0*%
%ADD144C,2.304000*%
%ADD145RoundRect,0.114300X0.330200X-1.574800X0.330200X1.574800X-0.330200X1.574800X-0.330200X-1.574800X0*%
%ADD146R,0.304800X1.168400*%
%ADD147RoundRect,0.114300X-1.193800X0.330200X-1.193800X-0.330200X1.193800X-0.330200X1.193800X0.330200X0*%
%ADD148RoundRect,0.114300X-2.799200X2.699200X-2.799200X-2.699200X2.799200X-2.699200X2.799200X2.699200X0*%
%ADD149RoundRect,0.123536X0.270164X-0.701964X0.270164X0.701964X-0.270164X0.701964X-0.270164X-0.701964X0*%
%ADD150RoundRect,0.123536X0.701964X0.270164X-0.701964X0.270164X-0.701964X-0.270164X0.701964X-0.270164X0*%
%ADD151RoundRect,0.114300X1.574800X0.330200X-1.574800X0.330200X-1.574800X-0.330200X1.574800X-0.330200X0*%
%ADD152RoundRect,0.102000X1.750000X-1.250000X1.750000X1.250000X-1.750000X1.250000X-1.750000X-1.250000X0*%
%ADD153O,3.704000X2.704000*%
%ADD154R,3.100000X2.850000*%
%ADD155RoundRect,0.102000X-0.350000X-0.210000X0.350000X-0.210000X0.350000X0.210000X-0.350000X0.210000X0*%
%ADD156RoundRect,0.102000X-0.850000X-1.185000X0.850000X-1.185000X0.850000X1.185000X-0.850000X1.185000X0*%
%ADD157RoundRect,0.102000X-0.225000X-0.210000X0.225000X-0.210000X0.225000X0.210000X-0.225000X0.210000X0*%
%ADD158RoundRect,0.114300X0.449200X-0.849200X0.449200X0.849200X-0.449200X0.849200X-0.449200X-0.849200X0*%
%ADD159C,2.540000*%
%ADD160RoundRect,0.114300X-0.499200X0.449200X-0.499200X-0.449200X0.499200X-0.449200X0.499200X0.449200X0*%
%ADD161RoundRect,0.114300X0.123800X-0.377400X0.123800X0.377400X-0.123800X0.377400X-0.123800X-0.377400X0*%
%ADD162RoundRect,0.250000X-0.325000X-0.650000X0.325000X-0.650000X0.325000X0.650000X-0.325000X0.650000X0*%
%ADD163C,2.800000*%
%ADD164R,1.193800X0.304800*%
%ADD165R,0.304800X1.193800*%
%ADD166RoundRect,0.114300X-0.276200X-0.099600X0.276200X-0.099600X0.276200X0.099600X-0.276200X0.099600X0*%
%ADD167RoundRect,0.114300X0.533400X0.076200X-0.533400X0.076200X-0.533400X-0.076200X0.533400X-0.076200X0*%
%ADD168R,0.300000X2.100000*%
%ADD169O,1.404000X2.004000*%
%ADD170RoundRect,0.300000X-2.700000X-2.700000X2.700000X-2.700000X2.700000X2.700000X-2.700000X2.700000X0*%
G04 APERTURE END LIST*
D10*
X434644500Y-164064750D02*
X436740000Y-164064750D01*
X436740000Y-169335250D01*
X434644500Y-169335250D01*
X434644500Y-164064750D01*
G36*
X434644500Y-164064750D02*
G01*
X436740000Y-164064750D01*
X436740000Y-169335250D01*
X434644500Y-169335250D01*
X434644500Y-164064750D01*
G37*
D11*
%TO.C,JP5*%
G36*
X311825200Y-91916700D02*
G01*
X311164800Y-91916700D01*
X311164800Y-91383300D01*
X311825200Y-91383300D01*
X311825200Y-91916700D01*
G37*
%TO.C,IC9*%
G36*
X308005034Y-127373386D02*
G01*
X307243034Y-127373386D01*
X307243034Y-127119386D01*
X307751032Y-127119386D01*
X307751032Y-126611386D01*
X308005032Y-126611386D01*
X308005034Y-127373386D01*
G37*
G36*
X308005032Y-130882142D02*
G01*
X307751032Y-130882142D01*
X307751032Y-130374142D01*
X307243034Y-130374142D01*
X307243034Y-130120142D01*
X308005034Y-130120142D01*
X308005032Y-130882142D01*
G37*
G36*
X310647038Y-127119386D02*
G01*
X311155036Y-127119386D01*
X311155036Y-127373386D01*
X310393036Y-127373386D01*
X310393038Y-126611386D01*
X310647038Y-126611386D01*
X310647038Y-127119386D01*
G37*
G36*
X311155036Y-130374142D02*
G01*
X310647038Y-130374142D01*
X310647038Y-130882142D01*
X310393038Y-130882142D01*
X310393036Y-130120142D01*
X311155036Y-130120142D01*
X311155036Y-130374142D01*
G37*
%TO.C,JP7*%
G36*
X390152818Y-104655123D02*
G01*
X389619418Y-104655123D01*
X389619418Y-103994723D01*
X390152818Y-103994723D01*
X390152818Y-104655123D01*
G37*
%TO.C,JP12*%
G36*
X417522374Y-108400558D02*
G01*
X416861974Y-108400558D01*
X416861974Y-107867158D01*
X417522374Y-107867158D01*
X417522374Y-108400558D01*
G37*
%TO.C,JP4*%
G36*
X381060000Y-96611668D02*
G01*
X380526600Y-96611668D01*
X380526600Y-95951268D01*
X381060000Y-95951268D01*
X381060000Y-96611668D01*
G37*
%TO.C,JP13*%
G36*
X399995200Y15673300D02*
G01*
X399334800Y15673300D01*
X399334800Y16206700D01*
X399995200Y16206700D01*
X399995200Y15673300D01*
G37*
%TO.C,JP14*%
G36*
X393706700Y-125565200D02*
G01*
X393173300Y-125565200D01*
X393173300Y-124904800D01*
X393706700Y-124904800D01*
X393706700Y-125565200D01*
G37*
D12*
%TO.C,IC6*%
X410988318Y-98199999D02*
X410248318Y-98199999D01*
X410248318Y-97749999D01*
X410988318Y-97749999D01*
X410988318Y-98199999D01*
G36*
X410988318Y-98199999D02*
G01*
X410248318Y-98199999D01*
X410248318Y-97749999D01*
X410988318Y-97749999D01*
X410988318Y-98199999D01*
G37*
X410988318Y-98849999D02*
X410248318Y-98849999D01*
X410248318Y-98399999D01*
X410988318Y-98399999D01*
X410988318Y-98849999D01*
G36*
X410988318Y-98849999D02*
G01*
X410248318Y-98849999D01*
X410248318Y-98399999D01*
X410988318Y-98399999D01*
X410988318Y-98849999D01*
G37*
X410988318Y-99499999D02*
X410248318Y-99499999D01*
X410248318Y-99049999D01*
X410988318Y-99049999D01*
X410988318Y-99499999D01*
G36*
X410988318Y-99499999D02*
G01*
X410248318Y-99499999D01*
X410248318Y-99049999D01*
X410988318Y-99049999D01*
X410988318Y-99499999D01*
G37*
X410988318Y-100149999D02*
X410248318Y-100149999D01*
X410248318Y-99699999D01*
X410988318Y-99699999D01*
X410988318Y-100149999D01*
G36*
X410988318Y-100149999D02*
G01*
X410248318Y-100149999D01*
X410248318Y-99699999D01*
X410988318Y-99699999D01*
X410988318Y-100149999D01*
G37*
X413788318Y-98199999D02*
X413048318Y-98199999D01*
X413048318Y-97749999D01*
X413788318Y-97749999D01*
X413788318Y-98199999D01*
G36*
X413788318Y-98199999D02*
G01*
X413048318Y-98199999D01*
X413048318Y-97749999D01*
X413788318Y-97749999D01*
X413788318Y-98199999D01*
G37*
X413788318Y-98849999D02*
X413048318Y-98849999D01*
X413048318Y-98399999D01*
X413788318Y-98399999D01*
X413788318Y-98849999D01*
G36*
X413788318Y-98849999D02*
G01*
X413048318Y-98849999D01*
X413048318Y-98399999D01*
X413788318Y-98399999D01*
X413788318Y-98849999D01*
G37*
X413788318Y-99499999D02*
X413048318Y-99499999D01*
X413048318Y-99049999D01*
X413788318Y-99049999D01*
X413788318Y-99499999D01*
G36*
X413788318Y-99499999D02*
G01*
X413048318Y-99499999D01*
X413048318Y-99049999D01*
X413788318Y-99049999D01*
X413788318Y-99499999D01*
G37*
X413788318Y-100149999D02*
X413048318Y-100149999D01*
X413048318Y-99699999D01*
X413788318Y-99699999D01*
X413788318Y-100149999D01*
G36*
X413788318Y-100149999D02*
G01*
X413048318Y-100149999D01*
X413048318Y-99699999D01*
X413788318Y-99699999D01*
X413788318Y-100149999D01*
G37*
X412838318Y-99894999D02*
X412528318Y-99894999D01*
X412528318Y-100719999D01*
X412158318Y-100719999D01*
X412158318Y-99894999D01*
X411878318Y-99894999D01*
X411878318Y-100719999D01*
X411508318Y-100719999D01*
X411508318Y-99894999D01*
X411198318Y-99894999D01*
X411198318Y-98004999D01*
X411508318Y-98004999D01*
X411508318Y-97179999D01*
X411878318Y-97179999D01*
X411878318Y-98004999D01*
X412158318Y-98004999D01*
X412158318Y-97179999D01*
X412528318Y-97179999D01*
X412528318Y-98004999D01*
X412838318Y-98004999D01*
X412838318Y-99894999D01*
G36*
X411878318Y-98004999D02*
G01*
X412158318Y-98004999D01*
X412158318Y-97179999D01*
X412528318Y-97179999D01*
X412528318Y-98004999D01*
X412838318Y-98004999D01*
X412838318Y-99894999D01*
X412528318Y-99894999D01*
X412528318Y-100719999D01*
X412158318Y-100719999D01*
X412158318Y-99894999D01*
X411878318Y-99894999D01*
X411878318Y-100719999D01*
X411508318Y-100719999D01*
X411508318Y-99894999D01*
X411198318Y-99894999D01*
X411198318Y-98004999D01*
X411508318Y-98004999D01*
X411508318Y-97179999D01*
X411878318Y-97179999D01*
X411878318Y-98004999D01*
G37*
D11*
%TO.C,JP15*%
G36*
X381335200Y-140246700D02*
G01*
X380674800Y-140246700D01*
X380674800Y-139713300D01*
X381335200Y-139713300D01*
X381335200Y-140246700D01*
G37*
%TO.C,JP6*%
G36*
X412955200Y-75359843D02*
G01*
X412294800Y-75359843D01*
X412294800Y-74826443D01*
X412955200Y-74826443D01*
X412955200Y-75359843D01*
G37*
%TD*%
D13*
%TO.C,Module1*%
X376000000Y-137250000D03*
X376000000Y-89250000D03*
X343000000Y-137250000D03*
X343000000Y-89250000D03*
%TD*%
D14*
%TO.C,X2*%
X374920000Y-105950000D03*
X378000000Y-105950000D03*
X374920000Y-106350000D03*
X378000000Y-106350000D03*
X374920000Y-106750000D03*
X378000000Y-106750000D03*
X374920000Y-107150000D03*
X378000000Y-107150000D03*
X374920000Y-107550000D03*
X378000000Y-107550000D03*
X374920000Y-107950000D03*
X378000000Y-107950000D03*
X374920000Y-108350000D03*
X378000000Y-108350000D03*
X374920000Y-108750000D03*
X378000000Y-108750000D03*
X374920000Y-109150000D03*
X378000000Y-109150000D03*
X374920000Y-109550000D03*
X378000000Y-109550000D03*
X374920000Y-109950000D03*
X378000000Y-109950000D03*
X374920000Y-110350000D03*
X378000000Y-110350000D03*
X374920000Y-110750000D03*
X378000000Y-110750000D03*
X374920000Y-111150000D03*
X378000000Y-111150000D03*
X374920000Y-111550000D03*
X378000000Y-111550000D03*
X374920000Y-111950000D03*
X378000000Y-111950000D03*
X374920000Y-112350000D03*
X378000000Y-112350000D03*
X374920000Y-112750000D03*
X378000000Y-112750000D03*
X374920000Y-113150000D03*
X378000000Y-113150000D03*
X374920000Y-113550000D03*
X378000000Y-113550000D03*
X374920000Y-113950000D03*
X378000000Y-113950000D03*
X374920000Y-114350000D03*
X378000000Y-114350000D03*
X374920000Y-114750000D03*
X378000000Y-114750000D03*
X374920000Y-115150000D03*
X378000000Y-115150000D03*
X374920000Y-115550000D03*
X378000000Y-115550000D03*
X374920000Y-115950000D03*
X378000000Y-115950000D03*
X374920000Y-116350000D03*
X378000000Y-116350000D03*
X374920000Y-116750000D03*
X378000000Y-116750000D03*
X374920000Y-117150000D03*
X378000000Y-117150000D03*
X374920000Y-117550000D03*
X378000000Y-117550000D03*
X374920000Y-117950000D03*
X378000000Y-117950000D03*
X374920000Y-118350000D03*
X378000000Y-118350000D03*
X374920000Y-118750000D03*
X378000000Y-118750000D03*
X374920000Y-119150000D03*
X378000000Y-119150000D03*
X374920000Y-119550000D03*
X378000000Y-119550000D03*
X374920000Y-119950000D03*
X378000000Y-119950000D03*
X374920000Y-120350000D03*
X378000000Y-120350000D03*
X374920000Y-120750000D03*
X378000000Y-120750000D03*
X374920000Y-121150000D03*
X378000000Y-121150000D03*
X374920000Y-121550000D03*
X378000000Y-121550000D03*
X374920000Y-121950000D03*
X378000000Y-121950000D03*
X374920000Y-122350000D03*
X378000000Y-122350000D03*
X374920000Y-122750000D03*
X378000000Y-122750000D03*
X374920000Y-123150000D03*
X378000000Y-123150000D03*
X374920000Y-123550000D03*
X378000000Y-123550000D03*
X374920000Y-123950000D03*
X378000000Y-123950000D03*
X374920000Y-124350000D03*
X378000000Y-124350000D03*
X374920000Y-124750000D03*
X378000000Y-124750000D03*
X374920000Y-125150000D03*
X378000000Y-125150000D03*
X374920000Y-125550000D03*
X378000000Y-125550000D03*
%TD*%
%TO.C,X1*%
X341000000Y-105950000D03*
X344080000Y-105950000D03*
X341000000Y-106350000D03*
X344080000Y-106350000D03*
X341000000Y-106750000D03*
X344080000Y-106750000D03*
X341000000Y-107150000D03*
X344080000Y-107150000D03*
X341000000Y-107550000D03*
X344080000Y-107550000D03*
X341000000Y-107950000D03*
X344080000Y-107950000D03*
X341000000Y-108350000D03*
X344080000Y-108350000D03*
X341000000Y-108750000D03*
X344080000Y-108750000D03*
X341000000Y-109150000D03*
X344080000Y-109150000D03*
X341000000Y-109550000D03*
X344080000Y-109550000D03*
X341000000Y-109950000D03*
X344080000Y-109950000D03*
X341000000Y-110350000D03*
X344080000Y-110350000D03*
X341000000Y-110750000D03*
X344080000Y-110750000D03*
X341000000Y-111150000D03*
X344080000Y-111150000D03*
X341000000Y-111550000D03*
X344080000Y-111550000D03*
X341000000Y-111950000D03*
X344080000Y-111950000D03*
X341000000Y-112350000D03*
X344080000Y-112350000D03*
X341000000Y-112750000D03*
X344080000Y-112750000D03*
X341000000Y-113150000D03*
X344080000Y-113150000D03*
X341000000Y-113550000D03*
X344080000Y-113550000D03*
X341000000Y-113950000D03*
X344080000Y-113950000D03*
X341000000Y-114350000D03*
X344080000Y-114350000D03*
X341000000Y-114750000D03*
X344080000Y-114750000D03*
X341000000Y-115150000D03*
X344080000Y-115150000D03*
X341000000Y-115550000D03*
X344080000Y-115550000D03*
X341000000Y-115950000D03*
X344080000Y-115950000D03*
X341000000Y-116350000D03*
X344080000Y-116350000D03*
X341000000Y-116750000D03*
X344080000Y-116750000D03*
X341000000Y-117150000D03*
X344080000Y-117150000D03*
X341000000Y-117550000D03*
X344080000Y-117550000D03*
X341000000Y-117950000D03*
X344080000Y-117950000D03*
X341000000Y-118350000D03*
X344080000Y-118350000D03*
X341000000Y-118750000D03*
X344080000Y-118750000D03*
X341000000Y-119150000D03*
X344080000Y-119150000D03*
X341000000Y-119550000D03*
X344080000Y-119550000D03*
X341000000Y-119950000D03*
X344080000Y-119950000D03*
X341000000Y-120350000D03*
X344080000Y-120350000D03*
X341000000Y-120750000D03*
X344080000Y-120750000D03*
X341000000Y-121150000D03*
X344080000Y-121150000D03*
X341000000Y-121550000D03*
X344080000Y-121550000D03*
X341000000Y-121950000D03*
X344080000Y-121950000D03*
X341000000Y-122350000D03*
X344080000Y-122350000D03*
X341000000Y-122750000D03*
X344080000Y-122750000D03*
X341000000Y-123150000D03*
X344080000Y-123150000D03*
X341000000Y-123550000D03*
X344080000Y-123550000D03*
X341000000Y-123950000D03*
X344080000Y-123950000D03*
X341000000Y-124350000D03*
X344080000Y-124350000D03*
X341000000Y-124750000D03*
X344080000Y-124750000D03*
X341000000Y-125150000D03*
X344080000Y-125150000D03*
X341000000Y-125550000D03*
X344080000Y-125550000D03*
%TD*%
D15*
%TO.C,SW1*%
X307500000Y-160700000D03*
D16*
X307500000Y-158200000D03*
X307500000Y-155700000D03*
X304500000Y-160700000D03*
X304500000Y-158200000D03*
X304500000Y-155700000D03*
X304730000Y-164400000D03*
X307270000Y-164400000D03*
%TD*%
D17*
%TO.C,IC16*%
X500890150Y42170000D03*
X500890150Y42670000D03*
X500890150Y43170000D03*
X499590150Y43170000D03*
X499590150Y42670000D03*
X499590150Y42170000D03*
%TD*%
D18*
%TO.C,D13*%
X491824874Y27470632D03*
X495624874Y27470632D03*
%TD*%
D19*
%TO.C,R16*%
X403445000Y-84320000D03*
X401795000Y-84320000D03*
%TD*%
D20*
%TO.C,C47*%
X481190000Y13000000D03*
X481190000Y11450000D03*
%TD*%
D21*
%TO.C,JP5*%
X312270000Y-91650000D03*
X310720000Y-91650000D03*
X313820000Y-91650000D03*
%TD*%
D22*
%TO.C,R7*%
X303657250Y-100410870D03*
X305307250Y-100410870D03*
%TD*%
D23*
%TO.C,C134*%
X448185000Y43120000D03*
X445235000Y43120000D03*
%TD*%
D21*
%TO.C,C87*%
X405615000Y-137769999D03*
X404065000Y-137769999D03*
%TD*%
D20*
%TO.C,C51*%
X493820000Y10520000D03*
X493820000Y8970000D03*
%TD*%
D16*
%TO.C,X9*%
X301500000Y-69341600D03*
D24*
X310920000Y-72741600D03*
D25*
X306960000Y-72741600D03*
X303000000Y-72741600D03*
%TD*%
D26*
%TO.C,X15*%
X361250000Y-170350000D03*
X361750000Y-170350000D03*
X362250000Y-170350000D03*
X362750000Y-170350000D03*
X363250000Y-170350000D03*
X363750000Y-170350000D03*
X364250000Y-170350000D03*
X364750000Y-170350000D03*
X365250000Y-170350000D03*
X365750000Y-170350000D03*
X366250000Y-170350000D03*
X366750000Y-170350000D03*
D27*
X366800000Y-172010000D03*
X366400000Y-172710000D03*
X365600000Y-172710000D03*
X365200000Y-172010000D03*
X364800000Y-172710000D03*
X364400000Y-172010000D03*
X363600000Y-172010000D03*
X363200000Y-172710000D03*
X362800000Y-172010000D03*
X362400000Y-172710000D03*
X361600000Y-172710000D03*
X361200000Y-172010000D03*
D28*
X359510000Y-177000000D03*
X359870000Y-172600000D03*
X368130000Y-172600000D03*
X368490000Y-177000000D03*
%TD*%
D29*
%TO.C,K2*%
X330750000Y-76740000D03*
X330750000Y-64740000D03*
D30*
X318550000Y-76740000D03*
X318550000Y-64740000D03*
X332750000Y-70740000D03*
%TD*%
D21*
%TO.C,C16*%
X418412800Y-89309944D03*
X416862800Y-89309944D03*
%TD*%
D31*
%TO.C,L5*%
X305414034Y-128777142D03*
X299914034Y-128777142D03*
%TD*%
D32*
%TO.C,IC20*%
X371544865Y-166759933D03*
X371544865Y-167159933D03*
D33*
X371567166Y-167694933D03*
X371967165Y-167694933D03*
X372367165Y-167694933D03*
X372767164Y-167694933D03*
D32*
X372789465Y-167159933D03*
X372789465Y-166759933D03*
D33*
X372767164Y-166224933D03*
X372367165Y-166224933D03*
X371967165Y-166224933D03*
X371567166Y-166224933D03*
%TD*%
D34*
%TO.C,JP3*%
X380790000Y-99839000D03*
X380790000Y-98289000D03*
%TD*%
D21*
%TO.C,C55*%
X420150546Y1651974D03*
X418600546Y1651974D03*
%TD*%
D35*
%TO.C,C45*%
X342591327Y-167120204D03*
X342591327Y-169020204D03*
%TD*%
D19*
%TO.C,R72*%
X405665000Y-136309999D03*
X404015000Y-136309999D03*
%TD*%
D36*
%TO.C,R61*%
X415016119Y-122366399D03*
X415016119Y-120716399D03*
%TD*%
D37*
%TO.C,C110*%
X356739718Y-173110335D03*
X352339718Y-173110335D03*
%TD*%
D38*
%TO.C,C75*%
X426347676Y-134401236D03*
X427307676Y-134401236D03*
%TD*%
D20*
%TO.C,C115*%
X370160000Y-164670000D03*
X370160000Y-166220000D03*
%TD*%
%TO.C,C91*%
X410329600Y-138014999D03*
X410329600Y-139564999D03*
%TD*%
D39*
%TO.C,R23*%
X404668318Y-99796399D03*
X404668318Y-101446399D03*
%TD*%
D40*
%TO.C,X17*%
X384750000Y-127550000D03*
X385249999Y-127550000D03*
X385750001Y-127550000D03*
X386250000Y-127550000D03*
X386750001Y-127550000D03*
X387250000Y-127550000D03*
X387749999Y-127550000D03*
X388250001Y-127550000D03*
X388750000Y-127550000D03*
X389250002Y-127550000D03*
X389750000Y-127550000D03*
X390250000Y-127550000D03*
X390750001Y-127550000D03*
X391250000Y-127550000D03*
X391750002Y-127550000D03*
X392250001Y-127550000D03*
X392750000Y-127550000D03*
X393250001Y-127550000D03*
X393750000Y-127550000D03*
X394249999Y-127550000D03*
X394750001Y-127550000D03*
X395250000Y-127550000D03*
D41*
X382450010Y-130249999D03*
X397549990Y-130249999D03*
%TD*%
D42*
%TO.C,R34*%
X326897382Y13782680D03*
X328722382Y13782680D03*
%TD*%
D23*
%TO.C,C62*%
X519250000Y49970000D03*
X516300000Y49970000D03*
%TD*%
D36*
%TO.C,R38*%
X379885000Y10203177D03*
X379885000Y11853177D03*
%TD*%
D43*
%TO.C,X27*%
X504500000Y-158810000D03*
X507040000Y-158810000D03*
X504500000Y-156270000D03*
X507040000Y-156270000D03*
X504500000Y-153730000D03*
X507040000Y-153730000D03*
X504500000Y-151190000D03*
X507040000Y-151190000D03*
X504500000Y-148650000D03*
X507040000Y-148650000D03*
X504500000Y-146110000D03*
X507040000Y-146110000D03*
X504500000Y-143570000D03*
X507040000Y-143570000D03*
X504500000Y-141030000D03*
X507040000Y-141030000D03*
X504500000Y-138490000D03*
X507040000Y-138490000D03*
X504500000Y-135950000D03*
X507040000Y-135950000D03*
%TD*%
D44*
%TO.C,IC9*%
X310774036Y-130247142D03*
D45*
X310519035Y-130501142D03*
D44*
X310774036Y-129747016D03*
X310774036Y-129246890D03*
X310774036Y-128746764D03*
X310774036Y-128246638D03*
X310774036Y-127746512D03*
X310774036Y-127246386D03*
D45*
X310520036Y-126992386D03*
X309949224Y-126921764D03*
X309449098Y-126921764D03*
X308948972Y-126921764D03*
X308448846Y-126921764D03*
X307878034Y-126992386D03*
D44*
X307624034Y-127246386D03*
X307624034Y-127746512D03*
X307624034Y-128246638D03*
X307624034Y-128746764D03*
X307624034Y-129246890D03*
X307624034Y-129747016D03*
D45*
X307878034Y-130501142D03*
D44*
X307624034Y-130247142D03*
D45*
X308448846Y-130571764D03*
X308948972Y-130571764D03*
X309449098Y-130571764D03*
X309949224Y-130571764D03*
D46*
X309199035Y-128746764D03*
%TD*%
D47*
%TO.C,L1*%
X310020000Y-83034999D03*
X310020000Y-88685001D03*
%TD*%
D48*
%TO.C,D14*%
X501090000Y27470000D03*
X497290000Y27470000D03*
%TD*%
D49*
%TO.C,L3*%
X308020000Y-11270000D03*
X302830000Y-12160000D03*
X305580000Y-12660000D03*
X305580000Y-27660000D03*
X302830000Y-28160000D03*
X308020000Y-29050000D03*
X315640000Y-11270000D03*
X320830000Y-12160000D03*
X318080000Y-12660000D03*
X318080000Y-27660000D03*
X320830000Y-28160000D03*
X315640000Y-29050000D03*
%TD*%
D34*
%TO.C,C100*%
X417939600Y-122314999D03*
X417939600Y-120764999D03*
%TD*%
D21*
%TO.C,JP11*%
X396480000Y-118380000D03*
X394930000Y-118380000D03*
%TD*%
D50*
%TO.C,C130*%
X397035452Y46110472D03*
X397035452Y49060472D03*
%TD*%
D19*
%TO.C,R96*%
X513359469Y-75452017D03*
X511709469Y-75452017D03*
%TD*%
%TO.C,R36*%
X298394120Y-145752277D03*
X296744120Y-145752277D03*
%TD*%
D39*
%TO.C,R50*%
X483740000Y27565000D03*
X483740000Y25915000D03*
%TD*%
D51*
%TO.C,F2*%
X318936105Y26236701D03*
X301936105Y26236701D03*
%TD*%
D52*
%TO.C,C24*%
X302697317Y-33140000D03*
X310197317Y-33140000D03*
%TD*%
D53*
%TO.C,FB4*%
X400019846Y-144951593D03*
X400019846Y-143251593D03*
%TD*%
D20*
%TO.C,C67*%
X391400000Y-161570000D03*
X391400000Y-163120000D03*
%TD*%
D54*
%TO.C,TP4*%
X302940000Y-91350000D03*
%TD*%
D20*
%TO.C,C36*%
X348438923Y-147114843D03*
X348438923Y-148664843D03*
%TD*%
D55*
%TO.C,X14*%
X378925000Y31670000D03*
D56*
X380955000Y31670000D03*
X382985000Y31670000D03*
X385015000Y31670000D03*
X387045000Y31670000D03*
X389075000Y31670000D03*
X379935000Y35230000D03*
X381970000Y35230000D03*
X386030000Y35230000D03*
X388065000Y35230000D03*
D57*
X376775000Y29230000D03*
X379315000Y29230000D03*
X386160000Y29230000D03*
X388685000Y29230000D03*
X391225000Y29230000D03*
D58*
X387505000Y40810000D03*
D57*
X385005000Y40810000D03*
X382995000Y40810000D03*
X380495000Y40810000D03*
D59*
X392065000Y46020000D03*
X392055000Y35230000D03*
D60*
X390565000Y37820000D03*
X390565000Y43510000D03*
X377435000Y37820000D03*
X377435000Y43510000D03*
D59*
X375945000Y35300000D03*
X375935000Y46020000D03*
D58*
X387505000Y38190000D03*
D57*
X385005000Y38190000D03*
X382995000Y38190000D03*
X380495000Y38190000D03*
%TD*%
D34*
%TO.C,JP7*%
X389886118Y-105099923D03*
X389886118Y-103549923D03*
X389886118Y-106649923D03*
%TD*%
D61*
%TO.C,SAR1*%
X337930000Y13540047D03*
X333730000Y13540047D03*
%TD*%
D62*
%TO.C,H4*%
X418800000Y40200000D03*
X419500000Y41700000D03*
X419500000Y38700000D03*
X421000000Y42400000D03*
D63*
X421000000Y40200000D03*
D62*
X421000000Y38000000D03*
X422500000Y41700000D03*
X422500000Y38700000D03*
X423200000Y40200000D03*
%TD*%
D54*
%TO.C,TP1*%
X418455493Y-96224753D03*
%TD*%
D20*
%TO.C,C15*%
X413198318Y-101554999D03*
X413198318Y-103104999D03*
%TD*%
D19*
%TO.C,R53*%
X423158912Y3123199D03*
X421508912Y3123199D03*
%TD*%
D64*
%TO.C,Q4*%
X366655000Y14478177D03*
X368855000Y13528177D03*
X366655000Y12578177D03*
%TD*%
D36*
%TO.C,R68*%
X407703562Y-119404251D03*
X407703562Y-117754251D03*
%TD*%
D65*
%TO.C,C113*%
X371567848Y-164280000D03*
X371567848Y-165240000D03*
%TD*%
D39*
%TO.C,R9*%
X401295886Y-108698328D03*
X401295886Y-110348328D03*
%TD*%
D66*
%TO.C,FM4*%
X525000000Y50500000D03*
%TD*%
%TO.C,FM3*%
X295000000Y50500000D03*
%TD*%
D67*
%TO.C,LED5*%
X394900624Y21958376D03*
X392995624Y21958376D03*
%TD*%
D68*
%TO.C,K4*%
X476820000Y-137670000D03*
X476820000Y-142710000D03*
X476820000Y-132630000D03*
X484380000Y-137670000D03*
X484380000Y-142710000D03*
X484380000Y-132630000D03*
D69*
X484380000Y-158000000D03*
X476820000Y-158000000D03*
%TD*%
D70*
%TO.C,C103*%
X400169846Y-149401593D03*
X400169846Y-147501593D03*
%TD*%
D71*
%TO.C,X19*%
X431415000Y-84100000D03*
X431415000Y-107250000D03*
D72*
X430165000Y-118900000D03*
D73*
X428165000Y-117900000D03*
X430165000Y-116900000D03*
X428165000Y-115900000D03*
X430165000Y-114900000D03*
X428165000Y-113900000D03*
X430165000Y-112900000D03*
X428165000Y-111900000D03*
X430165000Y-110900000D03*
X428165000Y-109900000D03*
X430165000Y-108900000D03*
X428165000Y-105900000D03*
X430165000Y-104900000D03*
X428165000Y-103900000D03*
X430165000Y-102900000D03*
X428165000Y-101900000D03*
X430165000Y-100900000D03*
X428165000Y-99900000D03*
X430165000Y-98900000D03*
X428165000Y-97900000D03*
X430165000Y-96900000D03*
X428165000Y-95900000D03*
X430165000Y-94900000D03*
X428165000Y-93900000D03*
X430165000Y-92900000D03*
X428165000Y-91900000D03*
X430165000Y-90900000D03*
X428165000Y-89900000D03*
X430165000Y-88900000D03*
X428165000Y-87900000D03*
X430165000Y-86900000D03*
X428165000Y-85900000D03*
X432665000Y-118900000D03*
X434665000Y-117900000D03*
X432665000Y-116900000D03*
X434665000Y-115900000D03*
X432665000Y-114900000D03*
X434665000Y-113900000D03*
X432665000Y-112900000D03*
X434665000Y-111900000D03*
X432665000Y-110900000D03*
X434665000Y-109900000D03*
X432665000Y-108900000D03*
X434665000Y-105900000D03*
X432665000Y-104900000D03*
X434665000Y-103900000D03*
X432665000Y-102900000D03*
X434665000Y-101900000D03*
X432665000Y-100900000D03*
X434665000Y-99900000D03*
X432665000Y-98900000D03*
X434665000Y-97900000D03*
X432665000Y-96900000D03*
X434665000Y-95900000D03*
X432665000Y-94900000D03*
X434665000Y-93900000D03*
X432665000Y-92900000D03*
X434665000Y-91900000D03*
X432665000Y-90900000D03*
X434665000Y-89900000D03*
X432665000Y-88900000D03*
X434665000Y-87900000D03*
X432665000Y-86900000D03*
X434665000Y-85900000D03*
%TD*%
D22*
%TO.C,R20*%
X411265000Y-96307318D03*
X412915000Y-96307318D03*
%TD*%
D62*
%TO.C,H6*%
X520800000Y-166700000D03*
X521500000Y-165200000D03*
X521500000Y-168200000D03*
X523000000Y-164500000D03*
D63*
X523000000Y-166700000D03*
D62*
X523000000Y-168900000D03*
X524500000Y-165200000D03*
X524500000Y-168200000D03*
X525200000Y-166700000D03*
%TD*%
D74*
%TO.C,SP1*%
X407000000Y-169570000D03*
D75*
X407000000Y-174570000D03*
%TD*%
D76*
%TO.C,IC8*%
X343828023Y-149909656D03*
X343828023Y-150409781D03*
X343828023Y-150909905D03*
X343828023Y-151410030D03*
X345529823Y-151410030D03*
X345529823Y-150909905D03*
X345529823Y-150409781D03*
X345529823Y-149909656D03*
%TD*%
D77*
%TO.C,X6*%
X305450000Y43300000D03*
D78*
X332450000Y33600000D03*
X332450000Y36000000D03*
X318450000Y33600000D03*
X318450000Y36000000D03*
X325450000Y33600000D03*
X325450000Y36000000D03*
%TD*%
D19*
%TO.C,R82*%
X375200000Y-164400000D03*
X373550000Y-164400000D03*
%TD*%
D79*
%TO.C,JP12*%
X416412974Y-108137158D03*
X417962974Y-108137158D03*
%TD*%
D80*
%TO.C,Q7*%
X352600000Y-156952400D03*
X352600000Y-158882800D03*
X354759000Y-157917600D03*
%TD*%
D36*
%TO.C,R62*%
X420699600Y-139614999D03*
X420699600Y-137964999D03*
%TD*%
D81*
%TO.C,SW2*%
X387000000Y-170900000D03*
X392000000Y-170900000D03*
X397000000Y-170900000D03*
D82*
X389500000Y-168300000D03*
X394500000Y-168300000D03*
D83*
X400000000Y-167800000D03*
X384000000Y-167800000D03*
%TD*%
D22*
%TO.C,R4*%
X299335000Y-100430000D03*
X300985000Y-100430000D03*
%TD*%
D84*
%TO.C,D3*%
X387844869Y-99146271D03*
X387844869Y-101864071D03*
%TD*%
D19*
%TO.C,R93*%
X416835000Y35450000D03*
X415185000Y35450000D03*
%TD*%
D85*
%TO.C,C21*%
X304337000Y13770000D03*
X319323000Y13770000D03*
%TD*%
D34*
%TO.C,C72*%
X407210000Y-139564999D03*
X407210000Y-138014999D03*
%TD*%
D54*
%TO.C,TP7*%
X343958923Y-169959843D03*
%TD*%
D86*
%TO.C,C80*%
X398734796Y-124480000D03*
X398734796Y-123520000D03*
%TD*%
D71*
%TO.C,X22*%
X502415000Y-84100000D03*
X502415000Y-107250000D03*
D72*
X501165000Y-118900000D03*
D73*
X499165000Y-117900000D03*
X501165000Y-116900000D03*
X499165000Y-115900000D03*
X501165000Y-114900000D03*
X499165000Y-113900000D03*
X501165000Y-112900000D03*
X499165000Y-111900000D03*
X501165000Y-110900000D03*
X499165000Y-109900000D03*
X501165000Y-108900000D03*
X499165000Y-105900000D03*
X501165000Y-104900000D03*
X499165000Y-103900000D03*
X501165000Y-102900000D03*
X499165000Y-101900000D03*
X501165000Y-100900000D03*
X499165000Y-99900000D03*
X501165000Y-98900000D03*
X499165000Y-97900000D03*
X501165000Y-96900000D03*
X499165000Y-95900000D03*
X501165000Y-94900000D03*
X499165000Y-93900000D03*
X501165000Y-92900000D03*
X499165000Y-91900000D03*
X501165000Y-90900000D03*
X499165000Y-89900000D03*
X501165000Y-88900000D03*
X499165000Y-87900000D03*
X501165000Y-86900000D03*
X499165000Y-85900000D03*
X503665000Y-118900000D03*
X505665000Y-117900000D03*
X503665000Y-116900000D03*
X505665000Y-115900000D03*
X503665000Y-114900000D03*
X505665000Y-113900000D03*
X503665000Y-112900000D03*
X505665000Y-111900000D03*
X503665000Y-110900000D03*
X505665000Y-109900000D03*
X503665000Y-108900000D03*
X505665000Y-105900000D03*
X503665000Y-104900000D03*
X505665000Y-103900000D03*
X503665000Y-102900000D03*
X505665000Y-101900000D03*
X503665000Y-100900000D03*
X505665000Y-99900000D03*
X503665000Y-98900000D03*
X505665000Y-97900000D03*
X503665000Y-96900000D03*
X505665000Y-95900000D03*
X503665000Y-94900000D03*
X505665000Y-93900000D03*
X503665000Y-92900000D03*
X505665000Y-91900000D03*
X503665000Y-90900000D03*
X505665000Y-89900000D03*
X503665000Y-88900000D03*
X505665000Y-87900000D03*
X503665000Y-86900000D03*
X505665000Y-85900000D03*
%TD*%
D87*
%TO.C,FB2*%
X304024034Y-115827142D03*
X305724034Y-115827142D03*
%TD*%
D38*
%TO.C,C77*%
X426346409Y-130788899D03*
X427306409Y-130788899D03*
%TD*%
D34*
%TO.C,C59*%
X419673379Y19220000D03*
X419673379Y20770000D03*
%TD*%
D36*
%TO.C,R65*%
X410630543Y-122373188D03*
X410630543Y-120723188D03*
%TD*%
D79*
%TO.C,C127*%
X389340000Y26710000D03*
X390890000Y26710000D03*
%TD*%
D49*
%TO.C,L2*%
X311830000Y8480000D03*
X311830000Y-1680000D03*
%TD*%
D19*
%TO.C,R88*%
X358109174Y-157917600D03*
X356459174Y-157917600D03*
%TD*%
D21*
%TO.C,C31*%
X308929034Y-131937142D03*
X307379034Y-131937142D03*
%TD*%
D20*
%TO.C,C88*%
X412649600Y-138009999D03*
X412649600Y-139559999D03*
%TD*%
D34*
%TO.C,C20*%
X312900000Y-157285000D03*
X312900000Y-155735000D03*
%TD*%
D21*
%TO.C,C6*%
X395740000Y-89565000D03*
X394190000Y-89565000D03*
%TD*%
D88*
%TO.C,IC7*%
X412699800Y-90750843D03*
X412699800Y-91400844D03*
X412699800Y-92050845D03*
X412699800Y-92700844D03*
X412699800Y-93350843D03*
X412699800Y-94000844D03*
X412699800Y-94650843D03*
X418440200Y-94650845D03*
X418440200Y-94000844D03*
X418440200Y-93350845D03*
X418440200Y-92700844D03*
X418440200Y-92050845D03*
X418440200Y-91400844D03*
X418440200Y-90750845D03*
%TD*%
D89*
%TO.C,L8*%
X360610000Y-164844474D03*
X361010000Y-164844474D03*
X361410000Y-164844474D03*
X361810000Y-164844474D03*
X362210000Y-164844474D03*
X362210000Y-163726874D03*
X361810000Y-163726874D03*
X361410000Y-163726874D03*
X361010000Y-163726874D03*
X360610000Y-163726874D03*
%TD*%
D90*
%TO.C,D11*%
X300550000Y-91840000D03*
X296150000Y-91840000D03*
%TD*%
D54*
%TO.C,TP5*%
X379835000Y13268177D03*
%TD*%
D91*
%TO.C,R95*%
X399148897Y44465318D03*
X399148897Y46290318D03*
%TD*%
D79*
%TO.C,C30*%
X312159034Y-128597142D03*
X313709034Y-128597142D03*
%TD*%
D39*
%TO.C,R66*%
X412087456Y-117749518D03*
X412087456Y-119399518D03*
%TD*%
D68*
%TO.C,K7*%
X454108169Y-137629749D03*
X454108169Y-142669749D03*
X454108169Y-132589749D03*
X461668169Y-137629749D03*
X461668169Y-142669749D03*
X461668169Y-132589749D03*
D69*
X461668169Y-157959749D03*
X454108169Y-157959749D03*
%TD*%
D92*
%TO.C,X3*%
X316500000Y-92000000D03*
D93*
X326500000Y-120250000D03*
X326500000Y-132250000D03*
X326500000Y-150250000D03*
D94*
X336500000Y-92000000D03*
D95*
X317250000Y-86725000D03*
X317500000Y-94275000D03*
X317750000Y-86725000D03*
X318000000Y-94275000D03*
X318250000Y-86725000D03*
X318500000Y-94275000D03*
X318750000Y-86725000D03*
X319000000Y-94275000D03*
X319250000Y-86725000D03*
X319500000Y-94275000D03*
X319750000Y-86725000D03*
X320000000Y-94275000D03*
X320250000Y-86725000D03*
X320500000Y-94275000D03*
X320750000Y-86725000D03*
X321000000Y-94275000D03*
X321250000Y-86725000D03*
X321500000Y-94275000D03*
X321750000Y-86725000D03*
X322000000Y-94275000D03*
X322250000Y-86725000D03*
X322500000Y-94275000D03*
X322750000Y-86725000D03*
X323000000Y-94275000D03*
X323250000Y-86725000D03*
X323500000Y-94275000D03*
X323750000Y-86725000D03*
X324000000Y-94275000D03*
X324250000Y-86725000D03*
X324500000Y-94275000D03*
X324750000Y-86725000D03*
X325000000Y-94275000D03*
X325250000Y-86725000D03*
X325500000Y-94275000D03*
X325750000Y-86725000D03*
X326000000Y-94275000D03*
X326250000Y-86725000D03*
X326500000Y-94275000D03*
X326750000Y-86725000D03*
X327000000Y-94275000D03*
X327250000Y-86725000D03*
X327500000Y-94275000D03*
X327750000Y-86725000D03*
X328000000Y-94275000D03*
X328250000Y-86725000D03*
X328500000Y-94275000D03*
X328750000Y-86725000D03*
X329000000Y-94275000D03*
X329250000Y-86725000D03*
X329500000Y-94275000D03*
X329750000Y-86725000D03*
X330000000Y-94275000D03*
X330250000Y-86725000D03*
X330500000Y-94275000D03*
X330750000Y-86725000D03*
X331000000Y-94275000D03*
X331250000Y-86725000D03*
X331500000Y-94275000D03*
X333750000Y-86725000D03*
X334000000Y-94275000D03*
X334250000Y-86725000D03*
X334500000Y-94275000D03*
X334750000Y-86725000D03*
X335000000Y-94275000D03*
X335250000Y-86725000D03*
X335500000Y-94275000D03*
X335750000Y-86725000D03*
D93*
X326500000Y-170250000D03*
D96*
X316150000Y-87500000D03*
X336850000Y-87500000D03*
%TD*%
D22*
%TO.C,R29*%
X360990000Y11688177D03*
X362640000Y11688177D03*
%TD*%
D86*
%TO.C,C124*%
X366586874Y-161126874D03*
X366586874Y-160166874D03*
%TD*%
D21*
%TO.C,C4*%
X398603239Y-103280100D03*
X397053239Y-103280100D03*
%TD*%
D97*
%TO.C,X12*%
X426160000Y15730000D03*
D98*
X424000000Y20810000D03*
D99*
X424000000Y18270000D03*
X424000000Y15730000D03*
X424000000Y13190000D03*
%TD*%
D39*
%TO.C,R91*%
X379400000Y23985000D03*
X379400000Y22335000D03*
%TD*%
D21*
%TO.C,C32*%
X347973923Y-152499843D03*
X346423923Y-152499843D03*
%TD*%
D22*
%TO.C,R90*%
X356455896Y-161215200D03*
X358105896Y-161215200D03*
%TD*%
D79*
%TO.C,C95*%
X421694600Y-136509999D03*
X423244600Y-136509999D03*
%TD*%
%TO.C,C112*%
X393173124Y19020000D03*
X394723124Y19020000D03*
%TD*%
D19*
%TO.C,R76*%
X385809846Y-146281593D03*
X384159846Y-146281593D03*
%TD*%
D100*
%TO.C,R85*%
X375392500Y-176420000D03*
X373567500Y-176420000D03*
%TD*%
D19*
%TO.C,R74*%
X385809846Y-149201593D03*
X384159846Y-149201593D03*
%TD*%
D62*
%TO.C,H5*%
X508800000Y38000000D03*
X509500000Y39500000D03*
X509500000Y36500000D03*
X511000000Y40200000D03*
D63*
X511000000Y38000000D03*
D62*
X511000000Y35800000D03*
X512500000Y39500000D03*
X512500000Y36500000D03*
X513200000Y38000000D03*
%TD*%
D101*
%TO.C,JP2*%
X307550000Y-109860000D03*
D102*
X310090000Y-109860000D03*
X312630000Y-109860000D03*
%TD*%
D21*
%TO.C,C48*%
X424390000Y-4981447D03*
X422840000Y-4981447D03*
%TD*%
D103*
%TO.C,C39*%
X304014034Y-124167142D03*
X302114034Y-124167142D03*
%TD*%
D88*
%TO.C,IC2*%
X413340000Y-73504979D03*
X413340000Y-72854993D03*
X413340000Y-72205007D03*
X413340000Y-71555021D03*
X407599600Y-71555021D03*
X407599600Y-72205007D03*
X407599600Y-72854993D03*
X407599600Y-73504979D03*
%TD*%
D104*
%TO.C,IC12*%
X497380000Y11675000D03*
X496430000Y11675000D03*
X495480004Y11675000D03*
X495480004Y8925000D03*
X496430000Y8925000D03*
X497380000Y8925000D03*
%TD*%
D20*
%TO.C,C64*%
X389940000Y-161570000D03*
X389940000Y-163120000D03*
%TD*%
D39*
%TO.C,R19*%
X401168318Y-99774999D03*
X401168318Y-101424999D03*
%TD*%
D86*
%TO.C,C123*%
X367506874Y-161126874D03*
X367506874Y-160166874D03*
%TD*%
D67*
%TO.C,LED4*%
X396391279Y-83167188D03*
X398296279Y-83167188D03*
%TD*%
D105*
%TO.C,VAR2*%
X303382105Y20564692D03*
X310882105Y18264692D03*
%TD*%
D22*
%TO.C,R37*%
X296795000Y-140635000D03*
X298445000Y-140635000D03*
%TD*%
D86*
%TO.C,C83*%
X403030000Y-124480000D03*
X403030000Y-123520000D03*
%TD*%
D106*
%TO.C,C14*%
X420320000Y-52955021D03*
D107*
X420320000Y-72955021D03*
%TD*%
D36*
%TO.C,R6*%
X340720000Y-96605000D03*
X340720000Y-94955000D03*
%TD*%
D67*
%TO.C,LED8*%
X513486969Y-76922017D03*
X511581969Y-76922017D03*
%TD*%
D108*
%TO.C,D9*%
X432567800Y-52891998D03*
X429850000Y-52891998D03*
%TD*%
D19*
%TO.C,R2*%
X348915000Y-122330000D03*
X347265000Y-122330000D03*
%TD*%
D70*
%TO.C,C109*%
X401959846Y-145351593D03*
X401959846Y-143451593D03*
%TD*%
D67*
%TO.C,LED3*%
X303529750Y-97520000D03*
X305434750Y-97520000D03*
%TD*%
D22*
%TO.C,R40*%
X347243923Y-150419843D03*
X348893923Y-150419843D03*
%TD*%
D16*
%TO.C,X11*%
X301500000Y-43600000D03*
D24*
X310920000Y-47000000D03*
D25*
X306960000Y-47000000D03*
X303000000Y-47000000D03*
%TD*%
D36*
%TO.C,R21*%
X411708318Y-103164999D03*
X411708318Y-101514999D03*
%TD*%
D109*
%TO.C,IC22*%
X358400000Y-164112400D03*
X357450000Y-164112400D03*
X356500000Y-164112400D03*
X356500000Y-166500000D03*
X358400000Y-166500000D03*
%TD*%
D53*
%TO.C,FB5*%
X419599600Y-122389999D03*
X419599600Y-120689999D03*
%TD*%
D110*
%TO.C,Y1*%
X392480000Y-87285001D03*
X392480000Y-89835001D03*
%TD*%
D19*
%TO.C,R18*%
X403445000Y-82865866D03*
X401795000Y-82865866D03*
%TD*%
D21*
%TO.C,JP10*%
X396479000Y-117110000D03*
X394929000Y-117110000D03*
%TD*%
D39*
%TO.C,R56*%
X388480000Y-161520000D03*
X388480000Y-163170000D03*
%TD*%
D89*
%TO.C,L10*%
X405460000Y38441400D03*
X405860000Y38441400D03*
X406260000Y38441400D03*
X406660000Y38441400D03*
X407060000Y38441400D03*
X407060000Y39559000D03*
X406660000Y39559000D03*
X406260000Y39559000D03*
X405860000Y39559000D03*
X405460000Y39559000D03*
%TD*%
D79*
%TO.C,C38*%
X312159034Y-130067142D03*
X313709034Y-130067142D03*
%TD*%
D22*
%TO.C,R83*%
X393128124Y20480000D03*
X394778124Y20480000D03*
%TD*%
D111*
%TO.C,Q5*%
X298534320Y-147393277D03*
X296603920Y-147393277D03*
X297569120Y-149552277D03*
%TD*%
D16*
%TO.C,X10*%
X301500000Y-56470800D03*
D24*
X310920000Y-59870800D03*
D25*
X306960000Y-59870800D03*
X303000000Y-59870800D03*
%TD*%
D79*
%TO.C,C105*%
X421684600Y-125369999D03*
X423234600Y-125369999D03*
%TD*%
D22*
%TO.C,R10*%
X407560000Y-162350000D03*
X409210000Y-162350000D03*
%TD*%
D79*
%TO.C,C60*%
X491615000Y37180000D03*
X493165000Y37180000D03*
%TD*%
D112*
%TO.C,IC15*%
X491492991Y33176138D03*
X492442991Y33176138D03*
X493392991Y33176138D03*
X493392991Y35563738D03*
X491492991Y35563738D03*
%TD*%
D66*
%TO.C,FM2*%
X525000000Y-162500000D03*
%TD*%
D34*
%TO.C,C104*%
X413554434Y-122314999D03*
X413554434Y-120764999D03*
%TD*%
D36*
%TO.C,R78*%
X373010000Y-170475000D03*
X373010000Y-168825000D03*
%TD*%
D23*
%TO.C,C133*%
X465685000Y43150000D03*
X462735000Y43150000D03*
%TD*%
D54*
%TO.C,TP10*%
X403299846Y-143301593D03*
%TD*%
D113*
%TO.C,IC19*%
X387009721Y-149413393D03*
X387509846Y-149413393D03*
X388009970Y-149413393D03*
X388510095Y-149413393D03*
X388510095Y-147711593D03*
X388009970Y-147711593D03*
X387509846Y-147711593D03*
X387009721Y-147711593D03*
%TD*%
D21*
%TO.C,C65*%
X485814088Y40965587D03*
X484264088Y40965587D03*
%TD*%
D34*
%TO.C,C118*%
X364500369Y-168191994D03*
X364500369Y-166641994D03*
%TD*%
D62*
%TO.C,H1*%
X424800000Y-166700000D03*
X425500000Y-165200000D03*
X425500000Y-168200000D03*
X427000000Y-164500000D03*
D63*
X427000000Y-166700000D03*
D62*
X427000000Y-168900000D03*
X428500000Y-165200000D03*
X428500000Y-168200000D03*
X429200000Y-166700000D03*
%TD*%
D21*
%TO.C,C10*%
X395613318Y-92619999D03*
X394063318Y-92619999D03*
%TD*%
D114*
%TO.C,D15*%
X417900000Y23140000D03*
X417900000Y19340000D03*
%TD*%
D20*
%TO.C,C92*%
X414864600Y-138004999D03*
X414864600Y-139554999D03*
%TD*%
D38*
%TO.C,C68*%
X401759600Y-134349999D03*
X402719600Y-134349999D03*
%TD*%
D68*
%TO.C,K3*%
X489620000Y-137670000D03*
X489620000Y-142710000D03*
X489620000Y-132630000D03*
X497180000Y-137670000D03*
X497180000Y-142710000D03*
X497180000Y-132630000D03*
D69*
X497180000Y-158000000D03*
X489620000Y-158000000D03*
%TD*%
D84*
%TO.C,D12*%
X312900000Y-145731080D03*
X312900000Y-148448880D03*
%TD*%
D67*
%TO.C,LED2*%
X299212000Y-97520000D03*
X301117000Y-97520000D03*
%TD*%
D48*
%TO.C,ZD1*%
X368835000Y10778177D03*
X365035000Y10778177D03*
%TD*%
D21*
%TO.C,C102*%
X405974600Y-134239999D03*
X404424600Y-134239999D03*
%TD*%
D38*
%TO.C,C76*%
X426346409Y-129868899D03*
X427306409Y-129868899D03*
%TD*%
D20*
%TO.C,C53*%
X481200000Y27550000D03*
X481200000Y26000000D03*
%TD*%
D36*
%TO.C,R39*%
X344058923Y-148714843D03*
X344058923Y-147064843D03*
%TD*%
D71*
%TO.C,X23*%
X520165000Y-84100000D03*
X520165000Y-107250000D03*
D72*
X518915000Y-118900000D03*
D73*
X516915000Y-117900000D03*
X518915000Y-116900000D03*
X516915000Y-115900000D03*
X518915000Y-114900000D03*
X516915000Y-113900000D03*
X518915000Y-112900000D03*
X516915000Y-111900000D03*
X518915000Y-110900000D03*
X516915000Y-109900000D03*
X518915000Y-108900000D03*
X516915000Y-105900000D03*
X518915000Y-104900000D03*
X516915000Y-103900000D03*
X518915000Y-102900000D03*
X516915000Y-101900000D03*
X518915000Y-100900000D03*
X516915000Y-99900000D03*
X518915000Y-98900000D03*
X516915000Y-97900000D03*
X518915000Y-96900000D03*
X516915000Y-95900000D03*
X518915000Y-94900000D03*
X516915000Y-93900000D03*
X518915000Y-92900000D03*
X516915000Y-91900000D03*
X518915000Y-90900000D03*
X516915000Y-89900000D03*
X518915000Y-88900000D03*
X516915000Y-87900000D03*
X518915000Y-86900000D03*
X516915000Y-85900000D03*
X521415000Y-118900000D03*
X523415000Y-117900000D03*
X521415000Y-116900000D03*
X523415000Y-115900000D03*
X521415000Y-114900000D03*
X523415000Y-113900000D03*
X521415000Y-112900000D03*
X523415000Y-111900000D03*
X521415000Y-110900000D03*
X523415000Y-109900000D03*
X521415000Y-108900000D03*
X523415000Y-105900000D03*
X521415000Y-104900000D03*
X523415000Y-103900000D03*
X521415000Y-102900000D03*
X523415000Y-101900000D03*
X521415000Y-100900000D03*
X523415000Y-99900000D03*
X521415000Y-98900000D03*
X523415000Y-97900000D03*
X521415000Y-96900000D03*
X523415000Y-95900000D03*
X521415000Y-94900000D03*
X523415000Y-93900000D03*
X521415000Y-92900000D03*
X523415000Y-91900000D03*
X521415000Y-90900000D03*
X523415000Y-89900000D03*
X521415000Y-88900000D03*
X523415000Y-87900000D03*
X521415000Y-86900000D03*
X523415000Y-85900000D03*
%TD*%
D79*
%TO.C,JP9*%
X417839600Y-144209999D03*
X416289600Y-144209999D03*
X414739600Y-144209999D03*
%TD*%
D21*
%TO.C,C108*%
X405074600Y-131739999D03*
X403524600Y-131739999D03*
%TD*%
D115*
%TO.C,IC18*%
X409029599Y-136003199D03*
X409429601Y-136003199D03*
X409829600Y-136003199D03*
X410229600Y-136003199D03*
X410629601Y-136003199D03*
X411029601Y-136003199D03*
X411429600Y-136003199D03*
X411829599Y-136003199D03*
X412229601Y-136003199D03*
X412629600Y-136003199D03*
X413029599Y-136003199D03*
X413429601Y-136003199D03*
X413829600Y-136003199D03*
X414229599Y-136003199D03*
X414629601Y-136003199D03*
X415029600Y-136003199D03*
X415429599Y-136003199D03*
X415829599Y-136003199D03*
X416229600Y-136003199D03*
X416629599Y-136003199D03*
X417029599Y-136003199D03*
X417429600Y-136003199D03*
X417829600Y-136003199D03*
X418229599Y-136003199D03*
X418629601Y-136003199D03*
D116*
X419662800Y-134970000D03*
X419662800Y-134569998D03*
X419662800Y-134169999D03*
X419662800Y-133769999D03*
X419662800Y-133369998D03*
X419662800Y-132969998D03*
X419662800Y-132569999D03*
X419662800Y-132170000D03*
X419662800Y-131769998D03*
X419662800Y-131369999D03*
X419662800Y-130970000D03*
X419662800Y-130569998D03*
X419662800Y-130169999D03*
X419662800Y-129770000D03*
X419662800Y-129369998D03*
X419662800Y-128969999D03*
X419662800Y-128570000D03*
X419662800Y-128170000D03*
X419662800Y-127769999D03*
X419662800Y-127370000D03*
X419662800Y-126970000D03*
X419662800Y-126569999D03*
X419662800Y-126169999D03*
X419662800Y-125770000D03*
X419662800Y-125370001D03*
D115*
X418629601Y-124336799D03*
X418229599Y-124336799D03*
X417829600Y-124336799D03*
X417429600Y-124336799D03*
X417029599Y-124336799D03*
X416629599Y-124336799D03*
X416229600Y-124336799D03*
X415829601Y-124336799D03*
X415429599Y-124336799D03*
X415029600Y-124336799D03*
X414629601Y-124336799D03*
X414229599Y-124336799D03*
X413829600Y-124336799D03*
X413429601Y-124336799D03*
X413029599Y-124336799D03*
X412629600Y-124336799D03*
X412229601Y-124336799D03*
X411829601Y-124336799D03*
X411429600Y-124336799D03*
X411029601Y-124336799D03*
X410629601Y-124336799D03*
X410229600Y-124336799D03*
X409829600Y-124336799D03*
X409429601Y-124336799D03*
X409029602Y-124336799D03*
D116*
X407996400Y-125369998D03*
X407996400Y-125770000D03*
X407996400Y-126169999D03*
X407996400Y-126569999D03*
X407996400Y-126970000D03*
X407996400Y-127370000D03*
X407996400Y-127769999D03*
X407996400Y-128169998D03*
X407996400Y-128570000D03*
X407996400Y-128969999D03*
X407996400Y-129369998D03*
X407996400Y-129770000D03*
X407996400Y-130169999D03*
X407996400Y-130569998D03*
X407996400Y-130970000D03*
X407996400Y-131369999D03*
X407996400Y-131769998D03*
X407996400Y-132169998D03*
X407996400Y-132569999D03*
X407996400Y-132969998D03*
X407996400Y-133369998D03*
X407996400Y-133769999D03*
X407996400Y-134169999D03*
X407996400Y-134569998D03*
X407996400Y-134969997D03*
D117*
X413829600Y-130169999D03*
%TD*%
D36*
%TO.C,R63*%
X419239600Y-139614999D03*
X419239600Y-137964999D03*
%TD*%
D21*
%TO.C,C5*%
X395745000Y-87295000D03*
X394195000Y-87295000D03*
%TD*%
D20*
%TO.C,JP4*%
X380790000Y-95502268D03*
X380790000Y-97052268D03*
%TD*%
D21*
%TO.C,C11*%
X395608318Y-91149999D03*
X394058318Y-91149999D03*
%TD*%
D118*
%TO.C,IC4*%
X397127939Y-106895000D03*
X397777939Y-106895000D03*
X398427939Y-106895000D03*
X398427939Y-104645000D03*
X397777939Y-104645000D03*
X397127939Y-104645000D03*
%TD*%
D54*
%TO.C,TP6*%
X312253534Y-114265369D03*
%TD*%
D62*
%TO.C,H7*%
X294800000Y-63000000D03*
X295500000Y-61500000D03*
X295500000Y-64500000D03*
X297000000Y-60800000D03*
D63*
X297000000Y-63000000D03*
D62*
X297000000Y-65200000D03*
X298500000Y-61500000D03*
X298500000Y-64500000D03*
X299200000Y-63000000D03*
%TD*%
D118*
%TO.C,IC25*%
X412515400Y35217400D03*
X413165400Y35217400D03*
X413815400Y35217400D03*
X413815400Y37467400D03*
X413165400Y37467400D03*
X412515400Y37467400D03*
%TD*%
D21*
%TO.C,C50*%
X424390000Y-6450000D03*
X422840000Y-6450000D03*
%TD*%
%TO.C,C34*%
X311909034Y-132097142D03*
X310359034Y-132097142D03*
%TD*%
D67*
%TO.C,LED7*%
X354537500Y-164830000D03*
X352632500Y-164830000D03*
%TD*%
D119*
%TO.C,NTC1*%
X325350000Y-41226552D03*
X330350000Y-41226552D03*
%TD*%
D54*
%TO.C,TP8*%
X491615000Y39520000D03*
%TD*%
D103*
%TO.C,C37*%
X304014034Y-133477142D03*
X302114034Y-133477142D03*
%TD*%
D120*
%TO.C,C41*%
X345308923Y-163089843D03*
X347208923Y-163089843D03*
%TD*%
D101*
%TO.C,JP8*%
X314520000Y-172890000D03*
D121*
X317060000Y-172890000D03*
%TD*%
D22*
%TO.C,R79*%
X389673124Y19020000D03*
X391323124Y19020000D03*
%TD*%
D54*
%TO.C,TP9*%
X483700000Y39170000D03*
%TD*%
D36*
%TO.C,R55*%
X500909174Y38258384D03*
X500909174Y39908384D03*
%TD*%
D42*
%TO.C,R35*%
X322593433Y13782680D03*
X324418433Y13782680D03*
%TD*%
D122*
%TO.C,Y2*%
X406930000Y-142719999D03*
X409130000Y-142719999D03*
X409130000Y-141119999D03*
X406930000Y-141119999D03*
%TD*%
D22*
%TO.C,R52*%
X418551794Y3115116D03*
X420201794Y3115116D03*
%TD*%
D120*
%TO.C,C84*%
X388359846Y-152421593D03*
X390259846Y-152421593D03*
%TD*%
D39*
%TO.C,R71*%
X413554434Y-117749518D03*
X413554434Y-119399518D03*
%TD*%
D123*
%TO.C,IC21*%
X398260000Y21724366D03*
X399530000Y21724366D03*
X400800000Y21724366D03*
X402070000Y21724366D03*
X402070000Y27124366D03*
X400800000Y27124366D03*
X399530000Y27124366D03*
X398260000Y27124366D03*
%TD*%
D105*
%TO.C,VAR1*%
X339572619Y20564692D03*
X347072619Y18264692D03*
%TD*%
D23*
%TO.C,C63*%
X519250000Y47670000D03*
X516300000Y47670000D03*
%TD*%
D71*
%TO.C,X21*%
X484665000Y-84100000D03*
X484665000Y-107250000D03*
D72*
X483415000Y-118900000D03*
D73*
X481415000Y-117900000D03*
X483415000Y-116900000D03*
X481415000Y-115900000D03*
X483415000Y-114900000D03*
X481415000Y-113900000D03*
X483415000Y-112900000D03*
X481415000Y-111900000D03*
X483415000Y-110900000D03*
X481415000Y-109900000D03*
X483415000Y-108900000D03*
X481415000Y-105900000D03*
X483415000Y-104900000D03*
X481415000Y-103900000D03*
X483415000Y-102900000D03*
X481415000Y-101900000D03*
X483415000Y-100900000D03*
X481415000Y-99900000D03*
X483415000Y-98900000D03*
X481415000Y-97900000D03*
X483415000Y-96900000D03*
X481415000Y-95900000D03*
X483415000Y-94900000D03*
X481415000Y-93900000D03*
X483415000Y-92900000D03*
X481415000Y-91900000D03*
X483415000Y-90900000D03*
X481415000Y-89900000D03*
X483415000Y-88900000D03*
X481415000Y-87900000D03*
X483415000Y-86900000D03*
X481415000Y-85900000D03*
X485915000Y-118900000D03*
X487915000Y-117900000D03*
X485915000Y-116900000D03*
X487915000Y-115900000D03*
X485915000Y-114900000D03*
X487915000Y-113900000D03*
X485915000Y-112900000D03*
X487915000Y-111900000D03*
X485915000Y-110900000D03*
X487915000Y-109900000D03*
X485915000Y-108900000D03*
X487915000Y-105900000D03*
X485915000Y-104900000D03*
X487915000Y-103900000D03*
X485915000Y-102900000D03*
X487915000Y-101900000D03*
X485915000Y-100900000D03*
X487915000Y-99900000D03*
X485915000Y-98900000D03*
X487915000Y-97900000D03*
X485915000Y-96900000D03*
X487915000Y-95900000D03*
X485915000Y-94900000D03*
X487915000Y-93900000D03*
X485915000Y-92900000D03*
X487915000Y-91900000D03*
X485915000Y-90900000D03*
X487915000Y-89900000D03*
X485915000Y-88900000D03*
X487915000Y-87900000D03*
X485915000Y-86900000D03*
X487915000Y-85900000D03*
%TD*%
D86*
%TO.C,C125*%
X368900000Y-156990000D03*
X368900000Y-156030000D03*
%TD*%
D124*
%TO.C,OK1*%
X371035000Y12323177D03*
X371035000Y11053177D03*
X377835000Y11053177D03*
X377835000Y12323177D03*
%TD*%
D79*
%TO.C,JP13*%
X398890000Y15940000D03*
X400440000Y15940000D03*
X397340000Y15940000D03*
%TD*%
D31*
%TO.C,L7*%
X392009846Y-146281593D03*
X397509846Y-146281593D03*
%TD*%
D125*
%TO.C,C114*%
X395290000Y39795000D03*
X399690000Y39795000D03*
%TD*%
D103*
%TO.C,C29*%
X308904034Y-134187142D03*
X307004034Y-134187142D03*
%TD*%
D126*
%TO.C,C28*%
X319323000Y-38229049D03*
X304337000Y-38229049D03*
%TD*%
D34*
%TO.C,C107*%
X409169600Y-122317065D03*
X409169600Y-120767065D03*
%TD*%
D127*
%TO.C,IC26*%
X477300000Y-70860008D03*
X477300000Y-71510008D03*
X477300000Y-72160008D03*
X477300000Y-72810008D03*
X477300000Y-73460008D03*
X477300000Y-74110008D03*
X477300000Y-74760008D03*
X477300000Y-75410008D03*
X477300000Y-76060008D03*
X477300000Y-76710008D03*
X477300000Y-77360008D03*
X477300000Y-78010008D03*
X482724000Y-78010008D03*
X482724000Y-77360008D03*
X482724000Y-76710008D03*
X482724000Y-76060008D03*
X482724000Y-75410008D03*
X482724000Y-74760008D03*
X482724000Y-74110008D03*
X482724000Y-73460008D03*
X482724000Y-72810008D03*
X482724000Y-72160008D03*
X482724000Y-71510008D03*
X482724000Y-70860008D03*
D128*
X480012000Y-74435008D03*
%TD*%
D129*
%TO.C,IC10*%
X421325000Y-3169427D03*
X421975000Y-3169427D03*
X422625000Y-3169427D03*
X423275000Y-3169427D03*
X423275000Y1288273D03*
X422625000Y1288273D03*
X421975000Y1288273D03*
X421325000Y1288273D03*
%TD*%
D38*
%TO.C,C79*%
X426346409Y-125892522D03*
X427306409Y-125892522D03*
%TD*%
D125*
%TO.C,C117*%
X395310000Y33600000D03*
X399710000Y33600000D03*
%TD*%
D20*
%TO.C,JP14*%
X393440000Y-124460000D03*
X393440000Y-126010000D03*
X393440000Y-122910000D03*
%TD*%
D120*
%TO.C,C57*%
X489548901Y29845512D03*
X491448901Y29845512D03*
%TD*%
D36*
%TO.C,R64*%
X412087456Y-122367065D03*
X412087456Y-120717065D03*
%TD*%
D70*
%TO.C,C44*%
X311184034Y-119687142D03*
X311184034Y-117787142D03*
%TD*%
D130*
%TO.C,X4*%
X408194488Y-78560000D03*
D131*
X408194488Y-81100000D03*
D130*
X408194488Y-83640000D03*
X411369488Y-78560000D03*
X411369488Y-83640000D03*
D131*
X413274488Y-80084000D03*
X413274488Y-82116000D03*
D132*
X409464488Y-81735000D03*
X409464488Y-80465000D03*
X410734488Y-81735000D03*
X410734488Y-80465000D03*
X412004488Y-81735000D03*
X412004488Y-80465000D03*
%TD*%
D84*
%TO.C,D8*%
X402928318Y-102608899D03*
X402928318Y-99891099D03*
%TD*%
D19*
%TO.C,R80*%
X358115000Y-159380000D03*
X356465000Y-159380000D03*
%TD*%
D133*
%TO.C,IC24*%
X367236874Y-156886874D03*
X366836874Y-156886874D03*
X366436874Y-156886874D03*
X366036874Y-156886874D03*
X365636874Y-156886874D03*
D134*
X364996874Y-157326874D03*
X364996874Y-157726874D03*
X364996874Y-158126874D03*
X364996874Y-158526874D03*
D133*
X365636874Y-158966874D03*
X366036874Y-158966874D03*
X366436874Y-158966874D03*
X366836874Y-158966874D03*
X367236874Y-158966874D03*
D134*
X367876874Y-158526874D03*
X367876874Y-158126874D03*
X367876874Y-157726874D03*
X367876874Y-157326874D03*
D135*
X366436874Y-157926874D03*
%TD*%
D136*
%TO.C,R33*%
X364835000Y14390677D03*
X364835000Y12565677D03*
%TD*%
D137*
%TO.C,IC11*%
X481205000Y14968800D03*
X482475000Y14968800D03*
X483745000Y14968800D03*
X485015000Y14968800D03*
X486285000Y14968800D03*
X487555000Y14968800D03*
X488825000Y14968800D03*
X490095000Y14968800D03*
X490095000Y24011200D03*
X488825000Y24011200D03*
X487555000Y24011200D03*
X486285000Y24011200D03*
X485015000Y24011200D03*
X483745000Y24011200D03*
X482475000Y24011200D03*
X481205000Y24011200D03*
%TD*%
D19*
%TO.C,R45*%
X313774034Y-127127142D03*
X312124034Y-127127142D03*
%TD*%
D22*
%TO.C,R13*%
X396515000Y-84650966D03*
X398165000Y-84650966D03*
%TD*%
%TO.C,R31*%
X363475761Y15922425D03*
X365125761Y15922425D03*
%TD*%
%TO.C,R84*%
X389678124Y20480000D03*
X391328124Y20480000D03*
%TD*%
D105*
%TO.C,VAR3*%
X328977362Y18264692D03*
X321477362Y20564692D03*
%TD*%
D35*
%TO.C,C3*%
X405770000Y-164360000D03*
X405770000Y-166260000D03*
%TD*%
D38*
%TO.C,C74*%
X426346409Y-133480069D03*
X427306409Y-133480069D03*
%TD*%
D68*
%TO.C,K5*%
X441358169Y-137629749D03*
X441358169Y-142669749D03*
X441358169Y-132589749D03*
X448918169Y-137629749D03*
X448918169Y-142669749D03*
X448918169Y-132589749D03*
D69*
X448918169Y-157959749D03*
X441358169Y-157959749D03*
%TD*%
D19*
%TO.C,R44*%
X313771561Y-125667321D03*
X312121561Y-125667321D03*
%TD*%
D39*
%TO.C,R48*%
X414120000Y5912664D03*
X414120000Y4262664D03*
%TD*%
D20*
%TO.C,C120*%
X363040000Y-166641994D03*
X363040000Y-168191994D03*
%TD*%
D79*
%TO.C,C129*%
X413225000Y41200000D03*
X414775000Y41200000D03*
%TD*%
D54*
%TO.C,TP12*%
X364500000Y-154600000D03*
%TD*%
D19*
%TO.C,R8*%
X397842616Y-100441670D03*
X396192616Y-100441670D03*
%TD*%
D34*
%TO.C,C116*%
X370160000Y-169180000D03*
X370160000Y-167630000D03*
%TD*%
%TO.C,C66*%
X385550000Y-163120000D03*
X385550000Y-161570000D03*
%TD*%
D21*
%TO.C,JP15*%
X381780000Y-139980000D03*
X380230000Y-139980000D03*
X383330000Y-139980000D03*
%TD*%
D36*
%TO.C,R81*%
X402071309Y18489310D03*
X402071309Y20139310D03*
%TD*%
%TO.C,R69*%
X416480520Y-119411939D03*
X416480520Y-117761939D03*
%TD*%
D22*
%TO.C,R14*%
X423025730Y-111310093D03*
X424675730Y-111310093D03*
%TD*%
D138*
%TO.C,C122*%
X370286874Y-158800000D03*
X369326874Y-158800000D03*
%TD*%
D84*
%TO.C,D4*%
X389873505Y-99146271D03*
X389873505Y-101864071D03*
%TD*%
D21*
%TO.C,C12*%
X393534869Y-102129923D03*
X391984869Y-102129923D03*
%TD*%
D79*
%TO.C,C101*%
X421684600Y-129469999D03*
X423234600Y-129469999D03*
%TD*%
D62*
%TO.C,H8*%
X520800000Y-63000000D03*
X521500000Y-61500000D03*
X521500000Y-64500000D03*
X523000000Y-60800000D03*
D63*
X523000000Y-63000000D03*
D62*
X523000000Y-65200000D03*
X524500000Y-61500000D03*
X524500000Y-64500000D03*
X525200000Y-63000000D03*
%TD*%
D85*
%TO.C,C17*%
X343591530Y11099281D03*
X358577530Y11099281D03*
%TD*%
D103*
%TO.C,C132*%
X486790000Y-72850000D03*
X484890000Y-72850000D03*
%TD*%
D91*
%TO.C,R94*%
X399138897Y47820000D03*
X399138897Y49645000D03*
%TD*%
D39*
%TO.C,R57*%
X394330000Y-161520000D03*
X394330000Y-163170000D03*
%TD*%
D100*
%TO.C,R86*%
X372022507Y-176420000D03*
X370197507Y-176420000D03*
%TD*%
D36*
%TO.C,R17*%
X407608318Y-101454999D03*
X407608318Y-99804999D03*
%TD*%
D85*
%TO.C,C23*%
X304337000Y-6811750D03*
X319323000Y-6811750D03*
%TD*%
D22*
%TO.C,R26*%
X296925000Y-156990000D03*
X298575000Y-156990000D03*
%TD*%
D139*
%TO.C,FB6*%
X390965000Y25060000D03*
X389265000Y25060000D03*
%TD*%
D89*
%TO.C,L12*%
X381890000Y23232400D03*
X382290000Y23232400D03*
X382690000Y23232400D03*
X383090000Y23232400D03*
X383490000Y23232400D03*
X383490000Y24350000D03*
X383090000Y24350000D03*
X382690000Y24350000D03*
X382290000Y24350000D03*
X381890000Y24350000D03*
%TD*%
D21*
%TO.C,C58*%
X491481964Y31560000D03*
X489931964Y31560000D03*
%TD*%
D140*
%TO.C,TR1*%
X382100000Y1990000D03*
D141*
X375350000Y1990000D03*
D142*
X340850000Y-74010000D03*
X346350000Y-74010000D03*
%TD*%
D143*
%TO.C,X13*%
X512500000Y45750000D03*
D144*
X509000000Y45750000D03*
X505500000Y45750000D03*
X502000000Y45750000D03*
X498500000Y45750000D03*
X495000000Y45750000D03*
X491500000Y45750000D03*
X488000000Y45750000D03*
X484500000Y45750000D03*
X481000000Y45750000D03*
%TD*%
D43*
%TO.C,X25*%
X469000000Y-158810000D03*
X471540000Y-158810000D03*
X469000000Y-156270000D03*
X471540000Y-156270000D03*
X469000000Y-153730000D03*
X471540000Y-153730000D03*
X469000000Y-151190000D03*
X471540000Y-151190000D03*
X469000000Y-148650000D03*
X471540000Y-148650000D03*
X469000000Y-146110000D03*
X471540000Y-146110000D03*
X469000000Y-143570000D03*
X471540000Y-143570000D03*
X469000000Y-141030000D03*
X471540000Y-141030000D03*
X469000000Y-138490000D03*
X471540000Y-138490000D03*
X469000000Y-135950000D03*
X471540000Y-135950000D03*
%TD*%
D145*
%TO.C,C19*%
X299050000Y-88421250D03*
X299050000Y-83595250D03*
%TD*%
D38*
%TO.C,C78*%
X426346409Y-124952522D03*
X427306409Y-124952522D03*
%TD*%
D63*
%TO.C,H3*%
X297000000Y-166700000D03*
%TD*%
D39*
%TO.C,R25*%
X410236465Y-101516399D03*
X410236465Y-103166399D03*
%TD*%
D146*
%TO.C,IC1*%
X391586668Y-109462623D03*
X392236669Y-109462623D03*
X392886670Y-109462623D03*
X393536669Y-109462623D03*
X394186668Y-109462623D03*
X394836669Y-109462623D03*
X395486668Y-109462623D03*
X395486670Y-103722223D03*
X394836669Y-103722223D03*
X394186670Y-103722223D03*
X393536669Y-103722223D03*
X392886670Y-103722223D03*
X392236669Y-103722223D03*
X391586670Y-103722223D03*
%TD*%
D36*
%TO.C,R75*%
X387509846Y-146151593D03*
X387509846Y-144501593D03*
%TD*%
D22*
%TO.C,R89*%
X362116662Y-157051404D03*
X363766662Y-157051404D03*
%TD*%
D34*
%TO.C,C8*%
X395978318Y-95654999D03*
X395978318Y-94104999D03*
%TD*%
D147*
%TO.C,IC13*%
X417814750Y9619423D03*
X417814750Y8349423D03*
D148*
X423908250Y7079423D03*
D147*
X417814750Y5809423D03*
X417814750Y4539423D03*
%TD*%
D149*
%TO.C,Q3*%
X296615000Y-153909000D03*
X298545400Y-153909000D03*
X297580200Y-151750000D03*
%TD*%
D54*
%TO.C,TP2*%
X409230000Y-100047318D03*
%TD*%
D36*
%TO.C,R43*%
X345518923Y-148714843D03*
X345518923Y-147064843D03*
%TD*%
D39*
%TO.C,R51*%
X495861690Y32588828D03*
X495861690Y30938828D03*
%TD*%
D108*
%TO.C,D7*%
X425281055Y-115120000D03*
X422563255Y-115120000D03*
%TD*%
D150*
%TO.C,Q1*%
X311109500Y-102245200D03*
X311109500Y-100314800D03*
X308950500Y-101280000D03*
%TD*%
D84*
%TO.C,D2*%
X399542465Y-108774957D03*
X399542465Y-111492757D03*
%TD*%
D39*
%TO.C,R60*%
X417784600Y-137954999D03*
X417784600Y-139604999D03*
%TD*%
D151*
%TO.C,C54*%
X418616000Y15010000D03*
X413790000Y15010000D03*
%TD*%
D86*
%TO.C,C82*%
X402110000Y-124480000D03*
X402110000Y-123520000D03*
%TD*%
D35*
%TO.C,C46*%
X340591327Y-167120204D03*
X340591327Y-169020204D03*
%TD*%
D86*
%TO.C,C81*%
X399664796Y-124480000D03*
X399664796Y-123520000D03*
%TD*%
D22*
%TO.C,R32*%
X296744120Y-144292277D03*
X298394120Y-144292277D03*
%TD*%
D84*
%TO.C,D1*%
X397480058Y-108790822D03*
X397480058Y-111508622D03*
%TD*%
D62*
%TO.C,H2*%
X294800000Y40200000D03*
X295500000Y41700000D03*
X295500000Y38700000D03*
X297000000Y42400000D03*
D63*
X297000000Y40200000D03*
D62*
X297000000Y38000000D03*
X298500000Y41700000D03*
X298500000Y38700000D03*
X299200000Y40200000D03*
%TD*%
D79*
%TO.C,C22*%
X296840000Y-142105000D03*
X298390000Y-142105000D03*
%TD*%
D108*
%TO.C,D6*%
X425287800Y-113080000D03*
X422570000Y-113080000D03*
%TD*%
D84*
%TO.C,D5*%
X402928318Y-105185352D03*
X402928318Y-107903152D03*
%TD*%
D16*
%TO.C,X8*%
X360920000Y49130000D03*
D152*
X357520000Y39710000D03*
D153*
X357520000Y43670000D03*
X357520000Y47630000D03*
%TD*%
D35*
%TO.C,C26*%
X340808923Y-151119843D03*
X340808923Y-153019843D03*
%TD*%
D154*
%TO.C,L4*%
X346958923Y-154909843D03*
X346958923Y-160409843D03*
%TD*%
D103*
%TO.C,C1*%
X314240011Y-94240684D03*
X312340011Y-94240684D03*
%TD*%
D111*
%TO.C,Q2*%
X409370000Y-163980000D03*
X407439600Y-163980000D03*
X408404800Y-166139000D03*
%TD*%
D36*
%TO.C,R73*%
X416324600Y-139609999D03*
X416324600Y-137959999D03*
%TD*%
D22*
%TO.C,R77*%
X384159846Y-147741593D03*
X385809846Y-147741593D03*
%TD*%
%TO.C,R5*%
X370465000Y-116430000D03*
X372115000Y-116430000D03*
%TD*%
D70*
%TO.C,C43*%
X309224034Y-119677142D03*
X309224034Y-117777142D03*
%TD*%
D17*
%TO.C,IC17*%
X487420000Y42170000D03*
X487420000Y42670000D03*
X487420000Y43170000D03*
X486120000Y43170000D03*
X486120000Y42670000D03*
X486120000Y42170000D03*
%TD*%
D155*
%TO.C,Q6*%
X299920000Y-139985000D03*
X299920000Y-140635000D03*
X299920000Y-141285000D03*
X299920000Y-141935000D03*
D156*
X301770000Y-140960000D03*
D157*
X302845000Y-139985000D03*
X302845000Y-140635000D03*
X302845000Y-141285000D03*
X302845000Y-141935000D03*
%TD*%
D158*
%TO.C,TR2*%
X493910000Y13510000D03*
X496450000Y13510000D03*
X498990000Y13510000D03*
X498990000Y25110000D03*
X496450000Y25110000D03*
X493910000Y25110000D03*
%TD*%
D103*
%TO.C,C40*%
X304014034Y-122197142D03*
X302114034Y-122197142D03*
%TD*%
D39*
%TO.C,R58*%
X392870000Y-161520000D03*
X392870000Y-163170000D03*
%TD*%
D79*
%TO.C,JP6*%
X411850000Y-75093143D03*
X413400000Y-75093143D03*
X410300000Y-75093143D03*
%TD*%
D21*
%TO.C,C96*%
X405065789Y-126809166D03*
X403515789Y-126809166D03*
%TD*%
D70*
%TO.C,C106*%
X402139846Y-149411593D03*
X402139846Y-147511593D03*
%TD*%
D79*
%TO.C,C97*%
X422514600Y-127739999D03*
X424064600Y-127739999D03*
%TD*%
D36*
%TO.C,R22*%
X406148318Y-101446399D03*
X406148318Y-99796399D03*
%TD*%
D22*
%TO.C,R3*%
X311195000Y-97520000D03*
X312845000Y-97520000D03*
%TD*%
D101*
%TO.C,JP1*%
X310030000Y-105480000D03*
D121*
X312570000Y-105480000D03*
%TD*%
D36*
%TO.C,R49*%
X415580726Y4269947D03*
X415580726Y5919947D03*
%TD*%
D22*
%TO.C,R27*%
X296925000Y-155530000D03*
X298575000Y-155530000D03*
%TD*%
D103*
%TO.C,C35*%
X308904034Y-123347142D03*
X307004034Y-123347142D03*
%TD*%
D22*
%TO.C,R41*%
X312132056Y-124203489D03*
X313782056Y-124203489D03*
%TD*%
D143*
%TO.C,X26*%
X466000000Y45750000D03*
D144*
X462500000Y45750000D03*
X459000000Y45750000D03*
X455500000Y45750000D03*
X452000000Y45750000D03*
X448500000Y45750000D03*
X445000000Y45750000D03*
X441500000Y45750000D03*
X438000000Y45750000D03*
X434500000Y45750000D03*
%TD*%
D66*
%TO.C,FM1*%
X295000000Y-177000000D03*
%TD*%
D22*
%TO.C,R54*%
X498390000Y36493911D03*
X500040000Y36493911D03*
%TD*%
D20*
%TO.C,C7*%
X393058318Y-94104999D03*
X393058318Y-95654999D03*
%TD*%
D79*
%TO.C,C94*%
X421694600Y-135039999D03*
X423244600Y-135039999D03*
%TD*%
%TO.C,C90*%
X384209846Y-144821593D03*
X385759846Y-144821593D03*
%TD*%
D36*
%TO.C,R12*%
X391586518Y-95714999D03*
X391586518Y-94064999D03*
%TD*%
D40*
%TO.C,X18*%
X365169990Y-142080001D03*
X365669989Y-142080001D03*
X366169991Y-142080001D03*
X366669990Y-142080001D03*
X367169991Y-142080001D03*
X367669990Y-142080001D03*
X368169989Y-142080001D03*
X368669991Y-142080001D03*
X369169990Y-142080001D03*
X369669992Y-142080001D03*
X370169990Y-142080001D03*
X370669990Y-142080001D03*
X371169991Y-142080001D03*
X371669990Y-142080001D03*
X372169992Y-142080001D03*
X372669991Y-142080001D03*
X373169990Y-142080001D03*
X373669991Y-142080001D03*
X374169990Y-142080001D03*
X374669989Y-142080001D03*
X375169991Y-142080001D03*
X375669990Y-142080001D03*
D41*
X362870000Y-144780000D03*
X377969980Y-144780000D03*
%TD*%
D39*
%TO.C,R92*%
X377930000Y23995000D03*
X377930000Y22345000D03*
%TD*%
D159*
%TO.C,X7*%
X367300000Y39820000D03*
X367300000Y44900000D03*
%TD*%
D39*
%TO.C,R67*%
X410631897Y-117750000D03*
X410631897Y-119400000D03*
%TD*%
D160*
%TO.C,FB1*%
X390276518Y-91009999D03*
X390276518Y-92709999D03*
%TD*%
D34*
%TO.C,C27*%
X342528923Y-152624843D03*
X342528923Y-151074843D03*
%TD*%
%TO.C,C89*%
X416479600Y-122314999D03*
X416479600Y-120764999D03*
%TD*%
D22*
%TO.C,R28*%
X360995000Y10218177D03*
X362645000Y10218177D03*
%TD*%
D36*
%TO.C,R42*%
X346978923Y-148714843D03*
X346978923Y-147064843D03*
%TD*%
D39*
%TO.C,R15*%
X410788318Y-87904999D03*
X410788318Y-89554999D03*
%TD*%
D70*
%TO.C,C52*%
X492110000Y8570000D03*
X492110000Y10470000D03*
%TD*%
D161*
%TO.C,L6*%
X498760000Y37833600D03*
X498760000Y39990000D03*
X499760000Y39990000D03*
X499760000Y37833600D03*
%TD*%
D20*
%TO.C,C9*%
X394518318Y-94104999D03*
X394518318Y-95654999D03*
%TD*%
D162*
%TO.C,C119*%
X370437507Y-174315321D03*
X373387507Y-174315321D03*
%TD*%
D163*
%TO.C,X5*%
X417500000Y-175500000D03*
X417500000Y-160200000D03*
%TD*%
D21*
%TO.C,C93*%
X406374600Y-124410000D03*
X404824600Y-124410000D03*
%TD*%
D65*
%TO.C,C71*%
X373440000Y-121080000D03*
X373440000Y-122040000D03*
%TD*%
D22*
%TO.C,R46*%
X424834998Y-191669D03*
X426484998Y-191669D03*
%TD*%
D34*
%TO.C,C73*%
X408869600Y-139564999D03*
X408869600Y-138014999D03*
%TD*%
D21*
%TO.C,C2*%
X408984800Y-75000000D03*
X407434800Y-75000000D03*
%TD*%
D164*
%TO.C,IC5*%
X397518319Y-88549999D03*
X397518319Y-89049998D03*
X397518319Y-89549999D03*
X397518319Y-90049998D03*
X397518319Y-90550000D03*
X397518319Y-91049999D03*
X397518319Y-91549998D03*
X397518319Y-92049999D03*
X397518319Y-92549999D03*
X397518319Y-93050000D03*
X397518319Y-93549999D03*
X397518319Y-94049998D03*
X397518319Y-94550000D03*
X397518319Y-95049999D03*
X397518319Y-95550000D03*
X397518319Y-96049999D03*
D165*
X399518318Y-98049998D03*
X400018317Y-98049998D03*
X400518318Y-98049998D03*
X401018317Y-98049998D03*
X401518319Y-98049998D03*
X402018318Y-98049998D03*
X402518317Y-98049998D03*
X403018318Y-98049998D03*
X403518318Y-98049998D03*
X404018319Y-98049998D03*
X404518318Y-98049998D03*
X405018317Y-98049998D03*
X405518319Y-98049998D03*
X406018318Y-98049998D03*
X406518319Y-98049998D03*
X407018318Y-98049998D03*
D164*
X409018317Y-96049999D03*
X409018317Y-95550000D03*
X409018317Y-95049999D03*
X409018317Y-94550000D03*
X409018317Y-94049998D03*
X409018317Y-93549999D03*
X409018317Y-93050000D03*
X409018317Y-92549999D03*
X409018317Y-92049999D03*
X409018317Y-91549998D03*
X409018317Y-91049999D03*
X409018317Y-90550000D03*
X409018317Y-90049998D03*
X409018317Y-89549999D03*
X409018317Y-89049998D03*
X409018317Y-88549999D03*
D165*
X407018318Y-86550000D03*
X406518319Y-86550000D03*
X406018318Y-86550000D03*
X405518319Y-86550000D03*
X405018317Y-86550000D03*
X404518318Y-86550000D03*
X404018319Y-86550000D03*
X403518318Y-86550000D03*
X403018318Y-86550000D03*
X402518317Y-86550000D03*
X402018318Y-86550000D03*
X401518319Y-86550000D03*
X401018317Y-86550000D03*
X400518318Y-86550000D03*
X400018317Y-86550000D03*
X399518318Y-86550000D03*
%TD*%
D80*
%TO.C,Q8*%
X352600000Y-160250000D03*
X352600000Y-162180400D03*
X354759000Y-161215200D03*
%TD*%
D20*
%TO.C,C61*%
X497598963Y39851800D03*
X497598963Y38301800D03*
%TD*%
D79*
%TO.C,C126*%
X412675000Y33750000D03*
X414225000Y33750000D03*
%TD*%
D54*
%TO.C,TP3*%
X306990000Y-91360000D03*
%TD*%
D166*
%TO.C,IC23*%
X395090000Y27680000D03*
X395090000Y27180000D03*
X395090000Y26680000D03*
X396390000Y26680000D03*
X396390000Y27180000D03*
X396390000Y27680000D03*
%TD*%
D21*
%TO.C,C33*%
X308949034Y-125557142D03*
X307399034Y-125557142D03*
%TD*%
D89*
%TO.C,L9*%
X365700000Y-164840000D03*
X366100000Y-164840000D03*
X366500000Y-164840000D03*
X366900000Y-164840000D03*
X367300000Y-164840000D03*
X367300000Y-163722400D03*
X366900000Y-163722400D03*
X366500000Y-163722400D03*
X366100000Y-163722400D03*
X365700000Y-163722400D03*
%TD*%
D79*
%TO.C,C56*%
X495484729Y36493911D03*
X497034729Y36493911D03*
%TD*%
D89*
%TO.C,L11*%
X408430000Y38441400D03*
X408830000Y38441400D03*
X409230000Y38441400D03*
X409630000Y38441400D03*
X410030000Y38441400D03*
X410030000Y39559000D03*
X409630000Y39559000D03*
X409230000Y39559000D03*
X408830000Y39559000D03*
X408430000Y39559000D03*
%TD*%
D167*
%TO.C,IC3*%
X394838069Y-100729923D03*
X394838069Y-100229923D03*
X394838069Y-99729923D03*
X394838069Y-99229923D03*
X392094869Y-99229923D03*
X392094869Y-99729923D03*
X392094869Y-100229923D03*
X392094869Y-100729923D03*
%TD*%
D79*
%TO.C,C98*%
X421684600Y-132449999D03*
X423234600Y-132449999D03*
%TD*%
D19*
%TO.C,R1*%
X348910531Y-120877322D03*
X347260531Y-120877322D03*
%TD*%
D20*
%TO.C,C86*%
X389599846Y-145211593D03*
X389599846Y-146761593D03*
%TD*%
D65*
%TO.C,C70*%
X372520000Y-121080000D03*
X372520000Y-122040000D03*
%TD*%
D123*
%TO.C,IC14*%
X497360000Y29430000D03*
X498630000Y29430000D03*
X499900000Y29430000D03*
X501170000Y29430000D03*
X501170000Y34830000D03*
X499900000Y34830000D03*
X498630000Y34830000D03*
X497360000Y34830000D03*
%TD*%
D43*
%TO.C,X24*%
X433500000Y-158810000D03*
X436040000Y-158810000D03*
X433500000Y-156270000D03*
X436040000Y-156270000D03*
X433500000Y-153730000D03*
X436040000Y-153730000D03*
X433500000Y-151190000D03*
X436040000Y-151190000D03*
X433500000Y-148650000D03*
X436040000Y-148650000D03*
X433500000Y-146110000D03*
X436040000Y-146110000D03*
X433500000Y-143570000D03*
X436040000Y-143570000D03*
X433500000Y-141030000D03*
X436040000Y-141030000D03*
X433500000Y-138490000D03*
X436040000Y-138490000D03*
X433500000Y-135950000D03*
X436040000Y-135950000D03*
%TD*%
D21*
%TO.C,C85*%
X389859846Y-150701593D03*
X388309846Y-150701593D03*
%TD*%
D54*
%TO.C,TP11*%
X373208963Y-162833865D03*
%TD*%
D21*
%TO.C,C99*%
X405074600Y-129919999D03*
X403524600Y-129919999D03*
%TD*%
D103*
%TO.C,C128*%
X414725111Y39480000D03*
X412825111Y39480000D03*
%TD*%
D68*
%TO.C,K6*%
X512391569Y-137629749D03*
X512391569Y-142669749D03*
X512391569Y-132589749D03*
X519951569Y-137629749D03*
X519951569Y-142669749D03*
X519951569Y-132589749D03*
D69*
X519951569Y-157959749D03*
X512391569Y-157959749D03*
%TD*%
D120*
%TO.C,C42*%
X345318923Y-165049843D03*
X347218923Y-165049843D03*
%TD*%
D34*
%TO.C,C13*%
X399708318Y-101374999D03*
X399708318Y-99824999D03*
%TD*%
D160*
%TO.C,FB3*%
X348938923Y-166772143D03*
X348938923Y-168472143D03*
%TD*%
D168*
%TO.C,X16*%
X405000000Y43300000D03*
X405500000Y43300000D03*
X406000000Y43300000D03*
X406500000Y43300000D03*
X407000000Y43300000D03*
X407500000Y43300000D03*
X408000000Y43300000D03*
X408500000Y43300000D03*
X409000000Y43300000D03*
X409500000Y43300000D03*
X410000000Y43300000D03*
X410500000Y43300000D03*
X411000000Y43300000D03*
X411500000Y43300000D03*
X412000000Y43300000D03*
X412500000Y43300000D03*
X413000000Y43300000D03*
X413500000Y43300000D03*
X414000000Y43300000D03*
D169*
X417600000Y49300000D03*
X417000000Y44400000D03*
X402500000Y44400000D03*
X401900000Y49300000D03*
%TD*%
D38*
%TO.C,C69*%
X401759600Y-133429999D03*
X402719600Y-133429999D03*
%TD*%
D19*
%TO.C,R24*%
X428453900Y-52891998D03*
X426803900Y-52891998D03*
%TD*%
D36*
%TO.C,R70*%
X407709183Y-122373681D03*
X407709183Y-120723681D03*
%TD*%
D39*
%TO.C,R11*%
X410787355Y-163778773D03*
X410787355Y-165428773D03*
%TD*%
D71*
%TO.C,X20*%
X466915000Y-84100000D03*
X466915000Y-107250000D03*
D72*
X465665000Y-118900000D03*
D73*
X463665000Y-117900000D03*
X465665000Y-116900000D03*
X463665000Y-115900000D03*
X465665000Y-114900000D03*
X463665000Y-113900000D03*
X465665000Y-112900000D03*
X463665000Y-111900000D03*
X465665000Y-110900000D03*
X463665000Y-109900000D03*
X465665000Y-108900000D03*
X463665000Y-105900000D03*
X465665000Y-104900000D03*
X463665000Y-103900000D03*
X465665000Y-102900000D03*
X463665000Y-101900000D03*
X465665000Y-100900000D03*
X463665000Y-99900000D03*
X465665000Y-98900000D03*
X463665000Y-97900000D03*
X465665000Y-96900000D03*
X463665000Y-95900000D03*
X465665000Y-94900000D03*
X463665000Y-93900000D03*
X465665000Y-92900000D03*
X463665000Y-91900000D03*
X465665000Y-90900000D03*
X463665000Y-89900000D03*
X465665000Y-88900000D03*
X463665000Y-87900000D03*
X465665000Y-86900000D03*
X463665000Y-85900000D03*
X468165000Y-118900000D03*
X470165000Y-117900000D03*
X468165000Y-116900000D03*
X470165000Y-115900000D03*
X468165000Y-114900000D03*
X470165000Y-113900000D03*
X468165000Y-112900000D03*
X470165000Y-111900000D03*
X468165000Y-110900000D03*
X470165000Y-109900000D03*
X468165000Y-108900000D03*
X470165000Y-105900000D03*
X468165000Y-104900000D03*
X470165000Y-103900000D03*
X468165000Y-102900000D03*
X470165000Y-101900000D03*
X468165000Y-100900000D03*
X470165000Y-99900000D03*
X468165000Y-98900000D03*
X470165000Y-97900000D03*
X468165000Y-96900000D03*
X470165000Y-95900000D03*
X468165000Y-94900000D03*
X470165000Y-93900000D03*
X468165000Y-92900000D03*
X470165000Y-91900000D03*
X468165000Y-90900000D03*
X470165000Y-89900000D03*
X468165000Y-88900000D03*
X470165000Y-87900000D03*
X468165000Y-86900000D03*
X470165000Y-85900000D03*
%TD*%
D89*
%TO.C,L13*%
X385030000Y23221399D03*
X385430000Y23221399D03*
X385830000Y23221399D03*
X386230000Y23221399D03*
X386630000Y23221399D03*
X386630000Y24338999D03*
X386230000Y24338999D03*
X385830000Y24338999D03*
X385430000Y24338999D03*
X385030000Y24338999D03*
%TD*%
D29*
%TO.C,K1*%
X330750000Y-61010000D03*
X330750000Y-49010000D03*
D30*
X318550000Y-61010000D03*
X318550000Y-49010000D03*
X332750000Y-55010000D03*
%TD*%
D52*
%TO.C,C25*%
X313457317Y-33140000D03*
X320957317Y-33140000D03*
%TD*%
D170*
%TO.C,F1*%
X331726105Y26236701D03*
X348726105Y26236701D03*
%TD*%
D21*
%TO.C,C131*%
X486395000Y-70760000D03*
X484845000Y-70760000D03*
%TD*%
D22*
%TO.C,R30*%
X360495761Y15922425D03*
X362145761Y15922425D03*
%TD*%
D67*
%TO.C,LED1*%
X307847500Y-97520000D03*
X309752500Y-97520000D03*
%TD*%
D39*
%TO.C,R59*%
X387010000Y-161520000D03*
X387010000Y-163170000D03*
%TD*%
D84*
%TO.C,D10*%
X312900000Y-149934173D03*
X312900000Y-152651973D03*
%TD*%
D22*
%TO.C,R47*%
X424835000Y1270000D03*
X426485000Y1270000D03*
%TD*%
D20*
%TO.C,C18*%
X305350000Y-83090001D03*
X305350000Y-84640001D03*
%TD*%
D103*
%TO.C,C111*%
X357714718Y-168670000D03*
X355814718Y-168670000D03*
%TD*%
D138*
%TO.C,C121*%
X370276874Y-157880000D03*
X369316874Y-157880000D03*
%TD*%
D67*
%TO.C,LED6*%
X391316124Y21958376D03*
X389411124Y21958376D03*
%TD*%
D22*
%TO.C,R87*%
X352760000Y-166390000D03*
X354410000Y-166390000D03*
%TD*%
D79*
%TO.C,C49*%
X417790000Y10790000D03*
X419340000Y10790000D03*
%TD*%
M02*
