%TF.GenerationSoftware,KiCad,Pcbnew,10.0.4-10.0.4~ubuntu24.04.1*%
%TF.CreationDate,2026-07-17T10:44:22+02:00*%
%TF.ProjectId,BB3plus mainboard,42423370-6c75-4732-906d-61696e626f61,r1B1*%
%TF.SameCoordinates,Original*%
%TF.FileFunction,Soldermask,Bot*%
%TF.FilePolarity,Negative*%
%FSLAX46Y46*%
G04 Gerber Fmt 4.6, Leading zero omitted, Abs format (unit mm)*
G04 Created by KiCad (PCBNEW 10.0.4-10.0.4~ubuntu24.04.1) date 2026-07-17 10:44:22*
%MOMM*%
%LPD*%
G01*
G04 APERTURE LIST*
G04 Aperture macros list*
%AMRoundRect*
0 Rectangle with rounded corners*
0 $1 Rounding radius*
0 $2 $3 $4 $5 $6 $7 $8 $9 X,Y pos of 4 corners*
0 Add a 4 corners polygon primitive as box body*
4,1,4,$2,$3,$4,$5,$6,$7,$8,$9,$2,$3,0*
0 Add four circle primitives for the rounded corners*
1,1,$1+$1,$2,$3*
1,1,$1+$1,$4,$5*
1,1,$1+$1,$6,$7*
1,1,$1+$1,$8,$9*
0 Add four rect primitives between the rounded corners*
20,1,$1+$1,$2,$3,$4,$5,0*
20,1,$1+$1,$4,$5,$6,$7,0*
20,1,$1+$1,$6,$7,$8,$9,0*
20,1,$1+$1,$8,$9,$2,$3,0*%
%AMFreePoly0*
4,1,17,0.355561,0.794901,0.794901,0.355561,0.813500,0.310660,0.813500,-0.310660,0.794901,-0.355561,0.355561,-0.794901,0.310660,-0.813500,-0.310660,-0.813500,-0.355561,-0.794901,-0.794901,-0.355561,-0.813500,-0.310660,-0.813500,0.310660,-0.794901,0.355561,-0.355561,0.794901,-0.310660,0.813500,0.310660,0.813500,0.355561,0.794901,0.355561,0.794901,$1*%
%AMFreePoly1*
4,1,17,0.328969,0.730701,0.730701,0.328969,0.749300,0.284068,0.749300,-0.284068,0.730701,-0.328969,0.328969,-0.730701,0.284068,-0.749300,-0.284068,-0.749300,-0.328969,-0.730701,-0.730701,-0.328969,-0.749300,-0.284068,-0.749300,0.284068,-0.730701,0.328969,-0.328969,0.730701,-0.284068,0.749300,0.284068,0.749300,0.328969,0.730701,0.328969,0.730701,$1*%
%AMFreePoly2*
4,1,17,0.413137,0.933901,0.933901,0.413137,0.952500,0.368236,0.952500,-0.368236,0.933901,-0.413137,0.413137,-0.933901,0.368236,-0.952500,-0.368236,-0.952500,-0.413137,-0.933901,-0.933901,-0.413137,-0.952500,-0.368236,-0.952500,0.368236,-0.933901,0.413137,-0.413137,0.933901,-0.368236,0.952500,0.368236,0.952500,0.413137,0.933901,0.413137,0.933901,$1*%
%AMFreePoly3*
4,1,17,0.360532,0.806901,0.806901,0.360532,0.825500,0.315631,0.825500,-0.315631,0.806901,-0.360532,0.360532,-0.806901,0.315631,-0.825500,-0.315631,-0.825500,-0.360532,-0.806901,-0.806901,-0.360532,-0.825500,-0.315631,-0.825500,0.315631,-0.806901,0.360532,-0.360532,0.806901,-0.315631,0.825500,0.315631,0.825500,0.360532,0.806901,0.360532,0.806901,$1*%
%AMFreePoly4*
4,1,17,0.570952,1.314901,1.314901,0.570952,1.333500,0.526051,1.333500,-0.526051,1.314901,-0.570952,0.570952,-1.314901,0.526051,-1.333500,-0.526051,-1.333500,-0.570952,-1.314901,-1.314901,-0.570952,-1.333500,-0.526051,-1.333500,0.526051,-1.314901,0.570952,-0.570952,1.314901,-0.526051,1.333500,0.526051,1.333500,0.570952,1.314901,0.570952,1.314901,$1*%
G04 Aperture macros list end*
%ADD10C,6.100000*%
%ADD11R,1.400000X1.400000*%
%ADD12C,1.400000*%
%ADD13RoundRect,0.102000X1.250000X1.750000X-1.250000X1.750000X-1.250000X-1.750000X1.250000X-1.750000X0*%
%ADD14O,2.704000X3.704000*%
%ADD15C,0.600000*%
%ADD16O,1.004000X1.604000*%
%ADD17O,2.704000X2.004000*%
%ADD18C,2.744000*%
%ADD19FreePoly0,90.000000*%
%ADD20C,2.667000*%
%ADD21FreePoly1,0.000000*%
%ADD22C,1.270000*%
%ADD23RoundRect,0.102000X0.550000X0.750000X-0.550000X0.750000X-0.550000X-0.750000X0.550000X-0.750000X0*%
%ADD24O,1.304000X1.704000*%
%ADD25O,1.404000X1.804000*%
%ADD26RoundRect,0.102000X0.600000X0.800000X-0.600000X0.800000X-0.600000X-0.800000X0.600000X-0.800000X0*%
%ADD27C,2.559000*%
%ADD28C,3.530000*%
%ADD29C,0.800000*%
%ADD30C,5.500000*%
%ADD31C,3.127000*%
%ADD32C,2.077000*%
%ADD33C,2.350000*%
%ADD34RoundRect,0.102000X-0.604000X0.604000X-0.604000X-0.604000X0.604000X-0.604000X0.604000X0.604000X0*%
%ADD35C,1.412000*%
%ADD36FreePoly2,0.000000*%
%ADD37C,1.905000*%
%ADD38C,3.500000*%
%ADD39O,2.400000X4.500000*%
%ADD40C,1.927000*%
%ADD41C,1.627000*%
%ADD42C,3.089000*%
%ADD43FreePoly3,0.000000*%
%ADD44C,1.150000*%
%ADD45C,7.400000*%
%ADD46C,1.650000*%
%ADD47C,1.250000*%
%ADD48RoundRect,0.063500X0.838200X0.838200X-0.838200X0.838200X-0.838200X-0.838200X0.838200X-0.838200X0*%
%ADD49C,1.803400*%
%ADD50RoundRect,0.170000X0.680000X-0.680000X0.680000X0.680000X-0.680000X0.680000X-0.680000X-0.680000X0*%
%ADD51C,1.700000*%
%ADD52O,3.727000X1.927000*%
%ADD53R,2.200000X2.200000*%
%ADD54C,2.200000*%
%ADD55FreePoly4,0.000000*%
%ADD56O,1.700000X1.700000*%
%ADD57FreePoly3,180.000000*%
%ADD58C,2.387600*%
%ADD59C,0.990600*%
%ADD60RoundRect,0.102000X-0.940500X0.940500X-0.940500X-0.940500X0.940500X-0.940500X0.940500X0.940500X0*%
%ADD61C,2.085000*%
%ADD62C,3.474000*%
%ADD63RoundRect,0.102000X1.050000X1.050000X-1.050000X1.050000X-1.050000X-1.050000X1.050000X-1.050000X0*%
%ADD64C,2.304000*%
%ADD65RoundRect,0.102000X1.750000X-1.250000X1.750000X1.250000X-1.750000X1.250000X-1.750000X-1.250000X0*%
%ADD66O,3.704000X2.704000*%
%ADD67C,2.540000*%
%ADD68C,2.800000*%
%ADD69O,1.404000X2.004000*%
G04 APERTURE END LIST*
D10*
%TO.C,Module1*%
X376000000Y-137250000D03*
X376000000Y-89250000D03*
X343000000Y-137250000D03*
X343000000Y-89250000D03*
%TD*%
D11*
%TO.C,SW1*%
X307500000Y-160700000D03*
D12*
X307500000Y-158200000D03*
X307500000Y-155700000D03*
X304500000Y-160700000D03*
X304500000Y-158200000D03*
X304500000Y-155700000D03*
X304730000Y-164400000D03*
X307270000Y-164400000D03*
%TD*%
%TO.C,X9*%
X301500000Y-69341600D03*
D13*
X310920000Y-72741600D03*
D14*
X306960000Y-72741600D03*
X303000000Y-72741600D03*
%TD*%
D15*
%TO.C,X15*%
X366800000Y-172010000D03*
X366400000Y-172710000D03*
X365600000Y-172710000D03*
X365200000Y-172010000D03*
X364800000Y-172710000D03*
X364400000Y-172010000D03*
X363600000Y-172010000D03*
X363200000Y-172710000D03*
X362800000Y-172010000D03*
X362400000Y-172710000D03*
X361600000Y-172710000D03*
X361200000Y-172010000D03*
D16*
X359510000Y-177000000D03*
X359870000Y-172600000D03*
X368130000Y-172600000D03*
X368490000Y-177000000D03*
%TD*%
D17*
%TO.C,K2*%
X330750000Y-76740000D03*
X330750000Y-64740000D03*
D18*
X318550000Y-76740000D03*
X318550000Y-64740000D03*
X332750000Y-70740000D03*
%TD*%
D19*
%TO.C,X27*%
X504500000Y-158810000D03*
X507040000Y-158810000D03*
X504500000Y-156270000D03*
X507040000Y-156270000D03*
X504500000Y-153730000D03*
X507040000Y-153730000D03*
X504500000Y-151190000D03*
X507040000Y-151190000D03*
X504500000Y-148650000D03*
X507040000Y-148650000D03*
X504500000Y-146110000D03*
X507040000Y-146110000D03*
X504500000Y-143570000D03*
X507040000Y-143570000D03*
X504500000Y-141030000D03*
X507040000Y-141030000D03*
X504500000Y-138490000D03*
X507040000Y-138490000D03*
X504500000Y-135950000D03*
X507040000Y-135950000D03*
%TD*%
D20*
%TO.C,L3*%
X308020000Y-11270000D03*
X302830000Y-12160000D03*
X305580000Y-12660000D03*
X305580000Y-27660000D03*
X302830000Y-28160000D03*
X308020000Y-29050000D03*
X315640000Y-11270000D03*
X320830000Y-12160000D03*
X318080000Y-12660000D03*
X318080000Y-27660000D03*
X320830000Y-28160000D03*
X315640000Y-29050000D03*
%TD*%
D21*
%TO.C,C24*%
X302697317Y-33140000D03*
X310197317Y-33140000D03*
%TD*%
D22*
%TO.C,TP4*%
X302940000Y-91350000D03*
%TD*%
D23*
%TO.C,X14*%
X378925000Y31670000D03*
D24*
X380955000Y31670000D03*
X382985000Y31670000D03*
X385015000Y31670000D03*
X387045000Y31670000D03*
X389075000Y31670000D03*
X379935000Y35230000D03*
X381970000Y35230000D03*
X386030000Y35230000D03*
X388065000Y35230000D03*
D25*
X376775000Y29230000D03*
X379315000Y29230000D03*
X386160000Y29230000D03*
X388685000Y29230000D03*
X391225000Y29230000D03*
D26*
X387505000Y40810000D03*
D25*
X385005000Y40810000D03*
X382995000Y40810000D03*
X380495000Y40810000D03*
D27*
X392065000Y46020000D03*
X392055000Y35230000D03*
D28*
X390565000Y37820000D03*
X390565000Y43510000D03*
X377435000Y37820000D03*
X377435000Y43510000D03*
D27*
X375945000Y35300000D03*
X375935000Y46020000D03*
D26*
X387505000Y38190000D03*
D25*
X385005000Y38190000D03*
X382995000Y38190000D03*
X380495000Y38190000D03*
%TD*%
D29*
%TO.C,H4*%
X418800000Y40200000D03*
X419500000Y41700000D03*
X419500000Y38700000D03*
X421000000Y42400000D03*
D30*
X421000000Y40200000D03*
D29*
X421000000Y38000000D03*
X422500000Y41700000D03*
X422500000Y38700000D03*
X423200000Y40200000D03*
%TD*%
D22*
%TO.C,TP1*%
X418455493Y-96224753D03*
%TD*%
D31*
%TO.C,K4*%
X476820000Y-137670000D03*
X476820000Y-142710000D03*
X476820000Y-132630000D03*
X484380000Y-137670000D03*
X484380000Y-142710000D03*
X484380000Y-132630000D03*
D32*
X484380000Y-158000000D03*
X476820000Y-158000000D03*
%TD*%
D33*
%TO.C,X19*%
X431415000Y-84100000D03*
X431415000Y-107250000D03*
D34*
X430165000Y-118900000D03*
D35*
X428165000Y-117900000D03*
X430165000Y-116900000D03*
X428165000Y-115900000D03*
X430165000Y-114900000D03*
X428165000Y-113900000D03*
X430165000Y-112900000D03*
X428165000Y-111900000D03*
X430165000Y-110900000D03*
X428165000Y-109900000D03*
X430165000Y-108900000D03*
X428165000Y-105900000D03*
X430165000Y-104900000D03*
X428165000Y-103900000D03*
X430165000Y-102900000D03*
X428165000Y-101900000D03*
X430165000Y-100900000D03*
X428165000Y-99900000D03*
X430165000Y-98900000D03*
X428165000Y-97900000D03*
X430165000Y-96900000D03*
X428165000Y-95900000D03*
X430165000Y-94900000D03*
X428165000Y-93900000D03*
X430165000Y-92900000D03*
X428165000Y-91900000D03*
X430165000Y-90900000D03*
X428165000Y-89900000D03*
X430165000Y-88900000D03*
X428165000Y-87900000D03*
X430165000Y-86900000D03*
X428165000Y-85900000D03*
X432665000Y-118900000D03*
X434665000Y-117900000D03*
X432665000Y-116900000D03*
X434665000Y-115900000D03*
X432665000Y-114900000D03*
X434665000Y-113900000D03*
X432665000Y-112900000D03*
X434665000Y-111900000D03*
X432665000Y-110900000D03*
X434665000Y-109900000D03*
X432665000Y-108900000D03*
X434665000Y-105900000D03*
X432665000Y-104900000D03*
X434665000Y-103900000D03*
X432665000Y-102900000D03*
X434665000Y-101900000D03*
X432665000Y-100900000D03*
X434665000Y-99900000D03*
X432665000Y-98900000D03*
X434665000Y-97900000D03*
X432665000Y-96900000D03*
X434665000Y-95900000D03*
X432665000Y-94900000D03*
X434665000Y-93900000D03*
X432665000Y-92900000D03*
X434665000Y-91900000D03*
X432665000Y-90900000D03*
X434665000Y-89900000D03*
X432665000Y-88900000D03*
X434665000Y-87900000D03*
X432665000Y-86900000D03*
X434665000Y-85900000D03*
%TD*%
D29*
%TO.C,H6*%
X520800000Y-166700000D03*
X521500000Y-165200000D03*
X521500000Y-168200000D03*
X523000000Y-164500000D03*
D30*
X523000000Y-166700000D03*
D29*
X523000000Y-168900000D03*
X524500000Y-165200000D03*
X524500000Y-168200000D03*
X525200000Y-166700000D03*
%TD*%
D36*
%TO.C,SP1*%
X407000000Y-169570000D03*
D37*
X407000000Y-174570000D03*
%TD*%
D38*
%TO.C,X6*%
X305450000Y43300000D03*
D39*
X332450000Y33600000D03*
X332450000Y36000000D03*
X318450000Y33600000D03*
X318450000Y36000000D03*
X325450000Y33600000D03*
X325450000Y36000000D03*
%TD*%
D40*
%TO.C,SW2*%
X387000000Y-170900000D03*
X392000000Y-170900000D03*
X397000000Y-170900000D03*
D41*
X389500000Y-168300000D03*
X394500000Y-168300000D03*
D42*
X400000000Y-167800000D03*
X384000000Y-167800000D03*
%TD*%
D43*
%TO.C,C21*%
X304337000Y13770000D03*
X319323000Y13770000D03*
%TD*%
D22*
%TO.C,TP7*%
X343958923Y-169959843D03*
%TD*%
D33*
%TO.C,X22*%
X502415000Y-84100000D03*
X502415000Y-107250000D03*
D34*
X501165000Y-118900000D03*
D35*
X499165000Y-117900000D03*
X501165000Y-116900000D03*
X499165000Y-115900000D03*
X501165000Y-114900000D03*
X499165000Y-113900000D03*
X501165000Y-112900000D03*
X499165000Y-111900000D03*
X501165000Y-110900000D03*
X499165000Y-109900000D03*
X501165000Y-108900000D03*
X499165000Y-105900000D03*
X501165000Y-104900000D03*
X499165000Y-103900000D03*
X501165000Y-102900000D03*
X499165000Y-101900000D03*
X501165000Y-100900000D03*
X499165000Y-99900000D03*
X501165000Y-98900000D03*
X499165000Y-97900000D03*
X501165000Y-96900000D03*
X499165000Y-95900000D03*
X501165000Y-94900000D03*
X499165000Y-93900000D03*
X501165000Y-92900000D03*
X499165000Y-91900000D03*
X501165000Y-90900000D03*
X499165000Y-89900000D03*
X501165000Y-88900000D03*
X499165000Y-87900000D03*
X501165000Y-86900000D03*
X499165000Y-85900000D03*
X503665000Y-118900000D03*
X505665000Y-117900000D03*
X503665000Y-116900000D03*
X505665000Y-115900000D03*
X503665000Y-114900000D03*
X505665000Y-113900000D03*
X503665000Y-112900000D03*
X505665000Y-111900000D03*
X503665000Y-110900000D03*
X505665000Y-109900000D03*
X503665000Y-108900000D03*
X505665000Y-105900000D03*
X503665000Y-104900000D03*
X505665000Y-103900000D03*
X503665000Y-102900000D03*
X505665000Y-101900000D03*
X503665000Y-100900000D03*
X505665000Y-99900000D03*
X503665000Y-98900000D03*
X505665000Y-97900000D03*
X503665000Y-96900000D03*
X505665000Y-95900000D03*
X503665000Y-94900000D03*
X505665000Y-93900000D03*
X503665000Y-92900000D03*
X505665000Y-91900000D03*
X503665000Y-90900000D03*
X505665000Y-89900000D03*
X503665000Y-88900000D03*
X505665000Y-87900000D03*
X503665000Y-86900000D03*
X505665000Y-85900000D03*
%TD*%
D20*
%TO.C,L2*%
X311830000Y8480000D03*
X311830000Y-1680000D03*
%TD*%
D22*
%TO.C,TP5*%
X379835000Y13268177D03*
%TD*%
D31*
%TO.C,K7*%
X454108169Y-137629749D03*
X454108169Y-142669749D03*
X454108169Y-132589749D03*
X461668169Y-137629749D03*
X461668169Y-142669749D03*
X461668169Y-132589749D03*
D32*
X461668169Y-157959749D03*
X454108169Y-157959749D03*
%TD*%
D44*
%TO.C,X3*%
X316500000Y-92000000D03*
D45*
X326500000Y-120250000D03*
X326500000Y-132250000D03*
X326500000Y-150250000D03*
D46*
X336500000Y-92000000D03*
D45*
X326500000Y-170250000D03*
%TD*%
D47*
%TO.C,X12*%
X426160000Y15730000D03*
D48*
X424000000Y20810000D03*
D49*
X424000000Y18270000D03*
X424000000Y15730000D03*
X424000000Y13190000D03*
%TD*%
D29*
%TO.C,H5*%
X508800000Y38000000D03*
X509500000Y39500000D03*
X509500000Y36500000D03*
X511000000Y40200000D03*
D30*
X511000000Y38000000D03*
D29*
X511000000Y35800000D03*
X512500000Y39500000D03*
X512500000Y36500000D03*
X513200000Y38000000D03*
%TD*%
D50*
%TO.C,JP2*%
X307550000Y-109860000D03*
D51*
X310090000Y-109860000D03*
X312630000Y-109860000D03*
%TD*%
D52*
%TO.C,VAR2*%
X303382105Y20564692D03*
X310882105Y18264692D03*
%TD*%
D53*
%TO.C,C14*%
X420320000Y-52955021D03*
D54*
X420320000Y-72955021D03*
%TD*%
D12*
%TO.C,X11*%
X301500000Y-43600000D03*
D13*
X310920000Y-47000000D03*
D14*
X306960000Y-47000000D03*
X303000000Y-47000000D03*
%TD*%
D12*
%TO.C,X10*%
X301500000Y-56470800D03*
D13*
X310920000Y-59870800D03*
D14*
X306960000Y-59870800D03*
X303000000Y-59870800D03*
%TD*%
D22*
%TO.C,TP10*%
X403299846Y-143301593D03*
%TD*%
D29*
%TO.C,H1*%
X424800000Y-166700000D03*
X425500000Y-165200000D03*
X425500000Y-168200000D03*
X427000000Y-164500000D03*
D30*
X427000000Y-166700000D03*
D29*
X427000000Y-168900000D03*
X428500000Y-165200000D03*
X428500000Y-168200000D03*
X429200000Y-166700000D03*
%TD*%
D31*
%TO.C,K3*%
X489620000Y-137670000D03*
X489620000Y-142710000D03*
X489620000Y-132630000D03*
X497180000Y-137670000D03*
X497180000Y-142710000D03*
X497180000Y-132630000D03*
D32*
X497180000Y-158000000D03*
X489620000Y-158000000D03*
%TD*%
D33*
%TO.C,X23*%
X520165000Y-84100000D03*
X520165000Y-107250000D03*
D34*
X518915000Y-118900000D03*
D35*
X516915000Y-117900000D03*
X518915000Y-116900000D03*
X516915000Y-115900000D03*
X518915000Y-114900000D03*
X516915000Y-113900000D03*
X518915000Y-112900000D03*
X516915000Y-111900000D03*
X518915000Y-110900000D03*
X516915000Y-109900000D03*
X518915000Y-108900000D03*
X516915000Y-105900000D03*
X518915000Y-104900000D03*
X516915000Y-103900000D03*
X518915000Y-102900000D03*
X516915000Y-101900000D03*
X518915000Y-100900000D03*
X516915000Y-99900000D03*
X518915000Y-98900000D03*
X516915000Y-97900000D03*
X518915000Y-96900000D03*
X516915000Y-95900000D03*
X518915000Y-94900000D03*
X516915000Y-93900000D03*
X518915000Y-92900000D03*
X516915000Y-91900000D03*
X518915000Y-90900000D03*
X516915000Y-89900000D03*
X518915000Y-88900000D03*
X516915000Y-87900000D03*
X518915000Y-86900000D03*
X516915000Y-85900000D03*
X521415000Y-118900000D03*
X523415000Y-117900000D03*
X521415000Y-116900000D03*
X523415000Y-115900000D03*
X521415000Y-114900000D03*
X523415000Y-113900000D03*
X521415000Y-112900000D03*
X523415000Y-111900000D03*
X521415000Y-110900000D03*
X523415000Y-109900000D03*
X521415000Y-108900000D03*
X523415000Y-105900000D03*
X521415000Y-104900000D03*
X523415000Y-103900000D03*
X521415000Y-102900000D03*
X523415000Y-101900000D03*
X521415000Y-100900000D03*
X523415000Y-99900000D03*
X521415000Y-98900000D03*
X523415000Y-97900000D03*
X521415000Y-96900000D03*
X523415000Y-95900000D03*
X521415000Y-94900000D03*
X523415000Y-93900000D03*
X521415000Y-92900000D03*
X523415000Y-91900000D03*
X521415000Y-90900000D03*
X523415000Y-89900000D03*
X521415000Y-88900000D03*
X523415000Y-87900000D03*
X521415000Y-86900000D03*
X523415000Y-85900000D03*
%TD*%
D22*
%TO.C,TP6*%
X312253534Y-114265369D03*
%TD*%
D29*
%TO.C,H7*%
X294800000Y-63000000D03*
X295500000Y-61500000D03*
X295500000Y-64500000D03*
X297000000Y-60800000D03*
D30*
X297000000Y-63000000D03*
D29*
X297000000Y-65200000D03*
X298500000Y-61500000D03*
X298500000Y-64500000D03*
X299200000Y-63000000D03*
%TD*%
D55*
%TO.C,NTC1*%
X325350000Y-41226552D03*
X330350000Y-41226552D03*
%TD*%
D22*
%TO.C,TP8*%
X491615000Y39520000D03*
%TD*%
D50*
%TO.C,JP8*%
X314520000Y-172890000D03*
D56*
X317060000Y-172890000D03*
%TD*%
D22*
%TO.C,TP9*%
X483700000Y39170000D03*
%TD*%
D52*
%TO.C,VAR1*%
X339572619Y20564692D03*
X347072619Y18264692D03*
%TD*%
D33*
%TO.C,X21*%
X484665000Y-84100000D03*
X484665000Y-107250000D03*
D34*
X483415000Y-118900000D03*
D35*
X481415000Y-117900000D03*
X483415000Y-116900000D03*
X481415000Y-115900000D03*
X483415000Y-114900000D03*
X481415000Y-113900000D03*
X483415000Y-112900000D03*
X481415000Y-111900000D03*
X483415000Y-110900000D03*
X481415000Y-109900000D03*
X483415000Y-108900000D03*
X481415000Y-105900000D03*
X483415000Y-104900000D03*
X481415000Y-103900000D03*
X483415000Y-102900000D03*
X481415000Y-101900000D03*
X483415000Y-100900000D03*
X481415000Y-99900000D03*
X483415000Y-98900000D03*
X481415000Y-97900000D03*
X483415000Y-96900000D03*
X481415000Y-95900000D03*
X483415000Y-94900000D03*
X481415000Y-93900000D03*
X483415000Y-92900000D03*
X481415000Y-91900000D03*
X483415000Y-90900000D03*
X481415000Y-89900000D03*
X483415000Y-88900000D03*
X481415000Y-87900000D03*
X483415000Y-86900000D03*
X481415000Y-85900000D03*
X485915000Y-118900000D03*
X487915000Y-117900000D03*
X485915000Y-116900000D03*
X487915000Y-115900000D03*
X485915000Y-114900000D03*
X487915000Y-113900000D03*
X485915000Y-112900000D03*
X487915000Y-111900000D03*
X485915000Y-110900000D03*
X487915000Y-109900000D03*
X485915000Y-108900000D03*
X487915000Y-105900000D03*
X485915000Y-104900000D03*
X487915000Y-103900000D03*
X485915000Y-102900000D03*
X487915000Y-101900000D03*
X485915000Y-100900000D03*
X487915000Y-99900000D03*
X485915000Y-98900000D03*
X487915000Y-97900000D03*
X485915000Y-96900000D03*
X487915000Y-95900000D03*
X485915000Y-94900000D03*
X487915000Y-93900000D03*
X485915000Y-92900000D03*
X487915000Y-91900000D03*
X485915000Y-90900000D03*
X487915000Y-89900000D03*
X485915000Y-88900000D03*
X487915000Y-87900000D03*
X485915000Y-86900000D03*
X487915000Y-85900000D03*
%TD*%
D57*
%TO.C,C28*%
X319323000Y-38229049D03*
X304337000Y-38229049D03*
%TD*%
D58*
%TO.C,X4*%
X408194488Y-78560000D03*
D59*
X408194488Y-81100000D03*
D58*
X408194488Y-83640000D03*
X411369488Y-78560000D03*
X411369488Y-83640000D03*
D59*
X413274488Y-80084000D03*
X413274488Y-82116000D03*
%TD*%
D52*
%TO.C,VAR3*%
X328977362Y18264692D03*
X321477362Y20564692D03*
%TD*%
D31*
%TO.C,K5*%
X441358169Y-137629749D03*
X441358169Y-142669749D03*
X441358169Y-132589749D03*
X448918169Y-137629749D03*
X448918169Y-142669749D03*
X448918169Y-132589749D03*
D32*
X448918169Y-157959749D03*
X441358169Y-157959749D03*
%TD*%
D22*
%TO.C,TP12*%
X364500000Y-154600000D03*
%TD*%
D29*
%TO.C,H8*%
X520800000Y-63000000D03*
X521500000Y-61500000D03*
X521500000Y-64500000D03*
X523000000Y-60800000D03*
D30*
X523000000Y-63000000D03*
D29*
X523000000Y-65200000D03*
X524500000Y-61500000D03*
X524500000Y-64500000D03*
X525200000Y-63000000D03*
%TD*%
D43*
%TO.C,C17*%
X343591530Y11099281D03*
X358577530Y11099281D03*
%TD*%
%TO.C,C23*%
X304337000Y-6811750D03*
X319323000Y-6811750D03*
%TD*%
D60*
%TO.C,TR1*%
X382100000Y1990000D03*
D61*
X375350000Y1990000D03*
D62*
X340850000Y-74010000D03*
X346350000Y-74010000D03*
%TD*%
D63*
%TO.C,X13*%
X512500000Y45750000D03*
D64*
X509000000Y45750000D03*
X505500000Y45750000D03*
X502000000Y45750000D03*
X498500000Y45750000D03*
X495000000Y45750000D03*
X491500000Y45750000D03*
X488000000Y45750000D03*
X484500000Y45750000D03*
X481000000Y45750000D03*
%TD*%
D19*
%TO.C,X25*%
X469000000Y-158810000D03*
X471540000Y-158810000D03*
X469000000Y-156270000D03*
X471540000Y-156270000D03*
X469000000Y-153730000D03*
X471540000Y-153730000D03*
X469000000Y-151190000D03*
X471540000Y-151190000D03*
X469000000Y-148650000D03*
X471540000Y-148650000D03*
X469000000Y-146110000D03*
X471540000Y-146110000D03*
X469000000Y-143570000D03*
X471540000Y-143570000D03*
X469000000Y-141030000D03*
X471540000Y-141030000D03*
X469000000Y-138490000D03*
X471540000Y-138490000D03*
X469000000Y-135950000D03*
X471540000Y-135950000D03*
%TD*%
D30*
%TO.C,H3*%
X297000000Y-166700000D03*
%TD*%
D22*
%TO.C,TP2*%
X409230000Y-100047318D03*
%TD*%
D29*
%TO.C,H2*%
X294800000Y40200000D03*
X295500000Y41700000D03*
X295500000Y38700000D03*
X297000000Y42400000D03*
D30*
X297000000Y40200000D03*
D29*
X297000000Y38000000D03*
X298500000Y41700000D03*
X298500000Y38700000D03*
X299200000Y40200000D03*
%TD*%
D12*
%TO.C,X8*%
X360920000Y49130000D03*
D65*
X357520000Y39710000D03*
D66*
X357520000Y43670000D03*
X357520000Y47630000D03*
%TD*%
D50*
%TO.C,JP1*%
X310030000Y-105480000D03*
D56*
X312570000Y-105480000D03*
%TD*%
D63*
%TO.C,X26*%
X466000000Y45750000D03*
D64*
X462500000Y45750000D03*
X459000000Y45750000D03*
X455500000Y45750000D03*
X452000000Y45750000D03*
X448500000Y45750000D03*
X445000000Y45750000D03*
X441500000Y45750000D03*
X438000000Y45750000D03*
X434500000Y45750000D03*
%TD*%
D67*
%TO.C,X7*%
X367300000Y39820000D03*
X367300000Y44900000D03*
%TD*%
D68*
%TO.C,X5*%
X417500000Y-175500000D03*
X417500000Y-160200000D03*
%TD*%
D22*
%TO.C,TP3*%
X306990000Y-91360000D03*
%TD*%
D19*
%TO.C,X24*%
X433500000Y-158810000D03*
X436040000Y-158810000D03*
X433500000Y-156270000D03*
X436040000Y-156270000D03*
X433500000Y-153730000D03*
X436040000Y-153730000D03*
X433500000Y-151190000D03*
X436040000Y-151190000D03*
X433500000Y-148650000D03*
X436040000Y-148650000D03*
X433500000Y-146110000D03*
X436040000Y-146110000D03*
X433500000Y-143570000D03*
X436040000Y-143570000D03*
X433500000Y-141030000D03*
X436040000Y-141030000D03*
X433500000Y-138490000D03*
X436040000Y-138490000D03*
X433500000Y-135950000D03*
X436040000Y-135950000D03*
%TD*%
D22*
%TO.C,TP11*%
X373208963Y-162833865D03*
%TD*%
D31*
%TO.C,K6*%
X512391569Y-137629749D03*
X512391569Y-142669749D03*
X512391569Y-132589749D03*
X519951569Y-137629749D03*
X519951569Y-142669749D03*
X519951569Y-132589749D03*
D32*
X519951569Y-157959749D03*
X512391569Y-157959749D03*
%TD*%
D69*
%TO.C,X16*%
X417600000Y49300000D03*
X417000000Y44400000D03*
X402500000Y44400000D03*
X401900000Y49300000D03*
%TD*%
D33*
%TO.C,X20*%
X466915000Y-84100000D03*
X466915000Y-107250000D03*
D34*
X465665000Y-118900000D03*
D35*
X463665000Y-117900000D03*
X465665000Y-116900000D03*
X463665000Y-115900000D03*
X465665000Y-114900000D03*
X463665000Y-113900000D03*
X465665000Y-112900000D03*
X463665000Y-111900000D03*
X465665000Y-110900000D03*
X463665000Y-109900000D03*
X465665000Y-108900000D03*
X463665000Y-105900000D03*
X465665000Y-104900000D03*
X463665000Y-103900000D03*
X465665000Y-102900000D03*
X463665000Y-101900000D03*
X465665000Y-100900000D03*
X463665000Y-99900000D03*
X465665000Y-98900000D03*
X463665000Y-97900000D03*
X465665000Y-96900000D03*
X463665000Y-95900000D03*
X465665000Y-94900000D03*
X463665000Y-93900000D03*
X465665000Y-92900000D03*
X463665000Y-91900000D03*
X465665000Y-90900000D03*
X463665000Y-89900000D03*
X465665000Y-88900000D03*
X463665000Y-87900000D03*
X465665000Y-86900000D03*
X463665000Y-85900000D03*
X468165000Y-118900000D03*
X470165000Y-117900000D03*
X468165000Y-116900000D03*
X470165000Y-115900000D03*
X468165000Y-114900000D03*
X470165000Y-113900000D03*
X468165000Y-112900000D03*
X470165000Y-111900000D03*
X468165000Y-110900000D03*
X470165000Y-109900000D03*
X468165000Y-108900000D03*
X470165000Y-105900000D03*
X468165000Y-104900000D03*
X470165000Y-103900000D03*
X468165000Y-102900000D03*
X470165000Y-101900000D03*
X468165000Y-100900000D03*
X470165000Y-99900000D03*
X468165000Y-98900000D03*
X470165000Y-97900000D03*
X468165000Y-96900000D03*
X470165000Y-95900000D03*
X468165000Y-94900000D03*
X470165000Y-93900000D03*
X468165000Y-92900000D03*
X470165000Y-91900000D03*
X468165000Y-90900000D03*
X470165000Y-89900000D03*
X468165000Y-88900000D03*
X470165000Y-87900000D03*
X468165000Y-86900000D03*
X470165000Y-85900000D03*
%TD*%
D17*
%TO.C,K1*%
X330750000Y-61010000D03*
X330750000Y-49010000D03*
D18*
X318550000Y-61010000D03*
X318550000Y-49010000D03*
X332750000Y-55010000D03*
%TD*%
D21*
%TO.C,C25*%
X313457317Y-33140000D03*
X320957317Y-33140000D03*
%TD*%
M02*
