M48
; DRILL file KiCad 10.0.5-10.0.5~ubuntu24.04.1 date 2026-08-26T14:30:29
; FORMAT={-:-/ absolute / metric / decimal}
; #@! TF.CreationDate,2026-08-26T14:30:29+02:00
; #@! TF.GenerationSoftware,Kicad,Pcbnew,10.0.5-10.0.5~ubuntu24.04.1
; #@! TF.FileFunction,Plated,1,4,PTH
FMAT,2
METRIC
; #@! TA.AperFunction,Plated,PTH,ViaDrill
T1C0.300
; #@! TA.AperFunction,Plated,PTH,ComponentDrill
T2C0.300
; #@! TA.AperFunction,Plated,PTH,ComponentDrill
T3C0.400
; #@! TA.AperFunction,Plated,PTH,ComponentDrill
T4C0.500
; #@! TA.AperFunction,Plated,PTH,ComponentDrill
T5C0.610
; #@! TA.AperFunction,Plated,PTH,ComponentDrill
T6C0.700
; #@! TA.AperFunction,Plated,PTH,ComponentDrill
T7C0.800
; #@! TA.AperFunction,Plated,PTH,ComponentDrill
T8C0.900
; #@! TA.AperFunction,Plated,PTH,ComponentDrill
T9C0.914
; #@! TA.AperFunction,Plated,PTH,ComponentDrill
T10C1.000
; #@! TA.AperFunction,Plated,PTH,ComponentDrill
T11C1.016
; #@! TA.AperFunction,Plated,PTH,ComponentDrill
T12C1.100
; #@! TA.AperFunction,Plated,PTH,ComponentDrill
T13C1.200
; #@! TA.AperFunction,Plated,PTH,ComponentDrill
T14C1.254
; #@! TA.AperFunction,Plated,PTH,ComponentDrill
T15C1.300
; #@! TA.AperFunction,Plated,PTH,ComponentDrill
T16C1.400
; #@! TA.AperFunction,Plated,PTH,ComponentDrill
T17C1.570
; #@! TA.AperFunction,Plated,PTH,ComponentDrill
T18C1.600
; #@! TA.AperFunction,Plated,PTH,ComponentDrill
T19C1.700
; #@! TA.AperFunction,Plated,PTH,ComponentDrill
T20C1.702
; #@! TA.AperFunction,Plated,PTH,ComponentDrill
T21C2.000
; #@! TA.AperFunction,Plated,PTH,ComponentDrill
T22C2.200
; #@! TA.AperFunction,Plated,PTH,ComponentDrill
T23C2.254
; #@! TA.AperFunction,Plated,PTH,ComponentDrill
T24C2.310
; #@! TA.AperFunction,Plated,PTH,ComponentDrill
T25C3.200
; #@! TA.AperFunction,Plated,PTH,ComponentDrill
T26C4.200
%
G90
G05
T1
X296.69Y-146.39
X298.28Y-143.28
X298.44Y-82.954
X298.44Y-83.589
X298.44Y-84.224
X298.53Y-153.03
X299.26Y-141.24
X299.68Y-82.959
X299.68Y-83.594
X299.68Y-84.229
X301.42Y-91.21
X301.42Y-91.84
X301.42Y-92.47
X301.542Y-100.428
X302.15Y-121.262
X302.474Y-126.117
X303.5Y-139.9
X303.5Y-140.425
X303.5Y-140.95
X303.5Y-141.475
X303.5Y-142.0
X304.2Y-139.9
X304.2Y-140.425
X304.2Y-140.95
X304.2Y-141.475
X304.2Y-142.0
X304.9Y-139.9
X304.9Y-140.425
X304.9Y-140.95
X304.9Y-141.475
X304.9Y-142.0
X305.474Y-120.607
X305.474Y-121.242
X305.474Y-121.877
X305.474Y-122.512
X305.474Y-123.147
X305.474Y-123.782
X305.474Y-124.417
X305.477Y-132.717
X305.477Y-133.352
X305.477Y-133.987
X305.477Y-134.622
X305.85Y-100.4
X305.94Y-84.64
X306.173Y-120.607
X306.173Y-121.242
X306.173Y-121.877
X306.173Y-122.512
X306.173Y-123.147
X306.173Y-123.782
X306.173Y-124.417
X306.176Y-132.717
X306.176Y-133.352
X306.176Y-133.987
X306.176Y-134.622
X306.784Y-130.097
X308.865Y-128.11
X308.865Y-128.773
X308.865Y-129.435
X309.224Y-124.517
X309.224Y-133.017
X309.564Y-128.11
X309.564Y-128.773
X309.564Y-129.435
X309.749Y-123.117
X309.749Y-123.817
X309.749Y-124.517
X309.749Y-133.017
X309.749Y-133.717
X309.749Y-134.417
X309.76Y-135.07
X310.024Y-131.267
X310.12Y-91.61
X310.274Y-123.117
X310.274Y-123.817
X310.274Y-124.517
X310.274Y-133.017
X310.274Y-133.717
X310.274Y-134.417
X310.289Y-135.07
X311.08Y-100.78
X311.401Y-127.625
X311.705Y-93.961
X311.705Y-94.471
X311.969Y-125.068
X312.003Y-127.697
X312.154Y-129.497
X312.544Y-124.657
X312.84Y-98.12
X312.9Y-157.91
X313.144Y-116.607
X313.59Y-149.97
X313.635Y-93.921
X313.635Y-94.451
X313.758Y-123.565
X314.326Y-125.662
X314.42Y-91.65
X316.15Y-89.03
X316.16Y-86.01
X317.25Y-87.68
X317.75Y-85.75
X319.25Y-85.77
X320.75Y-85.77
X322.25Y-85.75
X323.75Y-85.75
X325.25Y-85.76
X326.75Y-85.76
X327.14Y-110.46
X328.25Y-85.75
X329.38Y-110.03
X329.75Y-85.76
X331.25Y-85.75
X333.74Y16.76
X333.74Y16.22
X333.74Y15.67
X335.07Y-100.54
X335.071Y-99.9
X335.25Y-85.8
X335.712Y-100.54
X335.713Y-99.9
X336.355Y-100.54
X336.356Y-99.9
X336.85Y-85.95
X336.86Y-88.99
X336.962Y-137.11
X336.962Y-146.11
X336.998Y-100.54
X336.998Y-99.9
X337.5Y-146.11
X337.501Y-137.11
X337.64Y-100.54
X337.641Y-99.9
X338.04Y-137.11
X338.04Y-146.11
X338.969Y-104.431
X339.12Y14.13
X339.12Y13.6
X339.12Y13.06
X339.13Y-94.31
X339.47Y-103.1
X339.83Y-110.03
X339.93Y-119.4
X339.94Y-107.462
X339.94Y-108.038
X340.11Y-106.83
X340.11Y-113.36
X340.121Y-124.37
X340.156Y-170.421
X340.159Y-169.81
X340.174Y-168.155
X340.33Y-110.44
X340.35Y-112.35
X340.38Y-118.76
X340.42Y-119.95
X340.849Y-170.421
X340.851Y-169.81
X340.866Y-168.155
X341.0Y-105.36
X341.541Y-170.421
X341.544Y-169.81
X341.559Y-168.155
X341.59Y-117.55
X341.6Y-108.36
X341.633Y-154.862
X341.633Y-155.497
X341.633Y-156.132
X341.633Y-157.402
X341.633Y-158.037
X341.633Y-158.672
X341.633Y-159.307
X341.633Y-159.942
X341.633Y-160.577
X341.633Y-161.212
X341.633Y-161.847
X341.66Y-156.77
X341.666Y-116.366
X341.688Y-114.255
X341.73Y-123.76
X341.89Y-111.58
X341.92Y-113.24
X341.92Y-124.75
X341.93Y-109.54
X342.09Y-117.02
X342.123Y-104.394
X342.234Y-170.421
X342.236Y-169.81
X342.251Y-168.155
X342.32Y-114.52
X342.332Y-154.862
X342.332Y-155.497
X342.332Y-156.132
X342.332Y-156.767
X342.332Y-157.402
X342.332Y-158.037
X342.332Y-158.672
X342.332Y-159.307
X342.332Y-159.942
X342.332Y-160.577
X342.332Y-161.212
X342.332Y-161.847
X342.604Y-104.784
X342.628Y-110.238
X342.695Y-116.505
X342.8Y-115.01
X342.82Y-115.74
X342.839Y-111.76
X342.85Y-111.184
X342.926Y-170.421
X342.929Y-169.81
X342.944Y-168.155
X343.03Y-154.862
X343.03Y-155.497
X343.03Y-156.132
X343.03Y-156.767
X343.03Y-157.402
X343.03Y-158.037
X343.03Y-158.672
X343.03Y-159.307
X343.03Y-159.942
X343.03Y-160.577
X343.03Y-161.212
X343.03Y-161.847
X343.04Y-113.535
X343.05Y-128.76
X343.14Y-152.682
X343.216Y-104.906
X343.408Y-114.051
X343.46Y-125.14
X343.46Y-129.31
X343.5Y-120.35
X343.501Y-115.95
X343.51Y-117.55
X343.51Y-118.75
X343.52Y-111.95
X343.52Y-121.15
X343.624Y-105.314
X344.31Y-105.19
X344.67Y-108.35
X344.757Y-149.47
X344.789Y-109.95
X344.87Y-107.2
X345.44Y-106.261
X345.44Y-106.838
X345.52Y-121.48
X346.359Y-165.51
X346.45Y-121.772
X346.512Y-110.829
X347.736Y-147.286
X347.82Y-106.7
X348.13Y-119.96
X348.38Y-108.63
X348.899Y-151.12
X348.92Y-121.6
X351.72Y-158.87
X351.74Y-162.18
X351.949Y-172.015
X351.992Y-174.154
X352.15Y-124.77
X352.58Y-125.16
X352.679Y-172.015
X352.722Y-174.154
X353.83Y-111.838
X354.02Y-99.85
X354.597Y-99.85
X355.28Y-168.36
X355.28Y-169.09
X356.21Y-113.87
X356.25Y-127.76
X356.4Y-126.99
X356.99Y-166.51
X357.45Y-163.19
X357.59Y-114.68
X358.1Y-158.66
X358.4Y-165.536
X358.939Y-164.1
X358.939Y-164.64
X359.27Y-107.51
X359.35Y-162.47
X359.52Y-116.12
X359.54Y-113.42
X359.54Y-114.29
X359.57Y-156.9
X359.8Y15.95
X360.05Y-113.86
X360.5Y-81.45
X360.51Y-127.77
X360.522Y-162.99
X360.522Y-166.07
X360.938Y-127.34
X361.01Y-112.84
X361.01Y-114.75
X361.02Y-115.36
X361.022Y-116.282
X361.099Y-162.99
X361.099Y-166.07
X361.4Y-117.57
X361.4Y-165.57
X361.51Y-116.592
X361.7Y-80.91
X361.721Y-162.97
X361.76Y-94.76
X362.11Y-157.59
X362.127Y-112.353
X362.298Y-162.97
X362.6Y-93.91
X362.7Y-107.85
X362.74Y-111.91
X362.86Y-145.55
X362.98Y-166.04
X363.171Y-171.474
X363.26Y-110.98
X363.597Y8.806
X363.6Y9.6
X363.6Y-132.8
X363.75Y-171.291
X363.85Y-111.02
X364.03Y-167.83
X364.03Y-168.46
X364.24Y-109.82
X364.322Y8.806
X364.325Y9.6
X364.969Y-166.094
X365.047Y8.806
X365.05Y9.6
X365.17Y-142.79
X365.306Y-159.926
X365.551Y-155.87
X365.714Y-160.334
X365.772Y8.806
X365.775Y9.6
X365.787Y-158.177
X366.128Y-155.87
X366.437Y-157.678
X366.497Y8.806
X366.5Y9.6
X366.51Y-162.95
X366.67Y-142.79
X366.777Y-166.07
X367.087Y-158.177
X367.423Y-166.07
X367.71Y-95.81
X368.16Y-142.79
X368.21Y-96.28
X369.329Y-88.511
X369.33Y-172.66
X369.35Y-156.03
X369.37Y-157.16
X369.67Y-142.79
X369.902Y-88.582
X369.91Y-165.27
X369.98Y-89.22
X370.75Y-169.17
X370.78Y-88.03
X371.08Y-105.81
X371.17Y-142.79
X371.23Y-165.24
X371.332Y-158.53
X371.74Y-158.122
X371.82Y-108.15
X371.83Y-89.58
X372.02Y-164.29
X372.068Y-168.37
X372.27Y-165.11
X372.63Y-153.42
X372.66Y-155.511
X372.66Y-156.088
X372.67Y-142.79
X372.68Y-168.7
X372.71Y-165.55
X372.72Y-170.4
X372.963Y-66.366
X372.963Y-67.015
X372.963Y-67.665
X372.963Y-68.314
X372.963Y-68.964
X373.04Y-166.21
X373.31Y-92.69
X373.597Y-116.369
X373.65Y-132.8
X373.663Y-66.366
X373.663Y-67.015
X373.663Y-67.665
X373.663Y-68.314
X373.663Y-68.964
X373.84Y-93.21
X373.9Y-116.9
X374.04Y-116.0
X374.13Y-119.08
X374.15Y-117.95
X374.16Y-142.79
X374.35Y-93.71
X374.56Y-129.61
X374.591Y-103.07
X374.663Y-143.122
X374.89Y-175.123
X375.116Y-62.498
X375.116Y-63.135
X375.116Y-63.772
X375.116Y-64.409
X375.116Y-65.046
X375.13Y-129.51
X375.168Y-103.07
X375.171Y-142.799
X375.2Y-163.74
X375.28Y-93.69
X375.457Y-125.727
X375.47Y-120.35
X375.47Y-121.55
X375.47Y-122.75
X375.47Y-123.95
X375.47Y-125.15
X375.62Y-108.14
X375.67Y-110.712
X375.71Y-118.261
X375.71Y-118.838
X375.73Y-103.54
X375.8Y-114.508
X375.87Y-156.66
X375.886Y-62.501
X375.886Y-63.138
X375.886Y-63.775
X375.886Y-64.412
X375.886Y-65.049
X376.41Y-83.96
X376.656Y-141.241
X377.01Y-115.039
X377.16Y-158.95
X377.17Y-140.74
X377.2Y-132.8
X377.26Y-108.14
X377.29Y-114.392
X377.35Y-105.248
X377.45Y-107.15
X377.45Y-115.55
X377.45Y-116.75
X377.46Y-117.95
X377.46Y-119.15
X377.46Y-120.35
X377.46Y-121.55
X377.46Y-122.75
X377.46Y-125.15
X377.561Y-127.16
X377.92Y-104.89
X377.97Y-145.57
X378.138Y-127.16
X378.41Y-158.93
X378.56Y-154.06
X378.61Y-125.978
X378.656Y-124.076
X378.69Y11.06
X378.8Y-110.712
X378.943Y-114.664
X378.943Y-115.241
X378.99Y-153.55
X378.998Y-117.064
X378.998Y-117.641
X378.998Y-115.864
X378.998Y-116.441
X378.998Y-118.264
X378.998Y-118.841
X379.39Y24.47
X380.14Y-97.07
X380.2Y-98.29
X380.49Y16.78
X380.51Y10.17
X381.23Y-106.77
X381.282Y-102.89
X381.37Y-94.128
X381.38Y-124.84
X381.387Y-103.458
X381.562Y-105.069
X381.801Y22.03
X381.841Y-105.755
X381.883Y-93.691
X382.16Y-94.23
X382.279Y-97.57
X382.28Y-92.66
X382.28Y-106.44
X382.378Y22.03
X382.42Y-130.99
X382.517Y-93.69
X382.693Y23.789
X382.76Y-125.53
X383.001Y22.03
X383.32Y-139.37
X383.32Y-140.57
X383.45Y-159.48
X383.55Y-125.59
X383.578Y22.03
X383.62Y-59.48
X384.155Y-149.798
X384.19Y-145.562
X384.51Y-58.43
X384.75Y-128.25
X384.941Y22.03
X385.219Y-126.413
X385.518Y22.03
X385.55Y-163.7
X385.796Y-126.413
X385.83Y23.789
X386.142Y22.02
X386.25Y-128.25
X386.709Y-126.502
X386.719Y22.02
X387.28Y-104.36
X387.286Y-126.502
X387.288Y-114.022
X387.31Y-102.93
X387.74Y-128.25
X387.83Y-98.16
X387.88Y-114.225
X387.888Y-114.802
X388.018Y-108.876
X388.07Y-129.45
X388.1Y-107.4
X388.13Y-110.976
X388.15Y-144.491
X388.2Y-93.55
X388.21Y-100.12
X388.229Y-126.522
X388.29Y-96.43
X388.31Y-97.2
X388.328Y-113.012
X388.355Y-107.918
X388.492Y-113.586
X388.492Y-114.24
X388.492Y-115.23
X388.5Y-129.02
X388.5Y-161.01
X388.547Y-111.489
X388.55Y-91.87
X388.588Y-110.149
X388.637Y-109.09
X388.73Y-99.574
X388.806Y-126.522
X388.886Y-111.956
X388.92Y-115.73
X388.945Y-109.578
X388.949Y-110.599
X388.98Y-89.248
X388.997Y-113.158
X389.015Y-108.654
X389.02Y-105.88
X389.045Y-112.511
X389.25Y-128.25
X389.253Y-98.342
X389.34Y-87.43
X389.472Y-89.55
X389.49Y-100.42
X389.724Y-126.54
X389.862Y-87.75
X389.874Y-100.94
X389.9Y-97.7
X389.903Y-88.326
X389.94Y-162.041
X390.301Y-126.54
X390.507Y-150.708
X390.75Y-128.25
X390.8Y-117.41
X390.89Y26.094
X390.964Y24.35
X391.22Y-91.01
X391.27Y-129.74
X391.31Y-117.09
X391.316Y19.749
X391.366Y-110.392
X391.4Y-163.7
X391.48Y-108.84
X391.56Y-130.241
X391.6Y-101.3
X391.912Y-105.153
X391.955Y-150.2
X391.955Y-150.899
X391.955Y-151.597
X392.25Y-128.25
X392.28Y-115.23
X392.31Y-116.37
X392.315Y-101.495
X392.32Y-94.07
X392.33Y-111.552
X392.331Y-114.655
X392.35Y-117.84
X392.402Y-118.43
X392.414Y-95.655
X392.43Y-104.71
X392.552Y-107.95
X392.59Y-150.2
X392.59Y-150.899
X392.59Y-151.597
X392.793Y-106.388
X392.86Y-122.91
X392.86Y-126.05
X393.18Y-105.96
X393.182Y-97.18
X393.225Y-150.2
X393.225Y-150.899
X393.225Y-151.597
X393.342Y-73.827
X393.488Y-92.489
X393.68Y-97.472
X393.74Y-128.25
X393.79Y-94.08
X393.801Y-95.648
X393.82Y-74.15
X393.82Y-115.35
X393.83Y-113.59
X393.832Y-115.98
X393.86Y-150.2
X393.86Y-150.899
X393.86Y-151.58
X394.11Y-99.73
X394.16Y-102.13
X394.192Y-113.06
X394.251Y-123.42
X394.268Y-124.042
X394.325Y-107.961
X394.39Y26.68
X394.42Y-104.76
X394.48Y19.74
X394.495Y-150.2
X394.495Y-150.899
X394.495Y-151.597
X394.508Y-108.508
X394.6Y-101.69
X394.604Y-91.244
X394.698Y-128.34
X394.708Y-128.938
X394.72Y-113.72
X394.82Y27.94
X394.833Y-93.071
X394.85Y-98.91
X394.97Y-161.52
X395.06Y-118.96
X395.112Y-108.509
X395.13Y-89.555
X395.13Y-150.2
X395.13Y-150.899
X395.13Y-151.597
X395.14Y-116.638
X395.171Y-119.84
X395.171Y-124.24
X395.252Y-110.281
X395.262Y-95.655
X395.49Y27.18
X395.765Y-150.2
X395.765Y-150.899
X395.765Y-151.597
X395.94Y26.68
X395.94Y-117.12
X396.132Y-127.388
X396.238Y-87.4
X396.4Y-150.2
X396.4Y-150.899
X396.4Y-151.597
X396.422Y-106.789
X396.52Y-115.934
X396.52Y-119.02
X396.56Y-127.79
X396.569Y-94.91
X396.66Y-128.63
X396.72Y27.18
X396.93Y-104.107
X396.99Y-108.702
X397.035Y-150.2
X397.035Y-150.899
X397.035Y-151.597
X397.06Y-102.598
X397.11Y-60.13
X397.122Y-70.68
X397.14Y-110.117
X397.33Y-71.3
X397.365Y-107.575
X397.4Y23.72
X397.49Y-58.43
X397.49Y-59.48
X397.55Y-129.488
X397.66Y-115.42
X397.67Y-150.2
X397.67Y-150.899
X397.67Y-151.597
X397.688Y-85.405
X397.89Y-101.04
X397.92Y-111.51
X397.948Y33.945
X397.948Y33.31
X397.949Y-107.551
X397.97Y-85.922
X397.99Y40.135
X397.99Y39.5
X398.243Y-89.07
X398.27Y-87.909
X398.29Y-82.38
X398.305Y-150.2
X398.305Y-150.899
X398.305Y-151.597
X398.337Y-92.535
X398.38Y-70.1
X398.44Y-8.67
X398.512Y-95.752
X398.622Y-86.113
X398.72Y-110.58
X398.73Y-86.68
X398.76Y-87.32
X398.87Y-9.22
X398.94Y-150.2
X398.94Y-150.899
X398.94Y-151.597
X398.97Y-114.44
X399.01Y-113.8
X399.07Y-103.71
X399.07Y-104.94
X399.08Y-84.78
X399.16Y-88.81
X399.169Y-89.619
X399.22Y-66.361
X399.22Y-67.01
X399.22Y-67.66
X399.22Y-68.309
X399.22Y-68.959
X399.252Y-9.722
X399.4Y-79.45
X399.47Y-91.02
X399.5Y-113.372
X399.52Y-98.79
X399.618Y-81.878
X399.66Y-10.13
X399.74Y-143.962
X399.77Y-107.85
X399.8Y-93.08
X399.92Y-66.361
X399.92Y-67.01
X399.92Y-67.66
X399.92Y-68.309
X399.92Y-68.959
X399.982Y-101.918
X400.07Y24.697
X400.13Y-93.59
X400.37Y-143.962
X400.472Y-87.762
X400.53Y-81.97
X400.69Y24.697
X400.77Y-144.922
X400.81Y28.07
X400.938Y-111.918
X401.0Y-98.96
X401.33Y-92.62
X401.388Y-111.514
X401.39Y-81.92
X401.4Y-79.53
X401.41Y-112.25
X401.438Y-105.02
X401.457Y18.485
X401.47Y-77.68
X401.49Y-78.322
X401.58Y-106.68
X401.58Y-110.97
X401.592Y-81.29
X401.61Y-144.132
X401.628Y-142.782
X401.73Y-105.56
X401.84Y-76.8
X402.0Y-98.92
X402.07Y26.04
X402.08Y-100.87
X402.2Y-110.98
X402.3Y-144.132
X402.318Y-142.782
X402.458Y-97.049
X402.488Y-108.86
X402.52Y-62.506
X402.52Y-63.143
X402.52Y-63.78
X402.52Y-64.417
X402.52Y-65.054
X402.58Y-98.89
X402.91Y-96.69
X402.91Y-126.73
X402.936Y-100.531
X402.94Y-129.91
X402.95Y-85.21
X402.96Y-131.74
X403.05Y-89.35
X403.156Y-98.929
X403.29Y-62.509
X403.29Y-63.146
X403.29Y-63.783
X403.29Y-64.42
X403.29Y-65.057
X403.38Y-77.68
X403.38Y-79.43
X403.445Y-83.59
X403.45Y-81.92
X403.48Y-81.29
X403.48Y-85.507
X403.661Y-105.32
X403.83Y-134.28
X404.01Y-87.38
X404.015Y-137.055
X404.05Y-138.36
X404.212Y-85.254
X404.31Y-75.72
X404.43Y-54.93
X404.44Y-129.87
X404.47Y-100.33
X404.48Y-126.72
X404.5Y-98.95
X404.57Y-123.74
X404.591Y-107.47
X404.65Y-114.5
X404.708Y-92.05
X404.72Y-89.67
X404.855Y-55.395
X404.94Y-78.13
X405.013Y-97.058
X405.23Y-77.21
X405.26Y-163.77
X405.275Y-164.785
X405.4Y-134.2
X405.45Y-100.62
X405.5Y44.6
X405.51Y-89.49
X405.59Y-113.59
X405.6Y-131.73
X405.7Y-96.0
X405.74Y-108.54
X405.778Y-106.593
X405.98Y-87.61
X406.08Y-77.207
X406.17Y-113.3
X406.2Y-106.2
X406.2Y-138.07
X406.26Y40.301
X406.26Y37.64
X406.356Y-122.295
X406.45Y-165.58
X406.54Y-88.1
X406.54Y-95.122
X406.55Y-87.42
X406.702Y-100.768
X406.796Y-107.962
X406.83Y-73.03
X406.84Y-121.98
X406.87Y-81.33
X406.99Y-124.31
X407.0Y44.6
X407.007Y-74.505
X407.1Y-93.81
X407.101Y-117.783
X407.105Y-94.475
X407.23Y-97.28
X407.38Y-108.27
X407.4Y-103.12
X407.417Y-139.018
X407.43Y-99.31
X407.467Y-163.021
X407.473Y-92.478
X407.51Y-87.28
X407.51Y-91.26
X407.75Y-90.66
X407.86Y-110.67
X407.95Y-88.602
X408.03Y-95.0
X408.05Y-92.49
X408.069Y-91.53
X408.196Y-101.455
X408.5Y44.6
X408.55Y-104.71
X408.86Y-140.12
X408.93Y-70.08
X408.987Y-74.405
X409.12Y-102.43
X409.17Y-120.2
X409.226Y40.301
X409.23Y37.64
X409.74Y-138.07
X409.74Y-108.24
X409.777Y-122.27
X410.0Y44.6
X410.133Y-93.702
X410.16Y-126.501
X410.16Y-127.2
X410.16Y-127.898
X410.18Y-90.26
X410.181Y-132.431
X410.181Y-133.13
X410.181Y-133.828
X410.26Y-80.986
X410.29Y-74.485
X410.29Y-92.608
X410.32Y-140.13
X410.376Y-93.178
X410.63Y-118.28
X410.63Y-119.9
X410.77Y-87.4
X410.787Y-163.27
X410.838Y-96.682
X410.87Y-135.08
X410.88Y-126.501
X410.88Y-127.2
X410.88Y-127.898
X410.88Y-132.431
X410.88Y-133.13
X410.88Y-133.828
X410.97Y-94.59
X410.986Y-103.176
X411.0Y-54.04
X411.138Y-101.55
X411.357Y-120.19
X411.37Y-125.6
X411.45Y-135.07
X411.48Y-72.73
X411.698Y-98.47
X411.698Y-99.38
X411.73Y-123.58
X411.81Y-86.06
X411.91Y-94.61
X411.912Y-119.758
X411.938Y-118.237
X411.981Y-88.119
X412.02Y-53.38
X412.11Y-72.205
X412.12Y-89.9
X412.13Y-71.505
X412.23Y-125.118
X412.358Y-98.47
X412.358Y-99.38
X412.37Y-96.31
X412.4Y-108.54
X412.583Y-88.123
X412.615Y-62.474
X412.615Y-63.111
X412.615Y-63.748
X412.615Y-64.385
X412.615Y-65.022
X412.65Y-138.61
X412.65Y-140.13
X412.67Y33.0
X412.84Y-89.98
X412.92Y-83.016
X412.94Y-108.86
X412.952Y-122.37
X413.0Y44.6
X413.133Y-66.358
X413.133Y-67.008
X413.133Y-67.657
X413.133Y-68.307
X413.133Y-68.956
X413.195Y-129.471
X413.195Y-130.17
X413.195Y-130.868
X413.35Y-125.43
X413.385Y-62.478
X413.385Y-63.115
X413.385Y-63.752
X413.385Y-64.389
X413.385Y-65.026
X413.47Y-77.38
X413.479Y-120.19
X413.55Y-118.83
X413.58Y-108.25
X413.68Y33.75
X413.7Y-74.18
X413.741Y-134.818
X413.76Y15.55
X413.76Y14.44
X413.828Y-101.55
X413.83Y-129.471
X413.83Y-130.17
X413.83Y-130.868
X413.833Y-66.358
X413.833Y-67.008
X413.833Y-67.657
X413.833Y-68.307
X413.833Y-68.956
X413.838Y-103.1
X413.93Y-75.08
X414.038Y-99.27
X414.04Y-73.505
X414.06Y-106.792
X414.1Y-71.565
X414.23Y-86.02
X414.31Y-104.5
X414.318Y-134.818
X414.465Y-129.471
X414.465Y-130.17
X414.465Y-130.868
X414.48Y-58.43
X414.49Y-59.48
X414.596Y-93.11
X414.7Y38.62
X414.75Y-144.87
X414.78Y40.56
X414.83Y-86.008
X414.83Y-106.69
X414.865Y-138.61
X414.865Y-140.13
X415.04Y-76.91
X415.07Y-92.78
X415.09Y6.39
X415.13Y-74.1
X415.401Y-145.366
X415.45Y-119.69
X415.48Y-106.71
X415.718Y-85.657
X415.908Y-103.13
X415.91Y-84.34
X415.92Y-72.545
X415.94Y-94.84
X416.12Y-106.61
X416.13Y-86.22
X416.19Y-93.28
X416.28Y-89.53
X416.29Y-104.56
X416.32Y-92.62
X416.33Y-91.44
X416.333Y-85.667
X416.44Y-121.77
X416.475Y-96.78
X416.48Y-117.326
X416.49Y-96.19
X416.537Y-97.373
X416.575Y-148.205
X416.64Y-123.57
X416.69Y-75.43
X416.69Y-98.27
X416.69Y-148.96
X416.707Y-147.616
X416.761Y-94.22
X416.77Y-126.53
X416.77Y-127.2
X416.77Y-127.898
X416.77Y-132.431
X416.77Y-133.13
X416.77Y-133.828
X416.77Y-84.63
X416.84Y34.88
X416.95Y-134.84
X416.96Y23.14
X417.03Y-119.42
X417.19Y-91.449
X417.347Y-84.63
X417.468Y-126.53
X417.468Y-127.2
X417.468Y-127.898
X417.48Y-132.431
X417.48Y-133.13
X417.48Y-133.828
X417.53Y-134.98
X417.55Y-120.23
X417.596Y-51.313
X417.763Y-140.143
X417.81Y9.009
X417.81Y7.659
X417.81Y0.33
X417.84Y-143.54
X418.152Y-51.16
X418.33Y-104.53
X418.449Y-134.99
X418.45Y-82.11
X418.91Y-81.76
X418.92Y1.05
X418.97Y-89.47
X418.99Y-142.82
X419.014Y-104.966
X419.2Y-104.42
X419.202Y-107.972
X419.22Y-103.76
X419.23Y-97.78
X419.23Y-105.54
X419.31Y-95.06
X419.42Y-96.86
X419.49Y-142.05
X419.79Y-123.49
X419.87Y-89.98
X419.9Y10.79
X420.04Y-124.67
X420.19Y-47.44
X420.19Y-60.44
X420.32Y-135.95
X420.73Y-47.07
X420.8Y-99.24
X420.81Y-92.96
X420.986Y-122.112
X420.986Y-122.67
X421.012Y-120.355
X421.012Y-120.93
X421.08Y-111.9
X421.43Y-112.57
X421.49Y-86.362
X422.078Y-128.03
X422.11Y-93.31
X422.11Y-111.03
X422.19Y9.293
X422.19Y8.547
X422.19Y7.801
X422.19Y7.055
X422.19Y6.308
X422.19Y5.562
X422.19Y4.816
X422.22Y-129.59
X422.23Y-132.33
X422.23Y-136.51
X422.28Y-125.33
X422.32Y-135.04
X422.84Y-7.1
X422.85Y-8.39
X422.85Y-9.34
X423.01Y-111.96
X423.06Y9.293
X423.06Y8.547
X423.06Y7.801
X423.06Y7.055
X423.06Y6.308
X423.06Y5.562
X423.06Y4.816
X423.16Y-110.03
X423.197Y-116.362
X423.209Y-8.842
X423.233Y-9.772
X423.64Y-109.602
X423.74Y-93.9
X423.75Y-125.34
X423.81Y-108.65
X423.86Y-132.32
X423.87Y-136.51
X423.88Y-129.46
X423.88Y-135.04
X423.908Y9.293
X423.908Y8.547
X423.908Y7.801
X423.908Y7.055
X423.908Y6.308
X423.908Y5.562
X423.908Y4.816
X423.97Y-98.95
X423.98Y-101.37
X424.027Y-96.813
X424.04Y-100.16
X424.14Y-107.55
X424.172Y-95.35
X424.19Y-101.96
X424.208Y-102.64
X424.208Y-103.3
X424.23Y-106.9
X424.23Y-108.15
X424.24Y-104.41
X424.283Y-99.597
X424.39Y-5.72
X424.418Y-110.169
X424.48Y-108.96
X424.6Y-96.02
X424.66Y-127.74
X424.76Y-106.17
X424.79Y9.293
X424.79Y8.547
X424.79Y7.801
X424.79Y7.055
X424.79Y6.308
X424.79Y5.562
X424.79Y4.816
X424.94Y-106.78
X424.94Y-139.22
X425.47Y-95.14
X425.61Y9.293
X425.61Y8.547
X425.61Y7.801
X425.61Y7.055
X425.61Y6.308
X425.61Y5.562
X425.61Y4.816
X425.695Y-93.285
X426.1Y-95.35
X426.138Y-105.54
X426.485Y0.55
X426.64Y-99.9
X427.19Y-100.34
X429.824Y-53.702
X431.39Y-91.42
X431.45Y-110.205
X433.384Y-52.892
X433.933Y-66.369
X433.933Y-67.019
X433.933Y-67.668
X433.933Y-68.318
X433.933Y-68.967
X434.633Y-66.369
X434.633Y-67.019
X434.633Y-67.668
X434.633Y-68.318
X434.633Y-68.967
X434.92Y-108.13
X435.49Y-108.558
X436.0Y-95.81
X436.12Y-110.99
X437.84Y-112.83
X437.84Y-113.4
X437.84Y-113.96
X438.52Y-112.83
X438.52Y-113.395
X438.52Y-113.96
X439.2Y-112.83
X439.2Y-113.4
X439.2Y-113.96
X440.76Y-84.23
X440.96Y-102.2
X440.98Y-102.99
X441.59Y-96.58
X441.61Y-105.73
X442.2Y-72.75
X442.27Y-110.99
X442.96Y-72.74
X443.39Y-96.57
X443.84Y-93.42
X444.61Y-107.54
X445.73Y-72.15
X445.73Y-72.77
X445.73Y-73.42
X445.73Y-74.07
X445.73Y-74.636
X446.365Y-72.15
X446.365Y-72.8
X446.365Y-73.42
X446.365Y-74.02
X446.365Y-74.636
X447.0Y-72.15
X447.0Y-72.8
X447.0Y-73.42
X447.0Y-74.02
X447.0Y-74.63
X449.22Y-81.14
X449.26Y-81.775
X449.28Y-82.41
X449.84Y-81.14
X449.89Y-81.775
X449.89Y-82.41
X450.49Y-81.14
X450.49Y-81.775
X450.49Y-82.41
X451.11Y-81.775
X451.11Y-82.41
X451.14Y-81.14
X451.76Y-81.14
X451.76Y-81.775
X451.76Y-82.41
X462.513Y-95.81
X462.62Y-106.86
X462.62Y-110.99
X463.31Y-107.14
X463.318Y-108.13
X463.33Y-108.78
X464.4Y-110.9
X465.013Y-132.473
X465.375Y-67.85
X465.375Y-68.47
X465.375Y-69.12
X465.375Y-69.72
X465.375Y-70.35
X465.84Y-131.76
X466.01Y-67.85
X466.01Y-68.5
X466.01Y-69.12
X466.01Y-69.72
X466.01Y-70.35
X466.645Y-67.85
X466.645Y-68.45
X466.645Y-69.12
X466.645Y-69.72
X466.645Y-70.33
X471.29Y-91.04
X471.31Y-95.251
X471.31Y-95.9
X471.46Y-110.21
X471.58Y-111.67
X471.67Y-105.54
X471.67Y-106.18
X473.25Y-87.01
X473.618Y-86.38
X474.093Y-76.853
X474.42Y-58.42
X474.59Y-76.06
X474.62Y-83.89
X474.66Y-84.525
X474.68Y-85.16
X475.24Y-83.89
X475.29Y-84.525
X475.29Y-85.16
X475.72Y-82.4
X475.75Y-81.47
X475.88Y-77.93
X475.89Y-83.89
X475.89Y-84.525
X475.89Y-85.16
X475.92Y-74.82
X476.38Y-81.512
X476.51Y-84.525
X476.51Y-85.16
X476.54Y-83.89
X477.16Y-83.89
X477.16Y-84.525
X477.16Y-85.16
X479.14Y-108.4
X479.14Y-110.22
X479.159Y-113.899
X479.19Y-72.08
X479.19Y-72.753
X479.19Y-73.426
X479.19Y-74.099
X479.19Y-74.771
X479.19Y-75.444
X479.19Y-76.117
X479.19Y-76.79
X479.33Y30.59
X479.39Y37.98
X479.59Y-105.52
X479.759Y-80.228
X480.012Y-72.08
X480.012Y-72.753
X480.012Y-73.426
X480.012Y-74.099
X480.012Y-74.771
X480.012Y-75.444
X480.012Y-76.117
X480.012Y-76.79
X480.05Y-106.18
X480.23Y-79.71
X480.355Y36.19
X480.355Y35.493
X480.355Y34.797
X480.355Y34.1
X480.84Y-72.08
X480.84Y-72.753
X480.84Y-73.426
X480.84Y-74.099
X480.84Y-74.771
X480.84Y-75.444
X480.84Y-76.117
X480.84Y-76.79
X481.74Y33.18
X482.45Y-59.48
X483.98Y-76.01
X484.03Y-74.78
X484.3Y41.594
X484.89Y-71.96
X484.9Y-63.75
X484.9Y-64.389
X484.9Y-65.028
X484.985Y12.99
X484.995Y27.55
X485.005Y11.48
X485.015Y26.0
X485.22Y-74.96
X485.41Y42.53
X485.53Y43.17
X485.81Y40.3
X485.83Y-69.62
X485.84Y-70.78
X486.14Y-72.85
X486.9Y39.78
X486.9Y26.06
X487.4Y-77.88
X487.41Y43.49
X488.185Y26.58
X488.824Y27.554
X489.26Y-81.512
X489.455Y11.21
X489.878Y-81.512
X490.68Y-83.0
X490.715Y11.19
X490.74Y39.24
X491.67Y-100.82
X491.67Y-102.15
X491.67Y-102.8
X491.74Y-92.71
X491.99Y36.83
X492.535Y34.29
X492.72Y-92.99
X492.73Y-110.29
X492.96Y-113.9
X493.25Y25.52
X493.785Y30.83
X494.415Y30.83
X494.525Y13.63
X494.96Y24.02
X495.525Y10.52
X495.631Y8.561
X495.82Y28.9
X496.04Y37.93
X496.865Y36.25
X496.865Y35.553
X496.865Y34.857
X496.865Y34.16
X497.515Y10.52
X498.255Y8.4
X498.93Y42.67
X499.6Y41.77
X500.195Y25.58
X500.195Y24.8
X500.21Y-62.484
X500.21Y-63.121
X500.21Y-63.758
X500.21Y-64.395
X500.21Y-65.032
X500.88Y43.47
X500.98Y-62.487
X500.98Y-63.124
X500.98Y-63.761
X500.98Y-64.398
X500.98Y-65.035
X501.285Y28.97
X501.455Y37.07
X501.575Y25.58
X501.575Y24.8
X503.045Y30.97
X506.095Y34.83
X506.195Y29.43
X506.94Y-109.26
X507.03Y-110.757
X507.778Y-117.206
X507.781Y-116.436
X508.415Y-117.206
X508.418Y-116.436
X509.052Y-117.206
X509.055Y-116.436
X509.689Y-117.206
X509.692Y-116.436
X510.326Y-117.206
X510.329Y-116.436
X512.28Y-79.56
X515.3Y-107.83
X516.02Y-114.9
X519.25Y48.89
X524.0Y-119.583
X524.0Y-120.25
X524.0Y-120.917
X524.0Y-121.583
T2
X368.75Y-166.1
X368.75Y-167.55
X409.2Y-100.76
X414.59Y-100.76
T3
X361.2Y-172.01
X361.6Y-172.71
X362.4Y-172.71
X362.8Y-172.01
X363.2Y-172.71
X363.6Y-172.01
X364.4Y-172.01
X364.8Y-172.71
X365.2Y-172.01
X365.6Y-172.71
X366.4Y-172.71
X366.8Y-172.01
T4
X294.8Y40.2
X294.8Y-63.0
X295.5Y41.7
X295.5Y38.7
X295.5Y-61.5
X295.5Y-64.5
X297.0Y42.4
X297.0Y38.0
X297.0Y-60.8
X297.0Y-65.2
X298.5Y41.7
X298.5Y38.7
X298.5Y-61.5
X298.5Y-64.5
X299.2Y40.2
X299.2Y-63.0
X418.8Y40.2
X419.5Y41.7
X419.5Y38.7
X421.0Y42.4
X421.0Y38.0
X422.5Y41.7
X422.5Y38.7
X423.2Y40.2
X424.8Y-166.7
X425.5Y-165.2
X425.5Y-168.2
X427.0Y-164.5
X427.0Y-168.9
X428.5Y-165.2
X428.5Y-168.2
X429.2Y-166.7
X508.8Y38.0
X509.5Y39.5
X509.5Y36.5
X511.0Y40.2
X511.0Y35.8
X512.5Y39.5
X512.5Y36.5
X513.2Y38.0
X520.8Y-63.0
X520.8Y-166.7
X521.5Y-61.5
X521.5Y-64.5
X521.5Y-165.2
X521.5Y-168.2
X523.0Y-60.8
X523.0Y-65.2
X523.0Y-164.5
X523.0Y-168.9
X524.5Y-61.5
X524.5Y-64.5
X524.5Y-165.2
X524.5Y-168.2
X525.2Y-63.0
X525.2Y-166.7
T5
X302.94Y-91.35
X312.254Y-114.265
X343.959Y-169.96
X364.5Y-154.6
X373.209Y-162.834
X379.835Y13.268
X403.3Y-143.302
X418.455Y-96.225
X479.37Y39.52
X496.04Y39.52
T6
X428.165Y-85.9
X428.165Y-87.9
X428.165Y-89.9
X428.165Y-91.9
X428.165Y-93.9
X428.165Y-95.9
X428.165Y-97.9
X428.165Y-99.9
X428.165Y-101.9
X428.165Y-103.9
X428.165Y-105.9
X428.165Y-109.9
X428.165Y-111.9
X428.165Y-113.9
X428.165Y-115.9
X428.165Y-117.9
X430.165Y-86.9
X430.165Y-88.9
X430.165Y-90.9
X430.165Y-92.9
X430.165Y-94.9
X430.165Y-96.9
X430.165Y-98.9
X430.165Y-100.9
X430.165Y-102.9
X430.165Y-104.9
X430.165Y-108.9
X430.165Y-110.9
X430.165Y-112.9
X430.165Y-114.9
X430.165Y-116.9
X430.165Y-118.9
X432.665Y-86.9
X432.665Y-88.9
X432.665Y-90.9
X432.665Y-92.9
X432.665Y-94.9
X432.665Y-96.9
X432.665Y-98.9
X432.665Y-100.9
X432.665Y-102.9
X432.665Y-104.9
X432.665Y-108.9
X432.665Y-110.9
X432.665Y-112.9
X432.665Y-114.9
X432.665Y-116.9
X432.665Y-118.9
X434.665Y-85.9
X434.665Y-87.9
X434.665Y-89.9
X434.665Y-91.9
X434.665Y-93.9
X434.665Y-95.9
X434.665Y-97.9
X434.665Y-99.9
X434.665Y-101.9
X434.665Y-103.9
X434.665Y-105.9
X434.665Y-109.9
X434.665Y-111.9
X434.665Y-113.9
X434.665Y-115.9
X434.665Y-117.9
X463.665Y-85.9
X463.665Y-87.9
X463.665Y-89.9
X463.665Y-91.9
X463.665Y-93.9
X463.665Y-95.9
X463.665Y-97.9
X463.665Y-99.9
X463.665Y-101.9
X463.665Y-103.9
X463.665Y-105.9
X463.665Y-109.9
X463.665Y-111.9
X463.665Y-113.9
X463.665Y-115.9
X463.665Y-117.9
X465.665Y-86.9
X465.665Y-88.9
X465.665Y-90.9
X465.665Y-92.9
X465.665Y-94.9
X465.665Y-96.9
X465.665Y-98.9
X465.665Y-100.9
X465.665Y-102.9
X465.665Y-104.9
X465.665Y-108.9
X465.665Y-110.9
X465.665Y-112.9
X465.665Y-114.9
X465.665Y-116.9
X465.665Y-118.9
X468.165Y-86.9
X468.165Y-88.9
X468.165Y-90.9
X468.165Y-92.9
X468.165Y-94.9
X468.165Y-96.9
X468.165Y-98.9
X468.165Y-100.9
X468.165Y-102.9
X468.165Y-104.9
X468.165Y-108.9
X468.165Y-110.9
X468.165Y-112.9
X468.165Y-114.9
X468.165Y-116.9
X468.165Y-118.9
X470.165Y-85.9
X470.165Y-87.9
X470.165Y-89.9
X470.165Y-91.9
X470.165Y-93.9
X470.165Y-95.9
X470.165Y-97.9
X470.165Y-99.9
X470.165Y-101.9
X470.165Y-103.9
X470.165Y-105.9
X470.165Y-109.9
X470.165Y-111.9
X470.165Y-113.9
X470.165Y-115.9
X470.165Y-117.9
X481.415Y-85.9
X481.415Y-87.9
X481.415Y-89.9
X481.415Y-91.9
X481.415Y-93.9
X481.415Y-95.9
X481.415Y-97.9
X481.415Y-99.9
X481.415Y-101.9
X481.415Y-103.9
X481.415Y-105.9
X481.415Y-109.9
X481.415Y-111.9
X481.415Y-113.9
X481.415Y-115.9
X481.415Y-117.9
X483.415Y-86.9
X483.415Y-88.9
X483.415Y-90.9
X483.415Y-92.9
X483.415Y-94.9
X483.415Y-96.9
X483.415Y-98.9
X483.415Y-100.9
X483.415Y-102.9
X483.415Y-104.9
X483.415Y-108.9
X483.415Y-110.9
X483.415Y-112.9
X483.415Y-114.9
X483.415Y-116.9
X483.415Y-118.9
X485.915Y-86.9
X485.915Y-88.9
X485.915Y-90.9
X485.915Y-92.9
X485.915Y-94.9
X485.915Y-96.9
X485.915Y-98.9
X485.915Y-100.9
X485.915Y-102.9
X485.915Y-104.9
X485.915Y-108.9
X485.915Y-110.9
X485.915Y-112.9
X485.915Y-114.9
X485.915Y-116.9
X485.915Y-118.9
X487.915Y-85.9
X487.915Y-87.9
X487.915Y-89.9
X487.915Y-91.9
X487.915Y-93.9
X487.915Y-95.9
X487.915Y-97.9
X487.915Y-99.9
X487.915Y-101.9
X487.915Y-103.9
X487.915Y-105.9
X487.915Y-109.9
X487.915Y-111.9
X487.915Y-113.9
X487.915Y-115.9
X487.915Y-117.9
X499.165Y-85.9
X499.165Y-87.9
X499.165Y-89.9
X499.165Y-91.9
X499.165Y-93.9
X499.165Y-95.9
X499.165Y-97.9
X499.165Y-99.9
X499.165Y-101.9
X499.165Y-103.9
X499.165Y-105.9
X499.165Y-109.9
X499.165Y-111.9
X499.165Y-113.9
X499.165Y-115.9
X499.165Y-117.9
X501.165Y-86.9
X501.165Y-88.9
X501.165Y-90.9
X501.165Y-92.9
X501.165Y-94.9
X501.165Y-96.9
X501.165Y-98.9
X501.165Y-100.9
X501.165Y-102.9
X501.165Y-104.9
X501.165Y-108.9
X501.165Y-110.9
X501.165Y-112.9
X501.165Y-114.9
X501.165Y-116.9
X501.165Y-118.9
X503.665Y-86.9
X503.665Y-88.9
X503.665Y-90.9
X503.665Y-92.9
X503.665Y-94.9
X503.665Y-96.9
X503.665Y-98.9
X503.665Y-100.9
X503.665Y-102.9
X503.665Y-104.9
X503.665Y-108.9
X503.665Y-110.9
X503.665Y-112.9
X503.665Y-114.9
X503.665Y-116.9
X503.665Y-118.9
X505.665Y-85.9
X505.665Y-87.9
X505.665Y-89.9
X505.665Y-91.9
X505.665Y-93.9
X505.665Y-95.9
X505.665Y-97.9
X505.665Y-99.9
X505.665Y-101.9
X505.665Y-103.9
X505.665Y-105.9
X505.665Y-109.9
X505.665Y-111.9
X505.665Y-113.9
X505.665Y-115.9
X505.665Y-117.9
X516.915Y-85.9
X516.915Y-87.9
X516.915Y-89.9
X516.915Y-91.9
X516.915Y-93.9
X516.915Y-95.9
X516.915Y-97.9
X516.915Y-99.9
X516.915Y-101.9
X516.915Y-103.9
X516.915Y-105.9
X516.915Y-109.9
X516.915Y-111.9
X516.915Y-113.9
X516.915Y-115.9
X516.915Y-117.9
X518.915Y-86.9
X518.915Y-88.9
X518.915Y-90.9
X518.915Y-92.9
X518.915Y-94.9
X518.915Y-96.9
X518.915Y-98.9
X518.915Y-100.9
X518.915Y-102.9
X518.915Y-104.9
X518.915Y-108.9
X518.915Y-110.9
X518.915Y-112.9
X518.915Y-114.9
X518.915Y-116.9
X518.915Y-118.9
X521.415Y-86.9
X521.415Y-88.9
X521.415Y-90.9
X521.415Y-92.9
X521.415Y-94.9
X521.415Y-96.9
X521.415Y-98.9
X521.415Y-100.9
X521.415Y-102.9
X521.415Y-104.9
X521.415Y-108.9
X521.415Y-110.9
X521.415Y-112.9
X521.415Y-114.9
X521.415Y-116.9
X521.415Y-118.9
X523.415Y-85.9
X523.415Y-87.9
X523.415Y-89.9
X523.415Y-91.9
X523.415Y-93.9
X523.415Y-95.9
X523.415Y-97.9
X523.415Y-99.9
X523.415Y-101.9
X523.415Y-103.9
X523.415Y-105.9
X523.415Y-109.9
X523.415Y-111.9
X523.415Y-113.9
X523.415Y-115.9
X523.415Y-117.9
T7
X378.925Y31.67
X379.935Y35.23
X380.955Y31.67
X381.97Y35.23
X382.985Y31.67
X385.015Y31.67
X386.03Y35.23
X387.045Y31.67
X388.065Y35.23
X389.075Y31.67
T8
X304.5Y-155.7
X304.5Y-158.2
X304.5Y-160.7
X304.73Y-164.4
X307.27Y-164.4
X307.5Y-155.7
X307.5Y-158.2
X307.5Y-160.7
X376.775Y29.23
X379.315Y29.23
X380.495Y40.81
X380.495Y38.19
X382.995Y40.81
X382.995Y38.19
X385.005Y40.81
X385.005Y38.19
X386.16Y29.23
X387.505Y40.81
X387.505Y38.19
X388.685Y29.23
X391.225Y29.23
T9
X302.697Y-33.14
X310.197Y-33.14
X313.457Y-33.14
X320.957Y-33.14
T10
X307.55Y-109.86
X310.03Y-105.48
X310.09Y-109.86
X312.57Y-105.48
X312.63Y-109.86
X314.52Y-172.89
X317.06Y-172.89
X389.5Y-168.3
X394.5Y-168.3
X407.0Y-169.57
X407.0Y-174.57
X424.0Y20.81
X424.0Y18.27
X424.0Y15.73
X424.0Y13.19
X433.5Y-135.95
X433.5Y-138.49
X433.5Y-141.03
X433.5Y-143.57
X433.5Y-146.11
X433.5Y-148.65
X433.5Y-151.19
X433.5Y-153.73
X433.5Y-156.27
X433.5Y-158.81
X436.04Y-135.95
X436.04Y-138.49
X436.04Y-141.03
X436.04Y-143.57
X436.04Y-146.11
X436.04Y-148.65
X436.04Y-151.19
X436.04Y-153.73
X436.04Y-156.27
X436.04Y-158.81
X469.0Y-135.95
X469.0Y-138.49
X469.0Y-141.03
X469.0Y-143.57
X469.0Y-146.11
X469.0Y-148.65
X469.0Y-151.19
X469.0Y-153.73
X469.0Y-156.27
X469.0Y-158.81
X471.54Y-135.95
X471.54Y-138.49
X471.54Y-141.03
X471.54Y-143.57
X471.54Y-146.11
X471.54Y-148.65
X471.54Y-151.19
X471.54Y-153.73
X471.54Y-156.27
X471.54Y-158.81
X484.675Y36.94
X484.675Y34.4
X484.675Y31.86
X504.5Y-135.95
X504.5Y-138.49
X504.5Y-141.03
X504.5Y-143.57
X504.5Y-146.11
X504.5Y-148.65
X504.5Y-151.19
X504.5Y-153.73
X504.5Y-156.27
X504.5Y-158.81
X507.04Y-135.95
X507.04Y-138.49
X507.04Y-141.03
X507.04Y-143.57
X507.04Y-146.11
X507.04Y-148.65
X507.04Y-151.19
X507.04Y-153.73
X507.04Y-156.27
X507.04Y-158.81
T11
X304.337Y13.77
X304.337Y-6.812
X304.337Y-38.229
X319.323Y13.77
X319.323Y-6.812
X319.323Y-38.229
X343.592Y11.099
X358.578Y11.099
T12
X325.35Y-41.227
X330.35Y-41.227
X353.87Y-153.22
X420.61Y-83.78
X424.22Y29.41
X479.54Y23.92
T13
X302.83Y-12.16
X302.83Y-28.16
X303.382Y20.565
X305.58Y-12.66
X305.58Y-27.66
X308.02Y-11.27
X308.02Y-29.05
X310.882Y18.265
X311.83Y8.48
X311.83Y-1.68
X315.64Y-11.27
X315.64Y-29.05
X318.08Y-12.66
X318.08Y-27.66
X320.83Y-12.16
X320.83Y-28.16
X321.477Y20.565
X328.977Y18.265
X339.573Y20.565
X347.073Y18.265
X387.0Y-170.9
X392.0Y-170.9
X397.0Y-170.9
T14
X375.35Y1.99
X382.1Y1.99
T15
X318.55Y-49.01
X318.55Y-61.01
X318.55Y-64.74
X318.55Y-76.74
X330.75Y-49.01
X330.75Y-61.01
X330.75Y-64.74
X330.75Y-76.74
X332.75Y-55.01
X332.75Y-70.74
X420.32Y-52.955
X420.32Y-72.955
X441.358Y-132.59
X441.358Y-137.63
X441.358Y-142.67
X441.358Y-157.96
X448.918Y-132.59
X448.918Y-137.63
X448.918Y-142.67
X448.918Y-157.96
X454.108Y-132.59
X454.108Y-137.63
X454.108Y-142.67
X454.108Y-157.96
X461.668Y-132.59
X461.668Y-137.63
X461.668Y-142.67
X461.668Y-157.96
X476.82Y-132.63
X476.82Y-137.67
X476.82Y-142.71
X476.82Y-158.0
X484.38Y-132.63
X484.38Y-137.67
X484.38Y-142.71
X484.38Y-158.0
X489.62Y-132.63
X489.62Y-137.67
X489.62Y-142.71
X489.62Y-158.0
X497.18Y-132.63
X497.18Y-137.67
X497.18Y-142.71
X497.18Y-158.0
X512.392Y-132.59
X512.392Y-137.63
X512.392Y-142.67
X512.392Y-157.96
X519.952Y-132.59
X519.952Y-137.63
X519.952Y-142.67
X519.952Y-157.96
T16
X434.5Y45.75
X438.0Y45.75
X441.5Y45.75
X445.0Y45.75
X448.5Y45.75
X452.0Y45.75
X455.5Y45.75
X459.0Y45.75
X462.5Y45.75
X466.0Y45.75
X481.0Y45.75
X484.5Y45.75
X488.0Y45.75
X491.5Y45.75
X495.0Y45.75
X498.5Y45.75
X502.0Y45.75
X505.5Y45.75
X509.0Y45.75
X512.5Y45.75
T17
X375.935Y46.02
X375.945Y35.3
X392.055Y35.23
X392.065Y46.02
T18
X318.45Y36.0
X318.45Y33.6
X325.45Y36.0
X325.45Y33.6
X332.45Y36.0
X332.45Y33.6
T19
X303.0Y-47.0
X303.0Y-59.871
X303.0Y-72.742
X306.96Y-47.0
X306.96Y-59.871
X306.96Y-72.742
X310.92Y-47.0
X310.92Y-59.871
X310.92Y-72.742
X357.52Y47.63
X357.52Y43.67
X357.52Y39.71
T20
X367.3Y44.9
X367.3Y39.82
T21
X417.5Y-160.2
X417.5Y-175.5
T22
X384.0Y-167.8
X400.0Y-167.8
T23
X340.85Y-74.01
X346.35Y-74.01
T24
X377.435Y43.51
X377.435Y37.82
X390.565Y43.51
X390.565Y37.82
T25
X297.0Y40.2
X297.0Y-63.0
X297.0Y-166.7
X421.0Y40.2
X427.0Y-166.7
X511.0Y38.0
X523.0Y-63.0
X523.0Y-166.7
T26
X326.5Y-120.25
X326.5Y-132.25
X326.5Y-150.25
X326.5Y-170.25
T4
G00X359.51Y-176.7
M15
G01X359.51Y-177.3
M16
G05
G00X359.87Y-172.3
M15
G01X359.87Y-172.9
M16
G05
G00X368.13Y-172.3
M15
G01X368.13Y-172.9
M16
G05
G00X368.49Y-176.7
M15
G01X368.49Y-177.3
M16
G05
T7
G00X401.9Y49.05
M15
G01X401.9Y49.55
M16
G05
G00X402.5Y44.15
M15
G01X402.5Y44.65
M16
G05
G00X417.0Y44.15
M15
G01X417.0Y44.65
M16
G05
G00X417.6Y49.05
M15
G01X417.6Y49.55
M16
G05
M30
