M48
; DRILL file {KiCad 9.0.5-9.0.5~ubuntu24.04.1} date 2025-10-14T11:27:57+0200
; FORMAT={-:-/ absolute / inch / decimal}
; #@! TF.CreationDate,2025-10-14T11:27:57+02:00
; #@! TF.GenerationSoftware,Kicad,Pcbnew,9.0.5-9.0.5~ubuntu24.04.1
; #@! TF.FileFunction,Plated,1,4,PTH
FMAT,2
INCH
; #@! TA.AperFunction,Plated,PTH,ViaDrill
T1C0.0118
; #@! TA.AperFunction,Plated,PTH,ComponentDrill
T2C0.0157
; #@! TA.AperFunction,Plated,PTH,ComponentDrill
T3C0.0197
; #@! TA.AperFunction,Plated,PTH,ComponentDrill
T4C0.0240
; #@! TA.AperFunction,Plated,PTH,ComponentDrill
T5C0.0276
; #@! TA.AperFunction,Plated,PTH,ComponentDrill
T6C0.0315
; #@! TA.AperFunction,Plated,PTH,ComponentDrill
T7C0.0335
; #@! TA.AperFunction,Plated,PTH,ComponentDrill
T8C0.0354
; #@! TA.AperFunction,Plated,PTH,ComponentDrill
T9C0.0394
; #@! TA.AperFunction,Plated,PTH,ComponentDrill
T10C0.0400
; #@! TA.AperFunction,Plated,PTH,ComponentDrill
T11C0.0472
; #@! TA.AperFunction,Plated,PTH,ComponentDrill
T12C0.0494
; #@! TA.AperFunction,Plated,PTH,ComponentDrill
T13C0.0512
; #@! TA.AperFunction,Plated,PTH,ComponentDrill
T14C0.0551
; #@! TA.AperFunction,Plated,PTH,ComponentDrill
T15C0.0618
; #@! TA.AperFunction,Plated,PTH,ComponentDrill
T16C0.0630
; #@! TA.AperFunction,Plated,PTH,ComponentDrill
T17C0.0787
; #@! TA.AperFunction,Plated,PTH,ComponentDrill
T18C0.0866
; #@! TA.AperFunction,Plated,PTH,ComponentDrill
T19C0.0887
; #@! TA.AperFunction,Plated,PTH,ComponentDrill
T20C0.0909
; #@! TA.AperFunction,Plated,PTH,ComponentDrill
T21C0.1260
; #@! TA.AperFunction,Plated,PTH,ComponentDrill
T22C0.1457
%
G90
G05
T1
X11.7628Y-6.1346
X11.7815Y-5.7693
X11.7846Y-5.8335
X11.9488Y-5.5039
X11.9488Y-5.5246
X11.9488Y-5.5453
X11.9488Y-5.5659
X11.9488Y-5.5866
X11.9764Y-5.5039
X11.9764Y-5.5246
X11.9764Y-5.5453
X11.9764Y-5.5659
X11.9764Y-5.5866
X12.0039Y-5.5039
X12.0039Y-5.5246
X12.0039Y-5.5453
X12.0039Y-5.5659
X12.0039Y-5.5866
X12.0606Y-3.5016
X12.165Y-5.8906
X12.2547Y-3.7394
X12.2547Y-3.7594
X12.3307Y-3.7378
X12.3307Y-3.7587
X12.3319Y-4.4976
X12.3524Y-4.3307
X12.3531Y-4.0579
X12.3535Y-3.8976
X12.3543Y-3.4197
X12.3547Y-3.5894
X12.3606Y-4.1205
X12.3709Y-4.2157
X12.4469Y-3.5051
X12.4472Y-3.3862
X12.4902Y-3.452
X12.5098Y-3.376
X12.5689Y-3.3768
X12.628Y-3.3768
X12.687Y-3.376
X12.7461Y-3.376
X12.8051Y-3.3764
X12.8642Y-3.3764
X12.9232Y-3.376
X12.9397Y-4.4455
X12.965Y-4.4429
X12.9823Y-3.3764
X12.9889Y-4.434
X13.0413Y-3.376
X13.1988Y-3.378
X13.235Y-5.9307
X13.235Y-5.9514
X13.235Y-5.972
X13.2618Y-3.3839
X13.2622Y-3.5035
X13.2626Y-5.9307
X13.2626Y-5.9514
X13.2626Y-5.972
X13.2902Y-5.9307
X13.2902Y-5.9514
X13.2902Y-5.972
X13.3452Y-4.1114
X13.365Y-4.0591
X13.3756Y-4.6484
X13.3835Y-4.2308
X13.3835Y-4.2535
X13.3835Y-4.5858
X13.3878Y-4.376
X13.3902Y-4.2059
X13.3906Y-4.8964
X13.3988Y-4.348
X13.3996Y-4.4232
X13.4008Y-4.6756
X13.4024Y-4.7224
X13.424Y-4.9535
X13.4252Y-4.148
X13.4296Y-6.5094
X13.4323Y-6.3363
X13.4368Y-5.8521
X13.4368Y-5.8796
X13.4449Y-6.0203
X13.4449Y-6.0409
X13.4484Y-4.628
X13.4488Y-4.2661
X13.4514Y-4.5813
X13.4523Y-4.4982
X13.4532Y-4.9039
X13.4539Y-4.8724
X13.4618Y-5.8521
X13.4618Y-5.8796
X13.4681Y-4.6071
X13.4694Y-4.11
X13.4724Y-6.0203
X13.4724Y-6.0409
X13.4772Y-4.5087
X13.4795Y-4.4516
X13.4855Y-4.8671
X13.4868Y-5.8521
X13.4868Y-5.8796
X13.4883Y-4.1254
X13.4919Y-4.5868
X13.4969Y-4.5567
X13.498Y-4.3773
X13.4992Y-4.4043
X13.5Y-5.9996
X13.5Y-6.0203
X13.5Y-6.0409
X13.5032Y-4.7413
X13.5071Y-4.3126
X13.5118Y-5.8521
X13.5118Y-5.8796
X13.5124Y-4.1302
X13.5157Y-4.7728
X13.52Y-4.4902
X13.5237Y-4.565
X13.524Y-4.628
X13.524Y-4.6752
X13.5244Y-4.4075
X13.5285Y-4.1462
X13.5555Y-4.1413
X13.5689Y-6.0311
X13.5697Y-4.2657
X13.5744Y-4.3287
X13.577Y-4.7189
X13.5772Y-4.7818
X13.5776Y-4.2205
X13.5795Y-4.9035
X13.5894Y-6.2906
X13.5969Y-4.7937
X13.6Y-4.1835
X13.6Y-4.2062
X13.615Y-5.9035
X13.6213Y-4.8669
X13.6217Y-5.0618
X13.622Y-4.8445
X13.6386Y-6.115
X13.6422Y-4.3633
X13.6555Y-5.9847
X13.6555Y-6.0122
X13.6689Y-4.3681
X13.6792Y-6.5291
X13.6805Y-5.9847
X13.6805Y-6.0122
X13.689Y-6.0831
X13.7123Y-6.0853
X13.7299Y-3.4311
X13.733Y-3.6185
X13.7367Y-6.5216
X13.7367Y-6.5491
X13.7367Y-6.5766
X13.7617Y-6.5216
X13.7617Y-6.5491
X13.7617Y-6.5766
X13.7717Y-5.7339
X13.7862Y-3.5941
X13.7867Y-6.5216
X13.7867Y-6.5491
X13.7867Y-6.5766
X13.787Y-3.4319
X13.8012Y-6.0932
X13.8117Y-6.5216
X13.8117Y-6.5491
X13.8117Y-6.5766
X13.8346Y-5.9996
X13.8346Y-6.0203
X13.8346Y-6.0409
X13.8367Y-6.5216
X13.8367Y-6.5491
X13.8367Y-6.5766
X13.8386Y-5.852
X13.8386Y-5.8795
X13.8617Y-6.5216
X13.8617Y-6.5491
X13.8617Y-6.5766
X13.8622Y-6.0203
X13.8622Y-6.0409
X13.8636Y-5.852
X13.8636Y-5.8795
X13.8661Y-0.2043
X13.8867Y-6.5216
X13.8867Y-6.5491
X13.8867Y-6.5766
X13.8886Y-5.852
X13.8886Y-5.8795
X13.8898Y-6.0203
X13.8898Y-6.0409
X13.9002Y-6.9127
X13.9039Y-5.6217
X13.9043Y-6.1142
X13.9098Y-4.4505
X13.9117Y-6.5216
X13.9117Y-6.5491
X13.9117Y-6.5766
X13.9136Y-5.852
X13.9136Y-5.8795
X13.9367Y-6.5216
X13.9367Y-6.5491
X13.9367Y-6.5766
X13.9386Y-5.852
X13.9386Y-5.8795
X13.9617Y-6.5216
X13.9617Y-6.5491
X13.9617Y-6.5766
X13.9636Y-5.852
X13.9636Y-5.8795
X13.9661Y-4.3866
X13.9867Y-6.5216
X13.9867Y-6.5491
X13.9867Y-6.5766
X13.9886Y-5.852
X13.9886Y-5.8795
X14.0083Y-4.4039
X14.0117Y-6.5216
X14.0117Y-6.5491
X14.0117Y-6.5766
X14.0335Y-4.4059
X14.0413Y-3.948
X14.043Y-6.2247
X14.0646Y-4.4512
X14.0654Y-3.9496
X14.0703Y-6.2247
X14.0838Y-4.9784
X14.0839Y-6.3122
X14.0867Y-5.6803
X14.087Y-5.6467
X14.0902Y-3.9508
X14.0913Y-4.4642
X14.0917Y-4.2
X14.0975Y-6.2247
X14.1098Y-4.5559
X14.1141Y-5.6803
X14.1144Y-5.6467
X14.1157Y-5.0197
X14.1248Y-6.2247
X14.1343Y-4.2776
X14.1343Y-4.5429
X14.1415Y-5.6803
X14.1418Y-5.6467
X14.1521Y-6.2247
X14.1539Y-4.7394
X14.1543Y-4.5717
X14.1559Y-3.8299
X14.1669Y-3.7421
X14.1689Y-5.6803
X14.1691Y-5.6467
X14.1705Y-0.6063
X14.1807Y-4.9374
X14.1901Y-4.9112
X14.1955Y-0.6063
X14.2012Y-4.3776
X14.2173Y-4.3961
X14.2205Y-0.6063
X14.2311Y-4.776
X14.2346Y-4.5811
X14.2382Y-4.4504
X14.2441Y-4.2965
X14.2465Y-6.4276
X14.2465Y-6.4484
X14.2598Y-4.2516
X14.2618Y-3.6736
X14.2713Y-6.4484
X14.272Y-4.2965
X14.2858Y-5.7303
X14.2886Y-3.6752
X14.3012Y-4.2937
X14.3017Y-6.7489
X14.3031Y-4.3173
X14.3138Y-6.5512
X14.3142Y-3.6876
X14.3209Y-6.7019
X14.3413Y-6.6343
X14.348Y-3.635
X14.3563Y-3.7211
X14.3622Y-6.6343
X14.3671Y-3.7443
X14.3768Y-5.6217
X14.3839Y-4.3165
X14.3898Y-3.8433
X14.395Y-3.8107
X14.4047Y-4.2472
X14.411Y-1.1075
X14.4287Y-6.1091
X14.4331Y-3.772
X14.4335Y-4.3469
X14.4358Y-5.6217
X14.4516Y-6.6343
X14.4524Y-6.1063
X14.463Y-3.7763
X14.4674Y-1.1707
X14.4797Y-3.7569
X14.4945Y-5.6217
X14.5067Y-6.5669
X14.5233Y-6.5898
X14.5524Y-6.4484
X14.5539Y-5.6217
X14.5752Y-6.6394
X14.5877Y-6.5835
X14.6102Y-6.3858
X14.613Y-5.6217
X14.6134Y-6.5839
X14.6239Y-6.7854
X14.6319Y-6.6587
X14.6434Y-6.4824
X14.6457Y-6.6024
X14.672Y-5.6217
X14.6756Y-6.498
X14.6819Y-6.6217
X14.6965Y-6.4039
X14.7138Y-3.8913
X14.7138Y-4.0177
X14.7154Y-0.9325
X14.7154Y-6.1929
X14.7169Y-6.1646
X14.7295Y-4.6882
X14.7307Y-5.6217
X14.7505Y-5.6347
X14.7687Y-4.1466
X14.7705Y-5.622
X14.774Y-2.1374
X14.778Y-6.5287
X14.778Y-6.5516
X14.7823Y-4.2661
X14.7823Y-4.4551
X14.7823Y-4.5969
X14.7823Y-4.7382
X14.7823Y-4.7854
X14.7823Y-4.8327
X14.7823Y-4.8799
X14.7823Y-4.9272
X14.7848Y-4.1306
X14.7866Y-4.3614
X14.787Y-4.6417
X14.7933Y-2.1681
X14.8016Y-4.9449
X14.8053Y-3.7763
X14.8063Y-5.5827
X14.8063Y-5.6051
X14.8189Y-4.5642
X14.829Y-5.5607
X14.831Y-3.794
X14.8388Y-4.5802
X14.8461Y-6.5236
X14.8461Y-6.5524
X14.8492Y-5.5409
X14.8567Y-4.8768
X14.8587Y-4.1531
X14.8602Y-4.2185
X14.8602Y-4.2657
X14.8602Y-4.4543
X14.8602Y-4.5492
X14.8602Y-4.5965
X14.8606Y-4.6437
X14.8606Y-4.6909
X14.8606Y-4.7382
X14.8606Y-4.7854
X14.8606Y-4.8327
X14.8606Y-4.9272
X14.8642Y-4.0709
X14.8807Y-5.7311
X14.9043Y-4.9441
X14.9134Y-4.3602
X14.9217Y-4.7505
X14.9217Y-4.7732
X14.9228Y-4.8449
X14.9228Y-4.8677
X14.9287Y-4.9724
X14.9398Y-4.7977
X14.9398Y-4.8204
X14.9406Y-4.7032
X14.9406Y-4.7259
X14.9606Y-6.6591
X14.9606Y-6.7319
X14.9732Y-4.8961
X14.9748Y-6.5268
X14.9756Y-6.5512
X14.998Y-1.9244
X15.0122Y-4.9299
X15.0195Y-5.8445
X15.0209Y-5.6709
X15.0239Y-1.2757
X15.0268Y-6.8213
X15.0406Y-6.2209
X15.0408Y-1.2151
X15.0429Y-6.1661
X15.0676Y-1.2151
X15.0853Y-1.2977
X15.0854Y-6.1764
X15.1066Y-2.7661
X15.1068Y-2.7173
X15.1105Y-1.2977
X15.1282Y-1.2367
X15.1316Y-2.7661
X15.1318Y-2.7173
X15.1457Y-1.2763
X15.1476Y-4.8528
X15.1566Y-2.7661
X15.1568Y-2.7173
X15.1621Y-1.2151
X15.1651Y-3.8524
X15.1657Y-4.0217
X15.1671Y-3.7169
X15.1677Y-3.7551
X15.1677Y-3.9736
X15.1692Y-3.9445
X15.17Y-3.8775
X15.1709Y-3.6516
X15.1713Y-3.626
X15.1724Y-3.5961
X15.1728Y-4.2
X15.1768Y-5.6287
X15.1772Y-4.0673
X15.1821Y-3.6961
X15.1862Y-3.8138
X15.1878Y-3.7366
X15.189Y-4.4871
X15.1894Y-3.6716
X15.19Y-1.2151
X15.1906Y-4.2823
X15.1928Y-3.9186
X15.1953Y-3.2374
X15.2062Y-1.297
X15.2067Y-4.8528
X15.2124Y-5.913
X15.2124Y-5.9338
X15.2124Y-5.9547
X15.2126Y-5.9756
X15.215Y-4.1268
X15.222Y-4.4252
X15.226Y-4.2713
X15.2283Y-3.8988
X15.2303Y-4.2445
X15.2326Y-1.297
X15.2507Y-1.2367
X15.2559Y-4.1713
X15.2563Y-4.237
X15.2642Y-3.7717
X15.2654Y-4.8528
X15.2689Y-4.3425
X15.2696Y-5.8735
X15.2768Y-4.4374
X15.2886Y-6.4445
X15.3059Y-4.2531
X15.3075Y-4.4871
X15.3154Y-4.3256
X15.3156Y-1.2369
X15.3157Y-3.7599
X15.3248Y-4.8528
X15.3266Y-5.8535
X15.3266Y-5.881
X15.3266Y-5.9085
X15.3406Y-3.8748
X15.3465Y-4.1492
X15.3516Y-5.8535
X15.3516Y-5.881
X15.3516Y-5.9085
X15.3524Y-5.0969
X15.3766Y-5.8535
X15.3766Y-5.881
X15.3766Y-5.9085
X15.3807Y-5.1
X15.3839Y-4.8528
X15.3928Y-1.6855
X15.3954Y-1.3977
X15.3992Y-2.5374
X15.3996Y-2.5622
X15.4016Y-5.8535
X15.4016Y-5.881
X15.4016Y-5.9085
X15.402Y-3.8748
X15.4047Y-6.3819
X15.4086Y-1.1761
X15.4126Y-3.7598
X15.4134Y-4.6512
X15.4134Y-4.7272
X15.4204Y-1.3977
X15.424Y-3.5594
X15.4266Y-5.8535
X15.4266Y-5.881
X15.4266Y-5.9085
X15.428Y-3.7205
X15.4314Y-1.1974
X15.4429Y-4.8528
X15.4516Y-5.8535
X15.4516Y-5.881
X15.4516Y-5.9085
X15.4587Y-6.3796
X15.4677Y-3.8673
X15.4766Y-5.8535
X15.4766Y-5.881
X15.4766Y-5.9085
X15.479Y-1.23
X15.4811Y-4.2217
X15.487Y-4.1504
X15.4874Y-3.5594
X15.5016Y-4.8528
X15.5016Y-5.8535
X15.5016Y-5.881
X15.5016Y-5.9085
X15.507Y-1.7096
X15.507Y-1.7318
X15.507Y-1.754
X15.509Y-4.2216
X15.5181Y-6.4449
X15.5228Y-5.0858
X15.5266Y-5.8535
X15.5266Y-5.881
X15.5266Y-5.9085
X15.531Y-1.158
X15.5337Y-1.7096
X15.5337Y-1.732
X15.5337Y-1.754
X15.5397Y-0.9777
X15.54Y-1.0186
X15.5412Y-1.5855
X15.5445Y-5.0722
X15.5516Y-5.1453
X15.5516Y-5.8535
X15.5516Y-5.881
X15.5516Y-5.9085
X15.5605Y-1.1954
X15.5685Y-4.9461
X15.5748Y-4.8142
X15.5748Y-4.8366
X15.5766Y-5.8535
X15.5766Y-5.881
X15.5766Y-5.9085
X15.5843Y-3.5063
X15.5863Y-1.2151
X15.6016Y-5.8535
X15.6016Y-5.881
X15.6016Y-5.9085
X15.6161Y-2.013
X15.6284Y-1.3977
X15.6306Y-3.5723
X15.6331Y-5.6079
X15.6333Y-3.278
X15.6378Y-5.1236
X15.6386Y-3.3386
X15.6466Y-3.5883
X15.6534Y-1.3977
X15.6579Y-5.6079
X15.6602Y-6.3591
X15.6664Y-1.7399
X15.6736Y-5.6457
X15.6886Y-4.5764
X15.6961Y-4.9299
X15.7028Y-4.676
X15.7067Y-5.6146
X15.7153Y-3.5808
X15.7232Y-4.0768
X15.7314Y-1.6737
X15.7339Y-5.6146
X15.7354Y-3.7402
X15.7402Y-4.5469
X15.7406Y-3.5764
X15.7567Y-4.0413
X15.7608Y-0.8256
X15.7626Y-4.9724
X15.7744Y-4.6008
X15.7748Y-4.1949
X15.7772Y-3.813
X15.7951Y-3.2787
X15.7992Y-4.8043
X15.7996Y-4.4795
X15.8045Y-1.1485
X15.8071Y-5.3244
X15.8079Y-5.3965
X15.8175Y-1.1713
X15.8219Y-0.8252
X15.8246Y-3.1819
X15.8264Y-4.3157
X15.8301Y-1.1469
X15.8313Y-2.8305
X15.8319Y-4.7016
X15.838Y-0.5961
X15.8421Y-5.4965
X15.8518Y-1.1099
X15.8524Y-4.7272
X15.8602Y-3.7126
X15.8628Y-5.6057
X15.8639Y-5.1175
X15.8642Y-5.6571
X15.8661Y-5.3228
X15.8669Y-5.1496
X15.8689Y-5.3961
X15.8701Y-4.5271
X15.8705Y-4.7018
X15.8709Y-3.3402
X15.8752Y-3.7724
X15.876Y-4.4909
X15.8811Y-5.2028
X15.8858Y-4.3154
X15.8878Y-4.3783
X15.8951Y-0.8705
X15.8974Y-0.5953
X15.9039Y-5.4933
X15.9081Y-3.2039
X15.9155Y-3.0285
X15.9179Y-0.8705
X15.9179Y-5.1715
X15.9193Y-5.2276
X15.9236Y-4.5252
X15.926Y-6.4193
X15.9264Y-4.2531
X15.9437Y-4.3157
X15.9471Y-0.8504
X15.9488Y-4.9932
X15.9488Y-5.6457
X15.9496Y-4.5254
X15.9557Y-6.4876
X15.9569Y-0.5957
X15.9681Y-4.9756
X15.9698Y-0.8504
X15.9703Y-4.2041
X15.9728Y-2.8626
X15.9752Y-4.7504
X15.986Y-4.1425
X15.9878Y-5.7272
X15.988Y-0.9851
X15.9902Y-4.3768
X15.9959Y-1.0567
X15.9963Y-0.7713
X15.999Y-0.8493
X15.9997Y-6.4861
X16.0159Y-0.5957
X16.0205Y-4.5421
X16.0223Y-0.8709
X16.024Y-4.3535
X16.0265Y-4.0579
X16.0283Y-2.9886
X16.0402Y-5.7264
X16.0406Y-2.8858
X16.0406Y-2.912
X16.0406Y-2.9382
X16.0406Y-5.161
X16.042Y-6.4181
X16.045Y-0.8709
X16.0486Y-0.6634
X16.0524Y-4.9421
X16.0614Y-4.6787
X16.0661Y-3.1102
X16.0685Y-3.0374
X16.0732Y-2.8862
X16.0732Y-2.9124
X16.0732Y-2.9386
X16.0747Y-0.8512
X16.0748Y-5.6457
X16.0763Y-5.0236
X16.0913Y-5.1902
X16.0913Y-5.2177
X16.0913Y-5.2452
X16.0922Y-5.4295
X16.0922Y-5.4545
X16.0922Y-5.4795
X16.0969Y-0.6295
X16.0974Y-0.8512
X16.0976Y-5.7268
X16.1069Y-0.7122
X16.1098Y-4.8665
X16.1098Y-4.9303
X16.1106Y-3.6409
X16.1163Y-5.1902
X16.1173Y-4.2549
X16.1179Y-0.8831
X16.1183Y-0.9083
X16.1193Y-5.528
X16.1197Y-5.4795
X16.1205Y-4.139
X16.1262Y-0.7697
X16.1314Y-3.5173
X16.1339Y-0.5976
X16.1382Y-4.9362
X16.1413Y-5.1902
X16.1421Y-4.2486
X16.1421Y-5.5276
X16.1447Y-0.6937
X16.1472Y-5.4795
X16.1531Y-5.0752
X16.1559Y-5.6016
X16.1581Y-1.2528
X16.1598Y-3.7402
X16.1603Y-4.9247
X16.1614Y-4.8648
X16.1666Y-4.2412
X16.1669Y-6.428
X16.1693Y-3.0642
X16.1693Y-3.0866
X16.1693Y-4.626
X16.172Y-2.9512
X16.1728Y-5.1357
X16.1787Y-5.602
X16.1811Y-4.8098
X16.1822Y-4.5037
X16.1843Y-3.9768
X16.1862Y-4.165
X16.1965Y-5.6803
X16.2012Y-4.0602
X16.2012Y-3.9543
X16.2013Y-5.0276
X16.2024Y-5.15
X16.2067Y-5.622
X16.2106Y-6.2142
X16.2108Y-5.3071
X16.2108Y-5.3346
X16.2108Y-5.3621
X16.2248Y-4.8882
X16.2252Y-4.9417
X16.2256Y-4.304
X16.2285Y-1.0981
X16.2311Y-6.1953
X16.2323Y-5.5176
X16.2358Y-5.3071
X16.2358Y-5.3346
X16.2358Y-5.3621
X16.2425Y-4.3201
X16.2551Y-5.5176
X16.2608Y-5.3071
X16.2608Y-5.3346
X16.2608Y-5.3621
X16.2622Y-4.3984
X16.2626Y-4.1402
X16.2691Y-1.0083
X16.276Y-4.5083
X16.2797Y-1.2685
X16.287Y-5.515
X16.2886Y-5.913
X16.2922Y-4.1086
X16.2976Y-4.5724
X16.302Y-4.5082
X16.3061Y-1.7327
X16.3122Y-5.685
X16.3123Y-4.0744
X16.3157Y-5.9122
X16.3213Y-4.4378
X16.3216Y-4.9145
X16.3241Y-5.1913
X16.328Y-4.0948
X16.3305Y-1.0563
X16.3335Y-5.6472
X16.335Y-3.6972
X16.3386Y-5.0039
X16.3432Y-4.8509
X16.3465Y-5.1366
X16.3496Y-3.2819
X16.3516Y-5.1913
X16.3545Y-5.4787
X16.3594Y-4.0705
X16.3673Y-4.5602
X16.3689Y-4.9642
X16.3731Y-4.432
X16.3736Y-4.2287
X16.3768Y-4.5091
X16.3791Y-5.1913
X16.3791Y-5.2163
X16.3791Y-5.2413
X16.3795Y-5.4237
X16.3795Y-5.4512
X16.3795Y-5.4787
X16.3933Y-5.5291
X16.3941Y-4.6802
X16.3944Y-5.6839
X16.3953Y-4.5803
X16.4004Y-5.0727
X16.4064Y-4.2284
X16.4079Y-5.1634
X16.4102Y-4.1811
X16.4159Y-0.66
X16.4185Y-4.4209
X16.4201Y-4.25
X16.4402Y-4.3918
X16.4406Y-4.1854
X16.4484Y-5.6835
X16.4504Y-4.6819
X16.4571Y-4.2669
X16.4583Y-4.5062
X16.4591Y-4.0516
X16.4685Y-4.1898
X16.4738Y-4.1671
X16.4774Y-4.3161
X16.4803Y-4.1453
X16.4819Y-5.935
X16.4868Y-3.8548
X16.5019Y-5.9178
X16.5028Y-4.3149
X16.5165Y-4.6063
X16.5176Y-5.0174
X16.5176Y-5.0394
X16.5186Y-4.9482
X16.5186Y-4.9709
X16.5217Y-3.6882
X16.5243Y-5.8636
X16.5342Y-5.9412
X16.548Y-5.8732
X16.5547Y-5.8441
X16.5638Y-5.2142
X16.5661Y-5.3185
X16.5665Y-4.0331
X16.5665Y-5.4197
X16.5665Y-5.5843
X16.5693Y-5.2614
X16.5701Y-5.5264
X16.574Y-4.5469
X16.5785Y-5.1041
X16.5815Y-4.4949
X16.5819Y-4.3291
X16.583Y-4.3579
X16.5866Y-4.4272
X16.5882Y-4.2268
X16.598Y-4.0519
X16.6047Y-4.45
X16.6083Y-5.0791
X16.6157Y-4.0335
X16.6213Y-4.6098
X16.6217Y-4.6728
X16.6299Y-5.3201
X16.6307Y-5.4193
X16.6311Y-5.2618
X16.6311Y-5.5843
X16.6315Y-5.1921
X16.6315Y-5.5264
X16.6433Y-4.4886
X16.6433Y-4.5244
X16.6472Y-4.3028
X16.6476Y-4.2693
X16.6693Y-4.4886
X16.6693Y-4.5244
X16.6896Y-5.6723
X16.6906Y-4.2484
X16.7272Y-4.6098
X16.7276Y-4.6709
X16.7354Y-4.5201
X16.7854Y-4.6567
X16.8488Y-4.848
X16.8488Y-4.8754
X16.8488Y-4.9028
X16.8488Y-4.9302
X17.2378Y-4.4878
X17.2378Y-4.5102
X17.2378Y-4.5323
X17.2646Y-4.4878
X17.2646Y-4.51
X17.2646Y-4.5323
X17.2913Y-4.4878
X17.2913Y-4.5102
X17.2913Y-4.5323
X17.552Y-4.6478
X17.552Y-4.674
X17.5524Y-4.5953
X17.5524Y-4.6215
X17.5795Y-4.647
X17.5795Y-4.6732
X17.5799Y-4.5945
X17.5799Y-4.6207
X17.6063Y-4.647
X17.6063Y-4.6732
X17.6067Y-4.5945
X17.6067Y-4.6207
X18.161Y-4.7752
X18.2083Y-3.5386
X18.378Y-4.8496
X18.378Y-4.877
X18.378Y-4.9044
X18.378Y-4.9318
T2
X14.2205Y-6.772
X14.2362Y-6.7996
X14.2677Y-6.7996
X14.2835Y-6.772
X14.2992Y-6.7996
X14.315Y-6.772
X14.3465Y-6.772
X14.3622Y-6.7996
X14.378Y-6.772
X14.3937Y-6.7996
X14.4252Y-6.7996
X14.4409Y-6.772
T4
X14.1827Y-5.5913
X14.1879Y-6.2461
X14.4567Y-1.0319
X15.5043Y-3.1394
X15.5055Y-3.2744
X15.7732Y-5.5819
T5
X16.8569Y-3.3661
X16.8569Y-3.4449
X16.8569Y-3.5236
X16.8569Y-3.6024
X16.8569Y-3.6811
X16.8569Y-3.7598
X16.8569Y-3.8386
X16.8569Y-3.9173
X16.8569Y-3.9961
X16.8569Y-4.0748
X16.8569Y-4.1535
X16.8569Y-4.311
X16.8569Y-4.3898
X16.8569Y-4.4685
X16.8569Y-4.5472
X16.8569Y-4.626
X16.9356Y-3.4055
X16.9356Y-3.4843
X16.9356Y-3.563
X16.9356Y-3.6417
X16.9356Y-3.7205
X16.9356Y-3.7992
X16.9356Y-3.878
X16.9356Y-3.9567
X16.9356Y-4.0354
X16.9356Y-4.1142
X16.9356Y-4.2717
X16.9356Y-4.3504
X16.9356Y-4.4291
X16.9356Y-4.5079
X16.9356Y-4.5866
X16.9356Y-4.6654
X17.0341Y-3.4055
X17.0341Y-3.4843
X17.0341Y-3.563
X17.0341Y-3.6417
X17.0341Y-3.7205
X17.0341Y-3.7992
X17.0341Y-3.878
X17.0341Y-3.9567
X17.0341Y-4.0354
X17.0341Y-4.1142
X17.0341Y-4.2717
X17.0341Y-4.3504
X17.0341Y-4.4291
X17.0341Y-4.5079
X17.0341Y-4.5866
X17.0341Y-4.6654
X17.1128Y-3.3661
X17.1128Y-3.4449
X17.1128Y-3.5236
X17.1128Y-3.6024
X17.1128Y-3.6811
X17.1128Y-3.7598
X17.1128Y-3.8386
X17.1128Y-3.9173
X17.1128Y-3.9961
X17.1128Y-4.0748
X17.1128Y-4.1535
X17.1128Y-4.311
X17.1128Y-4.3898
X17.1128Y-4.4685
X17.1128Y-4.5472
X17.1128Y-4.626
X18.2545Y-3.3661
X18.2545Y-3.4449
X18.2545Y-3.5236
X18.2545Y-3.6024
X18.2545Y-3.6811
X18.2545Y-3.7598
X18.2545Y-3.8386
X18.2545Y-3.9173
X18.2545Y-3.9961
X18.2545Y-4.0748
X18.2545Y-4.1535
X18.2545Y-4.311
X18.2545Y-4.3898
X18.2545Y-4.4685
X18.2545Y-4.5472
X18.2545Y-4.626
X18.3333Y-3.4055
X18.3333Y-3.4843
X18.3333Y-3.563
X18.3333Y-3.6417
X18.3333Y-3.7205
X18.3333Y-3.7992
X18.3333Y-3.878
X18.3333Y-3.9567
X18.3333Y-4.0354
X18.3333Y-4.1142
X18.3333Y-4.2717
X18.3333Y-4.3504
X18.3333Y-4.4291
X18.3333Y-4.5079
X18.3333Y-4.5866
X18.3333Y-4.6654
X18.4317Y-3.4055
X18.4317Y-3.4843
X18.4317Y-3.563
X18.4317Y-3.6417
X18.4317Y-3.7205
X18.4317Y-3.7992
X18.4317Y-3.878
X18.4317Y-3.9567
X18.4317Y-4.0354
X18.4317Y-4.1142
X18.4317Y-4.2717
X18.4317Y-4.3504
X18.4317Y-4.4291
X18.4317Y-4.5079
X18.4317Y-4.5866
X18.4317Y-4.6654
X18.5104Y-3.3661
X18.5104Y-3.4449
X18.5104Y-3.5236
X18.5104Y-3.6024
X18.5104Y-3.6811
X18.5104Y-3.7598
X18.5104Y-3.8386
X18.5104Y-3.9173
X18.5104Y-3.9961
X18.5104Y-4.0748
X18.5104Y-4.1535
X18.5104Y-4.311
X18.5104Y-4.3898
X18.5104Y-4.4685
X18.5104Y-4.5472
X18.5104Y-4.626
T6
X14.9774Y-0.9776
X15.0171Y-0.8374
X15.0573Y-0.9776
X15.0972Y-0.8374
X15.1372Y-0.9776
X15.2171Y-0.9776
X15.2571Y-0.8374
X15.297Y-0.9776
X15.3372Y-0.8374
X15.377Y-0.9776
T7
X11.8795Y-4.3509
X11.9075Y-6.0409
X11.9583Y-3.915
X11.9583Y-4.0603
X11.9583Y-4.2056
X11.9583Y-4.3509
X11.9862Y-6.0409
X12.037Y-3.915
X12.037Y-4.0603
X12.037Y-4.2056
X12.037Y-4.3509
X12.2685Y-5.3429
X12.3472Y-5.3429
X16.2311Y-3.3437
X16.3098Y-3.3437
X16.3886Y-3.3437
X16.6161Y-4.8408
X16.6161Y-4.9196
X16.6161Y-4.9983
T8
X11.8976Y-6.6339
X11.9488Y-6.5846
X11.9488Y-6.6831
X11.9882Y-6.1299
X11.9882Y-6.2283
X11.9882Y-6.3268
X11.9972Y-6.4724
X12.0472Y-6.5846
X12.0472Y-6.6831
X12.0972Y-6.4724
X12.1063Y-6.1299
X12.1063Y-6.2283
X12.1063Y-6.3268
X12.1457Y-6.5846
X12.1457Y-6.6831
X12.1969Y-6.6339
X14.8927Y-1.0736
X14.9927Y-1.0736
X15.0392Y-0.6177
X15.0392Y-0.7209
X15.1376Y-0.6177
X15.1376Y-0.7209
X15.2167Y-0.6177
X15.2167Y-0.7209
X15.2622Y-1.0736
X15.3152Y-0.6177
X15.3152Y-0.7209
X15.3616Y-1.0736
X15.4616Y-1.0736
T9
X15.374Y-6.626
X15.5709Y-6.626
X16.0516Y-6.676
X16.0516Y-6.8728
X17.0669Y-5.4252
X17.0669Y-5.5252
X17.0669Y-5.6252
X17.0669Y-5.7252
X17.0669Y-5.8252
X17.0669Y-5.9252
X17.0669Y-6.0252
X17.0669Y-6.1252
X17.0669Y-6.2252
X17.0669Y-6.3252
X17.1669Y-5.4252
X17.1669Y-5.5252
X17.1669Y-5.6252
X17.1669Y-5.7252
X17.1669Y-5.8252
X17.1669Y-5.9252
X17.1669Y-6.0252
X17.1669Y-6.1252
X17.1669Y-6.2252
X17.1669Y-6.3252
X18.4646Y-5.4252
X18.4646Y-5.5252
X18.4646Y-5.6252
X18.4646Y-5.7252
X18.4646Y-5.8252
X18.4646Y-5.9252
X18.4646Y-6.0252
X18.4646Y-6.1252
X18.4646Y-6.2252
X18.4646Y-6.3252
X18.5646Y-5.4252
X18.5646Y-5.5252
X18.5646Y-5.6252
X18.5646Y-5.7252
X18.5646Y-5.8252
X18.5646Y-5.9252
X18.5646Y-6.0252
X18.5646Y-6.1252
X18.5646Y-6.2252
X18.5646Y-6.3252
T10
X13.0916Y-1.0795
X13.6816Y-1.0795
T11
X15.2756Y-6.7283
X15.4724Y-6.7283
X15.6693Y-6.7283
T12
X11.7917Y-1.4236
X11.7917Y-1.6894
T13
X11.9835Y-4.5776
X11.9835Y-5.365
T14
X16.9094Y-0.4134
X17.0472Y-0.4134
X17.185Y-0.4134
X17.3228Y-0.4134
X17.4606Y-0.4134
X17.5984Y-0.4134
X17.7362Y-0.4134
X17.874Y-0.4134
X18.0118Y-0.4134
X18.1496Y-0.4134
T15
X14.8596Y-0.4126
X14.86Y-0.8346
X15.4943Y-0.8374
X15.4947Y-0.4126
T16
X12.5354Y-0.7362
X12.5354Y-0.8307
X12.811Y-0.7362
X12.811Y-0.8307
X13.0866Y-0.7362
X13.0866Y-0.8307
T17
X16.4764Y-6.3268
X16.4764Y-6.9291
T18
X15.1575Y-6.6063
X15.7874Y-6.6063
T19
X14.7839Y-2.8311
X14.7839Y-3.0476
T20
X14.9187Y-0.5114
X14.9187Y-0.7354
X15.4356Y-0.5114
X15.4356Y-0.7354
T21
X11.6929Y-0.2559
X11.6929Y-6.8701
X16.9488Y-6.8701
X18.5039Y-0.2559
T22
X12.8543Y-4.7343
X12.8543Y-5.2067
X12.8543Y-5.9154
X12.8543Y-6.7028
T3
G00X14.1539Y-6.9567
M15
G01X14.1539Y-6.9803
M16
G05
G00X14.1681Y-6.7835
M15
G01X14.1681Y-6.8071
M16
G05
G00X14.4933Y-6.7835
M15
G01X14.4933Y-6.8071
M16
G05
G00X14.5075Y-6.9567
M15
G01X14.5075Y-6.9803
M16
G05
T8
G00X15.7106Y-0.2909
M15
G01X15.7106Y-0.2594
M16
G05
G00X15.7106Y-0.5453
M15
G01X15.7106Y-0.4744
M16
G05
G00X16.2815Y-0.2909
M15
G01X16.2815Y-0.2594
M16
G05
G00X16.2815Y-0.5453
M15
G01X16.2815Y-0.4744
M16
G05
M30
