%TF.GenerationSoftware,KiCad,Pcbnew,9.0.6-9.0.6~ubuntu24.04.1*%
%TF.CreationDate,2025-11-25T19:54:41+01:00*%
%TF.ProjectId,BB3plus DVID adapter,42423370-6c75-4732-9044-564944206164,rev?*%
%TF.SameCoordinates,Original*%
%TF.FileFunction,Paste,Top*%
%TF.FilePolarity,Positive*%
%FSLAX46Y46*%
G04 Gerber Fmt 4.6, Leading zero omitted, Abs format (unit mm)*
G04 Created by KiCad (PCBNEW 9.0.6-9.0.6~ubuntu24.04.1) date 2025-11-25 19:54:41*
%MOMM*%
%LPD*%
G01*
G04 APERTURE LIST*
G04 Aperture macros list*
%AMRoundRect*
0 Rectangle with rounded corners*
0 $1 Rounding radius*
0 $2 $3 $4 $5 $6 $7 $8 $9 X,Y pos of 4 corners*
0 Add a 4 corners polygon primitive as box body*
4,1,4,$2,$3,$4,$5,$6,$7,$8,$9,$2,$3,0*
0 Add four circle primitives for the rounded corners*
1,1,$1+$1,$2,$3*
1,1,$1+$1,$4,$5*
1,1,$1+$1,$6,$7*
1,1,$1+$1,$8,$9*
0 Add four rect primitives between the rounded corners*
20,1,$1+$1,$2,$3,$4,$5,0*
20,1,$1+$1,$4,$5,$6,$7,0*
20,1,$1+$1,$6,$7,$8,$9,0*
20,1,$1+$1,$8,$9,$2,$3,0*%
G04 Aperture macros list end*
%ADD10RoundRect,0.050800X0.901700X0.520700X-0.901700X0.520700X-0.901700X-0.520700X0.901700X-0.520700X0*%
%ADD11RoundRect,0.050800X1.536700X2.489200X-1.536700X2.489200X-1.536700X-2.489200X1.536700X-2.489200X0*%
%ADD12RoundRect,0.225000X0.250000X-0.225000X0.250000X0.225000X-0.250000X0.225000X-0.250000X-0.225000X0*%
%ADD13RoundRect,0.200000X-0.275000X0.200000X-0.275000X-0.200000X0.275000X-0.200000X0.275000X0.200000X0*%
%ADD14R,1.168400X0.304800*%
%ADD15R,0.300000X1.000000*%
%ADD16R,2.000000X1.300000*%
%ADD17RoundRect,0.225000X0.225000X0.250000X-0.225000X0.250000X-0.225000X-0.250000X0.225000X-0.250000X0*%
%ADD18R,0.300000X1.900000*%
%ADD19RoundRect,0.250000X-0.475000X0.250000X-0.475000X-0.250000X0.475000X-0.250000X0.475000X0.250000X0*%
%ADD20RoundRect,0.200000X0.200000X0.275000X-0.200000X0.275000X-0.200000X-0.275000X0.200000X-0.275000X0*%
%ADD21RoundRect,0.250000X0.475000X-0.250000X0.475000X0.250000X-0.475000X0.250000X-0.475000X-0.250000X0*%
G04 APERTURE END LIST*
D10*
%TO.C,IC1*%
X115310000Y-59840000D03*
X115310000Y-57528600D03*
X115310000Y-55217200D03*
D11*
X109544200Y-57528600D03*
%TD*%
D12*
%TO.C,JP4*%
X119050000Y-57289000D03*
X119050000Y-55739000D03*
%TD*%
D13*
%TO.C,R3*%
X119660000Y-62855000D03*
X119660000Y-64505000D03*
%TD*%
D14*
%TO.C,IC2*%
X131809800Y-54915021D03*
X131809800Y-55565007D03*
X131809800Y-56214993D03*
X131809800Y-56864979D03*
X137550200Y-56864979D03*
X137550200Y-56214993D03*
X137550200Y-55565007D03*
X137550200Y-54915021D03*
%TD*%
D15*
%TO.C,X4*%
X126750000Y-52252500D03*
X126250001Y-52252500D03*
X125749999Y-52252500D03*
X125250000Y-52252500D03*
X124749999Y-52252500D03*
X124250000Y-52252500D03*
X123750001Y-52252500D03*
X123249999Y-52252500D03*
X122750000Y-52252500D03*
X122249998Y-52252500D03*
X121750000Y-52252500D03*
X121250000Y-52252500D03*
X120749999Y-52252500D03*
X120250000Y-52252500D03*
X119749998Y-52252500D03*
X119249999Y-52252500D03*
X118750000Y-52252500D03*
X118249999Y-52252500D03*
X117750000Y-52252500D03*
X117250001Y-52252500D03*
X116749999Y-52252500D03*
X116250000Y-52252500D03*
D16*
X129049990Y-49552501D03*
X113950010Y-49552501D03*
%TD*%
D13*
%TO.C,R2*%
X118190000Y-62855000D03*
X118190000Y-64505000D03*
%TD*%
D17*
%TO.C,C3*%
X137565000Y-53470000D03*
X136015000Y-53470000D03*
%TD*%
D18*
%TO.C,X1*%
X126250000Y-68672500D03*
X125750000Y-68672500D03*
X125250000Y-68672500D03*
X124750000Y-68672500D03*
X124250000Y-68672500D03*
X123750000Y-68672500D03*
X123250000Y-68672500D03*
X122750000Y-68672500D03*
X122250000Y-68672500D03*
X121750000Y-68672500D03*
X121250000Y-68672500D03*
X120750000Y-68672500D03*
X120250000Y-68672500D03*
X119750000Y-68672500D03*
X119250000Y-68672500D03*
X118750000Y-68672500D03*
X118250000Y-68672500D03*
X117750000Y-68672500D03*
X117250000Y-68672500D03*
%TD*%
D19*
%TO.C,C1*%
X117419600Y-58278600D03*
X117419600Y-60178600D03*
%TD*%
D12*
%TO.C,JP3*%
X120420000Y-57289000D03*
X120420000Y-55739000D03*
%TD*%
D20*
%TO.C,R1*%
X117305000Y-66610000D03*
X115655000Y-66610000D03*
%TD*%
D21*
%TO.C,C2*%
X117419600Y-56778600D03*
X117419600Y-54878600D03*
%TD*%
M02*
