%TF.GenerationSoftware,KiCad,Pcbnew,9.0.6-9.0.6~ubuntu24.04.1*%
%TF.CreationDate,2025-11-25T19:54:41+01:00*%
%TF.ProjectId,BB3plus DVID adapter,42423370-6c75-4732-9044-564944206164,rev?*%
%TF.SameCoordinates,Original*%
%TF.FileFunction,Legend,Top*%
%TF.FilePolarity,Positive*%
%FSLAX46Y46*%
G04 Gerber Fmt 4.6, Leading zero omitted, Abs format (unit mm)*
G04 Created by KiCad (PCBNEW 9.0.6-9.0.6~ubuntu24.04.1) date 2025-11-25 19:54:41*
%MOMM*%
%LPD*%
G01*
G04 APERTURE LIST*
%ADD10C,0.152400*%
%ADD11C,0.150000*%
%ADD12C,0.127000*%
%ADD13C,0.200000*%
%ADD14C,0.120000*%
%ADD15C,0.100000*%
%ADD16C,0.000000*%
G04 APERTURE END LIST*
D10*
X121200904Y-64864041D02*
X121200904Y-64051241D01*
X121200904Y-64051241D02*
X121394428Y-64051241D01*
X121394428Y-64051241D02*
X121510542Y-64089946D01*
X121510542Y-64089946D02*
X121587952Y-64167356D01*
X121587952Y-64167356D02*
X121626657Y-64244765D01*
X121626657Y-64244765D02*
X121665361Y-64399584D01*
X121665361Y-64399584D02*
X121665361Y-64515698D01*
X121665361Y-64515698D02*
X121626657Y-64670517D01*
X121626657Y-64670517D02*
X121587952Y-64747927D01*
X121587952Y-64747927D02*
X121510542Y-64825337D01*
X121510542Y-64825337D02*
X121394428Y-64864041D01*
X121394428Y-64864041D02*
X121200904Y-64864041D01*
X121897590Y-64051241D02*
X122168523Y-64864041D01*
X122168523Y-64864041D02*
X122439457Y-64051241D01*
X122710390Y-64864041D02*
X122710390Y-64051241D01*
X123097438Y-64864041D02*
X123097438Y-64051241D01*
X123097438Y-64051241D02*
X123290962Y-64051241D01*
X123290962Y-64051241D02*
X123407076Y-64089946D01*
X123407076Y-64089946D02*
X123484486Y-64167356D01*
X123484486Y-64167356D02*
X123523191Y-64244765D01*
X123523191Y-64244765D02*
X123561895Y-64399584D01*
X123561895Y-64399584D02*
X123561895Y-64515698D01*
X123561895Y-64515698D02*
X123523191Y-64670517D01*
X123523191Y-64670517D02*
X123484486Y-64747927D01*
X123484486Y-64747927D02*
X123407076Y-64825337D01*
X123407076Y-64825337D02*
X123290962Y-64864041D01*
X123290962Y-64864041D02*
X123097438Y-64864041D01*
X124877857Y-64864041D02*
X124877857Y-64438289D01*
X124877857Y-64438289D02*
X124839152Y-64360879D01*
X124839152Y-64360879D02*
X124761743Y-64322175D01*
X124761743Y-64322175D02*
X124606924Y-64322175D01*
X124606924Y-64322175D02*
X124529514Y-64360879D01*
X124877857Y-64825337D02*
X124800448Y-64864041D01*
X124800448Y-64864041D02*
X124606924Y-64864041D01*
X124606924Y-64864041D02*
X124529514Y-64825337D01*
X124529514Y-64825337D02*
X124490810Y-64747927D01*
X124490810Y-64747927D02*
X124490810Y-64670517D01*
X124490810Y-64670517D02*
X124529514Y-64593108D01*
X124529514Y-64593108D02*
X124606924Y-64554403D01*
X124606924Y-64554403D02*
X124800448Y-64554403D01*
X124800448Y-64554403D02*
X124877857Y-64515698D01*
X125613247Y-64864041D02*
X125613247Y-64051241D01*
X125613247Y-64825337D02*
X125535838Y-64864041D01*
X125535838Y-64864041D02*
X125381019Y-64864041D01*
X125381019Y-64864041D02*
X125303609Y-64825337D01*
X125303609Y-64825337D02*
X125264904Y-64786632D01*
X125264904Y-64786632D02*
X125226200Y-64709222D01*
X125226200Y-64709222D02*
X125226200Y-64476994D01*
X125226200Y-64476994D02*
X125264904Y-64399584D01*
X125264904Y-64399584D02*
X125303609Y-64360879D01*
X125303609Y-64360879D02*
X125381019Y-64322175D01*
X125381019Y-64322175D02*
X125535838Y-64322175D01*
X125535838Y-64322175D02*
X125613247Y-64360879D01*
X126348637Y-64864041D02*
X126348637Y-64438289D01*
X126348637Y-64438289D02*
X126309932Y-64360879D01*
X126309932Y-64360879D02*
X126232523Y-64322175D01*
X126232523Y-64322175D02*
X126077704Y-64322175D01*
X126077704Y-64322175D02*
X126000294Y-64360879D01*
X126348637Y-64825337D02*
X126271228Y-64864041D01*
X126271228Y-64864041D02*
X126077704Y-64864041D01*
X126077704Y-64864041D02*
X126000294Y-64825337D01*
X126000294Y-64825337D02*
X125961590Y-64747927D01*
X125961590Y-64747927D02*
X125961590Y-64670517D01*
X125961590Y-64670517D02*
X126000294Y-64593108D01*
X126000294Y-64593108D02*
X126077704Y-64554403D01*
X126077704Y-64554403D02*
X126271228Y-64554403D01*
X126271228Y-64554403D02*
X126348637Y-64515698D01*
X126735684Y-64322175D02*
X126735684Y-65134975D01*
X126735684Y-64360879D02*
X126813094Y-64322175D01*
X126813094Y-64322175D02*
X126967913Y-64322175D01*
X126967913Y-64322175D02*
X127045322Y-64360879D01*
X127045322Y-64360879D02*
X127084027Y-64399584D01*
X127084027Y-64399584D02*
X127122732Y-64476994D01*
X127122732Y-64476994D02*
X127122732Y-64709222D01*
X127122732Y-64709222D02*
X127084027Y-64786632D01*
X127084027Y-64786632D02*
X127045322Y-64825337D01*
X127045322Y-64825337D02*
X126967913Y-64864041D01*
X126967913Y-64864041D02*
X126813094Y-64864041D01*
X126813094Y-64864041D02*
X126735684Y-64825337D01*
X127354960Y-64322175D02*
X127664598Y-64322175D01*
X127471074Y-64051241D02*
X127471074Y-64747927D01*
X127471074Y-64747927D02*
X127509779Y-64825337D01*
X127509779Y-64825337D02*
X127587189Y-64864041D01*
X127587189Y-64864041D02*
X127664598Y-64864041D01*
X128245169Y-64825337D02*
X128167760Y-64864041D01*
X128167760Y-64864041D02*
X128012941Y-64864041D01*
X128012941Y-64864041D02*
X127935531Y-64825337D01*
X127935531Y-64825337D02*
X127896827Y-64747927D01*
X127896827Y-64747927D02*
X127896827Y-64438289D01*
X127896827Y-64438289D02*
X127935531Y-64360879D01*
X127935531Y-64360879D02*
X128012941Y-64322175D01*
X128012941Y-64322175D02*
X128167760Y-64322175D01*
X128167760Y-64322175D02*
X128245169Y-64360879D01*
X128245169Y-64360879D02*
X128283874Y-64438289D01*
X128283874Y-64438289D02*
X128283874Y-64515698D01*
X128283874Y-64515698D02*
X127896827Y-64593108D01*
X128632217Y-64864041D02*
X128632217Y-64322175D01*
X128632217Y-64476994D02*
X128670922Y-64399584D01*
X128670922Y-64399584D02*
X128709627Y-64360879D01*
X128709627Y-64360879D02*
X128787036Y-64322175D01*
X128787036Y-64322175D02*
X128864446Y-64322175D01*
X121200904Y-66172603D02*
X121200904Y-65630737D01*
X121200904Y-65785556D02*
X121239609Y-65708146D01*
X121239609Y-65708146D02*
X121278314Y-65669441D01*
X121278314Y-65669441D02*
X121355723Y-65630737D01*
X121355723Y-65630737D02*
X121433133Y-65630737D01*
X122129819Y-66172603D02*
X121665362Y-66172603D01*
X121897590Y-66172603D02*
X121897590Y-65359803D01*
X121897590Y-65359803D02*
X121820181Y-65475918D01*
X121820181Y-65475918D02*
X121742771Y-65553327D01*
X121742771Y-65553327D02*
X121665362Y-65592032D01*
X122749095Y-65746851D02*
X122865209Y-65785556D01*
X122865209Y-65785556D02*
X122903914Y-65824260D01*
X122903914Y-65824260D02*
X122942618Y-65901670D01*
X122942618Y-65901670D02*
X122942618Y-66017784D01*
X122942618Y-66017784D02*
X122903914Y-66095194D01*
X122903914Y-66095194D02*
X122865209Y-66133899D01*
X122865209Y-66133899D02*
X122787799Y-66172603D01*
X122787799Y-66172603D02*
X122478161Y-66172603D01*
X122478161Y-66172603D02*
X122478161Y-65359803D01*
X122478161Y-65359803D02*
X122749095Y-65359803D01*
X122749095Y-65359803D02*
X122826504Y-65398508D01*
X122826504Y-65398508D02*
X122865209Y-65437213D01*
X122865209Y-65437213D02*
X122903914Y-65514622D01*
X122903914Y-65514622D02*
X122903914Y-65592032D01*
X122903914Y-65592032D02*
X122865209Y-65669441D01*
X122865209Y-65669441D02*
X122826504Y-65708146D01*
X122826504Y-65708146D02*
X122749095Y-65746851D01*
X122749095Y-65746851D02*
X122478161Y-65746851D01*
X123716714Y-66172603D02*
X123252257Y-66172603D01*
X123484485Y-66172603D02*
X123484485Y-65359803D01*
X123484485Y-65359803D02*
X123407076Y-65475918D01*
X123407076Y-65475918D02*
X123329666Y-65553327D01*
X123329666Y-65553327D02*
X123252257Y-65592032D01*
X124916561Y-66482241D02*
X124877856Y-66443537D01*
X124877856Y-66443537D02*
X124800447Y-66327422D01*
X124800447Y-66327422D02*
X124761742Y-66250013D01*
X124761742Y-66250013D02*
X124723037Y-66133899D01*
X124723037Y-66133899D02*
X124684332Y-65940375D01*
X124684332Y-65940375D02*
X124684332Y-65785556D01*
X124684332Y-65785556D02*
X124723037Y-65592032D01*
X124723037Y-65592032D02*
X124761742Y-65475918D01*
X124761742Y-65475918D02*
X124800447Y-65398508D01*
X124800447Y-65398508D02*
X124877856Y-65282394D01*
X124877856Y-65282394D02*
X124916561Y-65243689D01*
X125651952Y-66172603D02*
X125187495Y-66172603D01*
X125419723Y-66172603D02*
X125419723Y-65359803D01*
X125419723Y-65359803D02*
X125342314Y-65475918D01*
X125342314Y-65475918D02*
X125264904Y-65553327D01*
X125264904Y-65553327D02*
X125187495Y-65592032D01*
X125961590Y-65437213D02*
X126000294Y-65398508D01*
X126000294Y-65398508D02*
X126077704Y-65359803D01*
X126077704Y-65359803D02*
X126271228Y-65359803D01*
X126271228Y-65359803D02*
X126348637Y-65398508D01*
X126348637Y-65398508D02*
X126387342Y-65437213D01*
X126387342Y-65437213D02*
X126426047Y-65514622D01*
X126426047Y-65514622D02*
X126426047Y-65592032D01*
X126426047Y-65592032D02*
X126387342Y-65708146D01*
X126387342Y-65708146D02*
X125922885Y-66172603D01*
X125922885Y-66172603D02*
X126426047Y-66172603D01*
X127354961Y-65321099D02*
X126658275Y-66366127D01*
X127587190Y-65437213D02*
X127625894Y-65398508D01*
X127625894Y-65398508D02*
X127703304Y-65359803D01*
X127703304Y-65359803D02*
X127896828Y-65359803D01*
X127896828Y-65359803D02*
X127974237Y-65398508D01*
X127974237Y-65398508D02*
X128012942Y-65437213D01*
X128012942Y-65437213D02*
X128051647Y-65514622D01*
X128051647Y-65514622D02*
X128051647Y-65592032D01*
X128051647Y-65592032D02*
X128012942Y-65708146D01*
X128012942Y-65708146D02*
X127548485Y-66172603D01*
X127548485Y-66172603D02*
X128051647Y-66172603D01*
X128554808Y-65359803D02*
X128632218Y-65359803D01*
X128632218Y-65359803D02*
X128709627Y-65398508D01*
X128709627Y-65398508D02*
X128748332Y-65437213D01*
X128748332Y-65437213D02*
X128787037Y-65514622D01*
X128787037Y-65514622D02*
X128825742Y-65669441D01*
X128825742Y-65669441D02*
X128825742Y-65862965D01*
X128825742Y-65862965D02*
X128787037Y-66017784D01*
X128787037Y-66017784D02*
X128748332Y-66095194D01*
X128748332Y-66095194D02*
X128709627Y-66133899D01*
X128709627Y-66133899D02*
X128632218Y-66172603D01*
X128632218Y-66172603D02*
X128554808Y-66172603D01*
X128554808Y-66172603D02*
X128477399Y-66133899D01*
X128477399Y-66133899D02*
X128438694Y-66095194D01*
X128438694Y-66095194D02*
X128399989Y-66017784D01*
X128399989Y-66017784D02*
X128361285Y-65862965D01*
X128361285Y-65862965D02*
X128361285Y-65669441D01*
X128361285Y-65669441D02*
X128399989Y-65514622D01*
X128399989Y-65514622D02*
X128438694Y-65437213D01*
X128438694Y-65437213D02*
X128477399Y-65398508D01*
X128477399Y-65398508D02*
X128554808Y-65359803D01*
X129135380Y-65437213D02*
X129174084Y-65398508D01*
X129174084Y-65398508D02*
X129251494Y-65359803D01*
X129251494Y-65359803D02*
X129445018Y-65359803D01*
X129445018Y-65359803D02*
X129522427Y-65398508D01*
X129522427Y-65398508D02*
X129561132Y-65437213D01*
X129561132Y-65437213D02*
X129599837Y-65514622D01*
X129599837Y-65514622D02*
X129599837Y-65592032D01*
X129599837Y-65592032D02*
X129561132Y-65708146D01*
X129561132Y-65708146D02*
X129096675Y-66172603D01*
X129096675Y-66172603D02*
X129599837Y-66172603D01*
X130335227Y-65359803D02*
X129948179Y-65359803D01*
X129948179Y-65359803D02*
X129909475Y-65746851D01*
X129909475Y-65746851D02*
X129948179Y-65708146D01*
X129948179Y-65708146D02*
X130025589Y-65669441D01*
X130025589Y-65669441D02*
X130219113Y-65669441D01*
X130219113Y-65669441D02*
X130296522Y-65708146D01*
X130296522Y-65708146D02*
X130335227Y-65746851D01*
X130335227Y-65746851D02*
X130373932Y-65824260D01*
X130373932Y-65824260D02*
X130373932Y-66017784D01*
X130373932Y-66017784D02*
X130335227Y-66095194D01*
X130335227Y-66095194D02*
X130296522Y-66133899D01*
X130296522Y-66133899D02*
X130219113Y-66172603D01*
X130219113Y-66172603D02*
X130025589Y-66172603D01*
X130025589Y-66172603D02*
X129948179Y-66133899D01*
X129948179Y-66133899D02*
X129909475Y-66095194D01*
X130644865Y-66482241D02*
X130683570Y-66443537D01*
X130683570Y-66443537D02*
X130760979Y-66327422D01*
X130760979Y-66327422D02*
X130799684Y-66250013D01*
X130799684Y-66250013D02*
X130838389Y-66133899D01*
X130838389Y-66133899D02*
X130877093Y-65940375D01*
X130877093Y-65940375D02*
X130877093Y-65785556D01*
X130877093Y-65785556D02*
X130838389Y-65592032D01*
X130838389Y-65592032D02*
X130799684Y-65475918D01*
X130799684Y-65475918D02*
X130760979Y-65398508D01*
X130760979Y-65398508D02*
X130683570Y-65282394D01*
X130683570Y-65282394D02*
X130644865Y-65243689D01*
X111024212Y-53936455D02*
X111024212Y-52920455D01*
X112088594Y-53839694D02*
X112040213Y-53888075D01*
X112040213Y-53888075D02*
X111895070Y-53936455D01*
X111895070Y-53936455D02*
X111798308Y-53936455D01*
X111798308Y-53936455D02*
X111653165Y-53888075D01*
X111653165Y-53888075D02*
X111556403Y-53791313D01*
X111556403Y-53791313D02*
X111508022Y-53694551D01*
X111508022Y-53694551D02*
X111459641Y-53501027D01*
X111459641Y-53501027D02*
X111459641Y-53355884D01*
X111459641Y-53355884D02*
X111508022Y-53162360D01*
X111508022Y-53162360D02*
X111556403Y-53065598D01*
X111556403Y-53065598D02*
X111653165Y-52968836D01*
X111653165Y-52968836D02*
X111798308Y-52920455D01*
X111798308Y-52920455D02*
X111895070Y-52920455D01*
X111895070Y-52920455D02*
X112040213Y-52968836D01*
X112040213Y-52968836D02*
X112088594Y-53017217D01*
X113056213Y-53936455D02*
X112475641Y-53936455D01*
X112765927Y-53936455D02*
X112765927Y-52920455D01*
X112765927Y-52920455D02*
X112669165Y-53065598D01*
X112669165Y-53065598D02*
X112572403Y-53162360D01*
X112572403Y-53162360D02*
X112475641Y-53210741D01*
X131172667Y-53185291D02*
X131172667Y-53765863D01*
X131172667Y-53765863D02*
X131133962Y-53881977D01*
X131133962Y-53881977D02*
X131056553Y-53959387D01*
X131056553Y-53959387D02*
X130940438Y-53998091D01*
X130940438Y-53998091D02*
X130863029Y-53998091D01*
X131559714Y-53998091D02*
X131559714Y-53185291D01*
X131559714Y-53185291D02*
X131869352Y-53185291D01*
X131869352Y-53185291D02*
X131946762Y-53223996D01*
X131946762Y-53223996D02*
X131985467Y-53262701D01*
X131985467Y-53262701D02*
X132024171Y-53340110D01*
X132024171Y-53340110D02*
X132024171Y-53456225D01*
X132024171Y-53456225D02*
X131985467Y-53533634D01*
X131985467Y-53533634D02*
X131946762Y-53572339D01*
X131946762Y-53572339D02*
X131869352Y-53611044D01*
X131869352Y-53611044D02*
X131559714Y-53611044D01*
X132333810Y-53262701D02*
X132372514Y-53223996D01*
X132372514Y-53223996D02*
X132449924Y-53185291D01*
X132449924Y-53185291D02*
X132643448Y-53185291D01*
X132643448Y-53185291D02*
X132720857Y-53223996D01*
X132720857Y-53223996D02*
X132759562Y-53262701D01*
X132759562Y-53262701D02*
X132798267Y-53340110D01*
X132798267Y-53340110D02*
X132798267Y-53417520D01*
X132798267Y-53417520D02*
X132759562Y-53533634D01*
X132759562Y-53533634D02*
X132295105Y-53998091D01*
X132295105Y-53998091D02*
X132798267Y-53998091D01*
X118656770Y-54618407D02*
X119237342Y-54618407D01*
X119237342Y-54618407D02*
X119353456Y-54657112D01*
X119353456Y-54657112D02*
X119430866Y-54734521D01*
X119430866Y-54734521D02*
X119469570Y-54850636D01*
X119469570Y-54850636D02*
X119469570Y-54928045D01*
X119469570Y-54231360D02*
X118656770Y-54231360D01*
X118656770Y-54231360D02*
X118656770Y-53921722D01*
X118656770Y-53921722D02*
X118695475Y-53844312D01*
X118695475Y-53844312D02*
X118734180Y-53805607D01*
X118734180Y-53805607D02*
X118811589Y-53766903D01*
X118811589Y-53766903D02*
X118927704Y-53766903D01*
X118927704Y-53766903D02*
X119005113Y-53805607D01*
X119005113Y-53805607D02*
X119043818Y-53844312D01*
X119043818Y-53844312D02*
X119082523Y-53921722D01*
X119082523Y-53921722D02*
X119082523Y-54231360D01*
X118927704Y-53070217D02*
X119469570Y-53070217D01*
X118618066Y-53263741D02*
X119198637Y-53457264D01*
X119198637Y-53457264D02*
X119198637Y-52954103D01*
X120058591Y-61745466D02*
X119671544Y-62016399D01*
X120058591Y-62209923D02*
X119245791Y-62209923D01*
X119245791Y-62209923D02*
X119245791Y-61900285D01*
X119245791Y-61900285D02*
X119284496Y-61822875D01*
X119284496Y-61822875D02*
X119323201Y-61784170D01*
X119323201Y-61784170D02*
X119400610Y-61745466D01*
X119400610Y-61745466D02*
X119516725Y-61745466D01*
X119516725Y-61745466D02*
X119594134Y-61784170D01*
X119594134Y-61784170D02*
X119632839Y-61822875D01*
X119632839Y-61822875D02*
X119671544Y-61900285D01*
X119671544Y-61900285D02*
X119671544Y-62209923D01*
X119245791Y-61474532D02*
X119245791Y-60971370D01*
X119245791Y-60971370D02*
X119555429Y-61242304D01*
X119555429Y-61242304D02*
X119555429Y-61126189D01*
X119555429Y-61126189D02*
X119594134Y-61048780D01*
X119594134Y-61048780D02*
X119632839Y-61010075D01*
X119632839Y-61010075D02*
X119710248Y-60971370D01*
X119710248Y-60971370D02*
X119903772Y-60971370D01*
X119903772Y-60971370D02*
X119981182Y-61010075D01*
X119981182Y-61010075D02*
X120019887Y-61048780D01*
X120019887Y-61048780D02*
X120058591Y-61126189D01*
X120058591Y-61126189D02*
X120058591Y-61358418D01*
X120058591Y-61358418D02*
X120019887Y-61435827D01*
X120019887Y-61435827D02*
X119981182Y-61474532D01*
X129286552Y-56258091D02*
X129286552Y-55445291D01*
X130138057Y-56180682D02*
X130099353Y-56219387D01*
X130099353Y-56219387D02*
X129983238Y-56258091D01*
X129983238Y-56258091D02*
X129905829Y-56258091D01*
X129905829Y-56258091D02*
X129789715Y-56219387D01*
X129789715Y-56219387D02*
X129712305Y-56141977D01*
X129712305Y-56141977D02*
X129673600Y-56064567D01*
X129673600Y-56064567D02*
X129634896Y-55909748D01*
X129634896Y-55909748D02*
X129634896Y-55793634D01*
X129634896Y-55793634D02*
X129673600Y-55638815D01*
X129673600Y-55638815D02*
X129712305Y-55561406D01*
X129712305Y-55561406D02*
X129789715Y-55483996D01*
X129789715Y-55483996D02*
X129905829Y-55445291D01*
X129905829Y-55445291D02*
X129983238Y-55445291D01*
X129983238Y-55445291D02*
X130099353Y-55483996D01*
X130099353Y-55483996D02*
X130138057Y-55522701D01*
X130447696Y-55522701D02*
X130486400Y-55483996D01*
X130486400Y-55483996D02*
X130563810Y-55445291D01*
X130563810Y-55445291D02*
X130757334Y-55445291D01*
X130757334Y-55445291D02*
X130834743Y-55483996D01*
X130834743Y-55483996D02*
X130873448Y-55522701D01*
X130873448Y-55522701D02*
X130912153Y-55600110D01*
X130912153Y-55600110D02*
X130912153Y-55677520D01*
X130912153Y-55677520D02*
X130873448Y-55793634D01*
X130873448Y-55793634D02*
X130408991Y-56258091D01*
X130408991Y-56258091D02*
X130912153Y-56258091D01*
X128857980Y-53547208D02*
X128316114Y-52734408D01*
X128316114Y-53547208D02*
X128857980Y-52734408D01*
X127658133Y-53276274D02*
X127658133Y-52734408D01*
X127851657Y-53585913D02*
X128045180Y-53005341D01*
X128045180Y-53005341D02*
X127542019Y-53005341D01*
X118561075Y-61772266D02*
X118174028Y-62043199D01*
X118561075Y-62236723D02*
X117748275Y-62236723D01*
X117748275Y-62236723D02*
X117748275Y-61927085D01*
X117748275Y-61927085D02*
X117786980Y-61849675D01*
X117786980Y-61849675D02*
X117825685Y-61810970D01*
X117825685Y-61810970D02*
X117903094Y-61772266D01*
X117903094Y-61772266D02*
X118019209Y-61772266D01*
X118019209Y-61772266D02*
X118096618Y-61810970D01*
X118096618Y-61810970D02*
X118135323Y-61849675D01*
X118135323Y-61849675D02*
X118174028Y-61927085D01*
X118174028Y-61927085D02*
X118174028Y-62236723D01*
X117825685Y-61462627D02*
X117786980Y-61423923D01*
X117786980Y-61423923D02*
X117748275Y-61346513D01*
X117748275Y-61346513D02*
X117748275Y-61152989D01*
X117748275Y-61152989D02*
X117786980Y-61075580D01*
X117786980Y-61075580D02*
X117825685Y-61036875D01*
X117825685Y-61036875D02*
X117903094Y-60998170D01*
X117903094Y-60998170D02*
X117980504Y-60998170D01*
X117980504Y-60998170D02*
X118096618Y-61036875D01*
X118096618Y-61036875D02*
X118561075Y-61501332D01*
X118561075Y-61501332D02*
X118561075Y-60998170D01*
X134584533Y-53770682D02*
X134545829Y-53809387D01*
X134545829Y-53809387D02*
X134429714Y-53848091D01*
X134429714Y-53848091D02*
X134352305Y-53848091D01*
X134352305Y-53848091D02*
X134236191Y-53809387D01*
X134236191Y-53809387D02*
X134158781Y-53731977D01*
X134158781Y-53731977D02*
X134120076Y-53654567D01*
X134120076Y-53654567D02*
X134081372Y-53499748D01*
X134081372Y-53499748D02*
X134081372Y-53383634D01*
X134081372Y-53383634D02*
X134120076Y-53228815D01*
X134120076Y-53228815D02*
X134158781Y-53151406D01*
X134158781Y-53151406D02*
X134236191Y-53073996D01*
X134236191Y-53073996D02*
X134352305Y-53035291D01*
X134352305Y-53035291D02*
X134429714Y-53035291D01*
X134429714Y-53035291D02*
X134545829Y-53073996D01*
X134545829Y-53073996D02*
X134584533Y-53112701D01*
X134855467Y-53035291D02*
X135358629Y-53035291D01*
X135358629Y-53035291D02*
X135087695Y-53344929D01*
X135087695Y-53344929D02*
X135203810Y-53344929D01*
X135203810Y-53344929D02*
X135281219Y-53383634D01*
X135281219Y-53383634D02*
X135319924Y-53422339D01*
X135319924Y-53422339D02*
X135358629Y-53499748D01*
X135358629Y-53499748D02*
X135358629Y-53693272D01*
X135358629Y-53693272D02*
X135319924Y-53770682D01*
X135319924Y-53770682D02*
X135281219Y-53809387D01*
X135281219Y-53809387D02*
X135203810Y-53848091D01*
X135203810Y-53848091D02*
X134971581Y-53848091D01*
X134971581Y-53848091D02*
X134894172Y-53809387D01*
X134894172Y-53809387D02*
X134855467Y-53770682D01*
D11*
X131090476Y-58064819D02*
X131757142Y-59064819D01*
X131757142Y-58064819D02*
X131090476Y-59064819D01*
X132042857Y-58064819D02*
X132661904Y-58064819D01*
X132661904Y-58064819D02*
X132328571Y-58445771D01*
X132328571Y-58445771D02*
X132471428Y-58445771D01*
X132471428Y-58445771D02*
X132566666Y-58493390D01*
X132566666Y-58493390D02*
X132614285Y-58541009D01*
X132614285Y-58541009D02*
X132661904Y-58636247D01*
X132661904Y-58636247D02*
X132661904Y-58874342D01*
X132661904Y-58874342D02*
X132614285Y-58969580D01*
X132614285Y-58969580D02*
X132566666Y-59017200D01*
X132566666Y-59017200D02*
X132471428Y-59064819D01*
X132471428Y-59064819D02*
X132185714Y-59064819D01*
X132185714Y-59064819D02*
X132090476Y-59017200D01*
X132090476Y-59017200D02*
X132042857Y-58969580D01*
X127990476Y-67227319D02*
X128657142Y-68227319D01*
X128657142Y-67227319D02*
X127990476Y-68227319D01*
X129561904Y-68227319D02*
X128990476Y-68227319D01*
X129276190Y-68227319D02*
X129276190Y-67227319D01*
X129276190Y-67227319D02*
X129180952Y-67370176D01*
X129180952Y-67370176D02*
X129085714Y-67465414D01*
X129085714Y-67465414D02*
X128990476Y-67513033D01*
D10*
X118874533Y-59510682D02*
X118835829Y-59549387D01*
X118835829Y-59549387D02*
X118719714Y-59588091D01*
X118719714Y-59588091D02*
X118642305Y-59588091D01*
X118642305Y-59588091D02*
X118526191Y-59549387D01*
X118526191Y-59549387D02*
X118448781Y-59471977D01*
X118448781Y-59471977D02*
X118410076Y-59394567D01*
X118410076Y-59394567D02*
X118371372Y-59239748D01*
X118371372Y-59239748D02*
X118371372Y-59123634D01*
X118371372Y-59123634D02*
X118410076Y-58968815D01*
X118410076Y-58968815D02*
X118448781Y-58891406D01*
X118448781Y-58891406D02*
X118526191Y-58813996D01*
X118526191Y-58813996D02*
X118642305Y-58775291D01*
X118642305Y-58775291D02*
X118719714Y-58775291D01*
X118719714Y-58775291D02*
X118835829Y-58813996D01*
X118835829Y-58813996D02*
X118874533Y-58852701D01*
X119648629Y-59588091D02*
X119184172Y-59588091D01*
X119416400Y-59588091D02*
X119416400Y-58775291D01*
X119416400Y-58775291D02*
X119338991Y-58891406D01*
X119338991Y-58891406D02*
X119261581Y-58968815D01*
X119261581Y-58968815D02*
X119184172Y-59007520D01*
D11*
X108540476Y-70314819D02*
X109207142Y-71314819D01*
X109207142Y-70314819D02*
X108540476Y-71314819D01*
X109540476Y-70410057D02*
X109588095Y-70362438D01*
X109588095Y-70362438D02*
X109683333Y-70314819D01*
X109683333Y-70314819D02*
X109921428Y-70314819D01*
X109921428Y-70314819D02*
X110016666Y-70362438D01*
X110016666Y-70362438D02*
X110064285Y-70410057D01*
X110064285Y-70410057D02*
X110111904Y-70505295D01*
X110111904Y-70505295D02*
X110111904Y-70600533D01*
X110111904Y-70600533D02*
X110064285Y-70743390D01*
X110064285Y-70743390D02*
X109492857Y-71314819D01*
X109492857Y-71314819D02*
X110111904Y-71314819D01*
D10*
X113022667Y-63055291D02*
X113022667Y-63635863D01*
X113022667Y-63635863D02*
X112983962Y-63751977D01*
X112983962Y-63751977D02*
X112906553Y-63829387D01*
X112906553Y-63829387D02*
X112790438Y-63868091D01*
X112790438Y-63868091D02*
X112713029Y-63868091D01*
X113409714Y-63868091D02*
X113409714Y-63055291D01*
X113409714Y-63055291D02*
X113719352Y-63055291D01*
X113719352Y-63055291D02*
X113796762Y-63093996D01*
X113796762Y-63093996D02*
X113835467Y-63132701D01*
X113835467Y-63132701D02*
X113874171Y-63210110D01*
X113874171Y-63210110D02*
X113874171Y-63326225D01*
X113874171Y-63326225D02*
X113835467Y-63403634D01*
X113835467Y-63403634D02*
X113796762Y-63442339D01*
X113796762Y-63442339D02*
X113719352Y-63481044D01*
X113719352Y-63481044D02*
X113409714Y-63481044D01*
X114648267Y-63868091D02*
X114183810Y-63868091D01*
X114416038Y-63868091D02*
X114416038Y-63055291D01*
X114416038Y-63055291D02*
X114338629Y-63171406D01*
X114338629Y-63171406D02*
X114261219Y-63248815D01*
X114261219Y-63248815D02*
X114183810Y-63287520D01*
X120026770Y-54628407D02*
X120607342Y-54628407D01*
X120607342Y-54628407D02*
X120723456Y-54667112D01*
X120723456Y-54667112D02*
X120800866Y-54744521D01*
X120800866Y-54744521D02*
X120839570Y-54860636D01*
X120839570Y-54860636D02*
X120839570Y-54938045D01*
X120839570Y-54241360D02*
X120026770Y-54241360D01*
X120026770Y-54241360D02*
X120026770Y-53931722D01*
X120026770Y-53931722D02*
X120065475Y-53854312D01*
X120065475Y-53854312D02*
X120104180Y-53815607D01*
X120104180Y-53815607D02*
X120181589Y-53776903D01*
X120181589Y-53776903D02*
X120297704Y-53776903D01*
X120297704Y-53776903D02*
X120375113Y-53815607D01*
X120375113Y-53815607D02*
X120413818Y-53854312D01*
X120413818Y-53854312D02*
X120452523Y-53931722D01*
X120452523Y-53931722D02*
X120452523Y-54241360D01*
X120026770Y-53505969D02*
X120026770Y-53002807D01*
X120026770Y-53002807D02*
X120336408Y-53273741D01*
X120336408Y-53273741D02*
X120336408Y-53157626D01*
X120336408Y-53157626D02*
X120375113Y-53080217D01*
X120375113Y-53080217D02*
X120413818Y-53041512D01*
X120413818Y-53041512D02*
X120491227Y-53002807D01*
X120491227Y-53002807D02*
X120684751Y-53002807D01*
X120684751Y-53002807D02*
X120762161Y-53041512D01*
X120762161Y-53041512D02*
X120800866Y-53080217D01*
X120800866Y-53080217D02*
X120839570Y-53157626D01*
X120839570Y-53157626D02*
X120839570Y-53389855D01*
X120839570Y-53389855D02*
X120800866Y-53467264D01*
X120800866Y-53467264D02*
X120762161Y-53505969D01*
X114174533Y-66988091D02*
X113903600Y-66601044D01*
X113710076Y-66988091D02*
X113710076Y-66175291D01*
X113710076Y-66175291D02*
X114019714Y-66175291D01*
X114019714Y-66175291D02*
X114097124Y-66213996D01*
X114097124Y-66213996D02*
X114135829Y-66252701D01*
X114135829Y-66252701D02*
X114174533Y-66330110D01*
X114174533Y-66330110D02*
X114174533Y-66446225D01*
X114174533Y-66446225D02*
X114135829Y-66523634D01*
X114135829Y-66523634D02*
X114097124Y-66562339D01*
X114097124Y-66562339D02*
X114019714Y-66601044D01*
X114019714Y-66601044D02*
X113710076Y-66601044D01*
X114948629Y-66988091D02*
X114484172Y-66988091D01*
X114716400Y-66988091D02*
X114716400Y-66175291D01*
X114716400Y-66175291D02*
X114638991Y-66291406D01*
X114638991Y-66291406D02*
X114561581Y-66368815D01*
X114561581Y-66368815D02*
X114484172Y-66407520D01*
X117284533Y-54070682D02*
X117245829Y-54109387D01*
X117245829Y-54109387D02*
X117129714Y-54148091D01*
X117129714Y-54148091D02*
X117052305Y-54148091D01*
X117052305Y-54148091D02*
X116936191Y-54109387D01*
X116936191Y-54109387D02*
X116858781Y-54031977D01*
X116858781Y-54031977D02*
X116820076Y-53954567D01*
X116820076Y-53954567D02*
X116781372Y-53799748D01*
X116781372Y-53799748D02*
X116781372Y-53683634D01*
X116781372Y-53683634D02*
X116820076Y-53528815D01*
X116820076Y-53528815D02*
X116858781Y-53451406D01*
X116858781Y-53451406D02*
X116936191Y-53373996D01*
X116936191Y-53373996D02*
X117052305Y-53335291D01*
X117052305Y-53335291D02*
X117129714Y-53335291D01*
X117129714Y-53335291D02*
X117245829Y-53373996D01*
X117245829Y-53373996D02*
X117284533Y-53412701D01*
X117594172Y-53412701D02*
X117632876Y-53373996D01*
X117632876Y-53373996D02*
X117710286Y-53335291D01*
X117710286Y-53335291D02*
X117903810Y-53335291D01*
X117903810Y-53335291D02*
X117981219Y-53373996D01*
X117981219Y-53373996D02*
X118019924Y-53412701D01*
X118019924Y-53412701D02*
X118058629Y-53490110D01*
X118058629Y-53490110D02*
X118058629Y-53567520D01*
X118058629Y-53567520D02*
X118019924Y-53683634D01*
X118019924Y-53683634D02*
X117555467Y-54148091D01*
X117555467Y-54148091D02*
X118058629Y-54148091D01*
%TO.C,IC1*%
X110255400Y-54734600D02*
X110255400Y-54175800D01*
X110255400Y-60881400D02*
X110255400Y-60322600D01*
X110255400Y-60881400D02*
X113963800Y-60881400D01*
X113963800Y-54175800D02*
X110255400Y-54175800D01*
X113963800Y-60881400D02*
X113963800Y-54175800D01*
D12*
%TO.C,JP2*%
X130900000Y-46940000D02*
X132900000Y-46940000D01*
X130900000Y-52940000D02*
X130900000Y-46940000D01*
X132900000Y-46940000D02*
X132900000Y-52940000D01*
X132900000Y-52940000D02*
X130900000Y-52940000D01*
D13*
X132000000Y-46440000D02*
G75*
G02*
X131800000Y-46440000I-100000J0D01*
G01*
X131800000Y-46440000D02*
G75*
G02*
X132000000Y-46440000I100000J0D01*
G01*
D14*
%TO.C,JP4*%
X118543000Y-56641580D02*
X118543000Y-56360420D01*
X119563000Y-56641580D02*
X119563000Y-56360420D01*
D15*
X118415000Y-57917000D02*
X119685000Y-57917000D01*
X119685000Y-55123000D01*
X118415000Y-55123000D01*
X118415000Y-57917000D01*
D14*
%TO.C,R3*%
X119137500Y-63442742D02*
X119137500Y-63917258D01*
X120182500Y-63442742D02*
X120182500Y-63917258D01*
D10*
%TO.C,IC2*%
X132305100Y-57566400D02*
X137054900Y-57566400D01*
X134375200Y-54213600D02*
X132305100Y-54213600D01*
X134978450Y-54213600D02*
X137048550Y-54213600D01*
X134984800Y-54213600D02*
G75*
G02*
X134375200Y-54213600I-304800J0D01*
G01*
%TO.C,X4*%
X113250017Y-47152500D02*
X113250017Y-48582461D01*
X113250017Y-50522540D02*
X113250017Y-52452500D01*
X113250017Y-52452500D02*
X115779960Y-52452500D01*
X127220040Y-52452500D02*
X129749983Y-52452500D01*
X129749983Y-47152500D02*
X113250017Y-47152500D01*
X129749983Y-48582461D02*
X129749983Y-47152500D01*
X129749983Y-52452500D02*
X129749983Y-50522540D01*
D14*
%TO.C,R2*%
X117667500Y-63442742D02*
X117667500Y-63917258D01*
X118712500Y-63442742D02*
X118712500Y-63917258D01*
%TO.C,C3*%
X136930580Y-52960000D02*
X136649420Y-52960000D01*
X136930580Y-53980000D02*
X136649420Y-53980000D01*
%TO.C,X3*%
X132940000Y-57970000D02*
X132940000Y-70890000D01*
X132940000Y-60150000D02*
X133540000Y-60150000D01*
X132940000Y-62690000D02*
X133540000Y-62690000D01*
X132940000Y-65230000D02*
X133540000Y-65230000D01*
X132940000Y-67770000D02*
X133540000Y-67770000D01*
X132940000Y-70310000D02*
X133540000Y-70310000D01*
X132940000Y-70890000D02*
X138960000Y-70890000D01*
X133540000Y-58550000D02*
X132940000Y-58550000D01*
X133540000Y-60150000D02*
X133540000Y-58550000D01*
X133540000Y-61090000D02*
X132940000Y-61090000D01*
X133540000Y-62690000D02*
X133540000Y-61090000D01*
X133540000Y-63630000D02*
X132940000Y-63630000D01*
X133540000Y-65230000D02*
X133540000Y-63630000D01*
X133540000Y-66170000D02*
X132940000Y-66170000D01*
X133540000Y-67770000D02*
X133540000Y-66170000D01*
X133540000Y-68710000D02*
X132940000Y-68710000D01*
X133540000Y-70310000D02*
X133540000Y-68710000D01*
X133970000Y-71180000D02*
X137970000Y-71180000D01*
X137430000Y-59600000D02*
X137960000Y-59350000D01*
X137430000Y-69260000D02*
X137430000Y-59600000D01*
X137960000Y-59350000D02*
X138960000Y-59350000D01*
X137960000Y-69510000D02*
X137430000Y-69260000D01*
X137960000Y-69510000D02*
X137960000Y-59350000D01*
X138960000Y-57970000D02*
X132940000Y-57970000D01*
X138960000Y-59600000D02*
X137960000Y-59600000D01*
X138960000Y-69260000D02*
X137960000Y-69260000D01*
X138960000Y-69510000D02*
X137960000Y-69510000D01*
X138960000Y-70890000D02*
X138960000Y-57970000D01*
D12*
%TO.C,X1*%
X114000000Y-71022500D02*
X114000000Y-73072500D01*
X114000000Y-75872500D02*
X114000000Y-77072500D01*
X114000000Y-77072500D02*
X129000000Y-77072500D01*
X116750000Y-68572500D02*
X115250000Y-68572500D01*
X127750000Y-68572500D02*
X126750000Y-68572500D01*
X129000000Y-71022500D02*
X129000000Y-73072500D01*
X129000000Y-77072500D02*
X129000000Y-75872500D01*
D13*
X126400000Y-67172500D02*
G75*
G02*
X126200000Y-67172500I-100000J0D01*
G01*
X126200000Y-67172500D02*
G75*
G02*
X126400000Y-67172500I100000J0D01*
G01*
D16*
%TO.C,LOGO1*%
G36*
X125598564Y-59738816D02*
G01*
X125652530Y-59767746D01*
X125692868Y-59812436D01*
X125713901Y-59862035D01*
X125715923Y-59886712D01*
X125715060Y-59928330D01*
X125711575Y-59980744D01*
X125706736Y-60029288D01*
X125699505Y-60180573D01*
X125713043Y-60331375D01*
X125747706Y-60482818D01*
X125803852Y-60636027D01*
X125881837Y-60792125D01*
X125982019Y-60952237D01*
X126014520Y-60998532D01*
X126069513Y-61069169D01*
X126139270Y-61149479D01*
X126219790Y-61235322D01*
X126307073Y-61322556D01*
X126397117Y-61407038D01*
X126476147Y-61476397D01*
X126599159Y-61585518D01*
X126701702Y-61687988D01*
X126784967Y-61785756D01*
X126850143Y-61880771D01*
X126898420Y-61974981D01*
X126930988Y-62070335D01*
X126949036Y-62168783D01*
X126953853Y-62258798D01*
X126951601Y-62324370D01*
X126943689Y-62377999D01*
X126928385Y-62430713D01*
X126925624Y-62438453D01*
X126875088Y-62544433D01*
X126805851Y-62638508D01*
X126720335Y-62718623D01*
X126620959Y-62782719D01*
X126510143Y-62828741D01*
X126447019Y-62845224D01*
X126383703Y-62854379D01*
X126304327Y-62859602D01*
X126215800Y-62860895D01*
X126125028Y-62858263D01*
X126038920Y-62851711D01*
X125985956Y-62844925D01*
X125789321Y-62804158D01*
X125597480Y-62744664D01*
X125412214Y-62667847D01*
X125235308Y-62575110D01*
X125068543Y-62467856D01*
X124913702Y-62347490D01*
X124772570Y-62215415D01*
X124646928Y-62073034D01*
X124538560Y-61921750D01*
X124449248Y-61762968D01*
X124380776Y-61598091D01*
X124373205Y-61575377D01*
X124331574Y-61409365D01*
X124311981Y-61238834D01*
X124312060Y-61232611D01*
X124440961Y-61232611D01*
X124449651Y-61319710D01*
X124484734Y-61488008D01*
X124542146Y-61651120D01*
X124621331Y-61808240D01*
X124721732Y-61958557D01*
X124842790Y-62101265D01*
X124983948Y-62235555D01*
X125144648Y-62360620D01*
X125189031Y-62391169D01*
X125331944Y-62478330D01*
X125483037Y-62554295D01*
X125638993Y-62618140D01*
X125796494Y-62668944D01*
X125952224Y-62705784D01*
X126102866Y-62727736D01*
X126245104Y-62733880D01*
X126375620Y-62723293D01*
X126380450Y-62722524D01*
X126489615Y-62694916D01*
X126586230Y-62650621D01*
X126668665Y-62591500D01*
X126735287Y-62519414D01*
X126784466Y-62436223D01*
X126814569Y-62343788D01*
X126823967Y-62243969D01*
X126822880Y-62217933D01*
X126810972Y-62132257D01*
X126786422Y-62049340D01*
X126747892Y-61967212D01*
X126694046Y-61883901D01*
X126623547Y-61797435D01*
X126535060Y-61705845D01*
X126427246Y-61607158D01*
X126382936Y-61569083D01*
X126300523Y-61496569D01*
X126215596Y-61416989D01*
X126132666Y-61334888D01*
X126056241Y-61254814D01*
X125990833Y-61181313D01*
X125955683Y-61138348D01*
X125835242Y-60969562D01*
X125736889Y-60800227D01*
X125660805Y-60630897D01*
X125607167Y-60462121D01*
X125576154Y-60294452D01*
X125567945Y-60128441D01*
X125580409Y-59979502D01*
X125586925Y-59926254D01*
X125586244Y-59889484D01*
X125575694Y-59867626D01*
X125552599Y-59859113D01*
X125514286Y-59862379D01*
X125458081Y-59875859D01*
X125421249Y-59886282D01*
X125263233Y-59943341D01*
X125115218Y-60019043D01*
X124978463Y-60111529D01*
X124854228Y-60218940D01*
X124743772Y-60339418D01*
X124648356Y-60471104D01*
X124569240Y-60612140D01*
X124507682Y-60760667D01*
X124464943Y-60914827D01*
X124442283Y-61072761D01*
X124440961Y-61232611D01*
X124312060Y-61232611D01*
X124314179Y-61066081D01*
X124337922Y-60893401D01*
X124382964Y-60723093D01*
X124449059Y-60557452D01*
X124491138Y-60474886D01*
X124567746Y-60353057D01*
X124661317Y-60232948D01*
X124766620Y-60120285D01*
X124878426Y-60020793D01*
X124962710Y-59958722D01*
X125046023Y-59907373D01*
X125136215Y-59859266D01*
X125228939Y-59816149D01*
X125319849Y-59779772D01*
X125404599Y-59751883D01*
X125478844Y-59734230D01*
X125534841Y-59728532D01*
X125598564Y-59738816D01*
G37*
G36*
X124928515Y-58150086D02*
G01*
X125102246Y-58187786D01*
X125169220Y-58208470D01*
X125325221Y-58270366D01*
X125468749Y-58348308D01*
X125603230Y-58444515D01*
X125732088Y-58561208D01*
X125764009Y-58594036D01*
X125883991Y-58736646D01*
X125983361Y-58890120D01*
X126062155Y-59054523D01*
X126114826Y-59209438D01*
X126132379Y-59292758D01*
X126133472Y-59361060D01*
X126117636Y-59416277D01*
X126084402Y-59460341D01*
X126047216Y-59487561D01*
X126020901Y-59500127D01*
X125991247Y-59507232D01*
X125953495Y-59509074D01*
X125902890Y-59505851D01*
X125834671Y-59497761D01*
X125826907Y-59496720D01*
X125693602Y-59489812D01*
X125553154Y-59503426D01*
X125408011Y-59536846D01*
X125260620Y-59589356D01*
X125113427Y-59660239D01*
X124971197Y-59747201D01*
X124871252Y-59818916D01*
X124776345Y-59895379D01*
X124682937Y-59979914D01*
X124587484Y-60075848D01*
X124486447Y-60186505D01*
X124414047Y-60270321D01*
X124365833Y-60325547D01*
X124315302Y-60380681D01*
X124267587Y-60430294D01*
X124227816Y-60468959D01*
X124217752Y-60478004D01*
X124101184Y-60568270D01*
X123983174Y-60637060D01*
X123864750Y-60683998D01*
X123746943Y-60708707D01*
X123630782Y-60710813D01*
X123592431Y-60706400D01*
X123501662Y-60682447D01*
X123410757Y-60639642D01*
X123325246Y-60581736D01*
X123250657Y-60512480D01*
X123192517Y-60435627D01*
X123191890Y-60434587D01*
X123149226Y-60355701D01*
X123119536Y-60279794D01*
X123100647Y-60199220D01*
X123090391Y-60106334D01*
X123088740Y-60075305D01*
X123217589Y-60075305D01*
X123233793Y-60192498D01*
X123266879Y-60295453D01*
X123317197Y-60385435D01*
X123353103Y-60430711D01*
X123427258Y-60497219D01*
X123513004Y-60544784D01*
X123607170Y-60572494D01*
X123706584Y-60579438D01*
X123808075Y-60564703D01*
X123813808Y-60563205D01*
X123904298Y-60529936D01*
X123999635Y-60478219D01*
X124094885Y-60410756D01*
X124100883Y-60405949D01*
X124130190Y-60381929D01*
X124156020Y-60359543D01*
X124181025Y-60335972D01*
X124207859Y-60308393D01*
X124239173Y-60273986D01*
X124277621Y-60229930D01*
X124325853Y-60173403D01*
X124381790Y-60107202D01*
X124521919Y-59953177D01*
X124668670Y-59814997D01*
X124820514Y-59693470D01*
X124975923Y-59589407D01*
X125133367Y-59503618D01*
X125291318Y-59436913D01*
X125448247Y-59390103D01*
X125602624Y-59363997D01*
X125752922Y-59359407D01*
X125788716Y-59361637D01*
X125868718Y-59367987D01*
X125927900Y-59371077D01*
X125968689Y-59369206D01*
X125993516Y-59360678D01*
X126004809Y-59343793D01*
X126004998Y-59316853D01*
X125996512Y-59278159D01*
X125981931Y-59226539D01*
X125923793Y-59065073D01*
X125845704Y-58913588D01*
X125749397Y-58773782D01*
X125636603Y-58647354D01*
X125509056Y-58536005D01*
X125368488Y-58441433D01*
X125216631Y-58365337D01*
X125055218Y-58309417D01*
X125043748Y-58306340D01*
X124881375Y-58274716D01*
X124720955Y-58266040D01*
X124561794Y-58280391D01*
X124403199Y-58317845D01*
X124244474Y-58378479D01*
X124198303Y-58400419D01*
X124103586Y-58450399D01*
X124020551Y-58501576D01*
X123943048Y-58558470D01*
X123864924Y-58625600D01*
X123780028Y-58707489D01*
X123778853Y-58708670D01*
X123644633Y-58859329D01*
X123526288Y-59024340D01*
X123425074Y-59200947D01*
X123342242Y-59386393D01*
X123279047Y-59577921D01*
X123236740Y-59772775D01*
X123217916Y-59942609D01*
X123217589Y-60075305D01*
X123088740Y-60075305D01*
X123088466Y-60070152D01*
X123091624Y-59885766D01*
X123115576Y-59700258D01*
X123158998Y-59515735D01*
X123220564Y-59334305D01*
X123298950Y-59158076D01*
X123392831Y-58989155D01*
X123500882Y-58829651D01*
X123621777Y-58681671D01*
X123754191Y-58547323D01*
X123896801Y-58428714D01*
X124048280Y-58327953D01*
X124207303Y-58247146D01*
X124244050Y-58231906D01*
X124413227Y-58176568D01*
X124583820Y-58144482D01*
X124755645Y-58135653D01*
X124928515Y-58150086D01*
G37*
G36*
X128619290Y-58967798D02*
G01*
X128723178Y-59005539D01*
X128818688Y-59062711D01*
X128903739Y-59138628D01*
X128976251Y-59232608D01*
X129017242Y-59306287D01*
X129046050Y-59374430D01*
X129066154Y-59443669D01*
X129078403Y-59519341D01*
X129083646Y-59606784D01*
X129082731Y-59711332D01*
X129082546Y-59716881D01*
X129063782Y-59926917D01*
X129021962Y-60133634D01*
X128957083Y-60337043D01*
X128869140Y-60537154D01*
X128758131Y-60733980D01*
X128718832Y-60794633D01*
X128593992Y-60963904D01*
X128458320Y-61114761D01*
X128312828Y-61246481D01*
X128158527Y-61358336D01*
X127996427Y-61449601D01*
X127827539Y-61519550D01*
X127652874Y-61567458D01*
X127637959Y-61570459D01*
X127530889Y-61585467D01*
X127413086Y-61591914D01*
X127293597Y-61589826D01*
X127181468Y-61579225D01*
X127122798Y-61569066D01*
X126944336Y-61519804D01*
X126773721Y-61449314D01*
X126612999Y-61358937D01*
X126464220Y-61250018D01*
X126329430Y-61123896D01*
X126210677Y-60981914D01*
X126196094Y-60961756D01*
X126149135Y-60889252D01*
X126103247Y-60806637D01*
X126060263Y-60718374D01*
X126022013Y-60628923D01*
X125990331Y-60542746D01*
X125967048Y-60464304D01*
X125953996Y-60398058D01*
X125951835Y-60366902D01*
X125952327Y-60363822D01*
X126084471Y-60363822D01*
X126089627Y-60409247D01*
X126106103Y-60472875D01*
X126114725Y-60500957D01*
X126179768Y-60669779D01*
X126263837Y-60825694D01*
X126365899Y-60967655D01*
X126484922Y-61094617D01*
X126619874Y-61205535D01*
X126769721Y-61299361D01*
X126933432Y-61375050D01*
X127001936Y-61399802D01*
X127164029Y-61442400D01*
X127327062Y-61462503D01*
X127489052Y-61459947D01*
X127584939Y-61447467D01*
X127751870Y-61406655D01*
X127913470Y-61343869D01*
X128068607Y-61260059D01*
X128216149Y-61156171D01*
X128354962Y-61033155D01*
X128483914Y-60891958D01*
X128601873Y-60733529D01*
X128707706Y-60558815D01*
X128754381Y-60468394D01*
X128824755Y-60312607D01*
X128878181Y-60166131D01*
X128915950Y-60023781D01*
X128939356Y-59880369D01*
X128949693Y-59730708D01*
X128950447Y-59681926D01*
X128950358Y-59609935D01*
X128949093Y-59556073D01*
X128946127Y-59515178D01*
X128940937Y-59482085D01*
X128932998Y-59451633D01*
X128924501Y-59426225D01*
X128877308Y-59322295D01*
X128815365Y-59236043D01*
X128737656Y-59166322D01*
X128648315Y-59114358D01*
X128611492Y-59098582D01*
X128578515Y-59088955D01*
X128541356Y-59084047D01*
X128491989Y-59082433D01*
X128468532Y-59082385D01*
X128409529Y-59083689D01*
X128365092Y-59088237D01*
X128326555Y-59097476D01*
X128285250Y-59112854D01*
X128284688Y-59113087D01*
X128199305Y-59153511D01*
X128118362Y-59202717D01*
X128038778Y-59263238D01*
X127957475Y-59337605D01*
X127871371Y-59428349D01*
X127798237Y-59512915D01*
X127635221Y-59694855D01*
X127469571Y-59854647D01*
X127301565Y-59992102D01*
X127131482Y-60107034D01*
X126959601Y-60199255D01*
X126786200Y-60268578D01*
X126611559Y-60314817D01*
X126601071Y-60316848D01*
X126534771Y-60326067D01*
X126456217Y-60331806D01*
X126373192Y-60333952D01*
X126293481Y-60332395D01*
X126224867Y-60327022D01*
X126195961Y-60322647D01*
X126146381Y-60316012D01*
X126111903Y-60319280D01*
X126091582Y-60334524D01*
X126084471Y-60363822D01*
X125952327Y-60363822D01*
X125962077Y-60302783D01*
X125992649Y-60250033D01*
X126041854Y-60209904D01*
X126093887Y-60179411D01*
X126225897Y-60194616D01*
X126295901Y-60200789D01*
X126368581Y-60204047D01*
X126433369Y-60204010D01*
X126456079Y-60202893D01*
X126606800Y-60181184D01*
X126760715Y-60137697D01*
X126916141Y-60073442D01*
X127071396Y-59989428D01*
X127224796Y-59886664D01*
X127374658Y-59766159D01*
X127519299Y-59628923D01*
X127645356Y-59489885D01*
X127734096Y-59386670D01*
X127812131Y-59300305D01*
X127882026Y-59228482D01*
X127946341Y-59168893D01*
X128007639Y-59119230D01*
X128068481Y-59077185D01*
X128131429Y-59040449D01*
X128161550Y-59024822D01*
X128278153Y-58977999D01*
X128394698Y-58953344D01*
X128509103Y-58950172D01*
X128619290Y-58967798D01*
G37*
G36*
X125940184Y-56903731D02*
G01*
X126019435Y-56904388D01*
X126081569Y-56906174D01*
X126132765Y-56909686D01*
X126179201Y-56915518D01*
X126227056Y-56924266D01*
X126282509Y-56936526D01*
X126283899Y-56936848D01*
X126497081Y-56997939D01*
X126700612Y-57079706D01*
X126893182Y-57181419D01*
X127073480Y-57302352D01*
X127240195Y-57441776D01*
X127303395Y-57503179D01*
X127434370Y-57650721D01*
X127543602Y-57805502D01*
X127630871Y-57967120D01*
X127695957Y-58135174D01*
X127736111Y-58295413D01*
X127744525Y-58361484D01*
X127748826Y-58442725D01*
X127749130Y-58531388D01*
X127745555Y-58619726D01*
X127738216Y-58699994D01*
X127729200Y-58755642D01*
X127679856Y-58933740D01*
X127610042Y-59101475D01*
X127520744Y-59257542D01*
X127412947Y-59400641D01*
X127287635Y-59529468D01*
X127145795Y-59642719D01*
X126988411Y-59739093D01*
X126983766Y-59741549D01*
X126900680Y-59781737D01*
X126816621Y-59815965D01*
X126735340Y-59843211D01*
X126660587Y-59862452D01*
X126596110Y-59872664D01*
X126545661Y-59872826D01*
X126522752Y-59867300D01*
X126477357Y-59838624D01*
X126438687Y-59796321D01*
X126416831Y-59754450D01*
X126410807Y-59726214D01*
X126409824Y-59689443D01*
X126413933Y-59638535D01*
X126418211Y-59603764D01*
X126427067Y-59448600D01*
X126412746Y-59292719D01*
X126375353Y-59136319D01*
X126314996Y-58979600D01*
X126231782Y-58822761D01*
X126125819Y-58666002D01*
X125997212Y-58509522D01*
X125846068Y-58353520D01*
X125672496Y-58198196D01*
X125657396Y-58185599D01*
X125545200Y-58085818D01*
X125452518Y-57988352D01*
X125376275Y-57889804D01*
X125343174Y-57838765D01*
X125285392Y-57724490D01*
X125250097Y-57610138D01*
X125236618Y-57497581D01*
X125237458Y-57485642D01*
X125375503Y-57485642D01*
X125376983Y-57548385D01*
X125381679Y-57595788D01*
X125390750Y-57635721D01*
X125402493Y-57668983D01*
X125433047Y-57735146D01*
X125472585Y-57800844D01*
X125523018Y-57868283D01*
X125586260Y-57939669D01*
X125664223Y-58017210D01*
X125758818Y-58103111D01*
X125836824Y-58170130D01*
X125990757Y-58310871D01*
X126128897Y-58459440D01*
X126250030Y-58613968D01*
X126352941Y-58772585D01*
X126436414Y-58933422D01*
X126499235Y-59094610D01*
X126539640Y-59251370D01*
X126550688Y-59332364D01*
X126556378Y-59424717D01*
X126556544Y-59518697D01*
X126551022Y-59604576D01*
X126546265Y-59640286D01*
X126541587Y-59685816D01*
X126546298Y-59717173D01*
X126562543Y-59735105D01*
X126592464Y-59740358D01*
X126638207Y-59733680D01*
X126701916Y-59715816D01*
X126733521Y-59705502D01*
X126893035Y-59640250D01*
X127040627Y-59556139D01*
X127174869Y-59454790D01*
X127294332Y-59337828D01*
X127397588Y-59206876D01*
X127483208Y-59063558D01*
X127549764Y-58909498D01*
X127595828Y-58746319D01*
X127601252Y-58719201D01*
X127613382Y-58623972D01*
X127617185Y-58517581D01*
X127613006Y-58408125D01*
X127601192Y-58303703D01*
X127582087Y-58212415D01*
X127579166Y-58202202D01*
X127541347Y-58090439D01*
X127495717Y-57987405D01*
X127438047Y-57884200D01*
X127399261Y-57823532D01*
X127333688Y-57734867D01*
X127252727Y-57641458D01*
X127161878Y-57548884D01*
X127066643Y-57462726D01*
X126972523Y-57388565D01*
X126965505Y-57383529D01*
X126888928Y-57333361D01*
X126797667Y-57280516D01*
X126698365Y-57228326D01*
X126597670Y-57180126D01*
X126502224Y-57139251D01*
X126418673Y-57109032D01*
X126417890Y-57108786D01*
X126285583Y-57072736D01*
X126152124Y-57046715D01*
X126022631Y-57031315D01*
X125902220Y-57027130D01*
X125796007Y-57034752D01*
X125788716Y-57035823D01*
X125687480Y-57061323D01*
X125594610Y-57104337D01*
X125513599Y-57162432D01*
X125447941Y-57233175D01*
X125406595Y-57301901D01*
X125391615Y-57336647D01*
X125382296Y-57368046D01*
X125377376Y-57403547D01*
X125375596Y-57450602D01*
X125375503Y-57485642D01*
X125237458Y-57485642D01*
X125244279Y-57388689D01*
X125272408Y-57285331D01*
X125320332Y-57189378D01*
X125387377Y-57102701D01*
X125472869Y-57027168D01*
X125576137Y-56964651D01*
X125672202Y-56924887D01*
X125700333Y-56916590D01*
X125731236Y-56910672D01*
X125769298Y-56906786D01*
X125818902Y-56904587D01*
X125884437Y-56903727D01*
X125940184Y-56903731D01*
G37*
D14*
%TO.C,C1*%
X116684600Y-58967348D02*
X116684600Y-59489852D01*
X118154600Y-58967348D02*
X118154600Y-59489852D01*
%TO.C,X2*%
X106370000Y-64720000D02*
X106370000Y-70020000D01*
X106370000Y-66100000D02*
X107370000Y-66100000D01*
X106370000Y-66350000D02*
X107370000Y-66350000D01*
X106370000Y-68390000D02*
X107370000Y-68390000D01*
X106370000Y-70020000D02*
X112390000Y-70020000D01*
X107370000Y-66100000D02*
X107370000Y-68640000D01*
X107370000Y-66100000D02*
X107900000Y-66350000D01*
X107370000Y-68640000D02*
X106370000Y-68640000D01*
X107900000Y-66350000D02*
X107900000Y-68390000D01*
X107900000Y-68390000D02*
X107370000Y-68640000D01*
X111360000Y-64430000D02*
X107360000Y-64430000D01*
X111790000Y-65300000D02*
X111790000Y-66900000D01*
X111790000Y-66900000D02*
X112390000Y-66900000D01*
X111790000Y-67840000D02*
X111790000Y-69440000D01*
X111790000Y-69440000D02*
X112390000Y-69440000D01*
X112390000Y-64720000D02*
X106370000Y-64720000D01*
X112390000Y-65300000D02*
X111790000Y-65300000D01*
X112390000Y-67840000D02*
X111790000Y-67840000D01*
X112390000Y-70020000D02*
X112390000Y-64720000D01*
D12*
%TO.C,JP1*%
X106512500Y-61680000D02*
X112512500Y-61680000D01*
X106512500Y-63680000D02*
X106512500Y-61680000D01*
X112512500Y-61680000D02*
X112512500Y-63680000D01*
X112512500Y-63680000D02*
X106512500Y-63680000D01*
D13*
X113112500Y-62680000D02*
G75*
G02*
X112912500Y-62680000I-100000J0D01*
G01*
X112912500Y-62680000D02*
G75*
G02*
X113112500Y-62680000I100000J0D01*
G01*
D14*
%TO.C,JP3*%
X119913000Y-56641580D02*
X119913000Y-56360420D01*
X120933000Y-56641580D02*
X120933000Y-56360420D01*
D15*
X119785000Y-57917000D02*
X121055000Y-57917000D01*
X121055000Y-55123000D01*
X119785000Y-55123000D01*
X119785000Y-57917000D01*
D14*
%TO.C,R1*%
X116717258Y-66087500D02*
X116242742Y-66087500D01*
X116717258Y-67132500D02*
X116242742Y-67132500D01*
%TO.C,C2*%
X116684600Y-56089852D02*
X116684600Y-55567348D01*
X118154600Y-56089852D02*
X118154600Y-55567348D01*
%TD*%
M02*
