M48
; DRILL file {KiCad 9.0.5-9.0.5~ubuntu24.04.1} date 2025-10-13T11:44:11+0200
; FORMAT={-:-/ absolute / inch / decimal}
; #@! TF.CreationDate,2025-10-13T11:44:11+02:00
; #@! TF.GenerationSoftware,Kicad,Pcbnew,9.0.5-9.0.5~ubuntu24.04.1
; #@! TF.FileFunction,NonPlated,1,4,NPTH
FMAT,2
INCH
; #@! TA.AperFunction,NonPlated,NPTH,ComponentDrill
T1C0.0256
; #@! TA.AperFunction,NonPlated,NPTH,ComponentDrill
T2C0.0390
; #@! TA.AperFunction,NonPlated,NPTH,ComponentDrill
T3C0.0394
; #@! TA.AperFunction,NonPlated,NPTH,ComponentDrill
T4C0.0453
; #@! TA.AperFunction,NonPlated,NPTH,ComponentDrill
T5C0.0650
; #@! TA.AperFunction,NonPlated,NPTH,ComponentDrill
T6C0.0669
; #@! TA.AperFunction,NonPlated,NPTH,ComponentDrill
T7C0.0709
; #@! TA.AperFunction,NonPlated,NPTH,ComponentDrill
T8C0.0925
; #@! TA.AperFunction,NonPlated,NPTH,ComponentDrill
T9C0.0940
; #@! TA.AperFunction,NonPlated,NPTH,ComponentDrill
T10C0.1063
; #@! TA.AperFunction,NonPlated,NPTH,ComponentDrill
T11C0.1417
%
G90
G05
T1
X14.189Y-6.7465
X14.4724Y-6.7465
T2
X16.5183Y-3.8728
X16.5583Y-3.6728
X16.5983Y-3.8728
T3
X11.9488Y-6.8799
X12.1457Y-6.8799
T4
X12.4606Y-3.622
T5
X13.248Y-3.622
T6
X14.4213Y-0.3031
T7
X14.4213Y-0.4803
T8
X16.9848Y-3.2953
X16.9848Y-4.2067
X18.3825Y-3.2953
X18.3825Y-4.2067
T9
X16.4583Y-3.6728
X16.4583Y-3.7978
X16.6583Y-3.6728
X16.6583Y-3.7978
T10
X13.5039Y-3.5138
X13.5039Y-5.4035
X14.8031Y-3.5138
X14.8031Y-5.4035
T11
X12.0236Y-0.4488
X13.5984Y-0.4488
M30
