%TF.GenerationSoftware,KiCad,Pcbnew,9.0.6-9.0.6~ubuntu24.04.1*%
%TF.CreationDate,2025-11-25T19:54:41+01:00*%
%TF.ProjectId,BB3plus DVID adapter,42423370-6c75-4732-9044-564944206164,rev?*%
%TF.SameCoordinates,Original*%
%TF.FileFunction,Copper,L2,Inr*%
%TF.FilePolarity,Positive*%
%FSLAX46Y46*%
G04 Gerber Fmt 4.6, Leading zero omitted, Abs format (unit mm)*
G04 Created by KiCad (PCBNEW 9.0.6-9.0.6~ubuntu24.04.1) date 2025-11-25 19:54:41*
%MOMM*%
%LPD*%
G01*
G04 APERTURE LIST*
G04 Aperture macros list*
%AMRoundRect*
0 Rectangle with rounded corners*
0 $1 Rounding radius*
0 $2 $3 $4 $5 $6 $7 $8 $9 X,Y pos of 4 corners*
0 Add a 4 corners polygon primitive as box body*
4,1,4,$2,$3,$4,$5,$6,$7,$8,$9,$2,$3,0*
0 Add four circle primitives for the rounded corners*
1,1,$1+$1,$2,$3*
1,1,$1+$1,$4,$5*
1,1,$1+$1,$6,$7*
1,1,$1+$1,$8,$9*
0 Add four rect primitives between the rounded corners*
20,1,$1+$1,$2,$3,$4,$5,0*
20,1,$1+$1,$4,$5,$6,$7,0*
20,1,$1+$1,$6,$7,$8,$9,0*
20,1,$1+$1,$8,$9,$2,$3,0*%
G04 Aperture macros list end*
%TA.AperFunction,ComponentPad*%
%ADD10R,1.358000X1.358000*%
%TD*%
%TA.AperFunction,ComponentPad*%
%ADD11C,1.358000*%
%TD*%
%TA.AperFunction,ComponentPad*%
%ADD12C,5.500000*%
%TD*%
%TA.AperFunction,ComponentPad*%
%ADD13RoundRect,0.250000X0.845000X-0.620000X0.845000X0.620000X-0.845000X0.620000X-0.845000X-0.620000X0*%
%TD*%
%TA.AperFunction,ComponentPad*%
%ADD14O,2.190000X1.740000*%
%TD*%
%TA.AperFunction,ComponentPad*%
%ADD15C,1.995000*%
%TD*%
%TA.AperFunction,ComponentPad*%
%ADD16RoundRect,0.250000X-0.845000X0.620000X-0.845000X-0.620000X0.845000X-0.620000X0.845000X0.620000X0*%
%TD*%
%TA.AperFunction,ViaPad*%
%ADD17C,0.500000*%
%TD*%
G04 APERTURE END LIST*
D10*
%TO.N,+3V3*%
%TO.C,JP2*%
X131900000Y-47940000D03*
D11*
%TO.N,Net-(X4-GPIO0{slash}BL_PWM)*%
X131900000Y-49940000D03*
%TO.N,Net-(X3-Pin_1)*%
X131900000Y-51940000D03*
%TD*%
D12*
%TO.N,unconnected-(H3-Pad1)*%
%TO.C,H3*%
X136500000Y-74500000D03*
%TD*%
%TO.N,unconnected-(H2-Pad1)*%
%TO.C,H2*%
X136500000Y-49500000D03*
%TD*%
%TO.N,unconnected-(H1-Pad1)*%
%TO.C,H1*%
X109000000Y-49500000D03*
%TD*%
D13*
%TO.N,Net-(X3-Pin_1)*%
%TO.C,X3*%
X135970000Y-69510000D03*
D14*
%TO.N,GND*%
X135970000Y-66970000D03*
%TO.N,Net-(X3-Pin_3)*%
X135970000Y-64430000D03*
%TO.N,Net-(IC2-SCL)*%
X135970000Y-61890000D03*
%TO.N,Net-(IC2-SDA)*%
X135970000Y-59350000D03*
%TD*%
D15*
%TO.N,GND*%
%TO.C,X1*%
X113650000Y-74472500D03*
X114250000Y-69572500D03*
X128750000Y-69572500D03*
X129350000Y-74472500D03*
%TD*%
D12*
%TO.N,unconnected-(H4-Pad1)*%
%TO.C,H4*%
X109000000Y-74500000D03*
%TD*%
D16*
%TO.N,Net-(X2-Pin_1)*%
%TO.C,X2*%
X109360000Y-66100000D03*
D14*
%TO.N,GND*%
X109360000Y-68640000D03*
%TD*%
D10*
%TO.N,Net-(X1-+5V)*%
%TO.C,JP1*%
X111512500Y-62680000D03*
D11*
%TO.N,+5V*%
X109512500Y-62680000D03*
%TO.N,Net-(X2-Pin_1)*%
X107512500Y-62680000D03*
%TD*%
D17*
%TO.N,+5V*%
X138400000Y-53690000D03*
X118800000Y-60200000D03*
%TO.N,GND*%
X112170000Y-56460000D03*
X107520000Y-55700000D03*
X117750000Y-51510000D03*
X118250000Y-69850000D03*
X111400000Y-56440000D03*
X113950000Y-50380000D03*
X107520000Y-57920000D03*
X122460000Y-60020000D03*
X121250000Y-69850000D03*
X107520000Y-56440000D03*
X138350000Y-55560000D03*
X112960000Y-59420000D03*
X112170000Y-57200000D03*
X126750000Y-53000000D03*
X112960000Y-57940000D03*
X124250000Y-69860000D03*
X119250000Y-53000000D03*
X111400000Y-57920000D03*
X120750000Y-53000000D03*
X129420000Y-63210000D03*
X127020000Y-57670000D03*
X129050000Y-50380000D03*
X122220000Y-75430000D03*
X111400000Y-58660000D03*
X106750000Y-57170000D03*
X106750000Y-56430000D03*
X131370000Y-69580000D03*
X124050000Y-57810000D03*
X107520000Y-58660000D03*
X133240000Y-74060000D03*
X112960000Y-56460000D03*
X112960000Y-55720000D03*
X122750000Y-69850000D03*
X106750000Y-59390000D03*
X123750000Y-53000000D03*
X106750000Y-58650000D03*
X112170000Y-58680000D03*
X111400000Y-59400000D03*
X125250000Y-53000000D03*
X111400000Y-55700000D03*
X112170000Y-57940000D03*
X136010000Y-54060000D03*
X106750000Y-55690000D03*
X111400000Y-57180000D03*
X112960000Y-57200000D03*
X112960000Y-58680000D03*
X107520000Y-59400000D03*
X130690000Y-56870000D03*
X107520000Y-57180000D03*
X106750000Y-57910000D03*
X112170000Y-59420000D03*
X112170000Y-55720000D03*
X122250000Y-53000000D03*
X125750000Y-69850000D03*
X122020000Y-70690000D03*
%TO.N,Net-(IC2-SDA)*%
X119910000Y-59370000D03*
%TO.N,Net-(IC2-SCL)*%
X120980000Y-61840000D03*
%TO.N,Net-(X3-Pin_3)*%
X128280000Y-50690000D03*
X134450000Y-53260000D03*
%TD*%
%TA.AperFunction,Conductor*%
%TO.N,GND*%
G36*
X138504914Y-46200984D02*
G01*
X138646116Y-46214891D01*
X138665458Y-46218739D01*
X138730965Y-46238610D01*
X138796475Y-46258482D01*
X138814688Y-46266026D01*
X138916097Y-46320230D01*
X138935439Y-46330569D01*
X138951836Y-46341525D01*
X139057672Y-46428382D01*
X139071617Y-46442327D01*
X139158474Y-46548163D01*
X139169430Y-46564560D01*
X139233971Y-46685306D01*
X139241518Y-46703527D01*
X139281260Y-46834541D01*
X139285108Y-46853882D01*
X139299016Y-46995084D01*
X139299500Y-47004945D01*
X139299500Y-48064878D01*
X139280287Y-48124009D01*
X139229987Y-48160554D01*
X139167813Y-48160554D01*
X139117513Y-48124009D01*
X139108263Y-48108527D01*
X139089226Y-48068997D01*
X139089222Y-48068990D01*
X139089221Y-48068988D01*
X138912718Y-47788085D01*
X138705873Y-47528711D01*
X138471289Y-47294127D01*
X138211915Y-47087282D01*
X138211914Y-47087281D01*
X138065184Y-46995085D01*
X137931012Y-46910779D01*
X137632113Y-46766837D01*
X137318977Y-46657266D01*
X137318976Y-46657265D01*
X137318974Y-46657265D01*
X136995552Y-46583447D01*
X136995550Y-46583446D01*
X136995543Y-46583445D01*
X136995536Y-46583444D01*
X136995535Y-46583444D01*
X136665876Y-46546300D01*
X136334124Y-46546300D01*
X136004464Y-46583444D01*
X136004460Y-46583444D01*
X136004457Y-46583445D01*
X136004452Y-46583446D01*
X136004447Y-46583447D01*
X135681025Y-46657265D01*
X135524455Y-46712051D01*
X135367887Y-46766837D01*
X135367885Y-46766838D01*
X135068990Y-46910778D01*
X134788085Y-47087281D01*
X134788081Y-47087284D01*
X134528715Y-47294123D01*
X134528707Y-47294130D01*
X134294130Y-47528707D01*
X134294123Y-47528715D01*
X134087284Y-47788081D01*
X134087281Y-47788085D01*
X133946829Y-48011613D01*
X133913362Y-48064878D01*
X133910778Y-48068990D01*
X133766838Y-48367885D01*
X133657265Y-48681025D01*
X133583447Y-49004447D01*
X133583444Y-49004464D01*
X133546300Y-49334124D01*
X133546300Y-49665875D01*
X133583444Y-49995535D01*
X133583447Y-49995552D01*
X133645452Y-50267219D01*
X133657266Y-50318977D01*
X133766837Y-50632113D01*
X133910779Y-50931012D01*
X133990131Y-51057300D01*
X134087281Y-51211914D01*
X134087284Y-51211918D01*
X134121133Y-51254363D01*
X134294127Y-51471289D01*
X134528711Y-51705873D01*
X134788085Y-51912718D01*
X135068988Y-52089221D01*
X135367887Y-52233163D01*
X135681023Y-52342734D01*
X136004457Y-52416555D01*
X136334124Y-52453700D01*
X136665876Y-52453700D01*
X136995543Y-52416555D01*
X137318977Y-52342734D01*
X137632113Y-52233163D01*
X137931012Y-52089221D01*
X138211915Y-51912718D01*
X138471289Y-51705873D01*
X138705873Y-51471289D01*
X138912718Y-51211915D01*
X139089221Y-50931012D01*
X139108262Y-50891471D01*
X139151229Y-50846533D01*
X139212404Y-50835431D01*
X139268421Y-50862408D01*
X139297883Y-50917158D01*
X139299500Y-50935121D01*
X139299500Y-73064878D01*
X139280287Y-73124009D01*
X139229987Y-73160554D01*
X139167813Y-73160554D01*
X139117513Y-73124009D01*
X139108263Y-73108527D01*
X139089226Y-73068997D01*
X139089222Y-73068990D01*
X139089221Y-73068988D01*
X138912718Y-72788085D01*
X138705873Y-72528711D01*
X138471289Y-72294127D01*
X138211915Y-72087282D01*
X138211914Y-72087281D01*
X138128837Y-72035081D01*
X137931012Y-71910779D01*
X137632113Y-71766837D01*
X137318977Y-71657266D01*
X137318976Y-71657265D01*
X137318974Y-71657265D01*
X136995552Y-71583447D01*
X136995550Y-71583446D01*
X136995543Y-71583445D01*
X136995536Y-71583444D01*
X136995535Y-71583444D01*
X136665876Y-71546300D01*
X136334124Y-71546300D01*
X136004464Y-71583444D01*
X136004460Y-71583444D01*
X136004457Y-71583445D01*
X136004452Y-71583446D01*
X136004447Y-71583447D01*
X135681025Y-71657265D01*
X135524455Y-71712051D01*
X135367887Y-71766837D01*
X135367885Y-71766838D01*
X135068990Y-71910778D01*
X134788085Y-72087281D01*
X134788081Y-72087284D01*
X134528715Y-72294123D01*
X134528707Y-72294130D01*
X134294130Y-72528707D01*
X134294123Y-72528715D01*
X134087284Y-72788081D01*
X134087281Y-72788085D01*
X133946829Y-73011613D01*
X133913362Y-73064878D01*
X133910778Y-73068990D01*
X133766838Y-73367885D01*
X133657265Y-73681025D01*
X133583447Y-74004447D01*
X133583444Y-74004464D01*
X133546300Y-74334124D01*
X133546300Y-74665875D01*
X133583444Y-74995535D01*
X133583447Y-74995552D01*
X133654280Y-75305897D01*
X133657266Y-75318977D01*
X133766837Y-75632113D01*
X133910779Y-75931012D01*
X134087282Y-76211915D01*
X134294127Y-76471289D01*
X134528711Y-76705873D01*
X134788085Y-76912718D01*
X135068988Y-77089221D01*
X135367887Y-77233163D01*
X135681023Y-77342734D01*
X136004457Y-77416555D01*
X136334124Y-77453700D01*
X136665876Y-77453700D01*
X136995543Y-77416555D01*
X137318977Y-77342734D01*
X137632113Y-77233163D01*
X137931012Y-77089221D01*
X138211915Y-76912718D01*
X138471289Y-76705873D01*
X138705873Y-76471289D01*
X138912718Y-76211915D01*
X139089221Y-75931012D01*
X139108262Y-75891471D01*
X139151229Y-75846533D01*
X139212404Y-75835431D01*
X139268421Y-75862408D01*
X139297883Y-75917158D01*
X139299500Y-75935121D01*
X139299500Y-76995054D01*
X139299016Y-77004914D01*
X139299016Y-77004915D01*
X139285108Y-77146117D01*
X139281260Y-77165458D01*
X139241518Y-77296472D01*
X139233971Y-77314693D01*
X139169430Y-77435439D01*
X139158474Y-77451836D01*
X139071617Y-77557672D01*
X139057672Y-77571617D01*
X138951836Y-77658474D01*
X138935439Y-77669430D01*
X138814693Y-77733971D01*
X138796472Y-77741518D01*
X138665458Y-77781260D01*
X138646117Y-77785108D01*
X138516134Y-77797910D01*
X138504913Y-77799016D01*
X138495054Y-77799500D01*
X107004946Y-77799500D01*
X106995086Y-77799016D01*
X106982632Y-77797789D01*
X106853882Y-77785108D01*
X106834541Y-77781260D01*
X106703527Y-77741518D01*
X106685306Y-77733971D01*
X106564560Y-77669430D01*
X106548163Y-77658474D01*
X106442327Y-77571617D01*
X106428382Y-77557672D01*
X106341525Y-77451836D01*
X106330569Y-77435439D01*
X106320230Y-77416097D01*
X106266026Y-77314688D01*
X106258481Y-77296472D01*
X106253823Y-77281118D01*
X106218739Y-77165458D01*
X106214891Y-77146116D01*
X106200984Y-77004914D01*
X106200500Y-76995054D01*
X106200500Y-75935121D01*
X106219713Y-75875990D01*
X106270013Y-75839445D01*
X106332187Y-75839445D01*
X106382487Y-75875990D01*
X106391735Y-75891468D01*
X106410779Y-75931012D01*
X106587282Y-76211915D01*
X106794127Y-76471289D01*
X107028711Y-76705873D01*
X107288085Y-76912718D01*
X107568988Y-77089221D01*
X107867887Y-77233163D01*
X108181023Y-77342734D01*
X108504457Y-77416555D01*
X108834124Y-77453700D01*
X109165876Y-77453700D01*
X109495543Y-77416555D01*
X109818977Y-77342734D01*
X110132113Y-77233163D01*
X110431012Y-77089221D01*
X110711915Y-76912718D01*
X110971289Y-76705873D01*
X111205873Y-76471289D01*
X111412718Y-76211915D01*
X111589221Y-75931012D01*
X111733163Y-75632113D01*
X111842734Y-75318977D01*
X111916555Y-74995543D01*
X111953700Y-74665876D01*
X111953700Y-74358008D01*
X112195300Y-74358008D01*
X112195300Y-74586991D01*
X112231119Y-74813138D01*
X112231122Y-74813152D01*
X112301877Y-75030913D01*
X112301878Y-75030915D01*
X112405821Y-75234916D01*
X112405831Y-75234931D01*
X112457391Y-75305897D01*
X113035819Y-74727468D01*
X113060684Y-74787496D01*
X113133461Y-74896413D01*
X113226087Y-74989039D01*
X113335004Y-75061816D01*
X113395029Y-75086679D01*
X112816601Y-75665107D01*
X112887575Y-75716674D01*
X113091584Y-75820621D01*
X113091586Y-75820622D01*
X113309347Y-75891377D01*
X113309361Y-75891380D01*
X113535508Y-75927199D01*
X113535510Y-75927200D01*
X113764490Y-75927200D01*
X113764491Y-75927199D01*
X113990638Y-75891380D01*
X113990652Y-75891377D01*
X114208413Y-75820622D01*
X114208415Y-75820621D01*
X114412424Y-75716674D01*
X114483397Y-75665108D01*
X113904969Y-75086679D01*
X113964996Y-75061816D01*
X114073913Y-74989039D01*
X114166539Y-74896413D01*
X114239316Y-74787496D01*
X114264179Y-74727468D01*
X114842608Y-75305897D01*
X114894174Y-75234924D01*
X114998121Y-75030915D01*
X114998122Y-75030913D01*
X115068877Y-74813152D01*
X115068880Y-74813138D01*
X115104699Y-74586991D01*
X115104700Y-74586990D01*
X115104700Y-74358009D01*
X115104699Y-74358008D01*
X127895300Y-74358008D01*
X127895300Y-74586991D01*
X127931119Y-74813138D01*
X127931122Y-74813152D01*
X128001877Y-75030913D01*
X128001878Y-75030915D01*
X128105821Y-75234916D01*
X128105831Y-75234931D01*
X128157391Y-75305897D01*
X128735819Y-74727468D01*
X128760684Y-74787496D01*
X128833461Y-74896413D01*
X128926087Y-74989039D01*
X129035004Y-75061816D01*
X129095029Y-75086679D01*
X128516601Y-75665107D01*
X128587575Y-75716674D01*
X128791584Y-75820621D01*
X128791586Y-75820622D01*
X129009347Y-75891377D01*
X129009361Y-75891380D01*
X129235508Y-75927199D01*
X129235510Y-75927200D01*
X129464490Y-75927200D01*
X129464491Y-75927199D01*
X129690638Y-75891380D01*
X129690652Y-75891377D01*
X129908413Y-75820622D01*
X129908415Y-75820621D01*
X130112424Y-75716674D01*
X130183397Y-75665108D01*
X129604969Y-75086679D01*
X129664996Y-75061816D01*
X129773913Y-74989039D01*
X129866539Y-74896413D01*
X129939316Y-74787496D01*
X129964179Y-74727468D01*
X130542608Y-75305897D01*
X130594174Y-75234924D01*
X130698121Y-75030915D01*
X130698122Y-75030913D01*
X130768877Y-74813152D01*
X130768880Y-74813138D01*
X130804699Y-74586991D01*
X130804700Y-74586990D01*
X130804700Y-74358009D01*
X130804699Y-74358008D01*
X130768880Y-74131861D01*
X130768877Y-74131847D01*
X130698122Y-73914086D01*
X130698121Y-73914084D01*
X130594174Y-73710075D01*
X130542607Y-73639101D01*
X129964179Y-74217529D01*
X129939316Y-74157504D01*
X129866539Y-74048587D01*
X129773913Y-73955961D01*
X129664996Y-73883184D01*
X129604968Y-73858319D01*
X130183397Y-73279891D01*
X130112431Y-73228331D01*
X130112416Y-73228321D01*
X129908415Y-73124378D01*
X129908413Y-73124377D01*
X129690652Y-73053622D01*
X129690638Y-73053619D01*
X129464491Y-73017800D01*
X129235509Y-73017800D01*
X129009361Y-73053619D01*
X129009347Y-73053622D01*
X128791586Y-73124377D01*
X128791584Y-73124378D01*
X128587574Y-73228326D01*
X128587568Y-73228330D01*
X128516601Y-73279890D01*
X128516601Y-73279891D01*
X129095030Y-73858320D01*
X129035004Y-73883184D01*
X128926087Y-73955961D01*
X128833461Y-74048587D01*
X128760684Y-74157504D01*
X128735820Y-74217530D01*
X128157391Y-73639101D01*
X128157390Y-73639101D01*
X128105830Y-73710068D01*
X128105826Y-73710074D01*
X128001878Y-73914084D01*
X128001877Y-73914086D01*
X127931122Y-74131847D01*
X127931119Y-74131861D01*
X127895300Y-74358008D01*
X115104699Y-74358008D01*
X115068880Y-74131861D01*
X115068877Y-74131847D01*
X114998122Y-73914086D01*
X114998121Y-73914084D01*
X114894174Y-73710075D01*
X114842607Y-73639101D01*
X114264179Y-74217529D01*
X114239316Y-74157504D01*
X114166539Y-74048587D01*
X114073913Y-73955961D01*
X113964996Y-73883184D01*
X113904968Y-73858319D01*
X114483397Y-73279891D01*
X114412431Y-73228331D01*
X114412416Y-73228321D01*
X114208415Y-73124378D01*
X114208413Y-73124377D01*
X113990652Y-73053622D01*
X113990638Y-73053619D01*
X113764491Y-73017800D01*
X113535509Y-73017800D01*
X113309361Y-73053619D01*
X113309347Y-73053622D01*
X113091586Y-73124377D01*
X113091584Y-73124378D01*
X112887574Y-73228326D01*
X112887568Y-73228330D01*
X112816601Y-73279890D01*
X112816601Y-73279891D01*
X113395030Y-73858320D01*
X113335004Y-73883184D01*
X113226087Y-73955961D01*
X113133461Y-74048587D01*
X113060684Y-74157504D01*
X113035820Y-74217530D01*
X112457391Y-73639101D01*
X112457390Y-73639101D01*
X112405830Y-73710068D01*
X112405826Y-73710074D01*
X112301878Y-73914084D01*
X112301877Y-73914086D01*
X112231122Y-74131847D01*
X112231119Y-74131861D01*
X112195300Y-74358008D01*
X111953700Y-74358008D01*
X111953700Y-74334124D01*
X111916555Y-74004457D01*
X111842734Y-73681023D01*
X111733163Y-73367887D01*
X111589221Y-73068988D01*
X111412718Y-72788085D01*
X111205873Y-72528711D01*
X110971289Y-72294127D01*
X110711915Y-72087282D01*
X110711914Y-72087281D01*
X110628837Y-72035081D01*
X110431012Y-71910779D01*
X110132113Y-71766837D01*
X109818977Y-71657266D01*
X109818976Y-71657265D01*
X109818974Y-71657265D01*
X109495552Y-71583447D01*
X109495550Y-71583446D01*
X109495543Y-71583445D01*
X109495536Y-71583444D01*
X109495535Y-71583444D01*
X109165876Y-71546300D01*
X108834124Y-71546300D01*
X108504464Y-71583444D01*
X108504460Y-71583444D01*
X108504457Y-71583445D01*
X108504452Y-71583446D01*
X108504447Y-71583447D01*
X108181025Y-71657265D01*
X108024455Y-71712051D01*
X107867887Y-71766837D01*
X107867885Y-71766838D01*
X107568990Y-71910778D01*
X107288085Y-72087281D01*
X107288081Y-72087284D01*
X107028715Y-72294123D01*
X107028707Y-72294130D01*
X106794130Y-72528707D01*
X106794123Y-72528715D01*
X106587284Y-72788081D01*
X106587281Y-72788085D01*
X106410773Y-73068997D01*
X106391737Y-73108527D01*
X106348771Y-73153466D01*
X106287595Y-73164567D01*
X106231579Y-73137591D01*
X106202117Y-73082840D01*
X106200500Y-73064878D01*
X106200500Y-68386000D01*
X107831487Y-68386000D01*
X108819600Y-68386000D01*
X108805548Y-68410339D01*
X108765000Y-68561667D01*
X108765000Y-68718333D01*
X108805548Y-68869661D01*
X108819600Y-68894000D01*
X107831487Y-68894000D01*
X107840481Y-68950793D01*
X107840482Y-68950796D01*
X107905034Y-69149468D01*
X107999877Y-69335605D01*
X107999878Y-69335606D01*
X108122666Y-69504611D01*
X108270388Y-69652333D01*
X108439393Y-69775121D01*
X108439394Y-69775122D01*
X108625531Y-69869965D01*
X108824203Y-69934517D01*
X108824219Y-69934521D01*
X109030540Y-69967199D01*
X109030545Y-69967200D01*
X109106000Y-69967200D01*
X109106000Y-69180399D01*
X109130339Y-69194452D01*
X109281667Y-69235000D01*
X109438333Y-69235000D01*
X109589661Y-69194452D01*
X109614000Y-69180399D01*
X109614000Y-69967200D01*
X109689455Y-69967200D01*
X109689459Y-69967199D01*
X109895780Y-69934521D01*
X109895796Y-69934517D01*
X110094468Y-69869965D01*
X110280605Y-69775122D01*
X110280606Y-69775121D01*
X110449611Y-69652333D01*
X110597333Y-69504611D01*
X110631192Y-69458008D01*
X112795300Y-69458008D01*
X112795300Y-69686991D01*
X112831119Y-69913138D01*
X112831122Y-69913152D01*
X112901877Y-70130913D01*
X112901878Y-70130915D01*
X113005821Y-70334916D01*
X113005831Y-70334931D01*
X113057391Y-70405897D01*
X113635819Y-69827468D01*
X113660684Y-69887496D01*
X113733461Y-69996413D01*
X113826087Y-70089039D01*
X113935004Y-70161816D01*
X113995029Y-70186679D01*
X113416601Y-70765107D01*
X113487575Y-70816674D01*
X113691584Y-70920621D01*
X113691586Y-70920622D01*
X113909347Y-70991377D01*
X113909361Y-70991380D01*
X114135508Y-71027199D01*
X114135510Y-71027200D01*
X114364490Y-71027200D01*
X114364491Y-71027199D01*
X114590638Y-70991380D01*
X114590652Y-70991377D01*
X114808413Y-70920622D01*
X114808415Y-70920621D01*
X115012424Y-70816674D01*
X115083397Y-70765108D01*
X114504969Y-70186679D01*
X114564996Y-70161816D01*
X114673913Y-70089039D01*
X114766539Y-69996413D01*
X114839316Y-69887496D01*
X114864179Y-69827468D01*
X115442608Y-70405897D01*
X115494174Y-70334924D01*
X115598121Y-70130915D01*
X115598122Y-70130913D01*
X115668877Y-69913152D01*
X115668880Y-69913138D01*
X115704699Y-69686991D01*
X115704700Y-69686990D01*
X115704700Y-69458009D01*
X115704699Y-69458008D01*
X127295300Y-69458008D01*
X127295300Y-69686991D01*
X127331119Y-69913138D01*
X127331122Y-69913152D01*
X127401877Y-70130913D01*
X127401878Y-70130915D01*
X127505821Y-70334916D01*
X127505831Y-70334931D01*
X127557391Y-70405897D01*
X128135819Y-69827468D01*
X128160684Y-69887496D01*
X128233461Y-69996413D01*
X128326087Y-70089039D01*
X128435004Y-70161816D01*
X128495029Y-70186679D01*
X127916601Y-70765107D01*
X127987575Y-70816674D01*
X128191584Y-70920621D01*
X128191586Y-70920622D01*
X128409347Y-70991377D01*
X128409361Y-70991380D01*
X128635508Y-71027199D01*
X128635510Y-71027200D01*
X128864490Y-71027200D01*
X128864491Y-71027199D01*
X129090638Y-70991380D01*
X129090652Y-70991377D01*
X129308413Y-70920622D01*
X129308415Y-70920621D01*
X129512424Y-70816674D01*
X129583397Y-70765108D01*
X129004969Y-70186679D01*
X129064996Y-70161816D01*
X129173913Y-70089039D01*
X129266539Y-69996413D01*
X129339316Y-69887496D01*
X129364179Y-69827468D01*
X129942608Y-70405897D01*
X129994174Y-70334924D01*
X130098121Y-70130915D01*
X130098122Y-70130913D01*
X130168877Y-69913152D01*
X130168880Y-69913138D01*
X130204699Y-69686991D01*
X130204700Y-69686990D01*
X130204700Y-69458009D01*
X130204699Y-69458008D01*
X130168880Y-69231861D01*
X130168877Y-69231847D01*
X130098122Y-69014086D01*
X130098121Y-69014084D01*
X129994174Y-68810075D01*
X129942607Y-68739101D01*
X129364179Y-69317529D01*
X129339316Y-69257504D01*
X129266539Y-69148587D01*
X129173913Y-69055961D01*
X129064996Y-68983184D01*
X129004968Y-68958319D01*
X129583397Y-68379891D01*
X129512431Y-68328331D01*
X129512416Y-68328321D01*
X129308415Y-68224378D01*
X129308413Y-68224377D01*
X129090652Y-68153622D01*
X129090638Y-68153619D01*
X128864491Y-68117800D01*
X128635509Y-68117800D01*
X128409361Y-68153619D01*
X128409347Y-68153622D01*
X128191586Y-68224377D01*
X128191584Y-68224378D01*
X127987574Y-68328326D01*
X127987568Y-68328330D01*
X127916601Y-68379890D01*
X127916601Y-68379891D01*
X128495030Y-68958320D01*
X128435004Y-68983184D01*
X128326087Y-69055961D01*
X128233461Y-69148587D01*
X128160684Y-69257504D01*
X128135820Y-69317530D01*
X127557391Y-68739101D01*
X127557390Y-68739101D01*
X127505830Y-68810068D01*
X127505826Y-68810074D01*
X127401878Y-69014084D01*
X127401877Y-69014086D01*
X127331122Y-69231847D01*
X127331119Y-69231861D01*
X127295300Y-69458008D01*
X115704699Y-69458008D01*
X115668880Y-69231861D01*
X115668877Y-69231847D01*
X115598122Y-69014086D01*
X115598121Y-69014084D01*
X115494174Y-68810075D01*
X115442607Y-68739101D01*
X114864179Y-69317529D01*
X114839316Y-69257504D01*
X114766539Y-69148587D01*
X114673913Y-69055961D01*
X114564996Y-68983184D01*
X114504968Y-68958319D01*
X115083397Y-68379891D01*
X115012431Y-68328331D01*
X115012416Y-68328321D01*
X114808415Y-68224378D01*
X114808413Y-68224377D01*
X114590652Y-68153622D01*
X114590638Y-68153619D01*
X114364491Y-68117800D01*
X114135509Y-68117800D01*
X113909361Y-68153619D01*
X113909347Y-68153622D01*
X113691586Y-68224377D01*
X113691584Y-68224378D01*
X113487574Y-68328326D01*
X113487568Y-68328330D01*
X113416601Y-68379890D01*
X113416601Y-68379891D01*
X113995030Y-68958320D01*
X113935004Y-68983184D01*
X113826087Y-69055961D01*
X113733461Y-69148587D01*
X113660684Y-69257504D01*
X113635820Y-69317530D01*
X113057391Y-68739101D01*
X113057390Y-68739101D01*
X113005830Y-68810068D01*
X113005826Y-68810074D01*
X112901878Y-69014084D01*
X112901877Y-69014086D01*
X112831122Y-69231847D01*
X112831119Y-69231861D01*
X112795300Y-69458008D01*
X110631192Y-69458008D01*
X110677022Y-69394929D01*
X110720121Y-69335606D01*
X110720122Y-69335605D01*
X110814965Y-69149468D01*
X110879517Y-68950796D01*
X110879518Y-68950793D01*
X110888513Y-68894000D01*
X109900400Y-68894000D01*
X109914452Y-68869661D01*
X109955000Y-68718333D01*
X109955000Y-68561667D01*
X109914452Y-68410339D01*
X109900400Y-68386000D01*
X110888513Y-68386000D01*
X110879518Y-68329206D01*
X110879517Y-68329203D01*
X110814965Y-68130531D01*
X110720122Y-67944394D01*
X110720121Y-67944393D01*
X110597333Y-67775388D01*
X110449611Y-67627666D01*
X110280606Y-67504878D01*
X110280605Y-67504877D01*
X110094468Y-67410034D01*
X109971177Y-67369975D01*
X109920877Y-67333430D01*
X109901664Y-67274299D01*
X109920877Y-67215168D01*
X109971177Y-67178623D01*
X110002263Y-67173699D01*
X110259652Y-67173699D01*
X110290301Y-67170826D01*
X110419395Y-67125654D01*
X110529438Y-67044438D01*
X110610654Y-66934395D01*
X110655826Y-66805301D01*
X110658700Y-66774653D01*
X110658700Y-66716000D01*
X134441487Y-66716000D01*
X135429600Y-66716000D01*
X135415548Y-66740339D01*
X135375000Y-66891667D01*
X135375000Y-67048333D01*
X135415548Y-67199661D01*
X135429600Y-67224000D01*
X134441487Y-67224000D01*
X134450481Y-67280793D01*
X134450482Y-67280796D01*
X134515034Y-67479468D01*
X134609877Y-67665605D01*
X134609878Y-67665606D01*
X134732666Y-67834611D01*
X134880388Y-67982333D01*
X135049393Y-68105121D01*
X135049394Y-68105122D01*
X135235531Y-68199965D01*
X135358822Y-68240024D01*
X135409122Y-68276568D01*
X135428335Y-68335699D01*
X135409122Y-68394831D01*
X135358823Y-68431376D01*
X135327735Y-68436300D01*
X135070355Y-68436300D01*
X135070344Y-68436301D01*
X135039701Y-68439173D01*
X134910604Y-68484346D01*
X134800562Y-68565561D01*
X134800561Y-68565562D01*
X134719346Y-68675604D01*
X134719346Y-68675605D01*
X134674174Y-68804699D01*
X134671301Y-68835344D01*
X134671300Y-68835352D01*
X134671300Y-70184644D01*
X134671301Y-70184655D01*
X134674173Y-70215298D01*
X134674173Y-70215300D01*
X134674174Y-70215301D01*
X134719346Y-70344395D01*
X134800562Y-70454438D01*
X134910605Y-70535654D01*
X135039699Y-70580826D01*
X135070347Y-70583700D01*
X136869652Y-70583699D01*
X136900301Y-70580826D01*
X137029395Y-70535654D01*
X137139438Y-70454438D01*
X137220654Y-70344395D01*
X137265826Y-70215301D01*
X137268700Y-70184653D01*
X137268699Y-68835348D01*
X137265826Y-68804699D01*
X137220654Y-68675605D01*
X137139438Y-68565562D01*
X137134160Y-68561667D01*
X137029395Y-68484346D01*
X136900301Y-68439174D01*
X136869653Y-68436300D01*
X136869647Y-68436300D01*
X136612266Y-68436300D01*
X136553135Y-68417087D01*
X136516590Y-68366787D01*
X136516590Y-68304613D01*
X136553135Y-68254313D01*
X136581179Y-68240024D01*
X136704468Y-68199965D01*
X136890605Y-68105122D01*
X136890606Y-68105121D01*
X137059611Y-67982333D01*
X137207333Y-67834611D01*
X137330121Y-67665606D01*
X137330122Y-67665605D01*
X137424965Y-67479468D01*
X137489517Y-67280796D01*
X137489518Y-67280793D01*
X137498513Y-67224000D01*
X136510400Y-67224000D01*
X136524452Y-67199661D01*
X136565000Y-67048333D01*
X136565000Y-66891667D01*
X136524452Y-66740339D01*
X136510400Y-66716000D01*
X137498513Y-66716000D01*
X137489518Y-66659206D01*
X137489517Y-66659203D01*
X137424965Y-66460531D01*
X137330122Y-66274394D01*
X137330121Y-66274393D01*
X137207333Y-66105388D01*
X137059611Y-65957666D01*
X136890606Y-65834878D01*
X136890605Y-65834877D01*
X136704468Y-65740034D01*
X136505796Y-65675482D01*
X136505780Y-65675478D01*
X136469618Y-65669751D01*
X136414220Y-65641525D01*
X136385994Y-65586127D01*
X136395720Y-65524718D01*
X136439684Y-65480755D01*
X136454268Y-65474714D01*
X136607158Y-65425037D01*
X136757741Y-65348311D01*
X136894469Y-65248972D01*
X137013972Y-65129469D01*
X137113311Y-64992741D01*
X137190037Y-64842158D01*
X137242262Y-64681425D01*
X137268700Y-64514502D01*
X137268700Y-64345498D01*
X137242262Y-64178575D01*
X137190037Y-64017842D01*
X137190037Y-64017841D01*
X137113310Y-63867258D01*
X137013973Y-63730532D01*
X136894467Y-63611026D01*
X136757741Y-63511689D01*
X136757742Y-63511689D01*
X136607158Y-63434962D01*
X136446434Y-63382740D01*
X136446418Y-63382736D01*
X136279508Y-63356300D01*
X136279502Y-63356300D01*
X135660498Y-63356300D01*
X135660491Y-63356300D01*
X135493581Y-63382736D01*
X135493565Y-63382740D01*
X135332841Y-63434962D01*
X135182258Y-63511689D01*
X135045532Y-63611026D01*
X134926026Y-63730532D01*
X134826689Y-63867258D01*
X134749962Y-64017841D01*
X134697740Y-64178565D01*
X134697736Y-64178581D01*
X134671300Y-64345491D01*
X134671300Y-64514508D01*
X134697736Y-64681418D01*
X134697740Y-64681434D01*
X134749962Y-64842158D01*
X134826689Y-64992741D01*
X134926026Y-65129467D01*
X135045532Y-65248973D01*
X135182258Y-65348310D01*
X135182257Y-65348310D01*
X135332841Y-65425037D01*
X135485731Y-65474714D01*
X135536031Y-65511259D01*
X135555244Y-65570390D01*
X135536031Y-65629521D01*
X135485731Y-65666066D01*
X135470382Y-65669751D01*
X135434217Y-65675479D01*
X135434203Y-65675482D01*
X135235531Y-65740034D01*
X135049394Y-65834877D01*
X135049393Y-65834878D01*
X134880388Y-65957666D01*
X134732666Y-66105388D01*
X134609878Y-66274393D01*
X134609877Y-66274394D01*
X134515034Y-66460531D01*
X134450482Y-66659203D01*
X134450481Y-66659206D01*
X134441487Y-66716000D01*
X110658700Y-66716000D01*
X110658699Y-65425348D01*
X110655826Y-65394699D01*
X110610654Y-65265605D01*
X110529438Y-65155562D01*
X110494083Y-65129469D01*
X110419395Y-65074346D01*
X110290301Y-65029174D01*
X110259653Y-65026300D01*
X110259647Y-65026300D01*
X108460355Y-65026300D01*
X108460344Y-65026301D01*
X108429701Y-65029173D01*
X108300604Y-65074346D01*
X108190562Y-65155561D01*
X108190561Y-65155562D01*
X108109346Y-65265604D01*
X108109346Y-65265605D01*
X108064174Y-65394699D01*
X108061301Y-65425344D01*
X108061300Y-65425352D01*
X108061300Y-66774644D01*
X108061301Y-66774655D01*
X108064173Y-66805298D01*
X108064173Y-66805300D01*
X108064174Y-66805301D01*
X108109346Y-66934395D01*
X108190562Y-67044438D01*
X108300605Y-67125654D01*
X108429699Y-67170826D01*
X108460347Y-67173700D01*
X108717735Y-67173699D01*
X108776864Y-67192912D01*
X108813409Y-67243212D01*
X108813409Y-67305386D01*
X108776865Y-67355686D01*
X108748821Y-67369975D01*
X108625530Y-67410035D01*
X108439394Y-67504877D01*
X108439393Y-67504878D01*
X108270388Y-67627666D01*
X108122666Y-67775388D01*
X107999878Y-67944393D01*
X107999877Y-67944394D01*
X107905034Y-68130531D01*
X107840482Y-68329203D01*
X107840481Y-68329206D01*
X107831487Y-68386000D01*
X106200500Y-68386000D01*
X106200500Y-62593062D01*
X106629800Y-62593062D01*
X106629800Y-62766938D01*
X106638030Y-62808311D01*
X106663722Y-62937476D01*
X106730259Y-63098111D01*
X106730260Y-63098114D01*
X106730261Y-63098115D01*
X106826862Y-63242688D01*
X106949812Y-63365638D01*
X107094385Y-63462239D01*
X107174705Y-63495508D01*
X107255023Y-63528777D01*
X107255024Y-63528777D01*
X107255026Y-63528778D01*
X107425562Y-63562700D01*
X107425563Y-63562700D01*
X107599437Y-63562700D01*
X107599438Y-63562700D01*
X107769974Y-63528778D01*
X107930615Y-63462239D01*
X108075188Y-63365638D01*
X108198138Y-63242688D01*
X108294739Y-63098115D01*
X108361278Y-62937474D01*
X108395200Y-62766938D01*
X108395200Y-62593062D01*
X108629800Y-62593062D01*
X108629800Y-62766938D01*
X108638030Y-62808311D01*
X108663722Y-62937476D01*
X108730259Y-63098111D01*
X108730260Y-63098114D01*
X108730261Y-63098115D01*
X108826862Y-63242688D01*
X108949812Y-63365638D01*
X109094385Y-63462239D01*
X109174705Y-63495508D01*
X109255023Y-63528777D01*
X109255024Y-63528777D01*
X109255026Y-63528778D01*
X109425562Y-63562700D01*
X109425563Y-63562700D01*
X109599437Y-63562700D01*
X109599438Y-63562700D01*
X109769974Y-63528778D01*
X109930615Y-63462239D01*
X110075188Y-63365638D01*
X110198138Y-63242688D01*
X110294739Y-63098115D01*
X110361278Y-62937474D01*
X110395200Y-62766938D01*
X110395200Y-62593062D01*
X110361278Y-62422526D01*
X110294739Y-62261885D01*
X110198138Y-62117312D01*
X110075188Y-61994362D01*
X110055095Y-61980936D01*
X110629800Y-61980936D01*
X110629800Y-63379064D01*
X110630531Y-63382738D01*
X110641618Y-63438479D01*
X110641619Y-63438480D01*
X110686640Y-63505860D01*
X110754020Y-63550881D01*
X110813436Y-63562700D01*
X110813437Y-63562700D01*
X112211563Y-63562700D01*
X112211564Y-63562700D01*
X112270980Y-63550881D01*
X112338360Y-63505860D01*
X112383381Y-63438480D01*
X112395200Y-63379064D01*
X112395200Y-61980936D01*
X112383381Y-61921520D01*
X112338360Y-61854140D01*
X112270980Y-61809119D01*
X112270981Y-61809119D01*
X112241272Y-61803209D01*
X112211564Y-61797300D01*
X110813436Y-61797300D01*
X110803578Y-61799260D01*
X110754020Y-61809118D01*
X110686640Y-61854140D01*
X110641618Y-61921520D01*
X110631080Y-61974502D01*
X110629800Y-61980936D01*
X110055095Y-61980936D01*
X109966173Y-61921520D01*
X109930614Y-61897760D01*
X109930611Y-61897759D01*
X109769976Y-61831222D01*
X109640652Y-61805498D01*
X109599438Y-61797300D01*
X109425562Y-61797300D01*
X109384383Y-61805491D01*
X109255023Y-61831222D01*
X109094388Y-61897759D01*
X109094385Y-61897760D01*
X108949810Y-61994363D01*
X108826863Y-62117310D01*
X108730260Y-62261885D01*
X108730259Y-62261888D01*
X108663722Y-62422523D01*
X108630515Y-62589467D01*
X108629800Y-62593062D01*
X108395200Y-62593062D01*
X108361278Y-62422526D01*
X108294739Y-62261885D01*
X108198138Y-62117312D01*
X108075188Y-61994362D01*
X107966173Y-61921520D01*
X107930614Y-61897760D01*
X107930611Y-61897759D01*
X107769976Y-61831222D01*
X107640652Y-61805498D01*
X107599438Y-61797300D01*
X107425562Y-61797300D01*
X107384383Y-61805491D01*
X107255023Y-61831222D01*
X107094388Y-61897759D01*
X107094385Y-61897760D01*
X106949810Y-61994363D01*
X106826863Y-62117310D01*
X106730260Y-62261885D01*
X106730259Y-62261888D01*
X106663722Y-62422523D01*
X106630515Y-62589467D01*
X106629800Y-62593062D01*
X106200500Y-62593062D01*
X106200500Y-61780264D01*
X120526300Y-61780264D01*
X120526300Y-61899735D01*
X120557217Y-62015118D01*
X120557219Y-62015123D01*
X120616948Y-62118576D01*
X120701423Y-62203051D01*
X120803326Y-62261885D01*
X120804878Y-62262781D01*
X120804879Y-62262781D01*
X120804881Y-62262782D01*
X120920264Y-62293699D01*
X120920266Y-62293699D01*
X120920269Y-62293700D01*
X120920271Y-62293700D01*
X121039729Y-62293700D01*
X121039731Y-62293700D01*
X121155122Y-62262781D01*
X121258578Y-62203050D01*
X121343050Y-62118578D01*
X121402781Y-62015122D01*
X121433700Y-61899731D01*
X121433700Y-61805491D01*
X134671300Y-61805491D01*
X134671300Y-61974508D01*
X134697736Y-62141418D01*
X134697740Y-62141434D01*
X134749962Y-62302158D01*
X134826689Y-62452741D01*
X134926026Y-62589467D01*
X135045532Y-62708973D01*
X135182258Y-62808310D01*
X135182257Y-62808310D01*
X135332841Y-62885037D01*
X135493565Y-62937259D01*
X135493568Y-62937259D01*
X135493575Y-62937262D01*
X135493580Y-62937262D01*
X135493581Y-62937263D01*
X135660491Y-62963699D01*
X135660496Y-62963700D01*
X135660498Y-62963700D01*
X136279504Y-62963700D01*
X136279508Y-62963699D01*
X136446425Y-62937262D01*
X136607158Y-62885037D01*
X136757741Y-62808311D01*
X136894469Y-62708972D01*
X137013972Y-62589469D01*
X137113311Y-62452741D01*
X137190037Y-62302158D01*
X137242262Y-62141425D01*
X137268700Y-61974502D01*
X137268700Y-61805498D01*
X137246428Y-61664881D01*
X137242263Y-61638581D01*
X137242262Y-61638580D01*
X137242262Y-61638575D01*
X137190037Y-61477842D01*
X137190037Y-61477841D01*
X137113310Y-61327258D01*
X137013973Y-61190532D01*
X136894467Y-61071026D01*
X136757741Y-60971689D01*
X136757742Y-60971689D01*
X136607158Y-60894962D01*
X136446434Y-60842740D01*
X136446418Y-60842736D01*
X136279508Y-60816300D01*
X136279502Y-60816300D01*
X135660498Y-60816300D01*
X135660491Y-60816300D01*
X135493581Y-60842736D01*
X135493565Y-60842740D01*
X135332841Y-60894962D01*
X135182258Y-60971689D01*
X135045532Y-61071026D01*
X134926026Y-61190532D01*
X134826689Y-61327258D01*
X134749962Y-61477841D01*
X134697740Y-61638565D01*
X134697736Y-61638581D01*
X134671300Y-61805491D01*
X121433700Y-61805491D01*
X121433700Y-61780269D01*
X121402781Y-61664878D01*
X121343050Y-61561422D01*
X121258578Y-61476950D01*
X121258576Y-61476948D01*
X121155123Y-61417219D01*
X121155118Y-61417217D01*
X121039735Y-61386300D01*
X121039731Y-61386300D01*
X120920269Y-61386300D01*
X120920264Y-61386300D01*
X120804881Y-61417217D01*
X120804876Y-61417219D01*
X120701423Y-61476948D01*
X120701422Y-61476950D01*
X120616950Y-61561422D01*
X120616948Y-61561423D01*
X120557219Y-61664876D01*
X120557217Y-61664881D01*
X120526300Y-61780264D01*
X106200500Y-61780264D01*
X106200500Y-60140264D01*
X118346300Y-60140264D01*
X118346300Y-60259735D01*
X118377217Y-60375118D01*
X118377219Y-60375123D01*
X118436948Y-60478576D01*
X118521423Y-60563051D01*
X118624876Y-60622780D01*
X118624878Y-60622781D01*
X118624879Y-60622781D01*
X118624881Y-60622782D01*
X118740264Y-60653699D01*
X118740266Y-60653699D01*
X118740269Y-60653700D01*
X118740271Y-60653700D01*
X118859729Y-60653700D01*
X118859731Y-60653700D01*
X118975122Y-60622781D01*
X119078578Y-60563050D01*
X119163050Y-60478578D01*
X119222781Y-60375122D01*
X119253700Y-60259731D01*
X119253700Y-60140269D01*
X119222781Y-60024878D01*
X119163050Y-59921422D01*
X119078578Y-59836950D01*
X119078576Y-59836948D01*
X118975123Y-59777219D01*
X118975118Y-59777217D01*
X118859735Y-59746300D01*
X118859731Y-59746300D01*
X118740269Y-59746300D01*
X118740264Y-59746300D01*
X118624881Y-59777217D01*
X118624876Y-59777219D01*
X118521423Y-59836948D01*
X118521422Y-59836950D01*
X118436950Y-59921422D01*
X118436948Y-59921423D01*
X118377219Y-60024876D01*
X118377217Y-60024881D01*
X118346300Y-60140264D01*
X106200500Y-60140264D01*
X106200500Y-59310264D01*
X119456300Y-59310264D01*
X119456300Y-59429735D01*
X119487217Y-59545118D01*
X119487219Y-59545123D01*
X119546948Y-59648576D01*
X119631423Y-59733051D01*
X119707924Y-59777219D01*
X119734878Y-59792781D01*
X119734879Y-59792781D01*
X119734881Y-59792782D01*
X119850264Y-59823699D01*
X119850266Y-59823699D01*
X119850269Y-59823700D01*
X119850271Y-59823700D01*
X119969729Y-59823700D01*
X119969731Y-59823700D01*
X120085122Y-59792781D01*
X120188578Y-59733050D01*
X120273050Y-59648578D01*
X120332781Y-59545122D01*
X120363700Y-59429731D01*
X120363700Y-59310269D01*
X120351702Y-59265491D01*
X134671300Y-59265491D01*
X134671300Y-59434508D01*
X134697736Y-59601418D01*
X134697740Y-59601434D01*
X134749962Y-59762158D01*
X134826689Y-59912741D01*
X134926026Y-60049467D01*
X135045532Y-60168973D01*
X135182258Y-60268310D01*
X135182257Y-60268310D01*
X135332841Y-60345037D01*
X135493565Y-60397259D01*
X135493568Y-60397259D01*
X135493575Y-60397262D01*
X135493580Y-60397262D01*
X135493581Y-60397263D01*
X135660491Y-60423699D01*
X135660496Y-60423700D01*
X135660498Y-60423700D01*
X136279504Y-60423700D01*
X136279508Y-60423699D01*
X136446425Y-60397262D01*
X136607158Y-60345037D01*
X136757741Y-60268311D01*
X136894469Y-60168972D01*
X137013972Y-60049469D01*
X137113311Y-59912741D01*
X137190037Y-59762158D01*
X137242262Y-59601425D01*
X137268700Y-59434502D01*
X137268700Y-59265498D01*
X137242262Y-59098575D01*
X137239938Y-59091422D01*
X137190037Y-58937841D01*
X137113310Y-58787258D01*
X137013973Y-58650532D01*
X136894467Y-58531026D01*
X136757741Y-58431689D01*
X136757742Y-58431689D01*
X136607158Y-58354962D01*
X136446434Y-58302740D01*
X136446418Y-58302736D01*
X136279508Y-58276300D01*
X136279502Y-58276300D01*
X135660498Y-58276300D01*
X135660491Y-58276300D01*
X135493581Y-58302736D01*
X135493565Y-58302740D01*
X135332841Y-58354962D01*
X135182258Y-58431689D01*
X135045532Y-58531026D01*
X134926026Y-58650532D01*
X134826689Y-58787258D01*
X134749962Y-58937841D01*
X134697740Y-59098565D01*
X134697736Y-59098581D01*
X134671300Y-59265491D01*
X120351702Y-59265491D01*
X120332781Y-59194878D01*
X120332780Y-59194876D01*
X120273051Y-59091423D01*
X120188576Y-59006948D01*
X120085123Y-58947219D01*
X120085118Y-58947217D01*
X119969735Y-58916300D01*
X119969731Y-58916300D01*
X119850269Y-58916300D01*
X119850264Y-58916300D01*
X119734881Y-58947217D01*
X119734876Y-58947219D01*
X119631423Y-59006948D01*
X119631422Y-59006950D01*
X119546950Y-59091422D01*
X119546948Y-59091423D01*
X119487219Y-59194876D01*
X119487217Y-59194881D01*
X119456300Y-59310264D01*
X106200500Y-59310264D01*
X106200500Y-53200264D01*
X133996300Y-53200264D01*
X133996300Y-53319735D01*
X134027217Y-53435118D01*
X134027219Y-53435123D01*
X134086948Y-53538576D01*
X134171423Y-53623051D01*
X134183927Y-53630270D01*
X134274878Y-53682781D01*
X134274879Y-53682781D01*
X134274881Y-53682782D01*
X134390264Y-53713699D01*
X134390266Y-53713699D01*
X134390269Y-53713700D01*
X134390271Y-53713700D01*
X134509729Y-53713700D01*
X134509731Y-53713700D01*
X134625122Y-53682781D01*
X134716083Y-53630264D01*
X137946300Y-53630264D01*
X137946300Y-53749735D01*
X137977217Y-53865118D01*
X137977219Y-53865123D01*
X138036948Y-53968576D01*
X138121423Y-54053051D01*
X138224876Y-54112780D01*
X138224878Y-54112781D01*
X138224879Y-54112781D01*
X138224881Y-54112782D01*
X138340264Y-54143699D01*
X138340266Y-54143699D01*
X138340269Y-54143700D01*
X138340271Y-54143700D01*
X138459729Y-54143700D01*
X138459731Y-54143700D01*
X138575122Y-54112781D01*
X138678578Y-54053050D01*
X138763050Y-53968578D01*
X138822781Y-53865122D01*
X138853700Y-53749731D01*
X138853700Y-53630269D01*
X138829131Y-53538578D01*
X138822782Y-53514881D01*
X138822780Y-53514876D01*
X138763051Y-53411423D01*
X138678576Y-53326948D01*
X138575123Y-53267219D01*
X138575118Y-53267217D01*
X138459735Y-53236300D01*
X138459731Y-53236300D01*
X138340269Y-53236300D01*
X138340264Y-53236300D01*
X138224881Y-53267217D01*
X138224876Y-53267219D01*
X138121423Y-53326948D01*
X138121422Y-53326950D01*
X138036950Y-53411422D01*
X138036948Y-53411423D01*
X137977219Y-53514876D01*
X137977217Y-53514881D01*
X137946300Y-53630264D01*
X134716083Y-53630264D01*
X134728578Y-53623050D01*
X134813050Y-53538578D01*
X134872781Y-53435122D01*
X134903700Y-53319731D01*
X134903700Y-53200269D01*
X134872781Y-53084878D01*
X134813050Y-52981422D01*
X134728578Y-52896950D01*
X134728576Y-52896948D01*
X134625123Y-52837219D01*
X134625118Y-52837217D01*
X134509735Y-52806300D01*
X134509731Y-52806300D01*
X134390269Y-52806300D01*
X134390264Y-52806300D01*
X134274881Y-52837217D01*
X134274876Y-52837219D01*
X134171423Y-52896948D01*
X134171422Y-52896950D01*
X134086950Y-52981422D01*
X134086948Y-52981423D01*
X134027219Y-53084876D01*
X134027217Y-53084881D01*
X133996300Y-53200264D01*
X106200500Y-53200264D01*
X106200500Y-50935121D01*
X106219713Y-50875990D01*
X106270013Y-50839445D01*
X106332187Y-50839445D01*
X106382487Y-50875990D01*
X106391735Y-50891468D01*
X106410779Y-50931012D01*
X106490131Y-51057300D01*
X106587281Y-51211914D01*
X106587284Y-51211918D01*
X106621133Y-51254363D01*
X106794127Y-51471289D01*
X107028711Y-51705873D01*
X107288085Y-51912718D01*
X107568988Y-52089221D01*
X107867887Y-52233163D01*
X108181023Y-52342734D01*
X108504457Y-52416555D01*
X108834124Y-52453700D01*
X109165876Y-52453700D01*
X109495543Y-52416555D01*
X109818977Y-52342734D01*
X110132113Y-52233163D01*
X110431012Y-52089221D01*
X110711915Y-51912718D01*
X110786721Y-51853062D01*
X131017300Y-51853062D01*
X131017300Y-52026937D01*
X131051222Y-52197476D01*
X131117759Y-52358111D01*
X131117760Y-52358114D01*
X131166061Y-52430401D01*
X131214362Y-52502688D01*
X131337312Y-52625638D01*
X131481885Y-52722239D01*
X131562205Y-52755508D01*
X131642523Y-52788777D01*
X131642524Y-52788777D01*
X131642526Y-52788778D01*
X131813062Y-52822700D01*
X131813063Y-52822700D01*
X131986937Y-52822700D01*
X131986938Y-52822700D01*
X132157474Y-52788778D01*
X132318115Y-52722239D01*
X132462688Y-52625638D01*
X132585638Y-52502688D01*
X132682239Y-52358115D01*
X132748778Y-52197474D01*
X132782700Y-52026938D01*
X132782700Y-51853062D01*
X132748778Y-51682526D01*
X132682239Y-51521885D01*
X132585638Y-51377312D01*
X132462688Y-51254362D01*
X132318115Y-51157761D01*
X132318116Y-51157761D01*
X132318114Y-51157760D01*
X132318111Y-51157759D01*
X132157476Y-51091222D01*
X132043783Y-51068607D01*
X131986938Y-51057300D01*
X131813062Y-51057300D01*
X131770428Y-51065780D01*
X131642523Y-51091222D01*
X131481888Y-51157759D01*
X131481885Y-51157760D01*
X131337310Y-51254363D01*
X131214363Y-51377310D01*
X131117760Y-51521885D01*
X131117759Y-51521888D01*
X131051222Y-51682523D01*
X131017300Y-51853062D01*
X110786721Y-51853062D01*
X110971289Y-51705873D01*
X111205873Y-51471289D01*
X111412718Y-51211915D01*
X111589221Y-50931012D01*
X111733163Y-50632113D01*
X111733810Y-50630264D01*
X127826300Y-50630264D01*
X127826300Y-50749735D01*
X127857217Y-50865118D01*
X127857219Y-50865123D01*
X127916948Y-50968576D01*
X128001423Y-51053051D01*
X128067537Y-51091222D01*
X128104878Y-51112781D01*
X128104879Y-51112781D01*
X128104881Y-51112782D01*
X128220264Y-51143699D01*
X128220266Y-51143699D01*
X128220269Y-51143700D01*
X128220271Y-51143700D01*
X128339729Y-51143700D01*
X128339731Y-51143700D01*
X128455122Y-51112781D01*
X128558578Y-51053050D01*
X128643050Y-50968578D01*
X128702781Y-50865122D01*
X128733700Y-50749731D01*
X128733700Y-50630269D01*
X128723030Y-50590449D01*
X128702782Y-50514881D01*
X128702780Y-50514876D01*
X128643051Y-50411423D01*
X128558576Y-50326948D01*
X128455123Y-50267219D01*
X128455118Y-50267217D01*
X128339735Y-50236300D01*
X128339731Y-50236300D01*
X128220269Y-50236300D01*
X128220264Y-50236300D01*
X128104881Y-50267217D01*
X128104876Y-50267219D01*
X128001423Y-50326948D01*
X128001422Y-50326950D01*
X127916950Y-50411422D01*
X127916948Y-50411423D01*
X127857219Y-50514876D01*
X127857217Y-50514881D01*
X127826300Y-50630264D01*
X111733810Y-50630264D01*
X111842734Y-50318977D01*
X111916555Y-49995543D01*
X111932609Y-49853062D01*
X131017300Y-49853062D01*
X131017300Y-50026937D01*
X131051222Y-50197476D01*
X131117759Y-50358111D01*
X131117760Y-50358114D01*
X131117761Y-50358115D01*
X131214362Y-50502688D01*
X131337312Y-50625638D01*
X131481885Y-50722239D01*
X131548257Y-50749731D01*
X131642523Y-50788777D01*
X131642524Y-50788777D01*
X131642526Y-50788778D01*
X131813062Y-50822700D01*
X131813063Y-50822700D01*
X131986937Y-50822700D01*
X131986938Y-50822700D01*
X132157474Y-50788778D01*
X132318115Y-50722239D01*
X132462688Y-50625638D01*
X132585638Y-50502688D01*
X132682239Y-50358115D01*
X132748778Y-50197474D01*
X132782700Y-50026938D01*
X132782700Y-49853062D01*
X132748778Y-49682526D01*
X132741881Y-49665876D01*
X132682240Y-49521888D01*
X132682239Y-49521885D01*
X132585638Y-49377312D01*
X132462688Y-49254362D01*
X132318115Y-49157761D01*
X132318116Y-49157761D01*
X132318114Y-49157760D01*
X132318111Y-49157759D01*
X132157476Y-49091222D01*
X132043783Y-49068607D01*
X131986938Y-49057300D01*
X131813062Y-49057300D01*
X131770428Y-49065780D01*
X131642523Y-49091222D01*
X131481888Y-49157759D01*
X131481885Y-49157760D01*
X131337310Y-49254363D01*
X131214363Y-49377310D01*
X131117760Y-49521885D01*
X131117759Y-49521888D01*
X131051222Y-49682523D01*
X131017300Y-49853062D01*
X111932609Y-49853062D01*
X111953700Y-49665876D01*
X111953700Y-49334124D01*
X111916555Y-49004457D01*
X111842734Y-48681023D01*
X111733163Y-48367887D01*
X111589221Y-48068988D01*
X111412718Y-47788085D01*
X111205873Y-47528711D01*
X110971289Y-47294127D01*
X110904590Y-47240936D01*
X131017300Y-47240936D01*
X131017300Y-48639063D01*
X131029118Y-48698479D01*
X131029119Y-48698480D01*
X131074140Y-48765860D01*
X131141520Y-48810881D01*
X131200936Y-48822700D01*
X131200937Y-48822700D01*
X132599063Y-48822700D01*
X132599064Y-48822700D01*
X132658480Y-48810881D01*
X132725860Y-48765860D01*
X132770881Y-48698480D01*
X132782700Y-48639064D01*
X132782700Y-47240936D01*
X132770881Y-47181520D01*
X132725860Y-47114140D01*
X132658480Y-47069119D01*
X132658479Y-47069118D01*
X132610882Y-47059650D01*
X132599064Y-47057300D01*
X131200936Y-47057300D01*
X131191078Y-47059260D01*
X131141520Y-47069118D01*
X131074140Y-47114140D01*
X131029118Y-47181520D01*
X131017300Y-47240936D01*
X110904590Y-47240936D01*
X110711915Y-47087282D01*
X110711914Y-47087281D01*
X110565184Y-46995085D01*
X110431012Y-46910779D01*
X110132113Y-46766837D01*
X109818977Y-46657266D01*
X109818976Y-46657265D01*
X109818974Y-46657265D01*
X109495552Y-46583447D01*
X109495550Y-46583446D01*
X109495543Y-46583445D01*
X109495536Y-46583444D01*
X109495535Y-46583444D01*
X109165876Y-46546300D01*
X108834124Y-46546300D01*
X108504464Y-46583444D01*
X108504460Y-46583444D01*
X108504457Y-46583445D01*
X108504452Y-46583446D01*
X108504447Y-46583447D01*
X108181025Y-46657265D01*
X108024455Y-46712051D01*
X107867887Y-46766837D01*
X107867885Y-46766838D01*
X107568990Y-46910778D01*
X107288085Y-47087281D01*
X107288081Y-47087284D01*
X107028715Y-47294123D01*
X107028707Y-47294130D01*
X106794130Y-47528707D01*
X106794123Y-47528715D01*
X106587284Y-47788081D01*
X106587281Y-47788085D01*
X106410773Y-48068997D01*
X106391737Y-48108527D01*
X106348771Y-48153466D01*
X106287595Y-48164567D01*
X106231579Y-48137591D01*
X106202117Y-48082840D01*
X106200500Y-48064878D01*
X106200500Y-47004945D01*
X106200984Y-46995085D01*
X106214891Y-46853883D01*
X106214891Y-46853882D01*
X106218739Y-46834541D01*
X106239276Y-46766838D01*
X106258483Y-46703521D01*
X106266024Y-46685315D01*
X106330571Y-46564556D01*
X106341522Y-46548166D01*
X106428384Y-46442324D01*
X106442324Y-46428384D01*
X106548166Y-46341522D01*
X106564556Y-46330571D01*
X106685315Y-46266024D01*
X106703521Y-46258483D01*
X106834541Y-46218739D01*
X106853882Y-46214891D01*
X106995086Y-46200984D01*
X107004946Y-46200500D01*
X107039882Y-46200500D01*
X138460118Y-46200500D01*
X138495054Y-46200500D01*
X138504914Y-46200984D01*
G37*
%TD.AperFunction*%
%TD*%
M02*
