%TF.GenerationSoftware,KiCad,Pcbnew,9.0.5-9.0.5~ubuntu24.04.1*%
%TF.CreationDate,2025-10-12T19:32:36+02:00*%
%TF.ProjectId,BB3plus test mainboard,42423370-6c75-4732-9074-657374206d61,r1B1*%
%TF.SameCoordinates,Original*%
%TF.FileFunction,Soldermask,Top*%
%TF.FilePolarity,Negative*%
%FSLAX46Y46*%
G04 Gerber Fmt 4.6, Leading zero omitted, Abs format (unit mm)*
G04 Created by KiCad (PCBNEW 9.0.5-9.0.5~ubuntu24.04.1) date 2025-10-12 19:32:36*
%MOMM*%
%LPD*%
G01*
G04 APERTURE LIST*
G04 Aperture macros list*
%AMRoundRect*
0 Rectangle with rounded corners*
0 $1 Rounding radius*
0 $2 $3 $4 $5 $6 $7 $8 $9 X,Y pos of 4 corners*
0 Add a 4 corners polygon primitive as box body*
4,1,4,$2,$3,$4,$5,$6,$7,$8,$9,$2,$3,0*
0 Add four circle primitives for the rounded corners*
1,1,$1+$1,$2,$3*
1,1,$1+$1,$4,$5*
1,1,$1+$1,$6,$7*
1,1,$1+$1,$8,$9*
0 Add four rect primitives between the rounded corners*
20,1,$1+$1,$2,$3,$4,$5,0*
20,1,$1+$1,$4,$5,$6,$7,0*
20,1,$1+$1,$6,$7,$8,$9,0*
20,1,$1+$1,$8,$9,$2,$3,0*%
%AMFreePoly0*
4,1,17,0.413137,0.933901,0.933901,0.413137,0.952500,0.368236,0.952500,-0.368236,0.933901,-0.413137,0.413137,-0.933901,0.368236,-0.952500,-0.368236,-0.952500,-0.413137,-0.933901,-0.933901,-0.413137,-0.952500,-0.368236,-0.952500,0.368236,-0.933901,0.413137,-0.413137,0.933901,-0.368236,0.952500,0.368236,0.952500,0.413137,0.933901,0.413137,0.933901,$1*%
%AMFreePoly1*
4,1,17,0.355561,0.794901,0.794901,0.355561,0.813500,0.310660,0.813500,-0.310660,0.794901,-0.355561,0.355561,-0.794901,0.310660,-0.813500,-0.310660,-0.813500,-0.355561,-0.794901,-0.794901,-0.355561,-0.813500,-0.310660,-0.813500,0.310660,-0.794901,0.355561,-0.355561,0.794901,-0.310660,0.813500,0.310660,0.813500,0.355561,0.794901,0.355561,0.794901,$1*%
%AMFreePoly2*
4,1,17,0.360532,0.806901,0.806901,0.360532,0.825500,0.315631,0.825500,-0.315631,0.806901,-0.360532,0.360532,-0.806901,0.315631,-0.825500,-0.315631,-0.825500,-0.360532,-0.806901,-0.806901,-0.360532,-0.825500,-0.315631,-0.825500,0.315631,-0.806901,0.360532,-0.360532,0.806901,-0.315631,0.825500,0.315631,0.825500,0.360532,0.806901,0.360532,0.806901,$1*%
G04 Aperture macros list end*
%ADD10C,0.100000*%
%ADD11C,0.010000*%
%ADD12R,1.400000X1.400000*%
%ADD13C,1.400000*%
%ADD14RoundRect,0.225000X0.250000X-0.225000X0.250000X0.225000X-0.250000X0.225000X-0.250000X-0.225000X0*%
%ADD15RoundRect,0.102000X0.679000X0.679000X-0.679000X0.679000X-0.679000X-0.679000X0.679000X-0.679000X0*%
%ADD16C,1.562000*%
%ADD17RoundRect,0.250000X0.325000X0.650000X-0.325000X0.650000X-0.325000X-0.650000X0.325000X-0.650000X0*%
%ADD18RoundRect,0.225000X0.225000X0.250000X-0.225000X0.250000X-0.225000X-0.250000X0.225000X-0.250000X0*%
%ADD19C,0.650000*%
%ADD20RoundRect,0.050800X-0.150000X-0.450000X0.150000X-0.450000X0.150000X0.450000X-0.150000X0.450000X0*%
%ADD21C,0.600000*%
%ADD22O,1.004000X1.604000*%
%ADD23RoundRect,0.079022X0.098778X-0.390878X0.098778X0.390878X-0.098778X0.390878X-0.098778X-0.390878X0*%
%ADD24R,1.092200X0.762000*%
%ADD25RoundRect,0.200000X0.275000X-0.200000X0.275000X0.200000X-0.275000X0.200000X-0.275000X-0.200000X0*%
%ADD26RoundRect,0.102000X0.210000X-0.350000X0.210000X0.350000X-0.210000X0.350000X-0.210000X-0.350000X0*%
%ADD27RoundRect,0.102000X1.185000X-0.850000X1.185000X0.850000X-1.185000X0.850000X-1.185000X-0.850000X0*%
%ADD28RoundRect,0.102000X0.210000X-0.225000X0.210000X0.225000X-0.210000X0.225000X-0.210000X-0.225000X0*%
%ADD29RoundRect,0.102000X1.750000X-1.000000X1.750000X1.000000X-1.750000X1.000000X-1.750000X-1.000000X0*%
%ADD30RoundRect,0.200000X0.200000X0.275000X-0.200000X0.275000X-0.200000X-0.275000X0.200000X-0.275000X0*%
%ADD31R,2.850000X3.100000*%
%ADD32RoundRect,0.102000X1.500000X0.800000X-1.500000X0.800000X-1.500000X-0.800000X1.500000X-0.800000X0*%
%ADD33RoundRect,0.225000X-0.250000X0.225000X-0.250000X-0.225000X0.250000X-0.225000X0.250000X0.225000X0*%
%ADD34RoundRect,0.200000X-0.275000X0.200000X-0.275000X-0.200000X0.275000X-0.200000X0.275000X0.200000X0*%
%ADD35R,0.300000X1.000000*%
%ADD36R,2.000000X1.300000*%
%ADD37R,1.651000X2.895600*%
%ADD38RoundRect,0.250000X0.650000X-0.325000X0.650000X0.325000X-0.650000X0.325000X-0.650000X-0.325000X0*%
%ADD39RoundRect,0.200000X-0.200000X-0.275000X0.200000X-0.275000X0.200000X0.275000X-0.200000X0.275000X0*%
%ADD40RoundRect,0.102000X0.679000X-0.679000X0.679000X0.679000X-0.679000X0.679000X-0.679000X-0.679000X0*%
%ADD41RoundRect,0.225000X-0.225000X-0.250000X0.225000X-0.250000X0.225000X0.250000X-0.225000X0.250000X0*%
%ADD42C,1.270000*%
%ADD43RoundRect,0.102000X0.550000X0.750000X-0.550000X0.750000X-0.550000X-0.750000X0.550000X-0.750000X0*%
%ADD44O,1.304000X1.704000*%
%ADD45O,1.404000X1.804000*%
%ADD46RoundRect,0.102000X0.600000X0.800000X-0.600000X0.800000X-0.600000X-0.800000X0.600000X-0.800000X0*%
%ADD47C,2.559000*%
%ADD48C,3.530000*%
%ADD49RoundRect,0.250000X0.475000X-0.250000X0.475000X0.250000X-0.475000X0.250000X-0.475000X-0.250000X0*%
%ADD50C,5.500000*%
%ADD51RoundRect,0.057252X0.506248X0.706248X-0.506248X0.706248X-0.506248X-0.706248X0.506248X-0.706248X0*%
%ADD52RoundRect,0.250000X0.250000X0.475000X-0.250000X0.475000X-0.250000X-0.475000X0.250000X-0.475000X0*%
%ADD53C,1.500000*%
%ADD54R,0.762000X1.295400*%
%ADD55C,2.350000*%
%ADD56RoundRect,0.102000X-0.604000X0.604000X-0.604000X-0.604000X0.604000X-0.604000X0.604000X0.604000X0*%
%ADD57C,1.412000*%
%ADD58FreePoly0,0.000000*%
%ADD59C,1.905000*%
%ADD60C,3.500000*%
%ADD61O,2.400000X4.500000*%
%ADD62C,1.927000*%
%ADD63C,1.627000*%
%ADD64C,3.089000*%
%ADD65RoundRect,0.100000X0.400000X0.500000X-0.400000X0.500000X-0.400000X-0.500000X0.400000X-0.500000X0*%
%ADD66C,1.150000*%
%ADD67C,1.650000*%
%ADD68RoundRect,0.050800X-0.150000X-0.775000X0.150000X-0.775000X0.150000X0.775000X-0.150000X0.775000X0*%
%ADD69C,6.200000*%
%ADD70RoundRect,0.050800X-0.600000X-1.375000X0.600000X-1.375000X0.600000X1.375000X-0.600000X1.375000X0*%
%ADD71C,1.604000*%
%ADD72C,1.704000*%
%ADD73R,1.168400X0.304800*%
%ADD74RoundRect,0.250000X-0.250000X-0.475000X0.250000X-0.475000X0.250000X0.475000X-0.250000X0.475000X0*%
%ADD75RoundRect,0.072248X-0.318252X-0.141652X0.318252X-0.141652X0.318252X0.141652X-0.318252X0.141652X0*%
%ADD76R,2.200000X2.200000*%
%ADD77C,2.200000*%
%ADD78RoundRect,0.057252X0.556248X-0.506248X0.556248X0.506248X-0.556248X0.506248X-0.556248X-0.506248X0*%
%ADD79R,1.800000X1.000000*%
%ADD80RoundRect,0.071582X0.322118X-0.753918X0.322118X0.753918X-0.322118X0.753918X-0.322118X-0.753918X0*%
%ADD81C,1.700000*%
%ADD82C,1.800000*%
%ADD83RoundRect,0.102000X-1.200000X1.400000X-1.200000X-1.400000X1.200000X-1.400000X1.200000X1.400000X0*%
%ADD84RoundRect,0.055408X-0.708092X0.708092X-0.708092X-0.708092X0.708092X-0.708092X0.708092X0.708092X0*%
%ADD85R,0.203200X0.914400*%
%ADD86R,0.914400X0.203200*%
%ADD87R,8.102600X8.102600*%
%ADD88R,0.762000X1.092200*%
%ADD89RoundRect,0.102000X0.700000X-0.600000X0.700000X0.600000X-0.700000X0.600000X-0.700000X-0.600000X0*%
%ADD90RoundRect,0.061553X0.301947X-0.776947X0.301947X0.776947X-0.301947X0.776947X-0.301947X-0.776947X0*%
%ADD91RoundRect,0.054180X-0.747820X-0.332820X0.747820X-0.332820X0.747820X0.332820X-0.747820X0.332820X0*%
%ADD92FreePoly1,90.000000*%
%ADD93RoundRect,0.102000X0.800000X-1.500000X0.800000X1.500000X-0.800000X1.500000X-0.800000X-1.500000X0*%
%ADD94C,2.387600*%
%ADD95C,0.990600*%
%ADD96RoundRect,0.457200X-0.000010X0.000010X-0.000010X-0.000010X0.000010X-0.000010X0.000010X0.000010X0*%
%ADD97RoundRect,0.250000X0.262500X0.450000X-0.262500X0.450000X-0.262500X-0.450000X0.262500X-0.450000X0*%
%ADD98RoundRect,0.062345X-0.737755X-0.280555X0.737755X-0.280555X0.737755X0.280555X-0.737755X0.280555X0*%
%ADD99C,6.100000*%
%ADD100R,0.700000X0.200000*%
%ADD101R,0.700001X0.200000*%
%ADD102R,0.200000X0.499999*%
%ADD103C,2.064000*%
%ADD104RoundRect,0.102000X-0.930000X-0.930000X0.930000X-0.930000X0.930000X0.930000X-0.930000X0.930000X0*%
%ADD105RoundRect,0.059267X1.629833X0.385233X-1.629833X0.385233X-1.629833X-0.385233X1.629833X-0.385233X0*%
%ADD106R,1.117600X0.381000*%
%ADD107R,1.570000X1.890000*%
%ADD108RoundRect,0.071582X0.753918X0.322118X-0.753918X0.322118X-0.753918X-0.322118X0.753918X-0.322118X0*%
%ADD109RoundRect,0.071582X-0.322118X0.753918X-0.322118X-0.753918X0.322118X-0.753918X0.322118X0.753918X0*%
%ADD110RoundRect,0.102000X-0.350000X-0.210000X0.350000X-0.210000X0.350000X0.210000X-0.350000X0.210000X0*%
%ADD111RoundRect,0.102000X-0.850000X-1.185000X0.850000X-1.185000X0.850000X1.185000X-0.850000X1.185000X0*%
%ADD112RoundRect,0.102000X-0.225000X-0.210000X0.225000X-0.210000X0.225000X0.210000X-0.225000X0.210000X0*%
%ADD113FreePoly2,90.000000*%
%ADD114RoundRect,0.102000X1.050000X1.050000X-1.050000X1.050000X-1.050000X-1.050000X1.050000X-1.050000X0*%
%ADD115C,2.304000*%
%ADD116RoundRect,0.057252X-0.556248X0.506248X-0.556248X-0.506248X0.556248X-0.506248X0.556248X0.506248X0*%
%ADD117R,0.304800X1.168400*%
%ADD118C,2.800000*%
%ADD119R,1.193800X0.304800*%
%ADD120R,0.304800X1.193800*%
%ADD121O,1.652400X3.452400*%
%ADD122O,1.652400X2.452400*%
G04 APERTURE END LIST*
D10*
X432552250Y-164064750D02*
X434647750Y-164064750D01*
X434647750Y-169335250D01*
X432552250Y-169335250D01*
X432552250Y-164064750D01*
G36*
X432552250Y-164064750D02*
G01*
X434647750Y-164064750D01*
X434647750Y-169335250D01*
X432552250Y-169335250D01*
X432552250Y-164064750D01*
G37*
D11*
X367772000Y-170936000D02*
X367794000Y-170937000D01*
X367816000Y-170940000D01*
X367838000Y-170944000D01*
X367860000Y-170949000D01*
X367881000Y-170956000D01*
X367902000Y-170963000D01*
X367923000Y-170972000D01*
X367943000Y-170981000D01*
X367962000Y-170992000D01*
X367981000Y-171004000D01*
X368000000Y-171016000D01*
X368017000Y-171030000D01*
X368034000Y-171044000D01*
X368051000Y-171059000D01*
X368066000Y-171076000D01*
X368080000Y-171093000D01*
X368094000Y-171110000D01*
X368106000Y-171129000D01*
X368118000Y-171147000D01*
X368129000Y-171167000D01*
X368138000Y-171187000D01*
X368147000Y-171208000D01*
X368154000Y-171229000D01*
X368161000Y-171250000D01*
X368166000Y-171272000D01*
X368170000Y-171294000D01*
X368173000Y-171316000D01*
X368174000Y-171338000D01*
X368175000Y-171360000D01*
X368174000Y-171382000D01*
X368173000Y-171404000D01*
X368170000Y-171426000D01*
X368166000Y-171448000D01*
X368161000Y-171470000D01*
X368154000Y-171491000D01*
X368147000Y-171512000D01*
X368138000Y-171533000D01*
X368129000Y-171553000D01*
X368118000Y-171572000D01*
X368106000Y-171591000D01*
X368094000Y-171610000D01*
X368080000Y-171627000D01*
X368066000Y-171644000D01*
X368051000Y-171661000D01*
X368034000Y-171676000D01*
X368017000Y-171690000D01*
X368000000Y-171704000D01*
X367981000Y-171716000D01*
X367962000Y-171728000D01*
X367943000Y-171739000D01*
X367923000Y-171748000D01*
X367902000Y-171757000D01*
X367881000Y-171764000D01*
X367860000Y-171771000D01*
X367838000Y-171776000D01*
X367816000Y-171780000D01*
X367794000Y-171783000D01*
X367772000Y-171784000D01*
X367750000Y-171785000D01*
X367450000Y-171785000D01*
X367428000Y-171784000D01*
X367406000Y-171783000D01*
X367384000Y-171780000D01*
X367362000Y-171776000D01*
X367340000Y-171771000D01*
X367319000Y-171764000D01*
X367298000Y-171757000D01*
X367277000Y-171748000D01*
X367257000Y-171739000D01*
X367237000Y-171728000D01*
X367219000Y-171716000D01*
X367200000Y-171704000D01*
X367183000Y-171690000D01*
X367166000Y-171676000D01*
X367149000Y-171661000D01*
X367134000Y-171644000D01*
X367120000Y-171627000D01*
X367106000Y-171610000D01*
X367094000Y-171591000D01*
X367082000Y-171572000D01*
X367071000Y-171553000D01*
X367062000Y-171533000D01*
X367053000Y-171512000D01*
X367046000Y-171491000D01*
X367039000Y-171470000D01*
X367034000Y-171448000D01*
X367030000Y-171426000D01*
X367027000Y-171404000D01*
X367026000Y-171382000D01*
X367025000Y-171360000D01*
X367026000Y-171338000D01*
X367027000Y-171316000D01*
X367030000Y-171294000D01*
X367034000Y-171272000D01*
X367039000Y-171250000D01*
X367046000Y-171229000D01*
X367053000Y-171208000D01*
X367062000Y-171187000D01*
X367071000Y-171167000D01*
X367082000Y-171147000D01*
X367094000Y-171129000D01*
X367106000Y-171110000D01*
X367120000Y-171093000D01*
X367134000Y-171076000D01*
X367149000Y-171059000D01*
X367166000Y-171044000D01*
X367183000Y-171030000D01*
X367200000Y-171016000D01*
X367219000Y-171004000D01*
X367237000Y-170992000D01*
X367257000Y-170981000D01*
X367277000Y-170972000D01*
X367298000Y-170963000D01*
X367319000Y-170956000D01*
X367340000Y-170949000D01*
X367362000Y-170944000D01*
X367384000Y-170940000D01*
X367406000Y-170937000D01*
X367428000Y-170936000D01*
X367450000Y-170935000D01*
X367750000Y-170935000D01*
X367772000Y-170936000D01*
G36*
X367772000Y-170936000D02*
G01*
X367794000Y-170937000D01*
X367816000Y-170940000D01*
X367838000Y-170944000D01*
X367860000Y-170949000D01*
X367881000Y-170956000D01*
X367902000Y-170963000D01*
X367923000Y-170972000D01*
X367943000Y-170981000D01*
X367962000Y-170992000D01*
X367981000Y-171004000D01*
X368000000Y-171016000D01*
X368017000Y-171030000D01*
X368034000Y-171044000D01*
X368051000Y-171059000D01*
X368066000Y-171076000D01*
X368080000Y-171093000D01*
X368094000Y-171110000D01*
X368106000Y-171129000D01*
X368118000Y-171147000D01*
X368129000Y-171167000D01*
X368138000Y-171187000D01*
X368147000Y-171208000D01*
X368154000Y-171229000D01*
X368161000Y-171250000D01*
X368166000Y-171272000D01*
X368170000Y-171294000D01*
X368173000Y-171316000D01*
X368174000Y-171338000D01*
X368175000Y-171360000D01*
X368174000Y-171382000D01*
X368173000Y-171404000D01*
X368170000Y-171426000D01*
X368166000Y-171448000D01*
X368161000Y-171470000D01*
X368154000Y-171491000D01*
X368147000Y-171512000D01*
X368138000Y-171533000D01*
X368129000Y-171553000D01*
X368118000Y-171572000D01*
X368106000Y-171591000D01*
X368094000Y-171610000D01*
X368080000Y-171627000D01*
X368066000Y-171644000D01*
X368051000Y-171661000D01*
X368034000Y-171676000D01*
X368017000Y-171690000D01*
X368000000Y-171704000D01*
X367981000Y-171716000D01*
X367962000Y-171728000D01*
X367943000Y-171739000D01*
X367923000Y-171748000D01*
X367902000Y-171757000D01*
X367881000Y-171764000D01*
X367860000Y-171771000D01*
X367838000Y-171776000D01*
X367816000Y-171780000D01*
X367794000Y-171783000D01*
X367772000Y-171784000D01*
X367750000Y-171785000D01*
X367450000Y-171785000D01*
X367428000Y-171784000D01*
X367406000Y-171783000D01*
X367384000Y-171780000D01*
X367362000Y-171776000D01*
X367340000Y-171771000D01*
X367319000Y-171764000D01*
X367298000Y-171757000D01*
X367277000Y-171748000D01*
X367257000Y-171739000D01*
X367237000Y-171728000D01*
X367219000Y-171716000D01*
X367200000Y-171704000D01*
X367183000Y-171690000D01*
X367166000Y-171676000D01*
X367149000Y-171661000D01*
X367134000Y-171644000D01*
X367120000Y-171627000D01*
X367106000Y-171610000D01*
X367094000Y-171591000D01*
X367082000Y-171572000D01*
X367071000Y-171553000D01*
X367062000Y-171533000D01*
X367053000Y-171512000D01*
X367046000Y-171491000D01*
X367039000Y-171470000D01*
X367034000Y-171448000D01*
X367030000Y-171426000D01*
X367027000Y-171404000D01*
X367026000Y-171382000D01*
X367025000Y-171360000D01*
X367026000Y-171338000D01*
X367027000Y-171316000D01*
X367030000Y-171294000D01*
X367034000Y-171272000D01*
X367039000Y-171250000D01*
X367046000Y-171229000D01*
X367053000Y-171208000D01*
X367062000Y-171187000D01*
X367071000Y-171167000D01*
X367082000Y-171147000D01*
X367094000Y-171129000D01*
X367106000Y-171110000D01*
X367120000Y-171093000D01*
X367134000Y-171076000D01*
X367149000Y-171059000D01*
X367166000Y-171044000D01*
X367183000Y-171030000D01*
X367200000Y-171016000D01*
X367219000Y-171004000D01*
X367237000Y-170992000D01*
X367257000Y-170981000D01*
X367277000Y-170972000D01*
X367298000Y-170963000D01*
X367319000Y-170956000D01*
X367340000Y-170949000D01*
X367362000Y-170944000D01*
X367384000Y-170940000D01*
X367406000Y-170937000D01*
X367428000Y-170936000D01*
X367450000Y-170935000D01*
X367750000Y-170935000D01*
X367772000Y-170936000D01*
G37*
X422030000Y-113740000D02*
X421290000Y-113740000D01*
X421290000Y-113290000D01*
X422030000Y-113290000D01*
X422030000Y-113740000D01*
G36*
X422030000Y-113740000D02*
G01*
X421290000Y-113740000D01*
X421290000Y-113290000D01*
X422030000Y-113290000D01*
X422030000Y-113740000D01*
G37*
X422030000Y-114390000D02*
X421290000Y-114390000D01*
X421290000Y-113940000D01*
X422030000Y-113940000D01*
X422030000Y-114390000D01*
G36*
X422030000Y-114390000D02*
G01*
X421290000Y-114390000D01*
X421290000Y-113940000D01*
X422030000Y-113940000D01*
X422030000Y-114390000D01*
G37*
X422030000Y-115040000D02*
X421290000Y-115040000D01*
X421290000Y-114590000D01*
X422030000Y-114590000D01*
X422030000Y-115040000D01*
G36*
X422030000Y-115040000D02*
G01*
X421290000Y-115040000D01*
X421290000Y-114590000D01*
X422030000Y-114590000D01*
X422030000Y-115040000D01*
G37*
X422030000Y-115690000D02*
X421290000Y-115690000D01*
X421290000Y-115240000D01*
X422030000Y-115240000D01*
X422030000Y-115690000D01*
G36*
X422030000Y-115690000D02*
G01*
X421290000Y-115690000D01*
X421290000Y-115240000D01*
X422030000Y-115240000D01*
X422030000Y-115690000D01*
G37*
X424830000Y-113740000D02*
X424090000Y-113740000D01*
X424090000Y-113290000D01*
X424830000Y-113290000D01*
X424830000Y-113740000D01*
G36*
X424830000Y-113740000D02*
G01*
X424090000Y-113740000D01*
X424090000Y-113290000D01*
X424830000Y-113290000D01*
X424830000Y-113740000D01*
G37*
X424830000Y-114390000D02*
X424090000Y-114390000D01*
X424090000Y-113940000D01*
X424830000Y-113940000D01*
X424830000Y-114390000D01*
G36*
X424830000Y-114390000D02*
G01*
X424090000Y-114390000D01*
X424090000Y-113940000D01*
X424830000Y-113940000D01*
X424830000Y-114390000D01*
G37*
X424830000Y-115040000D02*
X424090000Y-115040000D01*
X424090000Y-114590000D01*
X424830000Y-114590000D01*
X424830000Y-115040000D01*
G36*
X424830000Y-115040000D02*
G01*
X424090000Y-115040000D01*
X424090000Y-114590000D01*
X424830000Y-114590000D01*
X424830000Y-115040000D01*
G37*
X424830000Y-115690000D02*
X424090000Y-115690000D01*
X424090000Y-115240000D01*
X424830000Y-115240000D01*
X424830000Y-115690000D01*
G36*
X424830000Y-115690000D02*
G01*
X424090000Y-115690000D01*
X424090000Y-115240000D01*
X424830000Y-115240000D01*
X424830000Y-115690000D01*
G37*
X422920000Y-113545000D02*
X423200000Y-113545000D01*
X423200000Y-112720000D01*
X423570000Y-112720000D01*
X423570000Y-113545000D01*
X423880000Y-113545000D01*
X423880000Y-115435000D01*
X423570000Y-115435000D01*
X423570000Y-116260000D01*
X423200000Y-116260000D01*
X423200000Y-115435000D01*
X422920000Y-115435000D01*
X422920000Y-116260000D01*
X422550000Y-116260000D01*
X422550000Y-115435000D01*
X422240000Y-115435000D01*
X422240000Y-113545000D01*
X422550000Y-113545000D01*
X422550000Y-112720000D01*
X422920000Y-112720000D01*
X422920000Y-113545000D01*
G36*
X422920000Y-113545000D02*
G01*
X423200000Y-113545000D01*
X423200000Y-112720000D01*
X423570000Y-112720000D01*
X423570000Y-113545000D01*
X423880000Y-113545000D01*
X423880000Y-115435000D01*
X423570000Y-115435000D01*
X423570000Y-116260000D01*
X423200000Y-116260000D01*
X423200000Y-115435000D01*
X422920000Y-115435000D01*
X422920000Y-116260000D01*
X422550000Y-116260000D01*
X422550000Y-115435000D01*
X422240000Y-115435000D01*
X422240000Y-113545000D01*
X422550000Y-113545000D01*
X422550000Y-112720000D01*
X422920000Y-112720000D01*
X422920000Y-113545000D01*
G37*
X402007389Y-30874261D02*
X401582389Y-30874261D01*
X401582389Y-28147261D01*
X402007389Y-28147261D01*
X402007389Y-30874261D01*
G36*
X402007389Y-30874261D02*
G01*
X401582389Y-30874261D01*
X401582389Y-28147261D01*
X402007389Y-28147261D01*
X402007389Y-30874261D01*
G37*
X402507389Y-30874261D02*
X402082389Y-30874261D01*
X402082389Y-28147261D01*
X402507389Y-28147261D01*
X402507389Y-30874261D01*
G36*
X402507389Y-30874261D02*
G01*
X402082389Y-30874261D01*
X402082389Y-28147261D01*
X402507389Y-28147261D01*
X402507389Y-30874261D01*
G37*
X403007389Y-30874261D02*
X402582389Y-30874261D01*
X402582389Y-28147261D01*
X403007389Y-28147261D01*
X403007389Y-30874261D01*
G36*
X403007389Y-30874261D02*
G01*
X402582389Y-30874261D01*
X402582389Y-28147261D01*
X403007389Y-28147261D01*
X403007389Y-30874261D01*
G37*
X403507389Y-30874261D02*
X403082389Y-30874261D01*
X403082389Y-28147261D01*
X403507389Y-28147261D01*
X403507389Y-30874261D01*
G36*
X403507389Y-30874261D02*
G01*
X403082389Y-30874261D01*
X403082389Y-28147261D01*
X403507389Y-28147261D01*
X403507389Y-30874261D01*
G37*
X404007389Y-30874261D02*
X403582389Y-30874261D01*
X403582389Y-28147261D01*
X404007389Y-28147261D01*
X404007389Y-30874261D01*
G36*
X404007389Y-30874261D02*
G01*
X403582389Y-30874261D01*
X403582389Y-28147261D01*
X404007389Y-28147261D01*
X404007389Y-30874261D01*
G37*
X404507389Y-30874261D02*
X404082389Y-30874261D01*
X404082389Y-28147261D01*
X404507389Y-28147261D01*
X404507389Y-30874261D01*
G36*
X404507389Y-30874261D02*
G01*
X404082389Y-30874261D01*
X404082389Y-28147261D01*
X404507389Y-28147261D01*
X404507389Y-30874261D01*
G37*
X405007389Y-30874261D02*
X404582389Y-30874261D01*
X404582389Y-28147261D01*
X405007389Y-28147261D01*
X405007389Y-30874261D01*
G36*
X405007389Y-30874261D02*
G01*
X404582389Y-30874261D01*
X404582389Y-28147261D01*
X405007389Y-28147261D01*
X405007389Y-30874261D01*
G37*
X405507389Y-30874261D02*
X405082389Y-30874261D01*
X405082389Y-28147261D01*
X405507389Y-28147261D01*
X405507389Y-30874261D01*
G36*
X405507389Y-30874261D02*
G01*
X405082389Y-30874261D01*
X405082389Y-28147261D01*
X405507389Y-28147261D01*
X405507389Y-30874261D01*
G37*
X406007389Y-30874261D02*
X405582389Y-30874261D01*
X405582389Y-28147261D01*
X406007389Y-28147261D01*
X406007389Y-30874261D01*
G36*
X406007389Y-30874261D02*
G01*
X405582389Y-30874261D01*
X405582389Y-28147261D01*
X406007389Y-28147261D01*
X406007389Y-30874261D01*
G37*
X406507389Y-30874261D02*
X406082389Y-30874261D01*
X406082389Y-28147261D01*
X406507389Y-28147261D01*
X406507389Y-30874261D01*
G36*
X406507389Y-30874261D02*
G01*
X406082389Y-30874261D01*
X406082389Y-28147261D01*
X406507389Y-28147261D01*
X406507389Y-30874261D01*
G37*
X407007389Y-30874261D02*
X406582389Y-30874261D01*
X406582389Y-28147261D01*
X407007389Y-28147261D01*
X407007389Y-30874261D01*
G36*
X407007389Y-30874261D02*
G01*
X406582389Y-30874261D01*
X406582389Y-28147261D01*
X407007389Y-28147261D01*
X407007389Y-30874261D01*
G37*
X407507389Y-30874261D02*
X407082389Y-30874261D01*
X407082389Y-28147261D01*
X407507389Y-28147261D01*
X407507389Y-30874261D01*
G36*
X407507389Y-30874261D02*
G01*
X407082389Y-30874261D01*
X407082389Y-28147261D01*
X407507389Y-28147261D01*
X407507389Y-30874261D01*
G37*
X408007389Y-30874261D02*
X407582389Y-30874261D01*
X407582389Y-28147261D01*
X408007389Y-28147261D01*
X408007389Y-30874261D01*
G36*
X408007389Y-30874261D02*
G01*
X407582389Y-30874261D01*
X407582389Y-28147261D01*
X408007389Y-28147261D01*
X408007389Y-30874261D01*
G37*
X408507389Y-30874261D02*
X408082389Y-30874261D01*
X408082389Y-28147261D01*
X408507389Y-28147261D01*
X408507389Y-30874261D01*
G36*
X408507389Y-30874261D02*
G01*
X408082389Y-30874261D01*
X408082389Y-28147261D01*
X408507389Y-28147261D01*
X408507389Y-30874261D01*
G37*
X409007389Y-30874261D02*
X408582389Y-30874261D01*
X408582389Y-28147261D01*
X409007389Y-28147261D01*
X409007389Y-30874261D01*
G36*
X409007389Y-30874261D02*
G01*
X408582389Y-30874261D01*
X408582389Y-28147261D01*
X409007389Y-28147261D01*
X409007389Y-30874261D01*
G37*
X409507389Y-30874261D02*
X409082389Y-30874261D01*
X409082389Y-28147261D01*
X409507389Y-28147261D01*
X409507389Y-30874261D01*
G36*
X409507389Y-30874261D02*
G01*
X409082389Y-30874261D01*
X409082389Y-28147261D01*
X409507389Y-28147261D01*
X409507389Y-30874261D01*
G37*
X410007389Y-30874261D02*
X409582389Y-30874261D01*
X409582389Y-28147261D01*
X410007389Y-28147261D01*
X410007389Y-30874261D01*
G36*
X410007389Y-30874261D02*
G01*
X409582389Y-30874261D01*
X409582389Y-28147261D01*
X410007389Y-28147261D01*
X410007389Y-30874261D01*
G37*
X410507389Y-30874261D02*
X410082389Y-30874261D01*
X410082389Y-28147261D01*
X410507389Y-28147261D01*
X410507389Y-30874261D01*
G36*
X410507389Y-30874261D02*
G01*
X410082389Y-30874261D01*
X410082389Y-28147261D01*
X410507389Y-28147261D01*
X410507389Y-30874261D01*
G37*
X411007389Y-30874261D02*
X410582389Y-30874261D01*
X410582389Y-28147261D01*
X411007389Y-28147261D01*
X411007389Y-30874261D01*
G36*
X411007389Y-30874261D02*
G01*
X410582389Y-30874261D01*
X410582389Y-28147261D01*
X411007389Y-28147261D01*
X411007389Y-30874261D01*
G37*
D12*
X307500000Y-160700000D03*
D13*
X307500000Y-158200000D03*
X307500000Y-155700000D03*
X304500000Y-160700000D03*
X304500000Y-158200000D03*
X304500000Y-155700000D03*
X307270000Y-164400000D03*
X304730000Y-164400000D03*
D14*
X313820000Y-90580000D03*
X313820000Y-89030000D03*
X313820000Y-87480000D03*
D15*
X305740000Y-110513333D03*
D16*
X303740000Y-110513333D03*
X301740000Y-110513333D03*
D17*
X443120000Y-29910000D03*
X440170000Y-29910000D03*
D18*
X404515000Y-143100000D03*
X402965000Y-143100000D03*
D19*
X360400000Y-171360000D03*
X367600000Y-171360000D03*
D20*
X361250000Y-170800000D03*
X361750000Y-170800000D03*
X362250000Y-170800000D03*
X362750000Y-170800000D03*
X363250000Y-170800000D03*
X363750000Y-170800000D03*
X364250000Y-170800000D03*
X364750000Y-170800000D03*
X365250000Y-170800000D03*
X365750000Y-170800000D03*
X366250000Y-170800000D03*
X366750000Y-170800000D03*
D21*
X366800000Y-172010000D03*
X366400000Y-172710000D03*
X365600000Y-172710000D03*
X365200000Y-172010000D03*
X364800000Y-172710000D03*
X364400000Y-172010000D03*
X363600000Y-172010000D03*
X363200000Y-172710000D03*
X362800000Y-172010000D03*
X362400000Y-172710000D03*
X361600000Y-172710000D03*
X361200000Y-172010000D03*
D22*
X359510000Y-177000000D03*
X359870000Y-172600000D03*
X368130000Y-172600000D03*
X368490000Y-177000000D03*
D23*
X344607513Y-160010900D03*
X345107638Y-160010900D03*
X345607762Y-160010900D03*
X346107887Y-160010900D03*
X346107887Y-158309100D03*
X345607762Y-158309100D03*
X345107638Y-158309100D03*
X344607513Y-158309100D03*
D24*
X374903789Y-43720761D03*
X372185989Y-43720761D03*
D25*
X409190000Y-127695000D03*
X409190000Y-126045000D03*
D26*
X372799889Y-39080761D03*
X373449889Y-39080761D03*
X374099889Y-39080761D03*
X374749889Y-39080761D03*
D27*
X373774889Y-37230761D03*
D28*
X372799889Y-36155761D03*
X373449889Y-36155761D03*
X374099889Y-36155761D03*
X374749889Y-36155761D03*
D29*
X414340000Y-81020000D03*
X414340000Y-67320000D03*
X423840000Y-81020000D03*
X423840000Y-67320000D03*
D30*
X404565000Y-141640000D03*
X402915000Y-141640000D03*
D15*
X416270000Y-84930000D03*
D16*
X414270000Y-84930000D03*
X412270000Y-84930000D03*
D25*
X410660000Y-127695000D03*
X410660000Y-126045000D03*
D31*
X349457700Y-144939500D03*
X354957700Y-144939500D03*
D32*
X375890000Y-170050000D03*
X380290000Y-170050000D03*
D33*
X408890000Y-143345000D03*
X408890000Y-144895000D03*
D34*
X415710000Y-115336400D03*
X415710000Y-116986400D03*
D33*
X347047700Y-144239500D03*
X347047700Y-145789500D03*
X410420000Y-148155000D03*
X410420000Y-149705000D03*
D35*
X384750000Y-122550000D03*
X385249999Y-122550000D03*
X385750001Y-122550000D03*
X386250000Y-122550000D03*
X386750001Y-122550000D03*
X387250000Y-122550000D03*
X387749999Y-122550000D03*
X388250001Y-122550000D03*
X388750000Y-122550000D03*
X389250002Y-122550000D03*
X389750000Y-122550000D03*
X390250000Y-122550000D03*
X390750001Y-122550000D03*
X391250000Y-122550000D03*
X391750002Y-122550000D03*
X392250001Y-122550000D03*
X392750000Y-122550000D03*
X393250001Y-122550000D03*
X393750000Y-122550000D03*
X394249999Y-122550000D03*
X394750001Y-122550000D03*
X395250000Y-122550000D03*
D36*
X382450010Y-125249999D03*
X397549990Y-125249999D03*
D25*
X367450000Y-39775000D03*
X367450000Y-38125000D03*
D37*
X367071498Y-65470000D03*
X372721500Y-65470000D03*
D14*
X416500000Y-127645000D03*
X416500000Y-126095000D03*
D38*
X416350000Y-25730000D03*
X416350000Y-22780000D03*
D39*
X297150200Y-148160500D03*
X298800200Y-148160500D03*
D40*
X422050000Y-126957500D03*
D16*
X422050000Y-124957500D03*
X422050000Y-122957500D03*
D41*
X385950000Y-109217500D03*
X387500000Y-109217500D03*
X389050000Y-109217500D03*
D33*
X394200000Y-161570000D03*
X394200000Y-163120000D03*
D42*
X374990000Y-62720000D03*
D41*
X410074889Y-43700761D03*
X411624889Y-43700761D03*
D43*
X380425000Y-41330000D03*
D44*
X382455000Y-41330000D03*
X384485000Y-41330000D03*
X386515000Y-41330000D03*
X388545000Y-41330000D03*
X390575000Y-41330000D03*
X381435000Y-37770000D03*
X383470000Y-37770000D03*
X387530000Y-37770000D03*
X389565000Y-37770000D03*
D45*
X378275000Y-43770000D03*
X380815000Y-43770000D03*
X387660000Y-43770000D03*
X390185000Y-43770000D03*
X392725000Y-43770000D03*
D46*
X389005000Y-32190000D03*
D45*
X386505000Y-32190000D03*
X384495000Y-32190000D03*
X381995000Y-32190000D03*
D47*
X393565000Y-26980000D03*
X393555000Y-37770000D03*
D48*
X392065000Y-35180000D03*
X392065000Y-29490000D03*
X378935000Y-35180000D03*
X378935000Y-29490000D03*
D47*
X377445000Y-37700000D03*
X377435000Y-26980000D03*
D46*
X389005000Y-34810000D03*
D45*
X386505000Y-34810000D03*
X384495000Y-34810000D03*
X381995000Y-34810000D03*
D39*
X373369889Y-40430761D03*
X375019889Y-40430761D03*
D24*
X406621100Y-96850000D03*
X409338900Y-96850000D03*
D49*
X357787700Y-159980000D03*
X357787700Y-158080000D03*
D50*
X470000000Y-23000000D03*
D33*
X424240000Y-117095000D03*
X424240000Y-118645000D03*
D51*
X358680000Y-33030000D03*
X357730000Y-35230000D03*
X356780000Y-33030000D03*
D52*
X409980900Y-78145001D03*
X408080900Y-78145001D03*
D53*
X472000000Y-28000000D03*
X295000000Y-28000000D03*
D30*
X343282700Y-144909500D03*
X341632700Y-144909500D03*
D54*
X399981000Y-57730000D03*
X398330000Y-57730000D03*
D18*
X347322700Y-161310000D03*
X345772700Y-161310000D03*
D33*
X414800000Y-148160000D03*
X414800000Y-149710000D03*
D49*
X398199668Y-147910900D03*
X398199668Y-146010900D03*
D30*
X412385000Y-96860000D03*
X410735000Y-96860000D03*
D24*
X405628900Y-93770000D03*
X402911100Y-93770000D03*
D55*
X431415000Y-83700000D03*
X431415000Y-106850000D03*
D56*
X430165000Y-118500000D03*
D57*
X428165000Y-117500000D03*
X430165000Y-116500000D03*
X428165000Y-115500000D03*
X430165000Y-114500000D03*
X428165000Y-113500000D03*
X430165000Y-112500000D03*
X428165000Y-111500000D03*
X430165000Y-110500000D03*
X428165000Y-109500000D03*
X430165000Y-108500000D03*
X428165000Y-105500000D03*
X430165000Y-104500000D03*
X428165000Y-103500000D03*
X430165000Y-102500000D03*
X428165000Y-101500000D03*
X430165000Y-100500000D03*
X428165000Y-99500000D03*
X430165000Y-98500000D03*
X428165000Y-97500000D03*
X430165000Y-96500000D03*
X428165000Y-95500000D03*
X430165000Y-94500000D03*
X428165000Y-93500000D03*
X430165000Y-92500000D03*
X428165000Y-91500000D03*
X430165000Y-90500000D03*
X428165000Y-89500000D03*
X430165000Y-88500000D03*
X428165000Y-87500000D03*
X430165000Y-86500000D03*
X428165000Y-85500000D03*
X432665000Y-118500000D03*
X434665000Y-117500000D03*
X432665000Y-116500000D03*
X434665000Y-115500000D03*
X432665000Y-114500000D03*
X434665000Y-113500000D03*
X432665000Y-112500000D03*
X434665000Y-111500000D03*
X432665000Y-110500000D03*
X434665000Y-109500000D03*
X432665000Y-108500000D03*
X434665000Y-105500000D03*
X432665000Y-104500000D03*
X434665000Y-103500000D03*
X432665000Y-102500000D03*
X434665000Y-101500000D03*
X432665000Y-100500000D03*
X434665000Y-99500000D03*
X432665000Y-98500000D03*
X434665000Y-97500000D03*
X432665000Y-96500000D03*
X434665000Y-95500000D03*
X432665000Y-94500000D03*
X434665000Y-93500000D03*
X432665000Y-92500000D03*
X434665000Y-91500000D03*
X432665000Y-90500000D03*
X434665000Y-89500000D03*
X432665000Y-88500000D03*
X434665000Y-87500000D03*
X432665000Y-86500000D03*
X434665000Y-85500000D03*
D58*
X407710000Y-169570000D03*
D59*
X407710000Y-174570000D03*
D60*
X305380000Y-27830000D03*
D61*
X332380000Y-37530000D03*
X332380000Y-35130000D03*
X318380000Y-37530000D03*
X318380000Y-35130000D03*
X325380000Y-37530000D03*
X325380000Y-35130000D03*
D39*
X402065000Y-73980000D03*
X403715000Y-73980000D03*
D25*
X419490000Y-144945000D03*
X419490000Y-143295000D03*
D62*
X388000000Y-170900000D03*
X393000000Y-170900000D03*
X398000000Y-170900000D03*
D63*
X390500000Y-168300000D03*
X395500000Y-168300000D03*
D64*
X401000000Y-167800000D03*
X385000000Y-167800000D03*
D41*
X392370000Y-85790000D03*
X393920000Y-85790000D03*
D25*
X371830000Y-163800000D03*
X371830000Y-162150000D03*
D39*
X311550000Y-109990000D03*
X313200000Y-109990000D03*
D14*
X405970000Y-144895000D03*
X405970000Y-143345000D03*
D34*
X412110000Y-123080000D03*
X412110000Y-124730000D03*
D41*
X386031000Y-103300000D03*
X387581000Y-103300000D03*
D14*
X399810000Y-133235000D03*
X399810000Y-131685000D03*
D33*
X388350000Y-46385000D03*
X388350000Y-47935000D03*
X411390000Y-143345000D03*
X411390000Y-144895000D03*
D18*
X298755000Y-155090000D03*
X297205000Y-155090000D03*
X406655000Y-105230000D03*
X405105000Y-105230000D03*
D65*
X368260000Y-70720000D03*
X371360000Y-70720000D03*
D42*
X367400000Y-36710000D03*
D25*
X415040000Y-124735000D03*
X415040000Y-123085000D03*
X418240000Y-27235000D03*
X418240000Y-25585000D03*
D66*
X316500000Y-92000000D03*
D67*
X336500000Y-92000000D03*
D68*
X317250000Y-86725000D03*
X317500000Y-94275000D03*
X317750000Y-86725000D03*
X318000000Y-94275000D03*
X318250000Y-86725000D03*
X318500000Y-94275000D03*
X318750000Y-86725000D03*
X319000000Y-94275000D03*
X319250000Y-86725000D03*
X319500000Y-94275000D03*
X319750000Y-86725000D03*
X320000000Y-94275000D03*
X320250000Y-86725000D03*
X320500000Y-94275000D03*
X320750000Y-86725000D03*
X321000000Y-94275000D03*
X321250000Y-86725000D03*
X321500000Y-94275000D03*
X321750000Y-86725000D03*
X322000000Y-94275000D03*
X322250000Y-86725000D03*
X322500000Y-94275000D03*
X322750000Y-86725000D03*
X323000000Y-94275000D03*
X323250000Y-86725000D03*
X323500000Y-94275000D03*
X323750000Y-86725000D03*
X324000000Y-94275000D03*
X324250000Y-86725000D03*
X324500000Y-94275000D03*
X324750000Y-86725000D03*
X325000000Y-94275000D03*
X325250000Y-86725000D03*
X325500000Y-94275000D03*
X325750000Y-86725000D03*
X326000000Y-94275000D03*
X326250000Y-86725000D03*
X326500000Y-94275000D03*
X326750000Y-86725000D03*
X327000000Y-94275000D03*
X327250000Y-86725000D03*
X327500000Y-94275000D03*
X327750000Y-86725000D03*
X328000000Y-94275000D03*
X328250000Y-86725000D03*
X328500000Y-94275000D03*
X328750000Y-86725000D03*
X329000000Y-94275000D03*
X329250000Y-86725000D03*
X329500000Y-94275000D03*
X329750000Y-86725000D03*
X330000000Y-94275000D03*
X330250000Y-86725000D03*
X330500000Y-94275000D03*
X330750000Y-86725000D03*
X331000000Y-94275000D03*
X331250000Y-86725000D03*
X331500000Y-94275000D03*
X333750000Y-86725000D03*
X334000000Y-94275000D03*
X334250000Y-86725000D03*
X334500000Y-94275000D03*
X334750000Y-86725000D03*
X335000000Y-94275000D03*
X335250000Y-86725000D03*
X335500000Y-94275000D03*
X335750000Y-86725000D03*
D69*
X326500000Y-120250000D03*
X326500000Y-132250000D03*
X326500000Y-150250000D03*
X326500000Y-170250000D03*
D70*
X316150000Y-87500000D03*
X336850000Y-87500000D03*
D71*
X308500000Y-167250000D03*
D72*
X306000000Y-167250000D03*
D71*
X303500000Y-167250000D03*
X308500000Y-169750000D03*
D72*
X306000000Y-169750000D03*
D71*
X303500000Y-169750000D03*
D72*
X309800000Y-168500000D03*
D71*
X302200000Y-168500000D03*
D33*
X413340000Y-148155000D03*
X413340000Y-149705000D03*
D18*
X374969889Y-41890761D03*
X373419889Y-41890761D03*
D34*
X380350000Y-46755000D03*
X380350000Y-48405000D03*
D39*
X341762700Y-158320000D03*
X343412700Y-158320000D03*
D41*
X420255000Y-141840000D03*
X421805000Y-141840000D03*
X398495000Y-60700000D03*
X400045000Y-60700000D03*
D30*
X383839668Y-144790900D03*
X382189668Y-144790900D03*
D39*
X353065000Y-174500000D03*
X354715000Y-174500000D03*
D30*
X383839668Y-147710900D03*
X382189668Y-147710900D03*
D15*
X305740000Y-99440000D03*
D16*
X303740000Y-99440000D03*
D73*
X392329800Y-118125021D03*
X392329800Y-118775007D03*
X392329800Y-119424993D03*
X392329800Y-120074979D03*
X398070200Y-120074979D03*
X398070200Y-119424993D03*
X398070200Y-118775007D03*
X398070200Y-118125021D03*
D33*
X392740000Y-161570000D03*
X392740000Y-163120000D03*
D74*
X345817700Y-163030000D03*
X347717700Y-163030000D03*
D34*
X412210000Y-115315000D03*
X412210000Y-116965000D03*
D75*
X385380000Y-47920000D03*
X385380000Y-48420000D03*
X385380000Y-48920000D03*
X386680000Y-48920000D03*
X386680000Y-48420000D03*
X386680000Y-47920000D03*
X382319850Y-47920000D03*
X382319850Y-48420000D03*
X382319850Y-48920000D03*
X383619850Y-48920000D03*
X383619850Y-48420000D03*
X383619850Y-47920000D03*
D39*
X296795000Y-140635000D03*
X298445000Y-140635000D03*
D76*
X304380000Y-116270000D03*
D77*
X304380000Y-136270000D03*
D30*
X387577000Y-104830000D03*
X385927000Y-104830000D03*
D24*
X313258900Y-113740000D03*
X310541100Y-113740000D03*
D54*
X311550000Y-97190000D03*
X313201000Y-97190000D03*
D18*
X403665000Y-72510000D03*
X402115000Y-72510000D03*
D25*
X422750000Y-118705000D03*
X422750000Y-117055000D03*
D78*
X418160000Y-127720000D03*
X418160000Y-126020000D03*
D79*
X403395000Y-102815000D03*
X403395000Y-105365000D03*
D49*
X359747700Y-159970000D03*
X359747700Y-158070000D03*
D34*
X391280000Y-161520000D03*
X391280000Y-163170000D03*
D18*
X382950000Y-112620000D03*
X381400000Y-112620000D03*
X401865000Y-36180000D03*
X400315000Y-36180000D03*
D39*
X398450000Y-59240000D03*
X400100000Y-59240000D03*
D80*
X296840000Y-146540000D03*
X298770400Y-146540000D03*
X297805200Y-144381000D03*
D41*
X420245000Y-131900000D03*
X421795000Y-131900000D03*
D33*
X411880000Y-148155000D03*
X411880000Y-149705000D03*
D25*
X345117700Y-156595000D03*
X345117700Y-154945000D03*
D53*
X466000000Y-162000000D03*
D81*
X369094889Y-24290761D03*
D82*
X369094889Y-28790761D03*
D83*
X374794889Y-24290761D03*
X374794889Y-30390761D03*
X363394889Y-24290761D03*
X363394889Y-30390761D03*
D14*
X412120000Y-127645000D03*
X412120000Y-126095000D03*
D73*
X386934700Y-91899999D03*
X386934700Y-92550000D03*
X386934700Y-93200001D03*
X386934700Y-93850000D03*
X386934700Y-94499999D03*
X386934700Y-95150000D03*
X386934700Y-95799999D03*
X392675100Y-95800001D03*
X392675100Y-95150000D03*
X392675100Y-94500001D03*
X392675100Y-93850000D03*
X392675100Y-93200001D03*
X392675100Y-92550000D03*
X392675100Y-91900001D03*
D42*
X400640000Y-141780000D03*
D23*
X385039543Y-147922700D03*
X385539668Y-147922700D03*
X386039792Y-147922700D03*
X386539917Y-147922700D03*
X386539917Y-146220900D03*
X386039792Y-146220900D03*
X385539668Y-146220900D03*
X385039543Y-146220900D03*
D14*
X370190000Y-169640000D03*
X370190000Y-168090000D03*
D50*
X430500000Y-174500000D03*
D18*
X406655000Y-108160000D03*
X405105000Y-108160000D03*
D33*
X414300000Y-143335000D03*
X414300000Y-144885000D03*
D54*
X311549500Y-108230000D03*
X313200500Y-108230000D03*
D84*
X357230000Y-28630000D03*
X357230000Y-24830000D03*
D18*
X404535000Y-139570000D03*
X402985000Y-139570000D03*
D54*
X400874500Y-84850000D03*
X402525500Y-84850000D03*
D18*
X403635000Y-137070000D03*
X402085000Y-137070000D03*
D33*
X371130000Y-121270000D03*
X371130000Y-122820000D03*
D25*
X418030000Y-144945000D03*
X418030000Y-143295000D03*
D85*
X407589999Y-141240400D03*
X407990001Y-141240400D03*
X408390000Y-141240400D03*
X408790000Y-141240400D03*
X409190001Y-141240400D03*
X409590001Y-141240400D03*
X409990000Y-141240400D03*
X410389999Y-141240400D03*
X410790001Y-141240400D03*
X411190000Y-141240400D03*
X411589999Y-141240400D03*
X411990001Y-141240400D03*
X412390000Y-141240400D03*
X412789999Y-141240400D03*
X413190001Y-141240400D03*
X413590000Y-141240400D03*
X413989999Y-141240400D03*
X414389999Y-141240400D03*
X414790000Y-141240400D03*
X415189999Y-141240400D03*
X415589999Y-141240400D03*
X415990000Y-141240400D03*
X416390000Y-141240400D03*
X416789999Y-141240400D03*
X417190001Y-141240400D03*
D86*
X418130400Y-140300001D03*
X418130400Y-139899999D03*
X418130400Y-139500000D03*
X418130400Y-139100000D03*
X418130400Y-138699999D03*
X418130400Y-138299999D03*
X418130400Y-137900000D03*
X418130400Y-137500001D03*
X418130400Y-137099999D03*
X418130400Y-136700000D03*
X418130400Y-136300001D03*
X418130400Y-135899999D03*
X418130400Y-135500000D03*
X418130400Y-135100001D03*
X418130400Y-134699999D03*
X418130400Y-134300000D03*
X418130400Y-133900001D03*
X418130400Y-133500001D03*
X418130400Y-133100000D03*
X418130400Y-132700001D03*
X418130400Y-132300001D03*
X418130400Y-131900000D03*
X418130400Y-131500000D03*
X418130400Y-131100001D03*
X418130400Y-130700002D03*
D85*
X417190001Y-129759600D03*
X416789999Y-129759600D03*
X416390000Y-129759600D03*
X415990000Y-129759600D03*
X415589999Y-129759600D03*
X415189999Y-129759600D03*
X414790000Y-129759600D03*
X414390001Y-129759600D03*
X413989999Y-129759600D03*
X413590000Y-129759600D03*
X413190001Y-129759600D03*
X412789999Y-129759600D03*
X412390000Y-129759600D03*
X411990001Y-129759600D03*
X411589999Y-129759600D03*
X411190000Y-129759600D03*
X410790001Y-129759600D03*
X410390001Y-129759600D03*
X409990000Y-129759600D03*
X409590001Y-129759600D03*
X409190001Y-129759600D03*
X408790000Y-129759600D03*
X408390000Y-129759600D03*
X407990001Y-129759600D03*
X407590002Y-129759600D03*
D86*
X406649600Y-130699999D03*
X406649600Y-131100001D03*
X406649600Y-131500000D03*
X406649600Y-131900000D03*
X406649600Y-132300001D03*
X406649600Y-132700001D03*
X406649600Y-133100000D03*
X406649600Y-133499999D03*
X406649600Y-133900001D03*
X406649600Y-134300000D03*
X406649600Y-134699999D03*
X406649600Y-135100001D03*
X406649600Y-135500000D03*
X406649600Y-135899999D03*
X406649600Y-136300001D03*
X406649600Y-136700000D03*
X406649600Y-137099999D03*
X406649600Y-137499999D03*
X406649600Y-137900000D03*
X406649600Y-138299999D03*
X406649600Y-138699999D03*
X406649600Y-139100000D03*
X406649600Y-139500000D03*
X406649600Y-139899999D03*
X406649600Y-140299998D03*
D87*
X412390000Y-135500000D03*
D18*
X406660000Y-102960000D03*
X405110000Y-102960000D03*
D25*
X357010000Y-23305000D03*
X357010000Y-21655000D03*
D88*
X408998200Y-116737800D03*
X408998200Y-114020000D03*
D18*
X406650000Y-106690000D03*
X405100000Y-106690000D03*
D39*
X391235000Y-98950000D03*
X392885000Y-98950000D03*
D41*
X386031000Y-100782500D03*
X387581000Y-100782500D03*
D34*
X410650000Y-123080000D03*
X410650000Y-124730000D03*
D15*
X304450000Y-153440000D03*
D16*
X302450000Y-153440000D03*
D15*
X305740000Y-103131111D03*
D16*
X303740000Y-103131111D03*
D30*
X390425000Y-60770000D03*
X388775000Y-60770000D03*
D18*
X382955000Y-114080000D03*
X381405000Y-114080000D03*
D89*
X404540000Y-148050000D03*
X406740000Y-148050000D03*
X406740000Y-146450000D03*
X404540000Y-146450000D03*
D41*
X341702700Y-143449500D03*
X343252700Y-143449500D03*
D74*
X386389668Y-150930900D03*
X388289668Y-150930900D03*
D49*
X359597700Y-148049500D03*
X359597700Y-146149500D03*
D90*
X392470000Y-63060000D03*
X393740000Y-63060000D03*
X395010000Y-63060000D03*
X396280000Y-63060000D03*
X396280000Y-57660000D03*
X395010000Y-57660000D03*
X393740000Y-57660000D03*
X392470000Y-57660000D03*
D30*
X406670000Y-78390000D03*
X405020000Y-78390000D03*
D91*
X358600000Y-37365000D03*
X358600000Y-38635000D03*
X365400000Y-38635000D03*
X365400000Y-37365000D03*
D31*
X390039668Y-144790900D03*
X395539668Y-144790900D03*
D92*
X469000000Y-160660000D03*
X471540000Y-160660000D03*
X469000000Y-158120000D03*
X471540000Y-158120000D03*
X469000000Y-155580000D03*
X471540000Y-155580000D03*
X469000000Y-153040000D03*
X471540000Y-153040000D03*
X469000000Y-150500000D03*
X471540000Y-150500000D03*
X469000000Y-147960000D03*
X471540000Y-147960000D03*
X469000000Y-145420000D03*
X471540000Y-145420000D03*
X469000000Y-142880000D03*
X471540000Y-142880000D03*
X469000000Y-140340000D03*
X471540000Y-140340000D03*
X469000000Y-137800000D03*
X471540000Y-137800000D03*
D93*
X397260000Y-49310000D03*
X397260000Y-53710000D03*
D41*
X385950000Y-106700000D03*
X387500000Y-106700000D03*
X389050000Y-106700000D03*
D30*
X397205000Y-130700000D03*
X395555000Y-130700000D03*
D41*
X391214900Y-90410000D03*
X392764900Y-90410000D03*
D14*
X407730000Y-127645000D03*
X407730000Y-126095000D03*
D25*
X416560000Y-144945000D03*
X416560000Y-143295000D03*
D93*
X391350000Y-49280000D03*
X391350000Y-53680000D03*
D23*
X344457513Y-148070400D03*
X344957638Y-148070400D03*
X345457762Y-148070400D03*
X345957887Y-148070400D03*
X345957887Y-146368600D03*
X345457762Y-146368600D03*
X344957638Y-146368600D03*
X344457513Y-146368600D03*
D94*
X423120000Y-93290000D03*
D95*
X420580000Y-93290000D03*
D94*
X418040000Y-93290000D03*
X423120000Y-96465000D03*
X418040000Y-96465000D03*
D95*
X421596000Y-98370000D03*
X419564000Y-98370000D03*
D96*
X419945000Y-94560000D03*
X421215000Y-94560000D03*
X419945000Y-95830000D03*
X421215000Y-95830000D03*
X419945000Y-97100000D03*
X421215000Y-97100000D03*
D88*
X413970000Y-118148900D03*
X413970000Y-115431100D03*
D97*
X358632500Y-31200000D03*
X356807500Y-31200000D03*
D18*
X414784889Y-42030761D03*
X413234889Y-42030761D03*
X411684889Y-42030761D03*
D39*
X354135000Y-40680000D03*
X355785000Y-40680000D03*
X388780000Y-59310000D03*
X390430000Y-59310000D03*
D51*
X412024889Y-45430761D03*
X410124889Y-45430761D03*
X411074889Y-47630761D03*
D33*
X405820000Y-164735000D03*
X405820000Y-166285000D03*
D30*
X343262700Y-147849500D03*
X341612700Y-147849500D03*
D33*
X363570000Y-166995000D03*
X363570000Y-168545000D03*
D41*
X341812700Y-155400000D03*
X343362700Y-155400000D03*
D18*
X411595000Y-32690000D03*
X410045000Y-32690000D03*
D39*
X311550500Y-99000000D03*
X313200500Y-99000000D03*
D14*
X388350000Y-163120000D03*
X388350000Y-161570000D03*
D39*
X408590000Y-71320000D03*
X410240000Y-71320000D03*
D34*
X371660000Y-168030000D03*
X371660000Y-169680000D03*
D39*
X341622700Y-146369500D03*
X343272700Y-146369500D03*
D41*
X420245000Y-135100000D03*
X421795000Y-135100000D03*
D30*
X392875000Y-97490000D03*
X391225000Y-97490000D03*
D42*
X360240000Y-142020000D03*
D14*
X370370000Y-163750000D03*
X370370000Y-162200000D03*
D25*
X418230000Y-24265000D03*
X418230000Y-22615000D03*
D30*
X412380000Y-98900000D03*
X410730000Y-98900000D03*
D34*
X397130000Y-161520000D03*
X397130000Y-163170000D03*
D98*
X370496200Y-171400000D03*
X370496200Y-172350000D03*
X370496200Y-173300000D03*
X372883800Y-173300000D03*
X372883800Y-171400000D03*
D39*
X356020000Y-174500000D03*
X357670000Y-174500000D03*
D25*
X418650000Y-116995000D03*
X418650000Y-115345000D03*
D99*
X343000000Y-89250000D03*
X343000000Y-137250000D03*
X376000000Y-89250000D03*
X376000000Y-137250000D03*
D100*
X341000000Y-105950000D03*
X344080000Y-105950000D03*
X341000000Y-106350000D03*
X344080000Y-106350000D03*
X341000000Y-106750000D03*
X344080000Y-106750000D03*
X341000000Y-107150000D03*
X344080000Y-107150000D03*
X341000000Y-107550000D03*
X344080000Y-107550000D03*
X341000000Y-107950000D03*
X344080000Y-107950000D03*
X341000000Y-108350000D03*
X344080000Y-108350000D03*
X341000000Y-108750000D03*
X344080000Y-108750000D03*
X341000000Y-109150000D03*
X344080000Y-109150000D03*
X341000000Y-109550000D03*
X344080000Y-109550000D03*
X341000000Y-109950000D03*
X344080000Y-109950000D03*
X341000000Y-110350000D03*
X344080000Y-110350000D03*
X341000000Y-110750000D03*
X344080000Y-110750000D03*
X341000000Y-111150000D03*
X344080000Y-111150000D03*
X341000000Y-111550000D03*
X344080000Y-111550000D03*
X341000000Y-111950000D03*
X344080000Y-111950000D03*
X341000000Y-112350000D03*
X344080000Y-112350000D03*
X341000000Y-112750000D03*
X344080000Y-112750000D03*
X341000000Y-113150000D03*
X344080000Y-113150000D03*
X341000000Y-113550000D03*
X344080000Y-113550000D03*
X341000000Y-113950000D03*
X344080000Y-113950000D03*
X341000000Y-114350000D03*
X344080000Y-114350000D03*
X341000000Y-114750000D03*
X344080000Y-114750000D03*
X341000000Y-115150000D03*
X344080000Y-115150000D03*
X341000000Y-115550000D03*
X344080000Y-115550000D03*
X341000000Y-115950000D03*
X344080000Y-115950000D03*
X341000000Y-116350000D03*
X344080000Y-116350000D03*
X341000000Y-116750000D03*
X344080000Y-116750000D03*
X341000000Y-117150000D03*
X344080000Y-117150000D03*
X341000000Y-117550000D03*
X344080000Y-117550000D03*
X341000000Y-117950000D03*
X344080000Y-117950000D03*
X341000000Y-118350000D03*
X344080000Y-118350000D03*
X341000000Y-118750000D03*
X344080000Y-118750000D03*
X341000000Y-119150000D03*
X344080000Y-119150000D03*
X341000000Y-119550000D03*
X344080000Y-119550000D03*
X341000000Y-119950000D03*
X344080000Y-119950000D03*
X341000000Y-120350000D03*
X344080000Y-120350000D03*
X341000000Y-120750000D03*
X344080000Y-120750000D03*
X341000000Y-121150000D03*
X344080000Y-121150000D03*
X341000000Y-121550000D03*
X344080000Y-121550000D03*
X341000000Y-121950000D03*
X344080000Y-121950000D03*
X341000000Y-122350000D03*
X344080000Y-122350000D03*
X341000000Y-122750000D03*
X344080000Y-122750000D03*
X341000000Y-123150000D03*
X344080000Y-123150000D03*
X341000000Y-123550000D03*
X344080000Y-123550000D03*
X341000000Y-123950000D03*
X344080000Y-123950000D03*
X341000000Y-124350000D03*
X344080000Y-124350000D03*
X341000000Y-124750000D03*
X344080000Y-124750000D03*
X341000000Y-125150000D03*
X344080000Y-125150000D03*
X341000000Y-125550000D03*
X344080000Y-125550000D03*
X374920000Y-105950000D03*
X378000000Y-105950000D03*
X374920000Y-106350000D03*
X378000000Y-106350000D03*
X374920000Y-106750000D03*
X378000000Y-106750000D03*
X374920000Y-107150000D03*
X378000000Y-107150000D03*
X374920000Y-107550000D03*
X378000000Y-107550000D03*
X374920000Y-107950000D03*
X378000000Y-107950000D03*
X374920000Y-108350000D03*
X378000000Y-108350000D03*
X374920000Y-108750000D03*
X378000000Y-108750000D03*
X374920000Y-109150000D03*
X378000000Y-109150000D03*
X374920000Y-109550000D03*
X378000000Y-109550000D03*
X374920000Y-109950000D03*
X378000000Y-109950000D03*
X374920000Y-110350000D03*
X378000000Y-110350000D03*
X374920000Y-110750000D03*
X378000000Y-110750000D03*
X374920000Y-111150000D03*
X378000000Y-111150000D03*
X374920000Y-111550000D03*
X378000000Y-111550000D03*
X374920000Y-111950000D03*
X378000000Y-111950000D03*
X374920000Y-112350000D03*
X378000000Y-112350000D03*
X374920000Y-112750000D03*
X378000000Y-112750000D03*
X374920000Y-113150000D03*
X378000000Y-113150000D03*
X374920000Y-113550000D03*
X378000000Y-113550000D03*
X374920000Y-113950000D03*
X378000000Y-113950000D03*
X374920000Y-114350000D03*
X378000000Y-114350000D03*
X374920000Y-114750000D03*
X378000000Y-114750000D03*
X374920000Y-115150000D03*
X378000000Y-115150000D03*
X374920000Y-115550000D03*
X378000000Y-115550000D03*
X374920000Y-115950000D03*
X378000000Y-115950000D03*
X374920000Y-116350000D03*
X378000000Y-116350000D03*
X374920000Y-116750000D03*
X378000000Y-116750000D03*
X374920000Y-117150000D03*
X378000000Y-117150000D03*
X374920000Y-117550000D03*
X378000000Y-117550000D03*
X374920000Y-117950000D03*
X378000000Y-117950000D03*
X374920000Y-118350000D03*
X378000000Y-118350000D03*
X374920000Y-118750000D03*
X378000000Y-118750000D03*
X374920000Y-119150000D03*
X378000000Y-119150000D03*
X374920000Y-119550000D03*
X378000000Y-119550000D03*
X374920000Y-119950000D03*
X378000000Y-119950000D03*
X374920000Y-120350000D03*
X378000000Y-120350000D03*
X374920000Y-120750000D03*
X378000000Y-120750000D03*
X374920000Y-121150000D03*
X378000000Y-121150000D03*
X374920000Y-121550000D03*
X378000000Y-121550000D03*
X374920000Y-121950000D03*
X378000000Y-121950000D03*
X374920000Y-122350000D03*
X378000000Y-122350000D03*
X374920000Y-122750000D03*
X378000000Y-122750000D03*
X374920000Y-123150000D03*
X378000000Y-123150000D03*
X374920000Y-123550000D03*
X378000000Y-123550000D03*
X374920000Y-123950000D03*
X378000000Y-123950000D03*
X374920000Y-124350000D03*
X378000000Y-124350000D03*
X374920000Y-124750000D03*
X378000000Y-124750000D03*
X374920000Y-125150000D03*
X378000000Y-125150000D03*
X374920000Y-125550000D03*
X378000000Y-125550000D03*
D101*
X371069999Y-165670000D03*
X371069999Y-166070000D03*
D102*
X371120001Y-166620001D03*
X371520000Y-166620001D03*
X371920000Y-166620001D03*
X372319999Y-166620001D03*
D101*
X372370001Y-166070000D03*
X372370001Y-165670000D03*
D102*
X372319999Y-165119999D03*
X371920000Y-165119999D03*
X371520000Y-165119999D03*
X371120001Y-165119999D03*
D78*
X396100000Y-42970000D03*
X396100000Y-41270000D03*
D74*
X410090000Y-34400000D03*
X411990000Y-34400000D03*
D103*
X299430000Y-47820000D03*
X299430000Y-53320000D03*
D104*
X360930000Y-56820000D03*
D103*
X360930000Y-47820000D03*
D15*
X313620000Y-135710000D03*
D16*
X311620000Y-135710000D03*
D105*
X372277749Y-58020000D03*
X367451749Y-58020000D03*
D42*
X359900000Y-155500000D03*
D24*
X406611100Y-98890000D03*
X409328900Y-98890000D03*
D50*
X297000000Y-174500000D03*
D25*
X385539668Y-144660900D03*
X385539668Y-143010900D03*
D14*
X407020000Y-111195000D03*
X407020000Y-109645000D03*
D98*
X388396200Y-85760000D03*
X388396200Y-86710000D03*
X388396200Y-87660000D03*
X390783800Y-87660000D03*
X390783800Y-85760000D03*
D41*
X402115000Y-78400000D03*
X403665000Y-78400000D03*
D25*
X344957700Y-144744500D03*
X344957700Y-143094500D03*
D106*
X405730000Y-73010002D03*
X405730000Y-73660000D03*
X405730000Y-74310002D03*
X405730000Y-74960000D03*
X409971800Y-74960000D03*
X409971800Y-74310002D03*
X409971800Y-73660000D03*
X409971800Y-73010002D03*
D107*
X407850900Y-73985001D03*
D31*
X349607700Y-156880000D03*
X355107700Y-156880000D03*
D108*
X313024000Y-106585200D03*
X313024000Y-104654800D03*
X310865000Y-105620000D03*
D14*
X401270000Y-133235000D03*
X401270000Y-131685000D03*
D49*
X357637700Y-148049500D03*
X357637700Y-146149500D03*
D30*
X298810200Y-149620500D03*
X297160200Y-149620500D03*
D50*
X297000000Y-23000000D03*
D25*
X413580000Y-127695000D03*
X413580000Y-126045000D03*
D41*
X296840000Y-142105000D03*
X298390000Y-142105000D03*
D30*
X401875000Y-98280000D03*
X400225000Y-98280000D03*
D88*
X406948200Y-116738900D03*
X406948200Y-114021100D03*
D30*
X343412700Y-156860000D03*
X341762700Y-156860000D03*
D52*
X313805500Y-95260000D03*
X311905500Y-95260000D03*
D109*
X409370000Y-163980000D03*
X407439600Y-163980000D03*
X408404800Y-166139000D03*
D39*
X405030000Y-76920000D03*
X406680000Y-76920000D03*
D30*
X399400000Y-84830000D03*
X397750000Y-84830000D03*
D39*
X382189668Y-146250900D03*
X383839668Y-146250900D03*
D110*
X299920000Y-139985000D03*
X299920000Y-140635000D03*
X299920000Y-141285000D03*
X299920000Y-141935000D03*
D111*
X301770000Y-140960000D03*
D112*
X302845000Y-139985000D03*
X302845000Y-140635000D03*
X302845000Y-141285000D03*
X302845000Y-141935000D03*
D34*
X395670000Y-161520000D03*
X395670000Y-163170000D03*
D39*
X420205000Y-129640000D03*
X421855000Y-129640000D03*
D18*
X404945000Y-132600000D03*
X403395000Y-132600000D03*
D113*
X353110000Y-35986000D03*
X353110000Y-21000000D03*
D49*
X400169668Y-147920900D03*
X400169668Y-146020900D03*
D41*
X420245000Y-133640000D03*
X421795000Y-133640000D03*
D25*
X417190000Y-116986400D03*
X417190000Y-115336400D03*
D39*
X311550000Y-103070000D03*
X313200000Y-103070000D03*
D15*
X305740000Y-106822222D03*
D16*
X303740000Y-106822222D03*
D30*
X343412700Y-159780000D03*
X341762700Y-159780000D03*
X298800000Y-156570000D03*
X297150000Y-156570000D03*
D114*
X461000000Y-27000000D03*
D115*
X457500000Y-27000000D03*
X454000000Y-27000000D03*
X450500000Y-27000000D03*
X447000000Y-27000000D03*
X443500000Y-27000000D03*
X440000000Y-27000000D03*
X436500000Y-27000000D03*
X433000000Y-27000000D03*
X429500000Y-27000000D03*
D53*
X295000000Y-170500000D03*
D33*
X404100000Y-109645000D03*
X404100000Y-111195000D03*
D41*
X420255000Y-140370000D03*
X421805000Y-140370000D03*
X382239668Y-143330900D03*
X383789668Y-143330900D03*
D25*
X402628200Y-111255000D03*
X402628200Y-109605000D03*
D35*
X365169990Y-142080001D03*
X365669989Y-142080001D03*
X366169991Y-142080001D03*
X366669990Y-142080001D03*
X367169991Y-142080001D03*
X367669990Y-142080001D03*
X368169989Y-142080001D03*
X368669991Y-142080001D03*
X369169990Y-142080001D03*
X369669992Y-142080001D03*
X370169990Y-142080001D03*
X370669990Y-142080001D03*
X371169991Y-142080001D03*
X371669990Y-142080001D03*
X372169992Y-142080001D03*
X372669991Y-142080001D03*
X373169990Y-142080001D03*
X373669991Y-142080001D03*
X374169990Y-142080001D03*
X374669989Y-142080001D03*
X375169991Y-142080001D03*
X375669990Y-142080001D03*
D36*
X362870000Y-144780000D03*
X377969980Y-144780000D03*
D41*
X402115000Y-76920000D03*
X403665000Y-76920000D03*
D34*
X378880000Y-46745000D03*
X378880000Y-48395000D03*
D41*
X386031000Y-98265000D03*
X387581000Y-98265000D03*
D116*
X401318200Y-106550000D03*
X401318200Y-108250000D03*
D14*
X415040000Y-127645000D03*
X415040000Y-126095000D03*
D117*
X403039890Y-41920961D03*
X403689889Y-41920961D03*
X404339887Y-41920961D03*
X404989888Y-41920961D03*
X405639887Y-41920961D03*
X406289888Y-41920961D03*
X406939887Y-41920961D03*
X407589888Y-41920961D03*
X408239887Y-41920961D03*
X408889888Y-41920961D03*
X409539887Y-41920961D03*
X410189888Y-41920961D03*
X410189888Y-36180561D03*
X409539889Y-36180561D03*
X408889888Y-36180561D03*
X408239890Y-36180561D03*
X407589888Y-36180561D03*
X406939890Y-36180561D03*
X406289891Y-36180561D03*
X405639890Y-36180561D03*
X404989891Y-36180561D03*
X404339890Y-36180561D03*
X403689891Y-36180561D03*
X403039890Y-36180561D03*
D39*
X400225000Y-96820000D03*
X401875000Y-96820000D03*
D34*
X421830000Y-103445000D03*
X421830000Y-105095000D03*
D18*
X347182700Y-149369500D03*
X345632700Y-149369500D03*
D33*
X405560000Y-109645000D03*
X405560000Y-111195000D03*
D17*
X357517500Y-176390000D03*
X354567500Y-176390000D03*
D118*
X418500000Y-176000000D03*
X418500000Y-160700000D03*
D18*
X404935000Y-131130000D03*
X403385000Y-131130000D03*
D14*
X407430000Y-144895000D03*
X407430000Y-143345000D03*
D18*
X400070000Y-116870000D03*
X398520000Y-116870000D03*
D119*
X408560001Y-104090000D03*
X408560001Y-104589999D03*
X408560001Y-105090000D03*
X408560001Y-105589999D03*
X408560001Y-106090001D03*
X408560001Y-106590000D03*
X408560001Y-107089999D03*
X408560001Y-107590000D03*
X408560001Y-108090000D03*
X408560001Y-108590001D03*
X408560001Y-109090000D03*
X408560001Y-109589999D03*
X408560001Y-110090001D03*
X408560001Y-110590000D03*
X408560001Y-111090001D03*
X408560001Y-111590000D03*
D120*
X410560000Y-113589999D03*
X411059999Y-113589999D03*
X411560000Y-113589999D03*
X412059999Y-113589999D03*
X412560001Y-113589999D03*
X413060000Y-113589999D03*
X413559999Y-113589999D03*
X414060000Y-113589999D03*
X414560000Y-113589999D03*
X415060001Y-113589999D03*
X415560000Y-113589999D03*
X416059999Y-113589999D03*
X416560001Y-113589999D03*
X417060000Y-113589999D03*
X417560001Y-113589999D03*
X418060000Y-113589999D03*
D119*
X420059999Y-111590000D03*
X420059999Y-111090001D03*
X420059999Y-110590000D03*
X420059999Y-110090001D03*
X420059999Y-109589999D03*
X420059999Y-109090000D03*
X420059999Y-108590001D03*
X420059999Y-108090000D03*
X420059999Y-107590000D03*
X420059999Y-107089999D03*
X420059999Y-106590000D03*
X420059999Y-106090001D03*
X420059999Y-105589999D03*
X420059999Y-105090000D03*
X420059999Y-104589999D03*
X420059999Y-104090000D03*
D120*
X418060000Y-102090001D03*
X417560001Y-102090001D03*
X417060000Y-102090001D03*
X416560001Y-102090001D03*
X416059999Y-102090001D03*
X415560000Y-102090001D03*
X415060001Y-102090001D03*
X414560000Y-102090001D03*
X414060000Y-102090001D03*
X413559999Y-102090001D03*
X413060000Y-102090001D03*
X412560001Y-102090001D03*
X412059999Y-102090001D03*
X411560000Y-102090001D03*
X411059999Y-102090001D03*
X410560000Y-102090001D03*
D33*
X413494889Y-45875761D03*
X413494889Y-47425761D03*
D42*
X374973501Y-55870000D03*
D75*
X393180000Y-46370000D03*
X393180000Y-46870000D03*
X393180000Y-47370000D03*
X394480000Y-47370000D03*
X394480000Y-46870000D03*
X394480000Y-46370000D03*
D14*
X420890000Y-146370000D03*
X420890000Y-144820000D03*
X420890000Y-143270000D03*
D33*
X347197700Y-155865000D03*
X347197700Y-157415000D03*
D41*
X420245000Y-137650000D03*
X421795000Y-137650000D03*
D33*
X387629668Y-143720900D03*
X387629668Y-145270900D03*
D92*
X433500000Y-160660000D03*
X436040000Y-160660000D03*
X433500000Y-158120000D03*
X436040000Y-158120000D03*
X433500000Y-155580000D03*
X436040000Y-155580000D03*
X433500000Y-153040000D03*
X436040000Y-153040000D03*
X433500000Y-150500000D03*
X436040000Y-150500000D03*
X433500000Y-147960000D03*
X436040000Y-147960000D03*
X433500000Y-145420000D03*
X436040000Y-145420000D03*
X433500000Y-142880000D03*
X436040000Y-142880000D03*
X433500000Y-140340000D03*
X436040000Y-140340000D03*
X433500000Y-137800000D03*
X436040000Y-137800000D03*
D18*
X410020900Y-76425001D03*
X408470900Y-76425001D03*
D25*
X373290000Y-163795000D03*
X373290000Y-162145000D03*
D18*
X387889668Y-149210900D03*
X386339668Y-149210900D03*
X403635000Y-135250000D03*
X402085000Y-135250000D03*
D39*
X405635000Y-71320000D03*
X407285000Y-71320000D03*
D14*
X410750000Y-116915000D03*
X410750000Y-115365000D03*
D121*
X413544889Y-28750761D03*
D122*
X413544889Y-22790761D03*
D121*
X399044889Y-28750761D03*
D122*
X399044889Y-22790761D03*
D30*
X309145000Y-113740000D03*
X307495000Y-113740000D03*
D39*
X402065000Y-75460000D03*
X403715000Y-75460000D03*
D34*
X410787355Y-163778773D03*
X410787355Y-165428773D03*
D55*
X466915000Y-83700000D03*
X466915000Y-106850000D03*
D56*
X465665000Y-118500000D03*
D57*
X463665000Y-117500000D03*
X465665000Y-116500000D03*
X463665000Y-115500000D03*
X465665000Y-114500000D03*
X463665000Y-113500000D03*
X465665000Y-112500000D03*
X463665000Y-111500000D03*
X465665000Y-110500000D03*
X463665000Y-109500000D03*
X465665000Y-108500000D03*
X463665000Y-105500000D03*
X465665000Y-104500000D03*
X463665000Y-103500000D03*
X465665000Y-102500000D03*
X463665000Y-101500000D03*
X465665000Y-100500000D03*
X463665000Y-99500000D03*
X465665000Y-98500000D03*
X463665000Y-97500000D03*
X465665000Y-96500000D03*
X463665000Y-95500000D03*
X465665000Y-94500000D03*
X463665000Y-93500000D03*
X465665000Y-92500000D03*
X463665000Y-91500000D03*
X465665000Y-90500000D03*
X463665000Y-89500000D03*
X465665000Y-88500000D03*
X463665000Y-87500000D03*
X465665000Y-86500000D03*
X463665000Y-85500000D03*
X468165000Y-118500000D03*
X470165000Y-117500000D03*
X468165000Y-116500000D03*
X470165000Y-115500000D03*
X468165000Y-114500000D03*
X470165000Y-113500000D03*
X468165000Y-112500000D03*
X470165000Y-111500000D03*
X468165000Y-110500000D03*
X470165000Y-109500000D03*
X468165000Y-108500000D03*
X470165000Y-105500000D03*
X468165000Y-104500000D03*
X470165000Y-103500000D03*
X468165000Y-102500000D03*
X470165000Y-101500000D03*
X468165000Y-100500000D03*
X470165000Y-99500000D03*
X468165000Y-98500000D03*
X470165000Y-97500000D03*
X468165000Y-96500000D03*
X470165000Y-95500000D03*
X468165000Y-94500000D03*
X470165000Y-93500000D03*
X468165000Y-92500000D03*
X470165000Y-91500000D03*
X468165000Y-90500000D03*
X470165000Y-89500000D03*
X468165000Y-88500000D03*
X470165000Y-87500000D03*
X468165000Y-86500000D03*
X470165000Y-85500000D03*
D74*
X345667700Y-151079500D03*
X347567700Y-151079500D03*
D51*
X405160000Y-96680000D03*
X404210000Y-98880000D03*
X403260000Y-96680000D03*
D88*
X404900000Y-116738900D03*
X404900000Y-114021100D03*
D39*
X351155000Y-40680000D03*
X352805000Y-40680000D03*
D33*
X372590000Y-121275000D03*
X372590000Y-122825000D03*
D54*
X311549500Y-101260000D03*
X313200500Y-101260000D03*
D34*
X389810000Y-161520000D03*
X389810000Y-163170000D03*
D51*
X298755200Y-151230500D03*
X296855200Y-151230500D03*
X297805200Y-153430500D03*
D41*
X366355000Y-53790000D03*
X367905000Y-53790000D03*
D74*
X374580000Y-166120000D03*
X376480000Y-166120000D03*
D34*
X409190000Y-123085000D03*
X409190000Y-124735000D03*
D54*
X390291000Y-57730000D03*
X388640000Y-57730000D03*
M02*
