%TF.GenerationSoftware,KiCad,Pcbnew,9.0.5-9.0.5~ubuntu24.04.1*%
%TF.CreationDate,2025-10-15T19:39:21+02:00*%
%TF.ProjectId,BB3plus test mainboard,42423370-6c75-4732-9074-657374206d61,r1B1*%
%TF.SameCoordinates,Original*%
%TF.FileFunction,Paste,Top*%
%TF.FilePolarity,Positive*%
%FSLAX46Y46*%
G04 Gerber Fmt 4.6, Leading zero omitted, Abs format (unit mm)*
G04 Created by KiCad (PCBNEW 9.0.5-9.0.5~ubuntu24.04.1) date 2025-10-15 19:39:21*
%MOMM*%
%LPD*%
G01*
G04 APERTURE LIST*
G04 Aperture macros list*
%AMRoundRect*
0 Rectangle with rounded corners*
0 $1 Rounding radius*
0 $2 $3 $4 $5 $6 $7 $8 $9 X,Y pos of 4 corners*
0 Add a 4 corners polygon primitive as box body*
4,1,4,$2,$3,$4,$5,$6,$7,$8,$9,$2,$3,0*
0 Add four circle primitives for the rounded corners*
1,1,$1+$1,$2,$3*
1,1,$1+$1,$4,$5*
1,1,$1+$1,$6,$7*
1,1,$1+$1,$8,$9*
0 Add four rect primitives between the rounded corners*
20,1,$1+$1,$2,$3,$4,$5,0*
20,1,$1+$1,$4,$5,$6,$7,0*
20,1,$1+$1,$6,$7,$8,$9,0*
20,1,$1+$1,$8,$9,$2,$3,0*%
G04 Aperture macros list end*
%ADD10C,0.000000*%
%ADD11C,0.010000*%
%ADD12R,8.002600X8.002600*%
%ADD13R,0.814400X0.103200*%
%ADD14R,0.103200X0.814400*%
%ADD15R,0.600000X0.100000*%
%ADD16RoundRect,0.175000X0.250000X-0.175000X0.250000X0.175000X-0.250000X0.175000X-0.250000X-0.175000X0*%
%ADD17R,3.400000X1.900000*%
%ADD18R,1.100000X2.650000*%
%ADD19R,0.200000X1.450000*%
%ADD20R,2.300000X2.700000*%
%ADD21R,0.200000X0.800000*%
%ADD22RoundRect,0.200000X-0.225000X0.200000X-0.225000X-0.200000X0.225000X-0.200000X0.225000X0.200000X0*%
%ADD23RoundRect,0.200000X0.225000X-0.200000X0.225000X0.200000X-0.225000X0.200000X-0.225000X-0.200000X0*%
%ADD24RoundRect,0.228261X0.296739X0.621739X-0.296739X0.621739X-0.296739X-0.621739X0.296739X-0.621739X0*%
%ADD25RoundRect,0.200000X0.200000X0.225000X-0.200000X0.225000X-0.200000X-0.225000X0.200000X-0.225000X0*%
%ADD26RoundRect,0.045720X-0.404280X-0.454280X0.404280X-0.454280X0.404280X0.454280X-0.404280X0.454280X0*%
%ADD27RoundRect,0.028578X0.035722X-0.327822X0.035722X0.327822X-0.035722X0.327822X-0.035722X-0.327822X0*%
%ADD28R,0.992200X0.662000*%
%ADD29R,0.320000X0.600000*%
%ADD30R,0.320000X0.350000*%
%ADD31RoundRect,0.175000X0.175000X0.250000X-0.175000X0.250000X-0.175000X-0.250000X0.175000X-0.250000X0*%
%ADD32R,2.900000X1.500000*%
%ADD33RoundRect,0.175000X-0.250000X0.175000X-0.250000X-0.175000X0.250000X-0.175000X0.250000X0.175000X0*%
%ADD34R,0.200000X0.900000*%
%ADD35R,1.900000X1.200000*%
%ADD36R,1.551000X2.795600*%
%ADD37RoundRect,0.228261X0.621739X-0.296739X0.621739X0.296739X-0.621739X0.296739X-0.621739X-0.296739X0*%
%ADD38RoundRect,0.175000X-0.175000X-0.250000X0.175000X-0.250000X0.175000X0.250000X-0.175000X0.250000X0*%
%ADD39RoundRect,0.045720X0.454280X-0.404280X0.454280X0.404280X-0.454280X0.404280X-0.454280X-0.404280X0*%
%ADD40RoundRect,0.200000X-0.200000X-0.225000X0.200000X-0.225000X0.200000X0.225000X-0.200000X0.225000X0*%
%ADD41RoundRect,0.225000X0.450000X-0.225000X0.450000X0.225000X-0.450000X0.225000X-0.450000X-0.225000X0*%
%ADD42RoundRect,0.045720X-0.604280X0.404280X-0.604280X-0.404280X0.604280X-0.404280X0.604280X0.404280X0*%
%ADD43RoundRect,0.225000X0.225000X0.450000X-0.225000X0.450000X-0.225000X-0.450000X0.225000X-0.450000X0*%
%ADD44R,0.662000X1.195400*%
%ADD45RoundRect,0.090000X-0.360000X-0.460000X0.360000X-0.460000X0.360000X0.460000X-0.360000X0.460000X0*%
%ADD46R,1.068400X0.204800*%
%ADD47R,3.000000X2.750000*%
%ADD48RoundRect,0.225000X-0.225000X-0.450000X0.225000X-0.450000X0.225000X0.450000X-0.225000X0.450000X0*%
%ADD49RoundRect,0.033912X-0.243088X-0.066488X0.243088X-0.066488X0.243088X0.066488X-0.243088X0.066488X0*%
%ADD50R,1.700000X0.900000*%
%ADD51RoundRect,0.050945X0.229255X-0.661055X0.229255X0.661055X-0.229255X0.661055X-0.229255X-0.661055X0*%
%ADD52RoundRect,0.047171X-0.602829X-0.602829X0.602829X-0.602829X0.602829X0.602829X-0.602829X0.602829X0*%
%ADD53R,0.662000X0.992200*%
%ADD54R,1.300000X1.100000*%
%ADD55RoundRect,0.042333X0.207667X-0.682667X0.207667X0.682667X-0.207667X0.682667X-0.207667X-0.682667X0*%
%ADD56RoundRect,0.032900X-0.617100X-0.202100X0.617100X-0.202100X0.617100X0.202100X-0.617100X0.202100X0*%
%ADD57R,2.750000X3.000000*%
%ADD58R,1.500000X2.900000*%
%ADD59R,0.154000X0.662000*%
%ADD60R,0.662000X0.154000*%
%ADD61R,2.109800X1.601800*%
%ADD62RoundRect,0.225609X-0.424391X0.236891X-0.424391X-0.236891X0.424391X-0.236891X0.424391X0.236891X0*%
%ADD63RoundRect,0.045720X0.404280X0.604280X-0.404280X0.604280X-0.404280X-0.604280X0.404280X-0.604280X0*%
%ADD64RoundRect,0.026250X0.223750X0.078750X-0.223750X0.078750X-0.223750X-0.078750X0.223750X-0.078750X0*%
%ADD65RoundRect,0.041709X-0.644891X-0.187691X0.644891X-0.187691X0.644891X0.187691X-0.644891X0.187691X0*%
%ADD66R,0.600001X0.100000*%
%ADD67R,0.100000X0.399999*%
%ADD68RoundRect,0.044133X1.531467X0.286867X-1.531467X0.286867X-1.531467X-0.286867X1.531467X-0.286867X0*%
%ADD69R,1.017600X0.281000*%
%ADD70R,1.470000X1.790000*%
%ADD71RoundRect,0.050945X0.661055X0.229255X-0.661055X0.229255X-0.661055X-0.229255X0.661055X-0.229255X0*%
%ADD72RoundRect,0.050945X-0.229255X0.661055X-0.229255X-0.661055X0.229255X-0.661055X0.229255X0.661055X0*%
%ADD73R,0.600000X0.320000*%
%ADD74R,0.350000X0.320000*%
%ADD75RoundRect,0.045720X-0.454280X0.404280X-0.454280X-0.404280X0.454280X-0.404280X0.454280X0.404280X0*%
%ADD76R,0.204800X1.068400*%
%ADD77R,1.093800X0.204800*%
%ADD78R,0.204800X1.093800*%
%ADD79R,0.198000X2.500000*%
G04 APERTURE END LIST*
D10*
G36*
X416341300Y-139451300D02*
G01*
X415190867Y-139451300D01*
X415190867Y-138300867D01*
X416341300Y-138300867D01*
X416341300Y-139451300D01*
G37*
G36*
X416341300Y-138100867D02*
G01*
X415190867Y-138100867D01*
X415190867Y-136950433D01*
X416341300Y-136950433D01*
X416341300Y-138100867D01*
G37*
G36*
X416341300Y-136750434D02*
G01*
X415190867Y-136750434D01*
X415190867Y-135600000D01*
X416341300Y-135600000D01*
X416341300Y-136750434D01*
G37*
G36*
X416341300Y-135400000D02*
G01*
X415190867Y-135400000D01*
X415190867Y-134249566D01*
X416341300Y-134249566D01*
X416341300Y-135400000D01*
G37*
G36*
X416341300Y-134049567D02*
G01*
X415190867Y-134049567D01*
X415190867Y-132899133D01*
X416341300Y-132899133D01*
X416341300Y-134049567D01*
G37*
G36*
X416341300Y-132699133D02*
G01*
X415190867Y-132699133D01*
X415190867Y-131548700D01*
X416341300Y-131548700D01*
X416341300Y-132699133D01*
G37*
G36*
X414990867Y-139451300D02*
G01*
X413840433Y-139451300D01*
X413840433Y-138300867D01*
X414990867Y-138300867D01*
X414990867Y-139451300D01*
G37*
G36*
X414990867Y-138100867D02*
G01*
X413840433Y-138100867D01*
X413840433Y-136950433D01*
X414990867Y-136950433D01*
X414990867Y-138100867D01*
G37*
G36*
X414990867Y-136750434D02*
G01*
X413840433Y-136750434D01*
X413840433Y-135600000D01*
X414990867Y-135600000D01*
X414990867Y-136750434D01*
G37*
G36*
X414990867Y-135400000D02*
G01*
X413840433Y-135400000D01*
X413840433Y-134249566D01*
X414990867Y-134249566D01*
X414990867Y-135400000D01*
G37*
G36*
X414990867Y-134049567D02*
G01*
X413840433Y-134049567D01*
X413840433Y-132899133D01*
X414990867Y-132899133D01*
X414990867Y-134049567D01*
G37*
G36*
X414990867Y-132699133D02*
G01*
X413840433Y-132699133D01*
X413840433Y-131548700D01*
X414990867Y-131548700D01*
X414990867Y-132699133D01*
G37*
G36*
X413640434Y-139451300D02*
G01*
X412490000Y-139451300D01*
X412490000Y-138300867D01*
X413640434Y-138300867D01*
X413640434Y-139451300D01*
G37*
G36*
X413640434Y-138100867D02*
G01*
X412490000Y-138100867D01*
X412490000Y-136950433D01*
X413640434Y-136950433D01*
X413640434Y-138100867D01*
G37*
G36*
X413640434Y-136750434D02*
G01*
X412490000Y-136750434D01*
X412490000Y-135600000D01*
X413640434Y-135600000D01*
X413640434Y-136750434D01*
G37*
G36*
X413640434Y-135400000D02*
G01*
X412490000Y-135400000D01*
X412490000Y-134249566D01*
X413640434Y-134249566D01*
X413640434Y-135400000D01*
G37*
G36*
X413640434Y-134049567D02*
G01*
X412490000Y-134049567D01*
X412490000Y-132899133D01*
X413640434Y-132899133D01*
X413640434Y-134049567D01*
G37*
G36*
X413640434Y-132699133D02*
G01*
X412490000Y-132699133D01*
X412490000Y-131548700D01*
X413640434Y-131548700D01*
X413640434Y-132699133D01*
G37*
G36*
X412290000Y-139451300D02*
G01*
X411139566Y-139451300D01*
X411139566Y-138300867D01*
X412290000Y-138300867D01*
X412290000Y-139451300D01*
G37*
G36*
X412290000Y-138100867D02*
G01*
X411139566Y-138100867D01*
X411139566Y-136950433D01*
X412290000Y-136950433D01*
X412290000Y-138100867D01*
G37*
G36*
X412290000Y-136750434D02*
G01*
X411139566Y-136750434D01*
X411139566Y-135600000D01*
X412290000Y-135600000D01*
X412290000Y-136750434D01*
G37*
G36*
X412290000Y-135400000D02*
G01*
X411139566Y-135400000D01*
X411139566Y-134249566D01*
X412290000Y-134249566D01*
X412290000Y-135400000D01*
G37*
G36*
X412290000Y-134049567D02*
G01*
X411139566Y-134049567D01*
X411139566Y-132899133D01*
X412290000Y-132899133D01*
X412290000Y-134049567D01*
G37*
G36*
X412290000Y-132699133D02*
G01*
X411139566Y-132699133D01*
X411139566Y-131548700D01*
X412290000Y-131548700D01*
X412290000Y-132699133D01*
G37*
G36*
X410939567Y-139451300D02*
G01*
X409789133Y-139451300D01*
X409789133Y-138300867D01*
X410939567Y-138300867D01*
X410939567Y-139451300D01*
G37*
G36*
X410939567Y-138100867D02*
G01*
X409789133Y-138100867D01*
X409789133Y-136950433D01*
X410939567Y-136950433D01*
X410939567Y-138100867D01*
G37*
G36*
X410939567Y-136750434D02*
G01*
X409789133Y-136750434D01*
X409789133Y-135600000D01*
X410939567Y-135600000D01*
X410939567Y-136750434D01*
G37*
G36*
X410939567Y-135400000D02*
G01*
X409789133Y-135400000D01*
X409789133Y-134249566D01*
X410939567Y-134249566D01*
X410939567Y-135400000D01*
G37*
G36*
X410939567Y-134049567D02*
G01*
X409789133Y-134049567D01*
X409789133Y-132899133D01*
X410939567Y-132899133D01*
X410939567Y-134049567D01*
G37*
G36*
X410939567Y-132699133D02*
G01*
X409789133Y-132699133D01*
X409789133Y-131548700D01*
X410939567Y-131548700D01*
X410939567Y-132699133D01*
G37*
G36*
X409589133Y-139451300D02*
G01*
X408438700Y-139451300D01*
X408438700Y-138300867D01*
X409589133Y-138300867D01*
X409589133Y-139451300D01*
G37*
G36*
X409589133Y-138100867D02*
G01*
X408438700Y-138100867D01*
X408438700Y-136950433D01*
X409589133Y-136950433D01*
X409589133Y-138100867D01*
G37*
G36*
X409589133Y-136750434D02*
G01*
X408438700Y-136750434D01*
X408438700Y-135600000D01*
X409589133Y-135600000D01*
X409589133Y-136750434D01*
G37*
G36*
X409589133Y-135400000D02*
G01*
X408438700Y-135400000D01*
X408438700Y-134249566D01*
X409589133Y-134249566D01*
X409589133Y-135400000D01*
G37*
G36*
X409589133Y-134049567D02*
G01*
X408438700Y-134049567D01*
X408438700Y-132899133D01*
X409589133Y-132899133D01*
X409589133Y-134049567D01*
G37*
G36*
X409589133Y-132699133D02*
G01*
X408438700Y-132699133D01*
X408438700Y-131548700D01*
X409589133Y-131548700D01*
X409589133Y-132699133D01*
G37*
D11*
X372705000Y-21022800D02*
X371205000Y-21022800D01*
X371205000Y-19947200D01*
X372705000Y-19947200D01*
X372705000Y-21022800D01*
G36*
X372705000Y-21022800D02*
G01*
X371205000Y-21022800D01*
X371205000Y-19947200D01*
X372705000Y-19947200D01*
X372705000Y-21022800D01*
G37*
D10*
G36*
X345797000Y-151171000D02*
G01*
X345035000Y-151170998D01*
X345035000Y-150916998D01*
X345543000Y-150916998D01*
X345543000Y-150409000D01*
X345797000Y-150409000D01*
X345797000Y-151171000D01*
G37*
G36*
X345797000Y-154321002D02*
G01*
X345543000Y-154321002D01*
X345543000Y-153813004D01*
X345035000Y-153813004D01*
X345035000Y-153559004D01*
X345797000Y-153559002D01*
X345797000Y-154321002D01*
G37*
G36*
X348797756Y-150916998D02*
G01*
X349305756Y-150916998D01*
X349305756Y-151170998D01*
X348543756Y-151171000D01*
X348543756Y-150409000D01*
X348797756Y-150409000D01*
X348797756Y-150916998D01*
G37*
G36*
X349305756Y-153559004D02*
G01*
X349305756Y-153813004D01*
X348797756Y-153813004D01*
X348797756Y-154321002D01*
X348543756Y-154321002D01*
X348543756Y-153559002D01*
X349305756Y-153559004D01*
G37*
D11*
X422850000Y-113515000D02*
X422620000Y-113515000D01*
X422620000Y-112790000D01*
X422850000Y-112790000D01*
X422850000Y-113515000D01*
G36*
X422850000Y-113515000D02*
G01*
X422620000Y-113515000D01*
X422620000Y-112790000D01*
X422850000Y-112790000D01*
X422850000Y-113515000D01*
G37*
X422850000Y-116190000D02*
X422620000Y-116190000D01*
X422620000Y-115465000D01*
X422850000Y-115465000D01*
X422850000Y-116190000D01*
G36*
X422850000Y-116190000D02*
G01*
X422620000Y-116190000D01*
X422620000Y-115465000D01*
X422850000Y-115465000D01*
X422850000Y-116190000D01*
G37*
X423500000Y-113515000D02*
X423270000Y-113515000D01*
X423270000Y-112790000D01*
X423500000Y-112790000D01*
X423500000Y-113515000D01*
G36*
X423500000Y-113515000D02*
G01*
X423270000Y-113515000D01*
X423270000Y-112790000D01*
X423500000Y-112790000D01*
X423500000Y-113515000D01*
G37*
X423500000Y-116190000D02*
X423270000Y-116190000D01*
X423270000Y-115465000D01*
X423500000Y-115465000D01*
X423500000Y-116190000D01*
G36*
X423500000Y-116190000D02*
G01*
X423270000Y-116190000D01*
X423270000Y-115465000D01*
X423500000Y-115465000D01*
X423500000Y-116190000D01*
G37*
X423730000Y-115265000D02*
X422390000Y-115265000D01*
X422390000Y-113715000D01*
X423730000Y-113715000D01*
X423730000Y-115265000D01*
G36*
X423730000Y-115265000D02*
G01*
X422390000Y-115265000D01*
X422390000Y-113715000D01*
X423730000Y-113715000D01*
X423730000Y-115265000D01*
G37*
X302307800Y-141710000D02*
X301232200Y-141710000D01*
X301232200Y-140210000D01*
X302307800Y-140210000D01*
X302307800Y-141710000D01*
G36*
X302307800Y-141710000D02*
G01*
X301232200Y-141710000D01*
X301232200Y-140210000D01*
X302307800Y-140210000D01*
X302307800Y-141710000D01*
G37*
D12*
X412390000Y-135500000D03*
D13*
X406649600Y-140299998D03*
X406649600Y-139899999D03*
X406649600Y-139500000D03*
X406649600Y-139100000D03*
X406649600Y-138699999D03*
X406649600Y-138299999D03*
X406649600Y-137900000D03*
X406649600Y-137499999D03*
X406649600Y-137099999D03*
X406649600Y-136700000D03*
X406649600Y-136300001D03*
X406649600Y-135899999D03*
X406649600Y-135500000D03*
X406649600Y-135100001D03*
X406649600Y-134699999D03*
X406649600Y-134300000D03*
X406649600Y-133900001D03*
X406649600Y-133499999D03*
X406649600Y-133100000D03*
X406649600Y-132700001D03*
X406649600Y-132300001D03*
X406649600Y-131900000D03*
X406649600Y-131500000D03*
X406649600Y-131100001D03*
X406649600Y-130699999D03*
D14*
X407590002Y-129759600D03*
X407990001Y-129759600D03*
X408390000Y-129759600D03*
X408790000Y-129759600D03*
X409190001Y-129759600D03*
X409590001Y-129759600D03*
X409990000Y-129759600D03*
X410390001Y-129759600D03*
X410790001Y-129759600D03*
X411190000Y-129759600D03*
X411589999Y-129759600D03*
X411990001Y-129759600D03*
X412390000Y-129759600D03*
X412789999Y-129759600D03*
X413190001Y-129759600D03*
X413590000Y-129759600D03*
X413989999Y-129759600D03*
X414390001Y-129759600D03*
X414790000Y-129759600D03*
X415189999Y-129759600D03*
X415589999Y-129759600D03*
X415990000Y-129759600D03*
X416390000Y-129759600D03*
X416789999Y-129759600D03*
X417190001Y-129759600D03*
D13*
X418130400Y-130700002D03*
X418130400Y-131100001D03*
X418130400Y-131500000D03*
X418130400Y-131900000D03*
X418130400Y-132300001D03*
X418130400Y-132700001D03*
X418130400Y-133100000D03*
X418130400Y-133500001D03*
X418130400Y-133900001D03*
X418130400Y-134300000D03*
X418130400Y-134699999D03*
X418130400Y-135100001D03*
X418130400Y-135500000D03*
X418130400Y-135899999D03*
X418130400Y-136300001D03*
X418130400Y-136700000D03*
X418130400Y-137099999D03*
X418130400Y-137500001D03*
X418130400Y-137900000D03*
X418130400Y-138299999D03*
X418130400Y-138699999D03*
X418130400Y-139100000D03*
X418130400Y-139500000D03*
X418130400Y-139899999D03*
X418130400Y-140300001D03*
D14*
X417190001Y-141240400D03*
X416789999Y-141240400D03*
X416390000Y-141240400D03*
X415990000Y-141240400D03*
X415589999Y-141240400D03*
X415189999Y-141240400D03*
X414790000Y-141240400D03*
X414389999Y-141240400D03*
X413989999Y-141240400D03*
X413590000Y-141240400D03*
X413190001Y-141240400D03*
X412789999Y-141240400D03*
X412390000Y-141240400D03*
X411990001Y-141240400D03*
X411589999Y-141240400D03*
X411190000Y-141240400D03*
X410790001Y-141240400D03*
X410389999Y-141240400D03*
X409990000Y-141240400D03*
X409590001Y-141240400D03*
X409190001Y-141240400D03*
X408790000Y-141240400D03*
X408390000Y-141240400D03*
X407990001Y-141240400D03*
X407589999Y-141240400D03*
D15*
X378000000Y-125550000D03*
X374920000Y-125550000D03*
X378000000Y-125150000D03*
X374920000Y-125150000D03*
X378000000Y-124750000D03*
X374920000Y-124750000D03*
X378000000Y-124350000D03*
X374920000Y-124350000D03*
X378000000Y-123950000D03*
X374920000Y-123950000D03*
X378000000Y-123550000D03*
X374920000Y-123550000D03*
X378000000Y-123150000D03*
X374920000Y-123150000D03*
X378000000Y-122750000D03*
X374920000Y-122750000D03*
X378000000Y-122350000D03*
X374920000Y-122350000D03*
X378000000Y-121950000D03*
X374920000Y-121950000D03*
X378000000Y-121550000D03*
X374920000Y-121550000D03*
X378000000Y-121150000D03*
X374920000Y-121150000D03*
X378000000Y-120750000D03*
X374920000Y-120750000D03*
X378000000Y-120350000D03*
X374920000Y-120350000D03*
X378000000Y-119950000D03*
X374920000Y-119950000D03*
X378000000Y-119550000D03*
X374920000Y-119550000D03*
X378000000Y-119150000D03*
X374920000Y-119150000D03*
X378000000Y-118750000D03*
X374920000Y-118750000D03*
X378000000Y-118350000D03*
X374920000Y-118350000D03*
X378000000Y-117950000D03*
X374920000Y-117950000D03*
X378000000Y-117550000D03*
X374920000Y-117550000D03*
X378000000Y-117150000D03*
X374920000Y-117150000D03*
X378000000Y-116750000D03*
X374920000Y-116750000D03*
X378000000Y-116350000D03*
X374920000Y-116350000D03*
X378000000Y-115950000D03*
X374920000Y-115950000D03*
X378000000Y-115550000D03*
X374920000Y-115550000D03*
X378000000Y-115150000D03*
X374920000Y-115150000D03*
X378000000Y-114750000D03*
X374920000Y-114750000D03*
X378000000Y-114350000D03*
X374920000Y-114350000D03*
X378000000Y-113950000D03*
X374920000Y-113950000D03*
X378000000Y-113550000D03*
X374920000Y-113550000D03*
X378000000Y-113150000D03*
X374920000Y-113150000D03*
X378000000Y-112750000D03*
X374920000Y-112750000D03*
X378000000Y-112350000D03*
X374920000Y-112350000D03*
X378000000Y-111950000D03*
X374920000Y-111950000D03*
X378000000Y-111550000D03*
X374920000Y-111550000D03*
X378000000Y-111150000D03*
X374920000Y-111150000D03*
X378000000Y-110750000D03*
X374920000Y-110750000D03*
X378000000Y-110350000D03*
X374920000Y-110350000D03*
X378000000Y-109950000D03*
X374920000Y-109950000D03*
X378000000Y-109550000D03*
X374920000Y-109550000D03*
X378000000Y-109150000D03*
X374920000Y-109150000D03*
X378000000Y-108750000D03*
X374920000Y-108750000D03*
X378000000Y-108350000D03*
X374920000Y-108350000D03*
X378000000Y-107950000D03*
X374920000Y-107950000D03*
X378000000Y-107550000D03*
X374920000Y-107550000D03*
X378000000Y-107150000D03*
X374920000Y-107150000D03*
X378000000Y-106750000D03*
X374920000Y-106750000D03*
X378000000Y-106350000D03*
X374920000Y-106350000D03*
X378000000Y-105950000D03*
X374920000Y-105950000D03*
X344080000Y-125550000D03*
X341000000Y-125550000D03*
X344080000Y-125150000D03*
X341000000Y-125150000D03*
X344080000Y-124750000D03*
X341000000Y-124750000D03*
X344080000Y-124350000D03*
X341000000Y-124350000D03*
X344080000Y-123950000D03*
X341000000Y-123950000D03*
X344080000Y-123550000D03*
X341000000Y-123550000D03*
X344080000Y-123150000D03*
X341000000Y-123150000D03*
X344080000Y-122750000D03*
X341000000Y-122750000D03*
X344080000Y-122350000D03*
X341000000Y-122350000D03*
X344080000Y-121950000D03*
X341000000Y-121950000D03*
X344080000Y-121550000D03*
X341000000Y-121550000D03*
X344080000Y-121150000D03*
X341000000Y-121150000D03*
X344080000Y-120750000D03*
X341000000Y-120750000D03*
X344080000Y-120350000D03*
X341000000Y-120350000D03*
X344080000Y-119950000D03*
X341000000Y-119950000D03*
X344080000Y-119550000D03*
X341000000Y-119550000D03*
X344080000Y-119150000D03*
X341000000Y-119150000D03*
X344080000Y-118750000D03*
X341000000Y-118750000D03*
X344080000Y-118350000D03*
X341000000Y-118350000D03*
X344080000Y-117950000D03*
X341000000Y-117950000D03*
X344080000Y-117550000D03*
X341000000Y-117550000D03*
X344080000Y-117150000D03*
X341000000Y-117150000D03*
X344080000Y-116750000D03*
X341000000Y-116750000D03*
X344080000Y-116350000D03*
X341000000Y-116350000D03*
X344080000Y-115950000D03*
X341000000Y-115950000D03*
X344080000Y-115550000D03*
X341000000Y-115550000D03*
X344080000Y-115150000D03*
X341000000Y-115150000D03*
X344080000Y-114750000D03*
X341000000Y-114750000D03*
X344080000Y-114350000D03*
X341000000Y-114350000D03*
X344080000Y-113950000D03*
X341000000Y-113950000D03*
X344080000Y-113550000D03*
X341000000Y-113550000D03*
X344080000Y-113150000D03*
X341000000Y-113150000D03*
X344080000Y-112750000D03*
X341000000Y-112750000D03*
X344080000Y-112350000D03*
X341000000Y-112350000D03*
X344080000Y-111950000D03*
X341000000Y-111950000D03*
X344080000Y-111550000D03*
X341000000Y-111550000D03*
X344080000Y-111150000D03*
X341000000Y-111150000D03*
X344080000Y-110750000D03*
X341000000Y-110750000D03*
X344080000Y-110350000D03*
X341000000Y-110350000D03*
X344080000Y-109950000D03*
X341000000Y-109950000D03*
X344080000Y-109550000D03*
X341000000Y-109550000D03*
X344080000Y-109150000D03*
X341000000Y-109150000D03*
X344080000Y-108750000D03*
X341000000Y-108750000D03*
X344080000Y-108350000D03*
X341000000Y-108350000D03*
X344080000Y-107950000D03*
X341000000Y-107950000D03*
X344080000Y-107550000D03*
X341000000Y-107550000D03*
X344080000Y-107150000D03*
X341000000Y-107150000D03*
X344080000Y-106750000D03*
X341000000Y-106750000D03*
X344080000Y-106350000D03*
X341000000Y-106350000D03*
X344080000Y-105950000D03*
X341000000Y-105950000D03*
D16*
X410660000Y-126045000D03*
X410660000Y-127695000D03*
X409190000Y-126045000D03*
X409190000Y-127695000D03*
D17*
X423840000Y-67320000D03*
X423840000Y-81020000D03*
X414340000Y-67320000D03*
X414340000Y-81020000D03*
D18*
X336850000Y-87500000D03*
X316150000Y-87500000D03*
D19*
X335750000Y-86725000D03*
X335500000Y-94275000D03*
X335250000Y-86725000D03*
X335000000Y-94275000D03*
X334750000Y-86725000D03*
X334500000Y-94275000D03*
X334250000Y-86725000D03*
X334000000Y-94275000D03*
X333750000Y-86725000D03*
X331500000Y-94275000D03*
X331250000Y-86725000D03*
X331000000Y-94275000D03*
X330750000Y-86725000D03*
X330500000Y-94275000D03*
X330250000Y-86725000D03*
X330000000Y-94275000D03*
X329750000Y-86725000D03*
X329500000Y-94275000D03*
X329250000Y-86725000D03*
X329000000Y-94275000D03*
X328750000Y-86725000D03*
X328500000Y-94275000D03*
X328250000Y-86725000D03*
X328000000Y-94275000D03*
X327750000Y-86725000D03*
X327500000Y-94275000D03*
X327250000Y-86725000D03*
X327000000Y-94275000D03*
X326750000Y-86725000D03*
X326500000Y-94275000D03*
X326250000Y-86725000D03*
X326000000Y-94275000D03*
X325750000Y-86725000D03*
X325500000Y-94275000D03*
X325250000Y-86725000D03*
X325000000Y-94275000D03*
X324750000Y-86725000D03*
X324500000Y-94275000D03*
X324250000Y-86725000D03*
X324000000Y-94275000D03*
X323750000Y-86725000D03*
X323500000Y-94275000D03*
X323250000Y-86725000D03*
X323000000Y-94275000D03*
X322750000Y-86725000D03*
X322500000Y-94275000D03*
X322250000Y-86725000D03*
X322000000Y-94275000D03*
X321750000Y-86725000D03*
X321500000Y-94275000D03*
X321250000Y-86725000D03*
X321000000Y-94275000D03*
X320750000Y-86725000D03*
X320500000Y-94275000D03*
X320250000Y-86725000D03*
X320000000Y-94275000D03*
X319750000Y-86725000D03*
X319500000Y-94275000D03*
X319250000Y-86725000D03*
X319000000Y-94275000D03*
X318750000Y-86725000D03*
X318500000Y-94275000D03*
X318250000Y-86725000D03*
X318000000Y-94275000D03*
X317750000Y-86725000D03*
X317500000Y-94275000D03*
X317250000Y-86725000D03*
D20*
X360600000Y-13800000D03*
X360600000Y-7700000D03*
X372000000Y-13800000D03*
X372000000Y-7700000D03*
D21*
X366750000Y-170800000D03*
X366250000Y-170800000D03*
X365750000Y-170800000D03*
X365250000Y-170800000D03*
X364750000Y-170800000D03*
X364250000Y-170800000D03*
X363750000Y-170800000D03*
X363250000Y-170800000D03*
X362750000Y-170800000D03*
X362250000Y-170800000D03*
X361750000Y-170800000D03*
X361250000Y-170800000D03*
D22*
X414300000Y-144885000D03*
X414300000Y-143335000D03*
D23*
X313820000Y-90580000D03*
X313820000Y-89030000D03*
X313820000Y-87480000D03*
D24*
X443150000Y-13300000D03*
X440200000Y-13300000D03*
D25*
X404515000Y-143100000D03*
X402965000Y-143100000D03*
D26*
X353820000Y-142770000D03*
X355520000Y-142770000D03*
D27*
X343959813Y-164850900D03*
X344459938Y-164850900D03*
X344960062Y-164850900D03*
X345460187Y-164850900D03*
X345460187Y-163149100D03*
X344960062Y-163149100D03*
X344459938Y-163149100D03*
X343959813Y-163149100D03*
D28*
X373083900Y-26975000D03*
X370366100Y-26975000D03*
D29*
X370980000Y-22335000D03*
X371630000Y-22335000D03*
X372280000Y-22335000D03*
X372930000Y-22335000D03*
D30*
X370980000Y-19410000D03*
X371630000Y-19410000D03*
X372280000Y-19410000D03*
X372930000Y-19410000D03*
D31*
X404565000Y-141640000D03*
X402915000Y-141640000D03*
D32*
X375890000Y-170050000D03*
X380290000Y-170050000D03*
D22*
X408890000Y-143345000D03*
X408890000Y-144895000D03*
D33*
X415710000Y-115336400D03*
X415710000Y-116986400D03*
D23*
X343820000Y-155075000D03*
X343820000Y-153525000D03*
D22*
X410420000Y-146825000D03*
X410420000Y-148375000D03*
D34*
X384750000Y-122550000D03*
X385249999Y-122550000D03*
X385750001Y-122550000D03*
X386250000Y-122550000D03*
X386750001Y-122550000D03*
X387250000Y-122550000D03*
X387749999Y-122550000D03*
X388250001Y-122550000D03*
X388750000Y-122550000D03*
X389250002Y-122550000D03*
X389750000Y-122550000D03*
X390250000Y-122550000D03*
X390750001Y-122550000D03*
X391250000Y-122550000D03*
X391750002Y-122550000D03*
X392250001Y-122550000D03*
X392750000Y-122550000D03*
X393250001Y-122550000D03*
X393750000Y-122550000D03*
X394249999Y-122550000D03*
X394750001Y-122550000D03*
X395250000Y-122550000D03*
D35*
X382450010Y-125249999D03*
X397549990Y-125249999D03*
D16*
X367250000Y-29275000D03*
X367250000Y-27625000D03*
D36*
X383969998Y-77100000D03*
X389620000Y-77100000D03*
D23*
X416500000Y-127645000D03*
X416500000Y-126095000D03*
D37*
X416360000Y-15260000D03*
X416360000Y-12310000D03*
D38*
X297150200Y-148160500D03*
X298800200Y-148160500D03*
D39*
X397360000Y-143430000D03*
X397360000Y-141730000D03*
D40*
X385950000Y-109217500D03*
X387500000Y-109217500D03*
X389050000Y-109217500D03*
D22*
X394200000Y-161570000D03*
X394200000Y-163120000D03*
D40*
X410080000Y-27891736D03*
X411630000Y-27891736D03*
D38*
X371550000Y-23685000D03*
X373200000Y-23685000D03*
D28*
X406621100Y-96850000D03*
X409338900Y-96850000D03*
D41*
X357140000Y-164820000D03*
X357140000Y-162920000D03*
D22*
X424240000Y-117095000D03*
X424240000Y-118645000D03*
D42*
X354020000Y-25000000D03*
X356220000Y-25950000D03*
X354020000Y-26900000D03*
D43*
X409980900Y-78145001D03*
X408080900Y-78145001D03*
D44*
X399978237Y-41222763D03*
X398327237Y-41222763D03*
D25*
X346675000Y-166150000D03*
X345125000Y-166150000D03*
D22*
X414800000Y-146830000D03*
X414800000Y-148380000D03*
D41*
X397510000Y-147880000D03*
X397510000Y-145980000D03*
D31*
X412385000Y-96860000D03*
X410735000Y-96860000D03*
D28*
X405628900Y-93770000D03*
X402911100Y-93770000D03*
D38*
X402065000Y-73980000D03*
X403715000Y-73980000D03*
D16*
X419490000Y-144945000D03*
X419490000Y-143295000D03*
D40*
X401945000Y-81390000D03*
X403495000Y-81390000D03*
D16*
X371830000Y-163800000D03*
X371830000Y-162150000D03*
D38*
X311550000Y-109990000D03*
X313200000Y-109990000D03*
D22*
X347320000Y-155325000D03*
X347320000Y-156875000D03*
D23*
X405970000Y-144895000D03*
X405970000Y-143345000D03*
D33*
X412110000Y-123080000D03*
X412110000Y-124730000D03*
D40*
X386031000Y-103300000D03*
X387581000Y-103300000D03*
D23*
X399810000Y-133235000D03*
X399810000Y-131685000D03*
D22*
X345850000Y-155325000D03*
X345850000Y-156875000D03*
X388347237Y-29877763D03*
X388347237Y-31427763D03*
X411210000Y-143340000D03*
X411210000Y-144890000D03*
D25*
X298755000Y-155090000D03*
X297205000Y-155090000D03*
X406655000Y-105230000D03*
X405105000Y-105230000D03*
D45*
X390430000Y-64760000D03*
X387330000Y-64760000D03*
D16*
X415040000Y-124735000D03*
X415040000Y-123085000D03*
X418250000Y-16765000D03*
X418250000Y-15115000D03*
D22*
X413340000Y-146825000D03*
X413340000Y-148375000D03*
D25*
X373150000Y-25145000D03*
X371600000Y-25145000D03*
D33*
X350200000Y-87950000D03*
X350200000Y-89600000D03*
D31*
X342765000Y-163160000D03*
X341115000Y-163160000D03*
D40*
X420255000Y-141840000D03*
X421805000Y-141840000D03*
X398492237Y-44192763D03*
X400042237Y-44192763D03*
D31*
X383150000Y-144760000D03*
X381500000Y-144760000D03*
D38*
X353065000Y-174500000D03*
X354715000Y-174500000D03*
D31*
X383150000Y-147680000D03*
X381500000Y-147680000D03*
D46*
X392329800Y-118125021D03*
X392329800Y-118775007D03*
X392329800Y-119424993D03*
X392329800Y-120074979D03*
X398070200Y-120074979D03*
X398070200Y-119424993D03*
X398070200Y-118775007D03*
X398070200Y-118125021D03*
D47*
X347140000Y-148580000D03*
X347140000Y-143080000D03*
D22*
X392740000Y-161570000D03*
X392740000Y-163120000D03*
D48*
X345170000Y-167870000D03*
X347070000Y-167870000D03*
D33*
X412210000Y-115315000D03*
X412210000Y-116965000D03*
D49*
X385377237Y-31412763D03*
X385377237Y-31912763D03*
X385377237Y-32412763D03*
X386677237Y-32412763D03*
X386677237Y-31912763D03*
X386677237Y-31412763D03*
X382317087Y-31412763D03*
X382317087Y-31912763D03*
X382317087Y-32412763D03*
X383617087Y-32412763D03*
X383617087Y-31912763D03*
X383617087Y-31412763D03*
D38*
X296795000Y-140635000D03*
X298445000Y-140635000D03*
D31*
X387577000Y-104830000D03*
X385927000Y-104830000D03*
D28*
X313258900Y-113740000D03*
X310541100Y-113740000D03*
D41*
X399300000Y-143830000D03*
X399300000Y-141930000D03*
D44*
X311550000Y-97190000D03*
X313201000Y-97190000D03*
D25*
X403665000Y-72510000D03*
X402115000Y-72510000D03*
D16*
X422750000Y-118705000D03*
X422750000Y-117055000D03*
D39*
X418160000Y-127720000D03*
X418160000Y-126020000D03*
D50*
X403395000Y-102815000D03*
X403395000Y-105365000D03*
D41*
X359100000Y-164810000D03*
X359100000Y-162910000D03*
D33*
X391280000Y-161520000D03*
X391280000Y-163170000D03*
D25*
X382950000Y-112620000D03*
X381400000Y-112620000D03*
X401870111Y-20370975D03*
X400320111Y-20370975D03*
D38*
X398447237Y-42732763D03*
X400097237Y-42732763D03*
D51*
X296840000Y-146540000D03*
X298770400Y-146540000D03*
X297805200Y-144381000D03*
D40*
X420245000Y-131900000D03*
X421795000Y-131900000D03*
D22*
X411880000Y-146825000D03*
X411880000Y-148375000D03*
D16*
X344470000Y-161435000D03*
X344470000Y-159785000D03*
D23*
X412120000Y-127645000D03*
X412120000Y-126095000D03*
D46*
X386934700Y-91899999D03*
X386934700Y-92550000D03*
X386934700Y-93200001D03*
X386934700Y-93850000D03*
X386934700Y-94499999D03*
X386934700Y-95150000D03*
X386934700Y-95799999D03*
X392675100Y-95800001D03*
X392675100Y-95150000D03*
X392675100Y-94500001D03*
X392675100Y-93850000D03*
X392675100Y-93200001D03*
X392675100Y-92550000D03*
X392675100Y-91900001D03*
D27*
X384349875Y-147891800D03*
X384850000Y-147891800D03*
X385350124Y-147891800D03*
X385850249Y-147891800D03*
X385850249Y-146190000D03*
X385350124Y-146190000D03*
X384850000Y-146190000D03*
X384349875Y-146190000D03*
D23*
X370190000Y-169640000D03*
X370190000Y-168090000D03*
D25*
X406655000Y-108160000D03*
X405105000Y-108160000D03*
D41*
X352570000Y-152070000D03*
X352570000Y-150170000D03*
D23*
X350360000Y-152115000D03*
X350360000Y-150565000D03*
D44*
X311549500Y-108230000D03*
X313200500Y-108230000D03*
D52*
X356200000Y-28700000D03*
X352400000Y-28700000D03*
D25*
X404535000Y-139570000D03*
X402985000Y-139570000D03*
D44*
X400874500Y-84850000D03*
X402525500Y-84850000D03*
D25*
X403635000Y-137070000D03*
X402085000Y-137070000D03*
D22*
X371130000Y-121270000D03*
X371130000Y-122820000D03*
D16*
X418030000Y-144945000D03*
X418030000Y-143295000D03*
D25*
X406660000Y-102960000D03*
X405110000Y-102960000D03*
D16*
X350300000Y-29000000D03*
X350300000Y-27350000D03*
D53*
X408998200Y-116737800D03*
X408998200Y-114020000D03*
D25*
X406650000Y-106690000D03*
X405100000Y-106690000D03*
D38*
X391235000Y-98950000D03*
X392885000Y-98950000D03*
D40*
X386031000Y-100782500D03*
X387581000Y-100782500D03*
D33*
X410650000Y-123080000D03*
X410650000Y-124730000D03*
D31*
X390422237Y-44262763D03*
X388772237Y-44262763D03*
D25*
X382955000Y-114080000D03*
X381405000Y-114080000D03*
D54*
X404540000Y-148050000D03*
X406740000Y-148050000D03*
X406740000Y-146450000D03*
X404540000Y-146450000D03*
D48*
X385700000Y-150900000D03*
X387600000Y-150900000D03*
D41*
X351750000Y-147180000D03*
X351750000Y-145280000D03*
D55*
X392467237Y-46552763D03*
X393737237Y-46552763D03*
X395007237Y-46552763D03*
X396277237Y-46552763D03*
X396277237Y-41152763D03*
X395007237Y-41152763D03*
X393737237Y-41152763D03*
X392467237Y-41152763D03*
D31*
X406670000Y-78390000D03*
X405020000Y-78390000D03*
D56*
X358400000Y-26865000D03*
X358400000Y-28135000D03*
X365200000Y-28135000D03*
X365200000Y-26865000D03*
D57*
X389350000Y-144760000D03*
X394850000Y-144760000D03*
D58*
X397257237Y-32802763D03*
X397257237Y-37202763D03*
D40*
X385950000Y-106700000D03*
X387500000Y-106700000D03*
X389050000Y-106700000D03*
D31*
X397205000Y-130700000D03*
X395555000Y-130700000D03*
D40*
X391214900Y-90410000D03*
X392764900Y-90410000D03*
D23*
X407730000Y-127645000D03*
X407730000Y-126095000D03*
D16*
X416560000Y-144945000D03*
X416560000Y-143295000D03*
D58*
X391347237Y-32772763D03*
X391347237Y-37172763D03*
D59*
X345670000Y-153940002D03*
D60*
X345416000Y-153685001D03*
D59*
X346170126Y-153940002D03*
X346670252Y-153940002D03*
X347170378Y-153940002D03*
X347670504Y-153940002D03*
X348170630Y-153940002D03*
X348670756Y-153940002D03*
D60*
X348924756Y-153686002D03*
X348995378Y-153115190D03*
X348995378Y-152615064D03*
X348995378Y-152114938D03*
X348995378Y-151614812D03*
X348924756Y-151044000D03*
D59*
X348670756Y-150790000D03*
X348170630Y-150790000D03*
X347670504Y-150790000D03*
X347170378Y-150790000D03*
X346670252Y-150790000D03*
X346170126Y-150790000D03*
D60*
X345416000Y-151044000D03*
D59*
X345670000Y-150790000D03*
D60*
X345345378Y-151614812D03*
X345345378Y-152114938D03*
X345345378Y-152615064D03*
X345345378Y-153115190D03*
D61*
X347170378Y-152365001D03*
D53*
X413970000Y-118148900D03*
X413970000Y-115431100D03*
D62*
X352200000Y-25087500D03*
X352200000Y-26912500D03*
D25*
X414790000Y-26221736D03*
X413240000Y-26221736D03*
X411690000Y-26221736D03*
D33*
X352200000Y-21992500D03*
X352200000Y-23642500D03*
D38*
X388777237Y-42802763D03*
X390427237Y-42802763D03*
D63*
X412030000Y-29621736D03*
X410130000Y-29621736D03*
X411080000Y-31821736D03*
D22*
X405820000Y-164735000D03*
X405820000Y-166285000D03*
D64*
X424460000Y-115465000D03*
X424460000Y-114815000D03*
X424460000Y-114165000D03*
X424460000Y-113515000D03*
X421660000Y-113515000D03*
X421660000Y-114165000D03*
X421660000Y-114815000D03*
X421660000Y-115465000D03*
D22*
X363570000Y-166995000D03*
X363570000Y-168545000D03*
D40*
X341165000Y-160240000D03*
X342715000Y-160240000D03*
D25*
X411600111Y-16880975D03*
X410050111Y-16880975D03*
D38*
X311550500Y-99000000D03*
X313200500Y-99000000D03*
D23*
X388350000Y-163120000D03*
X388350000Y-161570000D03*
D38*
X408590000Y-71320000D03*
X410240000Y-71320000D03*
D33*
X371660000Y-168030000D03*
X371660000Y-169680000D03*
D40*
X420245000Y-135100000D03*
X421795000Y-135100000D03*
D31*
X392875000Y-97490000D03*
X391225000Y-97490000D03*
D23*
X370370000Y-163750000D03*
X370370000Y-162200000D03*
D16*
X418240000Y-13795000D03*
X418240000Y-12145000D03*
D31*
X412380000Y-98900000D03*
X410730000Y-98900000D03*
D33*
X397130000Y-161520000D03*
X397130000Y-163170000D03*
D65*
X370496200Y-171400000D03*
X370496200Y-172350000D03*
X370496200Y-173300000D03*
X372883800Y-173300000D03*
X372883800Y-171400000D03*
D38*
X356020000Y-174500000D03*
X357670000Y-174500000D03*
D16*
X418650000Y-116995000D03*
X418650000Y-115345000D03*
D66*
X371069999Y-165670000D03*
X371069999Y-166070000D03*
D67*
X371120001Y-166620001D03*
X371520000Y-166620001D03*
X371920000Y-166620001D03*
X372319999Y-166620001D03*
D66*
X372370001Y-166070000D03*
X372370001Y-165670000D03*
D67*
X372319999Y-165119999D03*
X371920000Y-165119999D03*
X371520000Y-165119999D03*
X371120001Y-165119999D03*
D39*
X396097237Y-26462763D03*
X396097237Y-24762763D03*
D48*
X410095111Y-18590975D03*
X411995111Y-18590975D03*
D68*
X389176249Y-69650000D03*
X384350249Y-69650000D03*
D28*
X406611100Y-98890000D03*
X409328900Y-98890000D03*
D16*
X384850000Y-144630000D03*
X384850000Y-142980000D03*
D23*
X407020000Y-111195000D03*
X407020000Y-109645000D03*
D65*
X397971200Y-81360000D03*
X397971200Y-82310000D03*
X397971200Y-83260000D03*
X400358800Y-83260000D03*
X400358800Y-81360000D03*
D40*
X402115000Y-78400000D03*
X403665000Y-78400000D03*
D39*
X356982300Y-160526386D03*
X356982300Y-158826386D03*
D38*
X350985000Y-155170000D03*
X352635000Y-155170000D03*
D69*
X405730000Y-73010002D03*
X405730000Y-73660000D03*
X405730000Y-74310002D03*
X405730000Y-74960000D03*
X409971800Y-74960000D03*
X409971800Y-74310002D03*
X409971800Y-73660000D03*
X409971800Y-73010002D03*
D70*
X407850900Y-73985001D03*
D57*
X348960000Y-161720000D03*
X354460000Y-161720000D03*
D71*
X313024000Y-106585200D03*
X313024000Y-104654800D03*
X310865000Y-105620000D03*
D41*
X353720000Y-147180000D03*
X353720000Y-145280000D03*
D23*
X401270000Y-133235000D03*
X401270000Y-131685000D03*
D41*
X342440000Y-147180000D03*
X342440000Y-145280000D03*
D31*
X298810200Y-149620500D03*
X297160200Y-149620500D03*
D16*
X413580000Y-127695000D03*
X413580000Y-126045000D03*
D40*
X296840000Y-142105000D03*
X298390000Y-142105000D03*
D31*
X401875000Y-98280000D03*
X400225000Y-98280000D03*
D53*
X406948200Y-116738900D03*
X406948200Y-114021100D03*
D31*
X342765000Y-161700000D03*
X341115000Y-161700000D03*
D43*
X313805500Y-95260000D03*
X311905500Y-95260000D03*
D72*
X409370000Y-163980000D03*
X407439600Y-163980000D03*
X408404800Y-166139000D03*
D38*
X405030000Y-76920000D03*
X406680000Y-76920000D03*
D31*
X399400000Y-84830000D03*
X397750000Y-84830000D03*
D44*
X304154500Y-88930000D03*
X305805500Y-88930000D03*
D38*
X381500000Y-146220000D03*
X383150000Y-146220000D03*
D73*
X299920000Y-139985000D03*
X299920000Y-140635000D03*
X299920000Y-141285000D03*
X299920000Y-141935000D03*
D74*
X302845000Y-139985000D03*
X302845000Y-140635000D03*
X302845000Y-141285000D03*
X302845000Y-141935000D03*
D33*
X395670000Y-161520000D03*
X395670000Y-163170000D03*
D38*
X420205000Y-129640000D03*
X421855000Y-129640000D03*
D25*
X404945000Y-132600000D03*
X403395000Y-132600000D03*
D41*
X399480000Y-147890000D03*
X399480000Y-145990000D03*
D40*
X420245000Y-133640000D03*
X421795000Y-133640000D03*
D16*
X417190000Y-116986400D03*
X417190000Y-115336400D03*
D38*
X311550000Y-103070000D03*
X313200000Y-103070000D03*
D31*
X302845000Y-88920000D03*
X301195000Y-88920000D03*
X342765000Y-164620000D03*
X341115000Y-164620000D03*
X298800000Y-156570000D03*
X297150000Y-156570000D03*
D22*
X404100000Y-109645000D03*
X404100000Y-111195000D03*
D40*
X420255000Y-140370000D03*
X421805000Y-140370000D03*
X381550000Y-143300000D03*
X383100000Y-143300000D03*
D16*
X402628200Y-111255000D03*
X402628200Y-109605000D03*
D34*
X365169990Y-142080001D03*
X365669989Y-142080001D03*
X366169991Y-142080001D03*
X366669990Y-142080001D03*
X367169991Y-142080001D03*
X367669990Y-142080001D03*
X368169989Y-142080001D03*
X368669991Y-142080001D03*
X369169990Y-142080001D03*
X369669992Y-142080001D03*
X370169990Y-142080001D03*
X370669990Y-142080001D03*
X371169991Y-142080001D03*
X371669990Y-142080001D03*
X372169992Y-142080001D03*
X372669991Y-142080001D03*
X373169990Y-142080001D03*
X373669991Y-142080001D03*
X374169990Y-142080001D03*
X374669989Y-142080001D03*
X375169991Y-142080001D03*
X375669990Y-142080001D03*
D35*
X362870000Y-144780000D03*
X377969980Y-144780000D03*
D40*
X402115000Y-76920000D03*
X403665000Y-76920000D03*
D33*
X348730000Y-87940000D03*
X348730000Y-89590000D03*
D40*
X386031000Y-98265000D03*
X387581000Y-98265000D03*
D75*
X401318200Y-106550000D03*
X401318200Y-108250000D03*
D41*
X358940000Y-160590000D03*
X358940000Y-158690000D03*
D23*
X415040000Y-127645000D03*
X415040000Y-126095000D03*
D76*
X403045001Y-26111936D03*
X403695000Y-26111936D03*
X404344998Y-26111936D03*
X404994999Y-26111936D03*
X405644998Y-26111936D03*
X406294999Y-26111936D03*
X406944998Y-26111936D03*
X407594999Y-26111936D03*
X408244998Y-26111936D03*
X408894999Y-26111936D03*
X409544998Y-26111936D03*
X410194999Y-26111936D03*
X410194999Y-20371536D03*
X409545000Y-20371536D03*
X408894999Y-20371536D03*
X408245001Y-20371536D03*
X407594999Y-20371536D03*
X406945001Y-20371536D03*
X406295002Y-20371536D03*
X405645001Y-20371536D03*
X404995002Y-20371536D03*
X404345001Y-20371536D03*
X403695002Y-20371536D03*
X403045001Y-20371536D03*
D38*
X400225000Y-96820000D03*
X401875000Y-96820000D03*
D33*
X421830000Y-103445000D03*
X421830000Y-105095000D03*
D22*
X405560000Y-109645000D03*
X405560000Y-111195000D03*
D24*
X357517500Y-176390000D03*
X354567500Y-176390000D03*
D25*
X404935000Y-131130000D03*
X403385000Y-131130000D03*
D23*
X407430000Y-144895000D03*
X407430000Y-143345000D03*
D25*
X400070000Y-116870000D03*
X398520000Y-116870000D03*
D77*
X408560001Y-104090000D03*
X408560001Y-104589999D03*
X408560001Y-105090000D03*
X408560001Y-105589999D03*
X408560001Y-106090001D03*
X408560001Y-106590000D03*
X408560001Y-107089999D03*
X408560001Y-107590000D03*
X408560001Y-108090000D03*
X408560001Y-108590001D03*
X408560001Y-109090000D03*
X408560001Y-109589999D03*
X408560001Y-110090001D03*
X408560001Y-110590000D03*
X408560001Y-111090001D03*
X408560001Y-111590000D03*
D78*
X410560000Y-113589999D03*
X411059999Y-113589999D03*
X411560000Y-113589999D03*
X412059999Y-113589999D03*
X412560001Y-113589999D03*
X413060000Y-113589999D03*
X413559999Y-113589999D03*
X414060000Y-113589999D03*
X414560000Y-113589999D03*
X415060001Y-113589999D03*
X415560000Y-113589999D03*
X416059999Y-113589999D03*
X416560001Y-113589999D03*
X417060000Y-113589999D03*
X417560001Y-113589999D03*
X418060000Y-113589999D03*
D77*
X420059999Y-111590000D03*
X420059999Y-111090001D03*
X420059999Y-110590000D03*
X420059999Y-110090001D03*
X420059999Y-109589999D03*
X420059999Y-109090000D03*
X420059999Y-108590001D03*
X420059999Y-108090000D03*
X420059999Y-107590000D03*
X420059999Y-107089999D03*
X420059999Y-106590000D03*
X420059999Y-106090001D03*
X420059999Y-105589999D03*
X420059999Y-105090000D03*
X420059999Y-104589999D03*
X420059999Y-104090000D03*
D78*
X418060000Y-102090001D03*
X417560001Y-102090001D03*
X417060000Y-102090001D03*
X416560001Y-102090001D03*
X416059999Y-102090001D03*
X415560000Y-102090001D03*
X415060001Y-102090001D03*
X414560000Y-102090001D03*
X414060000Y-102090001D03*
X413559999Y-102090001D03*
X413060000Y-102090001D03*
X412560001Y-102090001D03*
X412059999Y-102090001D03*
X411560000Y-102090001D03*
X411059999Y-102090001D03*
X410560000Y-102090001D03*
D22*
X413500000Y-30066736D03*
X413500000Y-31616736D03*
D49*
X393177237Y-29862763D03*
X393177237Y-30362763D03*
X393177237Y-30862763D03*
X394477237Y-30862763D03*
X394477237Y-30362763D03*
X394477237Y-29862763D03*
D22*
X346550000Y-160705000D03*
X346550000Y-162255000D03*
D40*
X420245000Y-137650000D03*
X421795000Y-137650000D03*
D22*
X386940000Y-143690000D03*
X386940000Y-145240000D03*
D25*
X410020900Y-76425001D03*
X408470900Y-76425001D03*
D16*
X373290000Y-163795000D03*
X373290000Y-162145000D03*
D25*
X387200000Y-149180000D03*
X385650000Y-149180000D03*
X403635000Y-135250000D03*
X402085000Y-135250000D03*
D38*
X405635000Y-71320000D03*
X407285000Y-71320000D03*
D23*
X410750000Y-116915000D03*
X410750000Y-115365000D03*
D79*
X401800000Y-13710000D03*
X402300000Y-13710000D03*
X402800000Y-13710000D03*
X403300000Y-13710000D03*
X403800000Y-13710000D03*
X404300000Y-13710000D03*
X404800000Y-13710000D03*
X405300000Y-13710000D03*
X405800000Y-13710000D03*
X406300000Y-13710000D03*
X406800000Y-13710000D03*
X407300000Y-13710000D03*
X407800000Y-13710000D03*
X408300000Y-13710000D03*
X408800000Y-13710000D03*
X409300000Y-13710000D03*
X409800000Y-13710000D03*
X410300000Y-13710000D03*
X410800000Y-13710000D03*
D31*
X309145000Y-113740000D03*
X307495000Y-113740000D03*
D38*
X402065000Y-75460000D03*
X403715000Y-75460000D03*
D41*
X355690000Y-147190000D03*
X355690000Y-145290000D03*
D33*
X410787355Y-163778773D03*
X410787355Y-165428773D03*
D41*
X341730000Y-152070000D03*
X341730000Y-150170000D03*
D63*
X405160000Y-96680000D03*
X404210000Y-98880000D03*
X403260000Y-96680000D03*
D53*
X404900000Y-116738900D03*
X404900000Y-114021100D03*
D23*
X343980000Y-152095000D03*
X343980000Y-150545000D03*
D33*
X352200000Y-19012500D03*
X352200000Y-20662500D03*
D22*
X372590000Y-121275000D03*
X372590000Y-122825000D03*
D44*
X311549500Y-101260000D03*
X313200500Y-101260000D03*
D33*
X389810000Y-161520000D03*
X389810000Y-163170000D03*
D63*
X298755200Y-151230500D03*
X296855200Y-151230500D03*
X297805200Y-153430500D03*
D40*
X383845000Y-81770000D03*
X385395000Y-81770000D03*
D48*
X374580000Y-166120000D03*
X376480000Y-166120000D03*
D33*
X409190000Y-123085000D03*
X409190000Y-124735000D03*
D44*
X390288237Y-41222763D03*
X388637237Y-41222763D03*
M02*
