%TF.GenerationSoftware,KiCad,Pcbnew,9.0.5-9.0.5~ubuntu24.04.1*%
%TF.CreationDate,2025-10-12T14:56:27+02:00*%
%TF.ProjectId,BB3plus DVID TFT display,42423370-6c75-4732-9044-564944205446,r1B1*%
%TF.SameCoordinates,Original*%
%TF.FileFunction,Profile,NP*%
%FSLAX46Y46*%
G04 Gerber Fmt 4.6, Leading zero omitted, Abs format (unit mm)*
G04 Created by KiCad (PCBNEW 9.0.5-9.0.5~ubuntu24.04.1) date 2025-10-12 14:56:27*
%MOMM*%
%LPD*%
G01*
G04 APERTURE LIST*
%TA.AperFunction,Profile*%
%ADD10C,0.100000*%
%TD*%
G04 APERTURE END LIST*
D10*
X99906586Y-132081586D02*
G75*
G02*
X100481586Y-131506586I575014J-14D01*
G01*
X221000000Y-140000000D02*
X221000000Y-51000000D01*
X179500000Y-135500000D02*
G75*
G02*
X180000000Y-135000000I500000J0D01*
G01*
X179500000Y-141500000D02*
X179500000Y-135500000D01*
X180000000Y-135000000D02*
X197500000Y-135000000D01*
X176898414Y-133925000D02*
G75*
G02*
X176323414Y-134500014I-575014J0D01*
G01*
X85000000Y-51000000D02*
G75*
G02*
X86499997Y-49500000I1500000J0D01*
G01*
X176900000Y-132075000D02*
X176900000Y-133925000D01*
X85000000Y-140000000D02*
X85000000Y-51000000D01*
X86500000Y-49500000D02*
X219500000Y-49500000D01*
X221000000Y-140000000D02*
G75*
G02*
X219500003Y-141500000I-1500000J0D01*
G01*
X198000000Y-141500000D02*
X219500000Y-141500000D01*
X99906586Y-133931586D02*
X99906586Y-132081586D01*
X197500000Y-135000000D02*
G75*
G02*
X198000000Y-135500000I0J-500000D01*
G01*
X87000000Y-114000000D02*
X99500000Y-114000000D01*
X99500000Y-126600000D01*
X87000000Y-126600000D01*
X87000000Y-114000000D01*
X87000000Y-96000000D02*
X99500000Y-96000000D01*
X99500000Y-108600000D01*
X87000000Y-108600000D01*
X87000000Y-96000000D01*
X86500000Y-141500000D02*
X179500000Y-141500000D01*
X86500000Y-141500000D02*
G75*
G02*
X85000000Y-140000003I0J1500000D01*
G01*
X100481586Y-134506586D02*
G75*
G02*
X99906614Y-133931586I14J574986D01*
G01*
X176325000Y-134500000D02*
X100481586Y-134506586D01*
X100481587Y-131506587D02*
X176325000Y-131500000D01*
X198000000Y-135500000D02*
X198000000Y-141500000D01*
X87000000Y-60000000D02*
X99500000Y-60000000D01*
X99500000Y-72600000D01*
X87000000Y-72600000D01*
X87000000Y-60000000D01*
X219500041Y-49500003D02*
G75*
G02*
X221000097Y-51000000I-41J-1500097D01*
G01*
X87000000Y-78000000D02*
X99500000Y-78000000D01*
X99500000Y-90600000D01*
X87000000Y-90600000D01*
X87000000Y-78000000D01*
X176323414Y-131500000D02*
G75*
G02*
X176898400Y-132075000I-14J-575000D01*
G01*
M02*
