M48
; DRILL file {KiCad 9.0.7-9.0.7~ubuntu24.04.1} date 2026-02-04T14:57:27+0100
; FORMAT={-:-/ absolute / inch / decimal}
; #@! TF.CreationDate,2026-02-04T14:57:27+01:00
; #@! TF.GenerationSoftware,Kicad,Pcbnew,9.0.7-9.0.7~ubuntu24.04.1
; #@! TF.FileFunction,Plated,1,2,PTH
FMAT,2
INCH
; #@! TA.AperFunction,Plated,PTH,ViaDrill
T1C0.0118
; #@! TA.AperFunction,Plated,PTH,ComponentDrill
T2C0.0240
; #@! TA.AperFunction,Plated,PTH,ComponentDrill
T3C0.0315
; #@! TA.AperFunction,Plated,PTH,ComponentDrill
T4C0.1260
%
G90
G05
T1
X3.5732Y-2.2772
X3.5732Y-2.9862
X3.5732Y-3.6925
X3.5732Y-4.4035
X4.1705Y-3.5161
X4.3327Y-3.6803
X4.3811Y-3.4917
X4.3902Y-3.678
X4.3941Y-3.5417
X4.4738Y-3.7004
X4.5054Y-3.198
X4.5134Y-3.6941
X4.5358Y-2.8283
X4.5524Y-3.1465
X4.5587Y-3.5751
X4.595Y-3.5761
X4.6043Y-3.4496
X4.6063Y-3.3878
X4.6142Y-2.6831
X4.6165Y-3.5122
X4.6287Y-2.8437
X4.6492Y-3.502
X4.6559Y-3.5701
X4.6614Y-3.2833
X4.6719Y-3.3087
X4.6909Y-3.3256
X4.6909Y-3.7748
X4.7213Y-3.3146
X4.7346Y-3.2461
X4.7594Y-3.2669
X4.7862Y-3.0004
X4.8646Y-2.7181
X4.8807Y-2.8024
X4.9992Y-3.3758
X5.0642Y-3.353
X5.0835Y-2.8791
X5.1079Y-3.1579
X5.1909Y-3.4616
X5.1953Y-2.6831
X5.2106Y-3.4778
X5.2303Y-3.4963
X5.2492Y-3.5116
X5.2697Y-3.5301
X5.277Y-3.8205
X5.2894Y-3.5451
X5.3008Y-3.7965
X5.3012Y-3.8177
X5.3087Y-3.5301
X5.326Y-3.7976
X5.3287Y-3.5455
X5.3291Y-3.7728
X5.3508Y-3.5486
X5.3551Y-3.7756
X5.3681Y-3.5301
X5.377Y-3.7711
X5.3898Y-3.5404
X5.3986Y-3.7656
X5.4079Y-3.5301
X5.4327Y-3.5388
X5.4358Y-3.89
X5.4472Y-3.523
X5.4547Y-3.9057
X5.4665Y-3.5112
X5.4752Y-3.89
X5.4862Y-3.4994
X5.4965Y-3.9057
X5.5142Y-3.89
X5.5311Y-3.9057
X5.5488Y-3.89
X5.5492Y-3.4606
X5.5669Y-3.9057
X5.5717Y-3.2106
X5.5961Y-3.3299
X5.6398Y-3.2886
X5.6398Y-3.3785
X5.6476Y-2.9803
X5.665Y-3.3776
X5.6732Y-3.0063
X5.6913Y-3.0264
X5.6976Y-3.3071
X5.6976Y-3.3713
X5.7087Y-4.222
X5.7224Y-3.0075
X5.7232Y-3.3073
X5.7277Y-3.3714
X5.7396Y-3.3962
X5.7465Y-4.3488
X5.75Y-3.3075
X5.7531Y-3.4173
X5.7752Y-3.2886
X5.802Y-4.3272
X5.8024Y-3.7429
X5.8024Y-3.8012
X5.807Y-4.0248
X5.8398Y-4.278
X5.8488Y-4.0
X5.8579Y-3.2425
X5.8752Y-4.5886
X5.8783Y-3.1047
X5.9047Y-3.2614
X5.9276Y-4.3898
X5.95Y-4.5492
X5.9984Y-4.3898
X6.0004Y-3.7429
X6.0748Y-4.5799
X6.0756Y-4.5177
X6.1411Y-4.4779
X6.161Y-4.1307
X6.161Y-4.1593
X6.1622Y-4.1014
X6.1886Y-4.1301
X6.1886Y-4.1587
X6.1898Y-4.1008
X6.2161Y-4.1299
X6.2161Y-4.1585
X6.2173Y-3.6787
X6.2173Y-4.1006
X6.2173Y-4.5189
X6.2177Y-4.5799
X6.2437Y-4.1303
X6.2437Y-4.1589
X6.2449Y-4.101
X6.2488Y-3.7602
X6.2713Y-4.1305
X6.2713Y-4.1591
X6.2724Y-4.1012
X6.3114Y-3.678
X6.3122Y-3.7402
X6.315Y-4.5803
X6.3165Y-4.5193
X6.4161Y-4.6811
X6.4161Y-4.7453
X6.4161Y-4.8047
X6.4161Y-4.8656
X6.4469Y-4.5807
X6.4705Y-4.4972
X6.5083Y-4.5382
X6.5083Y-4.5583
X6.585Y-4.185
X6.6067Y-4.0276
X6.6071Y-4.0079
X6.6287Y-4.4756
X6.6374Y-3.9272
X6.7397Y-3.6538
X6.7482Y-3.8829
X6.8921Y-4.6311
X6.8937Y-4.6828
X6.8937Y-4.7469
X6.8937Y-4.8064
X6.8937Y-4.8673
X6.9436Y-3.9811
X6.968Y-3.9831
X6.9909Y-3.9831
X7.3243Y-4.0335
X7.3243Y-4.0594
X7.3243Y-4.0831
X7.3243Y-4.1098
X7.3243Y-4.1346
X7.3243Y-4.1614
X7.3243Y-4.1886
X7.3506Y-4.0333
X7.3506Y-4.0593
X7.3506Y-4.0829
X7.3506Y-4.1097
X7.3506Y-4.1345
X7.3506Y-4.1612
X7.3506Y-4.1884
T2
X5.1697Y-3.226
X6.8591Y-4.28
X7.117Y-4.28
T3
X4.378Y-2.1677
X4.4567Y-2.1677
X4.5354Y-2.1677
X4.6142Y-2.1677
T4
X3.7402Y-2.1063
X3.7402Y-5.4134
X8.3071Y-2.1063
X8.3071Y-5.4134
M30
