%TF.GenerationSoftware,KiCad,Pcbnew,9.0.7-9.0.7~ubuntu24.04.1*%
%TF.CreationDate,2026-01-10T09:40:53+01:00*%
%TF.ProjectId,BB3plus DVID TFT display,42423370-6c75-4732-9044-564944205446,r1B2*%
%TF.SameCoordinates,Original*%
%TF.FileFunction,Legend,Top*%
%TF.FilePolarity,Positive*%
%FSLAX46Y46*%
G04 Gerber Fmt 4.6, Leading zero omitted, Abs format (unit mm)*
G04 Created by KiCad (PCBNEW 9.0.7-9.0.7~ubuntu24.04.1) date 2026-01-10 09:40:53*
%MOMM*%
%LPD*%
G01*
G04 APERTURE LIST*
G04 Aperture macros list*
%AMRoundRect*
0 Rectangle with rounded corners*
0 $1 Rounding radius*
0 $2 $3 $4 $5 $6 $7 $8 $9 X,Y pos of 4 corners*
0 Add a 4 corners polygon primitive as box body*
4,1,4,$2,$3,$4,$5,$6,$7,$8,$9,$2,$3,0*
0 Add four circle primitives for the rounded corners*
1,1,$1+$1,$2,$3*
1,1,$1+$1,$4,$5*
1,1,$1+$1,$6,$7*
1,1,$1+$1,$8,$9*
0 Add four rect primitives between the rounded corners*
20,1,$1+$1,$2,$3,$4,$5,0*
20,1,$1+$1,$4,$5,$6,$7,0*
20,1,$1+$1,$6,$7,$8,$9,0*
20,1,$1+$1,$8,$9,$2,$3,0*%
G04 Aperture macros list end*
%ADD10C,0.100000*%
%ADD11C,0.152400*%
%ADD12C,0.127000*%
%ADD13C,5.500000*%
%ADD14RoundRect,0.102000X0.679000X0.679000X-0.679000X0.679000X-0.679000X-0.679000X0.679000X-0.679000X0*%
%ADD15C,1.562000*%
G04 APERTURE END LIST*
D10*
X105500000Y-59600000D02*
X215100000Y-59600000D01*
X215100000Y-127000000D01*
X105500000Y-127000000D01*
X105500000Y-59600000D01*
X99900000Y-57600000D02*
X101000000Y-57600000D01*
X101400000Y-57600000D02*
X102500000Y-57600000D01*
X102900000Y-57600000D02*
X104000000Y-57600000D01*
X104400000Y-57600000D02*
X105500000Y-57600000D01*
X105900000Y-57600000D02*
X107000000Y-57600000D01*
X107400000Y-57600000D02*
X108500000Y-57600000D01*
X108900000Y-57600000D02*
X110000000Y-57600000D01*
X110400000Y-57600000D02*
X111500000Y-57600000D01*
X111900000Y-57600000D02*
X113000000Y-57600000D01*
X113400000Y-57600000D02*
X114500000Y-57600000D01*
X114900000Y-57600000D02*
X116000000Y-57600000D01*
X116400000Y-57600000D02*
X117500000Y-57600000D01*
X117900000Y-57600000D02*
X119000000Y-57600000D01*
X119400000Y-57600000D02*
X120500000Y-57600000D01*
X120900000Y-57600000D02*
X122000000Y-57600000D01*
X122400000Y-57600000D02*
X123500000Y-57600000D01*
X123900000Y-57600000D02*
X125000000Y-57600000D01*
X125400000Y-57600000D02*
X126500000Y-57600000D01*
X126900000Y-57600000D02*
X128000000Y-57600000D01*
X128400000Y-57600000D02*
X129500000Y-57600000D01*
X129900000Y-57600000D02*
X131000000Y-57600000D01*
X131400000Y-57600000D02*
X132500000Y-57600000D01*
X132900000Y-57600000D02*
X134000000Y-57600000D01*
X134400000Y-57600000D02*
X135500000Y-57600000D01*
X135900000Y-57600000D02*
X137000000Y-57600000D01*
X137400000Y-57600000D02*
X138500000Y-57600000D01*
X138900000Y-57600000D02*
X140000000Y-57600000D01*
X140400000Y-57600000D02*
X141500000Y-57600000D01*
X141900000Y-57600000D02*
X143000000Y-57600000D01*
X143400000Y-57600000D02*
X144500000Y-57600000D01*
X144900000Y-57600000D02*
X146000000Y-57600000D01*
X146400000Y-57600000D02*
X147500000Y-57600000D01*
X147900000Y-57600000D02*
X149000000Y-57600000D01*
X149400000Y-57600000D02*
X150500000Y-57600000D01*
X150900000Y-57600000D02*
X152000000Y-57600000D01*
X152400000Y-57600000D02*
X153500000Y-57600000D01*
X153900000Y-57600000D02*
X155000000Y-57600000D01*
X155400000Y-57600000D02*
X156500000Y-57600000D01*
X156900000Y-57600000D02*
X158000000Y-57600000D01*
X158400000Y-57600000D02*
X159500000Y-57600000D01*
X159900000Y-57600000D02*
X161000000Y-57600000D01*
X161400000Y-57600000D02*
X162500000Y-57600000D01*
X162900000Y-57600000D02*
X164000000Y-57600000D01*
X164400000Y-57600000D02*
X165500000Y-57600000D01*
X165900000Y-57600000D02*
X167000000Y-57600000D01*
X167400000Y-57600000D02*
X168500000Y-57600000D01*
X168900000Y-57600000D02*
X170000000Y-57600000D01*
X170400000Y-57600000D02*
X171500000Y-57600000D01*
X171900000Y-57600000D02*
X173000000Y-57600000D01*
X173400000Y-57600000D02*
X174500000Y-57600000D01*
X174900000Y-57600000D02*
X176000000Y-57600000D01*
X176400000Y-57600000D02*
X177500000Y-57600000D01*
X177900000Y-57600000D02*
X179000000Y-57600000D01*
X179400000Y-57600000D02*
X180500000Y-57600000D01*
X180900000Y-57600000D02*
X182000000Y-57600000D01*
X182400000Y-57600000D02*
X183500000Y-57600000D01*
X183900000Y-57600000D02*
X185000000Y-57600000D01*
X185400000Y-57600000D02*
X186500000Y-57600000D01*
X186900000Y-57600000D02*
X188000000Y-57600000D01*
X188400000Y-57600000D02*
X189500000Y-57600000D01*
X189900000Y-57600000D02*
X191000000Y-57600000D01*
X191400000Y-57600000D02*
X192500000Y-57600000D01*
X192900000Y-57600000D02*
X194000000Y-57600000D01*
X194400000Y-57600000D02*
X195500000Y-57600000D01*
X195900000Y-57600000D02*
X197000000Y-57600000D01*
X197400000Y-57600000D02*
X198500000Y-57600000D01*
X198900000Y-57600000D02*
X200000000Y-57600000D01*
X200400000Y-57600000D02*
X201500000Y-57600000D01*
X201900000Y-57600000D02*
X203000000Y-57600000D01*
X203400000Y-57600000D02*
X204500000Y-57600000D01*
X204900000Y-57600000D02*
X206000000Y-57600000D01*
X206400000Y-57600000D02*
X207500000Y-57600000D01*
X207900000Y-57600000D02*
X209000000Y-57600000D01*
X209400000Y-57600000D02*
X210500000Y-57600000D01*
X210900000Y-57600000D02*
X212000000Y-57600000D01*
X212400000Y-57600000D02*
X213500000Y-57600000D01*
X213900000Y-57600000D02*
X215000000Y-57600000D01*
X215400000Y-57600000D02*
X216500000Y-57600000D01*
X216900000Y-57600000D02*
X218000000Y-57600000D01*
X218400000Y-57600000D02*
X219500000Y-57600000D01*
X219900000Y-57600000D02*
X220600000Y-57600000D01*
X220600000Y-57600000D02*
X220600000Y-58700000D01*
X220600000Y-59100000D02*
X220600000Y-60200000D01*
X220600000Y-60600000D02*
X220600000Y-61700000D01*
X220600000Y-62100000D02*
X220600000Y-63200000D01*
X220600000Y-63600000D02*
X220600000Y-64700000D01*
X220600000Y-65100000D02*
X220600000Y-66200000D01*
X220600000Y-66600000D02*
X220600000Y-67700000D01*
X220600000Y-68100000D02*
X220600000Y-69200000D01*
X220600000Y-69600000D02*
X220600000Y-70700000D01*
X220600000Y-71100000D02*
X220600000Y-72200000D01*
X220600000Y-72600000D02*
X220600000Y-73700000D01*
X220600000Y-74100000D02*
X220600000Y-75200000D01*
X220600000Y-75600000D02*
X220600000Y-76700000D01*
X220600000Y-77100000D02*
X220600000Y-78200000D01*
X220600000Y-78600000D02*
X220600000Y-79700000D01*
X220600000Y-80100000D02*
X220600000Y-81200000D01*
X220600000Y-81600000D02*
X220600000Y-82700000D01*
X220600000Y-83100000D02*
X220600000Y-84200000D01*
X220600000Y-84600000D02*
X220600000Y-85700000D01*
X220600000Y-86100000D02*
X220600000Y-87200000D01*
X220600000Y-87600000D02*
X220600000Y-88700000D01*
X220600000Y-89100000D02*
X220600000Y-90200000D01*
X220600000Y-90600000D02*
X220600000Y-91700000D01*
X220600000Y-92100000D02*
X220600000Y-93200000D01*
X220600000Y-93600000D02*
X220600000Y-94700000D01*
X220600000Y-95100000D02*
X220600000Y-96200000D01*
X220600000Y-96600000D02*
X220600000Y-97700000D01*
X220600000Y-98100000D02*
X220600000Y-99200000D01*
X220600000Y-99600000D02*
X220600000Y-100700000D01*
X220600000Y-101100000D02*
X220600000Y-102200000D01*
X220600000Y-102600000D02*
X220600000Y-103700000D01*
X220600000Y-104100000D02*
X220600000Y-105200000D01*
X220600000Y-105600000D02*
X220600000Y-106700000D01*
X220600000Y-107100000D02*
X220600000Y-108200000D01*
X220600000Y-108600000D02*
X220600000Y-109700000D01*
X220600000Y-110100000D02*
X220600000Y-111200000D01*
X220600000Y-111600000D02*
X220600000Y-112700000D01*
X220600000Y-113100000D02*
X220600000Y-114200000D01*
X220600000Y-114600000D02*
X220600000Y-115700000D01*
X220600000Y-116100000D02*
X220600000Y-117200000D01*
X220600000Y-117600000D02*
X220600000Y-118700000D01*
X220600000Y-119100000D02*
X220600000Y-120200000D01*
X220600000Y-120600000D02*
X220600000Y-121700000D01*
X220600000Y-122100000D02*
X220600000Y-123200000D01*
X220600000Y-123600000D02*
X220600000Y-124700000D01*
X220600000Y-125100000D02*
X220600000Y-126200000D01*
X220600000Y-126600000D02*
X220600000Y-127700000D01*
X220600000Y-128100000D02*
X220600000Y-129200000D01*
X220600000Y-129600000D02*
X220600000Y-130700000D01*
X220600000Y-131100000D02*
X220600000Y-132200000D01*
X220600000Y-132600000D02*
X220600000Y-133340000D01*
X220600000Y-133340000D02*
X219500000Y-133340000D01*
X219100000Y-133340000D02*
X218000000Y-133340000D01*
X217600000Y-133340000D02*
X216500000Y-133340000D01*
X216100000Y-133340000D02*
X215000000Y-133340000D01*
X214600000Y-133340000D02*
X213500000Y-133340000D01*
X213100000Y-133340000D02*
X212000000Y-133340000D01*
X211600000Y-133340000D02*
X210500000Y-133340000D01*
X210100000Y-133340000D02*
X209000000Y-133340000D01*
X208600000Y-133340000D02*
X207500000Y-133340000D01*
X207100000Y-133340000D02*
X206000000Y-133340000D01*
X205600000Y-133340000D02*
X204500000Y-133340000D01*
X204100000Y-133340000D02*
X203000000Y-133340000D01*
X202600000Y-133340000D02*
X201500000Y-133340000D01*
X201100000Y-133340000D02*
X200000000Y-133340000D01*
X199600000Y-133340000D02*
X198500000Y-133340000D01*
X198100000Y-133340000D02*
X197000000Y-133340000D01*
X196600000Y-133340000D02*
X195500000Y-133340000D01*
X195100000Y-133340000D02*
X194000000Y-133340000D01*
X193600000Y-133340000D02*
X192500000Y-133340000D01*
X192100000Y-133340000D02*
X191000000Y-133340000D01*
X190600000Y-133340000D02*
X189500000Y-133340000D01*
X189100000Y-133340000D02*
X188000000Y-133340000D01*
X187600000Y-133340000D02*
X186500000Y-133340000D01*
X186100000Y-133340000D02*
X185000000Y-133340000D01*
X184600000Y-133340000D02*
X183500000Y-133340000D01*
X183100000Y-133340000D02*
X182000000Y-133340000D01*
X181600000Y-133340000D02*
X180500000Y-133340000D01*
X180100000Y-133340000D02*
X179000000Y-133340000D01*
X178600000Y-133340000D02*
X177500000Y-133340000D01*
X177100000Y-133340000D02*
X176000000Y-133340000D01*
X175600000Y-133340000D02*
X174500000Y-133340000D01*
X174100000Y-133340000D02*
X173000000Y-133340000D01*
X172600000Y-133340000D02*
X171500000Y-133340000D01*
X171100000Y-133340000D02*
X170000000Y-133340000D01*
X169600000Y-133340000D02*
X168500000Y-133340000D01*
X168100000Y-133340000D02*
X167000000Y-133340000D01*
X166600000Y-133340000D02*
X165500000Y-133340000D01*
X165100000Y-133340000D02*
X164000000Y-133340000D01*
X163600000Y-133340000D02*
X162500000Y-133340000D01*
X162100000Y-133340000D02*
X161000000Y-133340000D01*
X160600000Y-133340000D02*
X159500000Y-133340000D01*
X159100000Y-133340000D02*
X158000000Y-133340000D01*
X157600000Y-133340000D02*
X156500000Y-133340000D01*
X156100000Y-133340000D02*
X155000000Y-133340000D01*
X154600000Y-133340000D02*
X153500000Y-133340000D01*
X153100000Y-133340000D02*
X152000000Y-133340000D01*
X151600000Y-133340000D02*
X150500000Y-133340000D01*
X150100000Y-133340000D02*
X149000000Y-133340000D01*
X148600000Y-133340000D02*
X147500000Y-133340000D01*
X147100000Y-133340000D02*
X146000000Y-133340000D01*
X145600000Y-133340000D02*
X144500000Y-133340000D01*
X144100000Y-133340000D02*
X143000000Y-133340000D01*
X142600000Y-133340000D02*
X141500000Y-133340000D01*
X141100000Y-133340000D02*
X140000000Y-133340000D01*
X139600000Y-133340000D02*
X138500000Y-133340000D01*
X138100000Y-133340000D02*
X137000000Y-133340000D01*
X136600000Y-133340000D02*
X135500000Y-133340000D01*
X135100000Y-133340000D02*
X134000000Y-133340000D01*
X133600000Y-133340000D02*
X132500000Y-133340000D01*
X132100000Y-133340000D02*
X131000000Y-133340000D01*
X130600000Y-133340000D02*
X129500000Y-133340000D01*
X129100000Y-133340000D02*
X128000000Y-133340000D01*
X127600000Y-133340000D02*
X126500000Y-133340000D01*
X126100000Y-133340000D02*
X125000000Y-133340000D01*
X124600000Y-133340000D02*
X123500000Y-133340000D01*
X123100000Y-133340000D02*
X122000000Y-133340000D01*
X121600000Y-133340000D02*
X120500000Y-133340000D01*
X120100000Y-133340000D02*
X119000000Y-133340000D01*
X118600000Y-133340000D02*
X117500000Y-133340000D01*
X117100000Y-133340000D02*
X116000000Y-133340000D01*
X115600000Y-133340000D02*
X114500000Y-133340000D01*
X114100000Y-133340000D02*
X113000000Y-133340000D01*
X112600000Y-133340000D02*
X111500000Y-133340000D01*
X111100000Y-133340000D02*
X110000000Y-133340000D01*
X109600000Y-133340000D02*
X108500000Y-133340000D01*
X108100000Y-133340000D02*
X107000000Y-133340000D01*
X106600000Y-133340000D02*
X105500000Y-133340000D01*
X105100000Y-133340000D02*
X104000000Y-133340000D01*
X103600000Y-133340000D02*
X102500000Y-133340000D01*
X102100000Y-133340000D02*
X101000000Y-133340000D01*
X100600000Y-133340000D02*
X99900000Y-133340000D01*
X99900000Y-133340000D02*
X99900000Y-132240000D01*
X99900000Y-131840000D02*
X99900000Y-130740000D01*
X99900000Y-130340000D02*
X99900000Y-129240000D01*
X99900000Y-128840000D02*
X99900000Y-127740000D01*
X99900000Y-127340000D02*
X99900000Y-126240000D01*
X99900000Y-125840000D02*
X99900000Y-124740000D01*
X99900000Y-124340000D02*
X99900000Y-123240000D01*
X99900000Y-122840000D02*
X99900000Y-121740000D01*
X99900000Y-121340000D02*
X99900000Y-120240000D01*
X99900000Y-119840000D02*
X99900000Y-118740000D01*
X99900000Y-118340000D02*
X99900000Y-117240000D01*
X99900000Y-116840000D02*
X99900000Y-115740000D01*
X99900000Y-115340000D02*
X99900000Y-114240000D01*
X99900000Y-113840000D02*
X99900000Y-112740000D01*
X99900000Y-112340000D02*
X99900000Y-111240000D01*
X99900000Y-110840000D02*
X99900000Y-109740000D01*
X99900000Y-109340000D02*
X99900000Y-108240000D01*
X99900000Y-107840000D02*
X99900000Y-106740000D01*
X99900000Y-106340000D02*
X99900000Y-105240000D01*
X99900000Y-104840000D02*
X99900000Y-103740000D01*
X99900000Y-103340000D02*
X99900000Y-102240000D01*
X99900000Y-101840000D02*
X99900000Y-100740000D01*
X99900000Y-100340000D02*
X99900000Y-99240000D01*
X99900000Y-98840000D02*
X99900000Y-97740000D01*
X99900000Y-97340000D02*
X99900000Y-96240000D01*
X99900000Y-95840000D02*
X99900000Y-94740000D01*
X99900000Y-94340000D02*
X99900000Y-93240000D01*
X99900000Y-92840000D02*
X99900000Y-91740000D01*
X99900000Y-91340000D02*
X99900000Y-90240000D01*
X99900000Y-89840000D02*
X99900000Y-88740000D01*
X99900000Y-88340000D02*
X99900000Y-87240000D01*
X99900000Y-86840000D02*
X99900000Y-85740000D01*
X99900000Y-85340000D02*
X99900000Y-84240000D01*
X99900000Y-83840000D02*
X99900000Y-82740000D01*
X99900000Y-82340000D02*
X99900000Y-81240000D01*
X99900000Y-80840000D02*
X99900000Y-79740000D01*
X99900000Y-79340000D02*
X99900000Y-78240000D01*
X99900000Y-77840000D02*
X99900000Y-76740000D01*
X99900000Y-76340000D02*
X99900000Y-75240000D01*
X99900000Y-74840000D02*
X99900000Y-73740000D01*
X99900000Y-73340000D02*
X99900000Y-72240000D01*
X99900000Y-71840000D02*
X99900000Y-70740000D01*
X99900000Y-70340000D02*
X99900000Y-69240000D01*
X99900000Y-68840000D02*
X99900000Y-67740000D01*
X99900000Y-67340000D02*
X99900000Y-66240000D01*
X99900000Y-65840000D02*
X99900000Y-64740000D01*
X99900000Y-64340000D02*
X99900000Y-63240000D01*
X99900000Y-62840000D02*
X99900000Y-61740000D01*
X99900000Y-61340000D02*
X99900000Y-60240000D01*
X99900000Y-59840000D02*
X99900000Y-58740000D01*
X99900000Y-58340000D02*
X99900000Y-57600000D01*
D11*
X110401772Y-53193516D02*
X110343715Y-53164487D01*
X110343715Y-53164487D02*
X110256629Y-53164487D01*
X110256629Y-53164487D02*
X110169543Y-53193516D01*
X110169543Y-53193516D02*
X110111486Y-53251573D01*
X110111486Y-53251573D02*
X110082457Y-53309630D01*
X110082457Y-53309630D02*
X110053429Y-53425744D01*
X110053429Y-53425744D02*
X110053429Y-53512830D01*
X110053429Y-53512830D02*
X110082457Y-53628944D01*
X110082457Y-53628944D02*
X110111486Y-53687001D01*
X110111486Y-53687001D02*
X110169543Y-53745059D01*
X110169543Y-53745059D02*
X110256629Y-53774087D01*
X110256629Y-53774087D02*
X110314686Y-53774087D01*
X110314686Y-53774087D02*
X110401772Y-53745059D01*
X110401772Y-53745059D02*
X110430800Y-53716030D01*
X110430800Y-53716030D02*
X110430800Y-53512830D01*
X110430800Y-53512830D02*
X110314686Y-53512830D01*
X110692057Y-53774087D02*
X110692057Y-53164487D01*
X110692057Y-53164487D02*
X111040400Y-53774087D01*
X111040400Y-53774087D02*
X111040400Y-53164487D01*
X111330686Y-53774087D02*
X111330686Y-53164487D01*
X111330686Y-53164487D02*
X111475829Y-53164487D01*
X111475829Y-53164487D02*
X111562915Y-53193516D01*
X111562915Y-53193516D02*
X111620972Y-53251573D01*
X111620972Y-53251573D02*
X111650001Y-53309630D01*
X111650001Y-53309630D02*
X111679029Y-53425744D01*
X111679029Y-53425744D02*
X111679029Y-53512830D01*
X111679029Y-53512830D02*
X111650001Y-53628944D01*
X111650001Y-53628944D02*
X111620972Y-53687001D01*
X111620972Y-53687001D02*
X111562915Y-53745059D01*
X111562915Y-53745059D02*
X111475829Y-53774087D01*
X111475829Y-53774087D02*
X111330686Y-53774087D01*
X112375715Y-53745059D02*
X112462801Y-53774087D01*
X112462801Y-53774087D02*
X112607943Y-53774087D01*
X112607943Y-53774087D02*
X112666001Y-53745059D01*
X112666001Y-53745059D02*
X112695029Y-53716030D01*
X112695029Y-53716030D02*
X112724058Y-53657973D01*
X112724058Y-53657973D02*
X112724058Y-53599916D01*
X112724058Y-53599916D02*
X112695029Y-53541859D01*
X112695029Y-53541859D02*
X112666001Y-53512830D01*
X112666001Y-53512830D02*
X112607943Y-53483801D01*
X112607943Y-53483801D02*
X112491829Y-53454773D01*
X112491829Y-53454773D02*
X112433772Y-53425744D01*
X112433772Y-53425744D02*
X112404743Y-53396716D01*
X112404743Y-53396716D02*
X112375715Y-53338659D01*
X112375715Y-53338659D02*
X112375715Y-53280601D01*
X112375715Y-53280601D02*
X112404743Y-53222544D01*
X112404743Y-53222544D02*
X112433772Y-53193516D01*
X112433772Y-53193516D02*
X112491829Y-53164487D01*
X112491829Y-53164487D02*
X112636972Y-53164487D01*
X112636972Y-53164487D02*
X112724058Y-53193516D01*
X112985314Y-53774087D02*
X112985314Y-53164487D01*
X112985314Y-53164487D02*
X113130457Y-53164487D01*
X113130457Y-53164487D02*
X113217543Y-53193516D01*
X113217543Y-53193516D02*
X113275600Y-53251573D01*
X113275600Y-53251573D02*
X113304629Y-53309630D01*
X113304629Y-53309630D02*
X113333657Y-53425744D01*
X113333657Y-53425744D02*
X113333657Y-53512830D01*
X113333657Y-53512830D02*
X113304629Y-53628944D01*
X113304629Y-53628944D02*
X113275600Y-53687001D01*
X113275600Y-53687001D02*
X113217543Y-53745059D01*
X113217543Y-53745059D02*
X113130457Y-53774087D01*
X113130457Y-53774087D02*
X112985314Y-53774087D01*
X113565886Y-53599916D02*
X113856172Y-53599916D01*
X113507829Y-53774087D02*
X113711029Y-53164487D01*
X113711029Y-53164487D02*
X113914229Y-53774087D01*
X114552857Y-53745059D02*
X114639943Y-53774087D01*
X114639943Y-53774087D02*
X114785085Y-53774087D01*
X114785085Y-53774087D02*
X114843143Y-53745059D01*
X114843143Y-53745059D02*
X114872171Y-53716030D01*
X114872171Y-53716030D02*
X114901200Y-53657973D01*
X114901200Y-53657973D02*
X114901200Y-53599916D01*
X114901200Y-53599916D02*
X114872171Y-53541859D01*
X114872171Y-53541859D02*
X114843143Y-53512830D01*
X114843143Y-53512830D02*
X114785085Y-53483801D01*
X114785085Y-53483801D02*
X114668971Y-53454773D01*
X114668971Y-53454773D02*
X114610914Y-53425744D01*
X114610914Y-53425744D02*
X114581885Y-53396716D01*
X114581885Y-53396716D02*
X114552857Y-53338659D01*
X114552857Y-53338659D02*
X114552857Y-53280601D01*
X114552857Y-53280601D02*
X114581885Y-53222544D01*
X114581885Y-53222544D02*
X114610914Y-53193516D01*
X114610914Y-53193516D02*
X114668971Y-53164487D01*
X114668971Y-53164487D02*
X114814114Y-53164487D01*
X114814114Y-53164487D02*
X114901200Y-53193516D01*
X115510799Y-53716030D02*
X115481771Y-53745059D01*
X115481771Y-53745059D02*
X115394685Y-53774087D01*
X115394685Y-53774087D02*
X115336628Y-53774087D01*
X115336628Y-53774087D02*
X115249542Y-53745059D01*
X115249542Y-53745059D02*
X115191485Y-53687001D01*
X115191485Y-53687001D02*
X115162456Y-53628944D01*
X115162456Y-53628944D02*
X115133428Y-53512830D01*
X115133428Y-53512830D02*
X115133428Y-53425744D01*
X115133428Y-53425744D02*
X115162456Y-53309630D01*
X115162456Y-53309630D02*
X115191485Y-53251573D01*
X115191485Y-53251573D02*
X115249542Y-53193516D01*
X115249542Y-53193516D02*
X115336628Y-53164487D01*
X115336628Y-53164487D02*
X115394685Y-53164487D01*
X115394685Y-53164487D02*
X115481771Y-53193516D01*
X115481771Y-53193516D02*
X115510799Y-53222544D01*
X116062342Y-53774087D02*
X115772056Y-53774087D01*
X115772056Y-53774087D02*
X115772056Y-53164487D01*
X116729999Y-53541859D02*
X117194457Y-53541859D01*
X116962228Y-53774087D02*
X116962228Y-53309630D01*
X117775028Y-53164487D02*
X117484742Y-53164487D01*
X117484742Y-53164487D02*
X117455714Y-53454773D01*
X117455714Y-53454773D02*
X117484742Y-53425744D01*
X117484742Y-53425744D02*
X117542800Y-53396716D01*
X117542800Y-53396716D02*
X117687942Y-53396716D01*
X117687942Y-53396716D02*
X117746000Y-53425744D01*
X117746000Y-53425744D02*
X117775028Y-53454773D01*
X117775028Y-53454773D02*
X117804057Y-53512830D01*
X117804057Y-53512830D02*
X117804057Y-53657973D01*
X117804057Y-53657973D02*
X117775028Y-53716030D01*
X117775028Y-53716030D02*
X117746000Y-53745059D01*
X117746000Y-53745059D02*
X117687942Y-53774087D01*
X117687942Y-53774087D02*
X117542800Y-53774087D01*
X117542800Y-53774087D02*
X117484742Y-53745059D01*
X117484742Y-53745059D02*
X117455714Y-53716030D01*
X117978228Y-53164487D02*
X118181428Y-53774087D01*
X118181428Y-53774087D02*
X118384628Y-53164487D01*
X108074628Y-54994773D02*
X108277828Y-54994773D01*
X108364914Y-55314087D02*
X108074628Y-55314087D01*
X108074628Y-55314087D02*
X108074628Y-54704487D01*
X108074628Y-54704487D02*
X108364914Y-54704487D01*
X108626171Y-55314087D02*
X108626171Y-54704487D01*
X108626171Y-54704487D02*
X108771314Y-54704487D01*
X108771314Y-54704487D02*
X108858400Y-54733516D01*
X108858400Y-54733516D02*
X108916457Y-54791573D01*
X108916457Y-54791573D02*
X108945486Y-54849630D01*
X108945486Y-54849630D02*
X108974514Y-54965744D01*
X108974514Y-54965744D02*
X108974514Y-55052830D01*
X108974514Y-55052830D02*
X108945486Y-55168944D01*
X108945486Y-55168944D02*
X108916457Y-55227001D01*
X108916457Y-55227001D02*
X108858400Y-55285059D01*
X108858400Y-55285059D02*
X108771314Y-55314087D01*
X108771314Y-55314087D02*
X108626171Y-55314087D01*
X109235771Y-55314087D02*
X109235771Y-54704487D01*
X109526057Y-55314087D02*
X109526057Y-54704487D01*
X109526057Y-54704487D02*
X109671200Y-54704487D01*
X109671200Y-54704487D02*
X109758286Y-54733516D01*
X109758286Y-54733516D02*
X109816343Y-54791573D01*
X109816343Y-54791573D02*
X109845372Y-54849630D01*
X109845372Y-54849630D02*
X109874400Y-54965744D01*
X109874400Y-54965744D02*
X109874400Y-55052830D01*
X109874400Y-55052830D02*
X109845372Y-55168944D01*
X109845372Y-55168944D02*
X109816343Y-55227001D01*
X109816343Y-55227001D02*
X109758286Y-55285059D01*
X109758286Y-55285059D02*
X109671200Y-55314087D01*
X109671200Y-55314087D02*
X109526057Y-55314087D01*
X118482019Y-54595291D02*
X119023885Y-55408091D01*
X119023885Y-54595291D02*
X118482019Y-55408091D01*
X119294819Y-54672701D02*
X119333523Y-54633996D01*
X119333523Y-54633996D02*
X119410933Y-54595291D01*
X119410933Y-54595291D02*
X119604457Y-54595291D01*
X119604457Y-54595291D02*
X119681866Y-54633996D01*
X119681866Y-54633996D02*
X119720571Y-54672701D01*
X119720571Y-54672701D02*
X119759276Y-54750110D01*
X119759276Y-54750110D02*
X119759276Y-54827520D01*
X119759276Y-54827520D02*
X119720571Y-54943634D01*
X119720571Y-54943634D02*
X119256114Y-55408091D01*
X119256114Y-55408091D02*
X119759276Y-55408091D01*
D12*
X110200000Y-54060000D02*
X118200000Y-54060000D01*
X110200000Y-56060000D02*
X110200000Y-54060000D01*
X118200000Y-54060000D02*
X118200000Y-56060000D01*
X118200000Y-56060000D02*
X110200000Y-56060000D01*
%LPC*%
D13*
X211000000Y-53500000D03*
X211000000Y-137500000D03*
X95000000Y-137500000D03*
X95000000Y-53500000D03*
D14*
X117200000Y-55060000D03*
D15*
X115200000Y-55060000D03*
X113200000Y-55060000D03*
X111200000Y-55060000D03*
%LPD*%
M02*
