%TF.GenerationSoftware,KiCad,Pcbnew,10.0.6-10.0.6~ubuntu24.04.1*%
%TF.CreationDate,2026-09-03T16:26:36+02:00*%
%TF.ProjectId,BB3plus DVID TFT display,42423370-6c75-4732-9044-564944205446,r1B3*%
%TF.SameCoordinates,Original*%
%TF.FileFunction,Soldermask,Bot*%
%TF.FilePolarity,Negative*%
%FSLAX46Y46*%
G04 Gerber Fmt 4.6, Leading zero omitted, Abs format (unit mm)*
G04 Created by KiCad (PCBNEW 10.0.6-10.0.6~ubuntu24.04.1) date 2026-09-03 16:26:36*
%MOMM*%
%LPD*%
G01*
G04 APERTURE LIST*
G04 Aperture macros list*
%AMRoundRect*
0 Rectangle with rounded corners*
0 $1 Rounding radius*
0 $2 $3 $4 $5 $6 $7 $8 $9 X,Y pos of 4 corners*
0 Add a 4 corners polygon primitive as box body*
4,1,4,$2,$3,$4,$5,$6,$7,$8,$9,$2,$3,0*
0 Add four circle primitives for the rounded corners*
1,1,$1+$1,$2,$3*
1,1,$1+$1,$4,$5*
1,1,$1+$1,$6,$7*
1,1,$1+$1,$8,$9*
0 Add four rect primitives between the rounded corners*
20,1,$1+$1,$2,$3,$4,$5,0*
20,1,$1+$1,$4,$5,$6,$7,0*
20,1,$1+$1,$6,$7,$8,$9,0*
20,1,$1+$1,$8,$9,$2,$3,0*%
G04 Aperture macros list end*
%ADD10C,0.000000*%
%ADD11RoundRect,0.225000X-0.225000X-0.250000X0.225000X-0.250000X0.225000X0.250000X-0.225000X0.250000X0*%
%ADD12C,5.500000*%
%ADD13RoundRect,0.102000X0.679000X0.679000X-0.679000X0.679000X-0.679000X-0.679000X0.679000X-0.679000X0*%
%ADD14C,1.562000*%
%ADD15C,1.500000*%
%ADD16RoundRect,0.114300X0.449200X0.499200X-0.449200X0.499200X-0.449200X-0.499200X0.449200X-0.499200X0*%
%ADD17RoundRect,0.225000X0.250000X-0.225000X0.250000X0.225000X-0.250000X0.225000X-0.250000X-0.225000X0*%
%ADD18RoundRect,0.250000X-0.250000X-0.475000X0.250000X-0.475000X0.250000X0.475000X-0.250000X0.475000X0*%
%ADD19RoundRect,0.250000X-0.475000X0.250000X-0.475000X-0.250000X0.475000X-0.250000X0.475000X0.250000X0*%
%ADD20RoundRect,0.250000X-0.262500X-0.450000X0.262500X-0.450000X0.262500X0.450000X-0.262500X0.450000X0*%
%ADD21R,2.500000X1.125000*%
%ADD22R,0.500000X0.600000*%
%ADD23RoundRect,0.127000X-0.901700X-0.520700X0.901700X-0.520700X0.901700X0.520700X-0.901700X0.520700X0*%
%ADD24RoundRect,0.127000X-1.536700X-2.489200X1.536700X-2.489200X1.536700X2.489200X-1.536700X2.489200X0*%
%ADD25R,1.092200X0.762000*%
%ADD26R,0.762000X1.092200*%
%ADD27RoundRect,0.122767X0.815733X2.190733X-0.815733X2.190733X-0.815733X-2.190733X0.815733X-2.190733X0*%
%ADD28RoundRect,0.122767X-0.815733X2.190733X-0.815733X-2.190733X0.815733X-2.190733X0.815733X2.190733X0*%
%ADD29RoundRect,0.225000X-0.250000X0.225000X-0.250000X-0.225000X0.250000X-0.225000X0.250000X0.225000X0*%
%ADD30RoundRect,0.225000X0.225000X0.250000X-0.225000X0.250000X-0.225000X-0.250000X0.225000X-0.250000X0*%
%ADD31RoundRect,0.200000X0.275000X-0.200000X0.275000X0.200000X-0.275000X0.200000X-0.275000X-0.200000X0*%
%ADD32R,1.000000X0.300000*%
%ADD33R,1.300000X2.000000*%
%ADD34RoundRect,0.114300X0.499200X-0.449200X0.499200X0.449200X-0.499200X0.449200X-0.499200X-0.449200X0*%
%ADD35RoundRect,0.114300X0.685800X0.228600X-0.685800X0.228600X-0.685800X-0.228600X0.685800X-0.228600X0*%
%ADD36RoundRect,0.250000X0.250000X0.475000X-0.250000X0.475000X-0.250000X-0.475000X0.250000X-0.475000X0*%
%ADD37RoundRect,0.114300X0.124200X-0.749200X0.124200X0.749200X-0.124200X0.749200X-0.124200X-0.749200X0*%
%ADD38R,1.168400X0.304800*%
%ADD39RoundRect,0.200000X-0.200000X-0.275000X0.200000X-0.275000X0.200000X0.275000X-0.200000X0.275000X0*%
%ADD40RoundRect,0.102000X0.125000X0.650000X-0.125000X0.650000X-0.125000X-0.650000X0.125000X-0.650000X0*%
%ADD41RoundRect,0.102000X0.865000X1.400000X-0.865000X1.400000X-0.865000X-1.400000X0.865000X-1.400000X0*%
%ADD42RoundRect,0.114300X-0.149200X-0.374200X0.149200X-0.374200X0.149200X0.374200X-0.149200X0.374200X0*%
%ADD43RoundRect,0.250000X0.475000X-0.250000X0.475000X0.250000X-0.475000X0.250000X-0.475000X-0.250000X0*%
%ADD44C,1.270000*%
%ADD45RoundRect,0.114300X-0.449200X-0.499200X0.449200X-0.499200X0.449200X0.499200X-0.449200X0.499200X0*%
%ADD46RoundRect,0.200000X-0.275000X0.200000X-0.275000X-0.200000X0.275000X-0.200000X0.275000X0.200000X0*%
%ADD47R,0.300000X0.800000*%
%ADD48R,0.800000X1.300000*%
%ADD49RoundRect,0.076200X-0.736600X-0.139700X0.736600X-0.139700X0.736600X0.139700X-0.736600X0.139700X0*%
%ADD50RoundRect,0.076200X-0.139700X-0.736600X0.139700X-0.736600X0.139700X0.736600X-0.139700X0.736600X0*%
%ADD51RoundRect,0.102000X-2.997200X-2.997200X2.997200X-2.997200X2.997200X2.997200X-2.997200X2.997200X0*%
%ADD52RoundRect,0.114300X-0.124200X0.749200X-0.124200X-0.749200X0.124200X-0.749200X0.124200X0.749200X0*%
G04 APERTURE END LIST*
D10*
G36*
X126225200Y-68096700D02*
G01*
X125564800Y-68096700D01*
X125564800Y-67563300D01*
X126225200Y-67563300D01*
X126225200Y-68096700D01*
G37*
G36*
X142650000Y-83075000D02*
G01*
X142116600Y-83075000D01*
X142116600Y-82414600D01*
X142650000Y-82414600D01*
X142650000Y-83075000D01*
G37*
G36*
X115595200Y-73166700D02*
G01*
X114934800Y-73166700D01*
X114934800Y-72633300D01*
X115595200Y-72633300D01*
X115595200Y-73166700D01*
G37*
G36*
X117114200Y-71381700D02*
G01*
X116453800Y-71381700D01*
X116453800Y-70848300D01*
X117114200Y-70848300D01*
X117114200Y-71381700D01*
G37*
D11*
X125120000Y-67830000D03*
X126670000Y-67830000D03*
X123570000Y-67830000D03*
D12*
X211000000Y-53500000D03*
X211000000Y-137500000D03*
X95000000Y-137500000D03*
X95000000Y-53500000D03*
D13*
X117200000Y-55060000D03*
D14*
X115200000Y-55060000D03*
X113200000Y-55060000D03*
X111200000Y-55060000D03*
D15*
X219500000Y-140000000D03*
D16*
X131960000Y-70680000D03*
X130260000Y-70680000D03*
D17*
X98450000Y-76360000D03*
X98450000Y-74810000D03*
D18*
X167300000Y-102290000D03*
X169200000Y-102290000D03*
D17*
X116980000Y-88140000D03*
X116980000Y-86590000D03*
D15*
X86500000Y-51000000D03*
D19*
X176118400Y-105350000D03*
X176118400Y-107250000D03*
D20*
X122697500Y-79130000D03*
X124522500Y-79130000D03*
D21*
X90750000Y-94737500D03*
D22*
X91750000Y-95600000D03*
X89750000Y-95600000D03*
X91750000Y-109000000D03*
X89750000Y-109000000D03*
D21*
X90750000Y-109862500D03*
X95750000Y-94737500D03*
D22*
X96750000Y-95600000D03*
X94750000Y-95600000D03*
X96750000Y-109000000D03*
X94750000Y-109000000D03*
D21*
X95750000Y-109862500D03*
D15*
X219500000Y-51000000D03*
D23*
X178222600Y-106701400D03*
X178222600Y-104390000D03*
X178222600Y-102078600D03*
D24*
X183988400Y-104390000D03*
D25*
X124711100Y-81990000D03*
X127428900Y-81990000D03*
D26*
X126330000Y-76619150D03*
X126330000Y-79336950D03*
D21*
X90750000Y-58737500D03*
D22*
X91750000Y-59600000D03*
X89750000Y-59600000D03*
X91750000Y-73000000D03*
X89750000Y-73000000D03*
D21*
X90750000Y-73862500D03*
X95750000Y-58737500D03*
D22*
X96750000Y-59600000D03*
X94750000Y-59600000D03*
X96750000Y-73000000D03*
X94750000Y-73000000D03*
D21*
X95750000Y-73862500D03*
D27*
X128415750Y-76921624D03*
D28*
X131665750Y-76921624D03*
D29*
X160410000Y-114235000D03*
X160410000Y-115785000D03*
D30*
X114025000Y-80560000D03*
X115575000Y-80560000D03*
D31*
X141020000Y-83520000D03*
X141020000Y-81870000D03*
D32*
X176166470Y-113060000D03*
X176166470Y-113559999D03*
X176166470Y-114060001D03*
X176166470Y-114560000D03*
X176166470Y-115060001D03*
X176166470Y-115560000D03*
X176166470Y-116059999D03*
X176166470Y-116560001D03*
X176166470Y-117060000D03*
X176166470Y-117560002D03*
X176166470Y-118060000D03*
X176166470Y-118560000D03*
X176166470Y-119060001D03*
X176166470Y-119560000D03*
X176166470Y-120060002D03*
X176166470Y-120560001D03*
X176166470Y-121060000D03*
X176166470Y-121560001D03*
X176166470Y-122060000D03*
X176166470Y-122559999D03*
X176166470Y-123060001D03*
X176166470Y-123560000D03*
D33*
X178866469Y-110760010D03*
X178866469Y-125859990D03*
D17*
X150070000Y-80425000D03*
X150070000Y-78875000D03*
D30*
X148580000Y-102190000D03*
X147030000Y-102190000D03*
D29*
X144590000Y-114331000D03*
X144590000Y-115881000D03*
D34*
X146410000Y-109820000D03*
X146410000Y-108120000D03*
D17*
X98450000Y-112830000D03*
X98450000Y-111280000D03*
D30*
X111595000Y-92840000D03*
X110045000Y-92840000D03*
D11*
X127825000Y-80188050D03*
X129375000Y-80188050D03*
D17*
X148610000Y-80425000D03*
X148610000Y-78875000D03*
D35*
X151173800Y-81890000D03*
X151173800Y-82840000D03*
X151173800Y-83790000D03*
X148786200Y-83790000D03*
X148786200Y-81890000D03*
D17*
X142380000Y-83524000D03*
X142380000Y-81974000D03*
D36*
X131845000Y-73130000D03*
X129945000Y-73130000D03*
D11*
X167265000Y-106910000D03*
X168815000Y-106910000D03*
D16*
X167665000Y-113620000D03*
X165965000Y-113620000D03*
D19*
X151120000Y-114300000D03*
X151120000Y-116200000D03*
D29*
X144590000Y-111331000D03*
X144590000Y-112881000D03*
D37*
X147350000Y-80330000D03*
X146700000Y-80330000D03*
X146050000Y-80330000D03*
X145400000Y-80330000D03*
X144750000Y-80330000D03*
X144100000Y-80330000D03*
X143450000Y-80330000D03*
X142800000Y-80330000D03*
X142800000Y-74730000D03*
X143450000Y-74730000D03*
X144100000Y-74730000D03*
X144750000Y-74730000D03*
X145400000Y-74730000D03*
X146050000Y-74730000D03*
X146700000Y-74730000D03*
X147350000Y-74730000D03*
D30*
X116040000Y-72900000D03*
X114490000Y-72900000D03*
X117590000Y-72900000D03*
D17*
X160310000Y-95550000D03*
X160310000Y-94000000D03*
D29*
X152840000Y-114235000D03*
X152840000Y-115785000D03*
D38*
X106779600Y-91260000D03*
X106779600Y-90610014D03*
X106779600Y-89960028D03*
X106779600Y-89310042D03*
X112520000Y-89310042D03*
X112520000Y-89960028D03*
X112520000Y-90610014D03*
X112520000Y-91260000D03*
D11*
X116009000Y-71115000D03*
X117559000Y-71115000D03*
X114459000Y-71115000D03*
D17*
X98450000Y-94825000D03*
X98450000Y-93275000D03*
D39*
X109980000Y-96320000D03*
X111630000Y-96320000D03*
D19*
X148310000Y-108020000D03*
X148310000Y-109920000D03*
D40*
X125850000Y-86920000D03*
X126350000Y-86920000D03*
X126850000Y-86920000D03*
X127350000Y-86920000D03*
X127850000Y-86920000D03*
X128350000Y-86920000D03*
X128850000Y-86920000D03*
X129350000Y-86920000D03*
X129850000Y-86920000D03*
X130350000Y-86920000D03*
X130850000Y-86920000D03*
X131350000Y-86920000D03*
X131850000Y-86920000D03*
X132350000Y-86920000D03*
X132850000Y-86920000D03*
X133350000Y-86920000D03*
X133850000Y-86920000D03*
X134350000Y-86920000D03*
X134850000Y-86920000D03*
X135350000Y-86920000D03*
X135850000Y-86920000D03*
X136350000Y-86920000D03*
X136850000Y-86920000D03*
X137350000Y-86920000D03*
X137850000Y-86920000D03*
X138350000Y-86920000D03*
X138850000Y-86920000D03*
X139350000Y-86920000D03*
X139850000Y-86920000D03*
X140350000Y-86920000D03*
X140850000Y-86920000D03*
X141350000Y-86920000D03*
X141850000Y-86920000D03*
X142350000Y-86920000D03*
X142850000Y-86920000D03*
X143350000Y-86920000D03*
X143850000Y-86920000D03*
X144350000Y-86920000D03*
X144850000Y-86920000D03*
X145350000Y-86920000D03*
D41*
X147290000Y-90000000D03*
X123910000Y-90000000D03*
D42*
X126425000Y-75120000D03*
X125775000Y-75120000D03*
X125125000Y-75120000D03*
X125125000Y-72870000D03*
X126425000Y-72870000D03*
D11*
X128125000Y-84990000D03*
X129675000Y-84990000D03*
D17*
X98450000Y-58830000D03*
X98450000Y-57280000D03*
X158180000Y-95555000D03*
X158180000Y-94005000D03*
D20*
X122697500Y-77198050D03*
X124522500Y-77198050D03*
D43*
X176118400Y-103840000D03*
X176118400Y-101940000D03*
D21*
X90750000Y-112737500D03*
D22*
X91750000Y-113600000D03*
X89750000Y-113600000D03*
X91750000Y-127000000D03*
X89750000Y-127000000D03*
D21*
X90750000Y-127862500D03*
X95750000Y-112737500D03*
D22*
X96750000Y-113600000D03*
X94750000Y-113600000D03*
X96750000Y-127000000D03*
X94750000Y-127000000D03*
D21*
X95750000Y-127862500D03*
D20*
X126927500Y-71140000D03*
X128752500Y-71140000D03*
D21*
X90750000Y-76737500D03*
D22*
X91750000Y-77600000D03*
X89750000Y-77600000D03*
X91750000Y-91000000D03*
X89750000Y-91000000D03*
D21*
X90750000Y-91862500D03*
X95750000Y-76737500D03*
D22*
X96750000Y-77600000D03*
X94750000Y-77600000D03*
X96750000Y-91000000D03*
X94750000Y-91000000D03*
D21*
X95750000Y-91862500D03*
D15*
X86500000Y-140000000D03*
D44*
X131310000Y-81940000D03*
D45*
X121490000Y-71180000D03*
X123190000Y-71180000D03*
D29*
X163760000Y-114235000D03*
X163760000Y-115785000D03*
D30*
X152915000Y-95080000D03*
X151365000Y-95080000D03*
D46*
X147570000Y-114310000D03*
X147570000Y-115960000D03*
D47*
X115750000Y-89780000D03*
X116250000Y-89780000D03*
X116750000Y-89780000D03*
X117250000Y-89780000D03*
X117750000Y-89780000D03*
X118250000Y-89780000D03*
D48*
X119280000Y-92360000D03*
X114720000Y-92360000D03*
D39*
X109985000Y-94860000D03*
X111635000Y-94860000D03*
D49*
X150198400Y-110894400D03*
X150198400Y-110411800D03*
X150198400Y-109903800D03*
X150198400Y-109395800D03*
X150198400Y-108887800D03*
X150198400Y-108405200D03*
X150198400Y-107897200D03*
X150198400Y-107389200D03*
X150198400Y-106906600D03*
X150198400Y-106398600D03*
X150198400Y-105890600D03*
X150198400Y-105408000D03*
X150198400Y-104900000D03*
X150198400Y-104392000D03*
X150198400Y-103909400D03*
X150198400Y-103401400D03*
X150198400Y-102893400D03*
X150198400Y-102410800D03*
X150198400Y-101902800D03*
X150198400Y-101394800D03*
X150198400Y-100912200D03*
X150198400Y-100404200D03*
X150198400Y-99896200D03*
X150198400Y-99388200D03*
X150198400Y-98905600D03*
D50*
X151925600Y-97178400D03*
X152408200Y-97178400D03*
X152916200Y-97178400D03*
X153424200Y-97178400D03*
X153932200Y-97178400D03*
X154414800Y-97178400D03*
X154922800Y-97178400D03*
X155430800Y-97178400D03*
X155913400Y-97178400D03*
X156421400Y-97178400D03*
X156929400Y-97178400D03*
X157412000Y-97178400D03*
X157920000Y-97178400D03*
X158428000Y-97178400D03*
X158910600Y-97178400D03*
X159418600Y-97178400D03*
X159926600Y-97178400D03*
X160409200Y-97178400D03*
X160917200Y-97178400D03*
X161425200Y-97178400D03*
X161907800Y-97178400D03*
X162415800Y-97178400D03*
X162923800Y-97178400D03*
X163431800Y-97178400D03*
X163914400Y-97178400D03*
D49*
X165641600Y-98905600D03*
X165641600Y-99388200D03*
X165641600Y-99896200D03*
X165641600Y-100404200D03*
X165641600Y-100912200D03*
X165641600Y-101394800D03*
X165641600Y-101902800D03*
X165641600Y-102410800D03*
X165641600Y-102893400D03*
X165641600Y-103401400D03*
X165641600Y-103909400D03*
X165641600Y-104392000D03*
X165641600Y-104900000D03*
X165641600Y-105408000D03*
X165641600Y-105890600D03*
X165641600Y-106398600D03*
X165641600Y-106906600D03*
X165641600Y-107389200D03*
X165641600Y-107897200D03*
X165641600Y-108405200D03*
X165641600Y-108887800D03*
X165641600Y-109395800D03*
X165641600Y-109903800D03*
X165641600Y-110411800D03*
X165641600Y-110894400D03*
D50*
X163914400Y-112621600D03*
X163431800Y-112621600D03*
X162923800Y-112621600D03*
X162415800Y-112621600D03*
X161907800Y-112621600D03*
X161425200Y-112621600D03*
X160917200Y-112621600D03*
X160409200Y-112621600D03*
X159926600Y-112621600D03*
X159418600Y-112621600D03*
X158910600Y-112621600D03*
X158428000Y-112621600D03*
X157920000Y-112621600D03*
X157412000Y-112621600D03*
X156929400Y-112621600D03*
X156421400Y-112621600D03*
X155913400Y-112621600D03*
X155430800Y-112621600D03*
X154922800Y-112621600D03*
X154414800Y-112621600D03*
X153932200Y-112621600D03*
X153424200Y-112621600D03*
X152916200Y-112621600D03*
X152408200Y-112621600D03*
X151925600Y-112621600D03*
D51*
X157920000Y-104900000D03*
D31*
X147570000Y-112995000D03*
X147570000Y-111345000D03*
D44*
X180770869Y-108711802D03*
D34*
X149210000Y-115880000D03*
X149210000Y-114180000D03*
D29*
X157920000Y-114245000D03*
X157920000Y-115795000D03*
D18*
X165950000Y-115520000D03*
X167850000Y-115520000D03*
D44*
X174220000Y-108711802D03*
D16*
X168810000Y-100400000D03*
X167110000Y-100400000D03*
D29*
X154320000Y-114235000D03*
X154320000Y-115785000D03*
D52*
X116770000Y-80530000D03*
X117420000Y-80530000D03*
X118070000Y-80530000D03*
X118720000Y-80530000D03*
X119370000Y-80530000D03*
X120020000Y-80530000D03*
X120670000Y-80530000D03*
X121320000Y-80530000D03*
X121320000Y-74930000D03*
X120670000Y-74930000D03*
X120020000Y-74930000D03*
X119370000Y-74930000D03*
X118720000Y-74930000D03*
X118070000Y-74930000D03*
X117420000Y-74930000D03*
X116770000Y-74930000D03*
M02*
