%TF.GenerationSoftware,KiCad,Pcbnew,9.0.5-9.0.5~ubuntu24.04.1*%
%TF.CreationDate,2025-10-22T15:11:24+02:00*%
%TF.ProjectId,BB3plus DVID TFT display,42423370-6c75-4732-9044-564944205446,r1B1*%
%TF.SameCoordinates,Original*%
%TF.FileFunction,Copper,L1,Top*%
%TF.FilePolarity,Positive*%
%FSLAX46Y46*%
G04 Gerber Fmt 4.6, Leading zero omitted, Abs format (unit mm)*
G04 Created by KiCad (PCBNEW 9.0.5-9.0.5~ubuntu24.04.1) date 2025-10-22 15:11:24*
%MOMM*%
%LPD*%
G01*
G04 APERTURE LIST*
%TA.AperFunction,ComponentPad*%
%ADD10C,5.500000*%
%TD*%
%TA.AperFunction,ComponentPad*%
%ADD11C,1.270000*%
%TD*%
%TA.AperFunction,ViaPad*%
%ADD12C,0.400000*%
%TD*%
%TA.AperFunction,ViaPad*%
%ADD13C,0.600000*%
%TD*%
%TA.AperFunction,Conductor*%
%ADD14C,0.152400*%
%TD*%
%TA.AperFunction,Conductor*%
%ADD15C,0.508000*%
%TD*%
%TA.AperFunction,Conductor*%
%ADD16C,0.812800*%
%TD*%
%TA.AperFunction,Conductor*%
%ADD17C,0.254000*%
%TD*%
%TA.AperFunction,Conductor*%
%ADD18C,0.127000*%
%TD*%
%TA.AperFunction,Conductor*%
%ADD19C,0.203200*%
%TD*%
G04 APERTURE END LIST*
D10*
X211000000Y-53500000D03*
X211000000Y-137500000D03*
X95000000Y-137500000D03*
X95000000Y-53500000D03*
D11*
X130190000Y-81940000D03*
X203270000Y-125760000D03*
X203190000Y-122740000D03*
D12*
X160720000Y-95070000D03*
X160720000Y-96550000D03*
X116740000Y-88140000D03*
X146130000Y-86800000D03*
X140960000Y-84030000D03*
X143250000Y-83530000D03*
X143890000Y-85790000D03*
X144720000Y-85780000D03*
X144720000Y-84000000D03*
X145310000Y-85770000D03*
X146050000Y-84010000D03*
X145750000Y-86140000D03*
X145370000Y-84005002D03*
X134080000Y-96970000D03*
X134650000Y-96970000D03*
X134660000Y-96410000D03*
X135280000Y-96460000D03*
X135360000Y-95830000D03*
X136020000Y-95900000D03*
X136575000Y-95785000D03*
X137125000Y-95645000D03*
X181470000Y-121530000D03*
X172630000Y-104915000D03*
X100407597Y-57600000D03*
X161290000Y-109790000D03*
X99397597Y-57600000D03*
X191390000Y-125740000D03*
X219027597Y-57600000D03*
X116230000Y-95030000D03*
X199220000Y-123650000D03*
X169830000Y-105645000D03*
X193350000Y-123650000D03*
X220032403Y-133400000D03*
D13*
X113680000Y-80510000D03*
D12*
X171230000Y-105625000D03*
X219530000Y-57600000D03*
X181470000Y-125230000D03*
X171960000Y-104165000D03*
X98847707Y-133400464D03*
X198240000Y-129100000D03*
X171500000Y-116330000D03*
X164780000Y-116310000D03*
D13*
X90760000Y-93790000D03*
D12*
X190350000Y-123650000D03*
X219027597Y-133400000D03*
X196360000Y-123650000D03*
X170530000Y-104905000D03*
X181470000Y-119920000D03*
D13*
X117570000Y-72230000D03*
D12*
X194840000Y-123650000D03*
X172630000Y-105640000D03*
X99911162Y-132772278D03*
X171260000Y-104155000D03*
X171230000Y-104900000D03*
X181490000Y-130650000D03*
X172660000Y-104170000D03*
X173740000Y-116340000D03*
X190190000Y-125450000D03*
D13*
X150105000Y-79625000D03*
X90760000Y-75850000D03*
D12*
X160910000Y-102210000D03*
X167730000Y-116330000D03*
X99901304Y-131767599D03*
X171260000Y-93440000D03*
X100910000Y-57600000D03*
D13*
X90760000Y-57840000D03*
D12*
X170530000Y-105630000D03*
D13*
X126980000Y-85745000D03*
D12*
X186870000Y-124560000D03*
X188850000Y-123650000D03*
X99905194Y-57600000D03*
X151950000Y-130690000D03*
X173650000Y-93420000D03*
X99900000Y-132270000D03*
X99899758Y-58102373D03*
X99900000Y-57097597D03*
X117130000Y-86350000D03*
X220032403Y-57600000D03*
X171930000Y-104910000D03*
X169830000Y-104920000D03*
X98345305Y-133399906D03*
D13*
X121570000Y-76210000D03*
D12*
X191840000Y-123650000D03*
X219530000Y-133400000D03*
X99350000Y-133390000D03*
D13*
X118260000Y-90680000D03*
D12*
X169860000Y-104175000D03*
D13*
X90760000Y-111850000D03*
D12*
X177090000Y-116350000D03*
X99897122Y-58612237D03*
X170560000Y-104160000D03*
X171930000Y-105635000D03*
X141520000Y-81550000D03*
D13*
X198240000Y-124250000D03*
D12*
X148565000Y-78275000D03*
X128630000Y-85165000D03*
X163140000Y-116430000D03*
X181930000Y-114120000D03*
X159300000Y-109840000D03*
X181930000Y-99750000D03*
D13*
X114460000Y-72240000D03*
X198240000Y-124950000D03*
X133280000Y-71160000D03*
D12*
X115630000Y-79920000D03*
X143250000Y-85815000D03*
X161290000Y-108610000D03*
X172060000Y-95510000D03*
X180600000Y-106300000D03*
X161480000Y-111780000D03*
X161290000Y-108020000D03*
X165750000Y-95070000D03*
X173670000Y-95000000D03*
X161900000Y-101600000D03*
X181160000Y-101800000D03*
X181150000Y-102300000D03*
X177690000Y-114230000D03*
X167750000Y-114750000D03*
X171260000Y-114780000D03*
X178900000Y-116040000D03*
X178910000Y-115530000D03*
X173780000Y-114790000D03*
X124150000Y-76400000D03*
X130200000Y-79430000D03*
X123970000Y-71180000D03*
X129270000Y-73600000D03*
X133850000Y-89665000D03*
X137360000Y-89665000D03*
X139610000Y-99205134D03*
X132850000Y-88805000D03*
X190860000Y-126150000D03*
X190812375Y-125202375D03*
X133330000Y-89195000D03*
X139350000Y-88885000D03*
X141400000Y-99205134D03*
X135910000Y-90135000D03*
X138070000Y-98805134D03*
X134840000Y-89665000D03*
X134350000Y-90045000D03*
X136900000Y-89925000D03*
X139070000Y-98805134D03*
X140490000Y-99205134D03*
X138360000Y-89485000D03*
X140940000Y-98805134D03*
X138850000Y-89185000D03*
X140060000Y-98805134D03*
X137990000Y-89885000D03*
X145800000Y-107390000D03*
X140950000Y-87900000D03*
X131850000Y-87925000D03*
X132350000Y-88335000D03*
X138550000Y-99205134D03*
X136350000Y-89665000D03*
X135350000Y-90055000D03*
X119080000Y-94500000D03*
X119150000Y-84470000D03*
X143450000Y-75970000D03*
X117793951Y-89205299D03*
X120890000Y-82980000D03*
X120220000Y-82540000D03*
X117260000Y-89340000D03*
X118660000Y-83930000D03*
X116660000Y-90860000D03*
X144750000Y-75980000D03*
X115840000Y-90850000D03*
X118398600Y-83395337D03*
X144100000Y-76360000D03*
X146690000Y-83530000D03*
D14*
X116660000Y-90860000D02*
X115850000Y-90860000D01*
X115850000Y-90860000D02*
X115840000Y-90850000D01*
X117080000Y-90860000D02*
X116660000Y-90860000D01*
X118660000Y-89280000D02*
X117080000Y-90860000D01*
X118660000Y-83930000D02*
X118660000Y-89280000D01*
X134840000Y-89665000D02*
X134840000Y-94050000D01*
X134840000Y-94050000D02*
X136575000Y-95785000D01*
X135350000Y-93870000D02*
X137125000Y-95645000D01*
X135350000Y-90055000D02*
X135350000Y-93870000D01*
D15*
X160720000Y-96550000D02*
X160720000Y-95070000D01*
D16*
X115600000Y-72200000D02*
X115600000Y-87000000D01*
X115600000Y-87000000D02*
X116740000Y-88140000D01*
D14*
X120890000Y-82980000D02*
X120880000Y-82970000D01*
X118230000Y-82970000D02*
X117970000Y-83230000D01*
X117970000Y-89029250D02*
X117793951Y-89205299D01*
X117260000Y-89340000D02*
X117260000Y-89136699D01*
X117260000Y-89136699D02*
X117620000Y-88776699D01*
X120880000Y-82970000D02*
X118230000Y-82970000D01*
X117620000Y-88776699D02*
X117620000Y-83180000D01*
X117620000Y-83180000D02*
X118260000Y-82540000D01*
X117970000Y-83230000D02*
X117970000Y-89029250D01*
X118260000Y-82540000D02*
X120220000Y-82540000D01*
X140950000Y-87900000D02*
X140950000Y-84040000D01*
X140950000Y-84040000D02*
X140960000Y-84030000D01*
X145800000Y-92750000D02*
X140950000Y-87900000D01*
X145800000Y-107390000D02*
X145800000Y-92750000D01*
X143250000Y-83815000D02*
X143250000Y-83530000D01*
X146690000Y-83530000D02*
X144530000Y-83530000D01*
X144530000Y-83530000D02*
X144050000Y-84010000D01*
X144050000Y-84010000D02*
X144050000Y-85630000D01*
X144050000Y-85630000D02*
X143890000Y-85790000D01*
X144720000Y-85780000D02*
X144720000Y-84000000D01*
X145370000Y-85525000D02*
X145370000Y-85710000D01*
X145370000Y-85710000D02*
X145310000Y-85770000D01*
X145750000Y-86140000D02*
X146050000Y-85840000D01*
X146050000Y-85840000D02*
X146050000Y-84010000D01*
X139350000Y-88955000D02*
X141400000Y-91005000D01*
X139350000Y-88885000D02*
X139350000Y-88955000D01*
X138850000Y-89185000D02*
X140940000Y-91275000D01*
X138360000Y-89485000D02*
X140490000Y-91615000D01*
X140060000Y-98650000D02*
X140060000Y-91945000D01*
X137990000Y-89885000D02*
X138000000Y-89885000D01*
X138000000Y-89885000D02*
X140060000Y-91945000D01*
X139610000Y-99050000D02*
X139610000Y-92095000D01*
X137360000Y-89665000D02*
X137360000Y-89845000D01*
X137360000Y-89845000D02*
X139610000Y-92095000D01*
X139070000Y-98670000D02*
X139070000Y-92155000D01*
X136900000Y-89925000D02*
X136900000Y-89985000D01*
X136900000Y-89985000D02*
X139070000Y-92155000D01*
X138550000Y-99060000D02*
X138550000Y-92195000D01*
X136350000Y-89665000D02*
X136350000Y-89995000D01*
X136350000Y-89995000D02*
X138550000Y-92195000D01*
X138070000Y-98690000D02*
X138070000Y-92305000D01*
X135910000Y-90135000D02*
X135910000Y-90145000D01*
X135910000Y-90145000D02*
X138070000Y-92305000D01*
X131850000Y-93105000D02*
X131850000Y-94740000D01*
X131850000Y-94740000D02*
X134080000Y-96970000D01*
X132350000Y-92955000D02*
X132350000Y-94670000D01*
X132350000Y-94670000D02*
X134650000Y-96970000D01*
X132850000Y-92735000D02*
X132850000Y-94600000D01*
X132850000Y-94600000D02*
X134660000Y-96410000D01*
X133330000Y-92515000D02*
X133330000Y-94510000D01*
X133330000Y-94510000D02*
X135280000Y-96460000D01*
X133850000Y-92415000D02*
X133850000Y-94320000D01*
X133850000Y-94320000D02*
X135360000Y-95830000D01*
X134350000Y-92285000D02*
X134350000Y-94230000D01*
X134350000Y-94230000D02*
X136020000Y-95900000D01*
D16*
X128630000Y-85165000D02*
X138205000Y-85165000D01*
X138205000Y-85165000D02*
X141240000Y-82130000D01*
X115600000Y-72200000D02*
X115600000Y-70900000D01*
D14*
X141520000Y-81550000D02*
X141520000Y-81850000D01*
D16*
X170755000Y-78275000D02*
X163640000Y-71160000D01*
X183800000Y-105760000D02*
X183800000Y-112250000D01*
X198240000Y-127240000D02*
X196030000Y-129450000D01*
X170755000Y-78275000D02*
X148565000Y-78275000D01*
X170755000Y-78275000D02*
X198240000Y-105760000D01*
X117460000Y-69040000D02*
X132600000Y-69040000D01*
X183800000Y-101620000D02*
X181930000Y-99750000D01*
X132600000Y-69040000D02*
X133280000Y-69720000D01*
X145095000Y-78275000D02*
X141240000Y-82130000D01*
X133280000Y-69720000D02*
X133280000Y-71160000D01*
X183800000Y-105760000D02*
X183800000Y-101620000D01*
X163640000Y-71160000D02*
X133280000Y-71160000D01*
X196030000Y-129450000D02*
X173060000Y-129450000D01*
X198240000Y-127240000D02*
X198240000Y-124950000D01*
D14*
X115560000Y-72240000D02*
X115600000Y-72200000D01*
D16*
X173060000Y-129450000D02*
X161590000Y-117980000D01*
X115600000Y-70900000D02*
X117460000Y-69040000D01*
D14*
X141520000Y-81850000D02*
X141240000Y-82130000D01*
D16*
X159300000Y-115690000D02*
X159300000Y-109840000D01*
D14*
X114460000Y-72240000D02*
X115560000Y-72240000D01*
D16*
X198240000Y-105760000D02*
X183800000Y-105760000D01*
X183800000Y-112250000D02*
X181930000Y-114120000D01*
X198240000Y-105760000D02*
X198240000Y-124250000D01*
X163140000Y-116430000D02*
X161590000Y-117980000D01*
X148565000Y-78275000D02*
X145095000Y-78275000D01*
X161590000Y-117980000D02*
X159300000Y-115690000D01*
D14*
X143250000Y-85815000D02*
X143250000Y-83815000D01*
X161710000Y-109030000D02*
X161290000Y-108610000D01*
X161710000Y-110350000D02*
X161480000Y-110580000D01*
X161710000Y-110350000D02*
X161710000Y-109030000D01*
X161480000Y-110580000D02*
X161480000Y-111780000D01*
D17*
X178910000Y-115530000D02*
X178900000Y-115540000D01*
X178900000Y-115580000D02*
X178910000Y-115570000D01*
X178900000Y-115540000D02*
X178900000Y-115580000D01*
X178900000Y-115580000D02*
X178900000Y-115600000D01*
D14*
X133850000Y-89665000D02*
X133850000Y-92415000D01*
X132850000Y-88805000D02*
X132850000Y-92735000D01*
D18*
X190812375Y-125202375D02*
X190860000Y-125250000D01*
X190860000Y-125250000D02*
X190860000Y-126150000D01*
D14*
X133330000Y-89195000D02*
X133330000Y-92515000D01*
X141400000Y-91005000D02*
X141400000Y-99030000D01*
X134350000Y-90045000D02*
X134350000Y-92285000D01*
X140490000Y-91615000D02*
X140490000Y-99030000D01*
X140940000Y-91275000D02*
X140940000Y-98650000D01*
X131850000Y-87925000D02*
X131850000Y-93105000D01*
X132350000Y-88335000D02*
X132350000Y-92955000D01*
X119080000Y-94500000D02*
X119150000Y-94430000D01*
X119150000Y-94430000D02*
X119150000Y-84470000D01*
X143450000Y-75970000D02*
X143450000Y-76870000D01*
X137350000Y-82970000D02*
X120900000Y-82970000D01*
X120900000Y-82970000D02*
X120890000Y-82980000D01*
X143450000Y-76870000D02*
X137350000Y-82970000D01*
D19*
X137350000Y-83930000D02*
X118660000Y-83930000D01*
X144750000Y-76530000D02*
X137350000Y-83930000D01*
X144750000Y-75980000D02*
X144750000Y-76530000D01*
X144100000Y-76360000D02*
X144100000Y-76690000D01*
X144100000Y-76690000D02*
X137360000Y-83430000D01*
X118433263Y-83430000D02*
X118398600Y-83395337D01*
X137360000Y-83430000D02*
X118433263Y-83430000D01*
D14*
X145370000Y-85525000D02*
X145370000Y-84005000D01*
%TA.AperFunction,Conductor*%
G36*
X182000000Y-108700000D02*
G01*
X181300000Y-108700000D01*
X181300000Y-112885408D01*
X181299139Y-112898540D01*
X181284418Y-113010349D01*
X181277621Y-113035715D01*
X181237009Y-113133762D01*
X181223879Y-113156505D01*
X181159273Y-113240702D01*
X181140702Y-113259273D01*
X181056505Y-113323879D01*
X181033762Y-113337009D01*
X180935715Y-113377621D01*
X180910349Y-113384418D01*
X180817481Y-113396645D01*
X180798538Y-113399139D01*
X180785409Y-113400000D01*
X178000000Y-113400000D01*
X178000000Y-114085408D01*
X177999139Y-114098539D01*
X177999139Y-114098540D01*
X177984418Y-114210349D01*
X177977621Y-114235715D01*
X177937009Y-114333762D01*
X177923879Y-114356505D01*
X177859273Y-114440702D01*
X177840702Y-114459273D01*
X177756505Y-114523879D01*
X177733762Y-114537009D01*
X177635715Y-114577621D01*
X177610349Y-114584418D01*
X177517481Y-114596645D01*
X177498538Y-114599139D01*
X177485409Y-114600000D01*
X177314591Y-114600000D01*
X177301461Y-114599139D01*
X177279344Y-114596227D01*
X177189650Y-114584418D01*
X177164284Y-114577621D01*
X177066237Y-114537009D01*
X177043494Y-114523879D01*
X177010700Y-114498716D01*
X176959294Y-114459270D01*
X176940729Y-114440705D01*
X176876120Y-114356505D01*
X176862990Y-114333762D01*
X176822378Y-114235715D01*
X176815581Y-114210348D01*
X176800861Y-114098539D01*
X176800000Y-114085408D01*
X176800000Y-112614591D01*
X176800861Y-112601460D01*
X176815581Y-112489651D01*
X176822378Y-112464284D01*
X176862990Y-112366237D01*
X176876118Y-112343497D01*
X176940733Y-112259289D01*
X176959289Y-112240733D01*
X177043497Y-112176118D01*
X177066235Y-112162991D01*
X177164285Y-112122377D01*
X177189649Y-112115581D01*
X177301460Y-112100860D01*
X177314591Y-112100000D01*
X180100000Y-112100000D01*
X180100000Y-108114591D01*
X180100861Y-108101460D01*
X180115581Y-107989651D01*
X180122378Y-107964284D01*
X180162990Y-107866237D01*
X180176118Y-107843497D01*
X180240733Y-107759289D01*
X180259289Y-107740733D01*
X180343497Y-107676118D01*
X180366235Y-107662991D01*
X180464285Y-107622377D01*
X180489649Y-107615581D01*
X180601460Y-107600860D01*
X180614591Y-107600000D01*
X181400000Y-107600000D01*
X182000000Y-107600000D01*
X182000000Y-108700000D01*
G37*
%TD.AperFunction*%
%TA.AperFunction,Conductor*%
G36*
X176098539Y-111100860D02*
G01*
X176210348Y-111115581D01*
X176235715Y-111122378D01*
X176333762Y-111162990D01*
X176356505Y-111176120D01*
X176440705Y-111240729D01*
X176459270Y-111259294D01*
X176498716Y-111310700D01*
X176523879Y-111343494D01*
X176537009Y-111366237D01*
X176577621Y-111464284D01*
X176584418Y-111489650D01*
X176599139Y-111601459D01*
X176600000Y-111614591D01*
X176600000Y-112521642D01*
X176599139Y-112534773D01*
X176593945Y-112574220D01*
X176592609Y-112587782D01*
X176591746Y-112600951D01*
X176591300Y-112614589D01*
X176591300Y-114085409D01*
X176591746Y-114099047D01*
X176592610Y-114112220D01*
X176593944Y-114125772D01*
X176599139Y-114165223D01*
X176600000Y-114178355D01*
X176600000Y-114800000D01*
X177221651Y-114800000D01*
X177234783Y-114800861D01*
X177274209Y-114806052D01*
X177274218Y-114806052D01*
X177274219Y-114806053D01*
X177287805Y-114807392D01*
X177300935Y-114808253D01*
X177312640Y-114808636D01*
X177314589Y-114808700D01*
X177314591Y-114808700D01*
X177485412Y-114808700D01*
X177487819Y-114808621D01*
X177499066Y-114808253D01*
X177512195Y-114807392D01*
X177525780Y-114806053D01*
X177525783Y-114806052D01*
X177525789Y-114806052D01*
X177565215Y-114800861D01*
X177578348Y-114800000D01*
X178100000Y-114800000D01*
X179285409Y-114800000D01*
X179298539Y-114800860D01*
X179410348Y-114815581D01*
X179435715Y-114822378D01*
X179533762Y-114862990D01*
X179556505Y-114876120D01*
X179640705Y-114940729D01*
X179659270Y-114959294D01*
X179698716Y-115010700D01*
X179723879Y-115043494D01*
X179737009Y-115066237D01*
X179777621Y-115164284D01*
X179784418Y-115189650D01*
X179799139Y-115301459D01*
X179800000Y-115314591D01*
X179800000Y-115785408D01*
X179799139Y-115798540D01*
X179784418Y-115910349D01*
X179777621Y-115935715D01*
X179737009Y-116033762D01*
X179723879Y-116056505D01*
X179659273Y-116140702D01*
X179640702Y-116159273D01*
X179556505Y-116223879D01*
X179533762Y-116237009D01*
X179435715Y-116277621D01*
X179410349Y-116284418D01*
X179317481Y-116296645D01*
X179298538Y-116299139D01*
X179285409Y-116300000D01*
X177571737Y-116300000D01*
X177512606Y-116280787D01*
X177476061Y-116230487D01*
X177474570Y-116225457D01*
X177466189Y-116194177D01*
X177460415Y-116184177D01*
X177413040Y-116102121D01*
X177337878Y-116026959D01*
X177337879Y-116026959D01*
X177245824Y-115973811D01*
X177245820Y-115973809D01*
X177143153Y-115946300D01*
X177143148Y-115946300D01*
X177036852Y-115946300D01*
X177036846Y-115946300D01*
X176934179Y-115973809D01*
X176934175Y-115973811D01*
X176842121Y-116026959D01*
X176766959Y-116102121D01*
X176713811Y-116194175D01*
X176709913Y-116208721D01*
X176705434Y-116225437D01*
X176703939Y-116227741D01*
X176703939Y-116230487D01*
X176687146Y-116253599D01*
X176671574Y-116277580D01*
X176669008Y-116278564D01*
X176667394Y-116280787D01*
X176640215Y-116289617D01*
X176613530Y-116299862D01*
X176608263Y-116300000D01*
X176600000Y-116300000D01*
X176406591Y-116300000D01*
X176393460Y-116299139D01*
X176288163Y-116285276D01*
X176262796Y-116278479D01*
X176170815Y-116240379D01*
X176148072Y-116227248D01*
X176063809Y-116162591D01*
X176053915Y-116153915D01*
X175653452Y-115753452D01*
X175644776Y-115743558D01*
X175576121Y-115654085D01*
X175562990Y-115631342D01*
X175522378Y-115533295D01*
X175515581Y-115507928D01*
X175500861Y-115396119D01*
X175500000Y-115382988D01*
X175500000Y-112400000D01*
X174992000Y-112400000D01*
X174908000Y-112400000D01*
X174400000Y-112400000D01*
X174400000Y-114685408D01*
X174399139Y-114698539D01*
X174399139Y-114698540D01*
X174384418Y-114810349D01*
X174377621Y-114835715D01*
X174337009Y-114933762D01*
X174323879Y-114956505D01*
X174259273Y-115040702D01*
X174240702Y-115059273D01*
X174156505Y-115123879D01*
X174133762Y-115137009D01*
X174035715Y-115177621D01*
X174010349Y-115184418D01*
X173917481Y-115196645D01*
X173898538Y-115199139D01*
X173885409Y-115200000D01*
X173714591Y-115200000D01*
X173701461Y-115199139D01*
X173679344Y-115196227D01*
X173589650Y-115184418D01*
X173564284Y-115177621D01*
X173466237Y-115137009D01*
X173443494Y-115123879D01*
X173368373Y-115066237D01*
X173359294Y-115059270D01*
X173340729Y-115040705D01*
X173276120Y-114956505D01*
X173262990Y-114933762D01*
X173222378Y-114835715D01*
X173215581Y-114810348D01*
X173215015Y-114806052D01*
X173200861Y-114698539D01*
X173200000Y-114685408D01*
X173200000Y-112400000D01*
X172692000Y-112400000D01*
X172408000Y-112400000D01*
X171900000Y-112400000D01*
X171900000Y-114685408D01*
X171899139Y-114698539D01*
X171899139Y-114698540D01*
X171884418Y-114810349D01*
X171877621Y-114835715D01*
X171837009Y-114933762D01*
X171823879Y-114956505D01*
X171759273Y-115040702D01*
X171740702Y-115059273D01*
X171656505Y-115123879D01*
X171633762Y-115137009D01*
X171535715Y-115177621D01*
X171510349Y-115184418D01*
X171417481Y-115196645D01*
X171398538Y-115199139D01*
X171385409Y-115200000D01*
X171214591Y-115200000D01*
X171201461Y-115199139D01*
X171179344Y-115196227D01*
X171089650Y-115184418D01*
X171064284Y-115177621D01*
X170966237Y-115137009D01*
X170943494Y-115123879D01*
X170868373Y-115066237D01*
X170859294Y-115059270D01*
X170840729Y-115040705D01*
X170776120Y-114956505D01*
X170762990Y-114933762D01*
X170722378Y-114835715D01*
X170715581Y-114810348D01*
X170715015Y-114806052D01*
X170700861Y-114698539D01*
X170700000Y-114685408D01*
X170700000Y-112400000D01*
X170192000Y-112400000D01*
X168608000Y-112400000D01*
X168100000Y-112400000D01*
X168100000Y-114693409D01*
X168099139Y-114706540D01*
X168099139Y-114706541D01*
X168084691Y-114816279D01*
X168077894Y-114841645D01*
X168038081Y-114937762D01*
X168024950Y-114960505D01*
X167961615Y-115043045D01*
X167943045Y-115061615D01*
X167860505Y-115124950D01*
X167837762Y-115138081D01*
X167741645Y-115177894D01*
X167716278Y-115184691D01*
X167613131Y-115198271D01*
X167586869Y-115198271D01*
X167483721Y-115184691D01*
X167458354Y-115177894D01*
X167362237Y-115138081D01*
X167339494Y-115124950D01*
X167256954Y-115061615D01*
X167238384Y-115043045D01*
X167175049Y-114960505D01*
X167161918Y-114937762D01*
X167122105Y-114841645D01*
X167115308Y-114816278D01*
X167114527Y-114810349D01*
X167100861Y-114706540D01*
X167100000Y-114693409D01*
X167100000Y-111614591D01*
X167100861Y-111601460D01*
X167115581Y-111489651D01*
X167122378Y-111464284D01*
X167162990Y-111366237D01*
X167176118Y-111343497D01*
X167240733Y-111259289D01*
X167259289Y-111240733D01*
X167343497Y-111176118D01*
X167366235Y-111162991D01*
X167464285Y-111122377D01*
X167489649Y-111115581D01*
X167601460Y-111100860D01*
X167614591Y-111100000D01*
X176085409Y-111100000D01*
X176098539Y-111100860D01*
G37*
%TD.AperFunction*%
%TA.AperFunction,Conductor*%
G36*
X171907810Y-95101236D02*
G01*
X172007873Y-95117085D01*
X172037801Y-95126810D01*
X172120916Y-95169159D01*
X172146380Y-95187659D01*
X172212340Y-95253619D01*
X172230840Y-95279083D01*
X172273189Y-95362198D01*
X172282915Y-95392131D01*
X172298761Y-95492176D01*
X172300000Y-95507914D01*
X172300000Y-95900000D01*
X177085409Y-95900000D01*
X177098539Y-95900860D01*
X177210348Y-95915581D01*
X177235715Y-95922378D01*
X177333762Y-95962990D01*
X177356505Y-95976120D01*
X177440705Y-96040729D01*
X177459270Y-96059294D01*
X177498716Y-96110700D01*
X177523879Y-96143494D01*
X177537009Y-96166237D01*
X177577621Y-96264284D01*
X177584418Y-96289650D01*
X177599139Y-96401459D01*
X177600000Y-96414591D01*
X177600000Y-106000000D01*
X180685409Y-106000000D01*
X180698539Y-106000860D01*
X180810348Y-106015581D01*
X180835715Y-106022378D01*
X180933762Y-106062990D01*
X180956505Y-106076120D01*
X181040705Y-106140729D01*
X181059270Y-106159294D01*
X181098716Y-106210700D01*
X181123879Y-106243494D01*
X181137009Y-106266237D01*
X181177621Y-106364284D01*
X181184418Y-106389650D01*
X181199139Y-106501459D01*
X181200000Y-106514591D01*
X181200000Y-106785408D01*
X181199139Y-106798540D01*
X181184418Y-106910349D01*
X181177621Y-106935715D01*
X181137009Y-107033762D01*
X181123879Y-107056505D01*
X181059273Y-107140702D01*
X181040702Y-107159273D01*
X180956505Y-107223879D01*
X180933762Y-107237009D01*
X180835715Y-107277621D01*
X180810349Y-107284418D01*
X180717481Y-107296645D01*
X180698538Y-107299139D01*
X180685409Y-107300000D01*
X176414591Y-107300000D01*
X176401461Y-107299139D01*
X176379344Y-107296227D01*
X176289650Y-107284418D01*
X176264284Y-107277621D01*
X176166237Y-107237009D01*
X176143494Y-107223879D01*
X176110700Y-107198716D01*
X176059294Y-107159270D01*
X176040729Y-107140705D01*
X175976120Y-107056505D01*
X175962990Y-107033762D01*
X175922378Y-106935715D01*
X175915581Y-106910348D01*
X175900861Y-106798539D01*
X175900000Y-106785408D01*
X175900000Y-97500000D01*
X175392000Y-97500000D01*
X164908000Y-97500000D01*
X164400000Y-97500000D01*
X164400000Y-108585408D01*
X164399139Y-108598539D01*
X164399139Y-108598540D01*
X164384418Y-108710349D01*
X164377621Y-108735715D01*
X164337009Y-108833762D01*
X164323879Y-108856505D01*
X164259273Y-108940702D01*
X164240702Y-108959273D01*
X164156505Y-109023879D01*
X164133762Y-109037009D01*
X164035715Y-109077621D01*
X164010349Y-109084418D01*
X163917481Y-109096645D01*
X163898538Y-109099139D01*
X163885409Y-109100000D01*
X161514591Y-109100000D01*
X161501461Y-109099139D01*
X161479344Y-109096227D01*
X161389650Y-109084418D01*
X161364284Y-109077621D01*
X161266237Y-109037009D01*
X161243494Y-109023879D01*
X161210700Y-108998716D01*
X161159294Y-108959270D01*
X161140729Y-108940705D01*
X161076120Y-108856505D01*
X161062990Y-108833762D01*
X161022378Y-108735715D01*
X161015581Y-108710348D01*
X161000861Y-108598539D01*
X161000000Y-108585408D01*
X161000000Y-108114591D01*
X161000861Y-108101460D01*
X161015581Y-107989651D01*
X161022378Y-107964284D01*
X161062990Y-107866237D01*
X161076118Y-107843497D01*
X161140733Y-107759289D01*
X161159289Y-107740733D01*
X161243497Y-107676118D01*
X161266235Y-107662991D01*
X161364285Y-107622377D01*
X161389649Y-107615581D01*
X161501460Y-107600860D01*
X161514591Y-107600000D01*
X162800000Y-107600000D01*
X162800000Y-96414591D01*
X162800861Y-96401460D01*
X162815581Y-96289651D01*
X162815581Y-96289650D01*
X162822378Y-96264284D01*
X162862990Y-96166237D01*
X162876118Y-96143497D01*
X162940733Y-96059289D01*
X162959289Y-96040733D01*
X163043497Y-95976118D01*
X163066235Y-95962991D01*
X163164285Y-95922377D01*
X163189649Y-95915581D01*
X163301460Y-95900860D01*
X163314591Y-95900000D01*
X170800000Y-95900000D01*
X170800000Y-95507914D01*
X170801236Y-95492189D01*
X170817085Y-95392124D01*
X170826810Y-95362198D01*
X170869159Y-95279083D01*
X170887656Y-95253622D01*
X170953622Y-95187656D01*
X170979083Y-95169159D01*
X171062198Y-95126810D01*
X171092124Y-95117085D01*
X171192189Y-95101236D01*
X171207914Y-95100000D01*
X171892086Y-95100000D01*
X171907810Y-95101236D01*
G37*
%TD.AperFunction*%
%TA.AperFunction,Conductor*%
G36*
X179600166Y-93701131D02*
G01*
X179707021Y-93715196D01*
X179738793Y-93723709D01*
X179830665Y-93761761D01*
X179859152Y-93778207D01*
X179938043Y-93838740D01*
X179961302Y-93861999D01*
X180021839Y-93940890D01*
X180038286Y-93969376D01*
X180076341Y-94061246D01*
X180084855Y-94093018D01*
X180098922Y-94199865D01*
X180100000Y-94216312D01*
X180100000Y-101400000D01*
X180983741Y-101400000D01*
X181000187Y-101401078D01*
X181018703Y-101403515D01*
X181107037Y-101415145D01*
X181138799Y-101423655D01*
X181230679Y-101461713D01*
X181259158Y-101478156D01*
X181338053Y-101538694D01*
X181361305Y-101561946D01*
X181421841Y-101640837D01*
X181438288Y-101669323D01*
X181476342Y-101761194D01*
X181484855Y-101792965D01*
X181498922Y-101899811D01*
X181500000Y-101916258D01*
X181500000Y-102283741D01*
X181498922Y-102300188D01*
X181484855Y-102407034D01*
X181476342Y-102438805D01*
X181438288Y-102530676D01*
X181421841Y-102559162D01*
X181361308Y-102638050D01*
X181338050Y-102661308D01*
X181259162Y-102721841D01*
X181230676Y-102738288D01*
X181138805Y-102776342D01*
X181107034Y-102784855D01*
X181000188Y-102798922D01*
X180983741Y-102800000D01*
X180100000Y-102800000D01*
X180100000Y-104400000D01*
X182183741Y-104400000D01*
X182200187Y-104401078D01*
X182218703Y-104403515D01*
X182307037Y-104415145D01*
X182338799Y-104423655D01*
X182430679Y-104461713D01*
X182459158Y-104478156D01*
X182538053Y-104538694D01*
X182561305Y-104561946D01*
X182621841Y-104640837D01*
X182638288Y-104669323D01*
X182676342Y-104761194D01*
X182684855Y-104792965D01*
X182698922Y-104899811D01*
X182700000Y-104916258D01*
X182700000Y-108340082D01*
X182698449Y-108359794D01*
X182685991Y-108438446D01*
X182673809Y-108475937D01*
X182642214Y-108537946D01*
X182619042Y-108569838D01*
X182569838Y-108619042D01*
X182537946Y-108642214D01*
X182475937Y-108673809D01*
X182438446Y-108685991D01*
X182385868Y-108694319D01*
X182359790Y-108698449D01*
X182340083Y-108700000D01*
X182000000Y-108700000D01*
X182000000Y-107600000D01*
X181400000Y-107600000D01*
X181400000Y-106880016D01*
X181401078Y-106863568D01*
X181406053Y-106825783D01*
X181407392Y-106812194D01*
X181408253Y-106799062D01*
X181408700Y-106785408D01*
X181408700Y-106514591D01*
X181408253Y-106500937D01*
X181407392Y-106487805D01*
X181406053Y-106474216D01*
X181401077Y-106436429D01*
X181400000Y-106419982D01*
X181400000Y-105800000D01*
X180892000Y-105800000D01*
X180780023Y-105800000D01*
X180763576Y-105798922D01*
X180725783Y-105793946D01*
X180712178Y-105792605D01*
X180702596Y-105791978D01*
X180699049Y-105791746D01*
X180685409Y-105791300D01*
X180685396Y-105791300D01*
X178350177Y-105791300D01*
X178333730Y-105790222D01*
X178292965Y-105784855D01*
X178261194Y-105776342D01*
X178169323Y-105738288D01*
X178140839Y-105721842D01*
X178061946Y-105661305D01*
X178038694Y-105638053D01*
X177978156Y-105559158D01*
X177961713Y-105530679D01*
X177923655Y-105438799D01*
X177915145Y-105407037D01*
X177901078Y-105300187D01*
X177900000Y-105283741D01*
X177900000Y-95700000D01*
X177392000Y-95700000D01*
X177180023Y-95700000D01*
X177163576Y-95698922D01*
X177125783Y-95693946D01*
X177112178Y-95692605D01*
X177102596Y-95691978D01*
X177099049Y-95691746D01*
X177085409Y-95691300D01*
X177085396Y-95691300D01*
X172634700Y-95691300D01*
X172566579Y-95671298D01*
X172520086Y-95617642D01*
X172508700Y-95565300D01*
X172508700Y-95507916D01*
X172508056Y-95491528D01*
X172506820Y-95475838D01*
X172506817Y-95475796D01*
X172504891Y-95459527D01*
X172489045Y-95359482D01*
X172481400Y-95327638D01*
X172471674Y-95297705D01*
X172465903Y-95283775D01*
X172459146Y-95267459D01*
X172459145Y-95267456D01*
X172416793Y-95184336D01*
X172399695Y-95156433D01*
X172399684Y-95156415D01*
X172399679Y-95156408D01*
X172399672Y-95156397D01*
X172381196Y-95130966D01*
X172381182Y-95130949D01*
X172359929Y-95106065D01*
X172359913Y-95106046D01*
X172359903Y-95106036D01*
X172359891Y-95106023D01*
X172293975Y-95040107D01*
X172293962Y-95040095D01*
X172293953Y-95040086D01*
X172269048Y-95018815D01*
X172269046Y-95018813D01*
X172269032Y-95018802D01*
X172243601Y-95000326D01*
X172243579Y-95000312D01*
X172243572Y-95000308D01*
X172240119Y-94998191D01*
X172215667Y-94983208D01*
X172132550Y-94940858D01*
X172132548Y-94940857D01*
X172102298Y-94928326D01*
X172072370Y-94918601D01*
X172072361Y-94918598D01*
X172072356Y-94918597D01*
X172040526Y-94910956D01*
X172040527Y-94910956D01*
X172040522Y-94910955D01*
X172040519Y-94910954D01*
X172040512Y-94910953D01*
X171940447Y-94895104D01*
X171924159Y-94893177D01*
X171908451Y-94891942D01*
X171892086Y-94891300D01*
X171207914Y-94891300D01*
X171191549Y-94891942D01*
X171175838Y-94893177D01*
X171159551Y-94895104D01*
X171059489Y-94910952D01*
X171059471Y-94910956D01*
X171027618Y-94918602D01*
X170997703Y-94928324D01*
X170967444Y-94940860D01*
X170884331Y-94983208D01*
X170856433Y-95000302D01*
X170856424Y-95000308D01*
X170830959Y-95018807D01*
X170830943Y-95018820D01*
X170806065Y-95040068D01*
X170806027Y-95040103D01*
X170740103Y-95106027D01*
X170740068Y-95106065D01*
X170718820Y-95130943D01*
X170718807Y-95130959D01*
X170700308Y-95156424D01*
X170700302Y-95156433D01*
X170683208Y-95184331D01*
X170640860Y-95267444D01*
X170628324Y-95297703D01*
X170618602Y-95327618D01*
X170610956Y-95359471D01*
X170610952Y-95359489D01*
X170595104Y-95459551D01*
X170593177Y-95475838D01*
X170591942Y-95491549D01*
X170591300Y-95507914D01*
X170591300Y-95565300D01*
X170571298Y-95633421D01*
X170517642Y-95679914D01*
X170465300Y-95691300D01*
X163314591Y-95691300D01*
X163300952Y-95691746D01*
X163299139Y-95691864D01*
X163287822Y-95692605D01*
X163274216Y-95693946D01*
X163236424Y-95698922D01*
X163219977Y-95700000D01*
X162600000Y-95700000D01*
X162600000Y-96319976D01*
X162598922Y-96336422D01*
X162593945Y-96374227D01*
X162592609Y-96387790D01*
X162591747Y-96400926D01*
X162591300Y-96414605D01*
X162591300Y-102149823D01*
X162590222Y-102166271D01*
X162584855Y-102207034D01*
X162576342Y-102238803D01*
X162538288Y-102330675D01*
X162521841Y-102359162D01*
X162461308Y-102438050D01*
X162438050Y-102461308D01*
X162359162Y-102521841D01*
X162330676Y-102538288D01*
X162238805Y-102576342D01*
X162207034Y-102584855D01*
X162100188Y-102598922D01*
X162083741Y-102600000D01*
X161716259Y-102600000D01*
X161699812Y-102598922D01*
X161592965Y-102584855D01*
X161561194Y-102576342D01*
X161469323Y-102538288D01*
X161440839Y-102521842D01*
X161361946Y-102461305D01*
X161338694Y-102438053D01*
X161323256Y-102417933D01*
X161297658Y-102351716D01*
X161301514Y-102308625D01*
X161313700Y-102263148D01*
X161313700Y-102156852D01*
X161286189Y-102054177D01*
X161286187Y-102054174D01*
X161286187Y-102054172D01*
X161233043Y-101962125D01*
X161228013Y-101955570D01*
X161230271Y-101953837D01*
X161202879Y-101903673D01*
X161200000Y-101876890D01*
X161200000Y-94216871D01*
X161201078Y-94200426D01*
X161201785Y-94195048D01*
X161215144Y-94093576D01*
X161223652Y-94061823D01*
X161261712Y-93969932D01*
X161278144Y-93941471D01*
X161338693Y-93862559D01*
X161361940Y-93839313D01*
X161440834Y-93778775D01*
X161469312Y-93762332D01*
X161561184Y-93724274D01*
X161592944Y-93715762D01*
X161699810Y-93701690D01*
X161716232Y-93700613D01*
X170688913Y-93700333D01*
X170897216Y-93700326D01*
X170965333Y-93720324D01*
X170986307Y-93737226D01*
X171012122Y-93763041D01*
X171012123Y-93763042D01*
X171012125Y-93763043D01*
X171104172Y-93816187D01*
X171104174Y-93816187D01*
X171104177Y-93816189D01*
X171206852Y-93843700D01*
X171206853Y-93843700D01*
X171313146Y-93843700D01*
X171313148Y-93843700D01*
X171415823Y-93816189D01*
X171415826Y-93816187D01*
X171415827Y-93816187D01*
X171480626Y-93778775D01*
X171507878Y-93763041D01*
X171533711Y-93737207D01*
X171596021Y-93703183D01*
X171622794Y-93700303D01*
X173307140Y-93700251D01*
X173375257Y-93720250D01*
X173396235Y-93737155D01*
X173402115Y-93743035D01*
X173402120Y-93743039D01*
X173402122Y-93743041D01*
X173402123Y-93743042D01*
X173402125Y-93743043D01*
X173494172Y-93796187D01*
X173494174Y-93796187D01*
X173494177Y-93796189D01*
X173596852Y-93823700D01*
X173596853Y-93823700D01*
X173703146Y-93823700D01*
X173703148Y-93823700D01*
X173805823Y-93796189D01*
X173805826Y-93796187D01*
X173805827Y-93796187D01*
X173851850Y-93769615D01*
X173897878Y-93743041D01*
X173903783Y-93737135D01*
X173966092Y-93703110D01*
X173992868Y-93700229D01*
X179583724Y-93700055D01*
X179600166Y-93701131D01*
G37*
%TD.AperFunction*%
%TA.AperFunction,Conductor*%
G36*
X132375187Y-69891078D02*
G01*
X132393703Y-69893515D01*
X132482037Y-69905145D01*
X132513799Y-69913655D01*
X132592120Y-69946096D01*
X132647399Y-69990643D01*
X132669820Y-70058006D01*
X132669900Y-70062504D01*
X132669900Y-71099910D01*
X132669900Y-71220090D01*
X132693346Y-71337960D01*
X132739336Y-71448991D01*
X132806104Y-71548916D01*
X132838095Y-71580907D01*
X132872120Y-71643217D01*
X132875000Y-71670002D01*
X132875000Y-80883741D01*
X132873922Y-80900187D01*
X132873922Y-80900188D01*
X132859855Y-81007034D01*
X132851342Y-81038805D01*
X132813288Y-81130676D01*
X132796841Y-81159162D01*
X132736308Y-81238050D01*
X132713050Y-81261308D01*
X132634162Y-81321841D01*
X132605676Y-81338288D01*
X132513805Y-81376342D01*
X132482034Y-81384855D01*
X132375188Y-81398922D01*
X132358741Y-81400000D01*
X130888291Y-81400000D01*
X130820170Y-81379998D01*
X130799200Y-81363099D01*
X130724640Y-81288539D01*
X130587273Y-81196754D01*
X130434641Y-81133531D01*
X130272607Y-81101300D01*
X130272605Y-81101300D01*
X130107395Y-81101300D01*
X130107392Y-81101300D01*
X129945358Y-81133531D01*
X129945357Y-81133532D01*
X129792725Y-81196755D01*
X129655358Y-81288540D01*
X129622058Y-81321841D01*
X129580802Y-81363096D01*
X129518493Y-81397120D01*
X129491709Y-81400000D01*
X122931259Y-81400000D01*
X122914812Y-81398922D01*
X122807965Y-81384855D01*
X122776194Y-81376342D01*
X122684323Y-81338288D01*
X122655839Y-81321842D01*
X122576946Y-81261305D01*
X122553694Y-81238053D01*
X122493156Y-81159158D01*
X122476713Y-81130679D01*
X122438655Y-81038799D01*
X122430145Y-81007037D01*
X122416078Y-80900187D01*
X122415000Y-80883741D01*
X122415000Y-70406258D01*
X122416078Y-70389812D01*
X122416231Y-70388649D01*
X122430145Y-70282960D01*
X122438654Y-70251202D01*
X122476714Y-70159316D01*
X122493153Y-70130844D01*
X122553698Y-70051941D01*
X122576941Y-70028698D01*
X122655844Y-69968153D01*
X122684316Y-69951714D01*
X122776202Y-69913654D01*
X122807960Y-69905145D01*
X122898883Y-69893175D01*
X122914813Y-69891078D01*
X122931259Y-69890000D01*
X132358741Y-69890000D01*
X132375187Y-69891078D01*
G37*
%TD.AperFunction*%
%TA.AperFunction,Conductor*%
G36*
X122490285Y-69669313D02*
G01*
X122526830Y-69719613D01*
X122526830Y-69781787D01*
X122492396Y-69830511D01*
X122449891Y-69863126D01*
X122429372Y-69881120D01*
X122406120Y-69904372D01*
X122388126Y-69924891D01*
X122327587Y-70003786D01*
X122327571Y-70003809D01*
X122312420Y-70026482D01*
X122312415Y-70026490D01*
X122295977Y-70054960D01*
X122283903Y-70079444D01*
X122245842Y-70171330D01*
X122245840Y-70171337D01*
X122237064Y-70197190D01*
X122237063Y-70197195D01*
X122228557Y-70228936D01*
X122228552Y-70228960D01*
X122223232Y-70255705D01*
X122223228Y-70255728D01*
X122214931Y-70318757D01*
X122209163Y-70362572D01*
X122209163Y-70362577D01*
X122207825Y-70376162D01*
X122206746Y-70392619D01*
X122206300Y-70406256D01*
X122206300Y-80883742D01*
X122206746Y-80897379D01*
X122207825Y-80913837D01*
X122209165Y-80927448D01*
X122223227Y-81034256D01*
X122223234Y-81034302D01*
X122228553Y-81061042D01*
X122228557Y-81061060D01*
X122237067Y-81092819D01*
X122245842Y-81118667D01*
X122245844Y-81118674D01*
X122283900Y-81210547D01*
X122283904Y-81210556D01*
X122295972Y-81235028D01*
X122295978Y-81235039D01*
X122312411Y-81263499D01*
X122312418Y-81263511D01*
X122327583Y-81286206D01*
X122388121Y-81365101D01*
X122388128Y-81365109D01*
X122388136Y-81365119D01*
X122406116Y-81385621D01*
X122406118Y-81385623D01*
X122406121Y-81385626D01*
X122429373Y-81408878D01*
X122449897Y-81426878D01*
X122449901Y-81426881D01*
X122449906Y-81426885D01*
X122528792Y-81487417D01*
X122551479Y-81502575D01*
X122551485Y-81502579D01*
X122579969Y-81519025D01*
X122579978Y-81519029D01*
X122579979Y-81519030D01*
X122604439Y-81531094D01*
X122604448Y-81531098D01*
X122604453Y-81531100D01*
X122604457Y-81531102D01*
X122696328Y-81569156D01*
X122722179Y-81577931D01*
X122722181Y-81577931D01*
X122722185Y-81577933D01*
X122734887Y-81581336D01*
X122753950Y-81586444D01*
X122780724Y-81591769D01*
X122780743Y-81591771D01*
X122780755Y-81591774D01*
X122867686Y-81603218D01*
X122887571Y-81605836D01*
X122896961Y-81606761D01*
X122901150Y-81607174D01*
X122901155Y-81607174D01*
X122901162Y-81607175D01*
X122917609Y-81608253D01*
X122929742Y-81608650D01*
X122931258Y-81608700D01*
X122931259Y-81608700D01*
X129278187Y-81608700D01*
X129337318Y-81627913D01*
X129373863Y-81678213D01*
X129376854Y-81728926D01*
X129351300Y-81857395D01*
X129351300Y-82022604D01*
X129383531Y-82184642D01*
X129446752Y-82337268D01*
X129446756Y-82337277D01*
X129478093Y-82384175D01*
X129538539Y-82474640D01*
X129538540Y-82474641D01*
X129582264Y-82518365D01*
X129610490Y-82573763D01*
X129600764Y-82635171D01*
X129556800Y-82679135D01*
X129511129Y-82690100D01*
X121212689Y-82690100D01*
X121153558Y-82670887D01*
X121141554Y-82660635D01*
X121137878Y-82656959D01*
X121137879Y-82656959D01*
X121045824Y-82603811D01*
X121045820Y-82603809D01*
X120943153Y-82576300D01*
X120943148Y-82576300D01*
X120836852Y-82576300D01*
X120836850Y-82576300D01*
X120836844Y-82576301D01*
X120750336Y-82599480D01*
X120688247Y-82596226D01*
X120639929Y-82557098D01*
X120623700Y-82502308D01*
X120623700Y-82486853D01*
X120623699Y-82486846D01*
X120596190Y-82384179D01*
X120596188Y-82384175D01*
X120556841Y-82316024D01*
X120543041Y-82292122D01*
X120467878Y-82216959D01*
X120467879Y-82216959D01*
X120375824Y-82163811D01*
X120375820Y-82163809D01*
X120273153Y-82136300D01*
X120273148Y-82136300D01*
X120166852Y-82136300D01*
X120166846Y-82136300D01*
X120064179Y-82163809D01*
X120064175Y-82163811D01*
X119972121Y-82216959D01*
X119958446Y-82230635D01*
X119903048Y-82258861D01*
X119887311Y-82260100D01*
X118296850Y-82260100D01*
X118223150Y-82260100D01*
X118151963Y-82279175D01*
X118151961Y-82279175D01*
X118151961Y-82279176D01*
X118088140Y-82316022D01*
X117396022Y-83008140D01*
X117359176Y-83071961D01*
X117340100Y-83143149D01*
X117340100Y-87634418D01*
X117320887Y-87693549D01*
X117270587Y-87730094D01*
X117208413Y-87730094D01*
X117168365Y-87705553D01*
X116239565Y-86776753D01*
X116211339Y-86721355D01*
X116210100Y-86705618D01*
X116210100Y-71194382D01*
X116229313Y-71135251D01*
X116239565Y-71123247D01*
X117683247Y-69679565D01*
X117738645Y-69651339D01*
X117754382Y-69650100D01*
X122431154Y-69650100D01*
X122490285Y-69669313D01*
G37*
%TD.AperFunction*%
%TA.AperFunction,Conductor*%
G36*
X219450563Y-49700502D02*
G01*
X219460154Y-49700502D01*
X219496099Y-49700502D01*
X219503950Y-49700811D01*
X219695443Y-49715886D01*
X219711016Y-49718353D01*
X219893865Y-49762254D01*
X219893911Y-49762265D01*
X219908922Y-49767142D01*
X219974970Y-49794501D01*
X220082687Y-49839119D01*
X220096752Y-49846285D01*
X220257123Y-49944560D01*
X220269893Y-49953838D01*
X220351274Y-50023341D01*
X220412920Y-50075990D01*
X220424079Y-50087149D01*
X220546230Y-50230163D01*
X220555509Y-50242933D01*
X220653789Y-50403299D01*
X220660956Y-50417363D01*
X220729757Y-50583444D01*
X220732942Y-50591131D01*
X220737820Y-50606144D01*
X220781736Y-50789029D01*
X220784206Y-50804618D01*
X220799189Y-50994831D01*
X220799500Y-51002731D01*
X220799500Y-139996045D01*
X220799190Y-140003939D01*
X220784121Y-140195396D01*
X220781652Y-140210986D01*
X220776328Y-140233163D01*
X220737745Y-140393871D01*
X220732868Y-140408881D01*
X220660893Y-140582643D01*
X220653727Y-140596708D01*
X220555453Y-140757076D01*
X220546174Y-140769847D01*
X220424030Y-140912860D01*
X220412868Y-140924022D01*
X220269847Y-141046175D01*
X220257075Y-141055455D01*
X220096710Y-141153726D01*
X220082645Y-141160892D01*
X219908884Y-141232867D01*
X219893871Y-141237745D01*
X219710990Y-141281651D01*
X219695399Y-141284121D01*
X219519642Y-141297954D01*
X219503940Y-141299190D01*
X219496049Y-141299500D01*
X207603954Y-141299500D01*
X207596061Y-141299190D01*
X207404603Y-141284121D01*
X207389012Y-141281652D01*
X207353043Y-141273016D01*
X207206123Y-141237744D01*
X207191117Y-141232868D01*
X207017355Y-141160893D01*
X207003290Y-141153727D01*
X206944929Y-141117963D01*
X206842921Y-141055453D01*
X206830153Y-141046176D01*
X206687135Y-140924025D01*
X206675974Y-140912864D01*
X206553823Y-140769846D01*
X206544547Y-140757080D01*
X206446271Y-140596707D01*
X206439106Y-140582644D01*
X206439106Y-140582643D01*
X206367128Y-140408875D01*
X206362257Y-140393884D01*
X206318345Y-140210979D01*
X206315878Y-140195396D01*
X206300810Y-140003938D01*
X206300500Y-139996045D01*
X206300500Y-137334124D01*
X208046300Y-137334124D01*
X208046300Y-137665876D01*
X208083445Y-137995543D01*
X208157266Y-138318977D01*
X208266837Y-138632113D01*
X208410779Y-138931012D01*
X208587282Y-139211915D01*
X208794127Y-139471289D01*
X209028711Y-139705873D01*
X209288085Y-139912718D01*
X209568988Y-140089221D01*
X209867887Y-140233163D01*
X210181023Y-140342734D01*
X210504457Y-140416555D01*
X210834124Y-140453700D01*
X211165876Y-140453700D01*
X211495543Y-140416555D01*
X211818977Y-140342734D01*
X212132113Y-140233163D01*
X212431012Y-140089221D01*
X212711915Y-139912718D01*
X212971289Y-139705873D01*
X213205873Y-139471289D01*
X213412718Y-139211915D01*
X213589221Y-138931012D01*
X213733163Y-138632113D01*
X213842734Y-138318977D01*
X213916555Y-137995543D01*
X213953700Y-137665876D01*
X213953700Y-137334124D01*
X213916555Y-137004457D01*
X213842734Y-136681023D01*
X213733163Y-136367887D01*
X213589221Y-136068988D01*
X213412718Y-135788085D01*
X213205873Y-135528711D01*
X212971289Y-135294127D01*
X212711915Y-135087282D01*
X212711914Y-135087281D01*
X212628837Y-135035081D01*
X212431012Y-134910779D01*
X212132113Y-134766837D01*
X211818977Y-134657266D01*
X211818976Y-134657265D01*
X211818974Y-134657265D01*
X211495552Y-134583447D01*
X211495550Y-134583446D01*
X211495543Y-134583445D01*
X211495536Y-134583444D01*
X211495535Y-134583444D01*
X211165876Y-134546300D01*
X210834124Y-134546300D01*
X210504464Y-134583444D01*
X210504460Y-134583444D01*
X210504457Y-134583445D01*
X210504452Y-134583446D01*
X210504447Y-134583447D01*
X210181025Y-134657265D01*
X210024455Y-134712051D01*
X209867887Y-134766837D01*
X209867885Y-134766838D01*
X209568990Y-134910778D01*
X209288085Y-135087281D01*
X209288081Y-135087284D01*
X209028715Y-135294123D01*
X209028707Y-135294130D01*
X208794130Y-135528707D01*
X208794123Y-135528715D01*
X208587284Y-135788081D01*
X208587281Y-135788085D01*
X208410778Y-136068990D01*
X208266838Y-136367885D01*
X208157265Y-136681025D01*
X208083447Y-137004447D01*
X208083445Y-137004457D01*
X208046300Y-137334124D01*
X206300500Y-137334124D01*
X206300500Y-133360118D01*
X206269976Y-133286426D01*
X206213573Y-133230023D01*
X206170405Y-133212142D01*
X206139882Y-133199500D01*
X99939882Y-133199500D01*
X99860118Y-133199500D01*
X99838534Y-133208439D01*
X99786426Y-133230023D01*
X99730023Y-133286426D01*
X99699500Y-133360118D01*
X99699500Y-139996045D01*
X99699190Y-140003938D01*
X99684121Y-140195396D01*
X99681652Y-140210987D01*
X99637747Y-140393868D01*
X99632868Y-140408882D01*
X99560893Y-140582644D01*
X99553727Y-140596709D01*
X99455456Y-140757074D01*
X99446176Y-140769846D01*
X99324025Y-140912864D01*
X99312864Y-140924025D01*
X99169846Y-141046176D01*
X99157074Y-141055456D01*
X98996709Y-141153727D01*
X98982644Y-141160893D01*
X98808882Y-141232868D01*
X98793872Y-141237745D01*
X98702427Y-141259699D01*
X98610987Y-141281652D01*
X98595397Y-141284121D01*
X98419428Y-141297970D01*
X98403937Y-141299190D01*
X98396046Y-141299500D01*
X86503954Y-141299500D01*
X86496062Y-141299190D01*
X86479079Y-141297853D01*
X86304603Y-141284121D01*
X86289013Y-141281652D01*
X86253044Y-141273016D01*
X86106124Y-141237744D01*
X86091118Y-141232868D01*
X85917356Y-141160893D01*
X85903291Y-141153727D01*
X85742923Y-141055453D01*
X85730152Y-141046174D01*
X85587139Y-140924030D01*
X85575977Y-140912868D01*
X85453824Y-140769847D01*
X85444545Y-140757076D01*
X85346272Y-140596708D01*
X85339107Y-140582645D01*
X85285696Y-140453700D01*
X85267129Y-140408877D01*
X85262256Y-140393878D01*
X85218348Y-140210990D01*
X85218348Y-140210987D01*
X85215878Y-140195398D01*
X85200810Y-140003941D01*
X85200500Y-139996048D01*
X85200500Y-137334124D01*
X92046300Y-137334124D01*
X92046300Y-137665876D01*
X92083445Y-137995543D01*
X92157266Y-138318977D01*
X92266837Y-138632113D01*
X92410779Y-138931012D01*
X92587282Y-139211915D01*
X92794127Y-139471289D01*
X93028711Y-139705873D01*
X93288085Y-139912718D01*
X93568988Y-140089221D01*
X93867887Y-140233163D01*
X94181023Y-140342734D01*
X94504457Y-140416555D01*
X94834124Y-140453700D01*
X95165876Y-140453700D01*
X95495543Y-140416555D01*
X95818977Y-140342734D01*
X96132113Y-140233163D01*
X96431012Y-140089221D01*
X96711915Y-139912718D01*
X96971289Y-139705873D01*
X97205873Y-139471289D01*
X97412718Y-139211915D01*
X97589221Y-138931012D01*
X97733163Y-138632113D01*
X97842734Y-138318977D01*
X97916555Y-137995543D01*
X97953700Y-137665876D01*
X97953700Y-137334124D01*
X97916555Y-137004457D01*
X97842734Y-136681023D01*
X97733163Y-136367887D01*
X97589221Y-136068988D01*
X97412718Y-135788085D01*
X97205873Y-135528711D01*
X96971289Y-135294127D01*
X96711915Y-135087282D01*
X96711914Y-135087281D01*
X96628837Y-135035081D01*
X96431012Y-134910779D01*
X96132113Y-134766837D01*
X95818977Y-134657266D01*
X95818976Y-134657265D01*
X95818974Y-134657265D01*
X95495552Y-134583447D01*
X95495550Y-134583446D01*
X95495543Y-134583445D01*
X95495536Y-134583444D01*
X95495535Y-134583444D01*
X95165876Y-134546300D01*
X94834124Y-134546300D01*
X94504464Y-134583444D01*
X94504460Y-134583444D01*
X94504457Y-134583445D01*
X94504452Y-134583446D01*
X94504447Y-134583447D01*
X94181025Y-134657265D01*
X94024455Y-134712051D01*
X93867887Y-134766837D01*
X93867885Y-134766838D01*
X93568990Y-134910778D01*
X93288085Y-135087281D01*
X93288081Y-135087284D01*
X93028715Y-135294123D01*
X93028707Y-135294130D01*
X92794130Y-135528707D01*
X92794123Y-135528715D01*
X92587284Y-135788081D01*
X92587281Y-135788085D01*
X92410778Y-136068990D01*
X92266838Y-136367885D01*
X92157265Y-136681025D01*
X92083447Y-137004447D01*
X92083445Y-137004457D01*
X92046300Y-137334124D01*
X85200500Y-137334124D01*
X85200500Y-113960118D01*
X86799500Y-113960118D01*
X86799500Y-126639881D01*
X86830023Y-126713573D01*
X86830024Y-126713574D01*
X86886426Y-126769976D01*
X86960118Y-126800500D01*
X86960119Y-126800500D01*
X99539881Y-126800500D01*
X99539882Y-126800500D01*
X99613574Y-126769976D01*
X99669976Y-126713574D01*
X99700500Y-126639882D01*
X99700500Y-113960118D01*
X99669976Y-113886426D01*
X99613574Y-113830024D01*
X99613573Y-113830023D01*
X99570405Y-113812142D01*
X99539882Y-113799500D01*
X87039882Y-113799500D01*
X86960118Y-113799500D01*
X86938534Y-113808439D01*
X86886426Y-113830023D01*
X86830023Y-113886426D01*
X86799500Y-113960118D01*
X85200500Y-113960118D01*
X85200500Y-95960118D01*
X86799500Y-95960118D01*
X86799500Y-108639881D01*
X86830023Y-108713573D01*
X86830024Y-108713574D01*
X86886426Y-108769976D01*
X86960118Y-108800500D01*
X86960119Y-108800500D01*
X99539881Y-108800500D01*
X99539882Y-108800500D01*
X99613574Y-108769976D01*
X99669976Y-108713574D01*
X99700500Y-108639882D01*
X99700500Y-108114589D01*
X160791300Y-108114589D01*
X160791300Y-108585409D01*
X160791746Y-108599047D01*
X160792609Y-108612216D01*
X160793945Y-108625778D01*
X160808666Y-108737590D01*
X160813990Y-108764354D01*
X160813992Y-108764363D01*
X160820785Y-108789718D01*
X160820793Y-108789744D01*
X160829558Y-108815565D01*
X160870171Y-108913616D01*
X160882248Y-108938108D01*
X160895381Y-108960857D01*
X160895384Y-108960862D01*
X160910545Y-108983551D01*
X160910560Y-108983572D01*
X160975136Y-109067730D01*
X160975152Y-109067749D01*
X160975156Y-109067754D01*
X160993156Y-109088278D01*
X161011721Y-109106843D01*
X161032245Y-109124843D01*
X161032249Y-109124846D01*
X161032268Y-109124862D01*
X161116426Y-109189438D01*
X161116432Y-109189442D01*
X161116445Y-109189452D01*
X161122081Y-109193218D01*
X161139136Y-109204614D01*
X161139141Y-109204617D01*
X161139148Y-109204621D01*
X161161891Y-109217751D01*
X161186372Y-109229823D01*
X161284419Y-109270435D01*
X161310267Y-109279209D01*
X161335633Y-109286006D01*
X161342055Y-109287283D01*
X161349125Y-109288690D01*
X161403372Y-109319069D01*
X161429403Y-109375532D01*
X161430100Y-109387357D01*
X161430100Y-110192392D01*
X161410887Y-110251523D01*
X161400635Y-110263527D01*
X161256022Y-110408140D01*
X161219176Y-110471961D01*
X161200100Y-110543149D01*
X161200100Y-111447311D01*
X161180887Y-111506442D01*
X161170635Y-111518446D01*
X161156959Y-111532121D01*
X161103811Y-111624175D01*
X161103809Y-111624179D01*
X161076300Y-111726846D01*
X161076300Y-111833153D01*
X161103809Y-111935820D01*
X161103811Y-111935824D01*
X161156959Y-112027878D01*
X161232121Y-112103040D01*
X161232120Y-112103040D01*
X161324175Y-112156188D01*
X161324179Y-112156190D01*
X161426846Y-112183699D01*
X161426850Y-112183699D01*
X161426852Y-112183700D01*
X161426854Y-112183700D01*
X161533146Y-112183700D01*
X161533148Y-112183700D01*
X161533150Y-112183699D01*
X161533153Y-112183699D01*
X161635820Y-112156190D01*
X161635820Y-112156189D01*
X161635823Y-112156189D01*
X161727878Y-112103041D01*
X161803041Y-112027878D01*
X161856189Y-111935823D01*
X161861138Y-111917353D01*
X161883699Y-111833153D01*
X161883700Y-111833146D01*
X161883700Y-111726853D01*
X161883699Y-111726846D01*
X161856190Y-111624179D01*
X161856188Y-111624175D01*
X161803040Y-111532121D01*
X161789365Y-111518446D01*
X161761139Y-111463048D01*
X161759900Y-111447311D01*
X161759900Y-110737608D01*
X161779113Y-110678477D01*
X161789365Y-110666473D01*
X161933976Y-110521862D01*
X161970825Y-110458038D01*
X161989900Y-110386850D01*
X161989900Y-110313150D01*
X161989900Y-109409300D01*
X162009113Y-109350169D01*
X162059413Y-109313624D01*
X162090500Y-109308700D01*
X163885412Y-109308700D01*
X163887819Y-109308621D01*
X163899066Y-109308253D01*
X163912195Y-109307392D01*
X163925780Y-109306053D01*
X164037591Y-109291332D01*
X164064366Y-109286006D01*
X164089732Y-109279209D01*
X164115580Y-109270435D01*
X164213627Y-109229823D01*
X164238108Y-109217751D01*
X164260851Y-109204621D01*
X164283553Y-109189452D01*
X164283566Y-109189441D01*
X164283568Y-109189441D01*
X164307580Y-109171015D01*
X164367750Y-109124846D01*
X164367773Y-109124825D01*
X164367784Y-109124817D01*
X164388266Y-109106854D01*
X164388266Y-109106853D01*
X164388275Y-109106846D01*
X164406846Y-109088275D01*
X164406854Y-109088266D01*
X164424817Y-109067784D01*
X164424825Y-109067773D01*
X164424846Y-109067750D01*
X164471015Y-109007580D01*
X164489441Y-108983568D01*
X164489442Y-108983566D01*
X164489441Y-108983566D01*
X164489452Y-108983553D01*
X164504621Y-108960851D01*
X164517751Y-108938108D01*
X164529823Y-108913627D01*
X164570435Y-108815580D01*
X164579209Y-108789732D01*
X164586006Y-108764366D01*
X164591332Y-108737592D01*
X164606053Y-108625783D01*
X164607392Y-108612194D01*
X164608253Y-108599062D01*
X164608700Y-108585408D01*
X164608700Y-97809300D01*
X164627913Y-97750169D01*
X164678213Y-97713624D01*
X164709300Y-97708700D01*
X175590700Y-97708700D01*
X175649831Y-97727913D01*
X175686376Y-97778213D01*
X175691300Y-97809300D01*
X175691300Y-106785409D01*
X175691746Y-106799047D01*
X175692609Y-106812216D01*
X175693945Y-106825778D01*
X175708666Y-106937590D01*
X175713990Y-106964354D01*
X175713992Y-106964363D01*
X175720785Y-106989718D01*
X175720793Y-106989744D01*
X175729558Y-107015565D01*
X175770171Y-107113616D01*
X175782248Y-107138108D01*
X175795381Y-107160857D01*
X175795384Y-107160862D01*
X175810545Y-107183551D01*
X175810560Y-107183572D01*
X175875136Y-107267730D01*
X175875152Y-107267749D01*
X175875156Y-107267754D01*
X175893156Y-107288278D01*
X175911721Y-107306843D01*
X175932245Y-107324843D01*
X175932249Y-107324846D01*
X175932268Y-107324862D01*
X176016426Y-107389438D01*
X176016436Y-107389445D01*
X176016445Y-107389452D01*
X176022081Y-107393218D01*
X176039136Y-107404614D01*
X176039141Y-107404617D01*
X176039148Y-107404621D01*
X176061891Y-107417751D01*
X176086372Y-107429823D01*
X176184419Y-107470435D01*
X176210267Y-107479209D01*
X176235633Y-107486006D01*
X176235637Y-107486007D01*
X176259823Y-107490817D01*
X176262408Y-107491332D01*
X176290572Y-107495040D01*
X176374209Y-107506052D01*
X176374218Y-107506052D01*
X176374219Y-107506053D01*
X176387805Y-107507392D01*
X176400935Y-107508253D01*
X176412640Y-107508636D01*
X176414589Y-107508700D01*
X176414591Y-107508700D01*
X179965960Y-107508700D01*
X180025091Y-107527913D01*
X180061636Y-107578213D01*
X180061636Y-107640387D01*
X180045771Y-107670542D01*
X180010542Y-107716452D01*
X180010538Y-107716457D01*
X179995380Y-107739144D01*
X179995371Y-107739159D01*
X179982261Y-107761866D01*
X179982247Y-107761892D01*
X179970174Y-107786375D01*
X179970173Y-107786377D01*
X179929558Y-107884433D01*
X179920793Y-107910254D01*
X179920785Y-107910280D01*
X179913992Y-107935635D01*
X179913990Y-107935644D01*
X179908666Y-107962408D01*
X179893945Y-108074220D01*
X179892609Y-108087782D01*
X179891746Y-108100951D01*
X179891300Y-108114589D01*
X179891300Y-111790700D01*
X179872087Y-111849831D01*
X179821787Y-111886376D01*
X179790700Y-111891300D01*
X177314588Y-111891300D01*
X177307771Y-111891523D01*
X177300952Y-111891746D01*
X177298634Y-111891897D01*
X177287807Y-111892606D01*
X177274224Y-111893944D01*
X177162424Y-111908664D01*
X177162376Y-111908672D01*
X177135654Y-111913987D01*
X177135648Y-111913989D01*
X177135641Y-111913990D01*
X177135635Y-111913992D01*
X177124926Y-111916861D01*
X177110276Y-111920786D01*
X177084412Y-111929566D01*
X176986366Y-111970178D01*
X176961899Y-111982243D01*
X176959590Y-111983577D01*
X176898773Y-111996497D01*
X176841977Y-111971201D01*
X176810896Y-111917353D01*
X176808700Y-111896449D01*
X176808700Y-111614589D01*
X176808253Y-111600947D01*
X176808253Y-111600937D01*
X176807392Y-111587805D01*
X176806053Y-111574216D01*
X176791332Y-111462407D01*
X176786006Y-111435633D01*
X176779209Y-111410267D01*
X176770435Y-111384419D01*
X176729823Y-111286372D01*
X176717751Y-111261891D01*
X176704621Y-111239148D01*
X176704617Y-111239141D01*
X176704614Y-111239136D01*
X176689460Y-111216457D01*
X176689452Y-111216445D01*
X176689445Y-111216436D01*
X176689438Y-111216426D01*
X176624862Y-111132268D01*
X176624846Y-111132249D01*
X176624843Y-111132245D01*
X176606843Y-111111721D01*
X176588278Y-111093156D01*
X176567754Y-111075156D01*
X176567749Y-111075152D01*
X176567730Y-111075136D01*
X176483572Y-111010560D01*
X176483551Y-111010545D01*
X176460862Y-110995384D01*
X176460857Y-110995381D01*
X176438108Y-110982248D01*
X176438104Y-110982246D01*
X176413627Y-110970176D01*
X176413621Y-110970173D01*
X176413616Y-110970171D01*
X176347382Y-110942736D01*
X176315580Y-110929564D01*
X176315577Y-110929563D01*
X176315565Y-110929558D01*
X176289744Y-110920793D01*
X176289718Y-110920785D01*
X176264356Y-110913990D01*
X176237613Y-110908671D01*
X176237601Y-110908669D01*
X176237591Y-110908667D01*
X176237581Y-110908665D01*
X176237577Y-110908665D01*
X176125775Y-110893944D01*
X176112192Y-110892606D01*
X176102696Y-110891984D01*
X176099049Y-110891746D01*
X176091471Y-110891498D01*
X176085413Y-110891300D01*
X176085409Y-110891300D01*
X167614591Y-110891300D01*
X167614588Y-110891300D01*
X167607771Y-110891523D01*
X167600952Y-110891746D01*
X167598634Y-110891897D01*
X167587807Y-110892606D01*
X167574224Y-110893944D01*
X167462424Y-110908664D01*
X167462376Y-110908672D01*
X167435654Y-110913987D01*
X167435648Y-110913989D01*
X167435641Y-110913990D01*
X167435635Y-110913992D01*
X167424926Y-110916861D01*
X167410276Y-110920786D01*
X167384412Y-110929566D01*
X167286366Y-110970178D01*
X167261894Y-110982246D01*
X167239158Y-110995371D01*
X167239140Y-110995382D01*
X167216451Y-111010543D01*
X167216445Y-111010547D01*
X167132246Y-111075156D01*
X167132222Y-111075175D01*
X167111720Y-111093155D01*
X167093155Y-111111720D01*
X167075175Y-111132222D01*
X167075156Y-111132246D01*
X167010542Y-111216452D01*
X167010538Y-111216457D01*
X166995380Y-111239144D01*
X166995371Y-111239159D01*
X166982261Y-111261866D01*
X166982247Y-111261892D01*
X166970174Y-111286375D01*
X166970173Y-111286377D01*
X166929558Y-111384433D01*
X166920793Y-111410254D01*
X166920785Y-111410280D01*
X166913992Y-111435635D01*
X166913990Y-111435644D01*
X166908666Y-111462408D01*
X166893945Y-111574220D01*
X166892609Y-111587782D01*
X166891746Y-111600951D01*
X166891300Y-111614589D01*
X166891300Y-114693410D01*
X166891746Y-114707050D01*
X166892609Y-114720216D01*
X166893945Y-114733779D01*
X166908393Y-114843519D01*
X166913717Y-114870285D01*
X166913719Y-114870293D01*
X166920516Y-114895660D01*
X166920516Y-114895661D01*
X166920518Y-114895667D01*
X166929288Y-114921503D01*
X166929292Y-114921513D01*
X166929294Y-114921520D01*
X166969105Y-115017631D01*
X166969108Y-115017639D01*
X166981178Y-115042111D01*
X166981182Y-115042120D01*
X166994304Y-115064846D01*
X166994308Y-115064853D01*
X166994311Y-115064857D01*
X167007392Y-115084434D01*
X167009483Y-115087563D01*
X167026903Y-115110265D01*
X167072811Y-115170093D01*
X167072818Y-115170101D01*
X167072826Y-115170111D01*
X167090806Y-115190613D01*
X167109385Y-115209192D01*
X167129887Y-115227172D01*
X167129894Y-115227178D01*
X167129906Y-115227188D01*
X167183968Y-115268671D01*
X167212435Y-115290515D01*
X167212439Y-115290517D01*
X167212446Y-115290523D01*
X167235142Y-115305688D01*
X167235149Y-115305692D01*
X167235152Y-115305694D01*
X167257878Y-115318816D01*
X167257887Y-115318820D01*
X167282359Y-115330890D01*
X167282366Y-115330892D01*
X167282371Y-115330895D01*
X167378488Y-115370708D01*
X167404339Y-115379483D01*
X167404341Y-115379483D01*
X167404345Y-115379485D01*
X167414485Y-115382201D01*
X167429706Y-115386280D01*
X167456480Y-115391605D01*
X167456499Y-115391607D01*
X167456511Y-115391610D01*
X167538590Y-115402415D01*
X167559628Y-115405185D01*
X167586869Y-115406971D01*
X167586879Y-115406971D01*
X167613121Y-115406971D01*
X167613131Y-115406971D01*
X167640373Y-115405185D01*
X167743520Y-115391605D01*
X167770293Y-115386280D01*
X167795660Y-115379483D01*
X167821511Y-115370708D01*
X167917628Y-115330895D01*
X167917635Y-115330891D01*
X167917639Y-115330890D01*
X167929136Y-115325219D01*
X167942114Y-115318819D01*
X167942116Y-115318817D01*
X167942120Y-115318816D01*
X167955060Y-115311344D01*
X167964857Y-115305688D01*
X167987553Y-115290523D01*
X168070093Y-115227188D01*
X168090618Y-115209188D01*
X168109188Y-115190618D01*
X168127188Y-115170093D01*
X168190523Y-115087553D01*
X168205688Y-115064857D01*
X168218819Y-115042114D01*
X168230895Y-115017628D01*
X168270708Y-114921511D01*
X168279482Y-114895662D01*
X168286279Y-114870296D01*
X168291605Y-114843521D01*
X168306053Y-114733783D01*
X168307392Y-114720195D01*
X168308253Y-114707063D01*
X168308700Y-114693409D01*
X168308700Y-112709300D01*
X168327913Y-112650169D01*
X168378213Y-112613624D01*
X168409300Y-112608700D01*
X170390700Y-112608700D01*
X170449831Y-112627913D01*
X170486376Y-112678213D01*
X170491300Y-112709300D01*
X170491300Y-114685409D01*
X170491746Y-114699047D01*
X170492609Y-114712216D01*
X170493945Y-114725778D01*
X170508666Y-114837590D01*
X170513990Y-114864354D01*
X170513992Y-114864363D01*
X170520785Y-114889718D01*
X170520793Y-114889744D01*
X170529558Y-114915565D01*
X170529562Y-114915574D01*
X170529564Y-114915580D01*
X170539321Y-114939136D01*
X170558886Y-114986372D01*
X170570176Y-115013627D01*
X170582248Y-115038108D01*
X170595381Y-115060857D01*
X170595384Y-115060862D01*
X170610545Y-115083551D01*
X170610560Y-115083572D01*
X170675136Y-115167730D01*
X170675152Y-115167749D01*
X170675156Y-115167754D01*
X170693156Y-115188278D01*
X170711721Y-115206843D01*
X170732245Y-115224843D01*
X170732249Y-115224846D01*
X170732268Y-115224862D01*
X170816426Y-115289438D01*
X170816432Y-115289442D01*
X170816445Y-115289452D01*
X170818036Y-115290515D01*
X170839136Y-115304614D01*
X170839141Y-115304617D01*
X170839148Y-115304621D01*
X170861891Y-115317751D01*
X170886372Y-115329823D01*
X170984419Y-115370435D01*
X171010267Y-115379209D01*
X171035633Y-115386006D01*
X171035637Y-115386007D01*
X171037015Y-115386281D01*
X171062408Y-115391332D01*
X171064497Y-115391607D01*
X171174209Y-115406052D01*
X171174218Y-115406052D01*
X171174219Y-115406053D01*
X171187805Y-115407392D01*
X171200935Y-115408253D01*
X171212640Y-115408636D01*
X171214589Y-115408700D01*
X171214591Y-115408700D01*
X171385412Y-115408700D01*
X171387819Y-115408621D01*
X171399066Y-115408253D01*
X171412195Y-115407392D01*
X171425780Y-115406053D01*
X171537591Y-115391332D01*
X171564366Y-115386006D01*
X171589732Y-115379209D01*
X171615580Y-115370435D01*
X171713627Y-115329823D01*
X171738108Y-115317751D01*
X171760851Y-115304621D01*
X171783553Y-115289452D01*
X171783566Y-115289441D01*
X171783568Y-115289441D01*
X171807580Y-115271015D01*
X171867750Y-115224846D01*
X171867773Y-115224825D01*
X171867784Y-115224817D01*
X171888266Y-115206854D01*
X171888266Y-115206853D01*
X171888275Y-115206846D01*
X171906846Y-115188275D01*
X171906854Y-115188266D01*
X171924817Y-115167784D01*
X171924825Y-115167773D01*
X171924846Y-115167750D01*
X171988788Y-115084419D01*
X171989441Y-115083568D01*
X171989442Y-115083566D01*
X171989441Y-115083566D01*
X171989452Y-115083553D01*
X172004621Y-115060851D01*
X172017751Y-115038108D01*
X172029823Y-115013627D01*
X172070435Y-114915580D01*
X172079209Y-114889732D01*
X172086006Y-114864366D01*
X172091332Y-114837592D01*
X172106053Y-114725783D01*
X172107392Y-114712194D01*
X172108253Y-114699062D01*
X172108700Y-114685408D01*
X172108700Y-112709300D01*
X172127913Y-112650169D01*
X172178213Y-112613624D01*
X172209300Y-112608700D01*
X172890700Y-112608700D01*
X172949831Y-112627913D01*
X172986376Y-112678213D01*
X172991300Y-112709300D01*
X172991300Y-114685409D01*
X172991746Y-114699047D01*
X172992609Y-114712216D01*
X172993945Y-114725778D01*
X173008666Y-114837590D01*
X173013990Y-114864354D01*
X173013992Y-114864363D01*
X173020785Y-114889718D01*
X173020793Y-114889744D01*
X173029558Y-114915565D01*
X173029562Y-114915574D01*
X173029564Y-114915580D01*
X173039321Y-114939136D01*
X173058886Y-114986372D01*
X173070176Y-115013627D01*
X173082248Y-115038108D01*
X173095381Y-115060857D01*
X173095384Y-115060862D01*
X173110545Y-115083551D01*
X173110560Y-115083572D01*
X173175136Y-115167730D01*
X173175152Y-115167749D01*
X173175156Y-115167754D01*
X173193156Y-115188278D01*
X173211721Y-115206843D01*
X173232245Y-115224843D01*
X173232249Y-115224846D01*
X173232268Y-115224862D01*
X173316426Y-115289438D01*
X173316432Y-115289442D01*
X173316445Y-115289452D01*
X173318036Y-115290515D01*
X173339136Y-115304614D01*
X173339141Y-115304617D01*
X173339148Y-115304621D01*
X173361891Y-115317751D01*
X173386372Y-115329823D01*
X173484419Y-115370435D01*
X173510267Y-115379209D01*
X173535633Y-115386006D01*
X173535637Y-115386007D01*
X173537015Y-115386281D01*
X173562408Y-115391332D01*
X173564497Y-115391607D01*
X173674209Y-115406052D01*
X173674218Y-115406052D01*
X173674219Y-115406053D01*
X173687805Y-115407392D01*
X173700935Y-115408253D01*
X173712640Y-115408636D01*
X173714589Y-115408700D01*
X173714591Y-115408700D01*
X173885412Y-115408700D01*
X173887819Y-115408621D01*
X173899066Y-115408253D01*
X173912195Y-115407392D01*
X173925780Y-115406053D01*
X174037591Y-115391332D01*
X174064366Y-115386006D01*
X174089732Y-115379209D01*
X174115580Y-115370435D01*
X174213627Y-115329823D01*
X174238108Y-115317751D01*
X174260851Y-115304621D01*
X174283553Y-115289452D01*
X174283566Y-115289441D01*
X174283568Y-115289441D01*
X174307580Y-115271015D01*
X174367750Y-115224846D01*
X174367773Y-115224825D01*
X174367784Y-115224817D01*
X174388266Y-115206854D01*
X174388266Y-115206853D01*
X174388275Y-115206846D01*
X174406846Y-115188275D01*
X174406854Y-115188266D01*
X174424817Y-115167784D01*
X174424825Y-115167773D01*
X174424846Y-115167750D01*
X174488788Y-115084419D01*
X174489441Y-115083568D01*
X174489442Y-115083566D01*
X174489441Y-115083566D01*
X174489452Y-115083553D01*
X174504621Y-115060851D01*
X174517751Y-115038108D01*
X174529823Y-115013627D01*
X174570435Y-114915580D01*
X174579209Y-114889732D01*
X174586006Y-114864366D01*
X174591332Y-114837592D01*
X174606053Y-114725783D01*
X174607392Y-114712194D01*
X174608253Y-114699062D01*
X174608700Y-114685408D01*
X174608700Y-112709300D01*
X174627913Y-112650169D01*
X174678213Y-112613624D01*
X174709300Y-112608700D01*
X175190700Y-112608700D01*
X175249831Y-112627913D01*
X175286376Y-112678213D01*
X175291300Y-112709300D01*
X175291300Y-115382989D01*
X175291746Y-115396627D01*
X175292609Y-115409796D01*
X175293945Y-115423358D01*
X175308666Y-115535170D01*
X175313990Y-115561934D01*
X175313992Y-115561943D01*
X175320785Y-115587298D01*
X175320793Y-115587324D01*
X175329559Y-115613146D01*
X175329563Y-115613158D01*
X175370177Y-115711209D01*
X175370181Y-115711218D01*
X175382244Y-115735679D01*
X175382248Y-115735686D01*
X175382252Y-115735694D01*
X175395383Y-115758437D01*
X175410548Y-115781133D01*
X175410555Y-115781143D01*
X175424297Y-115799051D01*
X175479203Y-115870606D01*
X175487861Y-115881156D01*
X175496537Y-115891050D01*
X175505879Y-115901025D01*
X175906342Y-116301488D01*
X175916317Y-116310830D01*
X175926211Y-116319506D01*
X175926220Y-116319513D01*
X175926223Y-116319516D01*
X175936749Y-116328155D01*
X175936761Y-116328164D01*
X176021024Y-116392821D01*
X176043720Y-116407986D01*
X176066463Y-116421117D01*
X176066470Y-116421120D01*
X176066471Y-116421121D01*
X176090935Y-116433185D01*
X176090947Y-116433191D01*
X176182919Y-116471288D01*
X176182926Y-116471290D01*
X176182930Y-116471292D01*
X176208781Y-116480068D01*
X176234148Y-116486865D01*
X176260921Y-116492190D01*
X176359956Y-116505228D01*
X176366202Y-116506051D01*
X176366218Y-116506053D01*
X176375932Y-116507010D01*
X176379794Y-116507391D01*
X176379796Y-116507391D01*
X176379805Y-116507392D01*
X176392936Y-116508253D01*
X176404392Y-116508628D01*
X176406589Y-116508700D01*
X176406591Y-116508700D01*
X176608292Y-116508700D01*
X176613066Y-116508636D01*
X176613729Y-116508628D01*
X176618996Y-116508490D01*
X176619000Y-116508489D01*
X176619002Y-116508489D01*
X176688327Y-116494697D01*
X176688328Y-116494696D01*
X176688331Y-116494696D01*
X176709892Y-116486418D01*
X176731879Y-116479275D01*
X176766350Y-116464535D01*
X176771378Y-116460139D01*
X176779961Y-116455928D01*
X176814124Y-116422768D01*
X176836276Y-116403403D01*
X176837890Y-116401180D01*
X176837018Y-116400547D01*
X176846609Y-116391239D01*
X176857776Y-116374039D01*
X176860744Y-116369721D01*
X176872777Y-116353163D01*
X176891971Y-116321039D01*
X176893425Y-116314665D01*
X176899375Y-116296639D01*
X176899416Y-116296545D01*
X176907022Y-116279455D01*
X176907195Y-116278807D01*
X176908957Y-116274791D01*
X176909889Y-116273744D01*
X176913961Y-116264902D01*
X176927339Y-116241732D01*
X176943320Y-116220904D01*
X176960905Y-116203319D01*
X176981727Y-116187341D01*
X177003266Y-116174906D01*
X177027525Y-116164859D01*
X177051534Y-116158427D01*
X177077567Y-116155000D01*
X177102432Y-116155000D01*
X177128466Y-116158427D01*
X177152470Y-116164858D01*
X177176737Y-116174910D01*
X177198264Y-116187339D01*
X177219098Y-116203325D01*
X177236673Y-116220900D01*
X177252661Y-116241737D01*
X177265331Y-116263683D01*
X177274660Y-116285392D01*
X177275964Y-116289794D01*
X177275968Y-116289804D01*
X177307215Y-116353152D01*
X177307219Y-116353158D01*
X177342108Y-116401180D01*
X177343764Y-116403458D01*
X177368381Y-116431634D01*
X177448114Y-116479272D01*
X177507245Y-116498485D01*
X177571732Y-116508699D01*
X177571734Y-116508700D01*
X177571737Y-116508700D01*
X179285412Y-116508700D01*
X179287819Y-116508621D01*
X179299066Y-116508253D01*
X179312195Y-116507392D01*
X179325780Y-116506053D01*
X179437591Y-116491332D01*
X179464366Y-116486006D01*
X179489732Y-116479209D01*
X179515580Y-116470435D01*
X179613627Y-116429823D01*
X179638108Y-116417751D01*
X179660851Y-116404621D01*
X179683553Y-116389452D01*
X179683566Y-116389441D01*
X179683568Y-116389441D01*
X179709293Y-116369701D01*
X179767750Y-116324846D01*
X179767773Y-116324825D01*
X179767784Y-116324817D01*
X179788266Y-116306854D01*
X179788266Y-116306853D01*
X179788275Y-116306846D01*
X179806846Y-116288275D01*
X179806854Y-116288266D01*
X179824817Y-116267784D01*
X179824825Y-116267773D01*
X179824846Y-116267750D01*
X179881466Y-116193961D01*
X179889441Y-116183568D01*
X179889442Y-116183566D01*
X179889441Y-116183566D01*
X179889452Y-116183553D01*
X179904621Y-116160851D01*
X179917751Y-116138108D01*
X179929823Y-116113627D01*
X179970435Y-116015580D01*
X179979209Y-115989732D01*
X179986006Y-115964366D01*
X179991332Y-115937592D01*
X180006053Y-115825783D01*
X180007392Y-115812194D01*
X180008253Y-115799062D01*
X180008700Y-115785408D01*
X180008700Y-115314591D01*
X180008253Y-115300937D01*
X180007392Y-115287805D01*
X180006053Y-115274216D01*
X179991332Y-115162407D01*
X179986006Y-115135633D01*
X179979209Y-115110267D01*
X179970435Y-115084419D01*
X179929823Y-114986372D01*
X179917751Y-114961891D01*
X179904621Y-114939148D01*
X179904617Y-114939141D01*
X179904614Y-114939136D01*
X179892837Y-114921511D01*
X179889452Y-114916445D01*
X179889445Y-114916436D01*
X179889438Y-114916426D01*
X179824862Y-114832268D01*
X179824846Y-114832249D01*
X179824843Y-114832245D01*
X179806843Y-114811721D01*
X179788278Y-114793156D01*
X179767754Y-114775156D01*
X179767749Y-114775152D01*
X179767730Y-114775136D01*
X179683564Y-114710554D01*
X179683551Y-114710545D01*
X179660862Y-114695384D01*
X179660857Y-114695381D01*
X179638108Y-114682248D01*
X179613627Y-114670176D01*
X179613621Y-114670173D01*
X179613616Y-114670171D01*
X179547382Y-114642736D01*
X179515580Y-114629564D01*
X179515577Y-114629563D01*
X179515565Y-114629558D01*
X179489744Y-114620793D01*
X179489718Y-114620785D01*
X179464356Y-114613990D01*
X179437613Y-114608671D01*
X179437601Y-114608669D01*
X179437591Y-114608667D01*
X179437581Y-114608665D01*
X179437577Y-114608665D01*
X179325775Y-114593944D01*
X179312192Y-114592606D01*
X179302696Y-114591984D01*
X179299049Y-114591746D01*
X179291471Y-114591498D01*
X179285413Y-114591300D01*
X179285409Y-114591300D01*
X178203549Y-114591300D01*
X178144418Y-114572087D01*
X178107873Y-114521787D01*
X178107873Y-114459613D01*
X178116423Y-114440407D01*
X178117751Y-114438108D01*
X178129823Y-114413627D01*
X178170435Y-114315580D01*
X178179209Y-114289732D01*
X178186006Y-114264366D01*
X178191332Y-114237592D01*
X178206053Y-114125783D01*
X178207392Y-114112194D01*
X178208253Y-114099062D01*
X178208700Y-114085408D01*
X178208700Y-113709300D01*
X178227913Y-113650169D01*
X178278213Y-113613624D01*
X178309300Y-113608700D01*
X180785412Y-113608700D01*
X180787819Y-113608621D01*
X180799066Y-113608253D01*
X180812195Y-113607392D01*
X180825780Y-113606053D01*
X180937591Y-113591332D01*
X180964366Y-113586006D01*
X180989732Y-113579209D01*
X181015580Y-113570435D01*
X181113627Y-113529823D01*
X181138108Y-113517751D01*
X181160851Y-113504621D01*
X181183553Y-113489452D01*
X181183566Y-113489441D01*
X181183568Y-113489441D01*
X181207580Y-113471015D01*
X181267750Y-113424846D01*
X181267773Y-113424825D01*
X181267784Y-113424817D01*
X181288266Y-113406854D01*
X181288266Y-113406853D01*
X181288275Y-113406846D01*
X181306846Y-113388275D01*
X181306854Y-113388266D01*
X181324817Y-113367784D01*
X181324825Y-113367773D01*
X181324846Y-113367750D01*
X181371015Y-113307580D01*
X181389441Y-113283568D01*
X181389442Y-113283566D01*
X181389441Y-113283566D01*
X181389452Y-113283553D01*
X181404621Y-113260851D01*
X181417751Y-113238108D01*
X181429823Y-113213627D01*
X181470435Y-113115580D01*
X181479209Y-113089732D01*
X181486006Y-113064366D01*
X181491332Y-113037592D01*
X181506053Y-112925783D01*
X181507392Y-112912194D01*
X181508253Y-112899062D01*
X181508700Y-112885408D01*
X181508700Y-109009300D01*
X181527913Y-108950169D01*
X181578213Y-108913624D01*
X181609300Y-108908700D01*
X182340071Y-108908700D01*
X182340083Y-108908700D01*
X182356458Y-108908057D01*
X182376165Y-108906506D01*
X182376170Y-108906505D01*
X182376175Y-108906505D01*
X182378977Y-108906173D01*
X182392438Y-108904580D01*
X182471094Y-108892122D01*
X182502940Y-108884476D01*
X182540431Y-108872294D01*
X182570684Y-108859762D01*
X182606449Y-108841538D01*
X182632668Y-108828180D01*
X182632672Y-108828177D01*
X182632693Y-108828167D01*
X182660621Y-108811053D01*
X182692513Y-108787881D01*
X182717411Y-108766615D01*
X182766615Y-108717411D01*
X182787881Y-108692513D01*
X182811053Y-108660621D01*
X182828167Y-108632693D01*
X182831690Y-108625780D01*
X182859754Y-108570699D01*
X182859762Y-108570684D01*
X182872294Y-108540431D01*
X182884476Y-108502940D01*
X182892121Y-108471096D01*
X182904579Y-108392444D01*
X182906506Y-108376165D01*
X182908057Y-108356453D01*
X182908700Y-108340082D01*
X182908700Y-104916258D01*
X182908253Y-104902608D01*
X182907175Y-104886161D01*
X182905836Y-104872569D01*
X182891769Y-104765723D01*
X182886444Y-104738950D01*
X182877931Y-104707179D01*
X182869156Y-104681328D01*
X182831102Y-104589457D01*
X182829452Y-104586111D01*
X182819028Y-104564973D01*
X182819022Y-104564962D01*
X182802582Y-104536490D01*
X182802575Y-104536477D01*
X182787414Y-104513789D01*
X182787413Y-104513787D01*
X182726884Y-104434905D01*
X182726883Y-104434903D01*
X182708875Y-104414370D01*
X182685621Y-104391116D01*
X182665119Y-104373136D01*
X182665109Y-104373128D01*
X182665101Y-104373121D01*
X182586206Y-104312583D01*
X182563511Y-104297418D01*
X182563499Y-104297411D01*
X182535039Y-104280978D01*
X182535028Y-104280972D01*
X182510556Y-104268904D01*
X182510547Y-104268900D01*
X182418674Y-104230844D01*
X182418667Y-104230842D01*
X182418669Y-104230842D01*
X182418665Y-104230841D01*
X182410660Y-104228123D01*
X182392819Y-104222067D01*
X182361060Y-104213557D01*
X182361042Y-104213553D01*
X182334302Y-104208234D01*
X182334285Y-104208231D01*
X182334278Y-104208230D01*
X182334261Y-104208227D01*
X182334256Y-104208227D01*
X182227448Y-104194165D01*
X182227428Y-104194163D01*
X182213838Y-104192825D01*
X182208782Y-104192493D01*
X182197379Y-104191746D01*
X182183742Y-104191300D01*
X182183741Y-104191300D01*
X180409300Y-104191300D01*
X180350169Y-104172087D01*
X180313624Y-104121787D01*
X180308700Y-104090700D01*
X180308700Y-103109300D01*
X180327913Y-103050169D01*
X180378213Y-103013624D01*
X180409300Y-103008700D01*
X180983742Y-103008700D01*
X180984878Y-103008662D01*
X180997391Y-103008253D01*
X181013838Y-103007175D01*
X181027430Y-103005836D01*
X181134276Y-102991769D01*
X181161049Y-102986444D01*
X181192820Y-102977931D01*
X181218671Y-102969156D01*
X181310542Y-102931102D01*
X181335029Y-102919026D01*
X181363515Y-102902579D01*
X181386211Y-102887414D01*
X181465099Y-102826881D01*
X181485623Y-102808881D01*
X181508881Y-102785623D01*
X181526881Y-102765099D01*
X181587414Y-102686211D01*
X181602579Y-102663515D01*
X181619026Y-102635029D01*
X181631102Y-102610542D01*
X181669156Y-102518671D01*
X181677931Y-102492820D01*
X181686444Y-102461049D01*
X181691769Y-102434276D01*
X181705836Y-102327430D01*
X181707175Y-102313838D01*
X181708253Y-102297391D01*
X181708700Y-102283741D01*
X181708700Y-101916258D01*
X181708253Y-101902608D01*
X181707175Y-101886161D01*
X181705836Y-101872569D01*
X181691769Y-101765723D01*
X181686444Y-101738950D01*
X181677931Y-101707179D01*
X181669156Y-101681328D01*
X181631102Y-101589457D01*
X181629452Y-101586111D01*
X181619028Y-101564973D01*
X181619022Y-101564962D01*
X181602582Y-101536490D01*
X181602575Y-101536477D01*
X181587414Y-101513789D01*
X181587413Y-101513787D01*
X181526884Y-101434905D01*
X181526883Y-101434903D01*
X181508875Y-101414370D01*
X181485621Y-101391116D01*
X181465119Y-101373136D01*
X181465109Y-101373128D01*
X181465101Y-101373121D01*
X181386206Y-101312583D01*
X181363511Y-101297418D01*
X181363499Y-101297411D01*
X181335039Y-101280978D01*
X181335028Y-101280972D01*
X181310556Y-101268904D01*
X181310547Y-101268900D01*
X181218674Y-101230844D01*
X181218667Y-101230842D01*
X181218669Y-101230842D01*
X181218665Y-101230841D01*
X181210660Y-101228123D01*
X181192819Y-101222067D01*
X181161060Y-101213557D01*
X181161042Y-101213553D01*
X181134302Y-101208234D01*
X181134285Y-101208231D01*
X181134278Y-101208230D01*
X181134261Y-101208227D01*
X181134256Y-101208227D01*
X181027448Y-101194165D01*
X181027428Y-101194163D01*
X181013838Y-101192825D01*
X181008782Y-101192493D01*
X180997379Y-101191746D01*
X180983742Y-101191300D01*
X180983741Y-101191300D01*
X180409300Y-101191300D01*
X180350169Y-101172087D01*
X180313624Y-101121787D01*
X180308700Y-101090700D01*
X180308700Y-94216310D01*
X180308253Y-94202670D01*
X180308253Y-94202662D01*
X180307175Y-94186215D01*
X180305836Y-94172624D01*
X180303218Y-94152739D01*
X180291774Y-94065808D01*
X180291771Y-94065794D01*
X180291769Y-94065777D01*
X180286443Y-94038998D01*
X180278085Y-94007809D01*
X180277930Y-94007229D01*
X180277928Y-94007223D01*
X180277805Y-94006861D01*
X180269154Y-93981378D01*
X180231099Y-93889508D01*
X180231096Y-93889503D01*
X180231091Y-93889490D01*
X180219026Y-93865026D01*
X180219020Y-93865015D01*
X180202585Y-93836551D01*
X180202577Y-93836537D01*
X180187410Y-93813839D01*
X180187402Y-93813829D01*
X180187399Y-93813824D01*
X180126880Y-93734957D01*
X180126879Y-93734956D01*
X180126873Y-93734948D01*
X180108875Y-93714426D01*
X180085616Y-93691167D01*
X180065089Y-93673165D01*
X180065080Y-93673158D01*
X180065069Y-93673148D01*
X179986217Y-93612646D01*
X179986210Y-93612640D01*
X179969852Y-93601711D01*
X179963497Y-93597465D01*
X179963492Y-93597462D01*
X179963475Y-93597452D01*
X179936009Y-93581596D01*
X179935010Y-93581019D01*
X179935004Y-93581016D01*
X179910528Y-93568945D01*
X179818658Y-93530894D01*
X179818646Y-93530890D01*
X179792819Y-93522123D01*
X179792799Y-93522117D01*
X179761039Y-93513608D01*
X179761037Y-93513607D01*
X179761035Y-93513607D01*
X179757123Y-93512828D01*
X179734263Y-93508281D01*
X179627402Y-93494216D01*
X179613795Y-93492876D01*
X179613792Y-93492875D01*
X179613784Y-93492875D01*
X179597368Y-93491800D01*
X179590300Y-93491569D01*
X179583718Y-93491355D01*
X179583704Y-93491355D01*
X173992852Y-93491528D01*
X173992850Y-93491528D01*
X173970547Y-93492726D01*
X173943765Y-93495608D01*
X173943761Y-93495609D01*
X173890056Y-93512428D01*
X173866069Y-93519941D01*
X173866067Y-93519941D01*
X173866064Y-93519943D01*
X173803760Y-93553966D01*
X173803754Y-93553969D01*
X173794378Y-93560988D01*
X173784397Y-93567572D01*
X173736737Y-93595089D01*
X173712477Y-93605138D01*
X173688463Y-93611572D01*
X173662430Y-93615000D01*
X173637572Y-93615000D01*
X173611535Y-93611572D01*
X173587523Y-93605138D01*
X173563258Y-93595087D01*
X173532228Y-93577171D01*
X173519410Y-93568384D01*
X173506211Y-93557748D01*
X173506207Y-93557746D01*
X173498986Y-93553969D01*
X173434049Y-93520002D01*
X173365932Y-93500003D01*
X173365928Y-93500002D01*
X173365922Y-93500001D01*
X173307138Y-93491551D01*
X173307134Y-93491551D01*
X173306930Y-93491551D01*
X171622782Y-93491602D01*
X171622771Y-93491603D01*
X171600479Y-93492799D01*
X171583813Y-93494592D01*
X171573700Y-93495680D01*
X171496222Y-93519943D01*
X171495998Y-93520013D01*
X171475030Y-93531463D01*
X171433820Y-93553966D01*
X171433686Y-93554039D01*
X171386128Y-93589641D01*
X171384024Y-93591465D01*
X171368454Y-93602551D01*
X171346739Y-93615088D01*
X171322479Y-93625137D01*
X171298470Y-93631571D01*
X171272430Y-93635000D01*
X171247572Y-93635000D01*
X171221534Y-93631572D01*
X171207020Y-93627683D01*
X171197519Y-93625137D01*
X171173258Y-93615087D01*
X171151398Y-93602466D01*
X171134474Y-93590186D01*
X171117266Y-93574729D01*
X171115462Y-93573275D01*
X171096286Y-93557822D01*
X171096283Y-93557820D01*
X171096280Y-93557818D01*
X171044804Y-93530893D01*
X171024123Y-93520075D01*
X171024120Y-93520074D01*
X171024117Y-93520072D01*
X170956008Y-93500077D01*
X170956000Y-93500075D01*
X170897209Y-93491626D01*
X161716224Y-93491912D01*
X161702587Y-93492359D01*
X161686139Y-93493437D01*
X161672564Y-93494775D01*
X161565689Y-93508849D01*
X161538914Y-93514176D01*
X161507169Y-93522684D01*
X161507140Y-93522693D01*
X161481311Y-93531462D01*
X161389452Y-93569515D01*
X161364955Y-93581596D01*
X161355616Y-93586988D01*
X161336478Y-93598039D01*
X161336464Y-93598047D01*
X161336461Y-93598050D01*
X161313799Y-93613193D01*
X161313776Y-93613209D01*
X161246935Y-93664498D01*
X161235650Y-93673159D01*
X161234886Y-93673745D01*
X161234882Y-93673748D01*
X161214373Y-93691733D01*
X161191118Y-93714987D01*
X161173132Y-93735496D01*
X161173122Y-93735508D01*
X161173118Y-93735514D01*
X161112569Y-93814426D01*
X161112561Y-93814437D01*
X161097404Y-93837121D01*
X161080975Y-93865578D01*
X161068896Y-93890069D01*
X161068887Y-93890088D01*
X161030841Y-93981946D01*
X161030829Y-93981978D01*
X161022065Y-94007799D01*
X161022063Y-94007806D01*
X161013553Y-94039566D01*
X161008229Y-94066333D01*
X160994864Y-94167843D01*
X160994865Y-94167844D01*
X160994158Y-94173216D01*
X160992826Y-94186761D01*
X160991746Y-94203237D01*
X160991300Y-94216869D01*
X160991300Y-101876889D01*
X160992495Y-101899197D01*
X160995373Y-101925976D01*
X160995374Y-101925978D01*
X161019708Y-102003693D01*
X161047100Y-102053857D01*
X161047124Y-102053843D01*
X161053621Y-102065714D01*
X161052304Y-102066476D01*
X161085645Y-102124225D01*
X161086212Y-102125260D01*
X161086460Y-102126573D01*
X161095136Y-102147518D01*
X161101571Y-102171530D01*
X161105000Y-102197571D01*
X161105000Y-102222426D01*
X161101573Y-102248461D01*
X161099925Y-102254608D01*
X161094759Y-102283741D01*
X161093645Y-102290024D01*
X161089789Y-102333115D01*
X161089775Y-102333269D01*
X161089770Y-102333335D01*
X161089624Y-102335053D01*
X161102997Y-102426969D01*
X161111529Y-102449040D01*
X161128595Y-102493185D01*
X161128599Y-102493193D01*
X161128600Y-102493194D01*
X161157676Y-102544971D01*
X161157682Y-102544980D01*
X161173121Y-102565101D01*
X161173128Y-102565109D01*
X161188244Y-102582345D01*
X161191121Y-102585626D01*
X161214373Y-102608878D01*
X161234897Y-102626878D01*
X161234901Y-102626881D01*
X161234906Y-102626885D01*
X161313792Y-102687417D01*
X161336479Y-102702575D01*
X161336485Y-102702579D01*
X161364969Y-102719025D01*
X161364978Y-102719029D01*
X161364979Y-102719030D01*
X161389439Y-102731094D01*
X161389448Y-102731098D01*
X161389453Y-102731100D01*
X161389457Y-102731102D01*
X161481328Y-102769156D01*
X161507179Y-102777931D01*
X161507181Y-102777931D01*
X161507185Y-102777933D01*
X161519887Y-102781336D01*
X161538950Y-102786444D01*
X161565724Y-102791769D01*
X161565743Y-102791771D01*
X161565755Y-102791774D01*
X161651387Y-102803047D01*
X161672571Y-102805836D01*
X161681961Y-102806761D01*
X161686150Y-102807174D01*
X161686155Y-102807174D01*
X161686162Y-102807175D01*
X161702609Y-102808253D01*
X161714742Y-102808650D01*
X161716258Y-102808700D01*
X161716259Y-102808700D01*
X162083742Y-102808700D01*
X162084878Y-102808662D01*
X162097391Y-102808253D01*
X162113838Y-102807175D01*
X162127430Y-102805836D01*
X162234276Y-102791769D01*
X162261049Y-102786444D01*
X162292820Y-102777931D01*
X162318671Y-102769156D01*
X162410542Y-102731102D01*
X162423241Y-102724839D01*
X162435024Y-102719029D01*
X162440391Y-102715930D01*
X162501206Y-102702997D01*
X162558007Y-102728280D01*
X162589100Y-102782121D01*
X162591300Y-102803047D01*
X162591300Y-107290700D01*
X162572087Y-107349831D01*
X162521787Y-107386376D01*
X162490700Y-107391300D01*
X161514588Y-107391300D01*
X161507771Y-107391523D01*
X161500952Y-107391746D01*
X161498634Y-107391897D01*
X161487807Y-107392606D01*
X161474224Y-107393944D01*
X161362424Y-107408664D01*
X161362376Y-107408672D01*
X161335654Y-107413987D01*
X161335648Y-107413989D01*
X161335641Y-107413990D01*
X161335635Y-107413992D01*
X161324926Y-107416861D01*
X161310276Y-107420786D01*
X161284412Y-107429566D01*
X161186366Y-107470178D01*
X161161894Y-107482246D01*
X161139158Y-107495371D01*
X161139140Y-107495382D01*
X161116451Y-107510543D01*
X161116445Y-107510547D01*
X161032246Y-107575156D01*
X161032222Y-107575175D01*
X161011720Y-107593155D01*
X160993155Y-107611720D01*
X160975175Y-107632222D01*
X160975156Y-107632246D01*
X160910542Y-107716452D01*
X160910538Y-107716457D01*
X160895380Y-107739144D01*
X160895371Y-107739159D01*
X160882261Y-107761866D01*
X160882247Y-107761892D01*
X160870174Y-107786375D01*
X160870173Y-107786377D01*
X160829558Y-107884433D01*
X160820793Y-107910254D01*
X160820785Y-107910280D01*
X160813992Y-107935635D01*
X160813990Y-107935644D01*
X160808666Y-107962408D01*
X160793945Y-108074220D01*
X160792609Y-108087782D01*
X160791746Y-108100951D01*
X160791300Y-108114589D01*
X99700500Y-108114589D01*
X99700500Y-95960118D01*
X99669976Y-95886426D01*
X99613574Y-95830024D01*
X99613573Y-95830023D01*
X99543078Y-95800824D01*
X99539882Y-95799500D01*
X87039882Y-95799500D01*
X86960118Y-95799500D01*
X86956922Y-95800824D01*
X86886426Y-95830023D01*
X86830023Y-95886426D01*
X86799500Y-95960118D01*
X85200500Y-95960118D01*
X85200500Y-77960118D01*
X86799500Y-77960118D01*
X86799500Y-90639881D01*
X86830023Y-90713573D01*
X86830024Y-90713574D01*
X86886426Y-90769976D01*
X86960118Y-90800500D01*
X86960119Y-90800500D01*
X99539881Y-90800500D01*
X99539882Y-90800500D01*
X99613574Y-90769976D01*
X99669976Y-90713574D01*
X99700500Y-90639882D01*
X99700500Y-77960118D01*
X99669976Y-77886426D01*
X99613574Y-77830024D01*
X99613573Y-77830023D01*
X99543754Y-77801104D01*
X99539882Y-77799500D01*
X87039882Y-77799500D01*
X86960118Y-77799500D01*
X86956246Y-77801104D01*
X86886426Y-77830023D01*
X86830023Y-77886426D01*
X86799500Y-77960118D01*
X85200500Y-77960118D01*
X85200500Y-59960118D01*
X86799500Y-59960118D01*
X86799500Y-72639882D01*
X86800817Y-72643061D01*
X86830023Y-72713573D01*
X86830024Y-72713574D01*
X86886426Y-72769976D01*
X86960118Y-72800500D01*
X86960119Y-72800500D01*
X99539881Y-72800500D01*
X99539882Y-72800500D01*
X99613574Y-72769976D01*
X99669976Y-72713574D01*
X99700500Y-72639882D01*
X99700500Y-72173684D01*
X113956300Y-72173684D01*
X113956300Y-72306315D01*
X113990628Y-72434424D01*
X114039978Y-72519900D01*
X114056940Y-72549279D01*
X114150721Y-72643060D01*
X114150723Y-72643061D01*
X114265575Y-72709371D01*
X114265576Y-72709371D01*
X114265579Y-72709373D01*
X114393687Y-72743700D01*
X114526313Y-72743700D01*
X114654421Y-72709373D01*
X114769279Y-72643060D01*
X114818167Y-72594171D01*
X114873563Y-72565947D01*
X114934971Y-72575673D01*
X114978935Y-72619637D01*
X114989900Y-72665308D01*
X114989900Y-87060089D01*
X115013344Y-87177959D01*
X115032394Y-87223949D01*
X115045865Y-87256470D01*
X115051739Y-87270652D01*
X115059334Y-87288988D01*
X115126102Y-87388914D01*
X115126104Y-87388916D01*
X116351084Y-88613896D01*
X116403891Y-88649180D01*
X116451004Y-88680660D01*
X116451006Y-88680661D01*
X116451009Y-88680663D01*
X116562040Y-88726654D01*
X116679910Y-88750100D01*
X116679911Y-88750100D01*
X116800089Y-88750100D01*
X116800090Y-88750100D01*
X116917959Y-88726654D01*
X117028990Y-88680663D01*
X117057323Y-88661731D01*
X117117161Y-88644854D01*
X117175492Y-88666373D01*
X117210035Y-88718068D01*
X117207596Y-88780194D01*
X117184348Y-88816512D01*
X117088138Y-88912721D01*
X117088139Y-88912722D01*
X117036020Y-88964841D01*
X117004098Y-89020133D01*
X116988112Y-89040967D01*
X116936960Y-89092120D01*
X116936959Y-89092121D01*
X116883811Y-89184175D01*
X116883809Y-89184179D01*
X116856300Y-89286846D01*
X116856300Y-89393153D01*
X116883809Y-89495820D01*
X116883811Y-89495824D01*
X116936959Y-89587878D01*
X117012121Y-89663040D01*
X117012120Y-89663040D01*
X117104175Y-89716188D01*
X117104179Y-89716190D01*
X117206846Y-89743699D01*
X117206850Y-89743699D01*
X117206852Y-89743700D01*
X117206854Y-89743700D01*
X117313146Y-89743700D01*
X117313148Y-89743700D01*
X117313150Y-89743699D01*
X117313153Y-89743699D01*
X117415820Y-89716190D01*
X117415820Y-89716189D01*
X117415823Y-89716189D01*
X117507878Y-89663041D01*
X117558652Y-89612266D01*
X117577388Y-89602720D01*
X117593733Y-89589484D01*
X117604470Y-89588921D01*
X117614048Y-89584041D01*
X117655822Y-89586229D01*
X117725781Y-89604974D01*
X117777924Y-89638835D01*
X117800206Y-89696879D01*
X117784115Y-89756935D01*
X117770879Y-89773281D01*
X117025430Y-90518730D01*
X116970032Y-90546956D01*
X116908624Y-90537230D01*
X116903995Y-90534717D01*
X116815824Y-90483811D01*
X116815820Y-90483809D01*
X116713153Y-90456300D01*
X116713148Y-90456300D01*
X116606852Y-90456300D01*
X116606846Y-90456300D01*
X116504179Y-90483809D01*
X116504175Y-90483811D01*
X116412121Y-90536959D01*
X116398446Y-90550635D01*
X116391212Y-90554320D01*
X116386442Y-90560887D01*
X116364036Y-90568166D01*
X116343048Y-90578861D01*
X116327311Y-90580100D01*
X116182689Y-90580100D01*
X116123558Y-90560887D01*
X116111554Y-90550635D01*
X116087878Y-90526959D01*
X116087879Y-90526959D01*
X115995824Y-90473811D01*
X115995820Y-90473809D01*
X115893153Y-90446300D01*
X115893148Y-90446300D01*
X115786852Y-90446300D01*
X115786846Y-90446300D01*
X115684179Y-90473809D01*
X115684175Y-90473811D01*
X115592121Y-90526959D01*
X115516959Y-90602121D01*
X115463811Y-90694175D01*
X115463809Y-90694179D01*
X115436300Y-90796846D01*
X115436300Y-90903153D01*
X115463809Y-91005820D01*
X115463811Y-91005824D01*
X115516959Y-91097878D01*
X115592121Y-91173040D01*
X115592120Y-91173040D01*
X115684175Y-91226188D01*
X115684179Y-91226190D01*
X115786846Y-91253699D01*
X115786850Y-91253699D01*
X115786852Y-91253700D01*
X115786854Y-91253700D01*
X115893146Y-91253700D01*
X115893148Y-91253700D01*
X115893150Y-91253699D01*
X115893153Y-91253699D01*
X115995820Y-91226190D01*
X115995820Y-91226189D01*
X115995823Y-91226189D01*
X116087878Y-91173041D01*
X116091554Y-91169365D01*
X116098787Y-91165679D01*
X116103558Y-91159113D01*
X116125963Y-91151833D01*
X116146952Y-91141139D01*
X116162689Y-91139900D01*
X116327311Y-91139900D01*
X116386442Y-91159113D01*
X116398446Y-91169365D01*
X116412121Y-91183040D01*
X116412120Y-91183040D01*
X116504175Y-91236188D01*
X116504179Y-91236190D01*
X116606846Y-91263699D01*
X116606850Y-91263699D01*
X116606852Y-91263700D01*
X116606854Y-91263700D01*
X116713146Y-91263700D01*
X116713148Y-91263700D01*
X116713150Y-91263699D01*
X116713153Y-91263699D01*
X116815820Y-91236190D01*
X116815820Y-91236189D01*
X116815823Y-91236189D01*
X116907878Y-91183041D01*
X116921554Y-91169365D01*
X116976952Y-91141139D01*
X116992689Y-91139900D01*
X117116850Y-91139900D01*
X117188037Y-91120825D01*
X117251862Y-91083976D01*
X118698367Y-89637470D01*
X118753763Y-89609246D01*
X118815171Y-89618972D01*
X118859135Y-89662936D01*
X118870100Y-89708607D01*
X118870100Y-94098206D01*
X118850887Y-94157337D01*
X118836547Y-94172060D01*
X118836784Y-94172297D01*
X118756959Y-94252121D01*
X118703811Y-94344175D01*
X118703809Y-94344179D01*
X118676300Y-94446846D01*
X118676300Y-94553153D01*
X118703809Y-94655820D01*
X118703811Y-94655824D01*
X118756959Y-94747878D01*
X118832121Y-94823040D01*
X118832120Y-94823040D01*
X118924175Y-94876188D01*
X118924179Y-94876190D01*
X119026846Y-94903699D01*
X119026850Y-94903699D01*
X119026852Y-94903700D01*
X119026854Y-94903700D01*
X119133146Y-94903700D01*
X119133148Y-94903700D01*
X119133150Y-94903699D01*
X119133153Y-94903699D01*
X119235820Y-94876190D01*
X119235820Y-94876189D01*
X119235823Y-94876189D01*
X119327878Y-94823041D01*
X119403041Y-94747878D01*
X119456189Y-94655823D01*
X119483700Y-94553148D01*
X119483700Y-94446852D01*
X119483699Y-94446850D01*
X119483699Y-94446846D01*
X119456190Y-94344179D01*
X119456188Y-94344175D01*
X119443378Y-94321987D01*
X119429900Y-94271687D01*
X119429900Y-87871846D01*
X131446300Y-87871846D01*
X131446300Y-87978153D01*
X131473809Y-88080820D01*
X131473811Y-88080824D01*
X131526959Y-88172878D01*
X131540635Y-88186554D01*
X131568861Y-88241952D01*
X131570100Y-88257689D01*
X131570100Y-93068150D01*
X131570100Y-94703150D01*
X131570100Y-94776850D01*
X131589175Y-94848037D01*
X131626024Y-94911862D01*
X133646836Y-96932674D01*
X133675061Y-96988070D01*
X133676300Y-97003807D01*
X133676300Y-97023153D01*
X133703809Y-97125820D01*
X133703811Y-97125824D01*
X133756959Y-97217878D01*
X133832121Y-97293040D01*
X133832120Y-97293040D01*
X133924175Y-97346188D01*
X133924179Y-97346190D01*
X134026846Y-97373699D01*
X134026850Y-97373699D01*
X134026852Y-97373700D01*
X134026854Y-97373700D01*
X134133146Y-97373700D01*
X134133148Y-97373700D01*
X134133150Y-97373699D01*
X134133153Y-97373699D01*
X134235820Y-97346190D01*
X134235820Y-97346189D01*
X134235823Y-97346189D01*
X134314701Y-97300648D01*
X134375515Y-97287722D01*
X134415297Y-97300647D01*
X134494177Y-97346189D01*
X134494179Y-97346190D01*
X134596846Y-97373699D01*
X134596850Y-97373699D01*
X134596852Y-97373700D01*
X134596854Y-97373700D01*
X134703146Y-97373700D01*
X134703148Y-97373700D01*
X134703150Y-97373699D01*
X134703153Y-97373699D01*
X134805820Y-97346190D01*
X134805820Y-97346189D01*
X134805823Y-97346189D01*
X134897878Y-97293041D01*
X134973041Y-97217878D01*
X135026189Y-97125823D01*
X135053700Y-97023148D01*
X135053700Y-96948409D01*
X135072913Y-96889278D01*
X135123213Y-96852733D01*
X135180337Y-96851237D01*
X135226846Y-96863699D01*
X135226850Y-96863699D01*
X135226852Y-96863700D01*
X135226854Y-96863700D01*
X135333146Y-96863700D01*
X135333148Y-96863700D01*
X135333150Y-96863699D01*
X135333153Y-96863699D01*
X135435820Y-96836190D01*
X135435820Y-96836189D01*
X135435823Y-96836189D01*
X135527878Y-96783041D01*
X135603041Y-96707878D01*
X135656189Y-96615823D01*
X135683700Y-96513148D01*
X135683700Y-96406852D01*
X135683699Y-96406850D01*
X135683699Y-96406846D01*
X135672112Y-96363602D01*
X135675366Y-96301513D01*
X135714494Y-96253194D01*
X135774550Y-96237103D01*
X135819582Y-96250442D01*
X135864177Y-96276189D01*
X135864179Y-96276190D01*
X135966846Y-96303699D01*
X135966850Y-96303699D01*
X135966852Y-96303700D01*
X135966854Y-96303700D01*
X136073146Y-96303700D01*
X136073148Y-96303700D01*
X136073150Y-96303699D01*
X136073153Y-96303699D01*
X136175820Y-96276190D01*
X136175820Y-96276189D01*
X136175823Y-96276189D01*
X136267878Y-96223041D01*
X136308398Y-96182520D01*
X136363794Y-96154295D01*
X136412648Y-96160078D01*
X136412808Y-96159483D01*
X136416914Y-96160583D01*
X136418036Y-96160716D01*
X136419182Y-96161191D01*
X136521846Y-96188699D01*
X136521850Y-96188699D01*
X136521852Y-96188700D01*
X136521854Y-96188700D01*
X136628146Y-96188700D01*
X136628148Y-96188700D01*
X136628150Y-96188699D01*
X136628153Y-96188699D01*
X136730820Y-96161190D01*
X136730820Y-96161189D01*
X136730823Y-96161189D01*
X136822878Y-96108041D01*
X136881223Y-96049695D01*
X136936619Y-96021470D01*
X136978394Y-96023659D01*
X137071846Y-96048699D01*
X137071850Y-96048699D01*
X137071852Y-96048700D01*
X137071854Y-96048700D01*
X137178146Y-96048700D01*
X137178148Y-96048700D01*
X137178150Y-96048699D01*
X137178153Y-96048699D01*
X137280820Y-96021190D01*
X137280820Y-96021189D01*
X137280823Y-96021189D01*
X137372878Y-95968041D01*
X137448041Y-95892878D01*
X137501189Y-95800823D01*
X137501190Y-95800820D01*
X137528699Y-95698153D01*
X137528700Y-95698146D01*
X137528700Y-95591853D01*
X137528699Y-95591846D01*
X137501190Y-95489179D01*
X137501188Y-95489175D01*
X137448040Y-95397121D01*
X137372878Y-95321959D01*
X137372879Y-95321959D01*
X137280824Y-95268811D01*
X137280820Y-95268809D01*
X137178153Y-95241300D01*
X137178148Y-95241300D01*
X137158808Y-95241300D01*
X137099677Y-95222087D01*
X137087673Y-95211835D01*
X135659365Y-93783527D01*
X135631139Y-93728129D01*
X135629900Y-93712392D01*
X135629900Y-90608993D01*
X135638109Y-90583725D01*
X135643901Y-90557798D01*
X135647592Y-90554542D01*
X135649113Y-90549862D01*
X135670608Y-90534244D01*
X135690532Y-90516674D01*
X135695272Y-90516325D01*
X135699413Y-90513317D01*
X135752429Y-90510812D01*
X135754477Y-90511269D01*
X135856852Y-90538700D01*
X135877291Y-90538700D01*
X135888121Y-90541119D01*
X135905797Y-90551568D01*
X135925323Y-90557913D01*
X135937327Y-90568165D01*
X137760635Y-92391473D01*
X137788861Y-92446871D01*
X137790100Y-92462608D01*
X137790100Y-98472445D01*
X137770887Y-98531576D01*
X137760635Y-98543580D01*
X137746959Y-98557255D01*
X137693811Y-98649309D01*
X137693809Y-98649313D01*
X137666300Y-98751980D01*
X137666300Y-98858287D01*
X137693809Y-98960954D01*
X137693811Y-98960958D01*
X137746959Y-99053012D01*
X137822121Y-99128174D01*
X137822120Y-99128174D01*
X137914175Y-99181322D01*
X137914179Y-99181324D01*
X138016846Y-99208833D01*
X138016850Y-99208833D01*
X138016852Y-99208834D01*
X138016854Y-99208834D01*
X138055857Y-99208834D01*
X138114988Y-99228047D01*
X138151533Y-99278347D01*
X138153029Y-99283398D01*
X138173808Y-99360952D01*
X138173811Y-99360958D01*
X138226959Y-99453012D01*
X138302121Y-99528174D01*
X138302120Y-99528174D01*
X138394175Y-99581322D01*
X138394179Y-99581324D01*
X138496846Y-99608833D01*
X138496850Y-99608833D01*
X138496852Y-99608834D01*
X138496854Y-99608834D01*
X138603146Y-99608834D01*
X138603148Y-99608834D01*
X138603150Y-99608833D01*
X138603153Y-99608833D01*
X138705820Y-99581324D01*
X138705820Y-99581323D01*
X138705823Y-99581323D01*
X138797878Y-99528175D01*
X138873041Y-99453012D01*
X138926189Y-99360957D01*
X138926189Y-99360954D01*
X138926191Y-99360952D01*
X138946971Y-99283398D01*
X138948467Y-99281094D01*
X138948467Y-99278347D01*
X138965268Y-99255221D01*
X138980833Y-99231254D01*
X138983397Y-99230269D01*
X138985012Y-99228047D01*
X139012196Y-99219214D01*
X139038877Y-99208972D01*
X139044143Y-99208834D01*
X139115857Y-99208834D01*
X139174988Y-99228047D01*
X139211533Y-99278347D01*
X139213029Y-99283398D01*
X139233808Y-99360952D01*
X139233811Y-99360958D01*
X139286959Y-99453012D01*
X139362121Y-99528174D01*
X139362120Y-99528174D01*
X139454175Y-99581322D01*
X139454179Y-99581324D01*
X139556846Y-99608833D01*
X139556850Y-99608833D01*
X139556852Y-99608834D01*
X139556854Y-99608834D01*
X139663146Y-99608834D01*
X139663148Y-99608834D01*
X139663150Y-99608833D01*
X139663153Y-99608833D01*
X139765820Y-99581324D01*
X139765820Y-99581323D01*
X139765823Y-99581323D01*
X139857878Y-99528175D01*
X139933041Y-99453012D01*
X139962878Y-99401331D01*
X140009082Y-99359729D01*
X140070916Y-99353230D01*
X140124760Y-99384317D01*
X140137122Y-99401332D01*
X140166959Y-99453012D01*
X140242121Y-99528174D01*
X140242120Y-99528174D01*
X140334175Y-99581322D01*
X140334179Y-99581324D01*
X140436846Y-99608833D01*
X140436850Y-99608833D01*
X140436852Y-99608834D01*
X140436854Y-99608834D01*
X140543146Y-99608834D01*
X140543148Y-99608834D01*
X140543150Y-99608833D01*
X140543153Y-99608833D01*
X140645820Y-99581324D01*
X140645820Y-99581323D01*
X140645823Y-99581323D01*
X140737878Y-99528175D01*
X140813041Y-99453012D01*
X140857878Y-99375351D01*
X140904083Y-99333749D01*
X140965916Y-99327250D01*
X141019761Y-99358338D01*
X141032122Y-99375352D01*
X141076959Y-99453012D01*
X141152121Y-99528174D01*
X141152120Y-99528174D01*
X141244175Y-99581322D01*
X141244179Y-99581324D01*
X141346846Y-99608833D01*
X141346850Y-99608833D01*
X141346852Y-99608834D01*
X141346854Y-99608834D01*
X141453146Y-99608834D01*
X141453148Y-99608834D01*
X141453150Y-99608833D01*
X141453153Y-99608833D01*
X141555820Y-99581324D01*
X141555820Y-99581323D01*
X141555823Y-99581323D01*
X141647878Y-99528175D01*
X141723041Y-99453012D01*
X141776189Y-99360957D01*
X141776190Y-99360954D01*
X141803699Y-99258287D01*
X141803700Y-99258280D01*
X141803700Y-99151987D01*
X141803699Y-99151980D01*
X141776190Y-99049313D01*
X141776188Y-99049309D01*
X141725178Y-98960958D01*
X141723041Y-98957256D01*
X141709365Y-98943580D01*
X141681139Y-98888182D01*
X141679900Y-98872445D01*
X141679900Y-90968150D01*
X141660825Y-90896963D01*
X141623976Y-90833138D01*
X141571862Y-90781024D01*
X139783165Y-88992327D01*
X139754939Y-88936929D01*
X139753700Y-88921192D01*
X139753700Y-88831853D01*
X139753699Y-88831846D01*
X139726190Y-88729179D01*
X139726188Y-88729175D01*
X139689929Y-88666373D01*
X139673041Y-88637122D01*
X139597878Y-88561959D01*
X139597879Y-88561959D01*
X139505824Y-88508811D01*
X139505820Y-88508809D01*
X139403153Y-88481300D01*
X139403148Y-88481300D01*
X139296852Y-88481300D01*
X139296846Y-88481300D01*
X139194179Y-88508809D01*
X139194175Y-88508811D01*
X139102121Y-88561959D01*
X139026961Y-88637119D01*
X139026959Y-88637121D01*
X139026959Y-88637122D01*
X139010071Y-88666373D01*
X138972758Y-88731001D01*
X138926553Y-88772603D01*
X138885636Y-88781300D01*
X138796846Y-88781300D01*
X138694179Y-88808809D01*
X138694175Y-88808811D01*
X138602121Y-88861959D01*
X138526961Y-88937119D01*
X138526959Y-88937121D01*
X138526959Y-88937122D01*
X138495044Y-88992400D01*
X138472758Y-89031001D01*
X138426553Y-89072603D01*
X138385636Y-89081300D01*
X138306846Y-89081300D01*
X138204179Y-89108809D01*
X138204175Y-89108811D01*
X138112121Y-89161959D01*
X138036959Y-89237121D01*
X137983811Y-89329175D01*
X137983809Y-89329180D01*
X137958562Y-89423407D01*
X137947325Y-89440710D01*
X137940089Y-89460035D01*
X137930840Y-89466095D01*
X137924700Y-89475551D01*
X137888225Y-89494325D01*
X137887745Y-89494457D01*
X137834177Y-89508811D01*
X137832601Y-89509720D01*
X137824774Y-89511887D01*
X137799586Y-89510774D01*
X137774449Y-89512751D01*
X137769020Y-89509423D01*
X137762661Y-89509143D01*
X137742939Y-89493439D01*
X137721438Y-89480262D01*
X137715066Y-89471245D01*
X137714022Y-89470414D01*
X137713727Y-89469351D01*
X137710817Y-89465232D01*
X137683041Y-89417122D01*
X137607878Y-89341959D01*
X137607879Y-89341959D01*
X137515824Y-89288811D01*
X137515820Y-89288809D01*
X137413153Y-89261300D01*
X137413148Y-89261300D01*
X137306852Y-89261300D01*
X137306846Y-89261300D01*
X137204179Y-89288809D01*
X137204175Y-89288811D01*
X137112121Y-89341959D01*
X137036960Y-89417120D01*
X137005852Y-89471001D01*
X136993129Y-89482455D01*
X136984214Y-89497069D01*
X136971796Y-89501663D01*
X136959647Y-89512603D01*
X136926819Y-89520974D01*
X136922778Y-89521300D01*
X136846852Y-89521300D01*
X136814149Y-89530062D01*
X136805030Y-89530798D01*
X136783251Y-89525614D01*
X136760887Y-89524442D01*
X136753628Y-89518564D01*
X136744545Y-89516402D01*
X136729970Y-89499404D01*
X136712570Y-89485313D01*
X136709819Y-89480824D01*
X136703195Y-89469351D01*
X136673041Y-89417122D01*
X136597878Y-89341959D01*
X136597879Y-89341959D01*
X136505824Y-89288811D01*
X136505820Y-89288809D01*
X136403153Y-89261300D01*
X136403148Y-89261300D01*
X136296852Y-89261300D01*
X136296846Y-89261300D01*
X136194179Y-89288809D01*
X136194175Y-89288811D01*
X136102121Y-89341959D01*
X136026959Y-89417121D01*
X135973811Y-89509175D01*
X135973809Y-89509179D01*
X135946300Y-89611846D01*
X135946300Y-89631299D01*
X135927087Y-89690430D01*
X135876787Y-89726975D01*
X135875762Y-89727302D01*
X135862994Y-89731300D01*
X135856852Y-89731300D01*
X135754177Y-89758811D01*
X135729334Y-89773153D01*
X135718724Y-89776476D01*
X135698212Y-89776256D01*
X135678144Y-89780522D01*
X135667834Y-89775931D01*
X135656553Y-89775811D01*
X135640087Y-89763576D01*
X135621346Y-89755232D01*
X135617527Y-89751608D01*
X135597878Y-89731959D01*
X135597879Y-89731959D01*
X135505824Y-89678811D01*
X135505820Y-89678809D01*
X135403153Y-89651300D01*
X135403148Y-89651300D01*
X135331464Y-89651300D01*
X135272333Y-89632087D01*
X135235788Y-89581787D01*
X135234292Y-89576737D01*
X135216190Y-89509180D01*
X135216188Y-89509175D01*
X135193195Y-89469351D01*
X135163041Y-89417122D01*
X135087878Y-89341959D01*
X135087879Y-89341959D01*
X134995824Y-89288811D01*
X134995820Y-89288809D01*
X134893153Y-89261300D01*
X134893148Y-89261300D01*
X134786852Y-89261300D01*
X134786846Y-89261300D01*
X134684179Y-89288809D01*
X134684175Y-89288811D01*
X134592121Y-89341959D01*
X134516959Y-89417121D01*
X134463811Y-89509175D01*
X134463808Y-89509181D01*
X134448388Y-89566736D01*
X134446892Y-89569039D01*
X134446892Y-89571787D01*
X134430090Y-89594912D01*
X134414526Y-89618880D01*
X134411961Y-89619864D01*
X134410347Y-89622087D01*
X134383162Y-89630919D01*
X134356482Y-89641162D01*
X134351216Y-89641300D01*
X134338784Y-89641300D01*
X134279653Y-89622087D01*
X134243108Y-89571787D01*
X134241612Y-89566736D01*
X134226191Y-89509181D01*
X134226188Y-89509175D01*
X134203195Y-89469351D01*
X134173041Y-89417122D01*
X134097878Y-89341959D01*
X134097879Y-89341959D01*
X134005824Y-89288811D01*
X134005820Y-89288809D01*
X133903153Y-89261300D01*
X133903148Y-89261300D01*
X133834300Y-89261300D01*
X133775169Y-89242087D01*
X133738624Y-89191787D01*
X133733700Y-89160700D01*
X133733700Y-89141853D01*
X133733699Y-89141846D01*
X133706190Y-89039179D01*
X133706188Y-89039175D01*
X133663271Y-88964841D01*
X133653041Y-88947122D01*
X133577878Y-88871959D01*
X133577879Y-88871959D01*
X133485824Y-88818811D01*
X133485820Y-88818809D01*
X133383153Y-88791300D01*
X133383148Y-88791300D01*
X133341464Y-88791300D01*
X133282333Y-88772087D01*
X133245788Y-88721787D01*
X133244292Y-88716737D01*
X133226190Y-88649180D01*
X133226188Y-88649175D01*
X133205818Y-88613894D01*
X133173041Y-88557122D01*
X133097878Y-88481959D01*
X133097879Y-88481959D01*
X133005824Y-88428811D01*
X133005820Y-88428809D01*
X132903153Y-88401300D01*
X132903148Y-88401300D01*
X132854300Y-88401300D01*
X132795169Y-88382087D01*
X132758624Y-88331787D01*
X132753700Y-88300700D01*
X132753700Y-88281853D01*
X132753699Y-88281846D01*
X132726190Y-88179179D01*
X132726188Y-88179175D01*
X132711947Y-88154509D01*
X132673041Y-88087122D01*
X132597878Y-88011959D01*
X132597879Y-88011959D01*
X132505824Y-87958811D01*
X132505820Y-87958809D01*
X132403153Y-87931300D01*
X132403148Y-87931300D01*
X132346823Y-87931300D01*
X132287692Y-87912087D01*
X132251147Y-87861787D01*
X132249651Y-87856737D01*
X132226190Y-87769180D01*
X132226188Y-87769175D01*
X132203624Y-87730094D01*
X132173041Y-87677122D01*
X132097878Y-87601959D01*
X132097879Y-87601959D01*
X132005824Y-87548811D01*
X132005820Y-87548809D01*
X131903153Y-87521300D01*
X131903148Y-87521300D01*
X131796852Y-87521300D01*
X131796846Y-87521300D01*
X131694179Y-87548809D01*
X131694175Y-87548811D01*
X131602121Y-87601959D01*
X131526959Y-87677121D01*
X131473811Y-87769175D01*
X131473809Y-87769179D01*
X131446300Y-87871846D01*
X119429900Y-87871846D01*
X119429900Y-84802689D01*
X119449113Y-84743558D01*
X119459365Y-84731554D01*
X119473041Y-84717878D01*
X119526189Y-84625823D01*
X119526190Y-84625820D01*
X119553699Y-84523153D01*
X119553700Y-84523146D01*
X119553700Y-84416853D01*
X119553699Y-84416847D01*
X119538986Y-84361937D01*
X119542240Y-84299848D01*
X119581367Y-84251530D01*
X119636158Y-84235300D01*
X137390191Y-84235300D01*
X137390193Y-84235300D01*
X137467841Y-84214494D01*
X137467844Y-84214492D01*
X137489719Y-84201863D01*
X137489720Y-84201862D01*
X137537459Y-84174300D01*
X144994300Y-76717459D01*
X145034494Y-76647842D01*
X145040066Y-76627043D01*
X145040069Y-76627038D01*
X145040068Y-76627038D01*
X145055299Y-76570195D01*
X145055300Y-76570193D01*
X145055300Y-76285147D01*
X145071688Y-76234710D01*
X145069744Y-76233588D01*
X145073041Y-76227878D01*
X145126189Y-76135823D01*
X145128868Y-76125824D01*
X145153699Y-76033153D01*
X145153700Y-76033146D01*
X145153700Y-75926853D01*
X145153699Y-75926846D01*
X145126190Y-75824179D01*
X145126188Y-75824175D01*
X145073040Y-75732121D01*
X144997878Y-75656959D01*
X144997879Y-75656959D01*
X144905824Y-75603811D01*
X144905820Y-75603809D01*
X144803153Y-75576300D01*
X144803148Y-75576300D01*
X144696852Y-75576300D01*
X144696846Y-75576300D01*
X144594179Y-75603809D01*
X144594175Y-75603811D01*
X144502121Y-75656959D01*
X144426959Y-75732121D01*
X144373811Y-75824175D01*
X144373809Y-75824180D01*
X144352036Y-75905442D01*
X144318174Y-75957586D01*
X144260129Y-75979867D01*
X144228828Y-75976577D01*
X144153155Y-75956301D01*
X144153149Y-75956300D01*
X144153148Y-75956300D01*
X144046852Y-75956300D01*
X144046850Y-75956300D01*
X144046844Y-75956301D01*
X143973671Y-75975907D01*
X143911582Y-75972653D01*
X143863264Y-75933525D01*
X143850463Y-75904771D01*
X143826190Y-75814181D01*
X143826189Y-75814177D01*
X143773041Y-75722122D01*
X143697878Y-75646959D01*
X143697879Y-75646959D01*
X143605824Y-75593811D01*
X143605820Y-75593809D01*
X143503153Y-75566300D01*
X143503148Y-75566300D01*
X143396852Y-75566300D01*
X143396846Y-75566300D01*
X143294179Y-75593809D01*
X143294175Y-75593811D01*
X143202121Y-75646959D01*
X143126959Y-75722121D01*
X143073811Y-75814175D01*
X143073809Y-75814179D01*
X143046300Y-75916846D01*
X143046300Y-76023153D01*
X143073809Y-76125820D01*
X143073811Y-76125824D01*
X143126959Y-76217878D01*
X143140635Y-76231554D01*
X143168861Y-76286952D01*
X143170100Y-76302689D01*
X143170100Y-76712392D01*
X143150887Y-76771523D01*
X143140635Y-76783527D01*
X137263527Y-82660635D01*
X137208129Y-82688861D01*
X137192392Y-82690100D01*
X130868871Y-82690100D01*
X130809740Y-82670887D01*
X130773195Y-82620587D01*
X130773195Y-82558413D01*
X130797736Y-82518365D01*
X130813793Y-82502308D01*
X130841461Y-82474640D01*
X130933246Y-82337273D01*
X130996469Y-82184640D01*
X131028700Y-82022605D01*
X131028700Y-81857395D01*
X131003146Y-81728926D01*
X131010454Y-81667183D01*
X131052658Y-81621527D01*
X131101813Y-81608700D01*
X132358742Y-81608700D01*
X132359878Y-81608662D01*
X132372391Y-81608253D01*
X132388838Y-81607175D01*
X132402430Y-81605836D01*
X132509276Y-81591769D01*
X132536049Y-81586444D01*
X132567820Y-81577931D01*
X132593671Y-81569156D01*
X132685542Y-81531102D01*
X132710029Y-81519026D01*
X132738515Y-81502579D01*
X132761211Y-81487414D01*
X132840099Y-81426881D01*
X132860623Y-81408881D01*
X132883881Y-81385623D01*
X132901881Y-81365099D01*
X132962414Y-81286211D01*
X132977579Y-81263515D01*
X132994026Y-81235029D01*
X133006102Y-81210542D01*
X133044156Y-81118671D01*
X133052931Y-81092820D01*
X133061444Y-81061049D01*
X133066769Y-81034276D01*
X133080836Y-80927430D01*
X133082175Y-80913838D01*
X133083253Y-80897391D01*
X133083700Y-80883741D01*
X133083700Y-71865587D01*
X133102913Y-71806456D01*
X133153213Y-71769911D01*
X133203924Y-71766920D01*
X133219910Y-71770100D01*
X163345618Y-71770100D01*
X163404749Y-71789313D01*
X163416753Y-71799565D01*
X169110353Y-77493165D01*
X169138579Y-77548563D01*
X169128853Y-77609971D01*
X169084889Y-77653935D01*
X169039218Y-77664900D01*
X148625090Y-77664900D01*
X145034910Y-77664900D01*
X145005442Y-77670761D01*
X144917037Y-77688346D01*
X144806012Y-77734334D01*
X144708485Y-77799498D01*
X144708486Y-77799499D01*
X144706083Y-77801104D01*
X141300666Y-81206520D01*
X141291300Y-81215885D01*
X141272122Y-81226959D01*
X141196959Y-81302122D01*
X141185885Y-81321300D01*
X141176520Y-81330666D01*
X140851084Y-81656104D01*
X137981753Y-84525435D01*
X137926355Y-84553661D01*
X137910618Y-84554900D01*
X128569910Y-84554900D01*
X128540442Y-84560761D01*
X128452037Y-84578346D01*
X128341012Y-84624334D01*
X128341009Y-84624335D01*
X128241082Y-84691105D01*
X128156105Y-84776082D01*
X128089335Y-84876009D01*
X128089334Y-84876012D01*
X128043346Y-84987037D01*
X128019900Y-85104910D01*
X128019900Y-85225089D01*
X128043346Y-85342962D01*
X128089334Y-85453987D01*
X128089335Y-85453990D01*
X128119464Y-85499081D01*
X128156104Y-85553916D01*
X128241084Y-85638896D01*
X128341009Y-85705664D01*
X128368020Y-85716852D01*
X128452037Y-85751653D01*
X128452038Y-85751653D01*
X128452040Y-85751654D01*
X128569910Y-85775100D01*
X128569911Y-85775100D01*
X138265090Y-85775100D01*
X138382960Y-85751655D01*
X138466980Y-85716852D01*
X138493991Y-85705664D01*
X138593916Y-85638896D01*
X138678896Y-85553916D01*
X140400753Y-83832058D01*
X140456149Y-83803834D01*
X140517557Y-83813560D01*
X140561521Y-83857524D01*
X140571247Y-83918932D01*
X140569059Y-83929230D01*
X140556300Y-83976849D01*
X140556300Y-84083153D01*
X140583809Y-84185820D01*
X140583811Y-84185824D01*
X140636959Y-84277878D01*
X140640635Y-84281554D01*
X140668861Y-84336952D01*
X140670100Y-84352689D01*
X140670100Y-87567311D01*
X140650887Y-87626442D01*
X140640635Y-87638446D01*
X140626959Y-87652121D01*
X140573811Y-87744175D01*
X140573809Y-87744179D01*
X140546300Y-87846846D01*
X140546300Y-87953153D01*
X140573809Y-88055820D01*
X140573811Y-88055824D01*
X140626959Y-88147878D01*
X140702121Y-88223040D01*
X140702120Y-88223040D01*
X140794175Y-88276188D01*
X140794179Y-88276190D01*
X140896846Y-88303699D01*
X140896850Y-88303699D01*
X140896852Y-88303700D01*
X140916192Y-88303700D01*
X140975323Y-88322913D01*
X140987327Y-88333165D01*
X145490635Y-92836473D01*
X145518861Y-92891871D01*
X145520100Y-92907608D01*
X145520100Y-107057311D01*
X145500887Y-107116442D01*
X145490635Y-107128446D01*
X145476959Y-107142121D01*
X145423811Y-107234175D01*
X145423809Y-107234179D01*
X145396300Y-107336846D01*
X145396300Y-107443153D01*
X145423809Y-107545820D01*
X145423811Y-107545824D01*
X145476959Y-107637878D01*
X145552121Y-107713040D01*
X145552120Y-107713040D01*
X145644175Y-107766188D01*
X145644179Y-107766190D01*
X145746846Y-107793699D01*
X145746850Y-107793699D01*
X145746852Y-107793700D01*
X145746854Y-107793700D01*
X145853146Y-107793700D01*
X145853148Y-107793700D01*
X145853150Y-107793699D01*
X145853153Y-107793699D01*
X145955820Y-107766190D01*
X145955820Y-107766189D01*
X145955823Y-107766189D01*
X146047878Y-107713041D01*
X146123041Y-107637878D01*
X146176189Y-107545823D01*
X146185641Y-107510547D01*
X146203699Y-107443153D01*
X146203700Y-107443146D01*
X146203700Y-107336853D01*
X146203699Y-107336846D01*
X146176190Y-107234179D01*
X146176188Y-107234175D01*
X146146960Y-107183551D01*
X146123041Y-107142122D01*
X146109365Y-107128446D01*
X146081139Y-107073048D01*
X146079900Y-107057311D01*
X146079900Y-92713150D01*
X146060825Y-92641963D01*
X146023976Y-92578138D01*
X145971862Y-92526024D01*
X141383165Y-87937327D01*
X141354939Y-87881929D01*
X141353700Y-87866192D01*
X141353700Y-87846853D01*
X141353699Y-87846846D01*
X141326190Y-87744179D01*
X141326188Y-87744175D01*
X141296959Y-87693549D01*
X141273041Y-87652122D01*
X141259365Y-87638446D01*
X141231139Y-87583048D01*
X141229900Y-87567311D01*
X141229900Y-84372689D01*
X141249113Y-84313558D01*
X141259365Y-84301554D01*
X141269900Y-84291019D01*
X141283041Y-84277878D01*
X141336189Y-84185823D01*
X141341549Y-84165820D01*
X141363699Y-84083153D01*
X141363700Y-84083146D01*
X141363700Y-83976853D01*
X141363699Y-83976846D01*
X141336190Y-83874179D01*
X141336188Y-83874175D01*
X141295417Y-83803558D01*
X141283041Y-83782122D01*
X141207878Y-83706959D01*
X141207879Y-83706959D01*
X141115824Y-83653811D01*
X141115820Y-83653809D01*
X141013153Y-83626300D01*
X141013148Y-83626300D01*
X140906852Y-83626300D01*
X140906849Y-83626300D01*
X140859230Y-83639059D01*
X140853786Y-83638773D01*
X140848932Y-83641247D01*
X140823181Y-83637168D01*
X140797141Y-83635803D01*
X140792906Y-83632373D01*
X140787524Y-83631521D01*
X140769088Y-83613085D01*
X140748824Y-83596675D01*
X140747413Y-83591410D01*
X140743560Y-83587557D01*
X140739481Y-83561806D01*
X140732733Y-83536619D01*
X140734686Y-83531530D01*
X140733834Y-83526149D01*
X140745671Y-83502915D01*
X140755016Y-83478575D01*
X140756572Y-83476846D01*
X142846300Y-83476846D01*
X142846300Y-83583153D01*
X142873809Y-83685820D01*
X142873811Y-83685824D01*
X142926959Y-83777878D01*
X142940635Y-83791554D01*
X142968861Y-83846952D01*
X142970100Y-83862689D01*
X142970100Y-85482311D01*
X142950887Y-85541442D01*
X142940635Y-85553446D01*
X142926959Y-85567121D01*
X142873811Y-85659175D01*
X142873809Y-85659179D01*
X142846300Y-85761846D01*
X142846300Y-85868153D01*
X142873809Y-85970820D01*
X142873811Y-85970824D01*
X142926959Y-86062878D01*
X143002121Y-86138040D01*
X143002120Y-86138040D01*
X143094175Y-86191188D01*
X143094179Y-86191190D01*
X143196846Y-86218699D01*
X143196850Y-86218699D01*
X143196852Y-86218700D01*
X143196854Y-86218700D01*
X143303146Y-86218700D01*
X143303148Y-86218700D01*
X143303150Y-86218699D01*
X143303153Y-86218699D01*
X143405820Y-86191190D01*
X143405820Y-86191189D01*
X143405823Y-86191189D01*
X143497878Y-86138041D01*
X143512267Y-86123651D01*
X143567662Y-86095425D01*
X143629071Y-86105150D01*
X143636395Y-86109771D01*
X143636412Y-86109744D01*
X143642121Y-86113040D01*
X143642122Y-86113041D01*
X143644954Y-86114676D01*
X143734175Y-86166188D01*
X143734179Y-86166190D01*
X143836846Y-86193699D01*
X143836850Y-86193699D01*
X143836852Y-86193700D01*
X143836854Y-86193700D01*
X143943146Y-86193700D01*
X143943148Y-86193700D01*
X143943150Y-86193699D01*
X143943153Y-86193699D01*
X144045820Y-86166190D01*
X144045820Y-86166189D01*
X144045823Y-86166189D01*
X144137878Y-86113041D01*
X144213041Y-86037878D01*
X144220764Y-86024501D01*
X144266965Y-85982898D01*
X144328798Y-85976396D01*
X144382644Y-86007481D01*
X144395006Y-86024496D01*
X144396957Y-86027876D01*
X144472121Y-86103040D01*
X144472120Y-86103040D01*
X144564175Y-86156188D01*
X144564179Y-86156190D01*
X144666846Y-86183699D01*
X144666850Y-86183699D01*
X144666852Y-86183700D01*
X144666854Y-86183700D01*
X144773146Y-86183700D01*
X144773148Y-86183700D01*
X144773150Y-86183699D01*
X144773153Y-86183699D01*
X144875820Y-86156190D01*
X144875820Y-86156189D01*
X144875823Y-86156189D01*
X144967878Y-86103041D01*
X144967881Y-86103037D01*
X144973359Y-86099875D01*
X145034175Y-86086948D01*
X145073956Y-86099873D01*
X145154177Y-86146189D01*
X145154179Y-86146190D01*
X145256846Y-86173699D01*
X145256850Y-86173699D01*
X145256852Y-86173700D01*
X145263895Y-86173700D01*
X145323026Y-86192913D01*
X145359571Y-86243213D01*
X145361067Y-86248263D01*
X145373809Y-86295819D01*
X145373811Y-86295824D01*
X145426959Y-86387878D01*
X145502121Y-86463040D01*
X145502120Y-86463040D01*
X145594175Y-86516188D01*
X145594179Y-86516190D01*
X145696846Y-86543699D01*
X145696850Y-86543699D01*
X145696852Y-86543700D01*
X145696854Y-86543700D01*
X145803146Y-86543700D01*
X145803148Y-86543700D01*
X145803150Y-86543699D01*
X145803153Y-86543699D01*
X145905820Y-86516190D01*
X145905820Y-86516189D01*
X145905823Y-86516189D01*
X145997878Y-86463041D01*
X146073041Y-86387878D01*
X146126189Y-86295823D01*
X146126190Y-86295819D01*
X146153699Y-86193153D01*
X146153700Y-86193146D01*
X146153700Y-86173807D01*
X146172913Y-86114676D01*
X146183159Y-86102678D01*
X146273976Y-86011862D01*
X146310825Y-85948037D01*
X146329900Y-85876850D01*
X146329900Y-85803150D01*
X146329900Y-84342689D01*
X146349113Y-84283558D01*
X146359365Y-84271554D01*
X146373041Y-84257878D01*
X146426189Y-84165823D01*
X146426190Y-84165820D01*
X146453699Y-84063153D01*
X146453700Y-84063146D01*
X146453700Y-84015729D01*
X146472913Y-83956598D01*
X146523213Y-83920053D01*
X146580336Y-83918557D01*
X146636852Y-83933700D01*
X146636854Y-83933700D01*
X146743146Y-83933700D01*
X146743148Y-83933700D01*
X146743150Y-83933699D01*
X146743153Y-83933699D01*
X146845820Y-83906190D01*
X146845820Y-83906189D01*
X146845823Y-83906189D01*
X146937878Y-83853041D01*
X147013041Y-83777878D01*
X147066189Y-83685823D01*
X147066190Y-83685820D01*
X147093699Y-83583153D01*
X147093700Y-83583146D01*
X147093700Y-83476853D01*
X147093699Y-83476846D01*
X147066190Y-83374179D01*
X147066188Y-83374175D01*
X147026841Y-83306024D01*
X147013041Y-83282122D01*
X146937878Y-83206959D01*
X146937879Y-83206959D01*
X146845824Y-83153811D01*
X146845820Y-83153809D01*
X146743153Y-83126300D01*
X146743148Y-83126300D01*
X146636852Y-83126300D01*
X146636846Y-83126300D01*
X146534179Y-83153809D01*
X146534175Y-83153811D01*
X146442121Y-83206959D01*
X146428446Y-83220635D01*
X146373048Y-83248861D01*
X146357311Y-83250100D01*
X144566851Y-83250100D01*
X144493150Y-83250100D01*
X144421963Y-83269175D01*
X144421961Y-83269175D01*
X144421961Y-83269176D01*
X144358140Y-83306022D01*
X143826022Y-83838140D01*
X143789176Y-83901961D01*
X143789175Y-83901963D01*
X143784729Y-83918557D01*
X143770100Y-83973149D01*
X143770100Y-85334989D01*
X143763601Y-85354989D01*
X143761403Y-85375906D01*
X143754209Y-85383895D01*
X143750887Y-85394120D01*
X143719801Y-85422110D01*
X143680800Y-85444628D01*
X143619985Y-85457555D01*
X143563186Y-85432267D01*
X143532098Y-85378423D01*
X143529900Y-85357506D01*
X143529900Y-83862689D01*
X143549113Y-83803558D01*
X143559365Y-83791554D01*
X143564895Y-83786024D01*
X143573041Y-83777878D01*
X143626189Y-83685823D01*
X143626190Y-83685820D01*
X143653699Y-83583153D01*
X143653700Y-83583146D01*
X143653700Y-83476853D01*
X143653699Y-83476846D01*
X143626190Y-83374179D01*
X143626188Y-83374175D01*
X143586841Y-83306024D01*
X143573041Y-83282122D01*
X143497878Y-83206959D01*
X143497879Y-83206959D01*
X143405824Y-83153811D01*
X143405820Y-83153809D01*
X143303153Y-83126300D01*
X143303148Y-83126300D01*
X143196852Y-83126300D01*
X143196846Y-83126300D01*
X143094179Y-83153809D01*
X143094175Y-83153811D01*
X143002121Y-83206959D01*
X142926959Y-83282121D01*
X142873811Y-83374175D01*
X142873809Y-83374179D01*
X142846300Y-83476846D01*
X140756572Y-83476846D01*
X140762050Y-83470761D01*
X141713896Y-82518916D01*
X145318247Y-78914565D01*
X145373645Y-78886339D01*
X145389382Y-78885100D01*
X148504910Y-78885100D01*
X170460618Y-78885100D01*
X170519749Y-78904313D01*
X170531753Y-78914565D01*
X196595353Y-104978165D01*
X196623579Y-105033563D01*
X196613853Y-105094971D01*
X196569889Y-105138935D01*
X196524218Y-105149900D01*
X184510700Y-105149900D01*
X184451569Y-105130687D01*
X184415024Y-105080387D01*
X184410100Y-105049300D01*
X184410100Y-101559910D01*
X184386653Y-101442037D01*
X184340665Y-101331012D01*
X184340664Y-101331009D01*
X184307230Y-101280972D01*
X184273896Y-101231084D01*
X184188916Y-101146104D01*
X182318916Y-99276104D01*
X182218990Y-99209336D01*
X182218991Y-99209336D01*
X182218989Y-99209335D01*
X182218986Y-99209334D01*
X182180890Y-99193554D01*
X182107960Y-99163345D01*
X182107956Y-99163344D01*
X182107957Y-99163344D01*
X181990090Y-99139900D01*
X181869910Y-99139900D01*
X181752042Y-99163344D01*
X181641013Y-99209334D01*
X181641010Y-99209335D01*
X181541080Y-99276107D01*
X181456107Y-99361080D01*
X181456104Y-99361083D01*
X181456104Y-99361084D01*
X181440580Y-99384317D01*
X181389335Y-99461010D01*
X181389334Y-99461013D01*
X181343344Y-99572042D01*
X181319900Y-99689910D01*
X181319900Y-99810089D01*
X181343344Y-99927957D01*
X181389334Y-100038986D01*
X181389335Y-100038989D01*
X181389336Y-100038990D01*
X181456104Y-100138916D01*
X181456107Y-100138919D01*
X183160435Y-101843247D01*
X183188661Y-101898645D01*
X183189900Y-101914382D01*
X183189900Y-111955618D01*
X183170687Y-112014749D01*
X183160435Y-112026753D01*
X181456107Y-113731080D01*
X181389335Y-113831010D01*
X181389334Y-113831013D01*
X181343344Y-113942042D01*
X181319900Y-114059910D01*
X181319900Y-114180089D01*
X181343344Y-114297957D01*
X181389334Y-114408986D01*
X181389335Y-114408989D01*
X181389336Y-114408990D01*
X181456104Y-114508916D01*
X181541084Y-114593896D01*
X181641010Y-114660664D01*
X181752040Y-114706655D01*
X181869910Y-114730100D01*
X181990090Y-114730100D01*
X182107960Y-114706655D01*
X182218990Y-114660664D01*
X182318916Y-114593896D01*
X184273896Y-112638916D01*
X184340664Y-112538991D01*
X184386654Y-112427960D01*
X184410100Y-112310090D01*
X184410100Y-106470700D01*
X184429313Y-106411569D01*
X184479613Y-106375024D01*
X184510700Y-106370100D01*
X197529300Y-106370100D01*
X197588431Y-106389313D01*
X197624976Y-106439613D01*
X197629900Y-106470700D01*
X197629900Y-124310089D01*
X197653346Y-124427962D01*
X197699334Y-124538987D01*
X197699335Y-124538990D01*
X197702756Y-124544109D01*
X197719632Y-124603949D01*
X197702756Y-124655891D01*
X197699335Y-124661009D01*
X197699334Y-124661012D01*
X197653346Y-124772037D01*
X197629900Y-124889910D01*
X197629900Y-126945618D01*
X197610687Y-127004749D01*
X197600435Y-127016753D01*
X195806753Y-128810435D01*
X195751355Y-128838661D01*
X195735618Y-128839900D01*
X173354381Y-128839900D01*
X173295250Y-128820687D01*
X173283246Y-128810435D01*
X169622032Y-125149221D01*
X190408675Y-125149221D01*
X190408675Y-125255528D01*
X190436184Y-125358195D01*
X190436186Y-125358199D01*
X190489334Y-125450253D01*
X190563335Y-125524254D01*
X190591561Y-125579652D01*
X190592800Y-125595389D01*
X190592800Y-125804611D01*
X190573587Y-125863742D01*
X190563335Y-125875746D01*
X190536959Y-125902121D01*
X190483811Y-125994175D01*
X190483809Y-125994179D01*
X190456300Y-126096846D01*
X190456300Y-126203153D01*
X190483809Y-126305820D01*
X190483811Y-126305824D01*
X190536959Y-126397878D01*
X190612121Y-126473040D01*
X190612120Y-126473040D01*
X190704175Y-126526188D01*
X190704179Y-126526190D01*
X190806846Y-126553699D01*
X190806850Y-126553699D01*
X190806852Y-126553700D01*
X190806854Y-126553700D01*
X190913146Y-126553700D01*
X190913148Y-126553700D01*
X190913150Y-126553699D01*
X190913153Y-126553699D01*
X191015820Y-126526190D01*
X191015820Y-126526189D01*
X191015823Y-126526189D01*
X191107878Y-126473041D01*
X191183041Y-126397878D01*
X191236189Y-126305823D01*
X191263700Y-126203148D01*
X191263700Y-126096852D01*
X191263699Y-126096850D01*
X191263699Y-126096846D01*
X191236190Y-125994179D01*
X191236188Y-125994175D01*
X191183040Y-125902121D01*
X191156665Y-125875746D01*
X191128439Y-125820348D01*
X191127200Y-125804611D01*
X191127200Y-125491438D01*
X191140677Y-125441140D01*
X191188564Y-125358198D01*
X191216075Y-125255523D01*
X191216075Y-125149227D01*
X191216074Y-125149225D01*
X191216074Y-125149221D01*
X191188565Y-125046554D01*
X191188563Y-125046550D01*
X191135415Y-124954496D01*
X191060253Y-124879334D01*
X191060254Y-124879334D01*
X190968199Y-124826186D01*
X190968195Y-124826184D01*
X190865528Y-124798675D01*
X190865523Y-124798675D01*
X190759227Y-124798675D01*
X190759221Y-124798675D01*
X190656554Y-124826184D01*
X190656550Y-124826186D01*
X190564496Y-124879334D01*
X190489334Y-124954496D01*
X190436186Y-125046550D01*
X190436184Y-125046554D01*
X190408675Y-125149221D01*
X169622032Y-125149221D01*
X162523946Y-118051135D01*
X162495720Y-117995737D01*
X162505446Y-117934329D01*
X162523946Y-117908865D01*
X163613896Y-116818916D01*
X163680664Y-116718990D01*
X163726655Y-116607960D01*
X163750100Y-116490090D01*
X163750100Y-116369910D01*
X163726655Y-116252040D01*
X163680664Y-116141010D01*
X163613896Y-116041084D01*
X163528916Y-115956104D01*
X163446484Y-115901025D01*
X163428989Y-115889335D01*
X163428986Y-115889334D01*
X163383804Y-115870619D01*
X163317960Y-115843345D01*
X163317956Y-115843344D01*
X163317957Y-115843344D01*
X163200090Y-115819900D01*
X163079910Y-115819900D01*
X162962042Y-115843344D01*
X162851013Y-115889334D01*
X162851010Y-115889335D01*
X162751080Y-115956107D01*
X161661135Y-117046053D01*
X161605737Y-117074279D01*
X161544329Y-117064553D01*
X161518865Y-117046053D01*
X159939565Y-115466753D01*
X159911339Y-115411355D01*
X159910100Y-115395618D01*
X159910100Y-109779910D01*
X159886653Y-109662037D01*
X159840665Y-109551012D01*
X159840664Y-109551009D01*
X159773896Y-109451084D01*
X159688916Y-109366104D01*
X159638953Y-109332720D01*
X159588990Y-109299335D01*
X159588987Y-109299334D01*
X159477962Y-109253346D01*
X159399380Y-109237715D01*
X159360090Y-109229900D01*
X159239910Y-109229900D01*
X159210442Y-109235761D01*
X159122037Y-109253346D01*
X159011012Y-109299334D01*
X159011009Y-109299335D01*
X158911082Y-109366105D01*
X158826105Y-109451082D01*
X158759335Y-109551009D01*
X158759334Y-109551012D01*
X158713346Y-109662037D01*
X158689900Y-109779910D01*
X158689900Y-115750089D01*
X158713344Y-115867958D01*
X158713344Y-115867960D01*
X158731049Y-115910701D01*
X158759334Y-115978987D01*
X158759338Y-115978995D01*
X158800822Y-116041080D01*
X158809329Y-116053811D01*
X158826104Y-116078916D01*
X160656053Y-117908865D01*
X161116104Y-118368916D01*
X172582586Y-129835397D01*
X172582591Y-129835403D01*
X172586104Y-129838916D01*
X172671084Y-129923896D01*
X172771009Y-129990664D01*
X172816997Y-130009712D01*
X172816999Y-130009713D01*
X172817000Y-130009713D01*
X172882041Y-130036655D01*
X172999910Y-130060101D01*
X172999911Y-130060101D01*
X173125049Y-130060101D01*
X173125069Y-130060100D01*
X196090090Y-130060100D01*
X196207960Y-130036655D01*
X196286470Y-130004134D01*
X196318991Y-129990664D01*
X196418916Y-129923896D01*
X196503896Y-129838916D01*
X198713896Y-127628916D01*
X198780664Y-127528991D01*
X198794134Y-127496470D01*
X198826655Y-127417960D01*
X198850100Y-127300090D01*
X198850100Y-127179910D01*
X198850100Y-126506740D01*
X202882469Y-126506740D01*
X203025509Y-126565989D01*
X203025506Y-126565989D01*
X203187445Y-126598200D01*
X203352555Y-126598200D01*
X203514491Y-126565989D01*
X203657529Y-126506739D01*
X203270000Y-126119210D01*
X202882469Y-126506740D01*
X198850100Y-126506740D01*
X198850100Y-125677444D01*
X202431800Y-125677444D01*
X202431800Y-125842555D01*
X202464011Y-126004494D01*
X202523259Y-126147529D01*
X202910789Y-125760000D01*
X202910789Y-125759999D01*
X202870662Y-125719872D01*
X202965200Y-125719872D01*
X202965200Y-125800128D01*
X202985972Y-125877648D01*
X203026099Y-125947152D01*
X203082848Y-126003901D01*
X203152352Y-126044028D01*
X203229872Y-126064800D01*
X203310128Y-126064800D01*
X203387648Y-126044028D01*
X203457152Y-126003901D01*
X203513901Y-125947152D01*
X203554028Y-125877648D01*
X203574800Y-125800128D01*
X203574800Y-125759999D01*
X203629210Y-125759999D01*
X203629210Y-125760000D01*
X204016739Y-126147529D01*
X204075989Y-126004491D01*
X204108200Y-125842555D01*
X204108200Y-125677444D01*
X204075989Y-125515508D01*
X204016740Y-125372469D01*
X203629210Y-125759999D01*
X203574800Y-125759999D01*
X203574800Y-125719872D01*
X203554028Y-125642352D01*
X203513901Y-125572848D01*
X203457152Y-125516099D01*
X203387648Y-125475972D01*
X203310128Y-125455200D01*
X203229872Y-125455200D01*
X203152352Y-125475972D01*
X203082848Y-125516099D01*
X203026099Y-125572848D01*
X202985972Y-125642352D01*
X202965200Y-125719872D01*
X202870662Y-125719872D01*
X202523258Y-125372468D01*
X202464011Y-125515503D01*
X202431800Y-125677444D01*
X198850100Y-125677444D01*
X198850100Y-125013258D01*
X202882468Y-125013258D01*
X203269999Y-125400789D01*
X203657529Y-125013259D01*
X203514494Y-124954011D01*
X203352555Y-124921800D01*
X203187445Y-124921800D01*
X203025503Y-124954011D01*
X202882468Y-125013258D01*
X198850100Y-125013258D01*
X198850100Y-124889910D01*
X198826654Y-124772040D01*
X198826653Y-124772037D01*
X198780667Y-124661015D01*
X198780665Y-124661012D01*
X198780664Y-124661009D01*
X198777245Y-124655892D01*
X198760366Y-124596056D01*
X198777245Y-124544107D01*
X198780664Y-124538991D01*
X198826654Y-124427960D01*
X198850100Y-124310090D01*
X198850100Y-122657395D01*
X202351300Y-122657395D01*
X202351300Y-122822604D01*
X202383531Y-122984642D01*
X202446752Y-123137268D01*
X202446756Y-123137277D01*
X202483668Y-123192519D01*
X202538539Y-123274640D01*
X202655360Y-123391461D01*
X202746109Y-123452097D01*
X202792722Y-123483243D01*
X202792723Y-123483243D01*
X202792727Y-123483246D01*
X202904185Y-123529413D01*
X202945357Y-123546468D01*
X202945358Y-123546468D01*
X202945360Y-123546469D01*
X203107395Y-123578700D01*
X203107396Y-123578700D01*
X203272604Y-123578700D01*
X203272605Y-123578700D01*
X203434640Y-123546469D01*
X203587273Y-123483246D01*
X203724640Y-123391461D01*
X203841461Y-123274640D01*
X203933246Y-123137273D01*
X203996469Y-122984640D01*
X204028700Y-122822605D01*
X204028700Y-122657395D01*
X203996469Y-122495360D01*
X203933246Y-122342727D01*
X203841461Y-122205360D01*
X203724640Y-122088539D01*
X203679265Y-122058220D01*
X203587277Y-121996756D01*
X203587268Y-121996752D01*
X203434642Y-121933531D01*
X203326616Y-121912043D01*
X203272605Y-121901300D01*
X203107395Y-121901300D01*
X203066886Y-121909357D01*
X202945357Y-121933531D01*
X202792731Y-121996752D01*
X202792722Y-121996756D01*
X202682608Y-122070332D01*
X202655360Y-122088539D01*
X202655359Y-122088540D01*
X202655358Y-122088540D01*
X202538540Y-122205358D01*
X202538540Y-122205359D01*
X202446756Y-122342722D01*
X202446752Y-122342731D01*
X202383531Y-122495357D01*
X202351300Y-122657395D01*
X198850100Y-122657395D01*
X198850100Y-105699910D01*
X198837195Y-105635032D01*
X198826655Y-105582040D01*
X198794134Y-105503529D01*
X198780664Y-105471009D01*
X198713896Y-105371084D01*
X198628916Y-105286104D01*
X171143916Y-77801104D01*
X164028916Y-70686104D01*
X164028914Y-70686102D01*
X163987356Y-70658334D01*
X163987350Y-70658330D01*
X163984311Y-70656300D01*
X163928991Y-70619336D01*
X163896470Y-70605865D01*
X163890722Y-70603484D01*
X163817959Y-70573344D01*
X163700090Y-70549900D01*
X133990700Y-70549900D01*
X133931569Y-70530687D01*
X133895024Y-70480387D01*
X133890100Y-70449300D01*
X133890100Y-69659910D01*
X133883485Y-69626654D01*
X133883485Y-69626653D01*
X133866655Y-69542042D01*
X133866655Y-69542040D01*
X133822555Y-69435575D01*
X133821217Y-69431837D01*
X133753897Y-69331085D01*
X132988914Y-68566102D01*
X132888988Y-68499334D01*
X132870652Y-68491739D01*
X132856470Y-68485865D01*
X132823949Y-68472394D01*
X132777959Y-68453344D01*
X132660090Y-68429900D01*
X117520090Y-68429900D01*
X117399910Y-68429900D01*
X117282038Y-68453345D01*
X117203530Y-68485863D01*
X117203531Y-68485864D01*
X117171011Y-68499335D01*
X117171003Y-68499339D01*
X117071085Y-68566102D01*
X117071084Y-68566104D01*
X115126104Y-70511084D01*
X115126102Y-70511085D01*
X115058780Y-70611840D01*
X115057444Y-70615575D01*
X115013344Y-70722042D01*
X114992607Y-70826300D01*
X114989900Y-70839909D01*
X114989900Y-71814691D01*
X114970687Y-71873822D01*
X114920387Y-71910367D01*
X114858213Y-71910367D01*
X114818166Y-71885827D01*
X114797926Y-71865587D01*
X114769279Y-71836940D01*
X114769276Y-71836938D01*
X114654424Y-71770628D01*
X114654421Y-71770627D01*
X114620099Y-71761430D01*
X114526315Y-71736300D01*
X114526313Y-71736300D01*
X114393687Y-71736300D01*
X114393684Y-71736300D01*
X114265575Y-71770628D01*
X114150723Y-71836938D01*
X114150722Y-71836939D01*
X114150721Y-71836940D01*
X114056940Y-71930721D01*
X114056939Y-71930722D01*
X114056938Y-71930723D01*
X113990628Y-72045575D01*
X113956300Y-72173684D01*
X99700500Y-72173684D01*
X99700500Y-59960118D01*
X99669976Y-59886426D01*
X99613574Y-59830024D01*
X99613573Y-59830023D01*
X99570405Y-59812142D01*
X99539882Y-59799500D01*
X87039882Y-59799500D01*
X86960118Y-59799500D01*
X86938534Y-59808439D01*
X86886426Y-59830023D01*
X86830023Y-59886426D01*
X86799500Y-59960118D01*
X85200500Y-59960118D01*
X85200500Y-53334124D01*
X92046300Y-53334124D01*
X92046300Y-53665876D01*
X92083445Y-53995543D01*
X92157266Y-54318977D01*
X92266837Y-54632113D01*
X92410779Y-54931012D01*
X92587282Y-55211915D01*
X92794127Y-55471289D01*
X93028711Y-55705873D01*
X93288085Y-55912718D01*
X93568988Y-56089221D01*
X93867887Y-56233163D01*
X94181023Y-56342734D01*
X94504457Y-56416555D01*
X94834124Y-56453700D01*
X95165876Y-56453700D01*
X95495543Y-56416555D01*
X95818977Y-56342734D01*
X96132113Y-56233163D01*
X96431012Y-56089221D01*
X96711915Y-55912718D01*
X96971289Y-55705873D01*
X97205873Y-55471289D01*
X97412718Y-55211915D01*
X97589221Y-54931012D01*
X97733163Y-54632113D01*
X97842734Y-54318977D01*
X97916555Y-53995543D01*
X97953700Y-53665876D01*
X97953700Y-53334124D01*
X208046300Y-53334124D01*
X208046300Y-53665876D01*
X208083445Y-53995543D01*
X208157266Y-54318977D01*
X208266837Y-54632113D01*
X208410779Y-54931012D01*
X208587282Y-55211915D01*
X208794127Y-55471289D01*
X209028711Y-55705873D01*
X209288085Y-55912718D01*
X209568988Y-56089221D01*
X209867887Y-56233163D01*
X210181023Y-56342734D01*
X210504457Y-56416555D01*
X210834124Y-56453700D01*
X211165876Y-56453700D01*
X211495543Y-56416555D01*
X211818977Y-56342734D01*
X212132113Y-56233163D01*
X212431012Y-56089221D01*
X212711915Y-55912718D01*
X212971289Y-55705873D01*
X213205873Y-55471289D01*
X213412718Y-55211915D01*
X213589221Y-54931012D01*
X213733163Y-54632113D01*
X213842734Y-54318977D01*
X213916555Y-53995543D01*
X213953700Y-53665876D01*
X213953700Y-53334124D01*
X213916555Y-53004457D01*
X213842734Y-52681023D01*
X213733163Y-52367887D01*
X213589221Y-52068988D01*
X213412718Y-51788085D01*
X213205873Y-51528711D01*
X212971289Y-51294127D01*
X212711915Y-51087282D01*
X212711914Y-51087281D01*
X212579299Y-51003954D01*
X212431012Y-50910779D01*
X212132113Y-50766837D01*
X211818977Y-50657266D01*
X211818976Y-50657265D01*
X211818974Y-50657265D01*
X211495552Y-50583447D01*
X211495550Y-50583446D01*
X211495543Y-50583445D01*
X211495536Y-50583444D01*
X211495535Y-50583444D01*
X211165876Y-50546300D01*
X210834124Y-50546300D01*
X210504464Y-50583444D01*
X210504460Y-50583444D01*
X210504457Y-50583445D01*
X210504452Y-50583446D01*
X210504447Y-50583447D01*
X210181025Y-50657265D01*
X210024455Y-50712051D01*
X209867887Y-50766837D01*
X209867885Y-50766838D01*
X209568990Y-50910778D01*
X209288085Y-51087281D01*
X209288081Y-51087284D01*
X209028715Y-51294123D01*
X209028707Y-51294130D01*
X208794130Y-51528707D01*
X208794123Y-51528715D01*
X208587284Y-51788081D01*
X208587281Y-51788085D01*
X208410778Y-52068990D01*
X208266838Y-52367885D01*
X208157265Y-52681025D01*
X208083447Y-53004447D01*
X208083445Y-53004457D01*
X208046300Y-53334124D01*
X97953700Y-53334124D01*
X97916555Y-53004457D01*
X97842734Y-52681023D01*
X97733163Y-52367887D01*
X97589221Y-52068988D01*
X97412718Y-51788085D01*
X97205873Y-51528711D01*
X96971289Y-51294127D01*
X96711915Y-51087282D01*
X96711914Y-51087281D01*
X96579299Y-51003954D01*
X96431012Y-50910779D01*
X96132113Y-50766837D01*
X95818977Y-50657266D01*
X95818976Y-50657265D01*
X95818974Y-50657265D01*
X95495552Y-50583447D01*
X95495550Y-50583446D01*
X95495543Y-50583445D01*
X95495536Y-50583444D01*
X95495535Y-50583444D01*
X95165876Y-50546300D01*
X94834124Y-50546300D01*
X94504464Y-50583444D01*
X94504460Y-50583444D01*
X94504457Y-50583445D01*
X94504452Y-50583446D01*
X94504447Y-50583447D01*
X94181025Y-50657265D01*
X94024455Y-50712051D01*
X93867887Y-50766837D01*
X93867885Y-50766838D01*
X93568990Y-50910778D01*
X93288085Y-51087281D01*
X93288081Y-51087284D01*
X93028715Y-51294123D01*
X93028707Y-51294130D01*
X92794130Y-51528707D01*
X92794123Y-51528715D01*
X92587284Y-51788081D01*
X92587281Y-51788085D01*
X92410778Y-52068990D01*
X92266838Y-52367885D01*
X92157265Y-52681025D01*
X92083447Y-53004447D01*
X92083445Y-53004457D01*
X92046300Y-53334124D01*
X85200500Y-53334124D01*
X85200500Y-51003954D01*
X85200810Y-50996061D01*
X85215878Y-50804604D01*
X85218345Y-50789023D01*
X85262258Y-50606112D01*
X85267127Y-50591128D01*
X85339109Y-50417349D01*
X85346268Y-50403298D01*
X85444547Y-50242921D01*
X85453825Y-50230152D01*
X85494136Y-50182954D01*
X85575974Y-50087133D01*
X85587131Y-50075977D01*
X85701462Y-49978328D01*
X85730156Y-49953820D01*
X85742911Y-49944552D01*
X85903296Y-49846269D01*
X85917347Y-49839110D01*
X86091126Y-49767128D01*
X86106118Y-49762257D01*
X86289010Y-49718347D01*
X86304600Y-49715878D01*
X86496058Y-49700809D01*
X86503951Y-49700500D01*
X86539879Y-49700500D01*
X219450543Y-49700500D01*
X219450563Y-49700502D01*
G37*
%TD.AperFunction*%
M02*
