%TF.GenerationSoftware,KiCad,Pcbnew,9.0.5-9.0.5~ubuntu24.04.1*%
%TF.CreationDate,2025-10-11T09:36:07+02:00*%
%TF.ProjectId,BB3plus DVID TFT display,42423370-6c75-4732-9044-564944205446,r1B1*%
%TF.SameCoordinates,Original*%
%TF.FileFunction,Copper,L1,Top*%
%TF.FilePolarity,Positive*%
%FSLAX46Y46*%
G04 Gerber Fmt 4.6, Leading zero omitted, Abs format (unit mm)*
G04 Created by KiCad (PCBNEW 9.0.5-9.0.5~ubuntu24.04.1) date 2025-10-11 09:36:07*
%MOMM*%
%LPD*%
G01*
G04 APERTURE LIST*
%TA.AperFunction,ComponentPad*%
%ADD10C,5.500000*%
%TD*%
%TA.AperFunction,ComponentPad*%
%ADD11C,1.270000*%
%TD*%
%TA.AperFunction,ViaPad*%
%ADD12C,0.400000*%
%TD*%
%TA.AperFunction,ViaPad*%
%ADD13C,0.600000*%
%TD*%
%TA.AperFunction,Conductor*%
%ADD14C,0.812800*%
%TD*%
%TA.AperFunction,Conductor*%
%ADD15C,0.152400*%
%TD*%
%TA.AperFunction,Conductor*%
%ADD16C,0.203200*%
%TD*%
%TA.AperFunction,Conductor*%
%ADD17C,0.254000*%
%TD*%
%TA.AperFunction,Conductor*%
%ADD18C,0.127000*%
%TD*%
G04 APERTURE END LIST*
D10*
X208000000Y-53500000D03*
X208000000Y-137500000D03*
X98000000Y-137500000D03*
X98000000Y-53500000D03*
D11*
X147000000Y-80000000D03*
X203270000Y-125760000D03*
X203190000Y-122740000D03*
D12*
X181470000Y-121530000D03*
X172630000Y-104915000D03*
X161290000Y-109790000D03*
X191390000Y-125740000D03*
X169830000Y-105645000D03*
X193350000Y-123650000D03*
D13*
X113680000Y-80510000D03*
D12*
X171230000Y-105625000D03*
X181470000Y-125230000D03*
X171960000Y-104165000D03*
X171500000Y-116330000D03*
X164780000Y-116310000D03*
D13*
X90760000Y-93790000D03*
D12*
X190350000Y-123650000D03*
X196360000Y-123650000D03*
X170530000Y-104905000D03*
X181470000Y-119920000D03*
D13*
X117570000Y-72230000D03*
D12*
X194840000Y-123650000D03*
X172630000Y-105640000D03*
X171260000Y-104155000D03*
X171230000Y-104900000D03*
X172660000Y-104170000D03*
D13*
X129530000Y-83860000D03*
D12*
X173740000Y-116340000D03*
X190190000Y-125450000D03*
D13*
X128630000Y-72490000D03*
X90760000Y-75850000D03*
D12*
X160910000Y-102210000D03*
X167730000Y-116330000D03*
X171260000Y-93440000D03*
D13*
X116900000Y-86500000D03*
X90760000Y-57840000D03*
X115430000Y-90060000D03*
D12*
X170530000Y-105630000D03*
D13*
X144740000Y-83250000D03*
D12*
X186870000Y-124560000D03*
X188850000Y-123650000D03*
X173650000Y-93420000D03*
D13*
X132350000Y-86130000D03*
X145350000Y-88228600D03*
D12*
X171930000Y-104910000D03*
X169830000Y-104920000D03*
D13*
X122020000Y-74910000D03*
D12*
X166250000Y-93440000D03*
X191840000Y-123650000D03*
D13*
X120870000Y-89400000D03*
D12*
X169860000Y-104175000D03*
D13*
X90760000Y-111850000D03*
D12*
X177090000Y-116350000D03*
X170560000Y-104160000D03*
X171930000Y-105635000D03*
D13*
X198240000Y-124250000D03*
D12*
X127090000Y-71140000D03*
X163140000Y-116430000D03*
D13*
X115800000Y-81130000D03*
D12*
X181930000Y-114120000D03*
X159300000Y-109840000D03*
X181930000Y-99750000D03*
D13*
X132040000Y-83770000D03*
X114460000Y-73530000D03*
X116520000Y-88610000D03*
X198240000Y-124950000D03*
X144780000Y-84780000D03*
X158410000Y-86520000D03*
D12*
X161290000Y-108610000D03*
X171900000Y-95500000D03*
X180600000Y-106300000D03*
X161480000Y-111780000D03*
X161290000Y-108020000D03*
X165700000Y-95300000D03*
X173670000Y-95000000D03*
X161900000Y-101600000D03*
X181160000Y-101800000D03*
X181150000Y-102300000D03*
X177690000Y-114230000D03*
X167750000Y-114750000D03*
X171260000Y-114780000D03*
X178900000Y-116040000D03*
X178910000Y-115530000D03*
X173780000Y-114790000D03*
X138350000Y-91730000D03*
X138350000Y-88470000D03*
X134850000Y-88750000D03*
X134850000Y-92630000D03*
X142850000Y-88740000D03*
X142850000Y-92210000D03*
X139350000Y-88460000D03*
X139360000Y-93420000D03*
X190860000Y-126150000D03*
X190812375Y-125202375D03*
X151566507Y-88037361D03*
X129850000Y-88070000D03*
X138840000Y-92620000D03*
X138840000Y-88750000D03*
X141340000Y-88460000D03*
X141340000Y-90050000D03*
X136340000Y-88450000D03*
X136311934Y-95408066D03*
X143860000Y-92960000D03*
X143850000Y-88720000D03*
X141860000Y-90840000D03*
X141860000Y-88740000D03*
X131820000Y-88070000D03*
X150820828Y-88888348D03*
X137340000Y-90100000D03*
X137315372Y-88469003D03*
X137840000Y-90870000D03*
X137840000Y-88750000D03*
X135340000Y-93460000D03*
X135340000Y-88460000D03*
X144350000Y-93350000D03*
X144340000Y-88430000D03*
X133850000Y-90870000D03*
X133850000Y-88760000D03*
X133350000Y-88460000D03*
X133390000Y-90120000D03*
X130350000Y-87880000D03*
X152260000Y-88008600D03*
X134350000Y-91740000D03*
X134350000Y-88470000D03*
X130850000Y-88060000D03*
X150558961Y-88415094D03*
X140350000Y-94940000D03*
X140350000Y-88440000D03*
X142350000Y-88460000D03*
X142360000Y-91710000D03*
X139850000Y-88730000D03*
X139850000Y-94320000D03*
X135850000Y-88760000D03*
X135850000Y-94460000D03*
X143350000Y-92570000D03*
X143360000Y-88440000D03*
X119010000Y-83030000D03*
X130620000Y-81740000D03*
D13*
X116140000Y-91000000D03*
X120900000Y-88300000D03*
X120200000Y-88800000D03*
X116894121Y-91005649D03*
D12*
X129210000Y-81830000D03*
X118250000Y-81910000D03*
X117650000Y-82320000D03*
X129940000Y-81770000D03*
D13*
X153800000Y-78300000D03*
X149900000Y-84700000D03*
D12*
X127700000Y-76100000D03*
X127660000Y-81821400D03*
D14*
X198240000Y-124250000D02*
X198240000Y-122740000D01*
D15*
X203190000Y-122740000D02*
X198240000Y-122740000D01*
D14*
X183800000Y-114120000D02*
X198220000Y-114120000D01*
X115800000Y-81130000D02*
X115800000Y-84800000D01*
X145780000Y-84780000D02*
X144780000Y-84780000D01*
X181930000Y-114120000D02*
X183800000Y-114120000D01*
X133050000Y-74830000D02*
X129350000Y-71130000D01*
X173060000Y-129450000D02*
X161590000Y-117980000D01*
X132100000Y-84780000D02*
X133050000Y-84780000D01*
X198240000Y-122740000D02*
X198240000Y-114140000D01*
X132100000Y-84780000D02*
X115820000Y-84780000D01*
D16*
X114460000Y-76000000D02*
X115800000Y-77340000D01*
D14*
X198220000Y-114120000D02*
X198240000Y-114140000D01*
X198240000Y-114140000D02*
X198240000Y-108500000D01*
X198240000Y-124950000D02*
X198240000Y-127240000D01*
X127100000Y-71130000D02*
X127090000Y-71140000D01*
D16*
X132040000Y-84720000D02*
X132100000Y-84780000D01*
D14*
X198240000Y-127240000D02*
X196030000Y-129450000D01*
X158410000Y-86520000D02*
X147520000Y-86520000D01*
X183800000Y-101620000D02*
X181930000Y-99750000D01*
D16*
X132040000Y-83770000D02*
X132040000Y-84720000D01*
D14*
X176260000Y-86520000D02*
X196895000Y-107155000D01*
X129350000Y-71130000D02*
X127100000Y-71130000D01*
X115800000Y-87890000D02*
X116520000Y-88610000D01*
X133050000Y-84780000D02*
X133050000Y-74830000D01*
X115800000Y-84800000D02*
X115800000Y-87890000D01*
X183800000Y-114120000D02*
X183800000Y-101620000D01*
D16*
X114460000Y-73530000D02*
X114460000Y-76000000D01*
D14*
X196030000Y-129450000D02*
X173060000Y-129450000D01*
X115820000Y-84780000D02*
X115800000Y-84800000D01*
X159300000Y-115690000D02*
X159300000Y-109840000D01*
X198240000Y-108500000D02*
X196895000Y-107155000D01*
X133050000Y-84780000D02*
X144780000Y-84780000D01*
X158410000Y-86520000D02*
X176260000Y-86520000D01*
D16*
X115800000Y-77340000D02*
X115800000Y-81130000D01*
D14*
X163140000Y-116430000D02*
X161590000Y-117980000D01*
X198240000Y-124950000D02*
X198240000Y-124250000D01*
X147520000Y-86520000D02*
X145780000Y-84780000D01*
X161590000Y-117980000D02*
X159300000Y-115690000D01*
D15*
X161710000Y-109030000D02*
X161290000Y-108610000D01*
X161710000Y-110350000D02*
X161480000Y-110580000D01*
X161710000Y-110350000D02*
X161710000Y-109030000D01*
X161480000Y-110580000D02*
X161480000Y-111780000D01*
D17*
X178910000Y-115530000D02*
X178900000Y-115540000D01*
X178900000Y-115580000D02*
X178910000Y-115570000D01*
X178900000Y-115540000D02*
X178900000Y-115580000D01*
X178900000Y-115580000D02*
X178900000Y-115600000D01*
D15*
X138350000Y-91730000D02*
X138350000Y-88470000D01*
X134850000Y-88750000D02*
X134850000Y-92630000D01*
X142850000Y-92210000D02*
X142850000Y-88740000D01*
X139360000Y-88470000D02*
X139350000Y-88460000D01*
X139360000Y-93420000D02*
X139360000Y-88470000D01*
D18*
X190812375Y-125202375D02*
X190860000Y-125250000D01*
X190860000Y-125250000D02*
X190860000Y-126150000D01*
D15*
X130920000Y-86740000D02*
X145890000Y-86740000D01*
X129850000Y-87810000D02*
X130920000Y-86740000D01*
X145890000Y-86740000D02*
X146861200Y-87711200D01*
X146861200Y-87711200D02*
X151240346Y-87711200D01*
X151240346Y-87711200D02*
X151566507Y-88037361D01*
X129850000Y-88070000D02*
X129850000Y-87810000D01*
X138840000Y-92620000D02*
X138840000Y-88750000D01*
X141340000Y-90050000D02*
X141340000Y-88460000D01*
X136340000Y-95380000D02*
X136311934Y-95408066D01*
X136340000Y-88450000D02*
X136340000Y-95380000D01*
X143850000Y-92950000D02*
X143850000Y-88720000D01*
X143860000Y-92960000D02*
X143850000Y-92950000D01*
X141860000Y-90840000D02*
X141860000Y-88740000D01*
X150426083Y-88888348D02*
X150820828Y-88888348D01*
X146504868Y-88570000D02*
X150107735Y-88570000D01*
X131820000Y-88070000D02*
X132311200Y-87578800D01*
X145513668Y-87578800D02*
X146504868Y-88570000D01*
X150107735Y-88570000D02*
X150426083Y-88888348D01*
X132311200Y-87578800D02*
X145513668Y-87578800D01*
X137339003Y-88469003D02*
X137315372Y-88469003D01*
X137340000Y-90100000D02*
X137340000Y-88470000D01*
X137340000Y-88470000D02*
X137339003Y-88469003D01*
X137840000Y-90870000D02*
X137840000Y-88750000D01*
X135340000Y-93460000D02*
X135340000Y-88460000D01*
X144350000Y-93350000D02*
X144350000Y-88440000D01*
X144350000Y-88440000D02*
X144340000Y-88430000D01*
X133850000Y-88760000D02*
X133850000Y-90870000D01*
X133390000Y-90120000D02*
X133345949Y-90075949D01*
X133345949Y-90075949D02*
X133345949Y-88464051D01*
X133345949Y-88464051D02*
X133350000Y-88460000D01*
X152201400Y-88008600D02*
X152260000Y-88008600D01*
X150740600Y-87990600D02*
X151200000Y-88450000D01*
X151200000Y-88450000D02*
X151760000Y-88450000D01*
X151760000Y-88450000D02*
X152201400Y-88008600D01*
X146745469Y-87990600D02*
X150740600Y-87990600D01*
X145774868Y-87020000D02*
X146745469Y-87990600D01*
X131320000Y-87020000D02*
X145774868Y-87020000D01*
X130460000Y-87880000D02*
X131320000Y-87020000D01*
X130350000Y-87880000D02*
X130460000Y-87880000D01*
X134350000Y-88470000D02*
X134350000Y-91740000D01*
X145639400Y-87299400D02*
X146610000Y-88270000D01*
X146610000Y-88270000D02*
X150413867Y-88270000D01*
X130850000Y-87990000D02*
X131540600Y-87299400D01*
X130850000Y-88060000D02*
X130850000Y-87990000D01*
X131540600Y-87299400D02*
X145639400Y-87299400D01*
X150413867Y-88270000D02*
X150558961Y-88415094D01*
X140350000Y-88440000D02*
X140350000Y-94940000D01*
X142360000Y-91710000D02*
X142360000Y-88470000D01*
X142360000Y-88470000D02*
X142350000Y-88460000D01*
X139850000Y-88730000D02*
X139850000Y-94320000D01*
X135850000Y-94460000D02*
X135850000Y-88760000D01*
X143350000Y-88450000D02*
X143360000Y-88440000D01*
X143350000Y-92570000D02*
X143350000Y-88450000D01*
X129330000Y-83030000D02*
X119010000Y-83030000D01*
X130620000Y-81740000D02*
X129330000Y-83030000D01*
D16*
X118905463Y-88200000D02*
X120800000Y-88200000D01*
X120800000Y-88200000D02*
X120900000Y-88300000D01*
X116140000Y-91000000D02*
X116140000Y-90965463D01*
X116140000Y-90965463D02*
X118905463Y-88200000D01*
X116894121Y-91005649D02*
X116894121Y-90805879D01*
X118900000Y-88800000D02*
X120200000Y-88800000D01*
X116894121Y-90805879D02*
X118900000Y-88800000D01*
D15*
X118630000Y-82290000D02*
X118250000Y-81910000D01*
X129210000Y-81830000D02*
X128750000Y-82290000D01*
X128750000Y-82290000D02*
X118630000Y-82290000D01*
X118053868Y-82320000D02*
X117650000Y-82320000D01*
X129390000Y-82320000D02*
X129115132Y-82320000D01*
X118303268Y-82569400D02*
X118053868Y-82320000D01*
X128865731Y-82569400D02*
X118303268Y-82569400D01*
X129115132Y-82320000D02*
X128865731Y-82569400D01*
X129940000Y-81770000D02*
X129390000Y-82320000D01*
D17*
X149900000Y-84700000D02*
X153800000Y-80800000D01*
X153800000Y-80800000D02*
X153800000Y-78300000D01*
D15*
X127700000Y-76100000D02*
X127700000Y-81781400D01*
X127700000Y-81781400D02*
X127660000Y-81821400D01*
%TA.AperFunction,Conductor*%
G36*
X182000000Y-108700000D02*
G01*
X181300000Y-108700000D01*
X181300000Y-112885408D01*
X181299139Y-112898540D01*
X181284418Y-113010349D01*
X181277621Y-113035715D01*
X181237009Y-113133762D01*
X181223879Y-113156505D01*
X181159273Y-113240702D01*
X181140702Y-113259273D01*
X181056505Y-113323879D01*
X181033762Y-113337009D01*
X180935715Y-113377621D01*
X180910349Y-113384418D01*
X180817481Y-113396645D01*
X180798538Y-113399139D01*
X180785409Y-113400000D01*
X178000000Y-113400000D01*
X178000000Y-114085408D01*
X177999139Y-114098539D01*
X177999139Y-114098540D01*
X177984418Y-114210349D01*
X177977621Y-114235715D01*
X177937009Y-114333762D01*
X177923879Y-114356505D01*
X177859273Y-114440702D01*
X177840702Y-114459273D01*
X177756505Y-114523879D01*
X177733762Y-114537009D01*
X177635715Y-114577621D01*
X177610349Y-114584418D01*
X177517481Y-114596645D01*
X177498538Y-114599139D01*
X177485409Y-114600000D01*
X177314591Y-114600000D01*
X177301461Y-114599139D01*
X177279344Y-114596227D01*
X177189650Y-114584418D01*
X177164284Y-114577621D01*
X177066237Y-114537009D01*
X177043494Y-114523879D01*
X177010700Y-114498716D01*
X176959294Y-114459270D01*
X176940729Y-114440705D01*
X176876120Y-114356505D01*
X176862990Y-114333762D01*
X176822378Y-114235715D01*
X176815581Y-114210348D01*
X176800861Y-114098539D01*
X176800000Y-114085408D01*
X176800000Y-112614591D01*
X176800861Y-112601460D01*
X176815581Y-112489651D01*
X176822378Y-112464284D01*
X176862990Y-112366237D01*
X176876118Y-112343497D01*
X176940733Y-112259289D01*
X176959289Y-112240733D01*
X177043497Y-112176118D01*
X177066235Y-112162991D01*
X177164285Y-112122377D01*
X177189649Y-112115581D01*
X177301460Y-112100860D01*
X177314591Y-112100000D01*
X180100000Y-112100000D01*
X180100000Y-108114591D01*
X180100861Y-108101460D01*
X180115581Y-107989651D01*
X180122378Y-107964284D01*
X180162990Y-107866237D01*
X180176118Y-107843497D01*
X180240733Y-107759289D01*
X180259289Y-107740733D01*
X180343497Y-107676118D01*
X180366235Y-107662991D01*
X180464285Y-107622377D01*
X180489649Y-107615581D01*
X180601460Y-107600860D01*
X180614591Y-107600000D01*
X181400000Y-107600000D01*
X182000000Y-107600000D01*
X182000000Y-108700000D01*
G37*
%TD.AperFunction*%
%TA.AperFunction,Conductor*%
G36*
X176098539Y-111100860D02*
G01*
X176210348Y-111115581D01*
X176235715Y-111122378D01*
X176333762Y-111162990D01*
X176356505Y-111176120D01*
X176440705Y-111240729D01*
X176459270Y-111259294D01*
X176498716Y-111310700D01*
X176523879Y-111343494D01*
X176537009Y-111366237D01*
X176577621Y-111464284D01*
X176584418Y-111489650D01*
X176599139Y-111601459D01*
X176600000Y-111614591D01*
X176600000Y-112521642D01*
X176599139Y-112534773D01*
X176593945Y-112574220D01*
X176592609Y-112587782D01*
X176591746Y-112600951D01*
X176591300Y-112614589D01*
X176591300Y-114085409D01*
X176591746Y-114099047D01*
X176592610Y-114112220D01*
X176593944Y-114125772D01*
X176599139Y-114165223D01*
X176600000Y-114178355D01*
X176600000Y-114800000D01*
X177221651Y-114800000D01*
X177234783Y-114800861D01*
X177274209Y-114806052D01*
X177274218Y-114806052D01*
X177274219Y-114806053D01*
X177287805Y-114807392D01*
X177300935Y-114808253D01*
X177312640Y-114808636D01*
X177314589Y-114808700D01*
X177314591Y-114808700D01*
X177485412Y-114808700D01*
X177487819Y-114808621D01*
X177499066Y-114808253D01*
X177512195Y-114807392D01*
X177525780Y-114806053D01*
X177525783Y-114806052D01*
X177525789Y-114806052D01*
X177565215Y-114800861D01*
X177578348Y-114800000D01*
X178100000Y-114800000D01*
X179285409Y-114800000D01*
X179298539Y-114800860D01*
X179410348Y-114815581D01*
X179435715Y-114822378D01*
X179533762Y-114862990D01*
X179556505Y-114876120D01*
X179640705Y-114940729D01*
X179659270Y-114959294D01*
X179698716Y-115010700D01*
X179723879Y-115043494D01*
X179737009Y-115066237D01*
X179777621Y-115164284D01*
X179784418Y-115189650D01*
X179799139Y-115301459D01*
X179800000Y-115314591D01*
X179800000Y-115785408D01*
X179799139Y-115798540D01*
X179784418Y-115910349D01*
X179777621Y-115935715D01*
X179737009Y-116033762D01*
X179723879Y-116056505D01*
X179659273Y-116140702D01*
X179640702Y-116159273D01*
X179556505Y-116223879D01*
X179533762Y-116237009D01*
X179435715Y-116277621D01*
X179410349Y-116284418D01*
X179317481Y-116296645D01*
X179298538Y-116299139D01*
X179285409Y-116300000D01*
X177571737Y-116300000D01*
X177512606Y-116280787D01*
X177476061Y-116230487D01*
X177474570Y-116225457D01*
X177466189Y-116194177D01*
X177460415Y-116184177D01*
X177413040Y-116102121D01*
X177337878Y-116026959D01*
X177337879Y-116026959D01*
X177245824Y-115973811D01*
X177245820Y-115973809D01*
X177143153Y-115946300D01*
X177143148Y-115946300D01*
X177036852Y-115946300D01*
X177036846Y-115946300D01*
X176934179Y-115973809D01*
X176934175Y-115973811D01*
X176842121Y-116026959D01*
X176766959Y-116102121D01*
X176713811Y-116194175D01*
X176709913Y-116208721D01*
X176705434Y-116225437D01*
X176703939Y-116227741D01*
X176703939Y-116230487D01*
X176687146Y-116253599D01*
X176671574Y-116277580D01*
X176669008Y-116278564D01*
X176667394Y-116280787D01*
X176640215Y-116289617D01*
X176613530Y-116299862D01*
X176608263Y-116300000D01*
X176600000Y-116300000D01*
X176406591Y-116300000D01*
X176393460Y-116299139D01*
X176288163Y-116285276D01*
X176262796Y-116278479D01*
X176170815Y-116240379D01*
X176148072Y-116227248D01*
X176063809Y-116162591D01*
X176053915Y-116153915D01*
X175653452Y-115753452D01*
X175644776Y-115743558D01*
X175576121Y-115654085D01*
X175562990Y-115631342D01*
X175522378Y-115533295D01*
X175515581Y-115507928D01*
X175500861Y-115396119D01*
X175500000Y-115382988D01*
X175500000Y-112400000D01*
X174992000Y-112400000D01*
X174908000Y-112400000D01*
X174400000Y-112400000D01*
X174400000Y-114685408D01*
X174399139Y-114698539D01*
X174399139Y-114698540D01*
X174384418Y-114810349D01*
X174377621Y-114835715D01*
X174337009Y-114933762D01*
X174323879Y-114956505D01*
X174259273Y-115040702D01*
X174240702Y-115059273D01*
X174156505Y-115123879D01*
X174133762Y-115137009D01*
X174035715Y-115177621D01*
X174010349Y-115184418D01*
X173917481Y-115196645D01*
X173898538Y-115199139D01*
X173885409Y-115200000D01*
X173714591Y-115200000D01*
X173701461Y-115199139D01*
X173679344Y-115196227D01*
X173589650Y-115184418D01*
X173564284Y-115177621D01*
X173466237Y-115137009D01*
X173443494Y-115123879D01*
X173368373Y-115066237D01*
X173359294Y-115059270D01*
X173340729Y-115040705D01*
X173276120Y-114956505D01*
X173262990Y-114933762D01*
X173222378Y-114835715D01*
X173215581Y-114810348D01*
X173215015Y-114806052D01*
X173200861Y-114698539D01*
X173200000Y-114685408D01*
X173200000Y-112400000D01*
X172692000Y-112400000D01*
X172408000Y-112400000D01*
X171900000Y-112400000D01*
X171900000Y-114685408D01*
X171899139Y-114698539D01*
X171899139Y-114698540D01*
X171884418Y-114810349D01*
X171877621Y-114835715D01*
X171837009Y-114933762D01*
X171823879Y-114956505D01*
X171759273Y-115040702D01*
X171740702Y-115059273D01*
X171656505Y-115123879D01*
X171633762Y-115137009D01*
X171535715Y-115177621D01*
X171510349Y-115184418D01*
X171417481Y-115196645D01*
X171398538Y-115199139D01*
X171385409Y-115200000D01*
X171214591Y-115200000D01*
X171201461Y-115199139D01*
X171179344Y-115196227D01*
X171089650Y-115184418D01*
X171064284Y-115177621D01*
X170966237Y-115137009D01*
X170943494Y-115123879D01*
X170868373Y-115066237D01*
X170859294Y-115059270D01*
X170840729Y-115040705D01*
X170776120Y-114956505D01*
X170762990Y-114933762D01*
X170722378Y-114835715D01*
X170715581Y-114810348D01*
X170715015Y-114806052D01*
X170700861Y-114698539D01*
X170700000Y-114685408D01*
X170700000Y-112400000D01*
X170192000Y-112400000D01*
X168608000Y-112400000D01*
X168100000Y-112400000D01*
X168100000Y-114693409D01*
X168099139Y-114706540D01*
X168099139Y-114706541D01*
X168084691Y-114816279D01*
X168077894Y-114841645D01*
X168038081Y-114937762D01*
X168024950Y-114960505D01*
X167961615Y-115043045D01*
X167943045Y-115061615D01*
X167860505Y-115124950D01*
X167837762Y-115138081D01*
X167741645Y-115177894D01*
X167716278Y-115184691D01*
X167613131Y-115198271D01*
X167586869Y-115198271D01*
X167483721Y-115184691D01*
X167458354Y-115177894D01*
X167362237Y-115138081D01*
X167339494Y-115124950D01*
X167256954Y-115061615D01*
X167238384Y-115043045D01*
X167175049Y-114960505D01*
X167161918Y-114937762D01*
X167122105Y-114841645D01*
X167115308Y-114816278D01*
X167114527Y-114810349D01*
X167100861Y-114706540D01*
X167100000Y-114693409D01*
X167100000Y-111614591D01*
X167100861Y-111601460D01*
X167115581Y-111489651D01*
X167122378Y-111464284D01*
X167162990Y-111366237D01*
X167176118Y-111343497D01*
X167240733Y-111259289D01*
X167259289Y-111240733D01*
X167343497Y-111176118D01*
X167366235Y-111162991D01*
X167464285Y-111122377D01*
X167489649Y-111115581D01*
X167601460Y-111100860D01*
X167614591Y-111100000D01*
X176085409Y-111100000D01*
X176098539Y-111100860D01*
G37*
%TD.AperFunction*%
%TA.AperFunction,Conductor*%
G36*
X171907810Y-95101236D02*
G01*
X172007873Y-95117085D01*
X172037801Y-95126810D01*
X172120916Y-95169159D01*
X172146380Y-95187659D01*
X172212340Y-95253619D01*
X172230840Y-95279083D01*
X172273189Y-95362198D01*
X172282915Y-95392131D01*
X172298761Y-95492176D01*
X172300000Y-95507914D01*
X172300000Y-95900000D01*
X177085409Y-95900000D01*
X177098539Y-95900860D01*
X177210348Y-95915581D01*
X177235715Y-95922378D01*
X177333762Y-95962990D01*
X177356505Y-95976120D01*
X177440705Y-96040729D01*
X177459270Y-96059294D01*
X177498716Y-96110700D01*
X177523879Y-96143494D01*
X177537009Y-96166237D01*
X177577621Y-96264284D01*
X177584418Y-96289650D01*
X177599139Y-96401459D01*
X177600000Y-96414591D01*
X177600000Y-106000000D01*
X180685409Y-106000000D01*
X180698539Y-106000860D01*
X180810348Y-106015581D01*
X180835715Y-106022378D01*
X180933762Y-106062990D01*
X180956505Y-106076120D01*
X181040705Y-106140729D01*
X181059270Y-106159294D01*
X181098716Y-106210700D01*
X181123879Y-106243494D01*
X181137009Y-106266237D01*
X181177621Y-106364284D01*
X181184418Y-106389650D01*
X181199139Y-106501459D01*
X181200000Y-106514591D01*
X181200000Y-106785408D01*
X181199139Y-106798540D01*
X181184418Y-106910349D01*
X181177621Y-106935715D01*
X181137009Y-107033762D01*
X181123879Y-107056505D01*
X181059273Y-107140702D01*
X181040702Y-107159273D01*
X180956505Y-107223879D01*
X180933762Y-107237009D01*
X180835715Y-107277621D01*
X180810349Y-107284418D01*
X180717481Y-107296645D01*
X180698538Y-107299139D01*
X180685409Y-107300000D01*
X176414591Y-107300000D01*
X176401461Y-107299139D01*
X176379344Y-107296227D01*
X176289650Y-107284418D01*
X176264284Y-107277621D01*
X176166237Y-107237009D01*
X176143494Y-107223879D01*
X176110700Y-107198716D01*
X176059294Y-107159270D01*
X176040729Y-107140705D01*
X175976120Y-107056505D01*
X175962990Y-107033762D01*
X175922378Y-106935715D01*
X175915581Y-106910348D01*
X175900861Y-106798539D01*
X175900000Y-106785408D01*
X175900000Y-97500000D01*
X175392000Y-97500000D01*
X164908000Y-97500000D01*
X164400000Y-97500000D01*
X164400000Y-108585408D01*
X164399139Y-108598539D01*
X164399139Y-108598540D01*
X164384418Y-108710349D01*
X164377621Y-108735715D01*
X164337009Y-108833762D01*
X164323879Y-108856505D01*
X164259273Y-108940702D01*
X164240702Y-108959273D01*
X164156505Y-109023879D01*
X164133762Y-109037009D01*
X164035715Y-109077621D01*
X164010349Y-109084418D01*
X163917481Y-109096645D01*
X163898538Y-109099139D01*
X163885409Y-109100000D01*
X161514591Y-109100000D01*
X161501461Y-109099139D01*
X161479344Y-109096227D01*
X161389650Y-109084418D01*
X161364284Y-109077621D01*
X161266237Y-109037009D01*
X161243494Y-109023879D01*
X161210700Y-108998716D01*
X161159294Y-108959270D01*
X161140729Y-108940705D01*
X161076120Y-108856505D01*
X161062990Y-108833762D01*
X161022378Y-108735715D01*
X161015581Y-108710348D01*
X161000861Y-108598539D01*
X161000000Y-108585408D01*
X161000000Y-108114591D01*
X161000861Y-108101460D01*
X161015581Y-107989651D01*
X161022378Y-107964284D01*
X161062990Y-107866237D01*
X161076118Y-107843497D01*
X161140733Y-107759289D01*
X161159289Y-107740733D01*
X161243497Y-107676118D01*
X161266235Y-107662991D01*
X161364285Y-107622377D01*
X161389649Y-107615581D01*
X161501460Y-107600860D01*
X161514591Y-107600000D01*
X162800000Y-107600000D01*
X162800000Y-96414591D01*
X162800861Y-96401460D01*
X162815581Y-96289651D01*
X162815581Y-96289650D01*
X162822378Y-96264284D01*
X162862990Y-96166237D01*
X162876118Y-96143497D01*
X162940733Y-96059289D01*
X162959289Y-96040733D01*
X163043497Y-95976118D01*
X163066235Y-95962991D01*
X163164285Y-95922377D01*
X163189649Y-95915581D01*
X163301460Y-95900860D01*
X163314591Y-95900000D01*
X170800000Y-95900000D01*
X170800000Y-95507914D01*
X170801236Y-95492189D01*
X170817085Y-95392124D01*
X170826810Y-95362198D01*
X170869159Y-95279083D01*
X170887656Y-95253622D01*
X170953622Y-95187656D01*
X170979083Y-95169159D01*
X171062198Y-95126810D01*
X171092124Y-95117085D01*
X171192189Y-95101236D01*
X171207914Y-95100000D01*
X171892086Y-95100000D01*
X171907810Y-95101236D01*
G37*
%TD.AperFunction*%
%TA.AperFunction,Conductor*%
G36*
X179600166Y-93701131D02*
G01*
X179707021Y-93715196D01*
X179738793Y-93723709D01*
X179830665Y-93761761D01*
X179859152Y-93778207D01*
X179938043Y-93838740D01*
X179961302Y-93861999D01*
X180021839Y-93940890D01*
X180038286Y-93969376D01*
X180076341Y-94061246D01*
X180084855Y-94093018D01*
X180098922Y-94199865D01*
X180100000Y-94216312D01*
X180100000Y-101400000D01*
X180983741Y-101400000D01*
X181000187Y-101401078D01*
X181018703Y-101403515D01*
X181107037Y-101415145D01*
X181138799Y-101423655D01*
X181230679Y-101461713D01*
X181259158Y-101478156D01*
X181338053Y-101538694D01*
X181361305Y-101561946D01*
X181421841Y-101640837D01*
X181438288Y-101669323D01*
X181476342Y-101761194D01*
X181484855Y-101792965D01*
X181498922Y-101899811D01*
X181500000Y-101916258D01*
X181500000Y-102283741D01*
X181498922Y-102300188D01*
X181484855Y-102407034D01*
X181476342Y-102438805D01*
X181438288Y-102530676D01*
X181421841Y-102559162D01*
X181361308Y-102638050D01*
X181338050Y-102661308D01*
X181259162Y-102721841D01*
X181230676Y-102738288D01*
X181138805Y-102776342D01*
X181107034Y-102784855D01*
X181000188Y-102798922D01*
X180983741Y-102800000D01*
X180100000Y-102800000D01*
X180100000Y-104400000D01*
X182183741Y-104400000D01*
X182200187Y-104401078D01*
X182218703Y-104403515D01*
X182307037Y-104415145D01*
X182338799Y-104423655D01*
X182430679Y-104461713D01*
X182459158Y-104478156D01*
X182538053Y-104538694D01*
X182561305Y-104561946D01*
X182621841Y-104640837D01*
X182638288Y-104669323D01*
X182676342Y-104761194D01*
X182684855Y-104792965D01*
X182698922Y-104899811D01*
X182700000Y-104916258D01*
X182700000Y-108340082D01*
X182698449Y-108359794D01*
X182685991Y-108438446D01*
X182673809Y-108475937D01*
X182642214Y-108537946D01*
X182619042Y-108569838D01*
X182569838Y-108619042D01*
X182537946Y-108642214D01*
X182475937Y-108673809D01*
X182438446Y-108685991D01*
X182385868Y-108694319D01*
X182359790Y-108698449D01*
X182340083Y-108700000D01*
X182000000Y-108700000D01*
X182000000Y-107600000D01*
X181400000Y-107600000D01*
X181400000Y-106880016D01*
X181401078Y-106863568D01*
X181406053Y-106825783D01*
X181407392Y-106812194D01*
X181408253Y-106799062D01*
X181408700Y-106785408D01*
X181408700Y-106514591D01*
X181408253Y-106500937D01*
X181407392Y-106487805D01*
X181406053Y-106474216D01*
X181401077Y-106436429D01*
X181400000Y-106419982D01*
X181400000Y-105800000D01*
X180892000Y-105800000D01*
X180780023Y-105800000D01*
X180763576Y-105798922D01*
X180725783Y-105793946D01*
X180712178Y-105792605D01*
X180702596Y-105791978D01*
X180699049Y-105791746D01*
X180685409Y-105791300D01*
X180685396Y-105791300D01*
X178350177Y-105791300D01*
X178333730Y-105790222D01*
X178292965Y-105784855D01*
X178261194Y-105776342D01*
X178169323Y-105738288D01*
X178140839Y-105721842D01*
X178061946Y-105661305D01*
X178038694Y-105638053D01*
X177978156Y-105559158D01*
X177961713Y-105530679D01*
X177923655Y-105438799D01*
X177915145Y-105407037D01*
X177901078Y-105300187D01*
X177900000Y-105283741D01*
X177900000Y-95700000D01*
X177392000Y-95700000D01*
X177180023Y-95700000D01*
X177163576Y-95698922D01*
X177125783Y-95693946D01*
X177112178Y-95692605D01*
X177102596Y-95691978D01*
X177099049Y-95691746D01*
X177085409Y-95691300D01*
X177085396Y-95691300D01*
X172634700Y-95691300D01*
X172566579Y-95671298D01*
X172520086Y-95617642D01*
X172508700Y-95565300D01*
X172508700Y-95507916D01*
X172508056Y-95491528D01*
X172506820Y-95475838D01*
X172506817Y-95475796D01*
X172504891Y-95459527D01*
X172489045Y-95359482D01*
X172481400Y-95327638D01*
X172471674Y-95297705D01*
X172465903Y-95283775D01*
X172459146Y-95267459D01*
X172459145Y-95267456D01*
X172416793Y-95184336D01*
X172399695Y-95156433D01*
X172399684Y-95156415D01*
X172399679Y-95156408D01*
X172399672Y-95156397D01*
X172381196Y-95130966D01*
X172381182Y-95130949D01*
X172359929Y-95106065D01*
X172359913Y-95106046D01*
X172359903Y-95106036D01*
X172359891Y-95106023D01*
X172293975Y-95040107D01*
X172293962Y-95040095D01*
X172293953Y-95040086D01*
X172269048Y-95018815D01*
X172269046Y-95018813D01*
X172269032Y-95018802D01*
X172243601Y-95000326D01*
X172243579Y-95000312D01*
X172243572Y-95000308D01*
X172240119Y-94998191D01*
X172215667Y-94983208D01*
X172132550Y-94940858D01*
X172132548Y-94940857D01*
X172102298Y-94928326D01*
X172072370Y-94918601D01*
X172072361Y-94918598D01*
X172072356Y-94918597D01*
X172040526Y-94910956D01*
X172040527Y-94910956D01*
X172040522Y-94910955D01*
X172040519Y-94910954D01*
X172040512Y-94910953D01*
X171940447Y-94895104D01*
X171924159Y-94893177D01*
X171908451Y-94891942D01*
X171892086Y-94891300D01*
X171207914Y-94891300D01*
X171191549Y-94891942D01*
X171175838Y-94893177D01*
X171159551Y-94895104D01*
X171059489Y-94910952D01*
X171059471Y-94910956D01*
X171027618Y-94918602D01*
X170997703Y-94928324D01*
X170967444Y-94940860D01*
X170884331Y-94983208D01*
X170856433Y-95000302D01*
X170856424Y-95000308D01*
X170830959Y-95018807D01*
X170830943Y-95018820D01*
X170806065Y-95040068D01*
X170806027Y-95040103D01*
X170740103Y-95106027D01*
X170740068Y-95106065D01*
X170718820Y-95130943D01*
X170718807Y-95130959D01*
X170700308Y-95156424D01*
X170700302Y-95156433D01*
X170683208Y-95184331D01*
X170640860Y-95267444D01*
X170628324Y-95297703D01*
X170618602Y-95327618D01*
X170610956Y-95359471D01*
X170610952Y-95359489D01*
X170595104Y-95459551D01*
X170593177Y-95475838D01*
X170591942Y-95491549D01*
X170591300Y-95507914D01*
X170591300Y-95565300D01*
X170571298Y-95633421D01*
X170517642Y-95679914D01*
X170465300Y-95691300D01*
X163314591Y-95691300D01*
X163300952Y-95691746D01*
X163299139Y-95691864D01*
X163287822Y-95692605D01*
X163274216Y-95693946D01*
X163236424Y-95698922D01*
X163219977Y-95700000D01*
X162600000Y-95700000D01*
X162600000Y-96319976D01*
X162598922Y-96336422D01*
X162593945Y-96374227D01*
X162592609Y-96387790D01*
X162591747Y-96400926D01*
X162591300Y-96414605D01*
X162591300Y-102149823D01*
X162590222Y-102166271D01*
X162584855Y-102207034D01*
X162576342Y-102238803D01*
X162538288Y-102330675D01*
X162521841Y-102359162D01*
X162461308Y-102438050D01*
X162438050Y-102461308D01*
X162359162Y-102521841D01*
X162330676Y-102538288D01*
X162238805Y-102576342D01*
X162207034Y-102584855D01*
X162100188Y-102598922D01*
X162083741Y-102600000D01*
X161716259Y-102600000D01*
X161699812Y-102598922D01*
X161592965Y-102584855D01*
X161561194Y-102576342D01*
X161469323Y-102538288D01*
X161440839Y-102521842D01*
X161361946Y-102461305D01*
X161338694Y-102438053D01*
X161323256Y-102417933D01*
X161297658Y-102351716D01*
X161301514Y-102308625D01*
X161313700Y-102263148D01*
X161313700Y-102156852D01*
X161286189Y-102054177D01*
X161286187Y-102054174D01*
X161286187Y-102054172D01*
X161233043Y-101962125D01*
X161228013Y-101955570D01*
X161230271Y-101953837D01*
X161202879Y-101903673D01*
X161200000Y-101876890D01*
X161200000Y-94216871D01*
X161201078Y-94200426D01*
X161201785Y-94195048D01*
X161215144Y-94093576D01*
X161223652Y-94061823D01*
X161261712Y-93969932D01*
X161278144Y-93941471D01*
X161338693Y-93862559D01*
X161361940Y-93839313D01*
X161440834Y-93778775D01*
X161469312Y-93762332D01*
X161561184Y-93724274D01*
X161592944Y-93715762D01*
X161699810Y-93701690D01*
X161716232Y-93700613D01*
X165887373Y-93700483D01*
X165955490Y-93720482D01*
X165976464Y-93737383D01*
X166002122Y-93763041D01*
X166002123Y-93763042D01*
X166002125Y-93763043D01*
X166094172Y-93816187D01*
X166094174Y-93816187D01*
X166094177Y-93816189D01*
X166196852Y-93843700D01*
X166196853Y-93843700D01*
X166303146Y-93843700D01*
X166303148Y-93843700D01*
X166405823Y-93816189D01*
X166405826Y-93816187D01*
X166405827Y-93816187D01*
X166470626Y-93778775D01*
X166497878Y-93763041D01*
X166523554Y-93737364D01*
X166585864Y-93703340D01*
X166612639Y-93700460D01*
X170688913Y-93700333D01*
X170897216Y-93700326D01*
X170965333Y-93720324D01*
X170986307Y-93737226D01*
X171012122Y-93763041D01*
X171012123Y-93763042D01*
X171012125Y-93763043D01*
X171104172Y-93816187D01*
X171104174Y-93816187D01*
X171104177Y-93816189D01*
X171206852Y-93843700D01*
X171206853Y-93843700D01*
X171313146Y-93843700D01*
X171313148Y-93843700D01*
X171415823Y-93816189D01*
X171415826Y-93816187D01*
X171415827Y-93816187D01*
X171480626Y-93778775D01*
X171507878Y-93763041D01*
X171533711Y-93737207D01*
X171596021Y-93703183D01*
X171622794Y-93700303D01*
X173307140Y-93700251D01*
X173375257Y-93720250D01*
X173396235Y-93737155D01*
X173402115Y-93743035D01*
X173402120Y-93743039D01*
X173402122Y-93743041D01*
X173402123Y-93743042D01*
X173402125Y-93743043D01*
X173494172Y-93796187D01*
X173494174Y-93796187D01*
X173494177Y-93796189D01*
X173596852Y-93823700D01*
X173596853Y-93823700D01*
X173703146Y-93823700D01*
X173703148Y-93823700D01*
X173805823Y-93796189D01*
X173805826Y-93796187D01*
X173805827Y-93796187D01*
X173851850Y-93769615D01*
X173897878Y-93743041D01*
X173903783Y-93737135D01*
X173966092Y-93703110D01*
X173992868Y-93700229D01*
X179583724Y-93700055D01*
X179600166Y-93701131D01*
G37*
%TD.AperFunction*%
%TA.AperFunction,Conductor*%
G36*
X219448139Y-49700502D02*
G01*
X219460154Y-49700502D01*
X219495109Y-49700502D01*
X219504953Y-49700890D01*
X219693448Y-49715729D01*
X219712957Y-49718819D01*
X219891920Y-49761787D01*
X219891962Y-49761797D01*
X219910764Y-49767906D01*
X220080845Y-49838356D01*
X220098457Y-49847330D01*
X220255422Y-49943517D01*
X220271410Y-49955133D01*
X220298569Y-49978328D01*
X220411394Y-50074687D01*
X220425374Y-50088666D01*
X220544932Y-50228643D01*
X220556553Y-50244637D01*
X220652745Y-50401596D01*
X220661717Y-50419203D01*
X220661722Y-50419212D01*
X220732176Y-50589284D01*
X220738286Y-50608086D01*
X220781269Y-50787081D01*
X220784363Y-50806608D01*
X220799111Y-50993842D01*
X220799500Y-51003736D01*
X220799500Y-139995043D01*
X220799112Y-140004930D01*
X220784278Y-140193401D01*
X220781185Y-140212928D01*
X220738212Y-140391925D01*
X220732102Y-140410729D01*
X220661658Y-140580796D01*
X220652682Y-140598413D01*
X220556496Y-140755375D01*
X220544875Y-140771369D01*
X220544874Y-140771371D01*
X220425328Y-140911341D01*
X220411348Y-140925321D01*
X220271369Y-141044875D01*
X220255373Y-141056497D01*
X220098415Y-141152681D01*
X220080799Y-141161657D01*
X219910729Y-141232103D01*
X219891925Y-141238212D01*
X219712937Y-141281184D01*
X219693408Y-141284278D01*
X219504933Y-141299112D01*
X219495047Y-141299500D01*
X198326500Y-141299500D01*
X198258379Y-141279498D01*
X198211886Y-141225842D01*
X198200500Y-141173500D01*
X198200500Y-137334122D01*
X205046300Y-137334122D01*
X205046300Y-137665877D01*
X205083445Y-137995546D01*
X205121876Y-138163925D01*
X205157266Y-138318977D01*
X205157268Y-138318983D01*
X205157267Y-138318983D01*
X205266830Y-138632095D01*
X205266841Y-138632122D01*
X205410780Y-138931015D01*
X205587284Y-139211918D01*
X205587288Y-139211924D01*
X205794125Y-139471287D01*
X205794134Y-139471297D01*
X206028702Y-139705865D01*
X206028712Y-139705874D01*
X206288075Y-139912711D01*
X206288082Y-139912715D01*
X206288085Y-139912718D01*
X206419105Y-139995043D01*
X206568984Y-140089219D01*
X206568987Y-140089220D01*
X206568988Y-140089221D01*
X206867887Y-140233163D01*
X206867903Y-140233168D01*
X206867904Y-140233169D01*
X207181016Y-140342732D01*
X207181019Y-140342732D01*
X207181023Y-140342734D01*
X207504457Y-140416555D01*
X207738220Y-140442894D01*
X207834122Y-140453700D01*
X207834124Y-140453700D01*
X208165878Y-140453700D01*
X208249601Y-140444266D01*
X208495543Y-140416555D01*
X208818977Y-140342734D01*
X209132113Y-140233163D01*
X209431012Y-140089221D01*
X209711915Y-139912718D01*
X209971289Y-139705873D01*
X210205873Y-139471289D01*
X210412718Y-139211915D01*
X210589221Y-138931012D01*
X210733163Y-138632113D01*
X210842734Y-138318977D01*
X210916555Y-137995543D01*
X210953700Y-137665876D01*
X210953700Y-137334124D01*
X210916555Y-137004457D01*
X210842734Y-136681023D01*
X210733163Y-136367887D01*
X210589221Y-136068988D01*
X210589220Y-136068987D01*
X210589219Y-136068984D01*
X210412715Y-135788081D01*
X210412711Y-135788075D01*
X210205874Y-135528712D01*
X210205865Y-135528702D01*
X209971297Y-135294134D01*
X209971287Y-135294125D01*
X209711924Y-135087288D01*
X209711918Y-135087284D01*
X209431015Y-134910780D01*
X209132122Y-134766841D01*
X209132117Y-134766839D01*
X209132113Y-134766837D01*
X209132107Y-134766834D01*
X209132095Y-134766830D01*
X208818983Y-134657267D01*
X208495546Y-134583445D01*
X208165878Y-134546300D01*
X208165876Y-134546300D01*
X207834124Y-134546300D01*
X207834122Y-134546300D01*
X207504453Y-134583445D01*
X207181016Y-134657267D01*
X206867904Y-134766830D01*
X206867877Y-134766841D01*
X206568984Y-134910780D01*
X206288081Y-135087284D01*
X206288075Y-135087288D01*
X206028712Y-135294125D01*
X206028702Y-135294134D01*
X205794134Y-135528702D01*
X205794125Y-135528712D01*
X205587288Y-135788075D01*
X205587284Y-135788081D01*
X205410780Y-136068984D01*
X205266841Y-136367877D01*
X205266830Y-136367904D01*
X205157267Y-136681016D01*
X205083445Y-137004453D01*
X205046300Y-137334122D01*
X198200500Y-137334122D01*
X198200500Y-135431008D01*
X198200499Y-135431004D01*
X198179206Y-135323958D01*
X198173580Y-135295672D01*
X198120775Y-135168189D01*
X198044114Y-135053458D01*
X198044109Y-135053452D01*
X197946547Y-134955890D01*
X197946541Y-134955885D01*
X197879036Y-134910780D01*
X197831811Y-134879225D01*
X197751421Y-134845926D01*
X197704331Y-134826421D01*
X197704328Y-134826420D01*
X197568995Y-134799500D01*
X197568993Y-134799500D01*
X197539882Y-134799500D01*
X180039882Y-134799500D01*
X180000000Y-134799500D01*
X179931007Y-134799500D01*
X179931004Y-134799500D01*
X179795671Y-134826420D01*
X179795668Y-134826421D01*
X179668189Y-134879225D01*
X179553458Y-134955885D01*
X179553452Y-134955890D01*
X179455890Y-135053452D01*
X179455885Y-135053458D01*
X179379225Y-135168189D01*
X179326421Y-135295668D01*
X179326420Y-135295671D01*
X179299500Y-135431004D01*
X179299500Y-141173500D01*
X179279498Y-141241621D01*
X179225842Y-141288114D01*
X179173500Y-141299500D01*
X86504956Y-141299500D01*
X86495071Y-141299112D01*
X86479664Y-141297899D01*
X86306598Y-141284278D01*
X86287071Y-141281185D01*
X86108074Y-141238212D01*
X86089270Y-141232102D01*
X85919203Y-141161658D01*
X85901586Y-141152682D01*
X85744624Y-141056496D01*
X85728634Y-141044879D01*
X85588654Y-140925324D01*
X85574678Y-140911348D01*
X85455124Y-140771369D01*
X85443502Y-140755373D01*
X85347318Y-140598415D01*
X85338344Y-140580804D01*
X85267893Y-140410719D01*
X85261787Y-140391925D01*
X85254696Y-140362390D01*
X85218814Y-140212933D01*
X85215721Y-140193408D01*
X85215720Y-140193401D01*
X85200888Y-140004930D01*
X85200500Y-139995046D01*
X85200500Y-137334122D01*
X95046300Y-137334122D01*
X95046300Y-137665877D01*
X95083445Y-137995546D01*
X95121876Y-138163925D01*
X95157266Y-138318977D01*
X95157268Y-138318983D01*
X95157267Y-138318983D01*
X95266830Y-138632095D01*
X95266841Y-138632122D01*
X95410780Y-138931015D01*
X95587284Y-139211918D01*
X95587288Y-139211924D01*
X95794125Y-139471287D01*
X95794134Y-139471297D01*
X96028702Y-139705865D01*
X96028712Y-139705874D01*
X96288075Y-139912711D01*
X96288082Y-139912715D01*
X96288085Y-139912718D01*
X96419105Y-139995043D01*
X96568984Y-140089219D01*
X96568987Y-140089220D01*
X96568988Y-140089221D01*
X96867887Y-140233163D01*
X96867903Y-140233168D01*
X96867904Y-140233169D01*
X97181016Y-140342732D01*
X97181019Y-140342732D01*
X97181023Y-140342734D01*
X97504457Y-140416555D01*
X97738220Y-140442894D01*
X97834122Y-140453700D01*
X97834124Y-140453700D01*
X98165878Y-140453700D01*
X98249601Y-140444266D01*
X98495543Y-140416555D01*
X98818977Y-140342734D01*
X99132113Y-140233163D01*
X99431012Y-140089221D01*
X99711915Y-139912718D01*
X99971289Y-139705873D01*
X100205873Y-139471289D01*
X100412718Y-139211915D01*
X100589221Y-138931012D01*
X100733163Y-138632113D01*
X100842734Y-138318977D01*
X100916555Y-137995543D01*
X100953700Y-137665876D01*
X100953700Y-137334124D01*
X100916555Y-137004457D01*
X100842734Y-136681023D01*
X100733163Y-136367887D01*
X100589221Y-136068988D01*
X100589220Y-136068987D01*
X100589219Y-136068984D01*
X100412715Y-135788081D01*
X100412711Y-135788075D01*
X100205874Y-135528712D01*
X100205865Y-135528702D01*
X99971297Y-135294134D01*
X99971287Y-135294125D01*
X99711924Y-135087288D01*
X99711918Y-135087284D01*
X99431015Y-134910780D01*
X99132122Y-134766841D01*
X99132117Y-134766839D01*
X99132113Y-134766837D01*
X99132107Y-134766834D01*
X99132095Y-134766830D01*
X98818983Y-134657267D01*
X98495546Y-134583445D01*
X98165878Y-134546300D01*
X98165876Y-134546300D01*
X97834124Y-134546300D01*
X97834122Y-134546300D01*
X97504453Y-134583445D01*
X97181016Y-134657267D01*
X96867904Y-134766830D01*
X96867877Y-134766841D01*
X96568984Y-134910780D01*
X96288081Y-135087284D01*
X96288075Y-135087288D01*
X96028712Y-135294125D01*
X96028702Y-135294134D01*
X95794134Y-135528702D01*
X95794125Y-135528712D01*
X95587288Y-135788075D01*
X95587284Y-135788081D01*
X95410780Y-136068984D01*
X95266841Y-136367877D01*
X95266830Y-136367904D01*
X95157267Y-136681016D01*
X95083445Y-137004453D01*
X95046300Y-137334122D01*
X85200500Y-137334122D01*
X85200500Y-132136126D01*
X99706085Y-132136126D01*
X99706086Y-132136135D01*
X99706086Y-133983352D01*
X99706112Y-133983625D01*
X99706112Y-134007956D01*
X99706113Y-134007968D01*
X99735908Y-134157776D01*
X99735912Y-134157789D01*
X99794364Y-134298915D01*
X99794756Y-134299501D01*
X99879229Y-134425929D01*
X99987242Y-134533947D01*
X100114253Y-134618818D01*
X100255381Y-134677279D01*
X100405202Y-134707084D01*
X100427033Y-134707084D01*
X100441711Y-134707084D01*
X100441721Y-134707089D01*
X100477503Y-134707085D01*
X100481581Y-134707086D01*
X100521463Y-134707087D01*
X100521465Y-134707086D01*
X100534911Y-134707086D01*
X100534960Y-134707080D01*
X176271209Y-134700504D01*
X176271245Y-134700514D01*
X176323419Y-134700513D01*
X176323419Y-134700514D01*
X176399799Y-134700512D01*
X176549624Y-134670707D01*
X176690755Y-134612245D01*
X176817769Y-134527374D01*
X176925786Y-134419355D01*
X177010654Y-134292338D01*
X177069112Y-134151206D01*
X177098914Y-134001380D01*
X177098914Y-133985266D01*
X177100500Y-133969165D01*
X177100500Y-132030910D01*
X177098900Y-132014665D01*
X177098900Y-131998622D01*
X177098899Y-131998615D01*
X177094758Y-131977800D01*
X177069099Y-131848798D01*
X177010642Y-131707668D01*
X176930170Y-131587231D01*
X176925775Y-131580653D01*
X176817761Y-131472638D01*
X176817760Y-131472637D01*
X176690748Y-131387767D01*
X176690746Y-131387766D01*
X176549622Y-131329307D01*
X176549614Y-131329305D01*
X176399803Y-131299502D01*
X176399792Y-131299501D01*
X176378098Y-131299501D01*
X176378098Y-131299500D01*
X176364871Y-131299500D01*
X176364864Y-131299497D01*
X176328718Y-131299500D01*
X176323420Y-131299500D01*
X176323415Y-131299499D01*
X176283537Y-131299499D01*
X176283536Y-131299499D01*
X176271985Y-131299499D01*
X176271919Y-131299505D01*
X100490256Y-131306084D01*
X100490255Y-131306085D01*
X100481581Y-131306086D01*
X100481569Y-131306086D01*
X100405206Y-131306087D01*
X100405203Y-131306087D01*
X100405202Y-131306088D01*
X100355261Y-131316022D01*
X100255378Y-131335892D01*
X100114245Y-131394354D01*
X99987240Y-131479218D01*
X99987231Y-131479225D01*
X99879225Y-131587231D01*
X99879218Y-131587240D01*
X99794354Y-131714245D01*
X99735892Y-131855378D01*
X99716022Y-131955261D01*
X99707399Y-131998615D01*
X99706088Y-132005203D01*
X99706087Y-132005206D01*
X99706087Y-132030910D01*
X99706087Y-132041701D01*
X99706086Y-132041704D01*
X99706086Y-132068010D01*
X99706086Y-132081580D01*
X99706085Y-132136126D01*
X85200500Y-132136126D01*
X85200500Y-113960117D01*
X86799500Y-113960117D01*
X86799500Y-126639882D01*
X86830023Y-126713573D01*
X86830026Y-126713577D01*
X86886422Y-126769973D01*
X86886426Y-126769976D01*
X86960118Y-126800500D01*
X99539882Y-126800500D01*
X99613574Y-126769976D01*
X99669976Y-126713574D01*
X99700500Y-126639882D01*
X99700500Y-113960118D01*
X99693011Y-113942039D01*
X99669976Y-113886426D01*
X99669973Y-113886422D01*
X99613577Y-113830026D01*
X99613573Y-113830023D01*
X99539882Y-113799500D01*
X87039882Y-113799500D01*
X86960118Y-113799500D01*
X86886426Y-113830023D01*
X86886422Y-113830026D01*
X86830026Y-113886422D01*
X86830023Y-113886426D01*
X86799500Y-113960117D01*
X85200500Y-113960117D01*
X85200500Y-95960117D01*
X86799500Y-95960117D01*
X86799500Y-108639882D01*
X86830023Y-108713573D01*
X86830026Y-108713577D01*
X86886422Y-108769973D01*
X86886426Y-108769976D01*
X86960118Y-108800500D01*
X99539882Y-108800500D01*
X99613574Y-108769976D01*
X99669976Y-108713574D01*
X99700500Y-108639882D01*
X99700500Y-108114605D01*
X160791300Y-108114605D01*
X160791300Y-108585393D01*
X160791747Y-108599072D01*
X160792503Y-108610605D01*
X160792608Y-108612194D01*
X160793946Y-108625780D01*
X160793947Y-108625785D01*
X160808665Y-108737585D01*
X160808666Y-108737592D01*
X160813992Y-108764363D01*
X160814596Y-108766617D01*
X160820785Y-108789715D01*
X160820789Y-108789732D01*
X160829562Y-108815575D01*
X160829567Y-108815588D01*
X160853055Y-108872294D01*
X160870176Y-108913627D01*
X160882248Y-108938108D01*
X160895378Y-108960851D01*
X160906864Y-108978042D01*
X160910542Y-108983547D01*
X160910558Y-108983569D01*
X160975150Y-109067747D01*
X160993161Y-109088284D01*
X161011714Y-109106837D01*
X161032251Y-109124848D01*
X161032255Y-109124851D01*
X161116445Y-109189452D01*
X161139148Y-109204621D01*
X161161891Y-109217751D01*
X161186372Y-109229823D01*
X161284419Y-109270435D01*
X161310267Y-109279209D01*
X161335633Y-109286006D01*
X161335641Y-109286007D01*
X161336710Y-109286294D01*
X161397333Y-109323245D01*
X161428355Y-109387105D01*
X161430100Y-109408001D01*
X161430100Y-110181872D01*
X161421316Y-110211787D01*
X161414688Y-110242257D01*
X161410873Y-110247352D01*
X161410098Y-110249993D01*
X161393195Y-110270967D01*
X161308138Y-110356024D01*
X161282081Y-110382080D01*
X161256025Y-110408136D01*
X161256021Y-110408141D01*
X161219175Y-110471961D01*
X161219174Y-110471963D01*
X161200100Y-110543146D01*
X161200100Y-111436790D01*
X161180098Y-111504911D01*
X161163195Y-111525885D01*
X161156964Y-111532115D01*
X161156956Y-111532125D01*
X161103812Y-111624172D01*
X161103811Y-111624177D01*
X161076300Y-111726852D01*
X161076300Y-111833148D01*
X161100562Y-111923699D01*
X161103812Y-111935827D01*
X161156956Y-112027874D01*
X161156964Y-112027884D01*
X161232115Y-112103035D01*
X161232120Y-112103039D01*
X161232122Y-112103041D01*
X161232123Y-112103042D01*
X161232125Y-112103043D01*
X161324172Y-112156187D01*
X161324174Y-112156187D01*
X161324177Y-112156189D01*
X161426852Y-112183700D01*
X161426853Y-112183700D01*
X161533146Y-112183700D01*
X161533148Y-112183700D01*
X161635823Y-112156189D01*
X161635826Y-112156187D01*
X161635827Y-112156187D01*
X161681850Y-112129615D01*
X161727878Y-112103041D01*
X161803041Y-112027878D01*
X161856189Y-111935823D01*
X161883700Y-111833148D01*
X161883700Y-111726852D01*
X161856189Y-111624177D01*
X161856187Y-111624174D01*
X161856187Y-111624172D01*
X161803043Y-111532125D01*
X161803035Y-111532115D01*
X161796805Y-111525885D01*
X161762779Y-111463573D01*
X161759900Y-111436790D01*
X161759900Y-110748128D01*
X161779902Y-110680007D01*
X161796800Y-110659037D01*
X161933976Y-110521862D01*
X161970825Y-110458038D01*
X161989900Y-110386850D01*
X161989900Y-110313150D01*
X161989900Y-109434700D01*
X162009902Y-109366579D01*
X162063558Y-109320086D01*
X162115900Y-109308700D01*
X163885395Y-109308700D01*
X163885409Y-109308700D01*
X163899066Y-109308253D01*
X163912195Y-109307392D01*
X163925780Y-109306053D01*
X164037591Y-109291332D01*
X164064366Y-109286006D01*
X164089732Y-109279209D01*
X164115580Y-109270435D01*
X164213627Y-109229823D01*
X164238108Y-109217751D01*
X164260851Y-109204621D01*
X164283553Y-109189452D01*
X164367750Y-109124846D01*
X164388275Y-109106846D01*
X164406846Y-109088275D01*
X164424846Y-109067750D01*
X164489452Y-108983553D01*
X164504621Y-108960851D01*
X164517751Y-108938108D01*
X164529823Y-108913627D01*
X164570435Y-108815580D01*
X164579209Y-108789732D01*
X164586006Y-108764366D01*
X164591332Y-108737592D01*
X164606053Y-108625783D01*
X164607392Y-108612194D01*
X164608253Y-108599062D01*
X164608700Y-108585408D01*
X164608700Y-97834700D01*
X164628702Y-97766579D01*
X164682358Y-97720086D01*
X164734700Y-97708700D01*
X175565300Y-97708700D01*
X175633421Y-97728702D01*
X175679914Y-97782358D01*
X175691300Y-97834700D01*
X175691300Y-106785393D01*
X175691747Y-106799072D01*
X175692503Y-106810605D01*
X175692608Y-106812194D01*
X175693946Y-106825780D01*
X175708666Y-106937589D01*
X175713992Y-106964363D01*
X175720789Y-106989730D01*
X175729564Y-107015580D01*
X175770176Y-107113627D01*
X175782248Y-107138108D01*
X175795378Y-107160851D01*
X175806864Y-107178042D01*
X175810542Y-107183547D01*
X175810558Y-107183569D01*
X175875150Y-107267747D01*
X175893161Y-107288284D01*
X175911714Y-107306837D01*
X175932251Y-107324848D01*
X176016429Y-107389440D01*
X176016445Y-107389452D01*
X176039148Y-107404621D01*
X176061891Y-107417751D01*
X176086372Y-107429823D01*
X176184419Y-107470435D01*
X176210267Y-107479209D01*
X176235633Y-107486006D01*
X176262408Y-107491332D01*
X176374219Y-107506053D01*
X176387805Y-107507392D01*
X176400935Y-107508253D01*
X176414591Y-107508700D01*
X179914454Y-107508700D01*
X179982575Y-107528702D01*
X180029068Y-107582358D01*
X180039172Y-107652632D01*
X180014413Y-107711407D01*
X180012601Y-107713769D01*
X180010545Y-107716448D01*
X180010541Y-107716454D01*
X179995387Y-107739133D01*
X179995363Y-107739171D01*
X179982256Y-107761875D01*
X179982253Y-107761881D01*
X179970176Y-107786371D01*
X179929567Y-107884410D01*
X179920790Y-107910264D01*
X179920785Y-107910283D01*
X179913996Y-107935621D01*
X179913987Y-107935658D01*
X179908667Y-107962402D01*
X179908665Y-107962413D01*
X179893945Y-108074227D01*
X179892609Y-108087790D01*
X179891747Y-108100926D01*
X179891300Y-108114605D01*
X179891300Y-111765300D01*
X179871298Y-111833421D01*
X179817642Y-111879914D01*
X179765300Y-111891300D01*
X177314591Y-111891300D01*
X177300952Y-111891746D01*
X177299139Y-111891864D01*
X177287822Y-111892605D01*
X177274216Y-111893946D01*
X177162408Y-111908666D01*
X177135635Y-111913991D01*
X177135624Y-111913994D01*
X177110278Y-111920785D01*
X177084409Y-111929567D01*
X177034514Y-111950235D01*
X176986368Y-111970178D01*
X176986364Y-111970179D01*
X176984464Y-111970967D01*
X176984219Y-111970376D01*
X176916395Y-111979921D01*
X176851903Y-111950235D01*
X176813698Y-111890395D01*
X176808700Y-111855258D01*
X176808700Y-111614605D01*
X176808700Y-111614591D01*
X176808253Y-111600937D01*
X176807392Y-111587805D01*
X176806053Y-111574216D01*
X176791333Y-111462413D01*
X176791332Y-111462406D01*
X176791331Y-111462404D01*
X176791331Y-111462402D01*
X176786006Y-111435633D01*
X176779209Y-111410267D01*
X176770435Y-111384419D01*
X176729823Y-111286372D01*
X176717751Y-111261891D01*
X176704621Y-111239148D01*
X176689452Y-111216445D01*
X176624843Y-111132245D01*
X176606843Y-111111721D01*
X176606837Y-111111714D01*
X176588284Y-111093161D01*
X176574868Y-111081395D01*
X176567754Y-111075156D01*
X176567750Y-111075153D01*
X176567747Y-111075150D01*
X176483569Y-111010558D01*
X176483547Y-111010542D01*
X176478042Y-111006864D01*
X176460851Y-110995378D01*
X176447899Y-110987901D01*
X176438119Y-110982254D01*
X176438114Y-110982251D01*
X176438108Y-110982248D01*
X176413627Y-110970176D01*
X176315588Y-110929567D01*
X176315583Y-110929565D01*
X176315580Y-110929564D01*
X176304140Y-110925680D01*
X176289734Y-110920790D01*
X176289708Y-110920783D01*
X176264364Y-110913992D01*
X176257573Y-110912641D01*
X176237591Y-110908667D01*
X176237582Y-110908665D01*
X176237578Y-110908665D01*
X176125783Y-110893946D01*
X176112178Y-110892605D01*
X176102596Y-110891978D01*
X176099049Y-110891746D01*
X176085409Y-110891300D01*
X167614591Y-110891300D01*
X167600952Y-110891746D01*
X167599139Y-110891864D01*
X167587822Y-110892605D01*
X167574216Y-110893946D01*
X167462408Y-110908666D01*
X167435635Y-110913991D01*
X167435624Y-110913994D01*
X167410278Y-110920785D01*
X167384409Y-110929567D01*
X167286367Y-110970178D01*
X167261896Y-110982245D01*
X167261885Y-110982251D01*
X167239161Y-110995370D01*
X167239157Y-110995372D01*
X167216455Y-111010540D01*
X167216433Y-111010556D01*
X167132262Y-111075143D01*
X167132249Y-111075153D01*
X167111713Y-111093163D01*
X167111689Y-111093185D01*
X167093185Y-111111689D01*
X167093163Y-111111713D01*
X167075153Y-111132249D01*
X167075143Y-111132262D01*
X167010559Y-111216429D01*
X167010541Y-111216454D01*
X166995387Y-111239133D01*
X166995363Y-111239171D01*
X166982256Y-111261875D01*
X166982253Y-111261881D01*
X166970176Y-111286371D01*
X166929567Y-111384410D01*
X166920790Y-111410264D01*
X166920785Y-111410283D01*
X166913996Y-111435621D01*
X166913987Y-111435658D01*
X166908667Y-111462402D01*
X166908665Y-111462413D01*
X166893945Y-111574227D01*
X166892609Y-111587790D01*
X166891747Y-111600926D01*
X166891747Y-111600936D01*
X166891300Y-111614591D01*
X166891300Y-114693409D01*
X166891486Y-114699076D01*
X166891747Y-114707076D01*
X166892608Y-114720204D01*
X166893945Y-114733774D01*
X166908392Y-114843513D01*
X166908393Y-114843521D01*
X166913715Y-114870277D01*
X166913716Y-114870280D01*
X166913719Y-114870293D01*
X166920516Y-114895660D01*
X166920517Y-114895662D01*
X166920524Y-114895685D01*
X166929285Y-114921496D01*
X166929290Y-114921508D01*
X166929291Y-114921511D01*
X166936599Y-114939153D01*
X166969112Y-115017647D01*
X166981170Y-115042095D01*
X166981177Y-115042108D01*
X166981180Y-115042114D01*
X166994311Y-115064857D01*
X166994312Y-115064858D01*
X166994317Y-115064867D01*
X167009467Y-115087541D01*
X167009485Y-115087565D01*
X167066913Y-115162407D01*
X167072811Y-115170093D01*
X167090811Y-115190618D01*
X167090825Y-115190632D01*
X167090836Y-115190644D01*
X167109354Y-115209162D01*
X167109366Y-115209173D01*
X167109381Y-115209188D01*
X167129906Y-115227188D01*
X167129914Y-115227194D01*
X167129927Y-115227204D01*
X167212433Y-115290513D01*
X167212457Y-115290531D01*
X167235131Y-115305681D01*
X167235134Y-115305682D01*
X167235142Y-115305688D01*
X167257885Y-115318819D01*
X167257900Y-115318826D01*
X167257903Y-115318828D01*
X167282351Y-115330886D01*
X167282361Y-115330890D01*
X167282371Y-115330895D01*
X167378488Y-115370708D01*
X167378498Y-115370711D01*
X167378502Y-115370713D01*
X167393649Y-115375854D01*
X167404339Y-115379483D01*
X167422407Y-115384324D01*
X167429697Y-115386278D01*
X167429702Y-115386279D01*
X167429706Y-115386280D01*
X167439034Y-115388135D01*
X167456473Y-115391604D01*
X167456478Y-115391604D01*
X167456480Y-115391605D01*
X167559628Y-115405185D01*
X167586869Y-115406971D01*
X167586884Y-115406971D01*
X167613116Y-115406971D01*
X167613131Y-115406971D01*
X167640373Y-115405185D01*
X167743520Y-115391605D01*
X167770293Y-115386280D01*
X167795660Y-115379483D01*
X167821511Y-115370708D01*
X167917628Y-115330895D01*
X167917642Y-115330887D01*
X167917647Y-115330886D01*
X167929871Y-115324857D01*
X167942114Y-115318819D01*
X167964857Y-115305688D01*
X167987553Y-115290523D01*
X168070093Y-115227188D01*
X168090618Y-115209188D01*
X168109188Y-115190618D01*
X168127188Y-115170093D01*
X168190523Y-115087553D01*
X168205688Y-115064857D01*
X168218819Y-115042114D01*
X168230895Y-115017628D01*
X168270708Y-114921511D01*
X168279482Y-114895662D01*
X168286279Y-114870296D01*
X168291605Y-114843521D01*
X168306053Y-114733783D01*
X168307392Y-114720195D01*
X168308253Y-114707063D01*
X168308700Y-114693409D01*
X168308700Y-112734700D01*
X168328702Y-112666579D01*
X168382358Y-112620086D01*
X168434700Y-112608700D01*
X170365300Y-112608700D01*
X170433421Y-112628702D01*
X170479914Y-112682358D01*
X170491300Y-112734700D01*
X170491300Y-114685393D01*
X170491747Y-114699072D01*
X170492609Y-114712208D01*
X170493396Y-114720195D01*
X170493946Y-114725780D01*
X170494999Y-114733780D01*
X170508665Y-114837585D01*
X170508667Y-114837596D01*
X170509846Y-114843524D01*
X170513992Y-114864363D01*
X170515581Y-114870293D01*
X170520785Y-114889715D01*
X170520790Y-114889734D01*
X170522810Y-114895685D01*
X170529562Y-114915575D01*
X170529567Y-114915588D01*
X170539326Y-114939148D01*
X170570176Y-115013627D01*
X170582248Y-115038108D01*
X170595378Y-115060851D01*
X170606864Y-115078042D01*
X170610542Y-115083547D01*
X170610558Y-115083569D01*
X170675150Y-115167747D01*
X170675153Y-115167750D01*
X170675156Y-115167754D01*
X170677207Y-115170093D01*
X170693161Y-115188284D01*
X170711714Y-115206837D01*
X170732251Y-115224848D01*
X170814302Y-115287808D01*
X170816445Y-115289452D01*
X170839148Y-115304621D01*
X170861891Y-115317751D01*
X170886372Y-115329823D01*
X170984419Y-115370435D01*
X171010267Y-115379209D01*
X171035633Y-115386006D01*
X171062408Y-115391332D01*
X171174219Y-115406053D01*
X171187805Y-115407392D01*
X171200935Y-115408253D01*
X171214591Y-115408700D01*
X171214604Y-115408700D01*
X171385395Y-115408700D01*
X171385409Y-115408700D01*
X171399066Y-115408253D01*
X171412195Y-115407392D01*
X171425780Y-115406053D01*
X171537591Y-115391332D01*
X171564366Y-115386006D01*
X171589732Y-115379209D01*
X171615580Y-115370435D01*
X171713627Y-115329823D01*
X171738108Y-115317751D01*
X171760851Y-115304621D01*
X171771947Y-115297206D01*
X171783534Y-115289465D01*
X171783537Y-115289462D01*
X171783553Y-115289452D01*
X171867750Y-115224846D01*
X171888275Y-115206846D01*
X171906846Y-115188275D01*
X171924846Y-115167750D01*
X171989452Y-115083553D01*
X172004621Y-115060851D01*
X172017751Y-115038108D01*
X172029823Y-115013627D01*
X172070435Y-114915580D01*
X172079209Y-114889732D01*
X172086006Y-114864366D01*
X172091332Y-114837592D01*
X172106053Y-114725783D01*
X172107392Y-114712194D01*
X172108253Y-114699062D01*
X172108700Y-114685408D01*
X172108700Y-112734700D01*
X172128702Y-112666579D01*
X172182358Y-112620086D01*
X172234700Y-112608700D01*
X172865300Y-112608700D01*
X172933421Y-112628702D01*
X172979914Y-112682358D01*
X172991300Y-112734700D01*
X172991300Y-114685393D01*
X172991747Y-114699072D01*
X172992609Y-114712208D01*
X172993396Y-114720195D01*
X172993946Y-114725780D01*
X172994999Y-114733780D01*
X173008665Y-114837585D01*
X173008667Y-114837596D01*
X173009846Y-114843524D01*
X173013992Y-114864363D01*
X173015581Y-114870293D01*
X173020785Y-114889715D01*
X173020790Y-114889734D01*
X173022810Y-114895685D01*
X173029562Y-114915575D01*
X173029567Y-114915588D01*
X173039326Y-114939148D01*
X173070176Y-115013627D01*
X173082248Y-115038108D01*
X173095378Y-115060851D01*
X173106864Y-115078042D01*
X173110542Y-115083547D01*
X173110558Y-115083569D01*
X173175150Y-115167747D01*
X173175153Y-115167750D01*
X173175156Y-115167754D01*
X173177207Y-115170093D01*
X173193161Y-115188284D01*
X173211714Y-115206837D01*
X173232251Y-115224848D01*
X173314302Y-115287808D01*
X173316445Y-115289452D01*
X173339148Y-115304621D01*
X173361891Y-115317751D01*
X173386372Y-115329823D01*
X173484419Y-115370435D01*
X173510267Y-115379209D01*
X173535633Y-115386006D01*
X173562408Y-115391332D01*
X173674219Y-115406053D01*
X173687805Y-115407392D01*
X173700935Y-115408253D01*
X173714591Y-115408700D01*
X173714604Y-115408700D01*
X173885395Y-115408700D01*
X173885409Y-115408700D01*
X173899066Y-115408253D01*
X173912195Y-115407392D01*
X173925780Y-115406053D01*
X174037591Y-115391332D01*
X174064366Y-115386006D01*
X174089732Y-115379209D01*
X174115580Y-115370435D01*
X174213627Y-115329823D01*
X174238108Y-115317751D01*
X174260851Y-115304621D01*
X174271947Y-115297206D01*
X174283534Y-115289465D01*
X174283537Y-115289462D01*
X174283553Y-115289452D01*
X174367750Y-115224846D01*
X174388275Y-115206846D01*
X174406846Y-115188275D01*
X174424846Y-115167750D01*
X174489452Y-115083553D01*
X174504621Y-115060851D01*
X174517751Y-115038108D01*
X174529823Y-115013627D01*
X174570435Y-114915580D01*
X174579209Y-114889732D01*
X174586006Y-114864366D01*
X174591332Y-114837592D01*
X174606053Y-114725783D01*
X174607392Y-114712194D01*
X174608253Y-114699062D01*
X174608700Y-114685408D01*
X174608700Y-112734700D01*
X174628702Y-112666579D01*
X174682358Y-112620086D01*
X174734700Y-112608700D01*
X175165300Y-112608700D01*
X175233421Y-112628702D01*
X175279914Y-112682358D01*
X175291300Y-112734700D01*
X175291300Y-115382973D01*
X175291747Y-115396652D01*
X175292609Y-115409788D01*
X175293945Y-115423351D01*
X175293946Y-115423360D01*
X175308666Y-115535169D01*
X175313992Y-115561943D01*
X175313996Y-115561957D01*
X175320785Y-115587295D01*
X175320790Y-115587314D01*
X175329567Y-115613168D01*
X175370170Y-115711194D01*
X175370171Y-115711196D01*
X175370176Y-115711207D01*
X175382252Y-115735694D01*
X175382253Y-115735695D01*
X175395384Y-115758438D01*
X175395389Y-115758447D01*
X175410539Y-115781121D01*
X175410543Y-115781126D01*
X175410548Y-115781133D01*
X175477177Y-115867966D01*
X175479215Y-115870621D01*
X175487858Y-115881153D01*
X175496539Y-115891053D01*
X175505886Y-115901033D01*
X175906333Y-116301480D01*
X175916313Y-116310827D01*
X175926213Y-116319508D01*
X175928079Y-116321039D01*
X175936761Y-116328164D01*
X176021024Y-116392821D01*
X176021030Y-116392825D01*
X176021035Y-116392829D01*
X176043709Y-116407979D01*
X176043728Y-116407991D01*
X176066452Y-116421111D01*
X176066456Y-116421113D01*
X176066463Y-116421117D01*
X176090949Y-116433192D01*
X176182930Y-116471292D01*
X176182945Y-116471297D01*
X176182952Y-116471300D01*
X176198075Y-116476433D01*
X176208781Y-116480068D01*
X176234148Y-116486865D01*
X176260921Y-116492190D01*
X176327389Y-116500941D01*
X176366209Y-116506052D01*
X176366214Y-116506052D01*
X176366218Y-116506053D01*
X176379805Y-116507392D01*
X176391652Y-116508168D01*
X176392920Y-116508252D01*
X176392921Y-116508252D01*
X176392936Y-116508253D01*
X176406591Y-116508700D01*
X176406605Y-116508700D01*
X176608262Y-116508700D01*
X176608263Y-116508700D01*
X176613729Y-116508628D01*
X176618996Y-116508490D01*
X176688331Y-116494696D01*
X176709892Y-116486418D01*
X176731879Y-116479275D01*
X176766350Y-116464535D01*
X176771378Y-116460139D01*
X176779961Y-116455928D01*
X176814124Y-116422768D01*
X176836276Y-116403403D01*
X176837890Y-116401180D01*
X176837018Y-116400547D01*
X176846609Y-116391239D01*
X176857410Y-116374602D01*
X176861132Y-116369188D01*
X176872777Y-116353163D01*
X176891971Y-116321039D01*
X176892875Y-116317075D01*
X176900542Y-116294015D01*
X176907022Y-116279455D01*
X176907053Y-116279338D01*
X176909077Y-116274777D01*
X176910364Y-116273257D01*
X176915125Y-116262888D01*
X176925672Y-116244619D01*
X176945686Y-116218538D01*
X176958539Y-116205685D01*
X176984625Y-116185668D01*
X177000369Y-116176578D01*
X177030754Y-116163993D01*
X177048303Y-116159292D01*
X177080908Y-116155000D01*
X177099091Y-116155000D01*
X177131692Y-116159291D01*
X177149245Y-116163994D01*
X177179628Y-116176579D01*
X177195369Y-116185667D01*
X177221461Y-116205689D01*
X177221464Y-116205691D01*
X177234307Y-116218534D01*
X177254330Y-116244628D01*
X177258606Y-116252033D01*
X177263830Y-116261082D01*
X177275507Y-116288250D01*
X177275964Y-116289792D01*
X177275965Y-116289794D01*
X177275966Y-116289796D01*
X177275967Y-116289799D01*
X177294884Y-116328151D01*
X177307218Y-116353156D01*
X177343754Y-116403445D01*
X177343773Y-116403469D01*
X177368379Y-116431633D01*
X177368381Y-116431634D01*
X177448114Y-116479272D01*
X177507245Y-116498485D01*
X177571737Y-116508700D01*
X177571740Y-116508700D01*
X179285395Y-116508700D01*
X179285409Y-116508700D01*
X179299066Y-116508253D01*
X179312195Y-116507392D01*
X179325780Y-116506053D01*
X179437591Y-116491332D01*
X179464366Y-116486006D01*
X179489732Y-116479209D01*
X179515580Y-116470435D01*
X179613627Y-116429823D01*
X179638108Y-116417751D01*
X179660851Y-116404621D01*
X179683553Y-116389452D01*
X179767750Y-116324846D01*
X179788275Y-116306846D01*
X179806846Y-116288275D01*
X179824846Y-116267750D01*
X179889452Y-116183553D01*
X179904621Y-116160851D01*
X179917751Y-116138108D01*
X179929823Y-116113627D01*
X179970435Y-116015580D01*
X179979209Y-115989732D01*
X179986006Y-115964366D01*
X179991332Y-115937592D01*
X180006053Y-115825783D01*
X180007392Y-115812194D01*
X180008253Y-115799062D01*
X180008700Y-115785408D01*
X180008700Y-115314591D01*
X180008253Y-115300937D01*
X180007392Y-115287805D01*
X180006053Y-115274216D01*
X179992036Y-115167754D01*
X179991332Y-115162406D01*
X179991331Y-115162404D01*
X179986006Y-115135633D01*
X179979209Y-115110267D01*
X179970435Y-115084419D01*
X179929823Y-114986372D01*
X179917751Y-114961891D01*
X179904621Y-114939148D01*
X179889452Y-114916445D01*
X179889440Y-114916429D01*
X179824848Y-114832251D01*
X179806837Y-114811714D01*
X179788284Y-114793161D01*
X179767747Y-114775150D01*
X179683569Y-114710558D01*
X179683547Y-114710542D01*
X179677723Y-114706651D01*
X179660851Y-114695378D01*
X179643556Y-114685393D01*
X179638119Y-114682254D01*
X179638114Y-114682251D01*
X179638108Y-114682248D01*
X179613627Y-114670176D01*
X179590663Y-114660664D01*
X179515588Y-114629567D01*
X179515583Y-114629565D01*
X179515580Y-114629564D01*
X179504140Y-114625680D01*
X179489734Y-114620790D01*
X179489708Y-114620783D01*
X179464364Y-114613992D01*
X179457573Y-114612641D01*
X179437591Y-114608667D01*
X179437582Y-114608665D01*
X179437578Y-114608665D01*
X179325783Y-114593946D01*
X179312178Y-114592605D01*
X179302596Y-114591978D01*
X179299049Y-114591746D01*
X179285409Y-114591300D01*
X179285396Y-114591300D01*
X178244740Y-114591300D01*
X178176619Y-114571298D01*
X178130126Y-114517642D01*
X178120022Y-114447368D01*
X178129290Y-114415637D01*
X178129034Y-114415531D01*
X178131743Y-114408991D01*
X178170435Y-114315580D01*
X178179209Y-114289732D01*
X178186006Y-114264366D01*
X178191332Y-114237592D01*
X178206053Y-114125783D01*
X178207392Y-114112194D01*
X178208253Y-114099062D01*
X178208700Y-114085408D01*
X178208700Y-113734700D01*
X178228702Y-113666579D01*
X178282358Y-113620086D01*
X178334700Y-113608700D01*
X180785395Y-113608700D01*
X180785409Y-113608700D01*
X180799066Y-113608253D01*
X180812195Y-113607392D01*
X180825780Y-113606053D01*
X180937591Y-113591332D01*
X180964366Y-113586006D01*
X180989732Y-113579209D01*
X181015580Y-113570435D01*
X181113627Y-113529823D01*
X181138108Y-113517751D01*
X181160851Y-113504621D01*
X181183553Y-113489452D01*
X181267750Y-113424846D01*
X181288275Y-113406846D01*
X181306846Y-113388275D01*
X181324846Y-113367750D01*
X181389452Y-113283553D01*
X181404621Y-113260851D01*
X181417751Y-113238108D01*
X181429823Y-113213627D01*
X181470435Y-113115580D01*
X181479209Y-113089732D01*
X181486006Y-113064366D01*
X181491332Y-113037592D01*
X181506053Y-112925783D01*
X181507392Y-112912194D01*
X181508253Y-112899062D01*
X181508700Y-112885408D01*
X181508700Y-109034700D01*
X181528702Y-108966579D01*
X181582358Y-108920086D01*
X181634700Y-108908700D01*
X182340084Y-108908700D01*
X182340925Y-108908666D01*
X182356458Y-108908057D01*
X182376165Y-108906506D01*
X182392438Y-108904580D01*
X182471094Y-108892122D01*
X182502940Y-108884476D01*
X182540431Y-108872294D01*
X182570684Y-108859762D01*
X182632693Y-108828167D01*
X182660621Y-108811053D01*
X182692513Y-108787881D01*
X182717411Y-108766615D01*
X182766615Y-108717411D01*
X182787881Y-108692513D01*
X182811053Y-108660621D01*
X182828167Y-108632693D01*
X182859762Y-108570684D01*
X182872294Y-108540431D01*
X182884476Y-108502940D01*
X182892121Y-108471096D01*
X182904579Y-108392444D01*
X182906506Y-108376165D01*
X182908057Y-108356453D01*
X182908700Y-108340082D01*
X182908700Y-104916258D01*
X182908700Y-104916242D01*
X182908253Y-104902619D01*
X182908253Y-104902608D01*
X182907175Y-104886161D01*
X182905836Y-104872569D01*
X182891769Y-104765723D01*
X182886444Y-104738950D01*
X182877931Y-104707179D01*
X182869156Y-104681328D01*
X182831102Y-104589457D01*
X182819026Y-104564970D01*
X182802579Y-104536484D01*
X182787413Y-104513787D01*
X182772563Y-104494434D01*
X182726887Y-104434908D01*
X182726873Y-104434891D01*
X182708882Y-104414378D01*
X182708866Y-104414360D01*
X182685652Y-104391146D01*
X182685640Y-104391135D01*
X182685626Y-104391121D01*
X182665101Y-104373121D01*
X182586206Y-104312583D01*
X182586203Y-104312581D01*
X182586194Y-104312574D01*
X182563514Y-104297420D01*
X182563511Y-104297418D01*
X182535032Y-104280975D01*
X182510545Y-104268899D01*
X182510539Y-104268896D01*
X182510534Y-104268894D01*
X182510532Y-104268893D01*
X182418656Y-104230837D01*
X182392820Y-104222068D01*
X182392818Y-104222067D01*
X182392811Y-104222065D01*
X182392804Y-104222063D01*
X182392784Y-104222057D01*
X182361070Y-104213560D01*
X182361032Y-104213551D01*
X182334281Y-104208230D01*
X182334273Y-104208229D01*
X182227437Y-104194164D01*
X182227431Y-104194163D01*
X182227428Y-104194163D01*
X182220633Y-104193494D01*
X182213829Y-104192824D01*
X182200961Y-104191981D01*
X182197392Y-104191747D01*
X182197388Y-104191746D01*
X182197375Y-104191746D01*
X182183756Y-104191300D01*
X182183741Y-104191300D01*
X180434700Y-104191300D01*
X180366579Y-104171298D01*
X180320086Y-104117642D01*
X180308700Y-104065300D01*
X180308700Y-103134700D01*
X180328702Y-103066579D01*
X180382358Y-103020086D01*
X180434700Y-103008700D01*
X180983756Y-103008700D01*
X180991324Y-103008451D01*
X180997391Y-103008253D01*
X181013838Y-103007175D01*
X181027430Y-103005836D01*
X181134276Y-102991769D01*
X181161049Y-102986444D01*
X181192820Y-102977931D01*
X181218671Y-102969156D01*
X181310542Y-102931102D01*
X181335029Y-102919026D01*
X181363515Y-102902579D01*
X181386211Y-102887414D01*
X181465099Y-102826881D01*
X181485623Y-102808881D01*
X181508881Y-102785623D01*
X181526881Y-102765099D01*
X181574852Y-102702582D01*
X181587412Y-102686214D01*
X181587422Y-102686199D01*
X181602579Y-102663515D01*
X181619026Y-102635029D01*
X181631102Y-102610542D01*
X181669156Y-102518671D01*
X181677931Y-102492820D01*
X181686444Y-102461049D01*
X181691769Y-102434276D01*
X181705836Y-102327430D01*
X181707175Y-102313838D01*
X181708253Y-102297391D01*
X181708494Y-102290024D01*
X181708700Y-102283756D01*
X181708700Y-101916242D01*
X181708253Y-101902619D01*
X181708253Y-101902608D01*
X181707175Y-101886161D01*
X181705836Y-101872569D01*
X181691769Y-101765723D01*
X181686444Y-101738950D01*
X181677931Y-101707179D01*
X181669156Y-101681328D01*
X181631102Y-101589457D01*
X181619026Y-101564970D01*
X181602579Y-101536484D01*
X181587413Y-101513787D01*
X181572563Y-101494434D01*
X181526887Y-101434908D01*
X181526873Y-101434891D01*
X181508882Y-101414378D01*
X181508866Y-101414360D01*
X181485652Y-101391146D01*
X181485640Y-101391135D01*
X181485626Y-101391121D01*
X181465101Y-101373121D01*
X181386206Y-101312583D01*
X181386203Y-101312581D01*
X181386194Y-101312574D01*
X181363514Y-101297420D01*
X181363511Y-101297418D01*
X181335032Y-101280975D01*
X181310545Y-101268899D01*
X181310539Y-101268896D01*
X181310534Y-101268894D01*
X181310532Y-101268893D01*
X181218656Y-101230837D01*
X181192820Y-101222068D01*
X181192818Y-101222067D01*
X181192811Y-101222065D01*
X181192804Y-101222063D01*
X181192784Y-101222057D01*
X181161070Y-101213560D01*
X181161032Y-101213551D01*
X181134281Y-101208230D01*
X181134273Y-101208229D01*
X181027437Y-101194164D01*
X181027431Y-101194163D01*
X181027428Y-101194163D01*
X181020633Y-101193494D01*
X181013829Y-101192824D01*
X181000961Y-101191981D01*
X180997392Y-101191747D01*
X180997388Y-101191746D01*
X180997375Y-101191746D01*
X180983756Y-101191300D01*
X180983741Y-101191300D01*
X180434700Y-101191300D01*
X180366579Y-101171298D01*
X180320086Y-101117642D01*
X180308700Y-101065300D01*
X180308700Y-94216296D01*
X180308435Y-94208223D01*
X180308253Y-94202662D01*
X180307175Y-94186215D01*
X180305836Y-94172624D01*
X180291769Y-94065777D01*
X180286443Y-94038998D01*
X180277929Y-94007226D01*
X180269154Y-93981378D01*
X180231099Y-93889508D01*
X180219024Y-93865023D01*
X180202577Y-93836537D01*
X180187410Y-93813839D01*
X180187401Y-93813828D01*
X180187396Y-93813820D01*
X180133083Y-93743041D01*
X180126873Y-93734948D01*
X180108875Y-93714426D01*
X180108871Y-93714422D01*
X180108864Y-93714414D01*
X180085642Y-93691192D01*
X180085626Y-93691177D01*
X180085616Y-93691167D01*
X180085603Y-93691156D01*
X180085596Y-93691149D01*
X180065095Y-93673169D01*
X179986203Y-93612636D01*
X179986198Y-93612632D01*
X179963497Y-93597465D01*
X179935010Y-93581019D01*
X179935001Y-93581014D01*
X179934991Y-93581009D01*
X179919306Y-93573275D01*
X179910526Y-93568945D01*
X179910517Y-93568941D01*
X179910506Y-93568936D01*
X179818655Y-93530893D01*
X179792808Y-93522120D01*
X179761041Y-93513608D01*
X179734267Y-93508282D01*
X179734253Y-93508280D01*
X179627409Y-93494216D01*
X179613800Y-93492876D01*
X179597349Y-93491799D01*
X179583721Y-93491355D01*
X179583718Y-93491355D01*
X179583198Y-93491355D01*
X173992873Y-93491528D01*
X173983538Y-93492029D01*
X173970542Y-93492727D01*
X173965277Y-93493293D01*
X173943770Y-93495607D01*
X173943760Y-93495609D01*
X173866072Y-93519939D01*
X173803762Y-93553964D01*
X173803751Y-93553971D01*
X173795584Y-93560085D01*
X173783084Y-93568329D01*
X173739635Y-93593415D01*
X173709248Y-93606003D01*
X173691698Y-93610706D01*
X173659084Y-93615000D01*
X173640914Y-93615000D01*
X173608308Y-93610707D01*
X173590749Y-93606002D01*
X173560365Y-93593416D01*
X173533933Y-93578155D01*
X173517877Y-93567149D01*
X173506208Y-93557746D01*
X173454870Y-93530893D01*
X173434049Y-93520002D01*
X173433842Y-93519941D01*
X173365929Y-93500002D01*
X173365932Y-93500002D01*
X173309645Y-93491912D01*
X173307134Y-93491551D01*
X173307133Y-93491551D01*
X171622791Y-93491602D01*
X171622790Y-93491602D01*
X171600480Y-93492799D01*
X171600476Y-93492799D01*
X171577370Y-93495285D01*
X171573700Y-93495680D01*
X171573698Y-93495680D01*
X171573696Y-93495681D01*
X171496003Y-93520011D01*
X171495994Y-93520015D01*
X171433694Y-93554033D01*
X171386128Y-93589641D01*
X171385849Y-93589883D01*
X171384952Y-93590521D01*
X171382531Y-93592334D01*
X171382487Y-93592276D01*
X171366352Y-93603764D01*
X171349636Y-93613415D01*
X171319253Y-93626001D01*
X171301701Y-93630705D01*
X171269084Y-93635000D01*
X171250914Y-93635000D01*
X171218303Y-93630706D01*
X171200749Y-93626002D01*
X171170365Y-93613417D01*
X171157527Y-93606005D01*
X171153695Y-93603792D01*
X171132500Y-93588413D01*
X171124914Y-93581599D01*
X171117260Y-93574724D01*
X171096286Y-93557822D01*
X171045906Y-93531469D01*
X171024122Y-93520074D01*
X170983143Y-93508044D01*
X170956006Y-93500077D01*
X170956002Y-93500076D01*
X170956001Y-93500076D01*
X170897209Y-93491626D01*
X166612635Y-93491759D01*
X166590325Y-93492956D01*
X166590321Y-93492956D01*
X166563540Y-93495837D01*
X166563539Y-93495837D01*
X166485842Y-93520169D01*
X166423536Y-93554190D01*
X166375977Y-93589793D01*
X166375941Y-93589825D01*
X166375824Y-93589907D01*
X166372374Y-93592491D01*
X166372312Y-93592408D01*
X166356419Y-93603726D01*
X166339630Y-93613418D01*
X166309253Y-93626001D01*
X166291701Y-93630705D01*
X166259084Y-93635000D01*
X166240914Y-93635000D01*
X166208303Y-93630706D01*
X166190749Y-93626002D01*
X166160365Y-93613417D01*
X166147527Y-93606005D01*
X166143646Y-93603764D01*
X166122448Y-93588382D01*
X166107432Y-93574894D01*
X166107420Y-93574884D01*
X166107417Y-93574882D01*
X166107412Y-93574877D01*
X166086438Y-93557976D01*
X166014282Y-93520234D01*
X166014281Y-93520233D01*
X165946162Y-93500234D01*
X165946163Y-93500234D01*
X165887366Y-93491783D01*
X161716210Y-93491912D01*
X161702590Y-93492358D01*
X161686152Y-93493436D01*
X161672573Y-93494774D01*
X161565697Y-93508848D01*
X161538916Y-93514176D01*
X161507156Y-93522688D01*
X161507141Y-93522693D01*
X161481315Y-93531462D01*
X161481295Y-93531469D01*
X161389460Y-93569512D01*
X161389446Y-93569518D01*
X161389440Y-93569521D01*
X161364956Y-93581596D01*
X161364951Y-93581599D01*
X161336463Y-93598047D01*
X161313809Y-93613185D01*
X161313766Y-93613216D01*
X161234892Y-93673739D01*
X161234883Y-93673746D01*
X161214386Y-93691722D01*
X161214360Y-93691746D01*
X161191132Y-93714973D01*
X161191108Y-93714999D01*
X161173121Y-93735509D01*
X161112573Y-93814420D01*
X161097405Y-93837121D01*
X161080975Y-93865577D01*
X161069433Y-93888982D01*
X161068896Y-93890070D01*
X161031078Y-93981378D01*
X161030835Y-93981964D01*
X161030834Y-93981965D01*
X161022257Y-94007237D01*
X161022063Y-94007809D01*
X161013555Y-94039562D01*
X161013555Y-94039563D01*
X161013553Y-94039573D01*
X161008229Y-94066331D01*
X161008227Y-94066341D01*
X160994865Y-94167842D01*
X160994865Y-94167846D01*
X160994716Y-94168981D01*
X160994154Y-94173252D01*
X160992824Y-94186770D01*
X160991746Y-94203226D01*
X160991300Y-94216856D01*
X160991300Y-101876905D01*
X160992494Y-101899183D01*
X160992497Y-101899222D01*
X160995373Y-101925974D01*
X160995374Y-101925979D01*
X161019706Y-102003689D01*
X161019706Y-102003691D01*
X161028668Y-102020103D01*
X161028669Y-102020103D01*
X161047100Y-102053857D01*
X161047110Y-102053851D01*
X161053600Y-102065727D01*
X161052304Y-102066476D01*
X161084160Y-102121652D01*
X161084866Y-102122944D01*
X161085289Y-102124885D01*
X161096002Y-102150748D01*
X161100705Y-102168297D01*
X161105000Y-102200913D01*
X161105000Y-102219084D01*
X161100705Y-102251697D01*
X161099926Y-102254608D01*
X161093645Y-102290024D01*
X161090298Y-102327430D01*
X161089779Y-102333231D01*
X161089624Y-102335053D01*
X161089624Y-102335055D01*
X161102996Y-102426965D01*
X161102998Y-102426972D01*
X161105822Y-102434276D01*
X161128595Y-102493185D01*
X161157681Y-102544978D01*
X161171730Y-102563287D01*
X161173122Y-102565102D01*
X161173126Y-102565107D01*
X161191106Y-102585610D01*
X161191145Y-102585651D01*
X161214366Y-102608872D01*
X161216258Y-102610531D01*
X161234897Y-102626878D01*
X161313790Y-102687415D01*
X161313796Y-102687419D01*
X161313801Y-102687423D01*
X161336458Y-102702561D01*
X161336485Y-102702579D01*
X161364969Y-102719025D01*
X161364973Y-102719027D01*
X161389459Y-102731103D01*
X161389473Y-102731109D01*
X161481325Y-102769155D01*
X161481328Y-102769156D01*
X161507179Y-102777931D01*
X161521788Y-102781845D01*
X161538937Y-102786441D01*
X161538944Y-102786442D01*
X161538950Y-102786444D01*
X161552696Y-102789177D01*
X161565717Y-102791768D01*
X161565722Y-102791768D01*
X161565724Y-102791769D01*
X161672571Y-102805836D01*
X161686162Y-102807175D01*
X161702609Y-102808253D01*
X161708384Y-102808442D01*
X161716244Y-102808700D01*
X161716259Y-102808700D01*
X162083756Y-102808700D01*
X162091324Y-102808451D01*
X162097391Y-102808253D01*
X162113838Y-102807175D01*
X162127430Y-102805836D01*
X162234276Y-102791769D01*
X162261049Y-102786444D01*
X162292820Y-102777931D01*
X162318671Y-102769156D01*
X162410542Y-102731102D01*
X162410564Y-102731091D01*
X162412403Y-102730258D01*
X162412430Y-102730319D01*
X162412447Y-102730313D01*
X162412649Y-102730801D01*
X162412751Y-102731026D01*
X162479512Y-102719390D01*
X162544942Y-102746948D01*
X162585086Y-102805505D01*
X162591300Y-102844586D01*
X162591300Y-107265300D01*
X162571298Y-107333421D01*
X162517642Y-107379914D01*
X162465300Y-107391300D01*
X161514591Y-107391300D01*
X161500952Y-107391746D01*
X161499139Y-107391864D01*
X161487822Y-107392605D01*
X161474216Y-107393946D01*
X161362408Y-107408666D01*
X161335635Y-107413991D01*
X161335624Y-107413994D01*
X161310278Y-107420785D01*
X161284409Y-107429567D01*
X161186367Y-107470178D01*
X161161896Y-107482245D01*
X161161885Y-107482251D01*
X161139161Y-107495370D01*
X161139157Y-107495372D01*
X161116455Y-107510540D01*
X161116433Y-107510556D01*
X161032262Y-107575143D01*
X161032249Y-107575153D01*
X161011713Y-107593163D01*
X161011689Y-107593185D01*
X160993185Y-107611689D01*
X160993163Y-107611713D01*
X160975153Y-107632249D01*
X160975143Y-107632262D01*
X160910559Y-107716429D01*
X160910541Y-107716454D01*
X160895387Y-107739133D01*
X160895363Y-107739171D01*
X160882256Y-107761875D01*
X160882253Y-107761881D01*
X160870176Y-107786371D01*
X160829567Y-107884410D01*
X160820790Y-107910264D01*
X160820785Y-107910283D01*
X160813996Y-107935621D01*
X160813987Y-107935658D01*
X160808667Y-107962402D01*
X160808665Y-107962413D01*
X160793945Y-108074227D01*
X160792609Y-108087790D01*
X160791747Y-108100926D01*
X160791300Y-108114605D01*
X99700500Y-108114605D01*
X99700500Y-95960118D01*
X99680453Y-95911721D01*
X99669976Y-95886426D01*
X99669973Y-95886422D01*
X99613577Y-95830026D01*
X99613573Y-95830023D01*
X99539882Y-95799500D01*
X87039882Y-95799500D01*
X86960118Y-95799500D01*
X86886426Y-95830023D01*
X86886422Y-95830026D01*
X86830026Y-95886422D01*
X86830023Y-95886426D01*
X86799500Y-95960117D01*
X85200500Y-95960117D01*
X85200500Y-90933687D01*
X115636300Y-90933687D01*
X115636300Y-91066313D01*
X115642080Y-91087884D01*
X115670627Y-91194422D01*
X115736937Y-91309275D01*
X115736945Y-91309285D01*
X115830714Y-91403054D01*
X115830719Y-91403058D01*
X115830721Y-91403060D01*
X115830722Y-91403061D01*
X115830724Y-91403062D01*
X115945577Y-91469372D01*
X115945579Y-91469373D01*
X116073687Y-91503700D01*
X116073689Y-91503700D01*
X116206311Y-91503700D01*
X116206313Y-91503700D01*
X116334421Y-91469373D01*
X116449279Y-91403060D01*
X116449280Y-91403058D01*
X116449524Y-91402918D01*
X116518519Y-91386180D01*
X116576689Y-91406312D01*
X116577690Y-91404580D01*
X116699698Y-91475021D01*
X116699700Y-91475022D01*
X116827808Y-91509349D01*
X116827810Y-91509349D01*
X116960432Y-91509349D01*
X116960434Y-91509349D01*
X117088542Y-91475022D01*
X117203400Y-91408709D01*
X117297181Y-91314928D01*
X117363494Y-91200070D01*
X117397821Y-91071962D01*
X117397821Y-90939336D01*
X117373243Y-90847610D01*
X117374932Y-90776633D01*
X117405850Y-90725907D01*
X118989556Y-89142202D01*
X119051866Y-89108179D01*
X119078649Y-89105300D01*
X119740770Y-89105300D01*
X119808891Y-89125302D01*
X119829865Y-89142205D01*
X119890714Y-89203054D01*
X119890719Y-89203058D01*
X119890721Y-89203060D01*
X119890722Y-89203061D01*
X119890724Y-89203062D01*
X120005577Y-89269372D01*
X120005579Y-89269373D01*
X120133687Y-89303700D01*
X120133689Y-89303700D01*
X120266311Y-89303700D01*
X120266313Y-89303700D01*
X120394421Y-89269373D01*
X120509279Y-89203060D01*
X120603060Y-89109279D01*
X120669373Y-88994421D01*
X120695736Y-88896033D01*
X120732685Y-88835415D01*
X120796546Y-88804393D01*
X120825428Y-88803877D01*
X120825428Y-88803700D01*
X120966311Y-88803700D01*
X120966313Y-88803700D01*
X121094421Y-88769373D01*
X121209279Y-88703060D01*
X121303060Y-88609279D01*
X121369373Y-88494421D01*
X121403700Y-88366313D01*
X121403700Y-88233687D01*
X121369373Y-88105579D01*
X121329375Y-88036300D01*
X121318147Y-88016852D01*
X129446300Y-88016852D01*
X129446300Y-88123148D01*
X129467461Y-88202123D01*
X129473812Y-88225827D01*
X129526956Y-88317874D01*
X129526964Y-88317884D01*
X129602115Y-88393035D01*
X129602120Y-88393039D01*
X129602122Y-88393041D01*
X129602123Y-88393042D01*
X129602125Y-88393043D01*
X129694172Y-88446187D01*
X129694174Y-88446187D01*
X129694177Y-88446189D01*
X129796852Y-88473700D01*
X129796853Y-88473700D01*
X129903146Y-88473700D01*
X129903148Y-88473700D01*
X130005823Y-88446189D01*
X130005826Y-88446187D01*
X130005827Y-88446187D01*
X130073955Y-88406853D01*
X130097878Y-88393041D01*
X130173041Y-88317878D01*
X130173042Y-88317875D01*
X130174720Y-88316198D01*
X130237032Y-88282173D01*
X130262338Y-88279302D01*
X130279679Y-88279098D01*
X130296852Y-88283700D01*
X130403148Y-88283700D01*
X130426758Y-88277373D01*
X130442591Y-88277188D01*
X130462133Y-88282677D01*
X130482428Y-88283160D01*
X130498310Y-88292840D01*
X130510942Y-88296389D01*
X130518961Y-88305427D01*
X130533164Y-88314084D01*
X130602115Y-88383035D01*
X130602120Y-88383039D01*
X130602122Y-88383041D01*
X130602123Y-88383042D01*
X130602125Y-88383043D01*
X130694172Y-88436187D01*
X130694174Y-88436187D01*
X130694177Y-88436189D01*
X130796852Y-88463700D01*
X130796853Y-88463700D01*
X130903146Y-88463700D01*
X130903148Y-88463700D01*
X131005823Y-88436189D01*
X131005826Y-88436187D01*
X131005827Y-88436187D01*
X131056636Y-88406852D01*
X131097878Y-88383041D01*
X131173041Y-88307878D01*
X131220413Y-88225827D01*
X131222994Y-88221357D01*
X131274376Y-88172364D01*
X131344090Y-88158928D01*
X131410001Y-88185314D01*
X131441232Y-88221357D01*
X131496956Y-88317874D01*
X131496964Y-88317884D01*
X131572115Y-88393035D01*
X131572120Y-88393039D01*
X131572122Y-88393041D01*
X131572123Y-88393042D01*
X131572125Y-88393043D01*
X131664172Y-88446187D01*
X131664174Y-88446187D01*
X131664177Y-88446189D01*
X131766852Y-88473700D01*
X131766853Y-88473700D01*
X131873146Y-88473700D01*
X131873148Y-88473700D01*
X131975823Y-88446189D01*
X131975826Y-88446187D01*
X131975827Y-88446187D01*
X132043955Y-88406853D01*
X132067878Y-88393041D01*
X132143041Y-88317878D01*
X132196189Y-88225823D01*
X132223700Y-88123148D01*
X132223700Y-88114328D01*
X132232483Y-88084412D01*
X132239112Y-88053943D01*
X132242926Y-88048847D01*
X132243702Y-88046207D01*
X132260605Y-88025233D01*
X132390233Y-87895605D01*
X132452545Y-87861579D01*
X132479328Y-87858700D01*
X133113842Y-87858700D01*
X133181963Y-87878702D01*
X133228456Y-87932358D01*
X133238560Y-88002632D01*
X133209066Y-88067212D01*
X133176842Y-88093819D01*
X133102125Y-88136956D01*
X133102115Y-88136964D01*
X133026964Y-88212115D01*
X133026956Y-88212125D01*
X132973812Y-88304172D01*
X132965402Y-88335560D01*
X132946300Y-88406852D01*
X132946300Y-88513148D01*
X132963309Y-88576629D01*
X132973812Y-88615827D01*
X133026956Y-88707874D01*
X133026958Y-88707877D01*
X133026959Y-88707878D01*
X133029140Y-88710059D01*
X133030391Y-88712351D01*
X133031987Y-88714430D01*
X133031662Y-88714678D01*
X133063168Y-88772367D01*
X133066049Y-88799158D01*
X133066049Y-89839936D01*
X133049168Y-89902936D01*
X133013812Y-89964172D01*
X133013811Y-89964177D01*
X132986300Y-90066852D01*
X132986300Y-90173148D01*
X132995055Y-90205823D01*
X133013812Y-90275827D01*
X133066956Y-90367874D01*
X133066964Y-90367884D01*
X133142115Y-90443035D01*
X133142120Y-90443039D01*
X133142122Y-90443041D01*
X133142123Y-90443042D01*
X133142125Y-90443043D01*
X133234172Y-90496187D01*
X133234174Y-90496187D01*
X133234177Y-90496189D01*
X133336852Y-90523700D01*
X133336853Y-90523700D01*
X133365544Y-90523700D01*
X133433665Y-90543702D01*
X133480158Y-90597358D01*
X133490262Y-90667632D01*
X133476817Y-90706476D01*
X133476973Y-90706541D01*
X133475887Y-90709160D01*
X133474663Y-90712700D01*
X133473812Y-90714172D01*
X133473811Y-90714177D01*
X133446300Y-90816852D01*
X133446300Y-90923148D01*
X133465773Y-90995823D01*
X133473812Y-91025827D01*
X133526956Y-91117874D01*
X133526964Y-91117884D01*
X133602115Y-91193035D01*
X133602120Y-91193039D01*
X133602122Y-91193041D01*
X133602123Y-91193042D01*
X133602125Y-91193043D01*
X133694172Y-91246187D01*
X133694174Y-91246187D01*
X133694177Y-91246189D01*
X133796852Y-91273700D01*
X133796853Y-91273700D01*
X133903145Y-91273700D01*
X133903148Y-91273700D01*
X133911488Y-91271465D01*
X133936882Y-91272069D01*
X133962032Y-91268453D01*
X133971766Y-91272898D01*
X133982461Y-91273153D01*
X134003500Y-91287391D01*
X134026612Y-91297947D01*
X134032396Y-91306947D01*
X134041258Y-91312945D01*
X134051260Y-91336299D01*
X134064996Y-91357673D01*
X134067312Y-91373780D01*
X134069208Y-91378208D01*
X134070100Y-91393171D01*
X134070100Y-91396790D01*
X134050098Y-91464911D01*
X134033195Y-91485885D01*
X134026964Y-91492115D01*
X134026956Y-91492125D01*
X133973812Y-91584172D01*
X133973811Y-91584177D01*
X133946300Y-91686852D01*
X133946300Y-91793148D01*
X133965773Y-91865823D01*
X133973812Y-91895827D01*
X134026956Y-91987874D01*
X134026964Y-91987884D01*
X134102115Y-92063035D01*
X134102120Y-92063039D01*
X134102122Y-92063041D01*
X134102123Y-92063042D01*
X134102125Y-92063043D01*
X134194172Y-92116187D01*
X134194174Y-92116187D01*
X134194177Y-92116189D01*
X134296852Y-92143700D01*
X134296853Y-92143700D01*
X134403145Y-92143700D01*
X134403148Y-92143700D01*
X134411488Y-92141465D01*
X134436882Y-92142069D01*
X134462032Y-92138453D01*
X134471766Y-92142898D01*
X134482461Y-92143153D01*
X134503500Y-92157391D01*
X134526612Y-92167947D01*
X134532396Y-92176947D01*
X134541258Y-92182945D01*
X134551260Y-92206299D01*
X134564996Y-92227673D01*
X134567312Y-92243780D01*
X134569208Y-92248208D01*
X134570100Y-92263171D01*
X134570100Y-92286790D01*
X134550098Y-92354911D01*
X134533195Y-92375885D01*
X134526964Y-92382115D01*
X134526956Y-92382125D01*
X134473812Y-92474172D01*
X134473811Y-92474177D01*
X134446300Y-92576852D01*
X134446300Y-92683148D01*
X134470562Y-92773699D01*
X134473812Y-92785827D01*
X134526956Y-92877874D01*
X134526964Y-92877884D01*
X134602115Y-92953035D01*
X134602120Y-92953039D01*
X134602122Y-92953041D01*
X134602123Y-92953042D01*
X134602125Y-92953043D01*
X134694172Y-93006187D01*
X134694174Y-93006187D01*
X134694177Y-93006189D01*
X134796852Y-93033700D01*
X134796853Y-93033700D01*
X134901732Y-93033700D01*
X134969853Y-93053702D01*
X135016346Y-93107358D01*
X135026450Y-93177632D01*
X135010851Y-93222700D01*
X134963812Y-93304172D01*
X134950242Y-93354817D01*
X134936300Y-93406852D01*
X134936300Y-93513148D01*
X134956837Y-93589794D01*
X134963812Y-93615827D01*
X135016956Y-93707874D01*
X135016964Y-93707884D01*
X135092115Y-93783035D01*
X135092120Y-93783039D01*
X135092122Y-93783041D01*
X135092123Y-93783042D01*
X135092125Y-93783043D01*
X135184172Y-93836187D01*
X135184174Y-93836187D01*
X135184177Y-93836189D01*
X135286852Y-93863700D01*
X135286853Y-93863700D01*
X135393145Y-93863700D01*
X135393148Y-93863700D01*
X135411491Y-93858785D01*
X135436884Y-93859389D01*
X135462032Y-93855774D01*
X135471767Y-93860220D01*
X135482465Y-93860475D01*
X135503503Y-93874714D01*
X135526612Y-93885268D01*
X135532397Y-93894269D01*
X135541261Y-93900269D01*
X135551262Y-93923624D01*
X135564996Y-93944994D01*
X135567312Y-93961103D01*
X135569209Y-93965533D01*
X135570100Y-93980492D01*
X135570100Y-94116790D01*
X135550098Y-94184911D01*
X135533195Y-94205885D01*
X135526964Y-94212115D01*
X135526956Y-94212125D01*
X135473812Y-94304172D01*
X135473811Y-94304177D01*
X135446300Y-94406852D01*
X135446300Y-94513148D01*
X135460966Y-94567884D01*
X135473812Y-94615827D01*
X135526956Y-94707874D01*
X135526964Y-94707884D01*
X135602115Y-94783035D01*
X135602120Y-94783039D01*
X135602122Y-94783041D01*
X135602123Y-94783042D01*
X135602125Y-94783043D01*
X135694172Y-94836187D01*
X135694174Y-94836187D01*
X135694177Y-94836189D01*
X135796852Y-94863700D01*
X135796853Y-94863700D01*
X135903147Y-94863700D01*
X135903148Y-94863700D01*
X135903148Y-94863699D01*
X135911335Y-94862622D01*
X135911567Y-94864384D01*
X135926882Y-94864748D01*
X135952032Y-94861133D01*
X135961766Y-94865578D01*
X135972464Y-94865833D01*
X135993505Y-94880074D01*
X136016612Y-94890627D01*
X136022396Y-94899628D01*
X136031260Y-94905627D01*
X136041261Y-94928982D01*
X136054996Y-94950353D01*
X136057312Y-94966461D01*
X136059209Y-94970891D01*
X136060100Y-94985851D01*
X136060100Y-95036790D01*
X136040098Y-95104911D01*
X136023195Y-95125885D01*
X135988898Y-95160181D01*
X135988890Y-95160191D01*
X135935746Y-95252238D01*
X135932851Y-95263043D01*
X135908234Y-95354918D01*
X135908234Y-95461214D01*
X135932496Y-95551765D01*
X135935746Y-95563893D01*
X135988890Y-95655940D01*
X135988898Y-95655950D01*
X136064049Y-95731101D01*
X136064054Y-95731105D01*
X136064056Y-95731107D01*
X136064057Y-95731108D01*
X136064059Y-95731109D01*
X136156106Y-95784253D01*
X136156108Y-95784253D01*
X136156111Y-95784255D01*
X136258786Y-95811766D01*
X136258787Y-95811766D01*
X136365080Y-95811766D01*
X136365082Y-95811766D01*
X136467757Y-95784255D01*
X136467760Y-95784253D01*
X136467761Y-95784253D01*
X136513784Y-95757681D01*
X136559812Y-95731107D01*
X136634975Y-95655944D01*
X136688123Y-95563889D01*
X136715634Y-95461214D01*
X136715634Y-95354918D01*
X136688123Y-95252243D01*
X136688121Y-95252240D01*
X136688121Y-95252238D01*
X136636781Y-95163315D01*
X136619900Y-95100315D01*
X136619900Y-88793209D01*
X136639802Y-88725244D01*
X136647157Y-88713761D01*
X136663041Y-88697878D01*
X136715155Y-88607612D01*
X136716716Y-88605177D01*
X136741404Y-88583720D01*
X136765077Y-88561149D01*
X136768032Y-88560579D01*
X136770304Y-88558605D01*
X136802671Y-88553902D01*
X136834790Y-88547712D01*
X136837584Y-88548830D01*
X136840563Y-88548398D01*
X136870334Y-88561941D01*
X136900702Y-88574099D01*
X136902619Y-88576629D01*
X136905187Y-88577797D01*
X136914768Y-88592658D01*
X136934131Y-88618205D01*
X136935053Y-88617674D01*
X136992328Y-88716877D01*
X136992330Y-88716880D01*
X136992331Y-88716881D01*
X137023195Y-88747745D01*
X137057220Y-88810055D01*
X137060100Y-88836840D01*
X137060100Y-89756790D01*
X137040098Y-89824911D01*
X137023195Y-89845885D01*
X137016964Y-89852115D01*
X137016956Y-89852125D01*
X136963812Y-89944172D01*
X136963811Y-89944177D01*
X136936300Y-90046852D01*
X136936300Y-90153148D01*
X136941659Y-90173148D01*
X136963812Y-90255827D01*
X137016956Y-90347874D01*
X137016964Y-90347884D01*
X137092115Y-90423035D01*
X137092120Y-90423039D01*
X137092122Y-90423041D01*
X137092123Y-90423042D01*
X137092125Y-90423043D01*
X137184172Y-90476187D01*
X137184174Y-90476187D01*
X137184177Y-90476189D01*
X137286852Y-90503700D01*
X137286853Y-90503700D01*
X137367091Y-90503700D01*
X137435212Y-90523702D01*
X137481705Y-90577358D01*
X137491809Y-90647632D01*
X137476210Y-90692700D01*
X137463812Y-90714172D01*
X137463811Y-90714177D01*
X137436300Y-90816852D01*
X137436300Y-90923148D01*
X137455773Y-90995823D01*
X137463812Y-91025827D01*
X137516956Y-91117874D01*
X137516964Y-91117884D01*
X137592115Y-91193035D01*
X137592120Y-91193039D01*
X137592122Y-91193041D01*
X137592123Y-91193042D01*
X137592125Y-91193043D01*
X137684172Y-91246187D01*
X137684174Y-91246187D01*
X137684177Y-91246189D01*
X137786852Y-91273700D01*
X137786853Y-91273700D01*
X137893147Y-91273700D01*
X137893148Y-91273700D01*
X137906430Y-91270141D01*
X137977405Y-91271829D01*
X138036202Y-91311622D01*
X138064151Y-91376886D01*
X138052379Y-91446900D01*
X138031972Y-91475558D01*
X138031987Y-91475570D01*
X138031678Y-91475971D01*
X138028144Y-91480936D01*
X138026963Y-91482116D01*
X138026956Y-91482125D01*
X137973812Y-91574172D01*
X137958431Y-91631576D01*
X137946300Y-91676852D01*
X137946300Y-91783148D01*
X137968452Y-91865823D01*
X137973812Y-91885827D01*
X138026956Y-91977874D01*
X138026964Y-91977884D01*
X138102115Y-92053035D01*
X138102120Y-92053039D01*
X138102122Y-92053041D01*
X138102123Y-92053042D01*
X138102125Y-92053043D01*
X138194172Y-92106187D01*
X138194174Y-92106187D01*
X138194177Y-92106189D01*
X138296852Y-92133700D01*
X138296853Y-92133700D01*
X138403147Y-92133700D01*
X138403148Y-92133700D01*
X138403148Y-92133699D01*
X138411335Y-92132622D01*
X138411567Y-92134384D01*
X138426882Y-92134748D01*
X138452032Y-92131133D01*
X138461766Y-92135578D01*
X138472464Y-92135833D01*
X138493505Y-92150074D01*
X138516612Y-92160627D01*
X138522396Y-92169628D01*
X138531260Y-92175627D01*
X138541261Y-92198982D01*
X138554996Y-92220353D01*
X138557312Y-92236461D01*
X138559209Y-92240891D01*
X138560100Y-92255851D01*
X138560100Y-92276790D01*
X138540098Y-92344911D01*
X138523195Y-92365885D01*
X138516964Y-92372115D01*
X138516956Y-92372125D01*
X138463812Y-92464172D01*
X138448431Y-92521576D01*
X138436300Y-92566852D01*
X138436300Y-92673148D01*
X138445395Y-92707090D01*
X138463812Y-92775827D01*
X138516956Y-92867874D01*
X138516964Y-92867884D01*
X138592115Y-92943035D01*
X138592120Y-92943039D01*
X138592122Y-92943041D01*
X138592123Y-92943042D01*
X138592125Y-92943043D01*
X138684172Y-92996187D01*
X138684174Y-92996187D01*
X138684177Y-92996189D01*
X138786852Y-93023700D01*
X138786853Y-93023700D01*
X138901406Y-93023700D01*
X138901406Y-93026411D01*
X138958336Y-93035276D01*
X139011445Y-93082393D01*
X139030650Y-93150742D01*
X139013778Y-93212271D01*
X138983812Y-93264172D01*
X138978756Y-93283043D01*
X138956300Y-93366852D01*
X138956300Y-93473148D01*
X138978988Y-93557822D01*
X138983812Y-93575827D01*
X139036956Y-93667874D01*
X139036964Y-93667884D01*
X139112115Y-93743035D01*
X139112120Y-93743039D01*
X139112122Y-93743041D01*
X139112123Y-93743042D01*
X139112125Y-93743043D01*
X139204172Y-93796187D01*
X139204174Y-93796187D01*
X139204177Y-93796189D01*
X139306852Y-93823700D01*
X139306853Y-93823700D01*
X139413147Y-93823700D01*
X139413148Y-93823700D01*
X139413148Y-93823699D01*
X139421335Y-93822622D01*
X139421567Y-93824384D01*
X139436882Y-93824748D01*
X139462032Y-93821133D01*
X139471766Y-93825578D01*
X139482464Y-93825833D01*
X139503505Y-93840074D01*
X139526612Y-93850627D01*
X139532396Y-93859628D01*
X139541260Y-93865627D01*
X139551261Y-93888982D01*
X139564996Y-93910353D01*
X139567312Y-93926461D01*
X139569209Y-93930891D01*
X139570100Y-93945851D01*
X139570100Y-93976790D01*
X139550098Y-94044911D01*
X139533195Y-94065885D01*
X139526964Y-94072115D01*
X139526956Y-94072125D01*
X139473812Y-94164172D01*
X139471547Y-94172627D01*
X139446300Y-94266852D01*
X139446300Y-94373148D01*
X139455331Y-94406852D01*
X139473812Y-94475827D01*
X139526956Y-94567874D01*
X139526964Y-94567884D01*
X139602115Y-94643035D01*
X139602120Y-94643039D01*
X139602122Y-94643041D01*
X139602123Y-94643042D01*
X139602125Y-94643043D01*
X139694172Y-94696187D01*
X139694174Y-94696187D01*
X139694177Y-94696189D01*
X139796852Y-94723700D01*
X139796853Y-94723700D01*
X139825810Y-94723700D01*
X139893931Y-94743702D01*
X139940424Y-94797358D01*
X139950528Y-94867632D01*
X139947517Y-94882309D01*
X139946300Y-94886849D01*
X139946300Y-94886852D01*
X139946300Y-94993148D01*
X139957994Y-95036790D01*
X139973812Y-95095827D01*
X140026956Y-95187874D01*
X140026964Y-95187884D01*
X140102115Y-95263035D01*
X140102120Y-95263039D01*
X140102122Y-95263041D01*
X140102123Y-95263042D01*
X140102125Y-95263043D01*
X140194172Y-95316187D01*
X140194174Y-95316187D01*
X140194177Y-95316189D01*
X140296852Y-95343700D01*
X140296853Y-95343700D01*
X140403146Y-95343700D01*
X140403148Y-95343700D01*
X140505823Y-95316189D01*
X140505826Y-95316187D01*
X140505827Y-95316187D01*
X140551850Y-95289615D01*
X140597878Y-95263041D01*
X140673041Y-95187878D01*
X140726189Y-95095823D01*
X140753700Y-94993148D01*
X140753700Y-94886852D01*
X140726189Y-94784177D01*
X140726187Y-94784174D01*
X140726187Y-94784172D01*
X140673043Y-94692125D01*
X140673035Y-94692115D01*
X140666805Y-94685885D01*
X140632779Y-94623573D01*
X140629900Y-94596790D01*
X140629900Y-88783209D01*
X140649134Y-88716298D01*
X140656710Y-88704208D01*
X140673041Y-88687878D01*
X140726189Y-88595823D01*
X140727348Y-88591496D01*
X140734817Y-88579579D01*
X140753795Y-88562752D01*
X140769705Y-88543003D01*
X140779900Y-88539607D01*
X140787941Y-88532479D01*
X140813000Y-88528584D01*
X140837064Y-88520571D01*
X140847477Y-88523226D01*
X140858095Y-88521577D01*
X140881282Y-88531848D01*
X140905858Y-88538117D01*
X140913181Y-88545980D01*
X140923007Y-88550333D01*
X140936961Y-88571512D01*
X140954246Y-88590071D01*
X140961134Y-88608201D01*
X140962068Y-88609619D01*
X140962080Y-88610691D01*
X140963288Y-88613871D01*
X140963811Y-88615825D01*
X141016956Y-88707874D01*
X141016958Y-88707877D01*
X141016959Y-88707878D01*
X141023193Y-88714112D01*
X141057219Y-88776421D01*
X141060100Y-88803209D01*
X141060100Y-89706790D01*
X141040098Y-89774911D01*
X141023195Y-89795885D01*
X141016964Y-89802115D01*
X141016956Y-89802125D01*
X140963812Y-89894172D01*
X140963811Y-89894177D01*
X140936300Y-89996852D01*
X140936300Y-90103148D01*
X140955056Y-90173148D01*
X140963812Y-90205827D01*
X141016956Y-90297874D01*
X141016964Y-90297884D01*
X141092115Y-90373035D01*
X141092120Y-90373039D01*
X141092122Y-90373041D01*
X141092123Y-90373042D01*
X141092125Y-90373043D01*
X141184172Y-90426187D01*
X141184174Y-90426187D01*
X141184177Y-90426189D01*
X141286852Y-90453700D01*
X141286853Y-90453700D01*
X141398638Y-90453700D01*
X141466759Y-90473702D01*
X141513252Y-90527358D01*
X141523356Y-90597632D01*
X141507757Y-90642700D01*
X141483812Y-90684172D01*
X141475934Y-90713574D01*
X141456300Y-90786852D01*
X141456300Y-90893148D01*
X141468675Y-90939332D01*
X141483812Y-90995827D01*
X141536956Y-91087874D01*
X141536964Y-91087884D01*
X141612115Y-91163035D01*
X141612120Y-91163039D01*
X141612122Y-91163041D01*
X141612123Y-91163042D01*
X141612125Y-91163043D01*
X141704172Y-91216187D01*
X141704174Y-91216187D01*
X141704177Y-91216189D01*
X141806852Y-91243700D01*
X141806853Y-91243700D01*
X141913145Y-91243700D01*
X141913148Y-91243700D01*
X141921488Y-91241465D01*
X141946882Y-91242069D01*
X141972032Y-91238453D01*
X141981766Y-91242898D01*
X141992461Y-91243153D01*
X142013500Y-91257391D01*
X142036612Y-91267947D01*
X142042396Y-91276947D01*
X142051258Y-91282945D01*
X142061260Y-91306299D01*
X142074996Y-91327673D01*
X142077312Y-91343780D01*
X142079208Y-91348208D01*
X142080100Y-91363171D01*
X142080100Y-91366790D01*
X142060098Y-91434911D01*
X142043195Y-91455885D01*
X142036964Y-91462115D01*
X142036956Y-91462125D01*
X141983812Y-91554172D01*
X141983811Y-91554177D01*
X141956300Y-91656852D01*
X141956300Y-91763148D01*
X141980562Y-91853699D01*
X141983812Y-91865827D01*
X142036956Y-91957874D01*
X142036964Y-91957884D01*
X142112115Y-92033035D01*
X142112120Y-92033039D01*
X142112122Y-92033041D01*
X142112123Y-92033042D01*
X142112125Y-92033043D01*
X142204172Y-92086187D01*
X142204174Y-92086187D01*
X142204177Y-92086189D01*
X142306852Y-92113700D01*
X142306853Y-92113700D01*
X142320300Y-92113700D01*
X142388421Y-92133702D01*
X142434914Y-92187358D01*
X142446300Y-92239700D01*
X142446300Y-92263148D01*
X142466619Y-92338981D01*
X142473812Y-92365827D01*
X142526956Y-92457874D01*
X142526964Y-92457884D01*
X142602115Y-92533035D01*
X142602120Y-92533039D01*
X142602122Y-92533041D01*
X142602123Y-92533042D01*
X142602125Y-92533043D01*
X142694172Y-92586187D01*
X142694174Y-92586187D01*
X142694177Y-92586189D01*
X142796852Y-92613700D01*
X142796853Y-92613700D01*
X142847085Y-92613700D01*
X142915206Y-92633702D01*
X142961699Y-92687358D01*
X142968792Y-92707090D01*
X142973812Y-92725826D01*
X143026956Y-92817874D01*
X143026964Y-92817884D01*
X143102115Y-92893035D01*
X143102120Y-92893039D01*
X143102122Y-92893041D01*
X143102123Y-92893042D01*
X143102125Y-92893043D01*
X143194172Y-92946187D01*
X143194174Y-92946187D01*
X143194177Y-92946189D01*
X143296852Y-92973700D01*
X143296853Y-92973700D01*
X143349047Y-92973700D01*
X143417168Y-92993702D01*
X143463661Y-93047358D01*
X143470751Y-93067082D01*
X143474854Y-93082393D01*
X143483812Y-93115826D01*
X143536956Y-93207874D01*
X143536964Y-93207884D01*
X143612115Y-93283035D01*
X143612120Y-93283039D01*
X143612122Y-93283041D01*
X143612123Y-93283042D01*
X143612125Y-93283043D01*
X143704172Y-93336187D01*
X143704174Y-93336187D01*
X143704177Y-93336189D01*
X143806852Y-93363700D01*
X143806853Y-93363700D01*
X143839047Y-93363700D01*
X143907168Y-93383702D01*
X143953661Y-93437358D01*
X143960751Y-93457082D01*
X143972314Y-93500235D01*
X143973812Y-93505826D01*
X144026956Y-93597874D01*
X144026964Y-93597884D01*
X144102115Y-93673035D01*
X144102120Y-93673039D01*
X144102122Y-93673041D01*
X144102123Y-93673042D01*
X144102125Y-93673043D01*
X144194172Y-93726187D01*
X144194174Y-93726187D01*
X144194177Y-93726189D01*
X144296852Y-93753700D01*
X144296853Y-93753700D01*
X144403146Y-93753700D01*
X144403148Y-93753700D01*
X144505823Y-93726189D01*
X144505826Y-93726187D01*
X144505827Y-93726187D01*
X144565480Y-93691746D01*
X144597878Y-93673041D01*
X144673041Y-93597878D01*
X144717869Y-93520234D01*
X144726187Y-93505827D01*
X144726187Y-93505826D01*
X144726189Y-93505823D01*
X144753700Y-93403148D01*
X144753700Y-93296852D01*
X144726189Y-93194177D01*
X144726187Y-93194174D01*
X144726187Y-93194172D01*
X144673043Y-93102125D01*
X144673035Y-93102115D01*
X144666805Y-93095885D01*
X144632779Y-93033573D01*
X144629900Y-93006790D01*
X144629900Y-88763209D01*
X144649902Y-88695088D01*
X144658309Y-88684657D01*
X144658013Y-88684430D01*
X144663036Y-88677882D01*
X144663041Y-88677878D01*
X144698867Y-88615825D01*
X144716187Y-88585827D01*
X144716187Y-88585826D01*
X144716189Y-88585823D01*
X144743700Y-88483148D01*
X144743700Y-88376852D01*
X144716189Y-88274177D01*
X144716187Y-88274174D01*
X144716187Y-88274172D01*
X144663043Y-88182125D01*
X144663035Y-88182115D01*
X144587884Y-88106964D01*
X144587871Y-88106954D01*
X144565119Y-88093818D01*
X144516126Y-88042435D01*
X144502691Y-87972722D01*
X144529078Y-87906811D01*
X144586911Y-87865629D01*
X144628120Y-87858700D01*
X145345539Y-87858700D01*
X145413660Y-87878702D01*
X145434634Y-87895604D01*
X146333005Y-88793976D01*
X146354811Y-88806565D01*
X146396831Y-88830825D01*
X146468018Y-88849900D01*
X149939607Y-88849900D01*
X150007728Y-88869902D01*
X150028697Y-88886800D01*
X150254221Y-89112324D01*
X150254222Y-89112325D01*
X150254224Y-89112326D01*
X150295614Y-89136222D01*
X150318046Y-89149173D01*
X150389233Y-89168248D01*
X150462933Y-89168248D01*
X150477618Y-89168248D01*
X150545739Y-89188250D01*
X150566713Y-89205153D01*
X150572943Y-89211383D01*
X150572948Y-89211387D01*
X150572950Y-89211389D01*
X150572951Y-89211390D01*
X150572953Y-89211391D01*
X150665000Y-89264535D01*
X150665002Y-89264535D01*
X150665005Y-89264537D01*
X150767680Y-89292048D01*
X150767681Y-89292048D01*
X150873974Y-89292048D01*
X150873976Y-89292048D01*
X150976651Y-89264537D01*
X150976654Y-89264535D01*
X150976655Y-89264535D01*
X151053618Y-89220100D01*
X151068706Y-89211389D01*
X151143869Y-89136226D01*
X151197017Y-89044171D01*
X151224528Y-88941496D01*
X151224528Y-88855900D01*
X151244530Y-88787779D01*
X151298186Y-88741286D01*
X151350528Y-88729900D01*
X151796850Y-88729900D01*
X151868037Y-88710825D01*
X151931862Y-88673976D01*
X152156632Y-88449204D01*
X152218945Y-88415180D01*
X152245728Y-88412300D01*
X152313146Y-88412300D01*
X152313148Y-88412300D01*
X152415823Y-88384789D01*
X152415826Y-88384787D01*
X152415827Y-88384787D01*
X152483768Y-88345561D01*
X152507878Y-88331641D01*
X152583041Y-88256478D01*
X152614423Y-88202123D01*
X152636187Y-88164427D01*
X152636187Y-88164426D01*
X152636189Y-88164423D01*
X152663700Y-88061748D01*
X152663700Y-87955452D01*
X152636189Y-87852777D01*
X152636187Y-87852774D01*
X152636187Y-87852772D01*
X152583043Y-87760725D01*
X152583035Y-87760715D01*
X152507884Y-87685564D01*
X152507874Y-87685556D01*
X152415827Y-87632412D01*
X152394134Y-87626599D01*
X152313148Y-87604900D01*
X152206852Y-87604900D01*
X152180798Y-87611881D01*
X152104172Y-87632412D01*
X152012125Y-87685556D01*
X152012119Y-87685561D01*
X151987966Y-87709714D01*
X151925653Y-87743738D01*
X151854838Y-87738672D01*
X151822207Y-87717692D01*
X151820937Y-87719348D01*
X151814381Y-87714317D01*
X151722334Y-87661173D01*
X151700641Y-87655360D01*
X151619655Y-87633661D01*
X151619654Y-87633661D01*
X151610835Y-87633661D01*
X151542714Y-87613659D01*
X151521744Y-87596760D01*
X151412208Y-87487224D01*
X151412207Y-87487223D01*
X151412204Y-87487221D01*
X151348384Y-87450375D01*
X151348382Y-87450374D01*
X151277199Y-87431300D01*
X151277196Y-87431300D01*
X147029328Y-87431300D01*
X146961207Y-87411298D01*
X146940237Y-87394399D01*
X146061862Y-86516024D01*
X146061860Y-86516023D01*
X146061858Y-86516021D01*
X145998038Y-86479175D01*
X145998036Y-86479174D01*
X145926853Y-86460100D01*
X145926850Y-86460100D01*
X130956851Y-86460100D01*
X130883150Y-86460100D01*
X130883146Y-86460100D01*
X130811963Y-86479174D01*
X130811961Y-86479175D01*
X130748141Y-86516021D01*
X130748131Y-86516029D01*
X129869767Y-87394395D01*
X129678138Y-87586024D01*
X129659262Y-87604900D01*
X129626025Y-87638136D01*
X129626021Y-87638141D01*
X129589175Y-87701961D01*
X129576703Y-87748506D01*
X129544092Y-87804988D01*
X129526964Y-87822115D01*
X129526956Y-87822125D01*
X129473812Y-87914172D01*
X129464188Y-87950090D01*
X129446300Y-88016852D01*
X121318147Y-88016852D01*
X121303062Y-87990724D01*
X121303054Y-87990714D01*
X121209285Y-87896945D01*
X121209275Y-87896937D01*
X121094422Y-87830627D01*
X121040434Y-87816161D01*
X120966313Y-87796300D01*
X120833687Y-87796300D01*
X120769633Y-87813463D01*
X120705577Y-87830627D01*
X120623840Y-87877819D01*
X120560840Y-87894700D01*
X118865269Y-87894700D01*
X118808426Y-87909931D01*
X118808425Y-87909930D01*
X118787626Y-87915504D01*
X118787615Y-87915508D01*
X118718005Y-87955698D01*
X118718002Y-87955700D01*
X116214309Y-90459395D01*
X116151997Y-90493420D01*
X116125214Y-90496300D01*
X116073687Y-90496300D01*
X116009633Y-90513463D01*
X115945577Y-90530627D01*
X115830724Y-90596937D01*
X115830714Y-90596945D01*
X115736945Y-90690714D01*
X115736937Y-90690724D01*
X115670627Y-90805577D01*
X115647742Y-90890984D01*
X115636300Y-90933687D01*
X85200500Y-90933687D01*
X85200500Y-77960117D01*
X86799500Y-77960117D01*
X86799500Y-90639882D01*
X86830023Y-90713573D01*
X86830026Y-90713577D01*
X86886422Y-90769973D01*
X86886426Y-90769976D01*
X86960118Y-90800500D01*
X99539882Y-90800500D01*
X99613574Y-90769976D01*
X99669976Y-90713574D01*
X99700500Y-90639882D01*
X99700500Y-77960118D01*
X99669976Y-77886426D01*
X99669973Y-77886422D01*
X99613577Y-77830026D01*
X99613573Y-77830023D01*
X99539882Y-77799500D01*
X87039882Y-77799500D01*
X86960118Y-77799500D01*
X86886426Y-77830023D01*
X86886422Y-77830026D01*
X86830026Y-77886422D01*
X86830023Y-77886426D01*
X86799500Y-77960117D01*
X85200500Y-77960117D01*
X85200500Y-73463687D01*
X113956300Y-73463687D01*
X113956300Y-73596313D01*
X113979184Y-73681718D01*
X113990627Y-73724422D01*
X114056937Y-73839275D01*
X114056945Y-73839285D01*
X114117795Y-73900135D01*
X114151821Y-73962447D01*
X114154700Y-73989230D01*
X114154700Y-76040191D01*
X114154699Y-76040191D01*
X114175506Y-76117841D01*
X114215697Y-76187455D01*
X114215705Y-76187465D01*
X115457795Y-77429554D01*
X115491820Y-77491866D01*
X115494700Y-77518649D01*
X115494700Y-80532884D01*
X115474698Y-80601005D01*
X115438704Y-80637648D01*
X115411083Y-80656104D01*
X115411078Y-80656108D01*
X115326108Y-80741078D01*
X115326103Y-80741084D01*
X115259336Y-80841008D01*
X115213348Y-80952034D01*
X115213346Y-80952039D01*
X115189900Y-81069907D01*
X115189900Y-87950095D01*
X115213196Y-88067212D01*
X115213345Y-88067960D01*
X115239211Y-88130404D01*
X115251026Y-88158928D01*
X115259338Y-88178995D01*
X115324935Y-88277168D01*
X115324936Y-88277168D01*
X115324942Y-88277177D01*
X115326104Y-88278916D01*
X116131084Y-89083896D01*
X116173630Y-89112324D01*
X116231010Y-89150664D01*
X116231015Y-89150666D01*
X116342033Y-89196653D01*
X116342037Y-89196653D01*
X116342040Y-89196655D01*
X116431442Y-89214437D01*
X116459904Y-89220099D01*
X116459907Y-89220099D01*
X116459910Y-89220100D01*
X116459911Y-89220100D01*
X116580089Y-89220100D01*
X116580090Y-89220100D01*
X116697960Y-89196655D01*
X116697963Y-89196653D01*
X116697966Y-89196653D01*
X116766539Y-89168248D01*
X116808990Y-89150664D01*
X116908916Y-89083896D01*
X116993896Y-88998916D01*
X117060664Y-88898990D01*
X117087087Y-88835200D01*
X117106653Y-88787966D01*
X117106653Y-88787963D01*
X117106655Y-88787960D01*
X117130100Y-88670090D01*
X117130100Y-88549910D01*
X117106655Y-88432040D01*
X117106653Y-88432037D01*
X117106653Y-88432033D01*
X117060666Y-88321015D01*
X117060664Y-88321010D01*
X117055186Y-88312812D01*
X116993896Y-88221084D01*
X116447005Y-87674193D01*
X116412979Y-87611881D01*
X116410100Y-87585098D01*
X116410100Y-85516100D01*
X116430102Y-85447979D01*
X116483758Y-85401486D01*
X116536100Y-85390100D01*
X132039910Y-85390100D01*
X132989910Y-85390100D01*
X144719910Y-85390100D01*
X145475098Y-85390100D01*
X145543219Y-85410102D01*
X145564193Y-85427005D01*
X147046104Y-86908916D01*
X147131084Y-86993896D01*
X147231009Y-87060664D01*
X147266643Y-87075424D01*
X147342041Y-87106655D01*
X147459910Y-87130100D01*
X147580090Y-87130100D01*
X158349910Y-87130100D01*
X175955098Y-87130100D01*
X176023219Y-87150102D01*
X176044193Y-87167005D01*
X197592995Y-108715807D01*
X197627021Y-108778119D01*
X197629900Y-108804902D01*
X197629900Y-113383900D01*
X197609898Y-113452021D01*
X197556242Y-113498514D01*
X197503900Y-113509900D01*
X184536100Y-113509900D01*
X184467979Y-113489898D01*
X184421486Y-113436242D01*
X184410100Y-113383900D01*
X184410100Y-101559911D01*
X184410099Y-101559907D01*
X184400925Y-101513785D01*
X184386654Y-101442040D01*
X184340664Y-101331009D01*
X184273896Y-101231084D01*
X184188916Y-101146104D01*
X182318916Y-99276104D01*
X182218990Y-99209336D01*
X182218991Y-99209336D01*
X182218989Y-99209335D01*
X182218984Y-99209333D01*
X182107966Y-99163346D01*
X181990095Y-99139900D01*
X181990090Y-99139900D01*
X181869910Y-99139900D01*
X181869904Y-99139900D01*
X181752033Y-99163346D01*
X181641015Y-99209333D01*
X181641010Y-99209335D01*
X181541085Y-99276103D01*
X181541079Y-99276108D01*
X181456108Y-99361079D01*
X181456103Y-99361085D01*
X181389335Y-99461010D01*
X181389333Y-99461015D01*
X181343346Y-99572033D01*
X181319900Y-99689904D01*
X181319900Y-99810095D01*
X181343346Y-99927966D01*
X181389333Y-100038984D01*
X181389335Y-100038989D01*
X181389336Y-100038990D01*
X181456104Y-100138916D01*
X181456108Y-100138920D01*
X183152995Y-101835807D01*
X183187021Y-101898119D01*
X183189900Y-101924902D01*
X183189900Y-113383900D01*
X183169898Y-113452021D01*
X183116242Y-113498514D01*
X183063900Y-113509900D01*
X181869907Y-113509900D01*
X181752039Y-113533346D01*
X181752034Y-113533348D01*
X181641008Y-113579336D01*
X181541084Y-113646103D01*
X181541078Y-113646108D01*
X181456108Y-113731078D01*
X181456103Y-113731084D01*
X181389336Y-113831008D01*
X181343348Y-113942034D01*
X181343346Y-113942039D01*
X181319900Y-114059907D01*
X181319900Y-114180092D01*
X181343346Y-114297960D01*
X181343348Y-114297965D01*
X181389336Y-114408991D01*
X181456103Y-114508915D01*
X181456108Y-114508921D01*
X181541078Y-114593891D01*
X181541084Y-114593896D01*
X181641009Y-114660664D01*
X181752040Y-114706654D01*
X181869910Y-114730100D01*
X183739910Y-114730100D01*
X183860090Y-114730100D01*
X197503900Y-114730100D01*
X197572021Y-114750102D01*
X197618514Y-114803758D01*
X197629900Y-114856100D01*
X197629900Y-126935098D01*
X197609898Y-127003219D01*
X197592995Y-127024193D01*
X195814193Y-128802995D01*
X195751881Y-128837021D01*
X195725098Y-128839900D01*
X173364901Y-128839900D01*
X173296780Y-128819898D01*
X173275806Y-128802995D01*
X169622038Y-125149227D01*
X190408675Y-125149227D01*
X190408675Y-125255523D01*
X190429809Y-125334397D01*
X190436187Y-125358202D01*
X190489331Y-125450249D01*
X190489339Y-125450259D01*
X190555895Y-125516815D01*
X190570839Y-125544183D01*
X190587696Y-125570412D01*
X190588601Y-125576710D01*
X190589921Y-125579127D01*
X190592800Y-125605910D01*
X190592800Y-125794090D01*
X190572798Y-125862211D01*
X190555895Y-125883185D01*
X190536964Y-125902115D01*
X190536956Y-125902125D01*
X190483812Y-125994172D01*
X190477076Y-126019313D01*
X190456300Y-126096852D01*
X190456300Y-126203148D01*
X190480562Y-126293699D01*
X190483812Y-126305827D01*
X190536956Y-126397874D01*
X190536964Y-126397884D01*
X190612115Y-126473035D01*
X190612120Y-126473039D01*
X190612122Y-126473041D01*
X190612123Y-126473042D01*
X190612125Y-126473043D01*
X190704172Y-126526187D01*
X190704174Y-126526187D01*
X190704177Y-126526189D01*
X190806852Y-126553700D01*
X190806853Y-126553700D01*
X190913146Y-126553700D01*
X190913148Y-126553700D01*
X191015823Y-126526189D01*
X191015826Y-126526187D01*
X191015827Y-126526187D01*
X191061850Y-126499615D01*
X191107878Y-126473041D01*
X191183041Y-126397878D01*
X191236189Y-126305823D01*
X191263700Y-126203148D01*
X191263700Y-126096852D01*
X191236189Y-125994177D01*
X191236187Y-125994174D01*
X191236187Y-125994172D01*
X191183043Y-125902125D01*
X191183035Y-125902115D01*
X191164105Y-125883185D01*
X191130079Y-125820873D01*
X191127200Y-125794090D01*
X191127200Y-125498245D01*
X191144081Y-125435244D01*
X191163973Y-125400790D01*
X191188564Y-125358198D01*
X191216075Y-125255523D01*
X191216075Y-125149227D01*
X191188564Y-125046552D01*
X191188562Y-125046549D01*
X191188562Y-125046547D01*
X191135418Y-124954500D01*
X191135410Y-124954490D01*
X191060259Y-124879339D01*
X191060249Y-124879331D01*
X190968202Y-124826187D01*
X190946509Y-124820374D01*
X190865523Y-124798675D01*
X190759227Y-124798675D01*
X190713951Y-124810806D01*
X190656547Y-124826187D01*
X190564500Y-124879331D01*
X190564490Y-124879339D01*
X190489339Y-124954490D01*
X190489331Y-124954500D01*
X190436187Y-125046547D01*
X190436186Y-125046552D01*
X190408675Y-125149227D01*
X169622038Y-125149227D01*
X162541906Y-118069095D01*
X162507880Y-118006783D01*
X162512945Y-117935968D01*
X162541906Y-117890905D01*
X163613896Y-116818916D01*
X163680664Y-116718990D01*
X163726655Y-116607960D01*
X163750100Y-116490090D01*
X163750100Y-116369910D01*
X163726655Y-116252040D01*
X163726653Y-116252037D01*
X163726653Y-116252033D01*
X163680666Y-116141015D01*
X163680664Y-116141010D01*
X163662367Y-116113627D01*
X163613896Y-116041084D01*
X163528916Y-115956104D01*
X163431560Y-115891053D01*
X163428989Y-115889335D01*
X163428984Y-115889333D01*
X163317966Y-115843346D01*
X163200095Y-115819900D01*
X163200090Y-115819900D01*
X163079910Y-115819900D01*
X163079904Y-115819900D01*
X162962033Y-115843346D01*
X162851015Y-115889333D01*
X162851010Y-115889335D01*
X162751085Y-115956103D01*
X162751079Y-115956108D01*
X161679095Y-117028093D01*
X161616783Y-117062119D01*
X161545968Y-117057054D01*
X161500905Y-117028093D01*
X159947005Y-115474193D01*
X159912979Y-115411881D01*
X159910100Y-115385098D01*
X159910100Y-109779911D01*
X159910099Y-109779907D01*
X159886654Y-109662040D01*
X159840664Y-109551009D01*
X159773896Y-109451084D01*
X159773891Y-109451078D01*
X159688921Y-109366108D01*
X159688915Y-109366103D01*
X159588991Y-109299336D01*
X159477965Y-109253348D01*
X159477960Y-109253346D01*
X159360092Y-109229900D01*
X159360090Y-109229900D01*
X159239910Y-109229900D01*
X159239907Y-109229900D01*
X159122039Y-109253346D01*
X159122034Y-109253348D01*
X159011008Y-109299336D01*
X158911084Y-109366103D01*
X158911078Y-109366108D01*
X158826108Y-109451078D01*
X158826103Y-109451084D01*
X158759336Y-109551008D01*
X158713348Y-109662034D01*
X158713346Y-109662039D01*
X158689900Y-109779907D01*
X158689900Y-115750095D01*
X158713344Y-115867957D01*
X158713347Y-115867966D01*
X158731048Y-115910698D01*
X158731048Y-115910700D01*
X158731049Y-115910700D01*
X158759336Y-115978991D01*
X158809329Y-116053811D01*
X158826103Y-116078914D01*
X158826108Y-116078921D01*
X161116104Y-118368916D01*
X172581693Y-129834504D01*
X172581714Y-129834527D01*
X172671078Y-129923891D01*
X172671084Y-129923896D01*
X172771009Y-129990664D01*
X172817000Y-130009713D01*
X172882041Y-130036655D01*
X172999910Y-130060101D01*
X173126303Y-130060101D01*
X173126323Y-130060100D01*
X196090089Y-130060100D01*
X196090090Y-130060100D01*
X196207960Y-130036655D01*
X196286470Y-130004134D01*
X196318991Y-129990664D01*
X196418916Y-129923896D01*
X196503896Y-129838916D01*
X198713896Y-127628916D01*
X198780664Y-127528991D01*
X198794134Y-127496470D01*
X198826655Y-127417960D01*
X198850100Y-127300090D01*
X198850100Y-127179910D01*
X198850100Y-126544811D01*
X202844397Y-126544811D01*
X202844397Y-126544812D01*
X202848899Y-126547820D01*
X203010685Y-126614834D01*
X203010686Y-126614835D01*
X203182438Y-126648999D01*
X203182442Y-126649000D01*
X203357558Y-126649000D01*
X203357561Y-126648999D01*
X203529313Y-126614835D01*
X203529314Y-126614834D01*
X203691099Y-126547820D01*
X203695602Y-126544811D01*
X203270001Y-126119210D01*
X203270000Y-126119210D01*
X202844397Y-126544811D01*
X198850100Y-126544811D01*
X198850100Y-125672438D01*
X202381000Y-125672438D01*
X202381000Y-125847561D01*
X202415164Y-126019313D01*
X202415167Y-126019323D01*
X202482175Y-126181090D01*
X202482181Y-126181102D01*
X202485187Y-126185601D01*
X202910790Y-125759999D01*
X202870663Y-125719872D01*
X202965200Y-125719872D01*
X202965200Y-125800128D01*
X202985972Y-125877648D01*
X203026099Y-125947152D01*
X203082848Y-126003901D01*
X203152352Y-126044028D01*
X203229872Y-126064800D01*
X203310128Y-126064800D01*
X203387648Y-126044028D01*
X203457152Y-126003901D01*
X203513901Y-125947152D01*
X203554028Y-125877648D01*
X203574800Y-125800128D01*
X203574800Y-125759999D01*
X203629210Y-125759999D01*
X203629210Y-125760001D01*
X204054811Y-126185602D01*
X204057820Y-126181099D01*
X204124834Y-126019314D01*
X204124835Y-126019313D01*
X204158999Y-125847561D01*
X204159000Y-125847557D01*
X204159000Y-125672442D01*
X204158999Y-125672438D01*
X204124835Y-125500686D01*
X204124834Y-125500685D01*
X204057820Y-125338899D01*
X204054812Y-125334397D01*
X204054811Y-125334397D01*
X203629210Y-125759999D01*
X203574800Y-125759999D01*
X203574800Y-125719872D01*
X203554028Y-125642352D01*
X203513901Y-125572848D01*
X203457152Y-125516099D01*
X203387648Y-125475972D01*
X203310128Y-125455200D01*
X203229872Y-125455200D01*
X203152352Y-125475972D01*
X203082848Y-125516099D01*
X203026099Y-125572848D01*
X202985972Y-125642352D01*
X202965200Y-125719872D01*
X202870663Y-125719872D01*
X202485187Y-125334396D01*
X202485187Y-125334397D01*
X202482178Y-125338901D01*
X202415165Y-125500685D01*
X202415164Y-125500686D01*
X202381000Y-125672438D01*
X198850100Y-125672438D01*
X198850100Y-124975187D01*
X202844396Y-124975187D01*
X203269999Y-125400790D01*
X203270000Y-125400790D01*
X203695601Y-124975187D01*
X203691102Y-124972181D01*
X203691090Y-124972175D01*
X203529323Y-124905167D01*
X203529313Y-124905164D01*
X203357561Y-124871000D01*
X203182438Y-124871000D01*
X203010686Y-124905164D01*
X203010685Y-124905165D01*
X202848901Y-124972178D01*
X202844397Y-124975187D01*
X202844396Y-124975187D01*
X198850100Y-124975187D01*
X198850100Y-124889910D01*
X198850100Y-124189910D01*
X198850100Y-123145900D01*
X198870102Y-123077779D01*
X198923758Y-123031286D01*
X198976100Y-123019900D01*
X202313946Y-123019900D01*
X202382067Y-123039902D01*
X202428560Y-123093558D01*
X202430355Y-123097682D01*
X202446754Y-123137273D01*
X202538540Y-123274641D01*
X202538545Y-123274647D01*
X202655352Y-123391454D01*
X202655358Y-123391459D01*
X202655360Y-123391461D01*
X202792727Y-123483246D01*
X202945360Y-123546469D01*
X203107395Y-123578700D01*
X203107396Y-123578700D01*
X203272604Y-123578700D01*
X203272605Y-123578700D01*
X203434640Y-123546469D01*
X203587273Y-123483246D01*
X203724640Y-123391461D01*
X203841461Y-123274640D01*
X203933246Y-123137273D01*
X203996469Y-122984640D01*
X204028700Y-122822605D01*
X204028700Y-122657395D01*
X203996469Y-122495360D01*
X203933246Y-122342727D01*
X203841461Y-122205360D01*
X203841459Y-122205358D01*
X203841454Y-122205352D01*
X203724647Y-122088545D01*
X203724641Y-122088540D01*
X203587274Y-121996755D01*
X203587275Y-121996755D01*
X203587273Y-121996754D01*
X203434641Y-121933531D01*
X203272607Y-121901300D01*
X203272605Y-121901300D01*
X203107395Y-121901300D01*
X203107392Y-121901300D01*
X202945358Y-121933531D01*
X202945357Y-121933532D01*
X202792725Y-121996755D01*
X202655358Y-122088540D01*
X202655352Y-122088545D01*
X202538545Y-122205352D01*
X202538540Y-122205358D01*
X202446754Y-122342726D01*
X202430355Y-122382318D01*
X202385807Y-122437599D01*
X202318443Y-122460020D01*
X202313946Y-122460100D01*
X198976100Y-122460100D01*
X198907979Y-122440098D01*
X198861486Y-122386442D01*
X198850100Y-122334100D01*
X198850100Y-108439911D01*
X198850099Y-108439907D01*
X198842062Y-108399500D01*
X198826655Y-108322040D01*
X198781048Y-108211938D01*
X198780830Y-108211257D01*
X198713896Y-108111084D01*
X198677031Y-108074219D01*
X198628916Y-108026104D01*
X197283916Y-106681104D01*
X176648916Y-86046104D01*
X176604311Y-86016300D01*
X176604310Y-86016299D01*
X176548993Y-85979336D01*
X176548986Y-85979333D01*
X176516471Y-85965864D01*
X176516471Y-85965865D01*
X176437965Y-85933347D01*
X176437964Y-85933346D01*
X176437960Y-85933345D01*
X176404282Y-85926646D01*
X176320095Y-85909900D01*
X176320090Y-85909900D01*
X158470090Y-85909900D01*
X147824902Y-85909900D01*
X147756781Y-85889898D01*
X147735807Y-85872995D01*
X146496499Y-84633687D01*
X149396300Y-84633687D01*
X149396300Y-84766313D01*
X149419184Y-84851718D01*
X149430627Y-84894422D01*
X149496937Y-85009275D01*
X149496945Y-85009285D01*
X149590714Y-85103054D01*
X149590719Y-85103058D01*
X149590721Y-85103060D01*
X149705579Y-85169373D01*
X149833687Y-85203700D01*
X149833689Y-85203700D01*
X149966311Y-85203700D01*
X149966313Y-85203700D01*
X150094421Y-85169373D01*
X150209279Y-85103060D01*
X150303060Y-85009279D01*
X150369373Y-84894421D01*
X150403700Y-84766313D01*
X150403700Y-84716169D01*
X150423702Y-84648048D01*
X150440600Y-84627079D01*
X153992678Y-81075000D01*
X153992688Y-81074993D01*
X154064627Y-81003054D01*
X154094080Y-80952040D01*
X154108164Y-80927646D01*
X154130700Y-80843538D01*
X154130700Y-78733829D01*
X154150702Y-78665708D01*
X154167601Y-78644737D01*
X154203060Y-78609279D01*
X154269373Y-78494421D01*
X154303700Y-78366313D01*
X154303700Y-78233687D01*
X154269373Y-78105579D01*
X154203060Y-77990721D01*
X154203058Y-77990719D01*
X154203054Y-77990714D01*
X154109285Y-77896945D01*
X154109275Y-77896937D01*
X153994422Y-77830627D01*
X153951718Y-77819184D01*
X153866313Y-77796300D01*
X153733687Y-77796300D01*
X153669633Y-77813463D01*
X153605577Y-77830627D01*
X153490724Y-77896937D01*
X153490714Y-77896945D01*
X153396945Y-77990714D01*
X153396937Y-77990724D01*
X153330627Y-78105577D01*
X153307742Y-78190984D01*
X153296300Y-78233687D01*
X153296300Y-78366313D01*
X153319184Y-78451718D01*
X153330627Y-78494422D01*
X153396937Y-78609275D01*
X153396939Y-78609278D01*
X153396940Y-78609279D01*
X153432395Y-78644734D01*
X153466420Y-78707044D01*
X153469300Y-78733829D01*
X153469300Y-80610830D01*
X153449298Y-80678951D01*
X153432395Y-80699925D01*
X149972925Y-84159395D01*
X149910613Y-84193421D01*
X149883830Y-84196300D01*
X149833687Y-84196300D01*
X149769633Y-84213463D01*
X149705577Y-84230627D01*
X149590724Y-84296937D01*
X149590714Y-84296945D01*
X149496945Y-84390714D01*
X149496937Y-84390724D01*
X149430627Y-84505577D01*
X149407742Y-84590984D01*
X149396300Y-84633687D01*
X146496499Y-84633687D01*
X146168918Y-84306106D01*
X146168916Y-84306104D01*
X146120420Y-84273700D01*
X146120419Y-84273699D01*
X146068993Y-84239336D01*
X146068986Y-84239333D01*
X146036471Y-84225864D01*
X146036471Y-84225865D01*
X145957965Y-84193347D01*
X145957964Y-84193346D01*
X145957960Y-84193345D01*
X145924282Y-84186646D01*
X145840095Y-84169900D01*
X145840090Y-84169900D01*
X144840090Y-84169900D01*
X133786100Y-84169900D01*
X133717979Y-84149898D01*
X133671486Y-84096242D01*
X133660100Y-84043900D01*
X133660100Y-79917392D01*
X146161300Y-79917392D01*
X146161300Y-79917395D01*
X146161300Y-80082605D01*
X146193531Y-80244640D01*
X146256754Y-80397273D01*
X146256755Y-80397274D01*
X146348540Y-80534641D01*
X146348545Y-80534647D01*
X146465352Y-80651454D01*
X146465358Y-80651459D01*
X146465360Y-80651461D01*
X146602727Y-80743246D01*
X146755360Y-80806469D01*
X146917395Y-80838700D01*
X146917396Y-80838700D01*
X147082604Y-80838700D01*
X147082605Y-80838700D01*
X147244640Y-80806469D01*
X147397273Y-80743246D01*
X147534640Y-80651461D01*
X147651461Y-80534640D01*
X147743246Y-80397273D01*
X147806469Y-80244640D01*
X147838700Y-80082605D01*
X147838700Y-79917395D01*
X147806469Y-79755360D01*
X147743246Y-79602727D01*
X147651461Y-79465360D01*
X147651459Y-79465358D01*
X147651454Y-79465352D01*
X147534647Y-79348545D01*
X147534641Y-79348540D01*
X147397274Y-79256755D01*
X147397275Y-79256755D01*
X147397273Y-79256754D01*
X147244641Y-79193531D01*
X147082607Y-79161300D01*
X147082605Y-79161300D01*
X146917395Y-79161300D01*
X146917392Y-79161300D01*
X146755358Y-79193531D01*
X146755357Y-79193532D01*
X146602725Y-79256755D01*
X146465358Y-79348540D01*
X146465352Y-79348545D01*
X146348545Y-79465352D01*
X146348540Y-79465358D01*
X146256755Y-79602725D01*
X146193532Y-79755357D01*
X146193531Y-79755358D01*
X146161300Y-79917392D01*
X133660100Y-79917392D01*
X133660100Y-74769911D01*
X133660099Y-74769904D01*
X133656316Y-74750886D01*
X133636655Y-74652040D01*
X133593034Y-74546732D01*
X133591357Y-74542046D01*
X133523896Y-74441084D01*
X133438916Y-74356104D01*
X131722694Y-72639882D01*
X129738921Y-70656108D01*
X129738915Y-70656103D01*
X129689291Y-70622946D01*
X129638991Y-70589336D01*
X129638989Y-70589335D01*
X129638983Y-70589331D01*
X129606471Y-70575864D01*
X129606471Y-70575865D01*
X129527965Y-70543347D01*
X129527964Y-70543346D01*
X129527960Y-70543345D01*
X129494282Y-70536646D01*
X129410095Y-70519900D01*
X129410090Y-70519900D01*
X127160090Y-70519900D01*
X127039910Y-70519900D01*
X127039902Y-70519900D01*
X126922045Y-70543343D01*
X126922040Y-70543344D01*
X126922040Y-70543345D01*
X126843529Y-70575865D01*
X126811009Y-70589335D01*
X126811007Y-70589336D01*
X126711084Y-70656103D01*
X126616104Y-70751084D01*
X126616103Y-70751085D01*
X126549335Y-70851010D01*
X126549333Y-70851015D01*
X126503346Y-70962033D01*
X126479900Y-71079904D01*
X126479900Y-71200095D01*
X126503346Y-71317966D01*
X126549333Y-71428984D01*
X126549335Y-71428989D01*
X126549336Y-71428990D01*
X126616104Y-71528916D01*
X126701084Y-71613896D01*
X126801010Y-71680664D01*
X126801015Y-71680666D01*
X126912033Y-71726653D01*
X126912037Y-71726653D01*
X126912040Y-71726655D01*
X127001442Y-71744437D01*
X127029904Y-71750099D01*
X127029907Y-71750099D01*
X127029910Y-71750100D01*
X127029911Y-71750100D01*
X127150089Y-71750100D01*
X127150090Y-71750100D01*
X127188193Y-71742520D01*
X127212775Y-71740100D01*
X129045098Y-71740100D01*
X129113219Y-71760102D01*
X129134193Y-71777005D01*
X132402995Y-75045807D01*
X132437021Y-75108119D01*
X132439900Y-75134902D01*
X132439900Y-83201022D01*
X132419898Y-83269143D01*
X132366242Y-83315636D01*
X132295968Y-83325740D01*
X132250902Y-83310142D01*
X132234421Y-83300627D01*
X132106313Y-83266300D01*
X131973687Y-83266300D01*
X131930456Y-83277884D01*
X131845577Y-83300627D01*
X131730724Y-83366937D01*
X131730714Y-83366945D01*
X131636945Y-83460714D01*
X131636937Y-83460724D01*
X131570627Y-83575577D01*
X131547742Y-83660984D01*
X131536300Y-83703687D01*
X131536300Y-83836313D01*
X131570627Y-83964421D01*
X131580142Y-83980901D01*
X131596879Y-84049897D01*
X131573658Y-84116988D01*
X131517850Y-84160875D01*
X131471022Y-84169900D01*
X116536100Y-84169900D01*
X116467979Y-84149898D01*
X116421486Y-84096242D01*
X116410100Y-84043900D01*
X116410100Y-82266852D01*
X117246300Y-82266852D01*
X117246300Y-82373148D01*
X117270562Y-82463699D01*
X117273812Y-82475827D01*
X117326956Y-82567874D01*
X117326964Y-82567884D01*
X117402115Y-82643035D01*
X117402120Y-82643039D01*
X117402122Y-82643041D01*
X117402123Y-82643042D01*
X117402125Y-82643043D01*
X117494172Y-82696187D01*
X117494174Y-82696187D01*
X117494177Y-82696189D01*
X117596852Y-82723700D01*
X117596853Y-82723700D01*
X117703146Y-82723700D01*
X117703148Y-82723700D01*
X117805823Y-82696189D01*
X117866891Y-82660931D01*
X117894386Y-82654260D01*
X117920901Y-82644371D01*
X117928413Y-82646005D01*
X117935883Y-82644193D01*
X117962620Y-82653446D01*
X117990275Y-82659462D01*
X117999105Y-82666072D01*
X118002975Y-82667412D01*
X118018985Y-82680955D01*
X118079292Y-82741262D01*
X118131406Y-82793376D01*
X118195231Y-82830225D01*
X118266418Y-82849300D01*
X118480300Y-82849300D01*
X118548421Y-82869302D01*
X118594914Y-82922958D01*
X118606300Y-82975300D01*
X118606300Y-82976852D01*
X118606300Y-83083148D01*
X118630562Y-83173699D01*
X118633812Y-83185827D01*
X118686956Y-83277874D01*
X118686964Y-83277884D01*
X118762115Y-83353035D01*
X118762120Y-83353039D01*
X118762122Y-83353041D01*
X118762123Y-83353042D01*
X118762125Y-83353043D01*
X118854172Y-83406187D01*
X118854174Y-83406187D01*
X118854177Y-83406189D01*
X118956852Y-83433700D01*
X118956853Y-83433700D01*
X119063146Y-83433700D01*
X119063148Y-83433700D01*
X119165823Y-83406189D01*
X119165826Y-83406187D01*
X119165827Y-83406187D01*
X119211850Y-83379615D01*
X119257878Y-83353041D01*
X119257884Y-83353035D01*
X119264115Y-83346805D01*
X119326427Y-83312779D01*
X119353210Y-83309900D01*
X129366850Y-83309900D01*
X129438037Y-83290825D01*
X129501862Y-83253976D01*
X130575234Y-82180605D01*
X130637546Y-82146579D01*
X130664329Y-82143700D01*
X130673146Y-82143700D01*
X130673148Y-82143700D01*
X130775823Y-82116189D01*
X130775826Y-82116187D01*
X130775827Y-82116187D01*
X130852161Y-82072115D01*
X130867878Y-82063041D01*
X130943041Y-81987878D01*
X130996189Y-81895823D01*
X131023700Y-81793148D01*
X131023700Y-81686852D01*
X130996189Y-81584177D01*
X130996187Y-81584174D01*
X130996187Y-81584172D01*
X130943043Y-81492125D01*
X130943035Y-81492115D01*
X130867884Y-81416964D01*
X130867874Y-81416956D01*
X130775827Y-81363812D01*
X130754134Y-81357999D01*
X130673148Y-81336300D01*
X130566852Y-81336300D01*
X130521576Y-81348431D01*
X130464172Y-81363812D01*
X130372125Y-81416956D01*
X130372118Y-81416961D01*
X130353286Y-81435794D01*
X130290973Y-81469818D01*
X130220157Y-81464752D01*
X130195139Y-81450897D01*
X130195030Y-81451088D01*
X130095827Y-81393812D01*
X130074134Y-81387999D01*
X129993148Y-81366300D01*
X129886852Y-81366300D01*
X129841576Y-81378431D01*
X129784172Y-81393812D01*
X129692125Y-81446956D01*
X129692115Y-81446964D01*
X129634095Y-81504985D01*
X129571783Y-81539011D01*
X129500968Y-81533946D01*
X129465212Y-81510966D01*
X129464430Y-81511987D01*
X129457874Y-81506956D01*
X129365827Y-81453812D01*
X129307523Y-81438190D01*
X129263148Y-81426300D01*
X129156852Y-81426300D01*
X129121419Y-81435794D01*
X129054172Y-81453812D01*
X128962125Y-81506956D01*
X128962115Y-81506964D01*
X128886964Y-81582115D01*
X128886956Y-81582125D01*
X128833812Y-81674172D01*
X128818431Y-81731576D01*
X128808605Y-81768252D01*
X128806300Y-81776853D01*
X128806300Y-81785672D01*
X128797516Y-81815587D01*
X128790888Y-81846057D01*
X128787073Y-81851152D01*
X128786298Y-81853793D01*
X128769395Y-81874767D01*
X128670967Y-81973195D01*
X128608655Y-82007221D01*
X128581872Y-82010100D01*
X128189530Y-82010100D01*
X128121409Y-81990098D01*
X128074916Y-81936442D01*
X128066871Y-81882806D01*
X128063700Y-81882806D01*
X128063700Y-81768253D01*
X128063700Y-81768252D01*
X128036189Y-81665577D01*
X128036187Y-81665574D01*
X128036187Y-81665572D01*
X127996781Y-81597319D01*
X127979900Y-81534319D01*
X127979900Y-76443209D01*
X127999902Y-76375088D01*
X128016803Y-76354115D01*
X128023041Y-76347878D01*
X128076189Y-76255823D01*
X128103700Y-76153148D01*
X128103700Y-76046852D01*
X128076189Y-75944177D01*
X128076187Y-75944174D01*
X128076187Y-75944172D01*
X128023043Y-75852125D01*
X128023035Y-75852115D01*
X127947884Y-75776964D01*
X127947874Y-75776956D01*
X127855827Y-75723812D01*
X127834134Y-75717999D01*
X127753148Y-75696300D01*
X127646852Y-75696300D01*
X127601576Y-75708431D01*
X127544172Y-75723812D01*
X127452125Y-75776956D01*
X127452115Y-75776964D01*
X127376964Y-75852115D01*
X127376956Y-75852125D01*
X127323812Y-75944172D01*
X127323811Y-75944177D01*
X127296300Y-76046852D01*
X127296300Y-76153148D01*
X127305495Y-76187465D01*
X127323812Y-76255827D01*
X127376956Y-76347874D01*
X127376959Y-76347878D01*
X127383193Y-76354112D01*
X127417219Y-76416421D01*
X127420100Y-76443209D01*
X127420100Y-81438190D01*
X127400098Y-81506311D01*
X127383195Y-81527285D01*
X127336964Y-81573515D01*
X127336956Y-81573525D01*
X127283812Y-81665572D01*
X127256300Y-81768253D01*
X127256300Y-81882806D01*
X127253035Y-81882806D01*
X127244438Y-81937833D01*
X127197296Y-81990919D01*
X127130470Y-82010100D01*
X118798128Y-82010100D01*
X118768212Y-82001316D01*
X118737743Y-81994688D01*
X118732647Y-81990873D01*
X118730007Y-81990098D01*
X118709033Y-81973195D01*
X118690605Y-81954767D01*
X118656579Y-81892455D01*
X118653700Y-81865672D01*
X118653700Y-81856853D01*
X118652880Y-81853793D01*
X118626189Y-81754177D01*
X118626187Y-81754174D01*
X118626187Y-81754172D01*
X118573043Y-81662125D01*
X118573035Y-81662115D01*
X118497884Y-81586964D01*
X118497874Y-81586956D01*
X118405827Y-81533812D01*
X118362198Y-81522122D01*
X118303148Y-81506300D01*
X118196852Y-81506300D01*
X118151576Y-81518431D01*
X118094172Y-81533812D01*
X118002125Y-81586956D01*
X118002115Y-81586964D01*
X117926964Y-81662115D01*
X117926956Y-81662125D01*
X117873812Y-81754172D01*
X117854460Y-81826398D01*
X117817508Y-81887021D01*
X117753648Y-81918042D01*
X117711511Y-81916039D01*
X117711335Y-81917378D01*
X117703148Y-81916300D01*
X117596852Y-81916300D01*
X117590351Y-81918042D01*
X117494172Y-81943812D01*
X117402125Y-81996956D01*
X117402115Y-81996964D01*
X117326964Y-82072115D01*
X117326956Y-82072125D01*
X117273812Y-82164172D01*
X117273811Y-82164177D01*
X117246300Y-82266852D01*
X116410100Y-82266852D01*
X116410100Y-81069911D01*
X116410099Y-81069907D01*
X116409049Y-81064626D01*
X116386654Y-80952040D01*
X116340664Y-80841009D01*
X116273896Y-80741084D01*
X116273891Y-80741078D01*
X116188921Y-80656108D01*
X116188916Y-80656104D01*
X116161296Y-80637648D01*
X116115769Y-80583169D01*
X116105300Y-80532884D01*
X116105300Y-77299808D01*
X116084494Y-77222158D01*
X116084494Y-77222157D01*
X116044301Y-77152542D01*
X116044299Y-77152539D01*
X114802205Y-75910445D01*
X114768179Y-75848133D01*
X114765300Y-75821350D01*
X114765300Y-73989230D01*
X114785302Y-73921109D01*
X114802205Y-73900135D01*
X114863054Y-73839285D01*
X114863060Y-73839279D01*
X114929373Y-73724421D01*
X114963700Y-73596313D01*
X114963700Y-73463687D01*
X114929373Y-73335579D01*
X114863060Y-73220721D01*
X114863058Y-73220719D01*
X114863054Y-73220714D01*
X114769285Y-73126945D01*
X114769275Y-73126937D01*
X114654422Y-73060627D01*
X114611718Y-73049184D01*
X114526313Y-73026300D01*
X114393687Y-73026300D01*
X114329633Y-73043463D01*
X114265577Y-73060627D01*
X114150724Y-73126937D01*
X114150714Y-73126945D01*
X114056945Y-73220714D01*
X114056937Y-73220724D01*
X113990627Y-73335577D01*
X113967742Y-73420984D01*
X113956300Y-73463687D01*
X85200500Y-73463687D01*
X85200500Y-59960117D01*
X86799500Y-59960117D01*
X86799500Y-72639882D01*
X86830023Y-72713573D01*
X86830026Y-72713577D01*
X86886422Y-72769973D01*
X86886426Y-72769976D01*
X86960118Y-72800500D01*
X99539882Y-72800500D01*
X99613574Y-72769976D01*
X99669976Y-72713574D01*
X99700500Y-72639882D01*
X99700500Y-59960118D01*
X99669976Y-59886426D01*
X99669973Y-59886422D01*
X99613577Y-59830026D01*
X99613573Y-59830023D01*
X99539882Y-59799500D01*
X87039882Y-59799500D01*
X86960118Y-59799500D01*
X86886426Y-59830023D01*
X86886422Y-59830026D01*
X86830026Y-59886422D01*
X86830023Y-59886426D01*
X86799500Y-59960117D01*
X85200500Y-59960117D01*
X85200500Y-53334122D01*
X95046300Y-53334122D01*
X95046300Y-53665877D01*
X95083445Y-53995546D01*
X95121876Y-54163925D01*
X95157266Y-54318977D01*
X95157268Y-54318983D01*
X95157267Y-54318983D01*
X95266830Y-54632095D01*
X95266841Y-54632122D01*
X95410780Y-54931015D01*
X95587284Y-55211918D01*
X95587288Y-55211924D01*
X95794125Y-55471287D01*
X95794134Y-55471297D01*
X96028702Y-55705865D01*
X96028712Y-55705874D01*
X96288075Y-55912711D01*
X96288082Y-55912715D01*
X96288085Y-55912718D01*
X96424778Y-55998607D01*
X96568984Y-56089219D01*
X96568987Y-56089220D01*
X96568988Y-56089221D01*
X96867887Y-56233163D01*
X96867903Y-56233168D01*
X96867904Y-56233169D01*
X97181016Y-56342732D01*
X97181019Y-56342732D01*
X97181023Y-56342734D01*
X97504457Y-56416555D01*
X97738220Y-56442894D01*
X97834122Y-56453700D01*
X97834124Y-56453700D01*
X98165878Y-56453700D01*
X98249601Y-56444266D01*
X98495543Y-56416555D01*
X98818977Y-56342734D01*
X99132113Y-56233163D01*
X99431012Y-56089221D01*
X99711915Y-55912718D01*
X99971289Y-55705873D01*
X100205873Y-55471289D01*
X100412718Y-55211915D01*
X100589221Y-54931012D01*
X100733163Y-54632113D01*
X100842734Y-54318977D01*
X100916555Y-53995543D01*
X100953700Y-53665876D01*
X100953700Y-53334124D01*
X100953700Y-53334122D01*
X205046300Y-53334122D01*
X205046300Y-53665877D01*
X205083445Y-53995546D01*
X205121876Y-54163925D01*
X205157266Y-54318977D01*
X205157268Y-54318983D01*
X205157267Y-54318983D01*
X205266830Y-54632095D01*
X205266841Y-54632122D01*
X205410780Y-54931015D01*
X205587284Y-55211918D01*
X205587288Y-55211924D01*
X205794125Y-55471287D01*
X205794134Y-55471297D01*
X206028702Y-55705865D01*
X206028712Y-55705874D01*
X206288075Y-55912711D01*
X206288082Y-55912715D01*
X206288085Y-55912718D01*
X206424778Y-55998607D01*
X206568984Y-56089219D01*
X206568987Y-56089220D01*
X206568988Y-56089221D01*
X206867887Y-56233163D01*
X206867903Y-56233168D01*
X206867904Y-56233169D01*
X207181016Y-56342732D01*
X207181019Y-56342732D01*
X207181023Y-56342734D01*
X207504457Y-56416555D01*
X207738220Y-56442894D01*
X207834122Y-56453700D01*
X207834124Y-56453700D01*
X208165878Y-56453700D01*
X208249601Y-56444266D01*
X208495543Y-56416555D01*
X208818977Y-56342734D01*
X209132113Y-56233163D01*
X209431012Y-56089221D01*
X209711915Y-55912718D01*
X209971289Y-55705873D01*
X210205873Y-55471289D01*
X210412718Y-55211915D01*
X210589221Y-54931012D01*
X210733163Y-54632113D01*
X210842734Y-54318977D01*
X210916555Y-53995543D01*
X210953700Y-53665876D01*
X210953700Y-53334124D01*
X210916555Y-53004457D01*
X210842734Y-52681023D01*
X210733163Y-52367887D01*
X210589221Y-52068988D01*
X210589220Y-52068987D01*
X210589219Y-52068984D01*
X210412715Y-51788081D01*
X210412711Y-51788075D01*
X210205874Y-51528712D01*
X210205865Y-51528702D01*
X209971297Y-51294134D01*
X209971287Y-51294125D01*
X209711924Y-51087288D01*
X209711918Y-51087284D01*
X209431015Y-50910780D01*
X209132122Y-50766841D01*
X209132117Y-50766839D01*
X209132113Y-50766837D01*
X209132107Y-50766834D01*
X209132095Y-50766830D01*
X208818983Y-50657267D01*
X208495546Y-50583445D01*
X208165878Y-50546300D01*
X208165876Y-50546300D01*
X207834124Y-50546300D01*
X207834122Y-50546300D01*
X207504453Y-50583445D01*
X207181016Y-50657267D01*
X206867904Y-50766830D01*
X206867877Y-50766841D01*
X206568984Y-50910780D01*
X206288081Y-51087284D01*
X206288075Y-51087288D01*
X206028712Y-51294125D01*
X206028702Y-51294134D01*
X205794134Y-51528702D01*
X205794125Y-51528712D01*
X205587288Y-51788075D01*
X205587284Y-51788081D01*
X205410780Y-52068984D01*
X205266841Y-52367877D01*
X205266830Y-52367904D01*
X205157267Y-52681016D01*
X205083445Y-53004453D01*
X205046300Y-53334122D01*
X100953700Y-53334122D01*
X100916555Y-53004457D01*
X100842734Y-52681023D01*
X100733163Y-52367887D01*
X100589221Y-52068988D01*
X100589220Y-52068987D01*
X100589219Y-52068984D01*
X100412715Y-51788081D01*
X100412711Y-51788075D01*
X100205874Y-51528712D01*
X100205865Y-51528702D01*
X99971297Y-51294134D01*
X99971287Y-51294125D01*
X99711924Y-51087288D01*
X99711918Y-51087284D01*
X99431015Y-50910780D01*
X99132122Y-50766841D01*
X99132117Y-50766839D01*
X99132113Y-50766837D01*
X99132107Y-50766834D01*
X99132095Y-50766830D01*
X98818983Y-50657267D01*
X98495546Y-50583445D01*
X98165878Y-50546300D01*
X98165876Y-50546300D01*
X97834124Y-50546300D01*
X97834122Y-50546300D01*
X97504453Y-50583445D01*
X97181016Y-50657267D01*
X96867904Y-50766830D01*
X96867877Y-50766841D01*
X96568984Y-50910780D01*
X96288081Y-51087284D01*
X96288075Y-51087288D01*
X96028712Y-51294125D01*
X96028702Y-51294134D01*
X95794134Y-51528702D01*
X95794125Y-51528712D01*
X95587288Y-51788075D01*
X95587284Y-51788081D01*
X95410780Y-52068984D01*
X95266841Y-52367877D01*
X95266830Y-52367904D01*
X95157267Y-52681016D01*
X95083445Y-53004453D01*
X95046300Y-53334122D01*
X85200500Y-53334122D01*
X85200500Y-51004956D01*
X85200888Y-50995070D01*
X85215721Y-50806599D01*
X85218814Y-50787071D01*
X85223672Y-50766837D01*
X85261788Y-50608069D01*
X85267897Y-50589270D01*
X85285696Y-50546300D01*
X85338343Y-50419197D01*
X85347314Y-50401591D01*
X85443508Y-50244616D01*
X85455114Y-50228642D01*
X85574681Y-50088647D01*
X85588645Y-50074683D01*
X85728634Y-49955121D01*
X85744622Y-49943504D01*
X85901589Y-49847315D01*
X85919190Y-49838347D01*
X86089283Y-49767891D01*
X86108066Y-49761789D01*
X86287068Y-49718813D01*
X86306585Y-49715721D01*
X86495067Y-49700887D01*
X86504953Y-49700500D01*
X86539879Y-49700500D01*
X219448119Y-49700500D01*
X219448139Y-49700502D01*
G37*
%TD.AperFunction*%
M02*
