%TF.GenerationSoftware,KiCad,Pcbnew,9.0.5-9.0.5~ubuntu24.04.1*%
%TF.CreationDate,2025-10-22T15:11:24+02:00*%
%TF.ProjectId,BB3plus DVID TFT display,42423370-6c75-4732-9044-564944205446,r1B1*%
%TF.SameCoordinates,Original*%
%TF.FileFunction,Soldermask,Bot*%
%TF.FilePolarity,Negative*%
%FSLAX46Y46*%
G04 Gerber Fmt 4.6, Leading zero omitted, Abs format (unit mm)*
G04 Created by KiCad (PCBNEW 9.0.5-9.0.5~ubuntu24.04.1) date 2025-10-22 15:11:24*
%MOMM*%
%LPD*%
G01*
G04 APERTURE LIST*
G04 Aperture macros list*
%AMRoundRect*
0 Rectangle with rounded corners*
0 $1 Rounding radius*
0 $2 $3 $4 $5 $6 $7 $8 $9 X,Y pos of 4 corners*
0 Add a 4 corners polygon primitive as box body*
4,1,4,$2,$3,$4,$5,$6,$7,$8,$9,$2,$3,0*
0 Add four circle primitives for the rounded corners*
1,1,$1+$1,$2,$3*
1,1,$1+$1,$4,$5*
1,1,$1+$1,$6,$7*
1,1,$1+$1,$8,$9*
0 Add four rect primitives between the rounded corners*
20,1,$1+$1,$2,$3,$4,$5,0*
20,1,$1+$1,$4,$5,$6,$7,0*
20,1,$1+$1,$6,$7,$8,$9,0*
20,1,$1+$1,$8,$9,$2,$3,0*%
G04 Aperture macros list end*
%ADD10C,1.500000*%
%ADD11R,0.300000X0.800000*%
%ADD12R,0.400000X0.800000*%
%ADD13RoundRect,0.225000X0.225000X0.250000X-0.225000X0.250000X-0.225000X-0.250000X0.225000X-0.250000X0*%
%ADD14C,5.500000*%
%ADD15RoundRect,0.057252X0.506248X0.556248X-0.506248X0.556248X-0.506248X-0.556248X0.506248X-0.556248X0*%
%ADD16RoundRect,0.225000X-0.225000X-0.250000X0.225000X-0.250000X0.225000X0.250000X-0.225000X0.250000X0*%
%ADD17RoundRect,0.225000X0.250000X-0.225000X0.250000X0.225000X-0.250000X0.225000X-0.250000X-0.225000X0*%
%ADD18RoundRect,0.102000X-1.200000X1.150000X-1.200000X-1.150000X1.200000X-1.150000X1.200000X1.150000X0*%
%ADD19R,1.092200X0.762000*%
%ADD20R,0.762000X1.092200*%
%ADD21RoundRect,0.063568X0.874932X2.249932X-0.874932X2.249932X-0.874932X-2.249932X0.874932X-2.249932X0*%
%ADD22RoundRect,0.063568X-0.874932X2.249932X-0.874932X-2.249932X0.874932X-2.249932X0.874932X2.249932X0*%
%ADD23RoundRect,0.225000X-0.250000X0.225000X-0.250000X-0.225000X0.250000X-0.225000X0.250000X0.225000X0*%
%ADD24RoundRect,0.200000X0.275000X-0.200000X0.275000X0.200000X-0.275000X0.200000X-0.275000X-0.200000X0*%
%ADD25R,0.300000X1.000000*%
%ADD26R,2.000000X1.300000*%
%ADD27RoundRect,0.057252X0.556248X-0.506248X0.556248X0.506248X-0.556248X0.506248X-0.556248X-0.506248X0*%
%ADD28RoundRect,0.069233X0.169267X-0.794267X0.169267X0.794267X-0.169267X0.794267X-0.169267X-0.794267X0*%
%ADD29RoundRect,0.066929X-0.196571X-0.421571X0.196571X-0.421571X0.196571X0.421571X-0.196571X0.421571X0*%
%ADD30RoundRect,0.250000X-0.450000X0.262500X-0.450000X-0.262500X0.450000X-0.262500X0.450000X0.262500X0*%
%ADD31RoundRect,0.250000X-0.262500X-0.450000X0.262500X-0.450000X0.262500X0.450000X-0.262500X0.450000X0*%
%ADD32C,1.270000*%
%ADD33RoundRect,0.057252X-0.506248X-0.556248X0.506248X-0.556248X0.506248X0.556248X-0.506248X0.556248X0*%
%ADD34RoundRect,0.200000X-0.275000X0.200000X-0.275000X-0.200000X0.275000X-0.200000X0.275000X0.200000X0*%
%ADD35RoundRect,0.076200X-0.736600X-0.139700X0.736600X-0.139700X0.736600X0.139700X-0.736600X0.139700X0*%
%ADD36RoundRect,0.076200X-0.139700X-0.736600X0.139700X-0.736600X0.139700X0.736600X-0.139700X0.736600X0*%
%ADD37RoundRect,0.102000X-2.997200X-2.997200X2.997200X-2.997200X2.997200X2.997200X-2.997200X2.997200X0*%
%ADD38RoundRect,0.069233X-0.169267X0.794267X-0.169267X-0.794267X0.169267X-0.794267X0.169267X0.794267X0*%
%ADD39RoundRect,0.102000X0.125000X0.650000X-0.125000X0.650000X-0.125000X-0.650000X0.125000X-0.650000X0*%
%ADD40RoundRect,0.102000X0.865000X1.400000X-0.865000X1.400000X-0.865000X-1.400000X0.865000X-1.400000X0*%
G04 APERTURE END LIST*
D10*
X219500000Y-140000000D03*
X86500000Y-140000000D03*
X219500000Y-51000000D03*
X86500000Y-51000000D03*
D11*
X115750000Y-89780000D03*
X116250000Y-89780000D03*
X116750000Y-89780000D03*
X117250000Y-89780000D03*
X117750000Y-89780000D03*
X118250000Y-89780000D03*
D12*
X119250000Y-92280000D03*
X114750000Y-92280000D03*
D13*
X164705000Y-95080000D03*
X166255000Y-95080000D03*
D14*
X211000000Y-53500000D03*
X211000000Y-137500000D03*
X95000000Y-137500000D03*
X95000000Y-53500000D03*
D15*
X131960000Y-70680000D03*
X130260000Y-70680000D03*
D16*
X180615000Y-102040000D03*
X182165000Y-102040000D03*
D17*
X117270000Y-88140000D03*
X117270000Y-86590000D03*
D18*
X90750000Y-95150000D03*
X90750000Y-109450000D03*
X95750000Y-95150000D03*
X95750000Y-109450000D03*
D19*
X123591100Y-81990000D03*
X126308900Y-81990000D03*
D20*
X125925000Y-76641100D03*
X125925000Y-79358900D03*
D18*
X90750000Y-59150000D03*
X90750000Y-73450000D03*
X95750000Y-59150000D03*
X95750000Y-73450000D03*
D21*
X128165000Y-76930000D03*
D22*
X131415000Y-76930000D03*
D23*
X173750000Y-114235000D03*
X173750000Y-115785000D03*
D13*
X115805000Y-80530000D03*
X114255000Y-80530000D03*
D24*
X141020000Y-81870000D03*
X141020000Y-83520000D03*
D25*
X197850001Y-124590000D03*
X197350002Y-124590000D03*
X196850000Y-124590000D03*
X196350001Y-124590000D03*
X195850000Y-124590000D03*
X195350001Y-124590000D03*
X194850002Y-124590000D03*
X194350000Y-124590000D03*
X193850001Y-124590000D03*
X193349999Y-124590000D03*
X192850001Y-124590000D03*
X192350001Y-124590000D03*
X191850000Y-124590000D03*
X191350001Y-124590000D03*
X190849999Y-124590000D03*
X190350000Y-124590000D03*
X189850001Y-124590000D03*
X189350000Y-124590000D03*
X188850001Y-124590000D03*
X188350002Y-124590000D03*
X187850000Y-124590000D03*
X187350001Y-124590000D03*
D26*
X200149991Y-127289999D03*
X185050011Y-127289999D03*
D16*
X148540000Y-78905000D03*
X150090000Y-78905000D03*
D13*
X161920000Y-102190000D03*
X160370000Y-102190000D03*
D23*
X161480000Y-111291000D03*
X161480000Y-112841000D03*
D27*
X160170000Y-109840000D03*
X160170000Y-108140000D03*
D16*
X127415000Y-80200000D03*
X128965000Y-80200000D03*
X148540000Y-80375000D03*
X150090000Y-80375000D03*
D17*
X142380000Y-81974000D03*
X142380000Y-83524000D03*
D13*
X131670000Y-73130000D03*
X130120000Y-73130000D03*
D16*
X180605000Y-106910000D03*
X182155000Y-106910000D03*
D15*
X181000000Y-114150000D03*
X179300000Y-114150000D03*
D23*
X164800000Y-114235000D03*
X164800000Y-115785000D03*
X158600000Y-111281000D03*
X158600000Y-112831000D03*
D28*
X147350000Y-80330000D03*
X146700000Y-80330000D03*
X146050000Y-80330000D03*
X145400000Y-80330000D03*
X144750000Y-80330000D03*
X144100000Y-80330000D03*
X143450000Y-80330000D03*
X142800000Y-80330000D03*
X142800000Y-74730000D03*
X143450000Y-74730000D03*
X144100000Y-74730000D03*
X144750000Y-74730000D03*
X145400000Y-74730000D03*
X146050000Y-74730000D03*
X146700000Y-74730000D03*
X147350000Y-74730000D03*
D16*
X114460000Y-72900000D03*
X116010000Y-72900000D03*
X117560000Y-72900000D03*
D17*
X173650000Y-95550000D03*
X173650000Y-94000000D03*
D23*
X166270000Y-114235000D03*
X166270000Y-115785000D03*
X161880000Y-108245000D03*
X161880000Y-109795000D03*
D29*
X126425000Y-75120000D03*
X125775000Y-75120000D03*
X125125000Y-75120000D03*
X125125000Y-72870000D03*
X126425000Y-72870000D03*
D16*
X129675000Y-84990000D03*
X128125000Y-84990000D03*
D17*
X171520000Y-95555000D03*
X171520000Y-94005000D03*
D30*
X123940000Y-77535000D03*
X123940000Y-79360000D03*
D18*
X90750000Y-113150000D03*
X90750000Y-127450000D03*
X95750000Y-113150000D03*
X95750000Y-127450000D03*
D31*
X126927500Y-71140000D03*
X128752500Y-71140000D03*
D18*
X90750000Y-77150000D03*
X90750000Y-91450000D03*
X95750000Y-77150000D03*
X95750000Y-91450000D03*
D32*
X130190000Y-81940000D03*
D33*
X121490000Y-71180000D03*
X123190000Y-71180000D03*
D23*
X177100000Y-114235000D03*
X177100000Y-115785000D03*
D34*
X161440000Y-114245000D03*
X161440000Y-115895000D03*
D35*
X163538400Y-110894400D03*
X163538400Y-110411800D03*
X163538400Y-109903800D03*
X163538400Y-109395800D03*
X163538400Y-108887800D03*
X163538400Y-108405200D03*
X163538400Y-107897200D03*
X163538400Y-107389200D03*
X163538400Y-106906600D03*
X163538400Y-106398600D03*
X163538400Y-105890600D03*
X163538400Y-105408000D03*
X163538400Y-104900000D03*
X163538400Y-104392000D03*
X163538400Y-103909400D03*
X163538400Y-103401400D03*
X163538400Y-102893400D03*
X163538400Y-102410800D03*
X163538400Y-101902800D03*
X163538400Y-101394800D03*
X163538400Y-100912200D03*
X163538400Y-100404200D03*
X163538400Y-99896200D03*
X163538400Y-99388200D03*
X163538400Y-98905600D03*
D36*
X165265600Y-97178400D03*
X165748200Y-97178400D03*
X166256200Y-97178400D03*
X166764200Y-97178400D03*
X167272200Y-97178400D03*
X167754800Y-97178400D03*
X168262800Y-97178400D03*
X168770800Y-97178400D03*
X169253400Y-97178400D03*
X169761400Y-97178400D03*
X170269400Y-97178400D03*
X170752000Y-97178400D03*
X171260000Y-97178400D03*
X171768000Y-97178400D03*
X172250600Y-97178400D03*
X172758600Y-97178400D03*
X173266600Y-97178400D03*
X173749200Y-97178400D03*
X174257200Y-97178400D03*
X174765200Y-97178400D03*
X175247800Y-97178400D03*
X175755800Y-97178400D03*
X176263800Y-97178400D03*
X176771800Y-97178400D03*
X177254400Y-97178400D03*
D35*
X178981600Y-98905600D03*
X178981600Y-99388200D03*
X178981600Y-99896200D03*
X178981600Y-100404200D03*
X178981600Y-100912200D03*
X178981600Y-101394800D03*
X178981600Y-101902800D03*
X178981600Y-102410800D03*
X178981600Y-102893400D03*
X178981600Y-103401400D03*
X178981600Y-103909400D03*
X178981600Y-104392000D03*
X178981600Y-104900000D03*
X178981600Y-105408000D03*
X178981600Y-105890600D03*
X178981600Y-106398600D03*
X178981600Y-106906600D03*
X178981600Y-107389200D03*
X178981600Y-107897200D03*
X178981600Y-108405200D03*
X178981600Y-108887800D03*
X178981600Y-109395800D03*
X178981600Y-109903800D03*
X178981600Y-110411800D03*
X178981600Y-110894400D03*
D36*
X177254400Y-112621600D03*
X176771800Y-112621600D03*
X176263800Y-112621600D03*
X175755800Y-112621600D03*
X175247800Y-112621600D03*
X174765200Y-112621600D03*
X174257200Y-112621600D03*
X173749200Y-112621600D03*
X173266600Y-112621600D03*
X172758600Y-112621600D03*
X172250600Y-112621600D03*
X171768000Y-112621600D03*
X171260000Y-112621600D03*
X170752000Y-112621600D03*
X170269400Y-112621600D03*
X169761400Y-112621600D03*
X169253400Y-112621600D03*
X168770800Y-112621600D03*
X168262800Y-112621600D03*
X167754800Y-112621600D03*
X167272200Y-112621600D03*
X166764200Y-112621600D03*
X166256200Y-112621600D03*
X165748200Y-112621600D03*
X165265600Y-112621600D03*
D37*
X171260000Y-104900000D03*
D24*
X160060000Y-112885000D03*
X160060000Y-111235000D03*
D32*
X203270000Y-125760000D03*
D27*
X163110000Y-115840000D03*
X163110000Y-114140000D03*
D23*
X171260000Y-114245000D03*
X171260000Y-115795000D03*
D16*
X179460000Y-115800000D03*
X181010000Y-115800000D03*
D32*
X203190000Y-122740000D03*
D15*
X182150000Y-100400000D03*
X180450000Y-100400000D03*
D23*
X167750000Y-114235000D03*
X167750000Y-115785000D03*
D38*
X117000000Y-74900000D03*
X117650000Y-74900000D03*
X118300000Y-74900000D03*
X118950000Y-74900000D03*
X119600000Y-74900000D03*
X120250000Y-74900000D03*
X120900000Y-74900000D03*
X121550000Y-74900000D03*
X121550000Y-80500000D03*
X120900000Y-80500000D03*
X120250000Y-80500000D03*
X119600000Y-80500000D03*
X118950000Y-80500000D03*
X118300000Y-80500000D03*
X117650000Y-80500000D03*
X117000000Y-80500000D03*
D39*
X125850000Y-86920000D03*
X126350000Y-86920000D03*
X126850000Y-86920000D03*
X127350000Y-86920000D03*
X127850000Y-86920000D03*
X128350000Y-86920000D03*
X128850000Y-86920000D03*
X129350000Y-86920000D03*
X129850000Y-86920000D03*
X130350000Y-86920000D03*
X130850000Y-86920000D03*
X131350000Y-86920000D03*
X131850000Y-86920000D03*
X132350000Y-86920000D03*
X132850000Y-86920000D03*
X133350000Y-86920000D03*
X133850000Y-86920000D03*
X134350000Y-86920000D03*
X134850000Y-86920000D03*
X135350000Y-86920000D03*
X135850000Y-86920000D03*
X136350000Y-86920000D03*
X136850000Y-86920000D03*
X137350000Y-86920000D03*
X137850000Y-86920000D03*
X138350000Y-86920000D03*
X138850000Y-86920000D03*
X139350000Y-86920000D03*
X139850000Y-86920000D03*
X140350000Y-86920000D03*
X140850000Y-86920000D03*
X141350000Y-86920000D03*
X141850000Y-86920000D03*
X142350000Y-86920000D03*
X142850000Y-86920000D03*
X143350000Y-86920000D03*
X143850000Y-86920000D03*
X144350000Y-86920000D03*
X144850000Y-86920000D03*
X145350000Y-86920000D03*
D40*
X147290000Y-90000000D03*
X123910000Y-90000000D03*
M02*
