%TF.GenerationSoftware,KiCad,Pcbnew,9.0.7-9.0.7~ubuntu24.04.1*%
%TF.CreationDate,2026-01-31T18:13:09+01:00*%
%TF.ProjectId,BB3plus DVID TFT display,42423370-6c75-4732-9044-564944205446,r1B3*%
%TF.SameCoordinates,Original*%
%TF.FileFunction,Copper,L1,Top*%
%TF.FilePolarity,Positive*%
%FSLAX46Y46*%
G04 Gerber Fmt 4.6, Leading zero omitted, Abs format (unit mm)*
G04 Created by KiCad (PCBNEW 9.0.7-9.0.7~ubuntu24.04.1) date 2026-01-31 18:13:09*
%MOMM*%
%LPD*%
G01*
G04 APERTURE LIST*
%TA.AperFunction,ComponentPad*%
%ADD10C,5.500000*%
%TD*%
%TA.AperFunction,ComponentPad*%
%ADD11R,1.358000X1.358000*%
%TD*%
%TA.AperFunction,ComponentPad*%
%ADD12C,1.358000*%
%TD*%
%TA.AperFunction,ComponentPad*%
%ADD13C,1.270000*%
%TD*%
%TA.AperFunction,ViaPad*%
%ADD14C,0.400000*%
%TD*%
%TA.AperFunction,ViaPad*%
%ADD15C,0.600000*%
%TD*%
%TA.AperFunction,ViaPad*%
%ADD16C,0.500000*%
%TD*%
%TA.AperFunction,Conductor*%
%ADD17C,0.812800*%
%TD*%
%TA.AperFunction,Conductor*%
%ADD18C,0.152400*%
%TD*%
%TA.AperFunction,Conductor*%
%ADD19C,0.508000*%
%TD*%
%TA.AperFunction,Conductor*%
%ADD20C,0.254000*%
%TD*%
%TA.AperFunction,Conductor*%
%ADD21C,0.203200*%
%TD*%
G04 APERTURE END LIST*
D10*
X211000000Y-53500000D03*
X211000000Y-137500000D03*
X95000000Y-137500000D03*
X95000000Y-53500000D03*
D11*
X117200000Y-55060000D03*
D12*
X115200000Y-55060000D03*
X113200000Y-55060000D03*
X111200000Y-55060000D03*
D13*
X180770869Y-108711802D03*
D14*
X175060000Y-117630000D03*
X175099480Y-120572440D03*
X175099480Y-118942440D03*
X175099480Y-123628730D03*
X175099480Y-122082440D03*
X162970000Y-123586290D03*
X162970000Y-118900000D03*
X162970000Y-120530000D03*
D15*
X115210000Y-71840000D03*
D16*
X171189447Y-92805674D03*
X171404200Y-98625800D03*
D14*
X186705565Y-103705147D03*
X186705565Y-105015147D03*
X186705565Y-104385147D03*
X186705565Y-106385147D03*
X186705565Y-103105147D03*
X186705565Y-102445147D03*
X186705565Y-105695147D03*
X186038400Y-106390000D03*
X186038400Y-105700000D03*
X186038400Y-105020000D03*
X186038400Y-102450000D03*
X186038400Y-103110000D03*
X186038400Y-103710000D03*
X186038400Y-104390000D03*
D16*
X145350000Y-76390000D03*
D14*
X176988400Y-101170000D03*
X177568400Y-101170000D03*
X176368400Y-101120000D03*
X159290000Y-104915000D03*
D16*
X147370000Y-109910000D03*
D15*
X110050000Y-93480000D03*
D14*
X146130000Y-86800000D03*
X162970000Y-122040000D03*
X156490000Y-105645000D03*
D15*
X114436400Y-81228159D03*
D14*
X157890000Y-105625000D03*
X158620000Y-104165000D03*
X157930000Y-116330000D03*
X151130000Y-115550000D03*
D15*
X90760000Y-93790000D03*
D14*
X157190000Y-104905000D03*
X155985177Y-113738488D03*
D15*
X117570000Y-72230000D03*
D14*
X159290000Y-105640000D03*
X157920000Y-104155000D03*
X157890000Y-104900000D03*
X159320000Y-104170000D03*
X160400000Y-116340000D03*
D15*
X150105000Y-79625000D03*
X90760000Y-75850000D03*
D14*
X147496543Y-102228865D03*
X154300000Y-116330000D03*
X157920000Y-93440000D03*
D15*
X90760000Y-57840000D03*
D14*
X157190000Y-105630000D03*
D15*
X126980000Y-85745000D03*
D14*
X160310000Y-93420000D03*
X117000000Y-86050000D03*
X158590000Y-104910000D03*
X147380000Y-95070000D03*
X156490000Y-104920000D03*
D15*
X121570000Y-76210000D03*
X105930000Y-89310000D03*
D14*
X147380000Y-96550000D03*
D15*
X118260000Y-90680000D03*
D14*
X156520000Y-104175000D03*
D15*
X90760000Y-111850000D03*
D14*
X163750000Y-116350000D03*
X157220000Y-104160000D03*
X158590000Y-105635000D03*
X141520000Y-81550000D03*
X148565000Y-78275000D03*
X128630000Y-85165000D03*
X168370000Y-113680000D03*
X145960000Y-110460000D03*
X168590000Y-99750000D03*
X149230000Y-116550000D03*
X116950000Y-87620000D03*
X123560000Y-69040000D03*
X115630000Y-79920000D03*
D16*
X143250000Y-85815000D03*
X143250000Y-83530000D03*
X144720000Y-84000000D03*
X144720000Y-85630000D03*
X113634145Y-93990000D03*
X114640000Y-93831400D03*
X111610000Y-89960000D03*
X111280000Y-88690000D03*
D14*
X158720000Y-95510000D03*
X167260000Y-106300000D03*
D16*
X150560000Y-111500000D03*
X152360000Y-111500000D03*
X148330000Y-108660000D03*
D14*
X152410000Y-95070000D03*
X160330000Y-95000000D03*
X148560000Y-101600000D03*
X167820000Y-101800000D03*
X167810000Y-102300000D03*
X164350000Y-114230000D03*
X154320000Y-114750000D03*
X157920000Y-114780000D03*
X165310000Y-115780000D03*
X165310000Y-115270000D03*
X160440000Y-114790000D03*
X129740000Y-80210000D03*
X123970000Y-71180000D03*
X129120000Y-73130000D03*
X135360000Y-95830000D03*
X133850000Y-89665000D03*
X137360000Y-89665000D03*
X139610000Y-99205134D03*
X132850000Y-88805000D03*
X134639434Y-96430566D03*
X135280000Y-96460000D03*
X133330000Y-89195000D03*
X139350000Y-88885000D03*
X141400000Y-99205134D03*
X135910000Y-90135000D03*
X138070000Y-98805134D03*
X134840000Y-89665000D03*
X136575000Y-95785000D03*
X136020000Y-95900000D03*
X134350000Y-90045000D03*
X136900000Y-89925000D03*
X139070000Y-98805134D03*
X140490000Y-99205134D03*
X138360000Y-89485000D03*
X140940000Y-98805134D03*
X138850000Y-89185000D03*
X140060000Y-98805134D03*
X137990000Y-89885000D03*
D16*
X145001600Y-107240000D03*
X140950000Y-87900000D03*
D14*
X134036444Y-97039840D03*
X131850000Y-87925000D03*
X134650000Y-96970000D03*
X132350000Y-88335000D03*
X138550000Y-99205134D03*
X136350000Y-89665000D03*
X135350000Y-90055000D03*
X137125000Y-95645000D03*
D16*
X119150000Y-95880000D03*
X119150000Y-84470000D03*
X143450000Y-75700000D03*
X118090000Y-88950000D03*
X120890000Y-82980000D03*
X120260000Y-82450000D03*
X117260000Y-89210000D03*
X118665971Y-84041097D03*
X116713337Y-90832906D03*
X144560000Y-76870000D03*
X115792127Y-90807736D03*
X118398600Y-83395337D03*
X144100000Y-76360000D03*
D14*
X117200000Y-68150000D03*
X131960000Y-68150000D03*
X111510000Y-93420000D03*
D16*
X145370000Y-84005002D03*
X145484090Y-85633664D03*
X146050000Y-84010000D03*
X145786126Y-86262905D03*
X146690000Y-83530000D03*
X143890000Y-85790000D03*
D17*
X115600000Y-72200000D02*
X115600000Y-86270000D01*
X115600000Y-86270000D02*
X116950000Y-87620000D01*
D18*
X115570000Y-72200000D02*
X115210000Y-71840000D01*
X115600000Y-72200000D02*
X115570000Y-72200000D01*
D19*
X117200000Y-68150000D02*
X131960000Y-68150000D01*
D18*
X142310000Y-89260000D02*
X142310000Y-103370000D01*
X142310000Y-103370000D02*
X142310000Y-104548400D01*
X142310000Y-104548400D02*
X145001600Y-107240000D01*
X171404200Y-98625800D02*
X171404200Y-93020427D01*
X171404200Y-93020427D02*
X171189447Y-92805674D01*
D17*
X170460000Y-99750000D02*
X170460000Y-94011600D01*
X170460000Y-94011600D02*
X158183400Y-81735000D01*
X177568400Y-101170000D02*
X177880000Y-101481600D01*
X177880000Y-101481600D02*
X177880000Y-123690000D01*
X177880000Y-123690000D02*
X177110000Y-124460000D01*
X177110000Y-124460000D02*
X154730000Y-124460000D01*
X154730000Y-124460000D02*
X149320000Y-119050000D01*
X145960000Y-110460000D02*
X145960000Y-115690000D01*
X145960000Y-115690000D02*
X149320000Y-119050000D01*
X149320000Y-119050000D02*
X149320000Y-116550000D01*
X168590000Y-99750000D02*
X174998400Y-99750000D01*
X174998400Y-99750000D02*
X176368400Y-101120000D01*
D18*
X114481400Y-93990000D02*
X114640000Y-93831400D01*
X113634145Y-93990000D02*
X114481400Y-93990000D01*
X119150000Y-84470000D02*
X119150000Y-95880000D01*
D17*
X115600000Y-72200000D02*
X118760000Y-69040000D01*
X118760000Y-69040000D02*
X123560000Y-69040000D01*
X141635000Y-81735000D02*
X148560000Y-81735000D01*
X148565000Y-78275000D02*
X148565000Y-81730000D01*
X148565000Y-81730000D02*
X148560000Y-81735000D01*
X148560000Y-81735000D02*
X158183400Y-81735000D01*
X158183400Y-81735000D02*
X154723400Y-78275000D01*
X154723400Y-78275000D02*
X145488400Y-69040000D01*
X145488400Y-69040000D02*
X123560000Y-69040000D01*
D18*
X140950000Y-87900000D02*
X142310000Y-89260000D01*
D17*
X169030000Y-113680000D02*
X168370000Y-113680000D01*
X170460000Y-112250000D02*
X169030000Y-113680000D01*
X170460000Y-99750000D02*
X170460000Y-112250000D01*
X170460000Y-99750000D02*
X168590000Y-99750000D01*
D18*
X143450000Y-76870000D02*
X143450000Y-75700000D01*
X137340000Y-82980000D02*
X143450000Y-76870000D01*
X120890000Y-82980000D02*
X137340000Y-82980000D01*
X145350000Y-76390000D02*
X144130000Y-76390000D01*
X144130000Y-76390000D02*
X144100000Y-76360000D01*
X118665971Y-84041097D02*
X118977068Y-83730000D01*
X118977068Y-83730000D02*
X137700000Y-83730000D01*
X137700000Y-83730000D02*
X144560000Y-76870000D01*
D17*
X177568400Y-101170000D02*
X176418400Y-101170000D01*
X176418400Y-101170000D02*
X176368400Y-101120000D01*
D19*
X147380000Y-96550000D02*
X147380000Y-95070000D01*
D18*
X141520000Y-81550000D02*
X141520000Y-81850000D01*
D17*
X141635000Y-81735000D02*
X141240000Y-82130000D01*
X128630000Y-85165000D02*
X138205000Y-85165000D01*
X138205000Y-85165000D02*
X141240000Y-82130000D01*
D18*
X141520000Y-81850000D02*
X141240000Y-82130000D01*
X143250000Y-85815000D02*
X143250000Y-83815000D01*
X143250000Y-83815000D02*
X143250000Y-83530000D01*
X144720000Y-84000000D02*
X144720000Y-85630000D01*
X112420000Y-70980000D02*
X112420000Y-89150000D01*
X115200000Y-68200000D02*
X112420000Y-70980000D01*
X115200000Y-55060000D02*
X115200000Y-68200000D01*
X112420000Y-89150000D02*
X111610000Y-89960000D01*
X113200000Y-68160000D02*
X111280000Y-70080000D01*
X111280000Y-70080000D02*
X111280000Y-88690000D01*
X113200000Y-55060000D02*
X113200000Y-68160000D01*
D20*
X165570000Y-115530000D02*
X165560000Y-115540000D01*
X165560000Y-115580000D02*
X165570000Y-115570000D01*
X165560000Y-115540000D02*
X165560000Y-115580000D01*
X165560000Y-115580000D02*
X165560000Y-115600000D01*
D18*
X133850000Y-90190000D02*
X135360000Y-91700000D01*
X135360000Y-91700000D02*
X135360000Y-95830000D01*
X133850000Y-89665000D02*
X133850000Y-90190000D01*
X137360000Y-89845000D02*
X139610000Y-92095000D01*
X137360000Y-89665000D02*
X137360000Y-89845000D01*
X139610000Y-99050000D02*
X139610000Y-92095000D01*
X132850000Y-88805000D02*
X132850000Y-90210000D01*
X134540000Y-96331132D02*
X134639434Y-96430566D01*
X132850000Y-90210000D02*
X134540000Y-91900000D01*
X134540000Y-91900000D02*
X134540000Y-96331132D01*
X134918834Y-96103834D02*
X135275000Y-96460000D01*
X135275000Y-96460000D02*
X135280000Y-96460000D01*
X134918834Y-91748834D02*
X134918834Y-96103834D01*
X133330000Y-90160000D02*
X134918834Y-91748834D01*
X133330000Y-89195000D02*
X133330000Y-90160000D01*
X139350000Y-88885000D02*
X139350000Y-88955000D01*
X139350000Y-88955000D02*
X141400000Y-91005000D01*
X141400000Y-91005000D02*
X141400000Y-99030000D01*
X135910000Y-90145000D02*
X138070000Y-92305000D01*
X138070000Y-98690000D02*
X138070000Y-92305000D01*
X135910000Y-90135000D02*
X135910000Y-90145000D01*
X134840000Y-89665000D02*
X134840000Y-90140000D01*
X136575000Y-91875000D02*
X136575000Y-95785000D01*
X134840000Y-90140000D02*
X136575000Y-91875000D01*
X134350000Y-90130000D02*
X136020000Y-91800000D01*
X136020000Y-91800000D02*
X136020000Y-95900000D01*
X134350000Y-90045000D02*
X134350000Y-90130000D01*
X136900000Y-89925000D02*
X136900000Y-89985000D01*
X136900000Y-89985000D02*
X139070000Y-92155000D01*
X139070000Y-98670000D02*
X139070000Y-92155000D01*
X140490000Y-91615000D02*
X140490000Y-99030000D01*
X138360000Y-89485000D02*
X140490000Y-91615000D01*
X138850000Y-89185000D02*
X140940000Y-91275000D01*
X140940000Y-91275000D02*
X140940000Y-98650000D01*
X140060000Y-98650000D02*
X140060000Y-91945000D01*
X138000000Y-89885000D02*
X140060000Y-91945000D01*
X137990000Y-89885000D02*
X138000000Y-89885000D01*
X134036444Y-96926444D02*
X134036444Y-97039840D01*
X133855000Y-92295000D02*
X131850000Y-90290000D01*
X133855000Y-96745000D02*
X134036444Y-96926444D01*
X131850000Y-87925000D02*
X131850000Y-90290000D01*
X133855000Y-96745000D02*
X133855000Y-92295000D01*
X134210834Y-92100834D02*
X134210834Y-96608098D01*
X134210834Y-96608098D02*
X134572736Y-96970000D01*
X132350000Y-90240000D02*
X134210834Y-92100834D01*
X134572736Y-96970000D02*
X134650000Y-96970000D01*
X132350000Y-88335000D02*
X132350000Y-90240000D01*
X138550000Y-99060000D02*
X138550000Y-92195000D01*
X136350000Y-89665000D02*
X136350000Y-89995000D01*
X136350000Y-89995000D02*
X138550000Y-92195000D01*
X135350000Y-90055000D02*
X135350000Y-90150000D01*
X137125000Y-91925000D02*
X137125000Y-95645000D01*
X135350000Y-90150000D02*
X137125000Y-91925000D01*
X120847737Y-82937737D02*
X120890000Y-82980000D01*
X117939126Y-83200874D02*
X118202263Y-82937737D01*
X118202263Y-82937737D02*
X120847737Y-82937737D01*
X118090000Y-88950000D02*
X117939126Y-88799126D01*
X117939126Y-88799126D02*
X117939126Y-83200874D01*
X117620000Y-88776699D02*
X117620000Y-83065521D01*
X117260000Y-89136699D02*
X117620000Y-88776699D01*
X117620000Y-83065521D02*
X118145521Y-82540000D01*
X117260000Y-89210000D02*
X117260000Y-89136699D01*
X118145521Y-82540000D02*
X120170000Y-82540000D01*
X120170000Y-82540000D02*
X120260000Y-82450000D01*
X118660000Y-89280000D02*
X118660000Y-84047068D01*
X116686243Y-90860000D02*
X115850000Y-90860000D01*
X116713337Y-90832906D02*
X116686243Y-90860000D01*
X115850000Y-90860000D02*
X115797736Y-90807736D01*
X118660000Y-84047068D02*
X118665971Y-84041097D01*
X116713337Y-90832906D02*
X116740431Y-90860000D01*
X117080000Y-90860000D02*
X118660000Y-89280000D01*
X115797736Y-90807736D02*
X115792127Y-90807736D01*
X116740431Y-90860000D02*
X117080000Y-90860000D01*
X137360000Y-83430000D02*
X137350000Y-83440000D01*
X118443263Y-83440000D02*
X118433263Y-83430000D01*
X144100000Y-76360000D02*
X144100000Y-76690000D01*
X144100000Y-76690000D02*
X137360000Y-83430000D01*
D21*
X118433263Y-83430000D02*
X118398600Y-83395337D01*
D18*
X137350000Y-83440000D02*
X118443263Y-83440000D01*
D19*
X113610000Y-91320000D02*
X111510000Y-93420000D01*
X117200000Y-68150000D02*
X117050000Y-68150000D01*
X117050000Y-68150000D02*
X113610000Y-71590000D01*
X113610000Y-71590000D02*
X113610000Y-91320000D01*
D18*
X145370000Y-85519574D02*
X145370000Y-84005000D01*
X145484090Y-85633664D02*
X145370000Y-85519574D01*
X145786126Y-86262905D02*
X145786126Y-86103874D01*
X146050000Y-85840000D02*
X146050000Y-84010000D01*
X145786126Y-86103874D02*
X146050000Y-85840000D01*
X144050000Y-84010000D02*
X144050000Y-85630000D01*
X146690000Y-83530000D02*
X144530000Y-83530000D01*
X144050000Y-85630000D02*
X143890000Y-85790000D01*
X144530000Y-83530000D02*
X144050000Y-84010000D01*
%TA.AperFunction,Conductor*%
G36*
X168660000Y-108700000D02*
G01*
X167960000Y-108700000D01*
X167960000Y-112885408D01*
X167959139Y-112898540D01*
X167944418Y-113010349D01*
X167937621Y-113035715D01*
X167897009Y-113133762D01*
X167883879Y-113156505D01*
X167819273Y-113240702D01*
X167800702Y-113259273D01*
X167716505Y-113323879D01*
X167693762Y-113337009D01*
X167595715Y-113377621D01*
X167570349Y-113384418D01*
X167477481Y-113396645D01*
X167458538Y-113399139D01*
X167445409Y-113400000D01*
X164660000Y-113400000D01*
X164660000Y-114085408D01*
X164659139Y-114098539D01*
X164659139Y-114098540D01*
X164644418Y-114210349D01*
X164637621Y-114235715D01*
X164597009Y-114333762D01*
X164583879Y-114356505D01*
X164519273Y-114440702D01*
X164500702Y-114459273D01*
X164416505Y-114523879D01*
X164393762Y-114537009D01*
X164295715Y-114577621D01*
X164270349Y-114584418D01*
X164177481Y-114596645D01*
X164158538Y-114599139D01*
X164145409Y-114600000D01*
X163974591Y-114600000D01*
X163961461Y-114599139D01*
X163939344Y-114596227D01*
X163849650Y-114584418D01*
X163824284Y-114577621D01*
X163726237Y-114537009D01*
X163703494Y-114523879D01*
X163670700Y-114498716D01*
X163619294Y-114459270D01*
X163600729Y-114440705D01*
X163536120Y-114356505D01*
X163522990Y-114333762D01*
X163482378Y-114235715D01*
X163475581Y-114210348D01*
X163460861Y-114098539D01*
X163460000Y-114085408D01*
X163460000Y-112614591D01*
X163460861Y-112601460D01*
X163475581Y-112489651D01*
X163482378Y-112464284D01*
X163522990Y-112366237D01*
X163536118Y-112343497D01*
X163600733Y-112259289D01*
X163619289Y-112240733D01*
X163703497Y-112176118D01*
X163726235Y-112162991D01*
X163824285Y-112122377D01*
X163849649Y-112115581D01*
X163961460Y-112100860D01*
X163974591Y-112100000D01*
X166760000Y-112100000D01*
X166760000Y-108114591D01*
X166760861Y-108101460D01*
X166775581Y-107989651D01*
X166782378Y-107964284D01*
X166822990Y-107866237D01*
X166836118Y-107843497D01*
X166900733Y-107759289D01*
X166919289Y-107740733D01*
X167003497Y-107676118D01*
X167026235Y-107662991D01*
X167124285Y-107622377D01*
X167149649Y-107615581D01*
X167261460Y-107600860D01*
X167274591Y-107600000D01*
X168060000Y-107600000D01*
X168660000Y-107600000D01*
X168660000Y-108700000D01*
G37*
%TD.AperFunction*%
%TA.AperFunction,Conductor*%
G36*
X162758539Y-111100860D02*
G01*
X162870348Y-111115581D01*
X162895715Y-111122378D01*
X162993762Y-111162990D01*
X163016505Y-111176120D01*
X163100705Y-111240729D01*
X163119270Y-111259294D01*
X163158716Y-111310700D01*
X163183879Y-111343494D01*
X163197009Y-111366237D01*
X163237621Y-111464284D01*
X163244418Y-111489650D01*
X163259139Y-111601459D01*
X163260000Y-111614591D01*
X163260000Y-112521642D01*
X163259139Y-112534773D01*
X163253945Y-112574220D01*
X163252609Y-112587782D01*
X163251746Y-112600951D01*
X163251300Y-112614589D01*
X163251300Y-114085409D01*
X163251746Y-114099047D01*
X163252610Y-114112220D01*
X163253944Y-114125772D01*
X163259139Y-114165223D01*
X163260000Y-114178355D01*
X163260000Y-114800000D01*
X163881651Y-114800000D01*
X163894783Y-114800861D01*
X163934209Y-114806052D01*
X163934218Y-114806052D01*
X163934219Y-114806053D01*
X163947805Y-114807392D01*
X163960935Y-114808253D01*
X163972640Y-114808636D01*
X163974589Y-114808700D01*
X163974591Y-114808700D01*
X164145412Y-114808700D01*
X164147819Y-114808621D01*
X164159066Y-114808253D01*
X164172195Y-114807392D01*
X164185780Y-114806053D01*
X164185783Y-114806052D01*
X164185789Y-114806052D01*
X164225215Y-114800861D01*
X164238348Y-114800000D01*
X164760000Y-114800000D01*
X165945409Y-114800000D01*
X165958539Y-114800860D01*
X166070348Y-114815581D01*
X166095715Y-114822378D01*
X166193762Y-114862990D01*
X166216505Y-114876120D01*
X166300705Y-114940729D01*
X166319270Y-114959294D01*
X166358716Y-115010700D01*
X166383879Y-115043494D01*
X166397009Y-115066237D01*
X166437621Y-115164284D01*
X166444418Y-115189650D01*
X166459139Y-115301459D01*
X166460000Y-115314591D01*
X166460000Y-115785408D01*
X166459139Y-115798540D01*
X166444418Y-115910349D01*
X166437621Y-115935715D01*
X166397009Y-116033762D01*
X166383879Y-116056505D01*
X166319273Y-116140702D01*
X166300702Y-116159273D01*
X166216505Y-116223879D01*
X166193762Y-116237009D01*
X166095715Y-116277621D01*
X166070349Y-116284418D01*
X165977481Y-116296645D01*
X165958538Y-116299139D01*
X165945409Y-116300000D01*
X164231737Y-116300000D01*
X164172606Y-116280787D01*
X164136061Y-116230487D01*
X164134570Y-116225457D01*
X164126189Y-116194177D01*
X164120415Y-116184177D01*
X164073040Y-116102121D01*
X163997878Y-116026959D01*
X163997879Y-116026959D01*
X163905824Y-115973811D01*
X163905820Y-115973809D01*
X163803153Y-115946300D01*
X163803148Y-115946300D01*
X163696852Y-115946300D01*
X163696846Y-115946300D01*
X163594179Y-115973809D01*
X163594175Y-115973811D01*
X163502121Y-116026959D01*
X163426959Y-116102121D01*
X163373811Y-116194175D01*
X163369913Y-116208721D01*
X163365434Y-116225437D01*
X163363939Y-116227741D01*
X163363939Y-116230487D01*
X163347146Y-116253599D01*
X163331574Y-116277580D01*
X163329008Y-116278564D01*
X163327394Y-116280787D01*
X163300215Y-116289617D01*
X163273530Y-116299862D01*
X163268263Y-116300000D01*
X163260000Y-116300000D01*
X163066591Y-116300000D01*
X163053460Y-116299139D01*
X162948163Y-116285276D01*
X162922796Y-116278479D01*
X162830815Y-116240379D01*
X162808072Y-116227248D01*
X162723809Y-116162591D01*
X162713915Y-116153915D01*
X162313452Y-115753452D01*
X162304776Y-115743558D01*
X162236121Y-115654085D01*
X162222990Y-115631342D01*
X162182378Y-115533295D01*
X162175581Y-115507928D01*
X162160861Y-115396119D01*
X162160000Y-115382988D01*
X162160000Y-112400000D01*
X161652000Y-112400000D01*
X161568000Y-112400000D01*
X161060000Y-112400000D01*
X161060000Y-114685408D01*
X161059139Y-114698539D01*
X161059139Y-114698540D01*
X161044418Y-114810349D01*
X161037621Y-114835715D01*
X160997009Y-114933762D01*
X160983879Y-114956505D01*
X160919273Y-115040702D01*
X160900702Y-115059273D01*
X160816505Y-115123879D01*
X160793762Y-115137009D01*
X160695715Y-115177621D01*
X160670349Y-115184418D01*
X160577481Y-115196645D01*
X160558538Y-115199139D01*
X160545409Y-115200000D01*
X160374591Y-115200000D01*
X160361461Y-115199139D01*
X160339344Y-115196227D01*
X160249650Y-115184418D01*
X160224284Y-115177621D01*
X160126237Y-115137009D01*
X160103494Y-115123879D01*
X160028373Y-115066237D01*
X160019294Y-115059270D01*
X160000729Y-115040705D01*
X159936120Y-114956505D01*
X159922990Y-114933762D01*
X159882378Y-114835715D01*
X159875581Y-114810348D01*
X159875015Y-114806052D01*
X159860861Y-114698539D01*
X159860000Y-114685408D01*
X159860000Y-112400000D01*
X159352000Y-112400000D01*
X159068000Y-112400000D01*
X158560000Y-112400000D01*
X158560000Y-114685408D01*
X158559139Y-114698539D01*
X158559139Y-114698540D01*
X158544418Y-114810349D01*
X158537621Y-114835715D01*
X158497009Y-114933762D01*
X158483879Y-114956505D01*
X158419273Y-115040702D01*
X158400702Y-115059273D01*
X158316505Y-115123879D01*
X158293762Y-115137009D01*
X158195715Y-115177621D01*
X158170349Y-115184418D01*
X158077481Y-115196645D01*
X158058538Y-115199139D01*
X158045409Y-115200000D01*
X157874591Y-115200000D01*
X157861461Y-115199139D01*
X157839344Y-115196227D01*
X157749650Y-115184418D01*
X157724284Y-115177621D01*
X157626237Y-115137009D01*
X157603494Y-115123879D01*
X157528373Y-115066237D01*
X157519294Y-115059270D01*
X157500729Y-115040705D01*
X157436120Y-114956505D01*
X157422990Y-114933762D01*
X157382378Y-114835715D01*
X157375581Y-114810348D01*
X157375015Y-114806052D01*
X157360861Y-114698539D01*
X157360000Y-114685408D01*
X157360000Y-112400000D01*
X156852000Y-112400000D01*
X155268000Y-112400000D01*
X154760000Y-112400000D01*
X154760000Y-114693409D01*
X154759139Y-114706540D01*
X154759139Y-114706541D01*
X154744691Y-114816279D01*
X154737894Y-114841645D01*
X154698081Y-114937762D01*
X154684950Y-114960505D01*
X154621615Y-115043045D01*
X154603045Y-115061615D01*
X154520505Y-115124950D01*
X154497762Y-115138081D01*
X154401645Y-115177894D01*
X154376278Y-115184691D01*
X154273131Y-115198271D01*
X154246869Y-115198271D01*
X154143721Y-115184691D01*
X154118354Y-115177894D01*
X154022237Y-115138081D01*
X153999494Y-115124950D01*
X153916954Y-115061615D01*
X153898384Y-115043045D01*
X153835049Y-114960505D01*
X153821918Y-114937762D01*
X153782105Y-114841645D01*
X153775308Y-114816278D01*
X153774527Y-114810349D01*
X153760861Y-114706540D01*
X153760000Y-114693409D01*
X153760000Y-111614591D01*
X153760861Y-111601460D01*
X153775581Y-111489651D01*
X153782378Y-111464284D01*
X153822990Y-111366237D01*
X153836118Y-111343497D01*
X153900733Y-111259289D01*
X153919289Y-111240733D01*
X154003497Y-111176118D01*
X154026235Y-111162991D01*
X154124285Y-111122377D01*
X154149649Y-111115581D01*
X154261460Y-111100860D01*
X154274591Y-111100000D01*
X162745409Y-111100000D01*
X162758539Y-111100860D01*
G37*
%TD.AperFunction*%
%TA.AperFunction,Conductor*%
G36*
X158567810Y-95101236D02*
G01*
X158667873Y-95117085D01*
X158697801Y-95126810D01*
X158780916Y-95169159D01*
X158806380Y-95187659D01*
X158872340Y-95253619D01*
X158890840Y-95279083D01*
X158933189Y-95362198D01*
X158942915Y-95392131D01*
X158958761Y-95492176D01*
X158960000Y-95507914D01*
X158960000Y-95900000D01*
X163745409Y-95900000D01*
X163758539Y-95900860D01*
X163870348Y-95915581D01*
X163895715Y-95922378D01*
X163993762Y-95962990D01*
X164016505Y-95976120D01*
X164100705Y-96040729D01*
X164119270Y-96059294D01*
X164158716Y-96110700D01*
X164183879Y-96143494D01*
X164197009Y-96166237D01*
X164237621Y-96264284D01*
X164244418Y-96289650D01*
X164259139Y-96401459D01*
X164260000Y-96414591D01*
X164260000Y-106000000D01*
X167345409Y-106000000D01*
X167358539Y-106000860D01*
X167470348Y-106015581D01*
X167495715Y-106022378D01*
X167593762Y-106062990D01*
X167616505Y-106076120D01*
X167700705Y-106140729D01*
X167719270Y-106159294D01*
X167758716Y-106210700D01*
X167783879Y-106243494D01*
X167797009Y-106266237D01*
X167837621Y-106364284D01*
X167844418Y-106389650D01*
X167859139Y-106501459D01*
X167860000Y-106514591D01*
X167860000Y-106785408D01*
X167859139Y-106798540D01*
X167844418Y-106910349D01*
X167837621Y-106935715D01*
X167797009Y-107033762D01*
X167783879Y-107056505D01*
X167719273Y-107140702D01*
X167700702Y-107159273D01*
X167616505Y-107223879D01*
X167593762Y-107237009D01*
X167495715Y-107277621D01*
X167470349Y-107284418D01*
X167377481Y-107296645D01*
X167358538Y-107299139D01*
X167345409Y-107300000D01*
X163074591Y-107300000D01*
X163061461Y-107299139D01*
X163039344Y-107296227D01*
X162949650Y-107284418D01*
X162924284Y-107277621D01*
X162826237Y-107237009D01*
X162803494Y-107223879D01*
X162770700Y-107198716D01*
X162719294Y-107159270D01*
X162700729Y-107140705D01*
X162636120Y-107056505D01*
X162622990Y-107033762D01*
X162582378Y-106935715D01*
X162575581Y-106910348D01*
X162560861Y-106798539D01*
X162560000Y-106785408D01*
X162560000Y-97500000D01*
X162052000Y-97500000D01*
X151568000Y-97500000D01*
X151060000Y-97500000D01*
X151060000Y-110500000D01*
X152145409Y-110500000D01*
X152158539Y-110500860D01*
X152270348Y-110515581D01*
X152295715Y-110522378D01*
X152393762Y-110562990D01*
X152416505Y-110576120D01*
X152500705Y-110640729D01*
X152519270Y-110659294D01*
X152558716Y-110710700D01*
X152583879Y-110743494D01*
X152597009Y-110766237D01*
X152637621Y-110864284D01*
X152644418Y-110889650D01*
X152659139Y-111001459D01*
X152660000Y-111014591D01*
X152660000Y-111385408D01*
X152659139Y-111398540D01*
X152644418Y-111510349D01*
X152637621Y-111535715D01*
X152597009Y-111633762D01*
X152583879Y-111656505D01*
X152519273Y-111740702D01*
X152500702Y-111759273D01*
X152416505Y-111823879D01*
X152393762Y-111837009D01*
X152295715Y-111877621D01*
X152270349Y-111884418D01*
X152177481Y-111896645D01*
X152158538Y-111899139D01*
X152145409Y-111900000D01*
X150677885Y-111900000D01*
X150664766Y-111899141D01*
X150553052Y-111884447D01*
X150527707Y-111877662D01*
X150429735Y-111837122D01*
X150407004Y-111824013D01*
X150322845Y-111759514D01*
X150304280Y-111740976D01*
X150239661Y-111656909D01*
X150226523Y-111634203D01*
X150185841Y-111536286D01*
X150179020Y-111510951D01*
X150164165Y-111399261D01*
X150163287Y-111386151D01*
X150160730Y-109607269D01*
X150160729Y-109607268D01*
X150160721Y-109601137D01*
X150160720Y-109601130D01*
X150160000Y-109100000D01*
X149652730Y-109100000D01*
X148174591Y-109100000D01*
X148161461Y-109099139D01*
X148139344Y-109096227D01*
X148049650Y-109084418D01*
X148024284Y-109077621D01*
X147926237Y-109037009D01*
X147903494Y-109023879D01*
X147870700Y-108998716D01*
X147819294Y-108959270D01*
X147800729Y-108940705D01*
X147736120Y-108856505D01*
X147722990Y-108833762D01*
X147682378Y-108735715D01*
X147675581Y-108710348D01*
X147660861Y-108598539D01*
X147660000Y-108585408D01*
X147660000Y-108114591D01*
X147660861Y-108101460D01*
X147675581Y-107989651D01*
X147682378Y-107964284D01*
X147722990Y-107866237D01*
X147736118Y-107843497D01*
X147800733Y-107759289D01*
X147819289Y-107740733D01*
X147903497Y-107676118D01*
X147926235Y-107662991D01*
X148024285Y-107622377D01*
X148049649Y-107615581D01*
X148161460Y-107600860D01*
X148174591Y-107600000D01*
X149460000Y-107600000D01*
X149460000Y-96414591D01*
X149460861Y-96401460D01*
X149475581Y-96289651D01*
X149475581Y-96289650D01*
X149482378Y-96264284D01*
X149522990Y-96166237D01*
X149536118Y-96143497D01*
X149600733Y-96059289D01*
X149619289Y-96040733D01*
X149703497Y-95976118D01*
X149726235Y-95962991D01*
X149824285Y-95922377D01*
X149849649Y-95915581D01*
X149961460Y-95900860D01*
X149974591Y-95900000D01*
X157460000Y-95900000D01*
X157460000Y-95507914D01*
X157461236Y-95492189D01*
X157477085Y-95392124D01*
X157486810Y-95362198D01*
X157529159Y-95279083D01*
X157547656Y-95253622D01*
X157613622Y-95187656D01*
X157639083Y-95169159D01*
X157722198Y-95126810D01*
X157752124Y-95117085D01*
X157852189Y-95101236D01*
X157867914Y-95100000D01*
X158552086Y-95100000D01*
X158567810Y-95101236D01*
G37*
%TD.AperFunction*%
%TA.AperFunction,Conductor*%
G36*
X166260166Y-93701131D02*
G01*
X166367021Y-93715196D01*
X166398793Y-93723709D01*
X166490665Y-93761761D01*
X166519152Y-93778207D01*
X166598043Y-93838740D01*
X166621302Y-93861999D01*
X166681839Y-93940890D01*
X166698286Y-93969376D01*
X166736341Y-94061246D01*
X166744855Y-94093018D01*
X166758922Y-94199865D01*
X166760000Y-94216312D01*
X166760000Y-101400000D01*
X167643741Y-101400000D01*
X167660187Y-101401078D01*
X167678703Y-101403515D01*
X167767037Y-101415145D01*
X167798799Y-101423655D01*
X167890679Y-101461713D01*
X167919158Y-101478156D01*
X167998053Y-101538694D01*
X168021305Y-101561946D01*
X168081841Y-101640837D01*
X168098288Y-101669323D01*
X168136342Y-101761194D01*
X168144855Y-101792965D01*
X168158922Y-101899811D01*
X168160000Y-101916258D01*
X168160000Y-102283741D01*
X168158922Y-102300188D01*
X168144855Y-102407034D01*
X168136342Y-102438805D01*
X168098288Y-102530676D01*
X168081841Y-102559162D01*
X168021308Y-102638050D01*
X167998050Y-102661308D01*
X167919162Y-102721841D01*
X167890676Y-102738288D01*
X167798805Y-102776342D01*
X167767034Y-102784855D01*
X167660188Y-102798922D01*
X167643741Y-102800000D01*
X166760000Y-102800000D01*
X166760000Y-104400000D01*
X168843741Y-104400000D01*
X168860187Y-104401078D01*
X168878703Y-104403515D01*
X168967037Y-104415145D01*
X168998799Y-104423655D01*
X169090679Y-104461713D01*
X169119158Y-104478156D01*
X169198053Y-104538694D01*
X169221305Y-104561946D01*
X169281841Y-104640837D01*
X169298288Y-104669323D01*
X169336342Y-104761194D01*
X169344855Y-104792965D01*
X169358922Y-104899811D01*
X169360000Y-104916258D01*
X169360000Y-108340082D01*
X169358449Y-108359794D01*
X169345991Y-108438446D01*
X169333809Y-108475937D01*
X169302214Y-108537946D01*
X169279042Y-108569838D01*
X169229838Y-108619042D01*
X169197946Y-108642214D01*
X169135937Y-108673809D01*
X169098446Y-108685991D01*
X169045868Y-108694319D01*
X169019790Y-108698449D01*
X169000083Y-108700000D01*
X168660000Y-108700000D01*
X168660000Y-107600000D01*
X168060000Y-107600000D01*
X168060000Y-106880016D01*
X168061078Y-106863568D01*
X168066053Y-106825783D01*
X168067392Y-106812194D01*
X168068253Y-106799062D01*
X168068700Y-106785408D01*
X168068700Y-106514591D01*
X168068253Y-106500937D01*
X168067392Y-106487805D01*
X168066053Y-106474216D01*
X168061077Y-106436429D01*
X168060000Y-106419982D01*
X168060000Y-105800000D01*
X167552000Y-105800000D01*
X167440023Y-105800000D01*
X167423576Y-105798922D01*
X167385783Y-105793946D01*
X167372178Y-105792605D01*
X167362596Y-105791978D01*
X167359049Y-105791746D01*
X167345409Y-105791300D01*
X167345396Y-105791300D01*
X165010177Y-105791300D01*
X164993730Y-105790222D01*
X164952965Y-105784855D01*
X164921194Y-105776342D01*
X164829323Y-105738288D01*
X164800839Y-105721842D01*
X164721946Y-105661305D01*
X164698694Y-105638053D01*
X164638156Y-105559158D01*
X164621713Y-105530679D01*
X164583655Y-105438799D01*
X164575145Y-105407037D01*
X164561078Y-105300187D01*
X164560000Y-105283741D01*
X164560000Y-95700000D01*
X164052000Y-95700000D01*
X163840023Y-95700000D01*
X163823576Y-95698922D01*
X163785783Y-95693946D01*
X163772178Y-95692605D01*
X163762596Y-95691978D01*
X163759049Y-95691746D01*
X163745409Y-95691300D01*
X163745396Y-95691300D01*
X159294700Y-95691300D01*
X159226579Y-95671298D01*
X159180086Y-95617642D01*
X159168700Y-95565300D01*
X159168700Y-95507916D01*
X159168056Y-95491528D01*
X159166820Y-95475838D01*
X159166817Y-95475796D01*
X159164891Y-95459527D01*
X159149045Y-95359482D01*
X159141400Y-95327638D01*
X159131674Y-95297705D01*
X159125903Y-95283775D01*
X159119146Y-95267459D01*
X159119145Y-95267456D01*
X159076793Y-95184336D01*
X159059695Y-95156433D01*
X159059684Y-95156415D01*
X159059679Y-95156408D01*
X159059672Y-95156397D01*
X159041196Y-95130966D01*
X159041182Y-95130949D01*
X159019929Y-95106065D01*
X159019913Y-95106046D01*
X159019903Y-95106036D01*
X159019891Y-95106023D01*
X158953975Y-95040107D01*
X158953962Y-95040095D01*
X158953953Y-95040086D01*
X158929048Y-95018815D01*
X158929046Y-95018813D01*
X158929032Y-95018802D01*
X158903601Y-95000326D01*
X158903579Y-95000312D01*
X158903572Y-95000308D01*
X158900119Y-94998191D01*
X158875667Y-94983208D01*
X158792550Y-94940858D01*
X158792548Y-94940857D01*
X158762298Y-94928326D01*
X158732370Y-94918601D01*
X158732361Y-94918598D01*
X158732356Y-94918597D01*
X158700526Y-94910956D01*
X158700527Y-94910956D01*
X158700522Y-94910955D01*
X158700519Y-94910954D01*
X158700512Y-94910953D01*
X158600447Y-94895104D01*
X158584159Y-94893177D01*
X158568451Y-94891942D01*
X158552086Y-94891300D01*
X157867914Y-94891300D01*
X157851549Y-94891942D01*
X157835838Y-94893177D01*
X157819551Y-94895104D01*
X157719489Y-94910952D01*
X157719471Y-94910956D01*
X157687618Y-94918602D01*
X157657703Y-94928324D01*
X157627444Y-94940860D01*
X157544331Y-94983208D01*
X157516433Y-95000302D01*
X157516424Y-95000308D01*
X157490959Y-95018807D01*
X157490943Y-95018820D01*
X157466065Y-95040068D01*
X157466027Y-95040103D01*
X157400103Y-95106027D01*
X157400068Y-95106065D01*
X157378820Y-95130943D01*
X157378807Y-95130959D01*
X157360308Y-95156424D01*
X157360302Y-95156433D01*
X157343208Y-95184331D01*
X157300860Y-95267444D01*
X157288324Y-95297703D01*
X157278602Y-95327618D01*
X157270956Y-95359471D01*
X157270952Y-95359489D01*
X157255104Y-95459551D01*
X157253177Y-95475838D01*
X157251942Y-95491549D01*
X157251300Y-95507914D01*
X157251300Y-95565300D01*
X157231298Y-95633421D01*
X157177642Y-95679914D01*
X157125300Y-95691300D01*
X149974591Y-95691300D01*
X149960952Y-95691746D01*
X149959139Y-95691864D01*
X149947822Y-95692605D01*
X149934216Y-95693946D01*
X149896424Y-95698922D01*
X149879977Y-95700000D01*
X149260000Y-95700000D01*
X149260000Y-96319976D01*
X149258922Y-96336422D01*
X149253945Y-96374227D01*
X149252609Y-96387790D01*
X149251747Y-96400926D01*
X149251300Y-96414605D01*
X149251300Y-102149823D01*
X149250222Y-102166271D01*
X149244855Y-102207034D01*
X149236342Y-102238803D01*
X149198288Y-102330675D01*
X149181841Y-102359162D01*
X149121308Y-102438050D01*
X149098050Y-102461308D01*
X149019162Y-102521841D01*
X148990676Y-102538288D01*
X148898805Y-102576342D01*
X148867034Y-102584855D01*
X148760188Y-102598922D01*
X148743741Y-102600000D01*
X148376259Y-102600000D01*
X148359812Y-102598922D01*
X148252965Y-102584855D01*
X148221194Y-102576342D01*
X148129323Y-102538288D01*
X148100839Y-102521842D01*
X148021946Y-102461305D01*
X147998694Y-102438053D01*
X147938154Y-102359156D01*
X147921711Y-102330674D01*
X147909833Y-102301997D01*
X147900243Y-102253783D01*
X147900243Y-102175718D01*
X147897712Y-102166271D01*
X147872732Y-102073042D01*
X147872729Y-102073038D01*
X147872729Y-102073035D01*
X147869588Y-102065450D01*
X147860000Y-102017240D01*
X147860000Y-94216871D01*
X147861078Y-94200426D01*
X147861785Y-94195048D01*
X147875144Y-94093576D01*
X147883652Y-94061823D01*
X147921712Y-93969932D01*
X147938144Y-93941471D01*
X147998693Y-93862559D01*
X148021940Y-93839313D01*
X148100834Y-93778775D01*
X148129312Y-93762332D01*
X148221184Y-93724274D01*
X148252944Y-93715762D01*
X148359810Y-93701690D01*
X148376232Y-93700613D01*
X157348913Y-93700333D01*
X157557216Y-93700326D01*
X157625333Y-93720324D01*
X157646307Y-93737226D01*
X157672122Y-93763041D01*
X157672123Y-93763042D01*
X157672125Y-93763043D01*
X157764172Y-93816187D01*
X157764174Y-93816187D01*
X157764177Y-93816189D01*
X157866852Y-93843700D01*
X157866853Y-93843700D01*
X157973146Y-93843700D01*
X157973148Y-93843700D01*
X158075823Y-93816189D01*
X158075826Y-93816187D01*
X158075827Y-93816187D01*
X158140626Y-93778775D01*
X158167878Y-93763041D01*
X158193711Y-93737207D01*
X158256021Y-93703183D01*
X158282794Y-93700303D01*
X159967140Y-93700251D01*
X160035257Y-93720250D01*
X160056235Y-93737155D01*
X160062115Y-93743035D01*
X160062120Y-93743039D01*
X160062122Y-93743041D01*
X160062123Y-93743042D01*
X160062125Y-93743043D01*
X160154172Y-93796187D01*
X160154174Y-93796187D01*
X160154177Y-93796189D01*
X160256852Y-93823700D01*
X160256853Y-93823700D01*
X160363146Y-93823700D01*
X160363148Y-93823700D01*
X160465823Y-93796189D01*
X160465826Y-93796187D01*
X160465827Y-93796187D01*
X160511850Y-93769615D01*
X160557878Y-93743041D01*
X160563783Y-93737135D01*
X160626092Y-93703110D01*
X160652868Y-93700229D01*
X166243724Y-93700055D01*
X166260166Y-93701131D01*
G37*
%TD.AperFunction*%
%TA.AperFunction,Conductor*%
G36*
X132375187Y-69891078D02*
G01*
X132393703Y-69893515D01*
X132482037Y-69905145D01*
X132513799Y-69913655D01*
X132605679Y-69951713D01*
X132634158Y-69968156D01*
X132713053Y-70028694D01*
X132736305Y-70051946D01*
X132796841Y-70130837D01*
X132813288Y-70159323D01*
X132851342Y-70251194D01*
X132859855Y-70282965D01*
X132873922Y-70389811D01*
X132875000Y-70406258D01*
X132875000Y-80883741D01*
X132873922Y-80900187D01*
X132873922Y-80900188D01*
X132859855Y-81007034D01*
X132851342Y-81038805D01*
X132813288Y-81130676D01*
X132796841Y-81159162D01*
X132736308Y-81238050D01*
X132713050Y-81261308D01*
X132634162Y-81321841D01*
X132605676Y-81338288D01*
X132513805Y-81376342D01*
X132482034Y-81384855D01*
X132375188Y-81398922D01*
X132358741Y-81400000D01*
X122931259Y-81400000D01*
X122914812Y-81398922D01*
X122807965Y-81384855D01*
X122776194Y-81376342D01*
X122684323Y-81338288D01*
X122655839Y-81321842D01*
X122576946Y-81261305D01*
X122553694Y-81238053D01*
X122493156Y-81159158D01*
X122476713Y-81130679D01*
X122438655Y-81038799D01*
X122430145Y-81007037D01*
X122416078Y-80900187D01*
X122415000Y-80883741D01*
X122415000Y-70406258D01*
X122416078Y-70389812D01*
X122416231Y-70388649D01*
X122430145Y-70282958D01*
X122438654Y-70251202D01*
X122476714Y-70159316D01*
X122493153Y-70130844D01*
X122553698Y-70051941D01*
X122576941Y-70028698D01*
X122655844Y-69968153D01*
X122684316Y-69951714D01*
X122776202Y-69913654D01*
X122807960Y-69905145D01*
X122898883Y-69893175D01*
X122914813Y-69891078D01*
X122931259Y-69890000D01*
X132358741Y-69890000D01*
X132375187Y-69891078D01*
G37*
%TD.AperFunction*%
%TA.AperFunction,Conductor*%
G36*
X219453979Y-49650502D02*
G01*
X219465686Y-49650502D01*
X219496100Y-49650502D01*
X219503950Y-49650811D01*
X219703267Y-49666502D01*
X219718838Y-49668969D01*
X219909312Y-49714701D01*
X219909362Y-49714713D01*
X219924374Y-49719591D01*
X220105386Y-49794569D01*
X220119451Y-49801735D01*
X220286512Y-49904109D01*
X220299282Y-49913387D01*
X220384492Y-49986161D01*
X220448273Y-50040633D01*
X220459433Y-50051793D01*
X220586680Y-50200773D01*
X220595959Y-50213543D01*
X220698338Y-50380598D01*
X220705505Y-50394662D01*
X220780494Y-50575678D01*
X220785372Y-50590691D01*
X220831120Y-50781204D01*
X220833590Y-50796793D01*
X220849189Y-50994828D01*
X220849500Y-51002728D01*
X220849500Y-139996045D01*
X220849190Y-140003939D01*
X220833505Y-140203220D01*
X220831035Y-140218810D01*
X220785299Y-140409317D01*
X220780421Y-140424331D01*
X220705444Y-140605342D01*
X220698277Y-140619408D01*
X220595903Y-140786466D01*
X220586625Y-140799236D01*
X220459384Y-140948219D01*
X220448221Y-140959382D01*
X220299239Y-141086623D01*
X220286468Y-141095902D01*
X220119409Y-141198276D01*
X220105344Y-141205442D01*
X219924334Y-141280420D01*
X219909321Y-141285298D01*
X219718812Y-141331036D01*
X219703220Y-141333506D01*
X219503942Y-141349190D01*
X219496049Y-141349500D01*
X207603954Y-141349500D01*
X207596062Y-141349190D01*
X207573738Y-141347433D01*
X207396779Y-141333505D01*
X207381189Y-141331035D01*
X207190682Y-141285299D01*
X207175668Y-141280421D01*
X206994657Y-141205443D01*
X206980592Y-141198277D01*
X206813533Y-141095903D01*
X206800762Y-141086624D01*
X206689540Y-140991633D01*
X206651775Y-140959379D01*
X206640617Y-140948221D01*
X206576995Y-140873728D01*
X206513375Y-140799237D01*
X206504096Y-140786466D01*
X206401722Y-140619407D01*
X206394556Y-140605342D01*
X206319578Y-140424331D01*
X206314700Y-140409317D01*
X206268964Y-140218812D01*
X206268963Y-140218809D01*
X206266494Y-140203219D01*
X206250810Y-140003938D01*
X206250500Y-139996045D01*
X206250500Y-137334124D01*
X208046300Y-137334124D01*
X208046300Y-137665876D01*
X208083445Y-137995543D01*
X208157266Y-138318977D01*
X208266837Y-138632113D01*
X208410779Y-138931012D01*
X208587282Y-139211915D01*
X208794127Y-139471289D01*
X209028711Y-139705873D01*
X209288085Y-139912718D01*
X209568988Y-140089221D01*
X209867887Y-140233163D01*
X210181023Y-140342734D01*
X210504457Y-140416555D01*
X210834124Y-140453700D01*
X211165876Y-140453700D01*
X211495543Y-140416555D01*
X211818977Y-140342734D01*
X212132113Y-140233163D01*
X212431012Y-140089221D01*
X212711915Y-139912718D01*
X212971289Y-139705873D01*
X213205873Y-139471289D01*
X213412718Y-139211915D01*
X213589221Y-138931012D01*
X213733163Y-138632113D01*
X213842734Y-138318977D01*
X213916555Y-137995543D01*
X213953700Y-137665876D01*
X213953700Y-137334124D01*
X213916555Y-137004457D01*
X213842734Y-136681023D01*
X213733163Y-136367887D01*
X213589221Y-136068988D01*
X213412718Y-135788085D01*
X213205873Y-135528711D01*
X212971289Y-135294127D01*
X212711915Y-135087282D01*
X212711914Y-135087281D01*
X212628837Y-135035081D01*
X212431012Y-134910779D01*
X212132113Y-134766837D01*
X211818977Y-134657266D01*
X211818976Y-134657265D01*
X211818974Y-134657265D01*
X211495552Y-134583447D01*
X211495550Y-134583446D01*
X211495543Y-134583445D01*
X211495536Y-134583444D01*
X211495535Y-134583444D01*
X211165876Y-134546300D01*
X210834124Y-134546300D01*
X210504464Y-134583444D01*
X210504460Y-134583444D01*
X210504457Y-134583445D01*
X210504452Y-134583446D01*
X210504447Y-134583447D01*
X210181025Y-134657265D01*
X210024455Y-134712051D01*
X209867887Y-134766837D01*
X209867885Y-134766838D01*
X209568990Y-134910778D01*
X209288085Y-135087281D01*
X209288081Y-135087284D01*
X209028715Y-135294123D01*
X209028707Y-135294130D01*
X208794130Y-135528707D01*
X208794123Y-135528715D01*
X208587284Y-135788081D01*
X208587281Y-135788085D01*
X208410778Y-136068990D01*
X208266838Y-136367885D01*
X208157265Y-136681025D01*
X208083447Y-137004447D01*
X208083445Y-137004457D01*
X208046300Y-137334124D01*
X206250500Y-137334124D01*
X206250500Y-133370063D01*
X206227587Y-133314750D01*
X206227587Y-133314749D01*
X206185251Y-133272413D01*
X206129936Y-133249500D01*
X99929936Y-133249500D01*
X99870064Y-133249500D01*
X99814750Y-133272412D01*
X99814747Y-133272414D01*
X99772414Y-133314747D01*
X99772412Y-133314750D01*
X99749500Y-133370063D01*
X99749500Y-139996045D01*
X99749190Y-140003938D01*
X99749190Y-140003939D01*
X99733505Y-140203220D01*
X99731035Y-140218810D01*
X99685299Y-140409317D01*
X99680421Y-140424331D01*
X99605443Y-140605342D01*
X99598277Y-140619407D01*
X99495903Y-140786466D01*
X99486624Y-140799237D01*
X99359383Y-140948220D01*
X99348220Y-140959383D01*
X99199237Y-141086624D01*
X99186466Y-141095903D01*
X99019407Y-141198277D01*
X99005342Y-141205443D01*
X98824331Y-141280421D01*
X98809317Y-141285299D01*
X98618810Y-141331035D01*
X98603220Y-141333505D01*
X98424327Y-141347585D01*
X98403937Y-141349190D01*
X98396046Y-141349500D01*
X86503954Y-141349500D01*
X86496062Y-141349190D01*
X86473738Y-141347433D01*
X86296779Y-141333505D01*
X86281189Y-141331035D01*
X86090682Y-141285299D01*
X86075668Y-141280421D01*
X85894657Y-141205444D01*
X85880591Y-141198277D01*
X85713533Y-141095903D01*
X85700763Y-141086625D01*
X85589541Y-140991634D01*
X85551776Y-140959380D01*
X85540621Y-140948225D01*
X85476996Y-140873730D01*
X85413376Y-140799239D01*
X85413375Y-140799237D01*
X85404097Y-140786468D01*
X85301723Y-140619409D01*
X85294557Y-140605344D01*
X85231743Y-140453700D01*
X85219576Y-140424327D01*
X85214703Y-140409328D01*
X85168961Y-140218801D01*
X85166494Y-140203231D01*
X85150810Y-140003938D01*
X85150500Y-139996048D01*
X85150500Y-137334124D01*
X92046300Y-137334124D01*
X92046300Y-137665876D01*
X92083445Y-137995543D01*
X92157266Y-138318977D01*
X92266837Y-138632113D01*
X92410779Y-138931012D01*
X92587282Y-139211915D01*
X92794127Y-139471289D01*
X93028711Y-139705873D01*
X93288085Y-139912718D01*
X93568988Y-140089221D01*
X93867887Y-140233163D01*
X94181023Y-140342734D01*
X94504457Y-140416555D01*
X94834124Y-140453700D01*
X95165876Y-140453700D01*
X95495543Y-140416555D01*
X95818977Y-140342734D01*
X96132113Y-140233163D01*
X96431012Y-140089221D01*
X96711915Y-139912718D01*
X96971289Y-139705873D01*
X97205873Y-139471289D01*
X97412718Y-139211915D01*
X97589221Y-138931012D01*
X97733163Y-138632113D01*
X97842734Y-138318977D01*
X97916555Y-137995543D01*
X97953700Y-137665876D01*
X97953700Y-137334124D01*
X97916555Y-137004457D01*
X97842734Y-136681023D01*
X97733163Y-136367887D01*
X97589221Y-136068988D01*
X97412718Y-135788085D01*
X97205873Y-135528711D01*
X96971289Y-135294127D01*
X96711915Y-135087282D01*
X96711914Y-135087281D01*
X96628837Y-135035081D01*
X96431012Y-134910779D01*
X96132113Y-134766837D01*
X95818977Y-134657266D01*
X95818976Y-134657265D01*
X95818974Y-134657265D01*
X95495552Y-134583447D01*
X95495550Y-134583446D01*
X95495543Y-134583445D01*
X95495536Y-134583444D01*
X95495535Y-134583444D01*
X95165876Y-134546300D01*
X94834124Y-134546300D01*
X94504464Y-134583444D01*
X94504460Y-134583444D01*
X94504457Y-134583445D01*
X94504452Y-134583446D01*
X94504447Y-134583447D01*
X94181025Y-134657265D01*
X94024455Y-134712051D01*
X93867887Y-134766837D01*
X93867885Y-134766838D01*
X93568990Y-134910778D01*
X93288085Y-135087281D01*
X93288081Y-135087284D01*
X93028715Y-135294123D01*
X93028707Y-135294130D01*
X92794130Y-135528707D01*
X92794123Y-135528715D01*
X92587284Y-135788081D01*
X92587281Y-135788085D01*
X92410778Y-136068990D01*
X92266838Y-136367885D01*
X92157265Y-136681025D01*
X92083447Y-137004447D01*
X92083445Y-137004457D01*
X92046300Y-137334124D01*
X85150500Y-137334124D01*
X85150500Y-114253851D01*
X86899500Y-114253851D01*
X86899500Y-126346148D01*
X86923384Y-126435284D01*
X86923384Y-126435285D01*
X86923386Y-126435288D01*
X86969531Y-126515212D01*
X87034788Y-126580469D01*
X87114712Y-126626614D01*
X87114714Y-126626615D01*
X87203851Y-126650499D01*
X87203853Y-126650499D01*
X87203856Y-126650500D01*
X87220064Y-126650500D01*
X89898900Y-126650500D01*
X89958031Y-126669713D01*
X89994576Y-126720013D01*
X89999500Y-126751100D01*
X89999500Y-126996148D01*
X90023384Y-127085284D01*
X90023384Y-127085285D01*
X90023386Y-127085288D01*
X90069531Y-127165212D01*
X90134788Y-127230469D01*
X90214712Y-127276614D01*
X90214714Y-127276615D01*
X90303851Y-127300499D01*
X90303853Y-127300499D01*
X90303856Y-127300500D01*
X90303858Y-127300500D01*
X91196142Y-127300500D01*
X91196144Y-127300500D01*
X91285284Y-127276615D01*
X91285285Y-127276615D01*
X91285285Y-127276614D01*
X91285288Y-127276614D01*
X91365212Y-127230469D01*
X91430469Y-127165212D01*
X91476614Y-127085288D01*
X91500500Y-126996144D01*
X91500500Y-126950000D01*
X91500500Y-126915649D01*
X91500500Y-126751100D01*
X91519713Y-126691969D01*
X91570013Y-126655424D01*
X91601100Y-126650500D01*
X94898900Y-126650500D01*
X94958031Y-126669713D01*
X94994576Y-126720013D01*
X94999500Y-126751100D01*
X94999500Y-126996148D01*
X95023384Y-127085284D01*
X95023384Y-127085285D01*
X95023386Y-127085288D01*
X95069531Y-127165212D01*
X95134788Y-127230469D01*
X95214712Y-127276614D01*
X95214714Y-127276615D01*
X95303851Y-127300499D01*
X95303853Y-127300499D01*
X95303856Y-127300500D01*
X95303858Y-127300500D01*
X96196142Y-127300500D01*
X96196144Y-127300500D01*
X96285284Y-127276615D01*
X96285285Y-127276615D01*
X96285285Y-127276614D01*
X96285288Y-127276614D01*
X96365212Y-127230469D01*
X96430469Y-127165212D01*
X96476614Y-127085288D01*
X96500500Y-126996144D01*
X96500500Y-126950000D01*
X96500500Y-126915649D01*
X96500500Y-126751100D01*
X96519713Y-126691969D01*
X96570013Y-126655424D01*
X96601100Y-126650500D01*
X99296142Y-126650500D01*
X99296144Y-126650500D01*
X99385284Y-126626615D01*
X99385285Y-126626615D01*
X99385285Y-126626614D01*
X99385288Y-126626614D01*
X99465212Y-126580469D01*
X99530469Y-126515212D01*
X99576614Y-126435288D01*
X99600500Y-126346144D01*
X99600500Y-126300000D01*
X99600500Y-126265649D01*
X99600500Y-114270064D01*
X99600500Y-114253856D01*
X99593461Y-114227587D01*
X99576615Y-114164715D01*
X99576615Y-114164714D01*
X99570368Y-114153894D01*
X99530469Y-114084788D01*
X99465212Y-114019531D01*
X99385288Y-113973386D01*
X99385285Y-113973384D01*
X99296148Y-113949500D01*
X99296144Y-113949500D01*
X99279936Y-113949500D01*
X96601100Y-113949500D01*
X96541969Y-113930287D01*
X96505424Y-113879987D01*
X96500500Y-113848900D01*
X96500500Y-113603857D01*
X96500499Y-113603851D01*
X96476615Y-113514715D01*
X96476615Y-113514714D01*
X96430468Y-113434787D01*
X96365212Y-113369531D01*
X96285285Y-113323384D01*
X96196148Y-113299500D01*
X96196144Y-113299500D01*
X96179936Y-113299500D01*
X95384351Y-113299500D01*
X95350000Y-113299500D01*
X95303856Y-113299500D01*
X95303851Y-113299500D01*
X95214715Y-113323384D01*
X95214714Y-113323384D01*
X95134787Y-113369531D01*
X95069531Y-113434787D01*
X95023384Y-113514714D01*
X95023384Y-113514715D01*
X94999500Y-113603851D01*
X94999500Y-113848900D01*
X94980287Y-113908031D01*
X94929987Y-113944576D01*
X94898900Y-113949500D01*
X91601100Y-113949500D01*
X91541969Y-113930287D01*
X91505424Y-113879987D01*
X91500500Y-113848900D01*
X91500500Y-113603857D01*
X91500499Y-113603851D01*
X91476615Y-113514715D01*
X91476615Y-113514714D01*
X91430468Y-113434787D01*
X91365212Y-113369531D01*
X91285285Y-113323384D01*
X91196148Y-113299500D01*
X91196144Y-113299500D01*
X91179936Y-113299500D01*
X90384351Y-113299500D01*
X90350000Y-113299500D01*
X90303856Y-113299500D01*
X90303851Y-113299500D01*
X90214715Y-113323384D01*
X90214714Y-113323384D01*
X90134787Y-113369531D01*
X90069531Y-113434787D01*
X90023384Y-113514714D01*
X90023384Y-113514715D01*
X89999500Y-113603851D01*
X89999500Y-113848900D01*
X89980287Y-113908031D01*
X89929987Y-113944576D01*
X89898900Y-113949500D01*
X87203851Y-113949500D01*
X87114715Y-113973384D01*
X87114714Y-113973384D01*
X87034787Y-114019531D01*
X86969531Y-114084787D01*
X86923384Y-114164714D01*
X86923384Y-114164715D01*
X86899500Y-114253851D01*
X85150500Y-114253851D01*
X85150500Y-96253851D01*
X86899500Y-96253851D01*
X86899500Y-108346148D01*
X86923384Y-108435284D01*
X86923384Y-108435285D01*
X86923386Y-108435288D01*
X86969531Y-108515212D01*
X87034788Y-108580469D01*
X87114712Y-108626614D01*
X87114714Y-108626615D01*
X87203851Y-108650499D01*
X87203853Y-108650499D01*
X87203856Y-108650500D01*
X87220064Y-108650500D01*
X89898900Y-108650500D01*
X89958031Y-108669713D01*
X89994576Y-108720013D01*
X89999500Y-108751100D01*
X89999500Y-108996148D01*
X90023384Y-109085284D01*
X90023384Y-109085285D01*
X90046225Y-109124846D01*
X90069531Y-109165212D01*
X90134788Y-109230469D01*
X90204010Y-109270435D01*
X90214714Y-109276615D01*
X90303851Y-109300499D01*
X90303853Y-109300499D01*
X90303856Y-109300500D01*
X90303858Y-109300500D01*
X91196142Y-109300500D01*
X91196144Y-109300500D01*
X91230375Y-109291328D01*
X91285284Y-109276615D01*
X91285285Y-109276615D01*
X91285285Y-109276614D01*
X91285288Y-109276614D01*
X91365212Y-109230469D01*
X91430469Y-109165212D01*
X91476614Y-109085288D01*
X91500500Y-108996144D01*
X91500500Y-108950000D01*
X91500500Y-108915649D01*
X91500500Y-108751100D01*
X91519713Y-108691969D01*
X91570013Y-108655424D01*
X91601100Y-108650500D01*
X94898900Y-108650500D01*
X94958031Y-108669713D01*
X94994576Y-108720013D01*
X94999500Y-108751100D01*
X94999500Y-108996148D01*
X95023384Y-109085284D01*
X95023384Y-109085285D01*
X95046225Y-109124846D01*
X95069531Y-109165212D01*
X95134788Y-109230469D01*
X95204010Y-109270435D01*
X95214714Y-109276615D01*
X95303851Y-109300499D01*
X95303853Y-109300499D01*
X95303856Y-109300500D01*
X95303858Y-109300500D01*
X96196142Y-109300500D01*
X96196144Y-109300500D01*
X96230375Y-109291328D01*
X96285284Y-109276615D01*
X96285285Y-109276615D01*
X96285285Y-109276614D01*
X96285288Y-109276614D01*
X96365212Y-109230469D01*
X96430469Y-109165212D01*
X96476614Y-109085288D01*
X96500500Y-108996144D01*
X96500500Y-108950000D01*
X96500500Y-108915649D01*
X96500500Y-108751100D01*
X96519713Y-108691969D01*
X96570013Y-108655424D01*
X96601100Y-108650500D01*
X99296142Y-108650500D01*
X99296144Y-108650500D01*
X99317227Y-108644851D01*
X99385284Y-108626615D01*
X99385285Y-108626615D01*
X99385285Y-108626614D01*
X99385288Y-108626614D01*
X99465212Y-108580469D01*
X99530469Y-108515212D01*
X99576614Y-108435288D01*
X99600500Y-108346144D01*
X99600500Y-108300000D01*
X99600500Y-108265649D01*
X99600500Y-96270064D01*
X99600500Y-96253856D01*
X99599585Y-96250443D01*
X99576615Y-96164715D01*
X99576615Y-96164714D01*
X99574581Y-96161191D01*
X99530469Y-96084788D01*
X99465212Y-96019531D01*
X99459867Y-96016445D01*
X99385285Y-95973384D01*
X99296148Y-95949500D01*
X99296144Y-95949500D01*
X99279936Y-95949500D01*
X96601100Y-95949500D01*
X96541969Y-95930287D01*
X96505424Y-95879987D01*
X96500500Y-95848900D01*
X96500500Y-95603857D01*
X96500499Y-95603851D01*
X96476615Y-95514715D01*
X96476615Y-95514714D01*
X96476614Y-95514712D01*
X96430469Y-95434788D01*
X96365212Y-95369531D01*
X96285288Y-95323386D01*
X96285285Y-95323384D01*
X96196148Y-95299500D01*
X96196144Y-95299500D01*
X96179936Y-95299500D01*
X95384351Y-95299500D01*
X95350000Y-95299500D01*
X95303856Y-95299500D01*
X95303851Y-95299500D01*
X95214715Y-95323384D01*
X95214714Y-95323384D01*
X95134787Y-95369531D01*
X95069531Y-95434787D01*
X95023384Y-95514714D01*
X95023384Y-95514715D01*
X94999500Y-95603851D01*
X94999500Y-95848900D01*
X94980287Y-95908031D01*
X94929987Y-95944576D01*
X94898900Y-95949500D01*
X91601100Y-95949500D01*
X91541969Y-95930287D01*
X91505424Y-95879987D01*
X91500500Y-95848900D01*
X91500500Y-95603857D01*
X91500499Y-95603851D01*
X91476615Y-95514715D01*
X91476615Y-95514714D01*
X91476614Y-95514712D01*
X91430469Y-95434788D01*
X91365212Y-95369531D01*
X91285288Y-95323386D01*
X91285285Y-95323384D01*
X91196148Y-95299500D01*
X91196144Y-95299500D01*
X91179936Y-95299500D01*
X90384351Y-95299500D01*
X90350000Y-95299500D01*
X90303856Y-95299500D01*
X90303851Y-95299500D01*
X90214715Y-95323384D01*
X90214714Y-95323384D01*
X90134787Y-95369531D01*
X90069531Y-95434787D01*
X90023384Y-95514714D01*
X90023384Y-95514715D01*
X89999500Y-95603851D01*
X89999500Y-95848900D01*
X89980287Y-95908031D01*
X89929987Y-95944576D01*
X89898900Y-95949500D01*
X87203851Y-95949500D01*
X87114715Y-95973384D01*
X87114714Y-95973384D01*
X87034787Y-96019531D01*
X86969531Y-96084787D01*
X86923384Y-96164714D01*
X86923384Y-96164715D01*
X86899500Y-96253851D01*
X85150500Y-96253851D01*
X85150500Y-93930264D01*
X113180445Y-93930264D01*
X113180445Y-94049735D01*
X113211362Y-94165118D01*
X113211364Y-94165123D01*
X113271093Y-94268576D01*
X113355568Y-94353051D01*
X113459021Y-94412780D01*
X113459023Y-94412781D01*
X113459024Y-94412781D01*
X113459026Y-94412782D01*
X113574409Y-94443699D01*
X113574411Y-94443699D01*
X113574414Y-94443700D01*
X113574416Y-94443700D01*
X113693874Y-94443700D01*
X113693876Y-94443700D01*
X113809267Y-94412781D01*
X113912723Y-94353050D01*
X113966408Y-94299365D01*
X114021806Y-94271139D01*
X114037543Y-94269900D01*
X114510297Y-94269900D01*
X114536334Y-94273328D01*
X114580264Y-94285099D01*
X114580266Y-94285099D01*
X114580269Y-94285100D01*
X114580271Y-94285100D01*
X114699729Y-94285100D01*
X114699731Y-94285100D01*
X114815122Y-94254181D01*
X114918578Y-94194450D01*
X115003050Y-94109978D01*
X115062781Y-94006522D01*
X115093700Y-93891131D01*
X115093700Y-93771669D01*
X115084012Y-93735514D01*
X115062782Y-93656281D01*
X115062780Y-93656276D01*
X115003051Y-93552823D01*
X114918576Y-93468348D01*
X114815123Y-93408619D01*
X114815118Y-93408617D01*
X114699735Y-93377700D01*
X114699731Y-93377700D01*
X114580269Y-93377700D01*
X114580264Y-93377700D01*
X114464881Y-93408617D01*
X114464876Y-93408619D01*
X114361423Y-93468348D01*
X114361422Y-93468350D01*
X114276950Y-93552821D01*
X114215185Y-93659801D01*
X114199554Y-93673874D01*
X114187194Y-93690887D01*
X114176969Y-93694209D01*
X114168980Y-93701403D01*
X114128063Y-93710100D01*
X114037543Y-93710100D01*
X113978412Y-93690887D01*
X113966408Y-93680635D01*
X113912721Y-93626948D01*
X113809268Y-93567219D01*
X113809263Y-93567217D01*
X113693880Y-93536300D01*
X113693876Y-93536300D01*
X113574414Y-93536300D01*
X113574409Y-93536300D01*
X113459026Y-93567217D01*
X113459021Y-93567219D01*
X113355568Y-93626948D01*
X113355567Y-93626950D01*
X113271095Y-93711422D01*
X113271093Y-93711423D01*
X113211364Y-93814876D01*
X113211362Y-93814881D01*
X113180445Y-93930264D01*
X85150500Y-93930264D01*
X85150500Y-93359739D01*
X111052300Y-93359739D01*
X111052300Y-93480260D01*
X111073084Y-93557822D01*
X111083069Y-93595089D01*
X111083493Y-93596669D01*
X111138381Y-93691737D01*
X111143749Y-93701035D01*
X111228965Y-93786251D01*
X111228967Y-93786252D01*
X111333330Y-93846506D01*
X111333334Y-93846508D01*
X111449742Y-93877700D01*
X111570258Y-93877700D01*
X111686666Y-93846508D01*
X111703937Y-93836537D01*
X111741451Y-93814878D01*
X111791035Y-93786251D01*
X113976251Y-91601035D01*
X114030562Y-91506963D01*
X114036508Y-91496665D01*
X114067700Y-91380257D01*
X114067700Y-71821255D01*
X114086913Y-71762124D01*
X114097165Y-71750120D01*
X117210120Y-68637165D01*
X117265518Y-68608939D01*
X117281255Y-68607700D01*
X118086618Y-68607700D01*
X118145749Y-68626913D01*
X118182294Y-68677213D01*
X118182294Y-68739387D01*
X118157753Y-68779435D01*
X115561796Y-71375390D01*
X115506398Y-71403616D01*
X115444990Y-71393890D01*
X115440377Y-71391386D01*
X115412671Y-71375390D01*
X115404422Y-71370627D01*
X115276315Y-71336300D01*
X115276313Y-71336300D01*
X115143687Y-71336300D01*
X115143684Y-71336300D01*
X115015575Y-71370628D01*
X114900723Y-71436938D01*
X114900722Y-71436939D01*
X114900721Y-71436940D01*
X114806940Y-71530721D01*
X114806939Y-71530722D01*
X114806938Y-71530723D01*
X114740628Y-71645575D01*
X114706300Y-71773684D01*
X114706300Y-71906315D01*
X114740628Y-72034424D01*
X114806938Y-72149276D01*
X114806940Y-72149279D01*
X114900721Y-72243060D01*
X114939598Y-72265505D01*
X114981202Y-72311708D01*
X114989900Y-72352628D01*
X114989900Y-86330089D01*
X115013344Y-86447958D01*
X115013345Y-86447960D01*
X115025342Y-86476924D01*
X115025347Y-86476934D01*
X115026651Y-86480082D01*
X115059336Y-86558991D01*
X115081727Y-86592501D01*
X115085330Y-86597894D01*
X115085331Y-86597895D01*
X115126102Y-86658914D01*
X115126104Y-86658916D01*
X116561084Y-88093896D01*
X116661009Y-88160664D01*
X116690497Y-88172878D01*
X116772037Y-88206653D01*
X116772038Y-88206653D01*
X116772040Y-88206654D01*
X116889910Y-88230100D01*
X116889911Y-88230100D01*
X117010089Y-88230100D01*
X117010090Y-88230100D01*
X117127959Y-88206654D01*
X117201002Y-88176399D01*
X117262984Y-88171521D01*
X117315997Y-88204006D01*
X117339790Y-88261448D01*
X117340100Y-88269341D01*
X117340100Y-88619091D01*
X117337591Y-88626811D01*
X117338861Y-88634828D01*
X117328166Y-88655816D01*
X117320887Y-88678222D01*
X117310635Y-88690226D01*
X117274026Y-88726835D01*
X117218628Y-88755061D01*
X117202891Y-88756300D01*
X117200264Y-88756300D01*
X117084881Y-88787217D01*
X117084876Y-88787219D01*
X116981423Y-88846948D01*
X116981422Y-88846950D01*
X116896950Y-88931422D01*
X116896948Y-88931423D01*
X116837219Y-89034876D01*
X116837217Y-89034881D01*
X116806300Y-89150264D01*
X116806300Y-89269735D01*
X116837217Y-89385118D01*
X116837219Y-89385123D01*
X116896948Y-89488576D01*
X116981423Y-89573051D01*
X117081653Y-89630919D01*
X117084878Y-89632781D01*
X117084879Y-89632781D01*
X117084881Y-89632782D01*
X117200264Y-89663699D01*
X117200266Y-89663699D01*
X117200269Y-89663700D01*
X117200271Y-89663700D01*
X117319729Y-89663700D01*
X117319731Y-89663700D01*
X117322583Y-89662936D01*
X117435118Y-89632782D01*
X117435117Y-89632782D01*
X117435122Y-89632781D01*
X117538578Y-89573050D01*
X117623050Y-89488578D01*
X117682781Y-89385122D01*
X117682790Y-89385087D01*
X117682808Y-89385024D01*
X117682845Y-89384965D01*
X117685305Y-89379029D01*
X117686405Y-89379484D01*
X117696302Y-89364243D01*
X117706954Y-89341868D01*
X117712950Y-89338606D01*
X117716669Y-89332880D01*
X117739802Y-89323999D01*
X117761570Y-89312159D01*
X117767845Y-89313234D01*
X117774714Y-89310598D01*
X117823219Y-89320226D01*
X117826820Y-89321940D01*
X117914878Y-89372781D01*
X117957762Y-89384271D01*
X117966069Y-89388226D01*
X117982281Y-89403586D01*
X118001010Y-89415749D01*
X118004378Y-89424523D01*
X118011202Y-89430989D01*
X118015289Y-89452945D01*
X118023292Y-89473793D01*
X118020859Y-89482871D01*
X118022580Y-89492114D01*
X118012979Y-89512280D01*
X118007201Y-89533849D01*
X117996309Y-89547300D01*
X117995856Y-89548252D01*
X117995288Y-89548560D01*
X117993965Y-89550195D01*
X117098732Y-90445428D01*
X117043334Y-90473654D01*
X116981926Y-90463928D01*
X116977297Y-90461415D01*
X116888460Y-90410125D01*
X116888455Y-90410123D01*
X116773072Y-90379206D01*
X116773068Y-90379206D01*
X116653606Y-90379206D01*
X116653601Y-90379206D01*
X116538218Y-90410123D01*
X116538213Y-90410125D01*
X116434760Y-90469854D01*
X116434759Y-90469856D01*
X116353980Y-90550635D01*
X116346746Y-90554320D01*
X116341976Y-90560887D01*
X116319570Y-90568166D01*
X116298582Y-90578861D01*
X116282845Y-90580100D01*
X116242670Y-90580100D01*
X116183539Y-90560887D01*
X116159479Y-90534167D01*
X116159191Y-90534389D01*
X116156376Y-90530720D01*
X116155548Y-90529801D01*
X116155177Y-90529158D01*
X116070705Y-90444686D01*
X116070703Y-90444684D01*
X115967250Y-90384955D01*
X115967245Y-90384953D01*
X115851862Y-90354036D01*
X115851858Y-90354036D01*
X115732396Y-90354036D01*
X115732391Y-90354036D01*
X115617008Y-90384953D01*
X115617003Y-90384955D01*
X115513550Y-90444684D01*
X115513549Y-90444686D01*
X115429077Y-90529158D01*
X115429075Y-90529159D01*
X115369346Y-90632612D01*
X115369344Y-90632617D01*
X115338427Y-90748000D01*
X115338427Y-90867471D01*
X115369344Y-90982854D01*
X115369346Y-90982859D01*
X115429075Y-91086312D01*
X115513550Y-91170787D01*
X115616920Y-91230468D01*
X115617005Y-91230517D01*
X115617006Y-91230517D01*
X115617008Y-91230518D01*
X115732391Y-91261435D01*
X115732393Y-91261435D01*
X115732396Y-91261436D01*
X115732398Y-91261436D01*
X115851856Y-91261436D01*
X115851858Y-91261436D01*
X115967249Y-91230517D01*
X116070705Y-91170786D01*
X116072126Y-91169365D01*
X116073408Y-91168711D01*
X116075936Y-91166772D01*
X116076295Y-91167240D01*
X116079359Y-91165679D01*
X116084130Y-91159113D01*
X116106535Y-91151833D01*
X116127524Y-91141139D01*
X116143261Y-91139900D01*
X116337033Y-91139900D01*
X116396164Y-91159113D01*
X116408168Y-91169365D01*
X116434760Y-91195957D01*
X116494621Y-91230518D01*
X116538215Y-91255687D01*
X116538216Y-91255687D01*
X116538218Y-91255688D01*
X116653601Y-91286605D01*
X116653603Y-91286605D01*
X116653606Y-91286606D01*
X116653608Y-91286606D01*
X116773066Y-91286606D01*
X116773068Y-91286606D01*
X116888459Y-91255687D01*
X116991915Y-91195956D01*
X117018506Y-91169365D01*
X117073904Y-91141139D01*
X117089641Y-91139900D01*
X117116850Y-91139900D01*
X117188037Y-91120825D01*
X117251862Y-91083976D01*
X118698367Y-89637470D01*
X118753763Y-89609246D01*
X118815171Y-89618972D01*
X118859135Y-89662936D01*
X118870100Y-89708607D01*
X118870100Y-95476602D01*
X118850887Y-95535733D01*
X118840635Y-95547737D01*
X118786950Y-95601422D01*
X118786948Y-95601423D01*
X118727219Y-95704876D01*
X118727217Y-95704881D01*
X118696300Y-95820264D01*
X118696300Y-95939735D01*
X118727217Y-96055118D01*
X118727219Y-96055123D01*
X118786948Y-96158576D01*
X118871423Y-96243051D01*
X118970054Y-96299996D01*
X118974878Y-96302781D01*
X118974879Y-96302781D01*
X118974881Y-96302782D01*
X119090264Y-96333699D01*
X119090266Y-96333699D01*
X119090269Y-96333700D01*
X119090271Y-96333700D01*
X119209729Y-96333700D01*
X119209731Y-96333700D01*
X119325122Y-96302781D01*
X119428578Y-96243050D01*
X119513050Y-96158578D01*
X119572781Y-96055122D01*
X119603700Y-95939731D01*
X119603700Y-95820269D01*
X119598489Y-95800823D01*
X119572782Y-95704881D01*
X119572780Y-95704876D01*
X119513051Y-95601423D01*
X119459365Y-95547737D01*
X119431139Y-95492339D01*
X119429900Y-95476602D01*
X119429900Y-87871846D01*
X131446300Y-87871846D01*
X131446300Y-87978153D01*
X131473809Y-88080820D01*
X131473811Y-88080824D01*
X131526959Y-88172878D01*
X131540635Y-88186554D01*
X131568861Y-88241952D01*
X131570100Y-88257689D01*
X131570100Y-90253150D01*
X131570100Y-90326850D01*
X131589175Y-90398037D01*
X131598218Y-90413700D01*
X131616107Y-90444686D01*
X131626024Y-90461862D01*
X133545636Y-92381474D01*
X133573861Y-92436870D01*
X133575100Y-92452607D01*
X133575100Y-96708150D01*
X133575100Y-96781850D01*
X133594175Y-96853037D01*
X133594176Y-96853038D01*
X133624144Y-96904946D01*
X133637070Y-96965762D01*
X133634193Y-96981281D01*
X133632745Y-96986684D01*
X133632744Y-96986693D01*
X133632744Y-97092993D01*
X133660253Y-97195660D01*
X133660255Y-97195664D01*
X133713403Y-97287718D01*
X133788565Y-97362880D01*
X133788564Y-97362880D01*
X133880619Y-97416028D01*
X133880623Y-97416030D01*
X133983290Y-97443539D01*
X133983294Y-97443539D01*
X133983296Y-97443540D01*
X133983298Y-97443540D01*
X134089590Y-97443540D01*
X134089592Y-97443540D01*
X134089594Y-97443539D01*
X134089597Y-97443539D01*
X134192264Y-97416030D01*
X134192264Y-97416029D01*
X134192267Y-97416029D01*
X134284322Y-97362881D01*
X134317133Y-97330069D01*
X134372528Y-97301844D01*
X134433937Y-97311569D01*
X134438567Y-97314083D01*
X134494175Y-97346188D01*
X134494179Y-97346190D01*
X134596846Y-97373699D01*
X134596850Y-97373699D01*
X134596852Y-97373700D01*
X134596854Y-97373700D01*
X134703146Y-97373700D01*
X134703148Y-97373700D01*
X134703150Y-97373699D01*
X134703153Y-97373699D01*
X134805820Y-97346190D01*
X134805820Y-97346189D01*
X134805823Y-97346189D01*
X134897878Y-97293041D01*
X134973041Y-97217878D01*
X135026189Y-97125823D01*
X135053700Y-97023148D01*
X135053700Y-96948409D01*
X135072913Y-96889278D01*
X135123213Y-96852733D01*
X135180337Y-96851237D01*
X135226846Y-96863699D01*
X135226850Y-96863699D01*
X135226852Y-96863700D01*
X135226854Y-96863700D01*
X135333146Y-96863700D01*
X135333148Y-96863700D01*
X135333150Y-96863699D01*
X135333153Y-96863699D01*
X135435820Y-96836190D01*
X135435820Y-96836189D01*
X135435823Y-96836189D01*
X135527878Y-96783041D01*
X135603041Y-96707878D01*
X135656189Y-96615823D01*
X135683700Y-96513148D01*
X135683700Y-96406852D01*
X135683699Y-96406850D01*
X135683699Y-96406846D01*
X135672112Y-96363602D01*
X135675366Y-96301513D01*
X135714494Y-96253194D01*
X135774550Y-96237103D01*
X135819582Y-96250442D01*
X135864177Y-96276189D01*
X135864179Y-96276190D01*
X135966846Y-96303699D01*
X135966850Y-96303699D01*
X135966852Y-96303700D01*
X135966854Y-96303700D01*
X136073146Y-96303700D01*
X136073148Y-96303700D01*
X136073150Y-96303699D01*
X136073153Y-96303699D01*
X136175820Y-96276190D01*
X136175820Y-96276189D01*
X136175823Y-96276189D01*
X136267878Y-96223041D01*
X136308398Y-96182520D01*
X136363794Y-96154295D01*
X136412648Y-96160078D01*
X136412808Y-96159483D01*
X136416914Y-96160583D01*
X136418036Y-96160716D01*
X136419182Y-96161191D01*
X136521846Y-96188699D01*
X136521850Y-96188699D01*
X136521852Y-96188700D01*
X136521854Y-96188700D01*
X136628146Y-96188700D01*
X136628148Y-96188700D01*
X136628150Y-96188699D01*
X136628153Y-96188699D01*
X136730820Y-96161190D01*
X136730820Y-96161189D01*
X136730823Y-96161189D01*
X136822878Y-96108041D01*
X136881223Y-96049695D01*
X136936619Y-96021470D01*
X136978394Y-96023659D01*
X137071846Y-96048699D01*
X137071850Y-96048699D01*
X137071852Y-96048700D01*
X137071854Y-96048700D01*
X137178146Y-96048700D01*
X137178148Y-96048700D01*
X137178150Y-96048699D01*
X137178153Y-96048699D01*
X137280820Y-96021190D01*
X137280820Y-96021189D01*
X137280823Y-96021189D01*
X137372878Y-95968041D01*
X137448041Y-95892878D01*
X137501189Y-95800823D01*
X137526897Y-95704878D01*
X137528699Y-95698153D01*
X137528700Y-95698146D01*
X137528700Y-95591853D01*
X137528699Y-95591846D01*
X137501190Y-95489179D01*
X137501188Y-95489175D01*
X137448040Y-95397121D01*
X137434365Y-95383446D01*
X137406139Y-95328048D01*
X137404900Y-95312311D01*
X137404900Y-92278608D01*
X137424113Y-92219477D01*
X137474413Y-92182932D01*
X137536587Y-92182932D01*
X137576635Y-92207473D01*
X137760635Y-92391473D01*
X137788861Y-92446871D01*
X137790100Y-92462608D01*
X137790100Y-98472445D01*
X137770887Y-98531576D01*
X137760635Y-98543580D01*
X137746959Y-98557255D01*
X137693811Y-98649309D01*
X137693809Y-98649313D01*
X137666300Y-98751980D01*
X137666300Y-98858287D01*
X137693809Y-98960954D01*
X137693811Y-98960958D01*
X137746959Y-99053012D01*
X137822121Y-99128174D01*
X137822120Y-99128174D01*
X137914175Y-99181322D01*
X137914179Y-99181324D01*
X138016846Y-99208833D01*
X138016850Y-99208833D01*
X138016852Y-99208834D01*
X138016854Y-99208834D01*
X138055857Y-99208834D01*
X138114988Y-99228047D01*
X138151533Y-99278347D01*
X138153029Y-99283398D01*
X138173808Y-99360952D01*
X138173811Y-99360958D01*
X138226959Y-99453012D01*
X138302121Y-99528174D01*
X138302120Y-99528174D01*
X138394175Y-99581322D01*
X138394179Y-99581324D01*
X138496846Y-99608833D01*
X138496850Y-99608833D01*
X138496852Y-99608834D01*
X138496854Y-99608834D01*
X138603146Y-99608834D01*
X138603148Y-99608834D01*
X138603150Y-99608833D01*
X138603153Y-99608833D01*
X138705820Y-99581324D01*
X138705820Y-99581323D01*
X138705823Y-99581323D01*
X138797878Y-99528175D01*
X138873041Y-99453012D01*
X138926189Y-99360957D01*
X138926189Y-99360954D01*
X138926191Y-99360952D01*
X138946971Y-99283398D01*
X138948467Y-99281094D01*
X138948467Y-99278347D01*
X138965268Y-99255221D01*
X138980833Y-99231254D01*
X138983397Y-99230269D01*
X138985012Y-99228047D01*
X139012196Y-99219214D01*
X139038877Y-99208972D01*
X139044143Y-99208834D01*
X139115857Y-99208834D01*
X139174988Y-99228047D01*
X139211533Y-99278347D01*
X139213029Y-99283398D01*
X139233808Y-99360952D01*
X139233811Y-99360958D01*
X139286959Y-99453012D01*
X139362121Y-99528174D01*
X139362120Y-99528174D01*
X139454175Y-99581322D01*
X139454179Y-99581324D01*
X139556846Y-99608833D01*
X139556850Y-99608833D01*
X139556852Y-99608834D01*
X139556854Y-99608834D01*
X139663146Y-99608834D01*
X139663148Y-99608834D01*
X139663150Y-99608833D01*
X139663153Y-99608833D01*
X139765820Y-99581324D01*
X139765820Y-99581323D01*
X139765823Y-99581323D01*
X139857878Y-99528175D01*
X139933041Y-99453012D01*
X139962878Y-99401331D01*
X140009082Y-99359729D01*
X140070916Y-99353230D01*
X140124760Y-99384317D01*
X140137122Y-99401332D01*
X140166959Y-99453012D01*
X140242121Y-99528174D01*
X140242120Y-99528174D01*
X140334175Y-99581322D01*
X140334179Y-99581324D01*
X140436846Y-99608833D01*
X140436850Y-99608833D01*
X140436852Y-99608834D01*
X140436854Y-99608834D01*
X140543146Y-99608834D01*
X140543148Y-99608834D01*
X140543150Y-99608833D01*
X140543153Y-99608833D01*
X140645820Y-99581324D01*
X140645820Y-99581323D01*
X140645823Y-99581323D01*
X140737878Y-99528175D01*
X140813041Y-99453012D01*
X140857878Y-99375351D01*
X140904083Y-99333749D01*
X140965916Y-99327250D01*
X141019761Y-99358338D01*
X141032122Y-99375352D01*
X141076959Y-99453012D01*
X141152121Y-99528174D01*
X141152120Y-99528174D01*
X141244175Y-99581322D01*
X141244179Y-99581324D01*
X141346846Y-99608833D01*
X141346850Y-99608833D01*
X141346852Y-99608834D01*
X141346854Y-99608834D01*
X141453146Y-99608834D01*
X141453148Y-99608834D01*
X141453150Y-99608833D01*
X141453153Y-99608833D01*
X141555820Y-99581324D01*
X141555820Y-99581323D01*
X141555823Y-99581323D01*
X141647878Y-99528175D01*
X141723041Y-99453012D01*
X141776189Y-99360957D01*
X141776190Y-99360954D01*
X141803699Y-99258287D01*
X141803700Y-99258280D01*
X141803700Y-99151987D01*
X141803699Y-99151980D01*
X141776190Y-99049313D01*
X141776188Y-99049309D01*
X141725178Y-98960958D01*
X141723041Y-98957256D01*
X141709365Y-98943580D01*
X141681139Y-98888182D01*
X141679900Y-98872445D01*
X141679900Y-90968150D01*
X141660825Y-90896963D01*
X141623976Y-90833138D01*
X141571862Y-90781024D01*
X139783165Y-88992327D01*
X139754939Y-88936929D01*
X139753700Y-88921192D01*
X139753700Y-88831853D01*
X139753699Y-88831846D01*
X139726190Y-88729179D01*
X139726188Y-88729175D01*
X139683834Y-88655816D01*
X139673041Y-88637122D01*
X139597878Y-88561959D01*
X139597879Y-88561959D01*
X139505824Y-88508811D01*
X139505820Y-88508809D01*
X139403153Y-88481300D01*
X139403148Y-88481300D01*
X139296852Y-88481300D01*
X139296846Y-88481300D01*
X139194179Y-88508809D01*
X139194175Y-88508811D01*
X139102121Y-88561959D01*
X139026961Y-88637119D01*
X139026959Y-88637121D01*
X139026959Y-88637122D01*
X138980993Y-88716737D01*
X138972758Y-88731001D01*
X138926553Y-88772603D01*
X138885636Y-88781300D01*
X138796846Y-88781300D01*
X138694179Y-88808809D01*
X138694175Y-88808811D01*
X138602121Y-88861959D01*
X138526961Y-88937119D01*
X138526959Y-88937121D01*
X138526959Y-88937122D01*
X138495049Y-88992392D01*
X138472758Y-89031001D01*
X138426553Y-89072603D01*
X138385636Y-89081300D01*
X138306846Y-89081300D01*
X138204179Y-89108809D01*
X138204175Y-89108811D01*
X138112121Y-89161959D01*
X138036959Y-89237121D01*
X137983811Y-89329175D01*
X137983809Y-89329180D01*
X137958562Y-89423407D01*
X137947325Y-89440710D01*
X137940089Y-89460035D01*
X137930840Y-89466095D01*
X137924700Y-89475551D01*
X137888225Y-89494325D01*
X137887745Y-89494457D01*
X137834177Y-89508811D01*
X137832601Y-89509720D01*
X137824774Y-89511887D01*
X137799586Y-89510774D01*
X137774449Y-89512751D01*
X137769020Y-89509423D01*
X137762661Y-89509143D01*
X137742939Y-89493439D01*
X137721438Y-89480262D01*
X137715066Y-89471245D01*
X137714022Y-89470414D01*
X137713727Y-89469351D01*
X137710817Y-89465232D01*
X137683041Y-89417122D01*
X137607878Y-89341959D01*
X137607879Y-89341959D01*
X137515824Y-89288811D01*
X137515820Y-89288809D01*
X137413153Y-89261300D01*
X137413148Y-89261300D01*
X137306852Y-89261300D01*
X137306846Y-89261300D01*
X137204179Y-89288809D01*
X137204175Y-89288811D01*
X137112121Y-89341959D01*
X137036960Y-89417120D01*
X137005852Y-89471001D01*
X136993129Y-89482455D01*
X136984214Y-89497069D01*
X136971796Y-89501663D01*
X136959647Y-89512603D01*
X136926819Y-89520974D01*
X136922778Y-89521300D01*
X136846852Y-89521300D01*
X136814149Y-89530062D01*
X136805030Y-89530798D01*
X136783251Y-89525614D01*
X136760887Y-89524442D01*
X136753628Y-89518564D01*
X136744545Y-89516402D01*
X136729970Y-89499404D01*
X136712570Y-89485313D01*
X136709819Y-89480824D01*
X136703195Y-89469351D01*
X136673041Y-89417122D01*
X136597878Y-89341959D01*
X136597879Y-89341959D01*
X136505824Y-89288811D01*
X136505820Y-89288809D01*
X136403153Y-89261300D01*
X136403148Y-89261300D01*
X136296852Y-89261300D01*
X136296846Y-89261300D01*
X136194179Y-89288809D01*
X136194175Y-89288811D01*
X136102121Y-89341959D01*
X136026959Y-89417121D01*
X135973811Y-89509175D01*
X135973809Y-89509179D01*
X135946300Y-89611846D01*
X135946300Y-89631299D01*
X135927087Y-89690430D01*
X135876787Y-89726975D01*
X135875762Y-89727302D01*
X135862994Y-89731300D01*
X135856852Y-89731300D01*
X135754177Y-89758811D01*
X135729334Y-89773153D01*
X135718724Y-89776476D01*
X135698212Y-89776256D01*
X135678144Y-89780522D01*
X135667834Y-89775931D01*
X135656553Y-89775811D01*
X135640087Y-89763576D01*
X135621346Y-89755232D01*
X135617527Y-89751608D01*
X135597878Y-89731959D01*
X135597879Y-89731959D01*
X135505824Y-89678811D01*
X135505820Y-89678809D01*
X135403153Y-89651300D01*
X135403148Y-89651300D01*
X135331464Y-89651300D01*
X135272333Y-89632087D01*
X135235788Y-89581787D01*
X135234292Y-89576737D01*
X135216190Y-89509180D01*
X135216188Y-89509175D01*
X135193195Y-89469351D01*
X135163041Y-89417122D01*
X135087878Y-89341959D01*
X135087879Y-89341959D01*
X134995824Y-89288811D01*
X134995820Y-89288809D01*
X134893153Y-89261300D01*
X134893148Y-89261300D01*
X134786852Y-89261300D01*
X134786846Y-89261300D01*
X134684179Y-89288809D01*
X134684175Y-89288811D01*
X134592121Y-89341959D01*
X134516959Y-89417121D01*
X134463811Y-89509175D01*
X134463808Y-89509181D01*
X134448388Y-89566736D01*
X134446892Y-89569039D01*
X134446892Y-89571787D01*
X134430090Y-89594912D01*
X134414526Y-89618880D01*
X134411961Y-89619864D01*
X134410347Y-89622087D01*
X134383162Y-89630919D01*
X134356482Y-89641162D01*
X134351216Y-89641300D01*
X134338784Y-89641300D01*
X134279653Y-89622087D01*
X134243108Y-89571787D01*
X134241612Y-89566736D01*
X134226191Y-89509181D01*
X134226188Y-89509175D01*
X134203195Y-89469351D01*
X134173041Y-89417122D01*
X134097878Y-89341959D01*
X134097879Y-89341959D01*
X134005824Y-89288811D01*
X134005820Y-89288809D01*
X133903153Y-89261300D01*
X133903148Y-89261300D01*
X133834300Y-89261300D01*
X133775169Y-89242087D01*
X133738624Y-89191787D01*
X133733700Y-89160700D01*
X133733700Y-89141853D01*
X133733699Y-89141846D01*
X133706190Y-89039179D01*
X133706188Y-89039175D01*
X133679140Y-88992327D01*
X133653041Y-88947122D01*
X133577878Y-88871959D01*
X133577879Y-88871959D01*
X133485824Y-88818811D01*
X133485820Y-88818809D01*
X133383153Y-88791300D01*
X133383148Y-88791300D01*
X133341464Y-88791300D01*
X133282333Y-88772087D01*
X133245788Y-88721787D01*
X133244292Y-88716737D01*
X133226190Y-88649180D01*
X133226188Y-88649175D01*
X133190262Y-88586950D01*
X133173041Y-88557122D01*
X133097878Y-88481959D01*
X133097879Y-88481959D01*
X133005824Y-88428811D01*
X133005820Y-88428809D01*
X132903153Y-88401300D01*
X132903148Y-88401300D01*
X132854300Y-88401300D01*
X132795169Y-88382087D01*
X132758624Y-88331787D01*
X132753700Y-88300700D01*
X132753700Y-88281853D01*
X132753699Y-88281846D01*
X132726190Y-88179179D01*
X132726188Y-88179175D01*
X132676952Y-88093896D01*
X132673041Y-88087122D01*
X132597878Y-88011959D01*
X132597879Y-88011959D01*
X132505824Y-87958811D01*
X132505820Y-87958809D01*
X132412436Y-87933788D01*
X132412433Y-87933787D01*
X132403148Y-87931300D01*
X132344960Y-87931300D01*
X132343116Y-87931232D01*
X132315573Y-87921146D01*
X132287692Y-87912087D01*
X132286553Y-87910519D01*
X132284733Y-87909853D01*
X132268379Y-87885505D01*
X132251147Y-87861787D01*
X132250120Y-87858320D01*
X132250066Y-87858240D01*
X132250069Y-87858149D01*
X132249651Y-87856737D01*
X132245237Y-87840264D01*
X140496300Y-87840264D01*
X140496300Y-87959735D01*
X140527217Y-88075118D01*
X140527219Y-88075123D01*
X140586948Y-88178576D01*
X140671423Y-88263051D01*
X140774876Y-88322780D01*
X140774878Y-88322781D01*
X140774879Y-88322781D01*
X140774881Y-88322782D01*
X140890264Y-88353699D01*
X140890266Y-88353699D01*
X140890269Y-88353700D01*
X140966192Y-88353700D01*
X141025323Y-88372913D01*
X141037327Y-88383165D01*
X142000635Y-89346473D01*
X142028861Y-89401871D01*
X142030100Y-89417608D01*
X142030100Y-103333150D01*
X142030100Y-104511550D01*
X142030100Y-104585250D01*
X142049175Y-104656437D01*
X142049176Y-104656438D01*
X142078470Y-104707179D01*
X142086024Y-104720262D01*
X144518436Y-107152674D01*
X144546661Y-107208070D01*
X144547900Y-107223807D01*
X144547900Y-107299735D01*
X144578817Y-107415118D01*
X144578819Y-107415123D01*
X144638548Y-107518576D01*
X144723023Y-107603051D01*
X144826476Y-107662780D01*
X144826478Y-107662781D01*
X144826479Y-107662781D01*
X144826481Y-107662782D01*
X144941864Y-107693699D01*
X144941866Y-107693699D01*
X144941869Y-107693700D01*
X144941871Y-107693700D01*
X145061329Y-107693700D01*
X145061331Y-107693700D01*
X145176722Y-107662781D01*
X145280178Y-107603050D01*
X145364650Y-107518578D01*
X145424381Y-107415122D01*
X145453394Y-107306843D01*
X145455299Y-107299735D01*
X145455300Y-107299729D01*
X145455300Y-107180270D01*
X145455299Y-107180264D01*
X145424382Y-107064881D01*
X145424380Y-107064876D01*
X145364651Y-106961423D01*
X145280176Y-106876948D01*
X145176723Y-106817219D01*
X145176718Y-106817217D01*
X145061335Y-106786300D01*
X145061331Y-106786300D01*
X144985408Y-106786300D01*
X144926277Y-106767087D01*
X144914273Y-106756835D01*
X142619365Y-104461927D01*
X142591139Y-104406529D01*
X142589900Y-104390792D01*
X142589900Y-89223150D01*
X142589899Y-89223147D01*
X142573899Y-89163435D01*
X142573899Y-89163433D01*
X142570826Y-89151967D01*
X142570825Y-89151963D01*
X142570825Y-89151962D01*
X142533976Y-89088137D01*
X141433165Y-87987326D01*
X141404939Y-87931928D01*
X141403700Y-87916191D01*
X141403700Y-87840270D01*
X141403699Y-87840264D01*
X141372782Y-87724881D01*
X141372780Y-87724876D01*
X141313051Y-87621423D01*
X141228576Y-87536948D01*
X141125123Y-87477219D01*
X141125118Y-87477217D01*
X141009735Y-87446300D01*
X141009731Y-87446300D01*
X140890269Y-87446300D01*
X140890264Y-87446300D01*
X140774881Y-87477217D01*
X140774876Y-87477219D01*
X140671423Y-87536948D01*
X140671422Y-87536950D01*
X140586950Y-87621422D01*
X140586948Y-87621423D01*
X140527219Y-87724876D01*
X140527217Y-87724881D01*
X140496300Y-87840264D01*
X132245237Y-87840264D01*
X132226190Y-87769180D01*
X132226188Y-87769175D01*
X132173040Y-87677121D01*
X132097878Y-87601959D01*
X132097879Y-87601959D01*
X132005824Y-87548811D01*
X132005820Y-87548809D01*
X131903153Y-87521300D01*
X131903148Y-87521300D01*
X131796852Y-87521300D01*
X131796846Y-87521300D01*
X131694179Y-87548809D01*
X131694175Y-87548811D01*
X131602121Y-87601959D01*
X131526959Y-87677121D01*
X131473811Y-87769175D01*
X131473809Y-87769179D01*
X131446300Y-87871846D01*
X119429900Y-87871846D01*
X119429900Y-84873398D01*
X119449113Y-84814267D01*
X119459365Y-84802263D01*
X119513050Y-84748578D01*
X119513051Y-84748576D01*
X119572780Y-84645123D01*
X119572781Y-84645122D01*
X119603700Y-84529731D01*
X119603700Y-84410269D01*
X119600105Y-84396854D01*
X119572782Y-84294881D01*
X119572780Y-84294876D01*
X119513051Y-84191423D01*
X119503263Y-84181635D01*
X119475037Y-84126237D01*
X119484763Y-84064829D01*
X119528727Y-84020865D01*
X119574398Y-84009900D01*
X137736850Y-84009900D01*
X137808037Y-83990825D01*
X137871862Y-83953976D01*
X144472673Y-77353165D01*
X144528071Y-77324939D01*
X144543808Y-77323700D01*
X144619729Y-77323700D01*
X144619731Y-77323700D01*
X144620911Y-77323384D01*
X144735118Y-77292782D01*
X144735117Y-77292782D01*
X144735122Y-77292781D01*
X144838578Y-77233050D01*
X144923050Y-77148578D01*
X144982781Y-77045122D01*
X145013700Y-76929731D01*
X145013700Y-76893969D01*
X145032913Y-76834838D01*
X145083213Y-76798293D01*
X145145387Y-76798293D01*
X145164601Y-76806848D01*
X145174874Y-76812779D01*
X145174876Y-76812779D01*
X145174878Y-76812781D01*
X145174879Y-76812781D01*
X145174881Y-76812782D01*
X145290264Y-76843699D01*
X145290266Y-76843699D01*
X145290269Y-76843700D01*
X145290271Y-76843700D01*
X145409729Y-76843700D01*
X145409731Y-76843700D01*
X145525122Y-76812781D01*
X145628578Y-76753050D01*
X145713050Y-76668578D01*
X145772781Y-76565122D01*
X145803700Y-76449731D01*
X145803700Y-76330269D01*
X145772781Y-76214878D01*
X145713050Y-76111422D01*
X145628578Y-76026950D01*
X145628576Y-76026948D01*
X145525123Y-75967219D01*
X145525118Y-75967217D01*
X145409735Y-75936300D01*
X145409731Y-75936300D01*
X145290269Y-75936300D01*
X145290264Y-75936300D01*
X145174881Y-75967217D01*
X145174876Y-75967219D01*
X145071423Y-76026948D01*
X145071422Y-76026950D01*
X145017737Y-76080635D01*
X144962339Y-76108861D01*
X144946602Y-76110100D01*
X144533397Y-76110100D01*
X144474266Y-76090887D01*
X144462268Y-76080640D01*
X144378578Y-75996950D01*
X144378577Y-75996949D01*
X144378576Y-75996948D01*
X144275123Y-75937219D01*
X144275118Y-75937217D01*
X144159735Y-75906300D01*
X144159731Y-75906300D01*
X144040269Y-75906300D01*
X144040267Y-75906300D01*
X144040261Y-75906301D01*
X144019128Y-75911963D01*
X143957039Y-75908707D01*
X143908722Y-75869577D01*
X143892633Y-75809521D01*
X143895924Y-75788750D01*
X143903699Y-75759736D01*
X143903700Y-75759729D01*
X143903700Y-75640270D01*
X143903699Y-75640264D01*
X143872782Y-75524881D01*
X143872780Y-75524876D01*
X143813051Y-75421423D01*
X143728576Y-75336948D01*
X143625123Y-75277219D01*
X143625118Y-75277217D01*
X143509735Y-75246300D01*
X143509731Y-75246300D01*
X143390269Y-75246300D01*
X143390264Y-75246300D01*
X143274881Y-75277217D01*
X143274876Y-75277219D01*
X143171423Y-75336948D01*
X143171422Y-75336950D01*
X143086950Y-75421422D01*
X143086948Y-75421423D01*
X143027219Y-75524876D01*
X143027217Y-75524881D01*
X142996300Y-75640264D01*
X142996300Y-75759735D01*
X143027217Y-75875118D01*
X143027219Y-75875123D01*
X143086948Y-75978576D01*
X143140635Y-76032263D01*
X143168861Y-76087661D01*
X143170100Y-76103398D01*
X143170100Y-76712392D01*
X143150887Y-76771523D01*
X143140635Y-76783527D01*
X137253527Y-82670635D01*
X137198129Y-82698861D01*
X137182392Y-82700100D01*
X121293398Y-82700100D01*
X121234267Y-82680887D01*
X121222263Y-82670635D01*
X121168576Y-82616948D01*
X121065123Y-82557219D01*
X121065118Y-82557217D01*
X120949735Y-82526300D01*
X120949731Y-82526300D01*
X120830269Y-82526300D01*
X120827428Y-82526674D01*
X120825410Y-82526300D01*
X120823675Y-82526300D01*
X120823675Y-82525978D01*
X120766296Y-82515342D01*
X120723499Y-82470241D01*
X120713700Y-82426934D01*
X120713700Y-82390270D01*
X120713699Y-82390264D01*
X120682782Y-82274881D01*
X120682780Y-82274876D01*
X120623051Y-82171423D01*
X120538576Y-82086948D01*
X120435123Y-82027219D01*
X120435118Y-82027217D01*
X120319735Y-81996300D01*
X120319731Y-81996300D01*
X120200269Y-81996300D01*
X120200264Y-81996300D01*
X120084881Y-82027217D01*
X120084876Y-82027219D01*
X119981423Y-82086948D01*
X119981422Y-82086950D01*
X119896950Y-82171422D01*
X119896948Y-82171423D01*
X119874792Y-82209800D01*
X119828587Y-82251403D01*
X119787670Y-82260100D01*
X118182371Y-82260100D01*
X118108671Y-82260100D01*
X118037484Y-82279175D01*
X118037482Y-82279175D01*
X118037482Y-82279176D01*
X117973661Y-82316022D01*
X117396022Y-82893661D01*
X117359176Y-82957482D01*
X117340100Y-83028670D01*
X117340100Y-86904418D01*
X117320887Y-86963549D01*
X117270587Y-87000094D01*
X117208413Y-87000094D01*
X117168365Y-86975553D01*
X116239565Y-86046753D01*
X116211339Y-85991355D01*
X116210100Y-85975618D01*
X116210100Y-72494382D01*
X116229313Y-72435251D01*
X116239565Y-72423247D01*
X118983247Y-69679565D01*
X119038645Y-69651339D01*
X119054382Y-69650100D01*
X122431154Y-69650100D01*
X122490285Y-69669313D01*
X122526830Y-69719613D01*
X122526830Y-69781787D01*
X122492396Y-69830511D01*
X122449891Y-69863126D01*
X122429372Y-69881120D01*
X122406120Y-69904372D01*
X122388126Y-69924891D01*
X122327587Y-70003786D01*
X122327571Y-70003809D01*
X122312420Y-70026482D01*
X122312415Y-70026490D01*
X122295977Y-70054960D01*
X122283903Y-70079444D01*
X122245836Y-70171344D01*
X122237066Y-70197180D01*
X122237059Y-70197203D01*
X122228555Y-70228941D01*
X122223231Y-70255709D01*
X122223228Y-70255725D01*
X122214493Y-70322078D01*
X122209163Y-70362572D01*
X122209163Y-70362577D01*
X122207825Y-70376162D01*
X122206746Y-70392619D01*
X122206300Y-70406256D01*
X122206300Y-80883742D01*
X122206746Y-80897379D01*
X122207825Y-80913837D01*
X122209165Y-80927448D01*
X122223227Y-81034256D01*
X122223234Y-81034302D01*
X122228553Y-81061042D01*
X122228557Y-81061060D01*
X122237067Y-81092819D01*
X122243123Y-81110660D01*
X122244235Y-81113935D01*
X122245842Y-81118667D01*
X122245844Y-81118674D01*
X122283900Y-81210547D01*
X122283904Y-81210556D01*
X122295972Y-81235028D01*
X122295978Y-81235039D01*
X122311028Y-81261104D01*
X122312418Y-81263511D01*
X122327583Y-81286206D01*
X122388121Y-81365101D01*
X122388128Y-81365109D01*
X122388136Y-81365119D01*
X122406116Y-81385621D01*
X122406118Y-81385623D01*
X122406121Y-81385626D01*
X122429373Y-81408878D01*
X122449897Y-81426878D01*
X122449901Y-81426881D01*
X122449906Y-81426885D01*
X122528792Y-81487417D01*
X122551479Y-81502575D01*
X122551485Y-81502579D01*
X122579969Y-81519025D01*
X122579978Y-81519029D01*
X122579979Y-81519030D01*
X122604439Y-81531094D01*
X122604448Y-81531098D01*
X122604453Y-81531100D01*
X122604457Y-81531102D01*
X122696328Y-81569156D01*
X122722179Y-81577931D01*
X122722181Y-81577931D01*
X122722185Y-81577933D01*
X122734887Y-81581336D01*
X122753950Y-81586444D01*
X122780724Y-81591769D01*
X122780743Y-81591771D01*
X122780755Y-81591774D01*
X122867686Y-81603218D01*
X122887571Y-81605836D01*
X122896961Y-81606761D01*
X122901150Y-81607174D01*
X122901155Y-81607174D01*
X122901162Y-81607175D01*
X122917609Y-81608253D01*
X122929742Y-81608650D01*
X122931258Y-81608700D01*
X122931259Y-81608700D01*
X130741524Y-81608700D01*
X130800655Y-81627913D01*
X130837200Y-81678213D01*
X130837200Y-81737180D01*
X130837859Y-81737357D01*
X130837200Y-81739816D01*
X130837200Y-81740387D01*
X130836641Y-81741901D01*
X130801500Y-81873049D01*
X130801500Y-82006950D01*
X130836151Y-82136270D01*
X130836151Y-82136271D01*
X130878604Y-82209800D01*
X130903099Y-82252226D01*
X130997774Y-82346901D01*
X131113726Y-82413847D01*
X131113728Y-82413848D01*
X131243049Y-82448499D01*
X131243053Y-82448499D01*
X131243055Y-82448500D01*
X131243057Y-82448500D01*
X131376943Y-82448500D01*
X131376945Y-82448500D01*
X131376947Y-82448499D01*
X131376950Y-82448499D01*
X131506270Y-82413848D01*
X131506271Y-82413848D01*
X131506271Y-82413847D01*
X131506274Y-82413847D01*
X131622226Y-82346901D01*
X131716901Y-82252226D01*
X131783847Y-82136274D01*
X131813068Y-82027219D01*
X131818499Y-82006950D01*
X131818500Y-82006943D01*
X131818500Y-81873056D01*
X131818499Y-81873049D01*
X131782141Y-81737357D01*
X131784661Y-81736681D01*
X131780653Y-81685827D01*
X131813132Y-81632811D01*
X131870571Y-81609011D01*
X131878476Y-81608700D01*
X132358742Y-81608700D01*
X132359878Y-81608662D01*
X132372391Y-81608253D01*
X132388838Y-81607175D01*
X132402430Y-81605836D01*
X132509276Y-81591769D01*
X132536049Y-81586444D01*
X132567820Y-81577931D01*
X132593671Y-81569156D01*
X132685542Y-81531102D01*
X132710029Y-81519026D01*
X132738515Y-81502579D01*
X132761211Y-81487414D01*
X132840099Y-81426881D01*
X132860623Y-81408881D01*
X132883881Y-81385623D01*
X132901881Y-81365099D01*
X132962414Y-81286211D01*
X132977579Y-81263515D01*
X132994026Y-81235029D01*
X133006102Y-81210542D01*
X133044156Y-81118671D01*
X133052931Y-81092820D01*
X133061444Y-81061049D01*
X133066769Y-81034276D01*
X133080836Y-80927430D01*
X133082175Y-80913838D01*
X133083253Y-80897391D01*
X133083700Y-80883741D01*
X133083700Y-70406258D01*
X133083253Y-70392608D01*
X133082175Y-70376161D01*
X133080836Y-70362569D01*
X133066769Y-70255723D01*
X133061444Y-70228950D01*
X133052931Y-70197179D01*
X133044156Y-70171328D01*
X133006102Y-70079457D01*
X133004452Y-70076111D01*
X132994028Y-70054973D01*
X132994022Y-70054962D01*
X132977582Y-70026490D01*
X132977575Y-70026477D01*
X132967444Y-70011317D01*
X132962413Y-70003787D01*
X132901884Y-69924905D01*
X132901883Y-69924903D01*
X132901873Y-69924892D01*
X132883878Y-69904373D01*
X132860626Y-69881121D01*
X132860625Y-69881120D01*
X132860621Y-69881116D01*
X132840119Y-69863136D01*
X132840109Y-69863128D01*
X132840101Y-69863121D01*
X132797603Y-69830511D01*
X132762387Y-69779272D01*
X132764014Y-69717119D01*
X132801864Y-69667793D01*
X132858844Y-69650100D01*
X145194018Y-69650100D01*
X145253149Y-69669313D01*
X145265153Y-69679565D01*
X156538753Y-80953165D01*
X156566979Y-81008563D01*
X156557253Y-81069971D01*
X156513289Y-81113935D01*
X156467618Y-81124900D01*
X149275700Y-81124900D01*
X149216569Y-81105687D01*
X149180024Y-81055387D01*
X149175100Y-81024300D01*
X149175100Y-78214910D01*
X149169200Y-78185251D01*
X149151654Y-78097040D01*
X149105664Y-77986009D01*
X149038896Y-77886084D01*
X148953916Y-77801104D01*
X148853991Y-77734336D01*
X148853992Y-77734336D01*
X148853990Y-77734335D01*
X148853987Y-77734334D01*
X148742962Y-77688346D01*
X148664380Y-77672715D01*
X148625090Y-77664900D01*
X148504910Y-77664900D01*
X148475442Y-77670761D01*
X148387037Y-77688346D01*
X148276012Y-77734334D01*
X148276009Y-77734335D01*
X148176082Y-77801105D01*
X148091105Y-77886082D01*
X148024335Y-77986009D01*
X148024334Y-77986012D01*
X147978346Y-78097037D01*
X147954900Y-78214910D01*
X147954900Y-81024300D01*
X147935687Y-81083431D01*
X147885387Y-81119976D01*
X147854300Y-81124900D01*
X141574909Y-81124900D01*
X141471493Y-81145470D01*
X141471488Y-81145471D01*
X141467318Y-81146300D01*
X141466852Y-81146300D01*
X141465499Y-81146661D01*
X141462317Y-81147294D01*
X141462307Y-81147297D01*
X141457038Y-81148346D01*
X141452700Y-81149662D01*
X141446688Y-81151702D01*
X141364180Y-81173809D01*
X141364175Y-81173811D01*
X141272121Y-81226959D01*
X141196958Y-81302122D01*
X141192503Y-81309838D01*
X141176520Y-81330666D01*
X140851084Y-81656104D01*
X137981753Y-84525435D01*
X137926355Y-84553661D01*
X137910618Y-84554900D01*
X128569910Y-84554900D01*
X128540442Y-84560761D01*
X128452037Y-84578346D01*
X128341012Y-84624334D01*
X128341009Y-84624335D01*
X128241082Y-84691105D01*
X128156105Y-84776082D01*
X128089335Y-84876009D01*
X128089334Y-84876012D01*
X128043346Y-84987037D01*
X128019900Y-85104910D01*
X128019900Y-85225089D01*
X128043346Y-85342962D01*
X128089334Y-85453987D01*
X128089335Y-85453990D01*
X128122720Y-85503953D01*
X128156104Y-85553916D01*
X128241084Y-85638896D01*
X128341009Y-85705664D01*
X128373519Y-85719130D01*
X128452037Y-85751653D01*
X128452038Y-85751653D01*
X128452040Y-85751654D01*
X128569910Y-85775100D01*
X128569911Y-85775100D01*
X138265090Y-85775100D01*
X138382960Y-85751655D01*
X138461470Y-85719134D01*
X138493991Y-85705664D01*
X138593916Y-85638896D01*
X138678896Y-85553916D01*
X140762548Y-83470264D01*
X142796300Y-83470264D01*
X142796300Y-83589735D01*
X142827217Y-83705118D01*
X142827219Y-83705123D01*
X142886948Y-83808576D01*
X142940635Y-83862263D01*
X142968861Y-83917661D01*
X142970100Y-83933398D01*
X142970100Y-85411602D01*
X142950887Y-85470733D01*
X142940635Y-85482737D01*
X142886950Y-85536422D01*
X142886948Y-85536423D01*
X142827219Y-85639876D01*
X142827217Y-85639881D01*
X142796300Y-85755264D01*
X142796300Y-85874731D01*
X142827217Y-85990118D01*
X142827219Y-85990123D01*
X142886948Y-86093576D01*
X142971423Y-86178051D01*
X143074876Y-86237780D01*
X143074878Y-86237781D01*
X143074879Y-86237781D01*
X143074881Y-86237782D01*
X143190264Y-86268699D01*
X143190266Y-86268699D01*
X143190269Y-86268700D01*
X143190271Y-86268700D01*
X143309729Y-86268700D01*
X143309731Y-86268700D01*
X143425122Y-86237781D01*
X143528578Y-86178050D01*
X143528582Y-86178045D01*
X143529405Y-86177415D01*
X143530112Y-86177164D01*
X143534289Y-86174753D01*
X143534735Y-86175526D01*
X143588011Y-86156657D01*
X143640952Y-86170100D01*
X143698233Y-86203171D01*
X143714878Y-86212781D01*
X143714879Y-86212781D01*
X143714881Y-86212782D01*
X143830264Y-86243699D01*
X143830266Y-86243699D01*
X143830269Y-86243700D01*
X143830271Y-86243700D01*
X143949729Y-86243700D01*
X143949731Y-86243700D01*
X144065122Y-86212781D01*
X144168578Y-86153050D01*
X144253050Y-86068578D01*
X144284092Y-86014811D01*
X144330296Y-85973209D01*
X144392130Y-85966710D01*
X144435325Y-85990163D01*
X144436191Y-85989036D01*
X144441423Y-85993051D01*
X144519538Y-86038151D01*
X144544878Y-86052781D01*
X144544879Y-86052781D01*
X144544881Y-86052782D01*
X144660264Y-86083699D01*
X144660266Y-86083699D01*
X144660269Y-86083700D01*
X144660271Y-86083700D01*
X144779729Y-86083700D01*
X144779731Y-86083700D01*
X144895122Y-86052781D01*
X144998578Y-85993050D01*
X145029079Y-85962548D01*
X145084472Y-85934323D01*
X145145881Y-85944047D01*
X145158090Y-85951401D01*
X145165200Y-85956402D01*
X145205512Y-85996714D01*
X145300377Y-86051485D01*
X145304058Y-86054074D01*
X145320147Y-86075520D01*
X145338083Y-86095440D01*
X145338570Y-86100077D01*
X145341369Y-86103808D01*
X145341779Y-86130608D01*
X145344582Y-86157273D01*
X145343352Y-86162393D01*
X145332427Y-86203166D01*
X145332426Y-86203175D01*
X145332426Y-86322640D01*
X145363343Y-86438023D01*
X145363345Y-86438028D01*
X145423074Y-86541481D01*
X145507549Y-86625956D01*
X145611002Y-86685685D01*
X145611004Y-86685686D01*
X145611005Y-86685686D01*
X145611007Y-86685687D01*
X145726390Y-86716604D01*
X145726392Y-86716604D01*
X145726395Y-86716605D01*
X145726397Y-86716605D01*
X145845855Y-86716605D01*
X145845857Y-86716605D01*
X145961248Y-86685686D01*
X146064704Y-86625955D01*
X146149176Y-86541483D01*
X146208907Y-86438027D01*
X146239826Y-86322636D01*
X146239826Y-86203174D01*
X146221646Y-86135325D01*
X146224900Y-86073237D01*
X146247682Y-86038155D01*
X146273976Y-86011862D01*
X146310825Y-85948038D01*
X146329900Y-85876850D01*
X146329900Y-85803150D01*
X146329900Y-84413398D01*
X146349113Y-84354267D01*
X146359365Y-84342263D01*
X146413050Y-84288578D01*
X146413051Y-84288576D01*
X146472781Y-84185122D01*
X146503700Y-84069731D01*
X146503700Y-84069725D01*
X146503979Y-84067611D01*
X146504639Y-84066225D01*
X146505407Y-84063362D01*
X146505937Y-84063504D01*
X146530741Y-84011492D01*
X146585379Y-83981821D01*
X146623666Y-83983323D01*
X146623730Y-83982839D01*
X146629006Y-83983533D01*
X146629756Y-83983563D01*
X146630263Y-83983699D01*
X146630267Y-83983699D01*
X146630269Y-83983700D01*
X146630271Y-83983700D01*
X146749729Y-83983700D01*
X146749731Y-83983700D01*
X146750243Y-83983563D01*
X146865118Y-83952782D01*
X146865117Y-83952782D01*
X146865122Y-83952781D01*
X146968578Y-83893050D01*
X147053050Y-83808578D01*
X147112781Y-83705122D01*
X147143700Y-83589731D01*
X147143700Y-83470269D01*
X147112781Y-83354878D01*
X147084574Y-83306022D01*
X147053051Y-83251423D01*
X146968576Y-83166948D01*
X146865123Y-83107219D01*
X146865118Y-83107217D01*
X146749735Y-83076300D01*
X146749731Y-83076300D01*
X146630269Y-83076300D01*
X146630264Y-83076300D01*
X146514881Y-83107217D01*
X146514876Y-83107219D01*
X146411423Y-83166948D01*
X146411422Y-83166950D01*
X146357737Y-83220635D01*
X146302339Y-83248861D01*
X146286602Y-83250100D01*
X144566851Y-83250100D01*
X144493150Y-83250100D01*
X144421963Y-83269175D01*
X144421961Y-83269175D01*
X144421961Y-83269176D01*
X144358140Y-83306022D01*
X143822066Y-83842096D01*
X143791305Y-83857768D01*
X143795034Y-83870355D01*
X143789737Y-83895288D01*
X143790882Y-83895595D01*
X143789176Y-83901961D01*
X143789175Y-83901963D01*
X143784969Y-83917661D01*
X143770100Y-83973149D01*
X143770100Y-85277254D01*
X143763601Y-85297254D01*
X143761403Y-85318171D01*
X143754209Y-85326160D01*
X143750887Y-85336385D01*
X143719801Y-85364376D01*
X143680801Y-85386893D01*
X143619985Y-85399820D01*
X143563186Y-85374532D01*
X143532098Y-85320688D01*
X143529900Y-85299771D01*
X143529900Y-83933398D01*
X143549113Y-83874267D01*
X143559365Y-83862263D01*
X143583490Y-83838138D01*
X143613050Y-83808578D01*
X143613053Y-83808571D01*
X143614654Y-83806487D01*
X143616211Y-83805416D01*
X143617712Y-83803916D01*
X143617990Y-83804194D01*
X143655267Y-83778571D01*
X143651570Y-83755224D01*
X143663808Y-83720663D01*
X143672781Y-83705122D01*
X143703700Y-83589731D01*
X143703700Y-83470269D01*
X143672781Y-83354878D01*
X143644574Y-83306022D01*
X143613051Y-83251423D01*
X143528576Y-83166948D01*
X143425123Y-83107219D01*
X143425118Y-83107217D01*
X143309735Y-83076300D01*
X143309731Y-83076300D01*
X143190269Y-83076300D01*
X143190264Y-83076300D01*
X143074881Y-83107217D01*
X143074876Y-83107219D01*
X142971423Y-83166948D01*
X142971422Y-83166950D01*
X142886950Y-83251422D01*
X142886948Y-83251423D01*
X142827219Y-83354876D01*
X142827217Y-83354881D01*
X142796300Y-83470264D01*
X140762548Y-83470264D01*
X141713896Y-82518916D01*
X141858247Y-82374565D01*
X141913645Y-82346339D01*
X141929382Y-82345100D01*
X148499910Y-82345100D01*
X157889018Y-82345100D01*
X157948149Y-82364313D01*
X157960153Y-82374565D01*
X169820435Y-94234847D01*
X169848661Y-94290245D01*
X169849900Y-94305982D01*
X169849900Y-99039300D01*
X169830687Y-99098431D01*
X169780387Y-99134976D01*
X169749300Y-99139900D01*
X168529910Y-99139900D01*
X168500442Y-99145761D01*
X168412037Y-99163346D01*
X168301012Y-99209334D01*
X168301009Y-99209335D01*
X168201082Y-99276105D01*
X168116105Y-99361082D01*
X168049335Y-99461009D01*
X168049334Y-99461012D01*
X168003346Y-99572037D01*
X167979900Y-99689910D01*
X167979900Y-99810089D01*
X168003346Y-99927962D01*
X168049334Y-100038987D01*
X168049335Y-100038990D01*
X168049336Y-100038991D01*
X168116104Y-100138916D01*
X168201084Y-100223896D01*
X168301009Y-100290664D01*
X168356524Y-100313659D01*
X168412037Y-100336653D01*
X168412038Y-100336653D01*
X168412040Y-100336654D01*
X168529910Y-100360100D01*
X169749300Y-100360100D01*
X169808431Y-100379313D01*
X169844976Y-100429613D01*
X169849900Y-100460700D01*
X169849900Y-111955618D01*
X169830687Y-112014749D01*
X169820435Y-112026753D01*
X168806753Y-113040435D01*
X168751355Y-113068661D01*
X168735618Y-113069900D01*
X168309909Y-113069900D01*
X168280388Y-113075772D01*
X168218645Y-113068464D01*
X168172990Y-113026260D01*
X168160860Y-112965280D01*
X168161000Y-112964158D01*
X168166053Y-112925783D01*
X168167392Y-112912194D01*
X168168253Y-112899062D01*
X168168700Y-112885408D01*
X168168700Y-109009300D01*
X168187913Y-108950169D01*
X168238213Y-108913624D01*
X168269300Y-108908700D01*
X169000071Y-108908700D01*
X169000083Y-108908700D01*
X169016458Y-108908057D01*
X169036165Y-108906506D01*
X169036170Y-108906505D01*
X169036175Y-108906505D01*
X169038977Y-108906173D01*
X169052438Y-108904580D01*
X169131094Y-108892122D01*
X169162940Y-108884476D01*
X169200431Y-108872294D01*
X169230684Y-108859762D01*
X169290175Y-108829450D01*
X169292668Y-108828180D01*
X169292672Y-108828177D01*
X169292693Y-108828167D01*
X169320621Y-108811053D01*
X169352513Y-108787881D01*
X169377411Y-108766615D01*
X169426615Y-108717411D01*
X169447881Y-108692513D01*
X169471053Y-108660621D01*
X169488167Y-108632693D01*
X169489924Y-108629246D01*
X169519754Y-108570699D01*
X169519762Y-108570684D01*
X169532294Y-108540431D01*
X169544476Y-108502940D01*
X169552121Y-108471096D01*
X169564579Y-108392444D01*
X169566506Y-108376165D01*
X169568057Y-108356453D01*
X169568700Y-108340082D01*
X169568700Y-104916258D01*
X169568253Y-104902608D01*
X169567175Y-104886161D01*
X169565836Y-104872569D01*
X169551769Y-104765723D01*
X169546444Y-104738950D01*
X169537931Y-104707179D01*
X169529156Y-104681328D01*
X169491102Y-104589457D01*
X169489027Y-104585250D01*
X169479028Y-104564973D01*
X169479022Y-104564962D01*
X169462582Y-104536490D01*
X169462575Y-104536477D01*
X169447414Y-104513789D01*
X169447413Y-104513787D01*
X169386884Y-104434905D01*
X169386883Y-104434903D01*
X169368875Y-104414370D01*
X169345621Y-104391116D01*
X169325119Y-104373136D01*
X169325109Y-104373128D01*
X169325101Y-104373121D01*
X169246206Y-104312583D01*
X169223511Y-104297418D01*
X169223499Y-104297411D01*
X169195039Y-104280978D01*
X169195028Y-104280972D01*
X169170556Y-104268904D01*
X169170547Y-104268900D01*
X169078674Y-104230844D01*
X169078667Y-104230842D01*
X169078669Y-104230842D01*
X169078665Y-104230841D01*
X169070660Y-104228123D01*
X169052819Y-104222067D01*
X169021060Y-104213557D01*
X169021042Y-104213553D01*
X168994302Y-104208234D01*
X168994285Y-104208231D01*
X168994278Y-104208230D01*
X168994261Y-104208227D01*
X168994256Y-104208227D01*
X168887448Y-104194165D01*
X168887428Y-104194163D01*
X168873838Y-104192825D01*
X168868782Y-104192493D01*
X168857379Y-104191746D01*
X168843742Y-104191300D01*
X168843741Y-104191300D01*
X167069300Y-104191300D01*
X167010169Y-104172087D01*
X166973624Y-104121787D01*
X166968700Y-104090700D01*
X166968700Y-103109300D01*
X166987913Y-103050169D01*
X167038213Y-103013624D01*
X167069300Y-103008700D01*
X167643742Y-103008700D01*
X167644878Y-103008662D01*
X167657391Y-103008253D01*
X167673838Y-103007175D01*
X167687430Y-103005836D01*
X167794276Y-102991769D01*
X167821049Y-102986444D01*
X167852820Y-102977931D01*
X167878671Y-102969156D01*
X167970542Y-102931102D01*
X167995029Y-102919026D01*
X168023515Y-102902579D01*
X168046211Y-102887414D01*
X168125099Y-102826881D01*
X168145623Y-102808881D01*
X168168881Y-102785623D01*
X168186881Y-102765099D01*
X168247414Y-102686211D01*
X168262579Y-102663515D01*
X168279026Y-102635029D01*
X168291102Y-102610542D01*
X168329156Y-102518671D01*
X168337931Y-102492820D01*
X168346444Y-102461049D01*
X168351769Y-102434276D01*
X168365836Y-102327430D01*
X168367175Y-102313838D01*
X168368253Y-102297391D01*
X168368700Y-102283741D01*
X168368700Y-101916258D01*
X168368253Y-101902608D01*
X168367175Y-101886161D01*
X168365836Y-101872569D01*
X168351769Y-101765723D01*
X168346444Y-101738950D01*
X168337931Y-101707179D01*
X168329156Y-101681328D01*
X168291102Y-101589457D01*
X168289452Y-101586111D01*
X168279028Y-101564973D01*
X168279022Y-101564962D01*
X168262582Y-101536490D01*
X168262575Y-101536477D01*
X168247414Y-101513789D01*
X168247413Y-101513787D01*
X168186884Y-101434905D01*
X168186883Y-101434903D01*
X168168875Y-101414370D01*
X168145621Y-101391116D01*
X168125119Y-101373136D01*
X168125109Y-101373128D01*
X168125101Y-101373121D01*
X168046206Y-101312583D01*
X168023511Y-101297418D01*
X168023499Y-101297411D01*
X167995039Y-101280978D01*
X167995028Y-101280972D01*
X167970556Y-101268904D01*
X167970547Y-101268900D01*
X167878674Y-101230844D01*
X167878667Y-101230842D01*
X167878669Y-101230842D01*
X167878665Y-101230841D01*
X167870660Y-101228123D01*
X167852819Y-101222067D01*
X167821060Y-101213557D01*
X167821042Y-101213553D01*
X167794302Y-101208234D01*
X167794285Y-101208231D01*
X167794278Y-101208230D01*
X167794261Y-101208227D01*
X167794256Y-101208227D01*
X167687448Y-101194165D01*
X167687428Y-101194163D01*
X167673838Y-101192825D01*
X167668782Y-101192493D01*
X167657379Y-101191746D01*
X167643742Y-101191300D01*
X167643741Y-101191300D01*
X167069300Y-101191300D01*
X167010169Y-101172087D01*
X166973624Y-101121787D01*
X166968700Y-101090700D01*
X166968700Y-94216310D01*
X166968253Y-94202670D01*
X166968253Y-94202662D01*
X166967175Y-94186215D01*
X166965836Y-94172624D01*
X166963218Y-94152739D01*
X166951774Y-94065808D01*
X166951771Y-94065794D01*
X166951769Y-94065777D01*
X166946443Y-94038998D01*
X166938085Y-94007809D01*
X166937930Y-94007229D01*
X166937928Y-94007223D01*
X166937689Y-94006518D01*
X166929154Y-93981378D01*
X166891099Y-93889508D01*
X166891096Y-93889503D01*
X166891091Y-93889490D01*
X166879026Y-93865026D01*
X166879020Y-93865015D01*
X166862585Y-93836551D01*
X166862577Y-93836537D01*
X166847410Y-93813839D01*
X166847402Y-93813829D01*
X166847399Y-93813824D01*
X166786880Y-93734957D01*
X166786879Y-93734956D01*
X166786873Y-93734948D01*
X166768875Y-93714426D01*
X166745616Y-93691167D01*
X166725089Y-93673165D01*
X166725080Y-93673158D01*
X166725069Y-93673148D01*
X166646217Y-93612646D01*
X166646210Y-93612640D01*
X166629852Y-93601711D01*
X166623497Y-93597465D01*
X166623492Y-93597462D01*
X166623475Y-93597452D01*
X166596009Y-93581596D01*
X166595010Y-93581019D01*
X166595004Y-93581016D01*
X166570528Y-93568945D01*
X166478658Y-93530894D01*
X166478646Y-93530890D01*
X166452819Y-93522123D01*
X166452799Y-93522117D01*
X166421039Y-93513608D01*
X166421037Y-93513607D01*
X166421035Y-93513607D01*
X166417123Y-93512828D01*
X166394263Y-93508281D01*
X166287402Y-93494216D01*
X166273795Y-93492876D01*
X166273792Y-93492875D01*
X166273784Y-93492875D01*
X166257368Y-93491800D01*
X166250300Y-93491569D01*
X166243718Y-93491355D01*
X166243704Y-93491355D01*
X160652852Y-93491528D01*
X160652850Y-93491528D01*
X160630547Y-93492726D01*
X160603765Y-93495608D01*
X160603761Y-93495609D01*
X160550056Y-93512428D01*
X160526069Y-93519941D01*
X160526067Y-93519941D01*
X160526064Y-93519943D01*
X160463760Y-93553966D01*
X160463754Y-93553969D01*
X160454378Y-93560988D01*
X160444397Y-93567572D01*
X160396737Y-93595089D01*
X160372477Y-93605138D01*
X160348463Y-93611572D01*
X160322430Y-93615000D01*
X160297572Y-93615000D01*
X160271535Y-93611572D01*
X160247523Y-93605138D01*
X160223258Y-93595087D01*
X160192228Y-93577171D01*
X160179410Y-93568384D01*
X160166211Y-93557748D01*
X160166207Y-93557746D01*
X160158986Y-93553969D01*
X160094049Y-93520002D01*
X160025932Y-93500003D01*
X160025928Y-93500002D01*
X160025922Y-93500001D01*
X159967138Y-93491551D01*
X159967134Y-93491551D01*
X159966930Y-93491551D01*
X158282782Y-93491602D01*
X158282771Y-93491603D01*
X158260479Y-93492799D01*
X158243813Y-93494592D01*
X158233700Y-93495680D01*
X158156222Y-93519943D01*
X158155998Y-93520013D01*
X158112201Y-93543928D01*
X158093820Y-93553966D01*
X158093686Y-93554039D01*
X158046128Y-93589641D01*
X158044024Y-93591465D01*
X158028454Y-93602551D01*
X158006739Y-93615088D01*
X157982479Y-93625137D01*
X157958470Y-93631571D01*
X157932430Y-93635000D01*
X157907572Y-93635000D01*
X157881534Y-93631572D01*
X157864277Y-93626948D01*
X157857519Y-93625137D01*
X157833258Y-93615087D01*
X157811398Y-93602466D01*
X157794474Y-93590186D01*
X157777266Y-93574729D01*
X157775462Y-93573275D01*
X157756286Y-93557822D01*
X157756283Y-93557820D01*
X157756280Y-93557818D01*
X157704804Y-93530893D01*
X157684123Y-93520075D01*
X157684120Y-93520074D01*
X157684117Y-93520072D01*
X157616008Y-93500077D01*
X157616000Y-93500075D01*
X157557209Y-93491626D01*
X148376224Y-93491912D01*
X148362587Y-93492359D01*
X148346139Y-93493437D01*
X148332564Y-93494775D01*
X148225689Y-93508849D01*
X148198914Y-93514176D01*
X148167169Y-93522684D01*
X148167140Y-93522693D01*
X148141311Y-93531462D01*
X148049452Y-93569515D01*
X148024955Y-93581596D01*
X148015616Y-93586988D01*
X147996478Y-93598039D01*
X147996464Y-93598047D01*
X147996461Y-93598050D01*
X147973799Y-93613193D01*
X147973776Y-93613209D01*
X147917649Y-93656278D01*
X147895650Y-93673159D01*
X147894886Y-93673745D01*
X147894882Y-93673748D01*
X147874373Y-93691733D01*
X147851118Y-93714987D01*
X147833132Y-93735496D01*
X147833122Y-93735508D01*
X147833118Y-93735514D01*
X147772569Y-93814426D01*
X147772561Y-93814437D01*
X147757404Y-93837121D01*
X147740975Y-93865578D01*
X147728896Y-93890069D01*
X147728887Y-93890088D01*
X147690841Y-93981946D01*
X147690829Y-93981978D01*
X147682065Y-94007799D01*
X147682063Y-94007806D01*
X147673553Y-94039566D01*
X147668229Y-94066333D01*
X147654864Y-94167843D01*
X147654865Y-94167844D01*
X147654158Y-94173216D01*
X147652826Y-94186761D01*
X147651746Y-94203237D01*
X147651300Y-94216869D01*
X147651300Y-102017240D01*
X147655307Y-102057939D01*
X147655308Y-102057946D01*
X147655309Y-102057949D01*
X147664371Y-102103517D01*
X147664897Y-102106161D01*
X147669980Y-102122922D01*
X147670880Y-102126076D01*
X147688115Y-102190398D01*
X147691543Y-102216435D01*
X147691543Y-102253783D01*
X147695552Y-102294496D01*
X147705144Y-102342714D01*
X147717019Y-102381865D01*
X147728884Y-102410512D01*
X147728904Y-102410556D01*
X147740965Y-102435012D01*
X147740966Y-102435014D01*
X147740969Y-102435019D01*
X147757412Y-102463501D01*
X147772518Y-102486111D01*
X147772583Y-102486208D01*
X147772585Y-102486211D01*
X147797500Y-102518680D01*
X147833121Y-102565102D01*
X147851121Y-102585626D01*
X147874373Y-102608878D01*
X147894897Y-102626878D01*
X147894901Y-102626881D01*
X147894906Y-102626885D01*
X147973792Y-102687417D01*
X147996479Y-102702575D01*
X147996485Y-102702579D01*
X148024969Y-102719025D01*
X148024978Y-102719029D01*
X148024979Y-102719030D01*
X148049439Y-102731094D01*
X148049448Y-102731098D01*
X148049453Y-102731100D01*
X148049457Y-102731102D01*
X148141328Y-102769156D01*
X148167179Y-102777931D01*
X148167181Y-102777931D01*
X148167185Y-102777933D01*
X148179887Y-102781336D01*
X148198950Y-102786444D01*
X148225724Y-102791769D01*
X148225743Y-102791771D01*
X148225755Y-102791774D01*
X148311387Y-102803047D01*
X148332571Y-102805836D01*
X148341961Y-102806761D01*
X148346150Y-102807174D01*
X148346155Y-102807174D01*
X148346162Y-102807175D01*
X148362609Y-102808253D01*
X148374742Y-102808650D01*
X148376258Y-102808700D01*
X148376259Y-102808700D01*
X148743742Y-102808700D01*
X148744878Y-102808662D01*
X148757391Y-102808253D01*
X148773838Y-102807175D01*
X148787430Y-102805836D01*
X148894276Y-102791769D01*
X148921049Y-102786444D01*
X148952820Y-102777931D01*
X148978671Y-102769156D01*
X149070542Y-102731102D01*
X149083241Y-102724839D01*
X149095024Y-102719029D01*
X149100391Y-102715930D01*
X149161206Y-102702997D01*
X149218007Y-102728280D01*
X149249100Y-102782121D01*
X149251300Y-102803047D01*
X149251300Y-107290700D01*
X149232087Y-107349831D01*
X149181787Y-107386376D01*
X149150700Y-107391300D01*
X148174588Y-107391300D01*
X148167771Y-107391523D01*
X148160952Y-107391746D01*
X148158634Y-107391897D01*
X148147807Y-107392606D01*
X148134224Y-107393944D01*
X148022424Y-107408664D01*
X148022376Y-107408672D01*
X147995654Y-107413987D01*
X147995648Y-107413989D01*
X147995641Y-107413990D01*
X147995635Y-107413992D01*
X147984926Y-107416861D01*
X147970276Y-107420786D01*
X147944412Y-107429566D01*
X147846366Y-107470178D01*
X147821894Y-107482246D01*
X147799158Y-107495371D01*
X147799140Y-107495382D01*
X147776451Y-107510543D01*
X147776445Y-107510547D01*
X147692246Y-107575156D01*
X147692222Y-107575175D01*
X147671720Y-107593155D01*
X147653155Y-107611720D01*
X147635175Y-107632222D01*
X147635156Y-107632246D01*
X147570542Y-107716452D01*
X147570538Y-107716457D01*
X147555380Y-107739144D01*
X147555371Y-107739159D01*
X147542261Y-107761866D01*
X147542247Y-107761892D01*
X147530174Y-107786375D01*
X147530173Y-107786377D01*
X147489558Y-107884433D01*
X147480793Y-107910254D01*
X147480785Y-107910280D01*
X147473992Y-107935635D01*
X147473990Y-107935644D01*
X147468666Y-107962408D01*
X147453945Y-108074220D01*
X147452609Y-108087782D01*
X147451746Y-108100951D01*
X147451300Y-108114589D01*
X147451300Y-108585409D01*
X147451746Y-108599047D01*
X147452609Y-108612216D01*
X147453945Y-108625778D01*
X147468666Y-108737590D01*
X147473990Y-108764354D01*
X147473992Y-108764363D01*
X147480785Y-108789718D01*
X147480793Y-108789744D01*
X147489558Y-108815565D01*
X147530171Y-108913616D01*
X147542248Y-108938108D01*
X147555381Y-108960857D01*
X147555384Y-108960862D01*
X147570545Y-108983551D01*
X147570560Y-108983572D01*
X147635136Y-109067730D01*
X147635152Y-109067749D01*
X147635156Y-109067754D01*
X147653156Y-109088278D01*
X147671721Y-109106843D01*
X147692245Y-109124843D01*
X147692249Y-109124846D01*
X147692268Y-109124862D01*
X147776426Y-109189438D01*
X147776436Y-109189445D01*
X147776445Y-109189452D01*
X147782081Y-109193218D01*
X147799136Y-109204614D01*
X147799141Y-109204617D01*
X147799148Y-109204621D01*
X147821891Y-109217751D01*
X147846372Y-109229823D01*
X147944419Y-109270435D01*
X147970267Y-109279209D01*
X147995633Y-109286006D01*
X147995637Y-109286007D01*
X148019823Y-109290817D01*
X148022408Y-109291332D01*
X148050572Y-109295040D01*
X148134209Y-109306052D01*
X148134218Y-109306052D01*
X148134219Y-109306053D01*
X148147805Y-109307392D01*
X148160935Y-109308253D01*
X148172640Y-109308636D01*
X148174589Y-109308700D01*
X148174591Y-109308700D01*
X149851144Y-109308700D01*
X149866230Y-109313601D01*
X149882094Y-109313579D01*
X149895055Y-109322967D01*
X149910275Y-109327913D01*
X149919598Y-109340745D01*
X149932446Y-109350052D01*
X149937413Y-109365266D01*
X149946820Y-109378213D01*
X149951743Y-109409151D01*
X149952020Y-109601430D01*
X149952023Y-109603187D01*
X149952023Y-109603192D01*
X149952034Y-109611069D01*
X149952034Y-109611074D01*
X149954586Y-111386460D01*
X149955052Y-111400092D01*
X149955931Y-111413212D01*
X149957285Y-111426761D01*
X149972140Y-111538452D01*
X149972144Y-111538476D01*
X149977494Y-111565203D01*
X149977498Y-111565221D01*
X149984317Y-111590543D01*
X149984320Y-111590555D01*
X149993106Y-111616340D01*
X149993114Y-111616361D01*
X150033791Y-111714267D01*
X150033795Y-111714276D01*
X150045880Y-111738722D01*
X150059019Y-111761429D01*
X150059022Y-111761433D01*
X150074198Y-111784101D01*
X150138811Y-111868160D01*
X150138816Y-111868166D01*
X150156817Y-111888661D01*
X150164617Y-111896449D01*
X150175379Y-111907195D01*
X150186978Y-111917353D01*
X150195896Y-111925163D01*
X150195900Y-111925166D01*
X150280035Y-111989647D01*
X150280045Y-111989654D01*
X150280053Y-111989660D01*
X150288617Y-111995376D01*
X150302727Y-112004794D01*
X150302737Y-112004800D01*
X150302742Y-112004803D01*
X150325473Y-112017912D01*
X150349938Y-112029964D01*
X150447910Y-112070504D01*
X150473737Y-112079263D01*
X150499082Y-112086048D01*
X150525836Y-112091365D01*
X150637550Y-112106059D01*
X150651130Y-112107395D01*
X150664249Y-112108254D01*
X150676216Y-112108645D01*
X150677882Y-112108700D01*
X150677885Y-112108700D01*
X152145412Y-112108700D01*
X152147819Y-112108621D01*
X152159066Y-112108253D01*
X152172195Y-112107392D01*
X152185780Y-112106053D01*
X152297591Y-112091332D01*
X152324366Y-112086006D01*
X152349732Y-112079209D01*
X152375580Y-112070435D01*
X152473627Y-112029823D01*
X152498108Y-112017751D01*
X152520851Y-112004621D01*
X152543553Y-111989452D01*
X152543566Y-111989441D01*
X152543568Y-111989441D01*
X152568672Y-111970178D01*
X152627750Y-111924846D01*
X152627773Y-111924825D01*
X152627784Y-111924817D01*
X152648266Y-111906854D01*
X152648266Y-111906853D01*
X152648275Y-111906846D01*
X152666846Y-111888275D01*
X152666854Y-111888266D01*
X152684817Y-111867784D01*
X152684825Y-111867773D01*
X152684846Y-111867750D01*
X152749032Y-111784101D01*
X152749441Y-111783568D01*
X152749442Y-111783566D01*
X152749441Y-111783566D01*
X152749452Y-111783553D01*
X152764621Y-111760851D01*
X152777751Y-111738108D01*
X152789823Y-111713627D01*
X152830435Y-111615580D01*
X152839209Y-111589732D01*
X152846006Y-111564366D01*
X152851332Y-111537592D01*
X152866053Y-111425783D01*
X152867392Y-111412194D01*
X152868253Y-111399062D01*
X152868700Y-111385408D01*
X152868700Y-111014591D01*
X152868253Y-111000937D01*
X152867392Y-110987805D01*
X152866053Y-110974216D01*
X152851332Y-110862407D01*
X152846006Y-110835633D01*
X152839209Y-110810267D01*
X152830435Y-110784419D01*
X152789823Y-110686372D01*
X152777751Y-110661891D01*
X152764621Y-110639148D01*
X152764617Y-110639141D01*
X152764614Y-110639136D01*
X152749453Y-110616447D01*
X152749438Y-110616426D01*
X152684862Y-110532268D01*
X152684846Y-110532249D01*
X152684843Y-110532245D01*
X152666843Y-110511721D01*
X152648278Y-110493156D01*
X152627754Y-110475156D01*
X152627749Y-110475152D01*
X152627730Y-110475136D01*
X152543572Y-110410560D01*
X152543551Y-110410545D01*
X152520862Y-110395384D01*
X152520857Y-110395381D01*
X152498108Y-110382248D01*
X152473627Y-110370176D01*
X152473621Y-110370173D01*
X152473616Y-110370171D01*
X152407382Y-110342736D01*
X152375580Y-110329564D01*
X152375577Y-110329563D01*
X152375565Y-110329558D01*
X152349744Y-110320793D01*
X152349718Y-110320785D01*
X152324356Y-110313990D01*
X152297613Y-110308671D01*
X152297601Y-110308669D01*
X152297591Y-110308667D01*
X152297581Y-110308665D01*
X152297577Y-110308665D01*
X152185775Y-110293944D01*
X152172192Y-110292606D01*
X152162696Y-110291984D01*
X152159049Y-110291746D01*
X152151471Y-110291498D01*
X152145413Y-110291300D01*
X152145409Y-110291300D01*
X151369300Y-110291300D01*
X151310169Y-110272087D01*
X151273624Y-110221787D01*
X151268700Y-110190700D01*
X151268700Y-97809300D01*
X151287913Y-97750169D01*
X151338213Y-97713624D01*
X151369300Y-97708700D01*
X162250700Y-97708700D01*
X162309831Y-97727913D01*
X162346376Y-97778213D01*
X162351300Y-97809300D01*
X162351300Y-106785409D01*
X162351746Y-106799047D01*
X162352609Y-106812216D01*
X162353945Y-106825778D01*
X162368666Y-106937590D01*
X162373990Y-106964354D01*
X162373992Y-106964363D01*
X162380785Y-106989718D01*
X162380793Y-106989744D01*
X162389558Y-107015565D01*
X162430171Y-107113616D01*
X162442248Y-107138108D01*
X162455381Y-107160857D01*
X162455384Y-107160862D01*
X162470545Y-107183551D01*
X162470560Y-107183572D01*
X162535136Y-107267730D01*
X162535152Y-107267749D01*
X162535156Y-107267754D01*
X162553156Y-107288278D01*
X162571721Y-107306843D01*
X162592245Y-107324843D01*
X162592249Y-107324846D01*
X162592268Y-107324862D01*
X162676426Y-107389438D01*
X162676436Y-107389445D01*
X162676445Y-107389452D01*
X162682081Y-107393218D01*
X162699136Y-107404614D01*
X162699141Y-107404617D01*
X162699148Y-107404621D01*
X162721891Y-107417751D01*
X162746372Y-107429823D01*
X162844419Y-107470435D01*
X162870267Y-107479209D01*
X162895633Y-107486006D01*
X162895637Y-107486007D01*
X162919823Y-107490817D01*
X162922408Y-107491332D01*
X162950572Y-107495040D01*
X163034209Y-107506052D01*
X163034218Y-107506052D01*
X163034219Y-107506053D01*
X163047805Y-107507392D01*
X163060935Y-107508253D01*
X163072640Y-107508636D01*
X163074589Y-107508700D01*
X163074591Y-107508700D01*
X166625960Y-107508700D01*
X166685091Y-107527913D01*
X166721636Y-107578213D01*
X166721636Y-107640387D01*
X166705771Y-107670542D01*
X166670542Y-107716452D01*
X166670538Y-107716457D01*
X166655380Y-107739144D01*
X166655371Y-107739159D01*
X166642261Y-107761866D01*
X166642247Y-107761892D01*
X166630174Y-107786375D01*
X166630173Y-107786377D01*
X166589558Y-107884433D01*
X166580793Y-107910254D01*
X166580785Y-107910280D01*
X166573992Y-107935635D01*
X166573990Y-107935644D01*
X166568666Y-107962408D01*
X166553945Y-108074220D01*
X166552609Y-108087782D01*
X166551746Y-108100951D01*
X166551300Y-108114589D01*
X166551300Y-111790700D01*
X166532087Y-111849831D01*
X166481787Y-111886376D01*
X166450700Y-111891300D01*
X163974588Y-111891300D01*
X163967771Y-111891523D01*
X163960952Y-111891746D01*
X163958634Y-111891897D01*
X163947807Y-111892606D01*
X163934224Y-111893944D01*
X163822424Y-111908664D01*
X163822376Y-111908672D01*
X163795654Y-111913987D01*
X163795648Y-111913989D01*
X163795641Y-111913990D01*
X163795635Y-111913992D01*
X163784926Y-111916861D01*
X163770276Y-111920786D01*
X163744412Y-111929566D01*
X163646366Y-111970178D01*
X163621899Y-111982243D01*
X163619590Y-111983577D01*
X163558773Y-111996497D01*
X163501977Y-111971201D01*
X163470896Y-111917353D01*
X163468700Y-111896449D01*
X163468700Y-111614589D01*
X163468253Y-111600947D01*
X163468253Y-111600937D01*
X163467392Y-111587805D01*
X163466053Y-111574216D01*
X163451332Y-111462407D01*
X163446006Y-111435633D01*
X163439209Y-111410267D01*
X163430435Y-111384419D01*
X163389823Y-111286372D01*
X163377751Y-111261891D01*
X163364621Y-111239148D01*
X163364617Y-111239141D01*
X163364614Y-111239136D01*
X163349460Y-111216457D01*
X163349452Y-111216445D01*
X163349445Y-111216436D01*
X163349438Y-111216426D01*
X163284862Y-111132268D01*
X163284846Y-111132249D01*
X163284843Y-111132245D01*
X163266843Y-111111721D01*
X163248278Y-111093156D01*
X163227754Y-111075156D01*
X163227749Y-111075152D01*
X163227730Y-111075136D01*
X163143572Y-111010560D01*
X163143551Y-111010545D01*
X163120862Y-110995384D01*
X163120857Y-110995381D01*
X163098108Y-110982248D01*
X163098104Y-110982246D01*
X163073627Y-110970176D01*
X163073621Y-110970173D01*
X163073616Y-110970171D01*
X163007382Y-110942736D01*
X162975580Y-110929564D01*
X162975577Y-110929563D01*
X162975565Y-110929558D01*
X162949744Y-110920793D01*
X162949718Y-110920785D01*
X162924356Y-110913990D01*
X162897613Y-110908671D01*
X162897601Y-110908669D01*
X162897591Y-110908667D01*
X162897581Y-110908665D01*
X162897577Y-110908665D01*
X162785775Y-110893944D01*
X162772192Y-110892606D01*
X162762696Y-110891984D01*
X162759049Y-110891746D01*
X162751471Y-110891498D01*
X162745413Y-110891300D01*
X162745409Y-110891300D01*
X154274591Y-110891300D01*
X154274588Y-110891300D01*
X154267771Y-110891523D01*
X154260952Y-110891746D01*
X154258634Y-110891897D01*
X154247807Y-110892606D01*
X154234224Y-110893944D01*
X154122424Y-110908664D01*
X154122376Y-110908672D01*
X154095654Y-110913987D01*
X154095648Y-110913989D01*
X154095641Y-110913990D01*
X154095635Y-110913992D01*
X154084926Y-110916861D01*
X154070276Y-110920786D01*
X154044412Y-110929566D01*
X153946366Y-110970178D01*
X153921894Y-110982246D01*
X153899158Y-110995371D01*
X153899140Y-110995382D01*
X153876451Y-111010543D01*
X153876445Y-111010547D01*
X153792246Y-111075156D01*
X153792222Y-111075175D01*
X153771720Y-111093155D01*
X153753155Y-111111720D01*
X153735175Y-111132222D01*
X153735156Y-111132246D01*
X153670542Y-111216452D01*
X153670538Y-111216457D01*
X153655380Y-111239144D01*
X153655371Y-111239159D01*
X153642261Y-111261866D01*
X153642247Y-111261892D01*
X153630174Y-111286375D01*
X153630173Y-111286377D01*
X153589558Y-111384433D01*
X153580793Y-111410254D01*
X153580785Y-111410280D01*
X153573992Y-111435635D01*
X153573990Y-111435644D01*
X153568666Y-111462408D01*
X153553945Y-111574220D01*
X153552609Y-111587782D01*
X153551746Y-111600951D01*
X153551300Y-111614589D01*
X153551300Y-114693410D01*
X153551746Y-114707050D01*
X153552609Y-114720216D01*
X153553945Y-114733779D01*
X153568393Y-114843519D01*
X153573717Y-114870285D01*
X153573719Y-114870293D01*
X153580516Y-114895660D01*
X153580516Y-114895661D01*
X153580518Y-114895667D01*
X153589288Y-114921503D01*
X153589292Y-114921513D01*
X153589294Y-114921520D01*
X153629105Y-115017631D01*
X153629108Y-115017639D01*
X153641178Y-115042111D01*
X153641182Y-115042120D01*
X153654304Y-115064846D01*
X153654308Y-115064853D01*
X153654311Y-115064857D01*
X153667392Y-115084434D01*
X153669483Y-115087563D01*
X153686903Y-115110265D01*
X153732811Y-115170093D01*
X153732818Y-115170101D01*
X153732826Y-115170111D01*
X153750806Y-115190613D01*
X153769385Y-115209192D01*
X153789887Y-115227172D01*
X153789894Y-115227178D01*
X153789906Y-115227188D01*
X153843968Y-115268671D01*
X153872435Y-115290515D01*
X153872439Y-115290517D01*
X153872446Y-115290523D01*
X153895142Y-115305688D01*
X153895149Y-115305692D01*
X153895152Y-115305694D01*
X153917878Y-115318816D01*
X153917887Y-115318820D01*
X153942359Y-115330890D01*
X153942366Y-115330892D01*
X153942371Y-115330895D01*
X154038488Y-115370708D01*
X154064339Y-115379483D01*
X154064341Y-115379483D01*
X154064345Y-115379485D01*
X154074485Y-115382201D01*
X154089706Y-115386280D01*
X154116480Y-115391605D01*
X154116499Y-115391607D01*
X154116511Y-115391610D01*
X154198590Y-115402415D01*
X154219628Y-115405185D01*
X154246869Y-115406971D01*
X154246879Y-115406971D01*
X154273121Y-115406971D01*
X154273131Y-115406971D01*
X154300373Y-115405185D01*
X154403520Y-115391605D01*
X154430293Y-115386280D01*
X154455660Y-115379483D01*
X154481511Y-115370708D01*
X154577628Y-115330895D01*
X154577635Y-115330891D01*
X154577639Y-115330890D01*
X154589136Y-115325219D01*
X154602114Y-115318819D01*
X154602116Y-115318817D01*
X154602120Y-115318816D01*
X154615060Y-115311344D01*
X154624857Y-115305688D01*
X154647553Y-115290523D01*
X154730093Y-115227188D01*
X154750618Y-115209188D01*
X154769188Y-115190618D01*
X154787188Y-115170093D01*
X154850523Y-115087553D01*
X154865688Y-115064857D01*
X154878819Y-115042114D01*
X154890895Y-115017628D01*
X154930708Y-114921511D01*
X154939482Y-114895662D01*
X154946279Y-114870296D01*
X154951605Y-114843521D01*
X154966053Y-114733783D01*
X154967392Y-114720195D01*
X154968253Y-114707063D01*
X154968700Y-114693409D01*
X154968700Y-112709300D01*
X154987913Y-112650169D01*
X155038213Y-112613624D01*
X155069300Y-112608700D01*
X157050700Y-112608700D01*
X157109831Y-112627913D01*
X157146376Y-112678213D01*
X157151300Y-112709300D01*
X157151300Y-114685409D01*
X157151746Y-114699047D01*
X157152609Y-114712216D01*
X157153945Y-114725778D01*
X157168666Y-114837590D01*
X157173990Y-114864354D01*
X157173992Y-114864363D01*
X157180785Y-114889718D01*
X157180793Y-114889744D01*
X157189558Y-114915565D01*
X157189562Y-114915574D01*
X157189564Y-114915580D01*
X157199321Y-114939136D01*
X157218886Y-114986372D01*
X157230176Y-115013627D01*
X157242248Y-115038108D01*
X157255381Y-115060857D01*
X157255384Y-115060862D01*
X157270545Y-115083551D01*
X157270560Y-115083572D01*
X157335136Y-115167730D01*
X157335152Y-115167749D01*
X157335156Y-115167754D01*
X157353156Y-115188278D01*
X157371721Y-115206843D01*
X157392245Y-115224843D01*
X157392249Y-115224846D01*
X157392268Y-115224862D01*
X157476426Y-115289438D01*
X157476432Y-115289442D01*
X157476445Y-115289452D01*
X157478036Y-115290515D01*
X157499136Y-115304614D01*
X157499141Y-115304617D01*
X157499148Y-115304621D01*
X157521891Y-115317751D01*
X157546372Y-115329823D01*
X157644419Y-115370435D01*
X157670267Y-115379209D01*
X157695633Y-115386006D01*
X157695637Y-115386007D01*
X157697015Y-115386281D01*
X157722408Y-115391332D01*
X157724497Y-115391607D01*
X157834209Y-115406052D01*
X157834218Y-115406052D01*
X157834219Y-115406053D01*
X157847805Y-115407392D01*
X157860935Y-115408253D01*
X157872640Y-115408636D01*
X157874589Y-115408700D01*
X157874591Y-115408700D01*
X158045412Y-115408700D01*
X158047819Y-115408621D01*
X158059066Y-115408253D01*
X158072195Y-115407392D01*
X158085780Y-115406053D01*
X158197591Y-115391332D01*
X158224366Y-115386006D01*
X158249732Y-115379209D01*
X158275580Y-115370435D01*
X158373627Y-115329823D01*
X158398108Y-115317751D01*
X158420851Y-115304621D01*
X158443553Y-115289452D01*
X158443566Y-115289441D01*
X158443568Y-115289441D01*
X158467580Y-115271015D01*
X158527750Y-115224846D01*
X158527773Y-115224825D01*
X158527784Y-115224817D01*
X158548266Y-115206854D01*
X158548266Y-115206853D01*
X158548275Y-115206846D01*
X158566846Y-115188275D01*
X158566854Y-115188266D01*
X158584817Y-115167784D01*
X158584825Y-115167773D01*
X158584846Y-115167750D01*
X158648788Y-115084419D01*
X158649441Y-115083568D01*
X158649442Y-115083566D01*
X158649441Y-115083566D01*
X158649452Y-115083553D01*
X158664621Y-115060851D01*
X158677751Y-115038108D01*
X158689823Y-115013627D01*
X158730435Y-114915580D01*
X158739209Y-114889732D01*
X158746006Y-114864366D01*
X158751332Y-114837592D01*
X158766053Y-114725783D01*
X158767392Y-114712194D01*
X158768253Y-114699062D01*
X158768700Y-114685408D01*
X158768700Y-112709300D01*
X158787913Y-112650169D01*
X158838213Y-112613624D01*
X158869300Y-112608700D01*
X159550700Y-112608700D01*
X159609831Y-112627913D01*
X159646376Y-112678213D01*
X159651300Y-112709300D01*
X159651300Y-114685409D01*
X159651746Y-114699047D01*
X159652609Y-114712216D01*
X159653945Y-114725778D01*
X159668666Y-114837590D01*
X159673990Y-114864354D01*
X159673992Y-114864363D01*
X159680785Y-114889718D01*
X159680793Y-114889744D01*
X159689558Y-114915565D01*
X159689562Y-114915574D01*
X159689564Y-114915580D01*
X159699321Y-114939136D01*
X159718886Y-114986372D01*
X159730176Y-115013627D01*
X159742248Y-115038108D01*
X159755381Y-115060857D01*
X159755384Y-115060862D01*
X159770545Y-115083551D01*
X159770560Y-115083572D01*
X159835136Y-115167730D01*
X159835152Y-115167749D01*
X159835156Y-115167754D01*
X159853156Y-115188278D01*
X159871721Y-115206843D01*
X159892245Y-115224843D01*
X159892249Y-115224846D01*
X159892268Y-115224862D01*
X159976426Y-115289438D01*
X159976432Y-115289442D01*
X159976445Y-115289452D01*
X159978036Y-115290515D01*
X159999136Y-115304614D01*
X159999141Y-115304617D01*
X159999148Y-115304621D01*
X160021891Y-115317751D01*
X160046372Y-115329823D01*
X160144419Y-115370435D01*
X160170267Y-115379209D01*
X160195633Y-115386006D01*
X160195637Y-115386007D01*
X160197015Y-115386281D01*
X160222408Y-115391332D01*
X160224497Y-115391607D01*
X160334209Y-115406052D01*
X160334218Y-115406052D01*
X160334219Y-115406053D01*
X160347805Y-115407392D01*
X160360935Y-115408253D01*
X160372640Y-115408636D01*
X160374589Y-115408700D01*
X160374591Y-115408700D01*
X160545412Y-115408700D01*
X160547819Y-115408621D01*
X160559066Y-115408253D01*
X160572195Y-115407392D01*
X160585780Y-115406053D01*
X160697591Y-115391332D01*
X160724366Y-115386006D01*
X160749732Y-115379209D01*
X160775580Y-115370435D01*
X160873627Y-115329823D01*
X160898108Y-115317751D01*
X160920851Y-115304621D01*
X160943553Y-115289452D01*
X160943566Y-115289441D01*
X160943568Y-115289441D01*
X160967580Y-115271015D01*
X161027750Y-115224846D01*
X161027773Y-115224825D01*
X161027784Y-115224817D01*
X161048266Y-115206854D01*
X161048266Y-115206853D01*
X161048275Y-115206846D01*
X161066846Y-115188275D01*
X161066854Y-115188266D01*
X161084817Y-115167784D01*
X161084825Y-115167773D01*
X161084846Y-115167750D01*
X161148788Y-115084419D01*
X161149441Y-115083568D01*
X161149442Y-115083566D01*
X161149441Y-115083566D01*
X161149452Y-115083553D01*
X161164621Y-115060851D01*
X161177751Y-115038108D01*
X161189823Y-115013627D01*
X161230435Y-114915580D01*
X161239209Y-114889732D01*
X161246006Y-114864366D01*
X161251332Y-114837592D01*
X161266053Y-114725783D01*
X161267392Y-114712194D01*
X161268253Y-114699062D01*
X161268700Y-114685408D01*
X161268700Y-112709300D01*
X161287913Y-112650169D01*
X161338213Y-112613624D01*
X161369300Y-112608700D01*
X161850700Y-112608700D01*
X161909831Y-112627913D01*
X161946376Y-112678213D01*
X161951300Y-112709300D01*
X161951300Y-115382989D01*
X161951746Y-115396627D01*
X161952609Y-115409796D01*
X161953945Y-115423358D01*
X161968666Y-115535170D01*
X161973990Y-115561934D01*
X161973992Y-115561943D01*
X161980785Y-115587298D01*
X161980793Y-115587324D01*
X161989559Y-115613146D01*
X161989563Y-115613158D01*
X162030177Y-115711209D01*
X162030181Y-115711218D01*
X162042244Y-115735679D01*
X162042248Y-115735686D01*
X162042252Y-115735694D01*
X162055383Y-115758437D01*
X162070548Y-115781133D01*
X162070555Y-115781143D01*
X162084297Y-115799051D01*
X162139203Y-115870606D01*
X162147861Y-115881156D01*
X162156537Y-115891050D01*
X162165879Y-115901025D01*
X162566342Y-116301488D01*
X162576317Y-116310830D01*
X162586211Y-116319506D01*
X162586220Y-116319513D01*
X162586223Y-116319516D01*
X162596749Y-116328155D01*
X162596761Y-116328164D01*
X162681024Y-116392821D01*
X162703720Y-116407986D01*
X162726463Y-116421117D01*
X162726470Y-116421120D01*
X162726471Y-116421121D01*
X162750935Y-116433185D01*
X162750947Y-116433191D01*
X162842919Y-116471288D01*
X162842926Y-116471290D01*
X162842930Y-116471292D01*
X162868781Y-116480068D01*
X162894148Y-116486865D01*
X162920921Y-116492190D01*
X163019956Y-116505228D01*
X163026202Y-116506051D01*
X163026218Y-116506053D01*
X163035932Y-116507010D01*
X163039794Y-116507391D01*
X163039796Y-116507391D01*
X163039805Y-116507392D01*
X163052936Y-116508253D01*
X163064392Y-116508628D01*
X163066589Y-116508700D01*
X163066591Y-116508700D01*
X163268292Y-116508700D01*
X163273066Y-116508636D01*
X163273729Y-116508628D01*
X163278996Y-116508490D01*
X163279000Y-116508489D01*
X163279002Y-116508489D01*
X163348327Y-116494697D01*
X163348328Y-116494696D01*
X163348331Y-116494696D01*
X163369892Y-116486418D01*
X163391879Y-116479275D01*
X163426350Y-116464535D01*
X163431378Y-116460139D01*
X163439961Y-116455928D01*
X163474124Y-116422768D01*
X163496276Y-116403403D01*
X163497890Y-116401180D01*
X163497018Y-116400547D01*
X163506609Y-116391239D01*
X163517776Y-116374039D01*
X163520744Y-116369721D01*
X163532777Y-116353163D01*
X163551971Y-116321039D01*
X163553425Y-116314665D01*
X163559375Y-116296639D01*
X163559416Y-116296545D01*
X163567022Y-116279455D01*
X163567195Y-116278807D01*
X163568957Y-116274791D01*
X163569889Y-116273744D01*
X163573961Y-116264902D01*
X163587339Y-116241732D01*
X163603320Y-116220904D01*
X163620905Y-116203319D01*
X163641727Y-116187341D01*
X163663266Y-116174906D01*
X163687525Y-116164859D01*
X163711534Y-116158427D01*
X163737567Y-116155000D01*
X163762432Y-116155000D01*
X163788466Y-116158427D01*
X163812470Y-116164858D01*
X163836737Y-116174910D01*
X163858264Y-116187339D01*
X163879098Y-116203325D01*
X163896673Y-116220900D01*
X163912661Y-116241737D01*
X163925331Y-116263683D01*
X163934660Y-116285392D01*
X163935964Y-116289794D01*
X163935968Y-116289804D01*
X163967215Y-116353152D01*
X163967219Y-116353158D01*
X164002108Y-116401180D01*
X164003764Y-116403458D01*
X164028381Y-116431634D01*
X164108114Y-116479272D01*
X164167245Y-116498485D01*
X164231732Y-116508699D01*
X164231734Y-116508700D01*
X164231737Y-116508700D01*
X165945412Y-116508700D01*
X165947819Y-116508621D01*
X165959066Y-116508253D01*
X165972195Y-116507392D01*
X165985780Y-116506053D01*
X166097591Y-116491332D01*
X166124366Y-116486006D01*
X166149732Y-116479209D01*
X166175580Y-116470435D01*
X166273627Y-116429823D01*
X166298108Y-116417751D01*
X166320851Y-116404621D01*
X166343553Y-116389452D01*
X166343566Y-116389441D01*
X166343568Y-116389441D01*
X166369293Y-116369701D01*
X166427750Y-116324846D01*
X166427773Y-116324825D01*
X166427784Y-116324817D01*
X166448266Y-116306854D01*
X166448266Y-116306853D01*
X166448275Y-116306846D01*
X166466846Y-116288275D01*
X166466854Y-116288266D01*
X166484817Y-116267784D01*
X166484825Y-116267773D01*
X166484846Y-116267750D01*
X166541466Y-116193961D01*
X166549441Y-116183568D01*
X166549442Y-116183566D01*
X166549441Y-116183566D01*
X166549452Y-116183553D01*
X166564621Y-116160851D01*
X166577751Y-116138108D01*
X166589823Y-116113627D01*
X166630435Y-116015580D01*
X166639209Y-115989732D01*
X166646006Y-115964366D01*
X166651332Y-115937592D01*
X166666053Y-115825783D01*
X166667392Y-115812194D01*
X166668253Y-115799062D01*
X166668700Y-115785408D01*
X166668700Y-115314591D01*
X166668253Y-115300937D01*
X166667392Y-115287805D01*
X166666053Y-115274216D01*
X166651332Y-115162407D01*
X166646006Y-115135633D01*
X166639209Y-115110267D01*
X166630435Y-115084419D01*
X166589823Y-114986372D01*
X166577751Y-114961891D01*
X166564621Y-114939148D01*
X166564617Y-114939141D01*
X166564614Y-114939136D01*
X166552837Y-114921511D01*
X166549452Y-114916445D01*
X166549445Y-114916436D01*
X166549438Y-114916426D01*
X166484862Y-114832268D01*
X166484846Y-114832249D01*
X166484843Y-114832245D01*
X166466843Y-114811721D01*
X166448278Y-114793156D01*
X166427754Y-114775156D01*
X166427749Y-114775152D01*
X166427730Y-114775136D01*
X166343564Y-114710554D01*
X166343551Y-114710545D01*
X166320862Y-114695384D01*
X166320857Y-114695381D01*
X166298108Y-114682248D01*
X166273627Y-114670176D01*
X166273621Y-114670173D01*
X166273616Y-114670171D01*
X166207382Y-114642736D01*
X166175580Y-114629564D01*
X166175577Y-114629563D01*
X166175565Y-114629558D01*
X166149744Y-114620793D01*
X166149718Y-114620785D01*
X166124356Y-114613990D01*
X166097613Y-114608671D01*
X166097601Y-114608669D01*
X166097591Y-114608667D01*
X166097581Y-114608665D01*
X166097577Y-114608665D01*
X165985775Y-114593944D01*
X165972192Y-114592606D01*
X165962696Y-114591984D01*
X165959049Y-114591746D01*
X165951471Y-114591498D01*
X165945413Y-114591300D01*
X165945409Y-114591300D01*
X164863549Y-114591300D01*
X164804418Y-114572087D01*
X164767873Y-114521787D01*
X164767873Y-114459613D01*
X164776423Y-114440407D01*
X164777751Y-114438108D01*
X164789823Y-114413627D01*
X164830435Y-114315580D01*
X164839209Y-114289732D01*
X164846006Y-114264366D01*
X164851332Y-114237592D01*
X164866053Y-114125783D01*
X164867392Y-114112194D01*
X164868253Y-114099062D01*
X164868700Y-114085408D01*
X164868700Y-113709300D01*
X164887913Y-113650169D01*
X164938213Y-113613624D01*
X164969300Y-113608700D01*
X167445412Y-113608700D01*
X167447819Y-113608621D01*
X167459066Y-113608253D01*
X167472195Y-113607392D01*
X167485780Y-113606053D01*
X167597591Y-113591332D01*
X167624366Y-113586006D01*
X167630485Y-113584366D01*
X167633260Y-113583623D01*
X167695349Y-113586875D01*
X167743669Y-113626001D01*
X167759900Y-113680794D01*
X167759900Y-113740089D01*
X167783346Y-113857962D01*
X167829334Y-113968987D01*
X167829335Y-113968990D01*
X167862720Y-114018953D01*
X167896104Y-114068916D01*
X167981084Y-114153896D01*
X168081009Y-114220664D01*
X168097723Y-114227587D01*
X168192037Y-114266653D01*
X168192038Y-114266653D01*
X168192040Y-114266654D01*
X168309910Y-114290100D01*
X168309911Y-114290100D01*
X169090090Y-114290100D01*
X169207955Y-114266656D01*
X169207955Y-114266655D01*
X169207960Y-114266655D01*
X169302277Y-114227587D01*
X169318991Y-114220664D01*
X169418916Y-114153896D01*
X169503896Y-114068916D01*
X170933896Y-112638916D01*
X171000664Y-112538991D01*
X171046654Y-112427960D01*
X171070100Y-112310090D01*
X171070100Y-108644851D01*
X173711500Y-108644851D01*
X173711500Y-108778752D01*
X173746151Y-108908072D01*
X173746151Y-108908073D01*
X173804596Y-109009300D01*
X173813099Y-109024028D01*
X173907774Y-109118703D01*
X173918442Y-109124862D01*
X174023728Y-109185650D01*
X174153049Y-109220301D01*
X174153053Y-109220301D01*
X174153055Y-109220302D01*
X174153057Y-109220302D01*
X174286943Y-109220302D01*
X174286945Y-109220302D01*
X174286947Y-109220301D01*
X174286950Y-109220301D01*
X174416270Y-109185650D01*
X174416271Y-109185650D01*
X174416271Y-109185649D01*
X174416274Y-109185649D01*
X174532226Y-109118703D01*
X174626901Y-109024028D01*
X174693847Y-108908076D01*
X174706790Y-108859771D01*
X174728499Y-108778752D01*
X174728500Y-108778745D01*
X174728500Y-108644858D01*
X174728499Y-108644851D01*
X174693848Y-108515531D01*
X174693848Y-108515530D01*
X174693847Y-108515528D01*
X174626901Y-108399576D01*
X174532226Y-108304901D01*
X174416274Y-108237955D01*
X174416271Y-108237953D01*
X174286950Y-108203302D01*
X174286945Y-108203302D01*
X174153055Y-108203302D01*
X174153049Y-108203302D01*
X174023729Y-108237953D01*
X174023728Y-108237953D01*
X173907773Y-108304901D01*
X173813099Y-108399575D01*
X173746151Y-108515530D01*
X173746151Y-108515531D01*
X173711500Y-108644851D01*
X171070100Y-108644851D01*
X171070100Y-100460700D01*
X171089313Y-100401569D01*
X171139613Y-100365024D01*
X171170700Y-100360100D01*
X174704018Y-100360100D01*
X174763149Y-100379313D01*
X174775153Y-100389565D01*
X175894504Y-101508916D01*
X175944504Y-101558916D01*
X176029484Y-101643896D01*
X176129409Y-101710664D01*
X176175397Y-101729712D01*
X176175399Y-101729713D01*
X176175400Y-101729713D01*
X176240441Y-101756655D01*
X176328842Y-101774238D01*
X176358309Y-101780100D01*
X176358310Y-101780100D01*
X176478490Y-101780100D01*
X177169300Y-101780100D01*
X177228431Y-101799313D01*
X177264976Y-101849613D01*
X177269900Y-101880700D01*
X177269900Y-123395618D01*
X177250687Y-123454749D01*
X177240435Y-123466753D01*
X176886753Y-123820435D01*
X176831355Y-123848661D01*
X176815618Y-123849900D01*
X155024382Y-123849900D01*
X154965251Y-123830687D01*
X154953247Y-123820435D01*
X149959565Y-118826753D01*
X149931339Y-118771355D01*
X149930100Y-118755618D01*
X149930100Y-116489910D01*
X149926226Y-116470435D01*
X149906654Y-116372040D01*
X149898837Y-116353169D01*
X149870764Y-116285392D01*
X149860664Y-116261009D01*
X149793896Y-116161084D01*
X149708916Y-116076104D01*
X149608991Y-116009336D01*
X149608992Y-116009336D01*
X149608990Y-116009335D01*
X149608987Y-116009334D01*
X149497962Y-115963346D01*
X149419380Y-115947715D01*
X149380090Y-115939900D01*
X149259910Y-115939900D01*
X149230442Y-115945761D01*
X149142037Y-115963346D01*
X149031012Y-116009334D01*
X149031009Y-116009335D01*
X148931082Y-116076105D01*
X148846105Y-116161082D01*
X148779335Y-116261009D01*
X148779334Y-116261012D01*
X148733346Y-116372037D01*
X148709900Y-116489910D01*
X148709900Y-117334218D01*
X148690687Y-117393349D01*
X148640387Y-117429894D01*
X148578213Y-117429894D01*
X148538165Y-117405353D01*
X146599565Y-115466753D01*
X146571339Y-115411355D01*
X146570100Y-115395618D01*
X146570100Y-110399910D01*
X146556106Y-110329558D01*
X146546654Y-110282040D01*
X146542531Y-110272087D01*
X146500665Y-110171012D01*
X146500664Y-110171009D01*
X146433896Y-110071084D01*
X146348916Y-109986104D01*
X146248991Y-109919336D01*
X146248992Y-109919336D01*
X146248990Y-109919335D01*
X146248987Y-109919334D01*
X146137962Y-109873346D01*
X146059380Y-109857715D01*
X146020090Y-109849900D01*
X145899910Y-109849900D01*
X145870442Y-109855761D01*
X145782037Y-109873346D01*
X145671012Y-109919334D01*
X145671009Y-109919335D01*
X145571082Y-109986105D01*
X145486105Y-110071082D01*
X145419335Y-110171009D01*
X145419334Y-110171012D01*
X145373346Y-110282037D01*
X145349900Y-110399910D01*
X145349900Y-115750089D01*
X145373344Y-115867958D01*
X145373344Y-115867960D01*
X145391049Y-115910701D01*
X145419334Y-115978987D01*
X145419335Y-115978990D01*
X145433325Y-115999928D01*
X145475489Y-116063030D01*
X145486104Y-116078916D01*
X145486105Y-116078917D01*
X145486106Y-116078918D01*
X148842586Y-119435397D01*
X148842591Y-119435403D01*
X148846104Y-119438916D01*
X154256104Y-124848916D01*
X154341084Y-124933896D01*
X154441009Y-125000664D01*
X154473519Y-125014130D01*
X154552037Y-125046653D01*
X154552038Y-125046653D01*
X154552040Y-125046654D01*
X154669910Y-125070100D01*
X154669911Y-125070100D01*
X177170090Y-125070100D01*
X177287960Y-125046655D01*
X177366470Y-125014134D01*
X177398991Y-125000664D01*
X177498916Y-124933896D01*
X177583896Y-124848916D01*
X178353896Y-124078916D01*
X178355648Y-124076292D01*
X178359129Y-124071085D01*
X178376693Y-124044796D01*
X178420664Y-123978991D01*
X178466654Y-123867960D01*
X178490100Y-123750090D01*
X178490100Y-109458542D01*
X180383338Y-109458542D01*
X180526378Y-109517791D01*
X180526375Y-109517791D01*
X180688314Y-109550002D01*
X180853424Y-109550002D01*
X181015360Y-109517791D01*
X181158398Y-109458541D01*
X180770869Y-109071012D01*
X180383338Y-109458542D01*
X178490100Y-109458542D01*
X178490100Y-108629246D01*
X179932669Y-108629246D01*
X179932669Y-108794357D01*
X179964880Y-108956296D01*
X180024128Y-109099331D01*
X180411658Y-108711802D01*
X180411658Y-108711801D01*
X180371531Y-108671674D01*
X180466069Y-108671674D01*
X180466069Y-108751930D01*
X180486841Y-108829450D01*
X180526968Y-108898954D01*
X180583717Y-108955703D01*
X180653221Y-108995830D01*
X180730741Y-109016602D01*
X180810997Y-109016602D01*
X180888517Y-108995830D01*
X180958021Y-108955703D01*
X181014770Y-108898954D01*
X181054897Y-108829450D01*
X181075669Y-108751930D01*
X181075669Y-108711801D01*
X181130079Y-108711801D01*
X181130079Y-108711802D01*
X181517608Y-109099331D01*
X181576858Y-108956293D01*
X181609069Y-108794357D01*
X181609069Y-108629246D01*
X181576858Y-108467310D01*
X181517609Y-108324271D01*
X181130079Y-108711801D01*
X181075669Y-108711801D01*
X181075669Y-108671674D01*
X181054897Y-108594154D01*
X181014770Y-108524650D01*
X180958021Y-108467901D01*
X180888517Y-108427774D01*
X180810997Y-108407002D01*
X180730741Y-108407002D01*
X180653221Y-108427774D01*
X180583717Y-108467901D01*
X180526968Y-108524650D01*
X180486841Y-108594154D01*
X180466069Y-108671674D01*
X180371531Y-108671674D01*
X180024127Y-108324270D01*
X179964880Y-108467305D01*
X179932669Y-108629246D01*
X178490100Y-108629246D01*
X178490100Y-107965060D01*
X180383337Y-107965060D01*
X180770868Y-108352591D01*
X181158398Y-107965061D01*
X181015363Y-107905813D01*
X180853424Y-107873602D01*
X180688314Y-107873602D01*
X180526372Y-107905813D01*
X180383337Y-107965060D01*
X178490100Y-107965060D01*
X178490100Y-101421510D01*
X178490100Y-101421509D01*
X178486424Y-101403028D01*
X178476539Y-101353335D01*
X178466655Y-101303640D01*
X178444610Y-101250420D01*
X178433588Y-101223810D01*
X178427126Y-101208210D01*
X178420664Y-101192609D01*
X178353896Y-101092684D01*
X178268916Y-101007704D01*
X177957316Y-100696104D01*
X177957314Y-100696102D01*
X177857388Y-100629334D01*
X177839052Y-100621739D01*
X177824870Y-100615865D01*
X177792349Y-100602394D01*
X177746359Y-100583344D01*
X177628490Y-100559900D01*
X176712782Y-100559900D01*
X176653651Y-100540687D01*
X176641647Y-100530435D01*
X175387313Y-99276101D01*
X175386290Y-99275418D01*
X175386283Y-99275413D01*
X175384131Y-99273976D01*
X175287391Y-99209336D01*
X175254870Y-99195865D01*
X175219760Y-99181322D01*
X175176359Y-99163344D01*
X175058490Y-99139900D01*
X171774598Y-99139900D01*
X171715467Y-99120687D01*
X171678922Y-99070387D01*
X171678922Y-99008213D01*
X171703463Y-98968165D01*
X171767250Y-98904378D01*
X171767251Y-98904376D01*
X171776601Y-98888182D01*
X171826981Y-98800922D01*
X171857900Y-98685531D01*
X171857900Y-98566069D01*
X171855538Y-98557255D01*
X171826982Y-98450681D01*
X171826980Y-98450676D01*
X171767251Y-98347223D01*
X171713565Y-98293537D01*
X171685339Y-98238139D01*
X171684100Y-98222402D01*
X171684100Y-92983577D01*
X171665025Y-92912390D01*
X171656625Y-92897840D01*
X171643147Y-92847540D01*
X171643147Y-92745944D01*
X171643146Y-92745938D01*
X171612229Y-92630555D01*
X171612227Y-92630550D01*
X171552498Y-92527097D01*
X171468023Y-92442622D01*
X171364570Y-92382893D01*
X171364565Y-92382891D01*
X171249182Y-92351974D01*
X171249178Y-92351974D01*
X171129716Y-92351974D01*
X171129711Y-92351974D01*
X171014328Y-92382891D01*
X171014323Y-92382893D01*
X170910870Y-92442622D01*
X170910869Y-92442624D01*
X170826397Y-92527096D01*
X170826395Y-92527097D01*
X170766666Y-92630550D01*
X170766664Y-92630555D01*
X170735747Y-92745938D01*
X170735747Y-92865409D01*
X170766664Y-92980792D01*
X170766666Y-92980797D01*
X170826395Y-93084250D01*
X170910870Y-93168725D01*
X171014323Y-93228454D01*
X171014325Y-93228455D01*
X171049737Y-93237943D01*
X171101879Y-93271803D01*
X171124162Y-93329847D01*
X171124300Y-93335115D01*
X171124300Y-93576009D01*
X171105087Y-93635140D01*
X171054787Y-93671685D01*
X170992613Y-93671685D01*
X170942313Y-93635140D01*
X170940056Y-93631902D01*
X170933897Y-93622686D01*
X170933896Y-93622684D01*
X145877314Y-68566102D01*
X145822301Y-68529344D01*
X145822300Y-68529343D01*
X145817579Y-68526189D01*
X145777391Y-68499336D01*
X145713909Y-68473041D01*
X145710030Y-68471434D01*
X145710022Y-68471430D01*
X145666359Y-68453344D01*
X145548490Y-68429900D01*
X132489951Y-68429900D01*
X132430820Y-68410687D01*
X132394275Y-68360387D01*
X132392779Y-68303262D01*
X132410574Y-68236850D01*
X132417700Y-68210257D01*
X132417700Y-68089743D01*
X132386508Y-67973335D01*
X132326251Y-67868966D01*
X132241034Y-67783749D01*
X132241031Y-67783747D01*
X132136668Y-67723493D01*
X132136665Y-67723492D01*
X132105478Y-67715135D01*
X132020259Y-67692300D01*
X132020257Y-67692300D01*
X117260257Y-67692300D01*
X117110258Y-67692300D01*
X116989743Y-67692300D01*
X116989740Y-67692300D01*
X116873331Y-67723493D01*
X116768968Y-67783747D01*
X116768966Y-67783749D01*
X113243748Y-71308966D01*
X113243748Y-71308967D01*
X113183492Y-71413333D01*
X113183489Y-71413340D01*
X113163941Y-71486299D01*
X113163941Y-71486301D01*
X113152300Y-71529742D01*
X113152300Y-91088744D01*
X113133087Y-91147875D01*
X113122835Y-91159879D01*
X111143747Y-93138967D01*
X111083493Y-93243330D01*
X111052300Y-93359739D01*
X85150500Y-93359739D01*
X85150500Y-78253851D01*
X86899500Y-78253851D01*
X86899500Y-90346148D01*
X86923384Y-90435284D01*
X86923384Y-90435285D01*
X86943343Y-90469854D01*
X86969531Y-90515212D01*
X87034788Y-90580469D01*
X87114712Y-90626614D01*
X87114714Y-90626615D01*
X87203851Y-90650499D01*
X87203853Y-90650499D01*
X87203856Y-90650500D01*
X87220064Y-90650500D01*
X89898900Y-90650500D01*
X89958031Y-90669713D01*
X89994576Y-90720013D01*
X89999500Y-90751100D01*
X89999500Y-90996148D01*
X90023384Y-91085284D01*
X90023384Y-91085285D01*
X90043904Y-91120825D01*
X90069531Y-91165212D01*
X90134788Y-91230469D01*
X90214712Y-91276614D01*
X90214714Y-91276615D01*
X90303851Y-91300499D01*
X90303853Y-91300499D01*
X90303856Y-91300500D01*
X90303858Y-91300500D01*
X91196142Y-91300500D01*
X91196144Y-91300500D01*
X91285284Y-91276615D01*
X91285285Y-91276615D01*
X91285285Y-91276614D01*
X91285288Y-91276614D01*
X91365212Y-91230469D01*
X91430469Y-91165212D01*
X91476614Y-91085288D01*
X91500500Y-90996144D01*
X91500500Y-90950000D01*
X91500500Y-90915649D01*
X91500500Y-90751100D01*
X91519713Y-90691969D01*
X91570013Y-90655424D01*
X91601100Y-90650500D01*
X94898900Y-90650500D01*
X94958031Y-90669713D01*
X94994576Y-90720013D01*
X94999500Y-90751100D01*
X94999500Y-90996148D01*
X95023384Y-91085284D01*
X95023384Y-91085285D01*
X95043904Y-91120825D01*
X95069531Y-91165212D01*
X95134788Y-91230469D01*
X95214712Y-91276614D01*
X95214714Y-91276615D01*
X95303851Y-91300499D01*
X95303853Y-91300499D01*
X95303856Y-91300500D01*
X95303858Y-91300500D01*
X96196142Y-91300500D01*
X96196144Y-91300500D01*
X96285284Y-91276615D01*
X96285285Y-91276615D01*
X96285285Y-91276614D01*
X96285288Y-91276614D01*
X96365212Y-91230469D01*
X96430469Y-91165212D01*
X96476614Y-91085288D01*
X96500500Y-90996144D01*
X96500500Y-90950000D01*
X96500500Y-90915649D01*
X96500500Y-90751100D01*
X96519713Y-90691969D01*
X96570013Y-90655424D01*
X96601100Y-90650500D01*
X99296142Y-90650500D01*
X99296144Y-90650500D01*
X99385284Y-90626615D01*
X99385285Y-90626615D01*
X99385285Y-90626614D01*
X99385288Y-90626614D01*
X99465212Y-90580469D01*
X99530469Y-90515212D01*
X99576614Y-90435288D01*
X99600500Y-90346144D01*
X99600500Y-90300000D01*
X99600500Y-90265649D01*
X99600500Y-89900264D01*
X111156300Y-89900264D01*
X111156300Y-90019735D01*
X111187217Y-90135118D01*
X111187219Y-90135123D01*
X111246948Y-90238576D01*
X111331423Y-90323051D01*
X111416920Y-90372413D01*
X111434878Y-90382781D01*
X111434879Y-90382781D01*
X111434881Y-90382782D01*
X111550264Y-90413699D01*
X111550266Y-90413699D01*
X111550269Y-90413700D01*
X111550271Y-90413700D01*
X111669729Y-90413700D01*
X111669731Y-90413700D01*
X111785122Y-90382781D01*
X111888578Y-90323050D01*
X111973050Y-90238578D01*
X112032781Y-90135122D01*
X112063700Y-90019731D01*
X112063700Y-89943807D01*
X112082913Y-89884676D01*
X112093159Y-89872678D01*
X112643976Y-89321862D01*
X112680825Y-89258037D01*
X112699900Y-89186850D01*
X112699900Y-89113150D01*
X112699900Y-71137607D01*
X112719113Y-71078476D01*
X112729359Y-71066478D01*
X115423976Y-68371862D01*
X115460825Y-68308037D01*
X115479900Y-68236850D01*
X115479900Y-68163150D01*
X115479900Y-55966707D01*
X115499113Y-55907576D01*
X115542000Y-55873765D01*
X115618115Y-55842239D01*
X115762688Y-55745638D01*
X115885638Y-55622688D01*
X115982239Y-55478115D01*
X116048778Y-55317474D01*
X116082700Y-55146938D01*
X116082700Y-54973062D01*
X116048778Y-54802526D01*
X115982239Y-54641885D01*
X115885638Y-54497312D01*
X115762688Y-54374362D01*
X115742595Y-54360936D01*
X116317300Y-54360936D01*
X116317300Y-55759063D01*
X116329118Y-55818479D01*
X116329119Y-55818480D01*
X116374140Y-55885860D01*
X116441520Y-55930881D01*
X116500936Y-55942700D01*
X116500937Y-55942700D01*
X117899063Y-55942700D01*
X117899064Y-55942700D01*
X117958480Y-55930881D01*
X118025860Y-55885860D01*
X118070881Y-55818480D01*
X118082700Y-55759064D01*
X118082700Y-54360936D01*
X118070881Y-54301520D01*
X118025860Y-54234140D01*
X117958480Y-54189119D01*
X117958479Y-54189118D01*
X117910882Y-54179650D01*
X117899064Y-54177300D01*
X116500936Y-54177300D01*
X116491078Y-54179260D01*
X116441520Y-54189118D01*
X116374140Y-54234140D01*
X116329118Y-54301520D01*
X116317300Y-54360936D01*
X115742595Y-54360936D01*
X115644201Y-54295191D01*
X115618114Y-54277760D01*
X115618111Y-54277759D01*
X115457476Y-54211222D01*
X115343783Y-54188607D01*
X115286938Y-54177300D01*
X115113062Y-54177300D01*
X115070428Y-54185780D01*
X114942523Y-54211222D01*
X114781888Y-54277759D01*
X114781885Y-54277760D01*
X114637310Y-54374363D01*
X114514363Y-54497310D01*
X114417760Y-54641885D01*
X114417759Y-54641888D01*
X114351222Y-54802523D01*
X114317300Y-54973062D01*
X114317300Y-55146937D01*
X114351222Y-55317476D01*
X114417759Y-55478111D01*
X114417760Y-55478114D01*
X114466061Y-55550401D01*
X114514362Y-55622688D01*
X114637312Y-55745638D01*
X114781885Y-55842239D01*
X114857998Y-55873765D01*
X114905275Y-55914143D01*
X114920100Y-55966707D01*
X114920100Y-68042392D01*
X114900887Y-68101523D01*
X114890635Y-68113527D01*
X112196022Y-70808140D01*
X112159176Y-70871961D01*
X112140100Y-70943149D01*
X112140100Y-88992392D01*
X112120887Y-89051523D01*
X112110635Y-89063527D01*
X111697327Y-89476835D01*
X111641929Y-89505061D01*
X111626192Y-89506300D01*
X111550264Y-89506300D01*
X111434881Y-89537217D01*
X111434876Y-89537219D01*
X111331423Y-89596948D01*
X111331422Y-89596950D01*
X111246950Y-89681422D01*
X111246948Y-89681423D01*
X111187219Y-89784876D01*
X111187217Y-89784881D01*
X111156300Y-89900264D01*
X99600500Y-89900264D01*
X99600500Y-88630264D01*
X110826300Y-88630264D01*
X110826300Y-88749735D01*
X110857217Y-88865118D01*
X110857219Y-88865123D01*
X110916948Y-88968576D01*
X111001423Y-89053051D01*
X111097998Y-89108809D01*
X111104878Y-89112781D01*
X111104879Y-89112781D01*
X111104881Y-89112782D01*
X111220264Y-89143699D01*
X111220266Y-89143699D01*
X111220269Y-89143700D01*
X111220271Y-89143700D01*
X111339729Y-89143700D01*
X111339731Y-89143700D01*
X111455122Y-89112781D01*
X111558578Y-89053050D01*
X111643050Y-88968578D01*
X111702781Y-88865122D01*
X111733700Y-88749731D01*
X111733700Y-88630269D01*
X111732773Y-88626811D01*
X111702782Y-88514881D01*
X111702780Y-88514876D01*
X111643051Y-88411423D01*
X111589365Y-88357737D01*
X111561139Y-88302339D01*
X111559900Y-88286602D01*
X111559900Y-70237607D01*
X111579113Y-70178476D01*
X111589359Y-70166478D01*
X113423976Y-68331862D01*
X113460825Y-68268037D01*
X113479900Y-68196850D01*
X113479900Y-68123150D01*
X113479900Y-55966707D01*
X113499113Y-55907576D01*
X113542000Y-55873765D01*
X113618115Y-55842239D01*
X113762688Y-55745638D01*
X113885638Y-55622688D01*
X113982239Y-55478115D01*
X114048778Y-55317474D01*
X114082700Y-55146938D01*
X114082700Y-54973062D01*
X114048778Y-54802526D01*
X113982239Y-54641885D01*
X113885638Y-54497312D01*
X113762688Y-54374362D01*
X113644201Y-54295191D01*
X113618114Y-54277760D01*
X113618111Y-54277759D01*
X113457476Y-54211222D01*
X113343783Y-54188607D01*
X113286938Y-54177300D01*
X113113062Y-54177300D01*
X113070428Y-54185780D01*
X112942523Y-54211222D01*
X112781888Y-54277759D01*
X112781885Y-54277760D01*
X112637310Y-54374363D01*
X112514363Y-54497310D01*
X112417760Y-54641885D01*
X112417759Y-54641888D01*
X112351222Y-54802523D01*
X112317300Y-54973062D01*
X112317300Y-55146937D01*
X112351222Y-55317476D01*
X112417759Y-55478111D01*
X112417760Y-55478114D01*
X112466061Y-55550401D01*
X112514362Y-55622688D01*
X112637312Y-55745638D01*
X112781885Y-55842239D01*
X112857998Y-55873765D01*
X112905275Y-55914143D01*
X112920100Y-55966707D01*
X112920100Y-68002392D01*
X112900887Y-68061523D01*
X112890635Y-68073527D01*
X111056022Y-69908140D01*
X111019176Y-69971961D01*
X111019175Y-69971963D01*
X111010642Y-70003809D01*
X111000100Y-70043149D01*
X111000100Y-88286602D01*
X110980887Y-88345733D01*
X110970635Y-88357737D01*
X110916950Y-88411422D01*
X110916948Y-88411423D01*
X110857219Y-88514876D01*
X110857217Y-88514881D01*
X110826300Y-88630264D01*
X99600500Y-88630264D01*
X99600500Y-78270064D01*
X99600500Y-78253856D01*
X99593461Y-78227587D01*
X99576615Y-78164715D01*
X99576615Y-78164714D01*
X99576614Y-78164712D01*
X99530469Y-78084788D01*
X99465212Y-78019531D01*
X99385285Y-77973384D01*
X99296148Y-77949500D01*
X99296144Y-77949500D01*
X99279936Y-77949500D01*
X96601100Y-77949500D01*
X96541969Y-77930287D01*
X96505424Y-77879987D01*
X96500500Y-77848900D01*
X96500500Y-77603857D01*
X96500499Y-77603851D01*
X96476615Y-77514715D01*
X96476615Y-77514714D01*
X96430468Y-77434787D01*
X96365212Y-77369531D01*
X96285285Y-77323384D01*
X96196148Y-77299500D01*
X96196144Y-77299500D01*
X96179936Y-77299500D01*
X95384351Y-77299500D01*
X95350000Y-77299500D01*
X95303856Y-77299500D01*
X95303851Y-77299500D01*
X95214715Y-77323384D01*
X95214714Y-77323384D01*
X95134787Y-77369531D01*
X95069531Y-77434787D01*
X95023384Y-77514714D01*
X95023384Y-77514715D01*
X94999500Y-77603851D01*
X94999500Y-77848900D01*
X94980287Y-77908031D01*
X94929987Y-77944576D01*
X94898900Y-77949500D01*
X91601100Y-77949500D01*
X91541969Y-77930287D01*
X91505424Y-77879987D01*
X91500500Y-77848900D01*
X91500500Y-77603857D01*
X91500499Y-77603851D01*
X91476615Y-77514715D01*
X91476615Y-77514714D01*
X91430468Y-77434787D01*
X91365212Y-77369531D01*
X91285285Y-77323384D01*
X91196148Y-77299500D01*
X91196144Y-77299500D01*
X91179936Y-77299500D01*
X90384351Y-77299500D01*
X90350000Y-77299500D01*
X90303856Y-77299500D01*
X90303851Y-77299500D01*
X90214715Y-77323384D01*
X90214714Y-77323384D01*
X90134787Y-77369531D01*
X90069531Y-77434787D01*
X90023384Y-77514714D01*
X90023384Y-77514715D01*
X89999500Y-77603851D01*
X89999500Y-77848900D01*
X89980287Y-77908031D01*
X89929987Y-77944576D01*
X89898900Y-77949500D01*
X87203851Y-77949500D01*
X87114715Y-77973384D01*
X87114714Y-77973384D01*
X87034787Y-78019531D01*
X86969531Y-78084787D01*
X86923384Y-78164714D01*
X86923384Y-78164715D01*
X86899500Y-78253851D01*
X85150500Y-78253851D01*
X85150500Y-60253851D01*
X86899500Y-60253851D01*
X86899500Y-72346148D01*
X86923384Y-72435284D01*
X86923384Y-72435285D01*
X86923386Y-72435288D01*
X86969531Y-72515212D01*
X87034788Y-72580469D01*
X87114712Y-72626614D01*
X87114714Y-72626615D01*
X87203851Y-72650499D01*
X87203853Y-72650499D01*
X87203856Y-72650500D01*
X87220064Y-72650500D01*
X89898900Y-72650500D01*
X89958031Y-72669713D01*
X89994576Y-72720013D01*
X89999500Y-72751100D01*
X89999500Y-72996148D01*
X90023384Y-73085284D01*
X90023384Y-73085285D01*
X90023386Y-73085288D01*
X90069531Y-73165212D01*
X90134788Y-73230469D01*
X90214712Y-73276614D01*
X90214714Y-73276615D01*
X90303851Y-73300499D01*
X90303853Y-73300499D01*
X90303856Y-73300500D01*
X90303858Y-73300500D01*
X91196142Y-73300500D01*
X91196144Y-73300500D01*
X91285284Y-73276615D01*
X91285285Y-73276615D01*
X91285285Y-73276614D01*
X91285288Y-73276614D01*
X91365212Y-73230469D01*
X91430469Y-73165212D01*
X91476614Y-73085288D01*
X91500500Y-72996144D01*
X91500500Y-72950000D01*
X91500500Y-72915649D01*
X91500500Y-72751100D01*
X91519713Y-72691969D01*
X91570013Y-72655424D01*
X91601100Y-72650500D01*
X94898900Y-72650500D01*
X94958031Y-72669713D01*
X94994576Y-72720013D01*
X94999500Y-72751100D01*
X94999500Y-72996148D01*
X95023384Y-73085284D01*
X95023384Y-73085285D01*
X95023386Y-73085288D01*
X95069531Y-73165212D01*
X95134788Y-73230469D01*
X95214712Y-73276614D01*
X95214714Y-73276615D01*
X95303851Y-73300499D01*
X95303853Y-73300499D01*
X95303856Y-73300500D01*
X95303858Y-73300500D01*
X96196142Y-73300500D01*
X96196144Y-73300500D01*
X96285284Y-73276615D01*
X96285285Y-73276615D01*
X96285285Y-73276614D01*
X96285288Y-73276614D01*
X96365212Y-73230469D01*
X96430469Y-73165212D01*
X96476614Y-73085288D01*
X96500500Y-72996144D01*
X96500500Y-72950000D01*
X96500500Y-72915649D01*
X96500500Y-72751100D01*
X96519713Y-72691969D01*
X96570013Y-72655424D01*
X96601100Y-72650500D01*
X99296142Y-72650500D01*
X99296144Y-72650500D01*
X99385284Y-72626615D01*
X99385285Y-72626615D01*
X99385285Y-72626614D01*
X99385288Y-72626614D01*
X99465212Y-72580469D01*
X99530469Y-72515212D01*
X99576614Y-72435288D01*
X99600500Y-72346144D01*
X99600500Y-72300000D01*
X99600500Y-72265649D01*
X99600500Y-60270064D01*
X99600500Y-60253856D01*
X99593461Y-60227587D01*
X99576615Y-60164715D01*
X99576615Y-60164714D01*
X99576614Y-60164712D01*
X99530469Y-60084788D01*
X99465212Y-60019531D01*
X99385288Y-59973386D01*
X99385285Y-59973384D01*
X99296148Y-59949500D01*
X99296144Y-59949500D01*
X99279936Y-59949500D01*
X96601100Y-59949500D01*
X96541969Y-59930287D01*
X96505424Y-59879987D01*
X96500500Y-59848900D01*
X96500500Y-59603857D01*
X96500499Y-59603851D01*
X96476615Y-59514715D01*
X96476615Y-59514714D01*
X96430468Y-59434787D01*
X96365212Y-59369531D01*
X96285285Y-59323384D01*
X96196148Y-59299500D01*
X96196144Y-59299500D01*
X96179936Y-59299500D01*
X95384351Y-59299500D01*
X95350000Y-59299500D01*
X95303856Y-59299500D01*
X95303851Y-59299500D01*
X95214715Y-59323384D01*
X95214714Y-59323384D01*
X95134787Y-59369531D01*
X95069531Y-59434787D01*
X95023384Y-59514714D01*
X95023384Y-59514715D01*
X94999500Y-59603851D01*
X94999500Y-59848900D01*
X94980287Y-59908031D01*
X94929987Y-59944576D01*
X94898900Y-59949500D01*
X91601100Y-59949500D01*
X91541969Y-59930287D01*
X91505424Y-59879987D01*
X91500500Y-59848900D01*
X91500500Y-59603857D01*
X91500499Y-59603851D01*
X91476615Y-59514715D01*
X91476615Y-59514714D01*
X91430468Y-59434787D01*
X91365212Y-59369531D01*
X91285285Y-59323384D01*
X91196148Y-59299500D01*
X91196144Y-59299500D01*
X91179936Y-59299500D01*
X90384351Y-59299500D01*
X90350000Y-59299500D01*
X90303856Y-59299500D01*
X90303851Y-59299500D01*
X90214715Y-59323384D01*
X90214714Y-59323384D01*
X90134787Y-59369531D01*
X90069531Y-59434787D01*
X90023384Y-59514714D01*
X90023384Y-59514715D01*
X89999500Y-59603851D01*
X89999500Y-59848900D01*
X89980287Y-59908031D01*
X89929987Y-59944576D01*
X89898900Y-59949500D01*
X87203851Y-59949500D01*
X87114715Y-59973384D01*
X87114714Y-59973384D01*
X87034787Y-60019531D01*
X86969531Y-60084787D01*
X86923384Y-60164714D01*
X86923384Y-60164715D01*
X86899500Y-60253851D01*
X85150500Y-60253851D01*
X85150500Y-53334124D01*
X92046300Y-53334124D01*
X92046300Y-53665875D01*
X92083444Y-53995535D01*
X92083447Y-53995552D01*
X92153281Y-54301520D01*
X92157266Y-54318977D01*
X92266837Y-54632113D01*
X92410779Y-54931012D01*
X92491827Y-55059999D01*
X92587281Y-55211914D01*
X92587284Y-55211918D01*
X92721390Y-55380080D01*
X92794127Y-55471289D01*
X93028711Y-55705873D01*
X93288085Y-55912718D01*
X93568988Y-56089221D01*
X93867887Y-56233163D01*
X94181023Y-56342734D01*
X94504457Y-56416555D01*
X94834124Y-56453700D01*
X95165876Y-56453700D01*
X95495543Y-56416555D01*
X95818977Y-56342734D01*
X96132113Y-56233163D01*
X96431012Y-56089221D01*
X96711915Y-55912718D01*
X96971289Y-55705873D01*
X97205873Y-55471289D01*
X97412718Y-55211915D01*
X97562768Y-54973111D01*
X110317800Y-54973111D01*
X110317800Y-55146888D01*
X110351702Y-55317330D01*
X110418200Y-55477872D01*
X110418209Y-55477887D01*
X110420087Y-55480699D01*
X110420089Y-55480699D01*
X110800000Y-55100788D01*
X110800000Y-55112661D01*
X110827259Y-55214394D01*
X110879920Y-55305606D01*
X110954394Y-55380080D01*
X111045606Y-55432741D01*
X111147339Y-55460000D01*
X111159210Y-55460000D01*
X110779299Y-55839909D01*
X110782122Y-55841796D01*
X110782124Y-55841797D01*
X110942669Y-55908297D01*
X111113112Y-55942200D01*
X111286888Y-55942200D01*
X111457330Y-55908297D01*
X111617871Y-55841799D01*
X111617878Y-55841796D01*
X111620699Y-55839909D01*
X111240790Y-55460000D01*
X111252661Y-55460000D01*
X111354394Y-55432741D01*
X111445606Y-55380080D01*
X111520080Y-55305606D01*
X111572741Y-55214394D01*
X111600000Y-55112661D01*
X111600000Y-55100790D01*
X111979909Y-55480699D01*
X111981796Y-55477878D01*
X111981799Y-55477871D01*
X112048297Y-55317330D01*
X112082200Y-55146888D01*
X112082200Y-54973111D01*
X112048297Y-54802669D01*
X111981797Y-54642124D01*
X111981796Y-54642122D01*
X111979909Y-54639299D01*
X111600000Y-55019208D01*
X111600000Y-55007339D01*
X111572741Y-54905606D01*
X111520080Y-54814394D01*
X111445606Y-54739920D01*
X111354394Y-54687259D01*
X111252661Y-54660000D01*
X111240788Y-54660000D01*
X111620699Y-54280089D01*
X111620699Y-54280087D01*
X111617887Y-54278209D01*
X111617872Y-54278200D01*
X111457330Y-54211702D01*
X111286888Y-54177800D01*
X111113112Y-54177800D01*
X110942669Y-54211702D01*
X110782123Y-54278203D01*
X110782118Y-54278206D01*
X110779299Y-54280088D01*
X111159210Y-54660000D01*
X111147339Y-54660000D01*
X111045606Y-54687259D01*
X110954394Y-54739920D01*
X110879920Y-54814394D01*
X110827259Y-54905606D01*
X110800000Y-55007339D01*
X110800000Y-55019210D01*
X110420088Y-54639299D01*
X110418206Y-54642118D01*
X110418203Y-54642123D01*
X110351702Y-54802669D01*
X110317800Y-54973111D01*
X97562768Y-54973111D01*
X97589221Y-54931012D01*
X97733163Y-54632113D01*
X97842734Y-54318977D01*
X97916555Y-53995543D01*
X97953700Y-53665876D01*
X97953700Y-53334124D01*
X208046300Y-53334124D01*
X208046300Y-53665875D01*
X208083444Y-53995535D01*
X208083447Y-53995552D01*
X208153281Y-54301520D01*
X208157266Y-54318977D01*
X208266837Y-54632113D01*
X208410779Y-54931012D01*
X208491827Y-55059999D01*
X208587281Y-55211914D01*
X208587284Y-55211918D01*
X208721390Y-55380080D01*
X208794127Y-55471289D01*
X209028711Y-55705873D01*
X209288085Y-55912718D01*
X209568988Y-56089221D01*
X209867887Y-56233163D01*
X210181023Y-56342734D01*
X210504457Y-56416555D01*
X210834124Y-56453700D01*
X211165876Y-56453700D01*
X211495543Y-56416555D01*
X211818977Y-56342734D01*
X212132113Y-56233163D01*
X212431012Y-56089221D01*
X212711915Y-55912718D01*
X212971289Y-55705873D01*
X213205873Y-55471289D01*
X213412718Y-55211915D01*
X213589221Y-54931012D01*
X213733163Y-54632113D01*
X213842734Y-54318977D01*
X213916555Y-53995543D01*
X213953700Y-53665876D01*
X213953700Y-53334124D01*
X213916555Y-53004457D01*
X213842734Y-52681023D01*
X213733163Y-52367887D01*
X213589221Y-52068988D01*
X213412718Y-51788085D01*
X213205873Y-51528711D01*
X212971289Y-51294127D01*
X212711915Y-51087282D01*
X212711914Y-51087281D01*
X212573006Y-51000000D01*
X212431012Y-50910779D01*
X212132113Y-50766837D01*
X211818977Y-50657266D01*
X211818976Y-50657265D01*
X211818974Y-50657265D01*
X211495552Y-50583447D01*
X211495550Y-50583446D01*
X211495543Y-50583445D01*
X211495536Y-50583444D01*
X211495535Y-50583444D01*
X211165876Y-50546300D01*
X210834124Y-50546300D01*
X210504464Y-50583444D01*
X210504460Y-50583444D01*
X210504457Y-50583445D01*
X210504452Y-50583446D01*
X210504447Y-50583447D01*
X210181025Y-50657265D01*
X210024455Y-50712051D01*
X209867887Y-50766837D01*
X209867885Y-50766838D01*
X209568990Y-50910778D01*
X209288085Y-51087281D01*
X209288081Y-51087284D01*
X209028715Y-51294123D01*
X209028707Y-51294130D01*
X208794130Y-51528707D01*
X208794123Y-51528715D01*
X208587284Y-51788081D01*
X208587281Y-51788085D01*
X208410778Y-52068990D01*
X208266838Y-52367885D01*
X208157265Y-52681025D01*
X208083447Y-53004447D01*
X208083444Y-53004464D01*
X208046300Y-53334124D01*
X97953700Y-53334124D01*
X97916555Y-53004457D01*
X97842734Y-52681023D01*
X97733163Y-52367887D01*
X97589221Y-52068988D01*
X97412718Y-51788085D01*
X97205873Y-51528711D01*
X96971289Y-51294127D01*
X96711915Y-51087282D01*
X96711914Y-51087281D01*
X96573006Y-51000000D01*
X96431012Y-50910779D01*
X96132113Y-50766837D01*
X95818977Y-50657266D01*
X95818976Y-50657265D01*
X95818974Y-50657265D01*
X95495552Y-50583447D01*
X95495550Y-50583446D01*
X95495543Y-50583445D01*
X95495536Y-50583444D01*
X95495535Y-50583444D01*
X95165876Y-50546300D01*
X94834124Y-50546300D01*
X94504464Y-50583444D01*
X94504460Y-50583444D01*
X94504457Y-50583445D01*
X94504452Y-50583446D01*
X94504447Y-50583447D01*
X94181025Y-50657265D01*
X94024455Y-50712051D01*
X93867887Y-50766837D01*
X93867885Y-50766838D01*
X93568990Y-50910778D01*
X93288085Y-51087281D01*
X93288081Y-51087284D01*
X93028715Y-51294123D01*
X93028707Y-51294130D01*
X92794130Y-51528707D01*
X92794123Y-51528715D01*
X92587284Y-51788081D01*
X92587281Y-51788085D01*
X92410778Y-52068990D01*
X92266838Y-52367885D01*
X92157265Y-52681025D01*
X92083447Y-53004447D01*
X92083444Y-53004464D01*
X92046300Y-53334124D01*
X85150500Y-53334124D01*
X85150500Y-51003954D01*
X85150810Y-50996061D01*
X85166494Y-50796780D01*
X85168964Y-50781189D01*
X85214701Y-50590677D01*
X85219575Y-50575674D01*
X85294558Y-50394650D01*
X85301722Y-50380591D01*
X85404096Y-50213533D01*
X85413374Y-50200763D01*
X85540625Y-50051769D01*
X85551768Y-50040626D01*
X85700762Y-49913374D01*
X85713531Y-49904097D01*
X85880571Y-49801735D01*
X85880591Y-49801722D01*
X85894655Y-49794557D01*
X86075676Y-49719575D01*
X86090667Y-49714704D01*
X86281200Y-49668960D01*
X86296766Y-49666495D01*
X86496058Y-49650809D01*
X86503951Y-49650500D01*
X86534348Y-49650500D01*
X219453963Y-49650500D01*
X219453979Y-49650502D01*
G37*
%TD.AperFunction*%
M02*
