M48
; DRILL file {KiCad 9.0.6-9.0.6~ubuntu24.04.1} date 2025-11-27T18:37:58+0100
; FORMAT={-:-/ absolute / inch / decimal}
; #@! TF.CreationDate,2025-11-27T18:37:58+01:00
; #@! TF.GenerationSoftware,Kicad,Pcbnew,9.0.6-9.0.6~ubuntu24.04.1
; #@! TF.FileFunction,Plated,1,2,PTH
FMAT,2
INCH
; #@! TA.AperFunction,Plated,PTH,ViaDrill
T1C0.0118
; #@! TA.AperFunction,Plated,PTH,ComponentDrill
T2C0.0240
; #@! TA.AperFunction,Plated,PTH,ComponentDrill
T3C0.1260
%
G90
G05
T1
X3.5732Y-2.2772
X3.5732Y-2.9862
X3.5732Y-3.6925
X3.5732Y-4.4035
X3.8719Y-5.252
X3.8916Y-5.252
X3.9114Y-5.2516
X3.9133Y-2.2677
X3.933Y-2.3076
X3.9331Y-2.2875
X3.9331Y-2.2479
X3.9331Y-5.2075
X3.9331Y-5.1877
X3.9333Y-2.2677
X3.9335Y-5.2273
X3.9531Y-2.2677
X3.9728Y-2.2677
X4.4756Y-3.1697
X4.5063Y-2.8441
X4.5524Y-3.1465
X4.5606Y-3.5768
X4.576Y-3.7413
X4.5929Y-3.5772
X4.5961Y-3.4701
X4.6114Y-3.3996
X4.6165Y-3.5173
X4.6287Y-2.8437
X4.6376Y-3.512
X4.6559Y-3.5701
X4.6614Y-3.2833
X4.6717Y-3.3043
X4.6882Y-3.7205
X4.6909Y-3.3256
X4.7331Y-3.2496
X4.7594Y-3.2669
X4.7862Y-3.0004
X4.8807Y-2.8024
X4.8878Y-3.0079
X4.9992Y-3.3758
X5.0642Y-3.353
X5.0894Y-2.8976
X5.126Y-3.1272
X5.1909Y-3.4616
X5.2106Y-3.4778
X5.2303Y-3.4963
X5.2472Y-2.8016
X5.2492Y-3.5116
X5.2697Y-3.5301
X5.2787Y-3.8177
X5.2894Y-3.5451
X5.3012Y-3.8177
X5.3016Y-3.7957
X5.3087Y-3.5301
X5.326Y-3.7976
X5.3287Y-3.5455
X5.3291Y-3.7728
X5.3508Y-3.5486
X5.3551Y-3.7756
X5.3681Y-3.5301
X5.377Y-3.7711
X5.3898Y-3.5404
X5.3986Y-3.7656
X5.4079Y-3.5301
X5.4327Y-3.5388
X5.4358Y-3.89
X5.4472Y-3.523
X5.4547Y-3.9057
X5.4665Y-3.5112
X5.4752Y-3.89
X5.4862Y-3.4994
X5.4965Y-3.9057
X5.5142Y-3.89
X5.5311Y-3.9057
X5.5488Y-3.89
X5.5492Y-3.4606
X5.5496Y-3.3083
X5.5669Y-3.9057
X5.5717Y-3.2106
X5.6398Y-3.2886
X5.6398Y-3.3785
X5.6476Y-2.9909
X5.665Y-3.3776
X5.6732Y-3.0063
X5.6976Y-3.3071
X5.6976Y-3.3772
X5.6988Y-2.9913
X5.7209Y-3.3768
X5.7232Y-3.3073
X5.7382Y-3.3913
X5.7402Y-4.228
X5.75Y-3.3075
X5.7531Y-3.4173
X5.7752Y-3.2886
X5.849Y-3.0817
X5.9096Y-3.1348
X5.9823Y-5.1453
X6.2717Y-4.3244
X6.3276Y-3.7429
X6.3276Y-3.8012
X6.335Y-4.024
X6.35Y-4.2528
X6.35Y-4.276
X6.35Y-4.3224
X6.3575Y-4.4008
X6.374Y-4.0
X6.4228Y-4.5839
X6.4874Y-4.5791
X6.5256Y-3.7429
X6.6035Y-4.5799
X6.6043Y-4.5177
X6.6862Y-4.1307
X6.6862Y-4.1593
X6.6874Y-4.1014
X6.7138Y-4.1301
X6.7138Y-4.1587
X6.715Y-4.1008
X6.7413Y-4.1299
X6.7413Y-4.1585
X6.7425Y-3.6787
X6.7425Y-4.1006
X6.7425Y-4.5189
X6.752Y-4.5799
X6.7689Y-4.1303
X6.7689Y-4.1589
X6.7701Y-4.101
X6.774Y-3.7602
X6.7965Y-4.1305
X6.7965Y-4.1591
X6.7976Y-4.1012
X6.8366Y-3.678
X6.8374Y-3.7402
X6.8402Y-4.5803
X6.8417Y-4.5193
X6.972Y-4.5807
X6.9957Y-4.4972
X7.0433Y-4.5685
X7.0437Y-4.5484
X7.1102Y-4.185
X7.1319Y-4.0276
X7.1323Y-4.0079
X7.1445Y-4.7213
X7.1445Y-4.7846
X7.1445Y-4.9303
X7.1453Y-5.1437
X7.1626Y-3.9272
X7.1626Y-4.4929
X7.3571Y-4.9039
X7.435Y-4.8681
X7.4878Y-4.939
X7.4941Y-4.8681
X7.5123Y-4.9292
X7.5142Y-4.9665
X7.535Y-4.9504
X7.5528Y-4.8681
X7.6122Y-4.8681
X7.6709Y-4.8681
X7.7307Y-4.8681
X7.8047Y-4.8917
X7.8047Y-4.9193
X7.8047Y-5.0827
X7.8433Y-4.8681
X8.6231Y-2.2677
X8.6231Y-5.252
X8.6429Y-2.2677
X8.6429Y-5.252
X8.6627Y-2.2677
X8.6627Y-5.252
T2
X5.1256Y-3.226
X7.9996Y-4.8323
X8.0028Y-4.9512
T3
X3.7402Y-2.1063
X3.7402Y-5.4134
X8.3071Y-2.1063
X8.3071Y-5.4134
M30
