M48
; DRILL file {KiCad 9.0.5-9.0.5~ubuntu24.04.1} date 2025-10-11T09:36:10+0200
; FORMAT={-:-/ absolute / inch / decimal}
; #@! TF.CreationDate,2025-10-11T09:36:10+02:00
; #@! TF.GenerationSoftware,Kicad,Pcbnew,9.0.5-9.0.5~ubuntu24.04.1
; #@! TF.FileFunction,Plated,1,2,PTH
FMAT,2
INCH
; #@! TA.AperFunction,Plated,PTH,ViaDrill
T1C0.0118
; #@! TA.AperFunction,Plated,PTH,ComponentDrill
T2C0.0240
; #@! TA.AperFunction,Plated,PTH,ComponentDrill
T3C0.1260
%
G90
G05
T1
X3.5732Y-2.2772
X3.5732Y-2.9862
X3.5732Y-3.6925
X3.5732Y-4.4035
X4.4756Y-3.1697
X4.5063Y-2.8949
X4.5445Y-3.5457
X4.5591Y-3.1941
X4.5724Y-3.5827
X4.5874Y-3.4886
X4.6021Y-3.5829
X4.6024Y-3.4055
X4.6287Y-2.8437
X4.6319Y-3.2409
X4.6555Y-3.2248
X4.6854Y-3.2689
X4.7323Y-3.4961
X4.7587Y-3.5197
X4.7598Y-3.4764
X4.8039Y-2.9492
X5.0035Y-2.8008
X5.026Y-3.2213
X5.0276Y-2.9961
X5.0642Y-2.8539
X5.087Y-3.2217
X5.0996Y-3.3016
X5.1122Y-3.4673
X5.1157Y-3.2193
X5.1319Y-3.4598
X5.1425Y-3.2181
X5.1516Y-3.4669
X5.1898Y-3.4673
X5.1984Y-3.298
X5.2106Y-3.3909
X5.25Y-3.4827
X5.2516Y-3.548
X5.2697Y-3.4945
X5.2697Y-3.5776
X5.2894Y-3.4831
X5.2894Y-3.6118
X5.3091Y-3.4941
X5.3091Y-3.6469
X5.3283Y-3.4827
X5.3283Y-3.6795
X5.3484Y-3.4945
X5.3484Y-3.7189
X5.3666Y-3.7562
X5.3677Y-3.4823
X5.4061Y-3.483
X5.4071Y-3.5472
X5.4268Y-3.4941
X5.4268Y-3.5776
X5.4469Y-3.4831
X5.4469Y-3.6114
X5.4661Y-3.4941
X5.4661Y-3.6465
X5.4862Y-3.4827
X5.4866Y-3.678
X5.5059Y-3.4933
X5.5059Y-3.7134
X5.5256Y-3.4819
X5.5256Y-3.7378
X5.5646Y-3.4827
X5.5646Y-3.5453
X5.585Y-3.4937
X5.585Y-3.5764
X5.6043Y-3.4827
X5.6047Y-3.6106
X5.624Y-3.4937
X5.624Y-3.6303
X5.6437Y-3.6445
X5.6441Y-3.4819
X5.6634Y-3.4929
X5.6638Y-3.6598
X5.6827Y-3.4815
X5.6831Y-3.6752
X5.6984Y-3.2776
X5.7Y-3.3378
X5.7224Y-3.4736
X5.9016Y-3.3346
X5.9275Y-3.4809
X5.9378Y-3.4995
X5.9672Y-3.466
X5.9945Y-3.4649
X6.0551Y-3.0827
X6.2366Y-3.4063
X6.2717Y-4.3244
X6.335Y-4.024
X6.35Y-4.2528
X6.35Y-4.276
X6.35Y-4.3224
X6.3575Y-4.4008
X6.374Y-4.0
X6.4228Y-4.5839
X6.4874Y-4.5791
X6.5236Y-3.752
X6.5453Y-3.6787
X6.6035Y-4.5799
X6.6043Y-4.5177
X6.6862Y-4.1307
X6.6862Y-4.1593
X6.6874Y-4.1014
X6.7138Y-4.1301
X6.7138Y-4.1587
X6.715Y-4.1008
X6.7413Y-4.1299
X6.7413Y-4.1585
X6.7425Y-3.6787
X6.7425Y-4.1006
X6.7425Y-4.5189
X6.752Y-4.5799
X6.7677Y-3.7598
X6.7689Y-4.1303
X6.7689Y-4.1589
X6.7701Y-4.101
X6.7965Y-4.1305
X6.7965Y-4.1591
X6.7976Y-4.1012
X6.8366Y-3.678
X6.8374Y-3.7402
X6.8402Y-4.5803
X6.8417Y-4.5193
X6.972Y-4.5807
X6.9957Y-4.4972
X7.0433Y-4.5685
X7.0437Y-4.5484
X7.1102Y-4.185
X7.1319Y-4.0276
X7.1323Y-4.0079
X7.1445Y-4.7213
X7.1445Y-4.7846
X7.1445Y-4.9303
X7.1626Y-3.9272
X7.1626Y-4.4929
X7.3571Y-4.9039
X7.435Y-4.8681
X7.4878Y-4.939
X7.4941Y-4.8681
X7.5123Y-4.9292
X7.5142Y-4.9665
X7.535Y-4.9504
X7.5528Y-4.8681
X7.6122Y-4.8681
X7.6709Y-4.8681
X7.7307Y-4.8681
X7.8047Y-4.8917
X7.8047Y-4.9193
T2
X5.7874Y-3.1496
X7.9996Y-4.8323
X8.0028Y-4.9512
T3
X3.8583Y-2.1063
X3.8583Y-5.4134
X8.189Y-2.1063
X8.189Y-5.4134
M30
