%TF.GenerationSoftware,KiCad,Pcbnew,9.0.7-9.0.7~ubuntu24.04.1*%
%TF.CreationDate,2026-01-31T18:13:09+01:00*%
%TF.ProjectId,BB3plus DVID TFT display,42423370-6c75-4732-9044-564944205446,r1B3*%
%TF.SameCoordinates,Original*%
%TF.FileFunction,Profile,NP*%
%FSLAX46Y46*%
G04 Gerber Fmt 4.6, Leading zero omitted, Abs format (unit mm)*
G04 Created by KiCad (PCBNEW 9.0.7-9.0.7~ubuntu24.04.1) date 2026-01-31 18:13:09*
%MOMM*%
%LPD*%
G01*
G04 APERTURE LIST*
%TA.AperFunction,Profile*%
%ADD10C,0.100000*%
%TD*%
%TA.AperFunction,Profile*%
%ADD11C,0.050000*%
%TD*%
G04 APERTURE END LIST*
D10*
X221000000Y-140000000D02*
X221000000Y-51000000D01*
X85000000Y-51000000D02*
G75*
G02*
X86499997Y-49500000I1500000J0D01*
G01*
X206100000Y-133400000D02*
X206100000Y-140000000D01*
X85000000Y-140000000D02*
X85000000Y-51000000D01*
X86500000Y-49500000D02*
X219500000Y-49500000D01*
X221000000Y-140000000D02*
G75*
G02*
X219500003Y-141500000I-1500000J0D01*
G01*
X207600000Y-141500000D02*
X219500000Y-141500000D01*
X99900000Y-140000000D02*
X99900000Y-133400000D01*
X207600000Y-141500000D02*
G75*
G02*
X206100000Y-140000000I0J1500000D01*
G01*
X86500000Y-141500000D02*
G75*
G02*
X85000000Y-140000003I0J1500000D01*
G01*
X98400000Y-141500000D02*
X86500000Y-141500000D01*
X99900000Y-133400000D02*
X206100000Y-133400000D01*
X99900000Y-140000000D02*
G75*
G02*
X98400000Y-141500000I-1500000J0D01*
G01*
X219500041Y-49500003D02*
G75*
G02*
X221000097Y-51000000I-41J-1500097D01*
G01*
D11*
X87050001Y-96300000D02*
X87050000Y-108300000D01*
X90150000Y-96100000D02*
X87250000Y-96100000D01*
X90150000Y-96100000D02*
X90150000Y-95650000D01*
X90150000Y-108500000D02*
X87250000Y-108500000D01*
X90150000Y-108500000D02*
X90150000Y-108950000D01*
X90350000Y-95450000D02*
X91150000Y-95450000D01*
X90350000Y-109150000D02*
X91150000Y-109150000D01*
X91350000Y-95650000D02*
X91350000Y-96100000D01*
X91350000Y-108950000D02*
X91350000Y-108500000D01*
X95150000Y-96100000D02*
X91350000Y-96100000D01*
X95150000Y-96100000D02*
X95150000Y-95650000D01*
X95150000Y-108500000D02*
X91350000Y-108500000D01*
X95150000Y-108500000D02*
X95150000Y-108950000D01*
X95350000Y-95450000D02*
X96150000Y-95450000D01*
X95350000Y-109150000D02*
X96150000Y-109150000D01*
X96350000Y-95650000D02*
X96350000Y-96100000D01*
X96350000Y-96100000D02*
X99250000Y-96100000D01*
X96350000Y-108500000D02*
X99250000Y-108500000D01*
X96350000Y-108950000D02*
X96350000Y-108500000D01*
X99450000Y-108300000D02*
X99450000Y-96300000D01*
X87050000Y-96300000D02*
G75*
G02*
X87250000Y-96100000I200001J-1D01*
G01*
X87250000Y-108500000D02*
G75*
G02*
X87050000Y-108300000I0J200000D01*
G01*
X90150000Y-95650000D02*
G75*
G02*
X90350000Y-95450000I200001J-1D01*
G01*
X90350000Y-109150000D02*
G75*
G02*
X90150000Y-108950000I0J200000D01*
G01*
X91150000Y-95450000D02*
G75*
G02*
X91350000Y-95650000I-1J-200001D01*
G01*
X91350000Y-108950000D02*
G75*
G02*
X91150000Y-109150000I-200000J0D01*
G01*
X95150000Y-95650000D02*
G75*
G02*
X95350000Y-95450000I200001J-1D01*
G01*
X95350000Y-109150000D02*
G75*
G02*
X95150000Y-108950000I0J200000D01*
G01*
X96150000Y-95450000D02*
G75*
G02*
X96350000Y-95650000I-1J-200001D01*
G01*
X96350000Y-108950000D02*
G75*
G02*
X96150000Y-109150000I-200000J0D01*
G01*
X99250000Y-96100000D02*
G75*
G02*
X99450000Y-96300000I-1J-200001D01*
G01*
X99450000Y-108300000D02*
G75*
G02*
X99250000Y-108500000I-200000J0D01*
G01*
X87050001Y-60300000D02*
X87050000Y-72300000D01*
X90150000Y-60100000D02*
X87250000Y-60100000D01*
X90150000Y-60100000D02*
X90150000Y-59650000D01*
X90150000Y-72500000D02*
X87250000Y-72500000D01*
X90150000Y-72500000D02*
X90150000Y-72950000D01*
X90350000Y-59450000D02*
X91150000Y-59450000D01*
X90350000Y-73150000D02*
X91150000Y-73150000D01*
X91350000Y-59650000D02*
X91350000Y-60100000D01*
X91350000Y-72950000D02*
X91350000Y-72500000D01*
X95150000Y-60100000D02*
X91350000Y-60100000D01*
X95150000Y-60100000D02*
X95150000Y-59650000D01*
X95150000Y-72500000D02*
X91350000Y-72500000D01*
X95150000Y-72500000D02*
X95150000Y-72950000D01*
X95350000Y-59450000D02*
X96150000Y-59450000D01*
X95350000Y-73150000D02*
X96150000Y-73150000D01*
X96350000Y-59650000D02*
X96350000Y-60100000D01*
X96350000Y-60100000D02*
X99250000Y-60100000D01*
X96350000Y-72500000D02*
X99250000Y-72500000D01*
X96350000Y-72950000D02*
X96350000Y-72500000D01*
X99450000Y-72300000D02*
X99450000Y-60300000D01*
X87050000Y-60300000D02*
G75*
G02*
X87250000Y-60100000I200001J-1D01*
G01*
X87250000Y-72500000D02*
G75*
G02*
X87050000Y-72300000I0J200000D01*
G01*
X90150000Y-59650000D02*
G75*
G02*
X90350000Y-59450000I200001J-1D01*
G01*
X90350000Y-73150000D02*
G75*
G02*
X90150000Y-72950000I0J200000D01*
G01*
X91150000Y-59450000D02*
G75*
G02*
X91350000Y-59650000I-1J-200001D01*
G01*
X91350000Y-72950000D02*
G75*
G02*
X91150000Y-73150000I-200000J0D01*
G01*
X95150000Y-59650000D02*
G75*
G02*
X95350000Y-59450000I200001J-1D01*
G01*
X95350000Y-73150000D02*
G75*
G02*
X95150000Y-72950000I0J200000D01*
G01*
X96150000Y-59450000D02*
G75*
G02*
X96350000Y-59650000I-1J-200001D01*
G01*
X96350000Y-72950000D02*
G75*
G02*
X96150000Y-73150000I-200000J0D01*
G01*
X99250000Y-60100000D02*
G75*
G02*
X99450000Y-60300000I-1J-200001D01*
G01*
X99450000Y-72300000D02*
G75*
G02*
X99250000Y-72500000I-200000J0D01*
G01*
X87050001Y-114300000D02*
X87050000Y-126300000D01*
X90150000Y-114100000D02*
X87250000Y-114100000D01*
X90150000Y-114100000D02*
X90150000Y-113650000D01*
X90150000Y-126500000D02*
X87250000Y-126500000D01*
X90150000Y-126500000D02*
X90150000Y-126950000D01*
X90350000Y-113450000D02*
X91150000Y-113450000D01*
X90350000Y-127150000D02*
X91150000Y-127150000D01*
X91350000Y-113650000D02*
X91350000Y-114100000D01*
X91350000Y-126950000D02*
X91350000Y-126500000D01*
X95150000Y-114100000D02*
X91350000Y-114100000D01*
X95150000Y-114100000D02*
X95150000Y-113650000D01*
X95150000Y-126500000D02*
X91350000Y-126500000D01*
X95150000Y-126500000D02*
X95150000Y-126950000D01*
X95350000Y-113450000D02*
X96150000Y-113450000D01*
X95350000Y-127150000D02*
X96150000Y-127150000D01*
X96350000Y-113650000D02*
X96350000Y-114100000D01*
X96350000Y-114100000D02*
X99250000Y-114100000D01*
X96350000Y-126500000D02*
X99250000Y-126500000D01*
X96350000Y-126950000D02*
X96350000Y-126500000D01*
X99450000Y-126300000D02*
X99450000Y-114300000D01*
X87050000Y-114300000D02*
G75*
G02*
X87250000Y-114100000I200001J-1D01*
G01*
X87250000Y-126500000D02*
G75*
G02*
X87050000Y-126300000I0J200000D01*
G01*
X90150000Y-113650000D02*
G75*
G02*
X90350000Y-113450000I200001J-1D01*
G01*
X90350000Y-127150000D02*
G75*
G02*
X90150000Y-126950000I0J200000D01*
G01*
X91150000Y-113450000D02*
G75*
G02*
X91350000Y-113650000I-1J-200001D01*
G01*
X91350000Y-126950000D02*
G75*
G02*
X91150000Y-127150000I-200000J0D01*
G01*
X95150000Y-113650000D02*
G75*
G02*
X95350000Y-113450000I200001J-1D01*
G01*
X95350000Y-127150000D02*
G75*
G02*
X95150000Y-126950000I0J200000D01*
G01*
X96150000Y-113450000D02*
G75*
G02*
X96350000Y-113650000I-1J-200001D01*
G01*
X96350000Y-126950000D02*
G75*
G02*
X96150000Y-127150000I-200000J0D01*
G01*
X99250000Y-114100000D02*
G75*
G02*
X99450000Y-114300000I-1J-200001D01*
G01*
X99450000Y-126300000D02*
G75*
G02*
X99250000Y-126500000I-200000J0D01*
G01*
X87050001Y-78300000D02*
X87050000Y-90300000D01*
X90150000Y-78100000D02*
X87250000Y-78100000D01*
X90150000Y-78100000D02*
X90150000Y-77650000D01*
X90150000Y-90500000D02*
X87250000Y-90500000D01*
X90150000Y-90500000D02*
X90150000Y-90950000D01*
X90350000Y-77450000D02*
X91150000Y-77450000D01*
X90350000Y-91150000D02*
X91150000Y-91150000D01*
X91350000Y-77650000D02*
X91350000Y-78100000D01*
X91350000Y-90950000D02*
X91350000Y-90500000D01*
X95150000Y-78100000D02*
X91350000Y-78100000D01*
X95150000Y-78100000D02*
X95150000Y-77650000D01*
X95150000Y-90500000D02*
X91350000Y-90500000D01*
X95150000Y-90500000D02*
X95150000Y-90950000D01*
X95350000Y-77450000D02*
X96150000Y-77450000D01*
X95350000Y-91150000D02*
X96150000Y-91150000D01*
X96350000Y-77650000D02*
X96350000Y-78100000D01*
X96350000Y-78100000D02*
X99250000Y-78100000D01*
X96350000Y-90500000D02*
X99250000Y-90500000D01*
X96350000Y-90950000D02*
X96350000Y-90500000D01*
X99450000Y-90300000D02*
X99450000Y-78300000D01*
X87050000Y-78300000D02*
G75*
G02*
X87250000Y-78100000I200001J-1D01*
G01*
X87250000Y-90500000D02*
G75*
G02*
X87050000Y-90300000I0J200000D01*
G01*
X90150000Y-77650000D02*
G75*
G02*
X90350000Y-77450000I200001J-1D01*
G01*
X90350000Y-91150000D02*
G75*
G02*
X90150000Y-90950000I0J200000D01*
G01*
X91150000Y-77450000D02*
G75*
G02*
X91350000Y-77650000I-1J-200001D01*
G01*
X91350000Y-90950000D02*
G75*
G02*
X91150000Y-91150000I-200000J0D01*
G01*
X95150000Y-77650000D02*
G75*
G02*
X95350000Y-77450000I200001J-1D01*
G01*
X95350000Y-91150000D02*
G75*
G02*
X95150000Y-90950000I0J200000D01*
G01*
X96150000Y-77450000D02*
G75*
G02*
X96350000Y-77650000I-1J-200001D01*
G01*
X96350000Y-90950000D02*
G75*
G02*
X96150000Y-91150000I-200000J0D01*
G01*
X99250000Y-78100000D02*
G75*
G02*
X99450000Y-78300000I-1J-200001D01*
G01*
X99450000Y-90300000D02*
G75*
G02*
X99250000Y-90500000I-200000J0D01*
G01*
M02*
