%TF.GenerationSoftware,KiCad,Pcbnew,9.0.5-9.0.5~ubuntu24.04.1*%
%TF.CreationDate,2025-10-11T09:36:08+02:00*%
%TF.ProjectId,BB3plus DVID TFT display,42423370-6c75-4732-9044-564944205446,r1B1*%
%TF.SameCoordinates,Original*%
%TF.FileFunction,Legend,Top*%
%TF.FilePolarity,Positive*%
%FSLAX46Y46*%
G04 Gerber Fmt 4.6, Leading zero omitted, Abs format (unit mm)*
G04 Created by KiCad (PCBNEW 9.0.5-9.0.5~ubuntu24.04.1) date 2025-10-11 09:36:08*
%MOMM*%
%LPD*%
G01*
G04 APERTURE LIST*
%ADD10C,0.100000*%
%ADD11C,5.500000*%
%ADD12C,1.270000*%
G04 APERTURE END LIST*
D10*
X105500000Y-59600000D02*
X215100000Y-59600000D01*
X215100000Y-127000000D01*
X105500000Y-127000000D01*
X105500000Y-59600000D01*
X99900000Y-57600000D02*
X101000000Y-57600000D01*
X101400000Y-57600000D02*
X102500000Y-57600000D01*
X102900000Y-57600000D02*
X104000000Y-57600000D01*
X104400000Y-57600000D02*
X105500000Y-57600000D01*
X105900000Y-57600000D02*
X107000000Y-57600000D01*
X107400000Y-57600000D02*
X108500000Y-57600000D01*
X108900000Y-57600000D02*
X110000000Y-57600000D01*
X110400000Y-57600000D02*
X111500000Y-57600000D01*
X111900000Y-57600000D02*
X113000000Y-57600000D01*
X113400000Y-57600000D02*
X114500000Y-57600000D01*
X114900000Y-57600000D02*
X116000000Y-57600000D01*
X116400000Y-57600000D02*
X117500000Y-57600000D01*
X117900000Y-57600000D02*
X119000000Y-57600000D01*
X119400000Y-57600000D02*
X120500000Y-57600000D01*
X120900000Y-57600000D02*
X122000000Y-57600000D01*
X122400000Y-57600000D02*
X123500000Y-57600000D01*
X123900000Y-57600000D02*
X125000000Y-57600000D01*
X125400000Y-57600000D02*
X126500000Y-57600000D01*
X126900000Y-57600000D02*
X128000000Y-57600000D01*
X128400000Y-57600000D02*
X129500000Y-57600000D01*
X129900000Y-57600000D02*
X131000000Y-57600000D01*
X131400000Y-57600000D02*
X132500000Y-57600000D01*
X132900000Y-57600000D02*
X134000000Y-57600000D01*
X134400000Y-57600000D02*
X135500000Y-57600000D01*
X135900000Y-57600000D02*
X137000000Y-57600000D01*
X137400000Y-57600000D02*
X138500000Y-57600000D01*
X138900000Y-57600000D02*
X140000000Y-57600000D01*
X140400000Y-57600000D02*
X141500000Y-57600000D01*
X141900000Y-57600000D02*
X143000000Y-57600000D01*
X143400000Y-57600000D02*
X144500000Y-57600000D01*
X144900000Y-57600000D02*
X146000000Y-57600000D01*
X146400000Y-57600000D02*
X147500000Y-57600000D01*
X147900000Y-57600000D02*
X149000000Y-57600000D01*
X149400000Y-57600000D02*
X150500000Y-57600000D01*
X150900000Y-57600000D02*
X152000000Y-57600000D01*
X152400000Y-57600000D02*
X153500000Y-57600000D01*
X153900000Y-57600000D02*
X155000000Y-57600000D01*
X155400000Y-57600000D02*
X156500000Y-57600000D01*
X156900000Y-57600000D02*
X158000000Y-57600000D01*
X158400000Y-57600000D02*
X159500000Y-57600000D01*
X159900000Y-57600000D02*
X161000000Y-57600000D01*
X161400000Y-57600000D02*
X162500000Y-57600000D01*
X162900000Y-57600000D02*
X164000000Y-57600000D01*
X164400000Y-57600000D02*
X165500000Y-57600000D01*
X165900000Y-57600000D02*
X167000000Y-57600000D01*
X167400000Y-57600000D02*
X168500000Y-57600000D01*
X168900000Y-57600000D02*
X170000000Y-57600000D01*
X170400000Y-57600000D02*
X171500000Y-57600000D01*
X171900000Y-57600000D02*
X173000000Y-57600000D01*
X173400000Y-57600000D02*
X174500000Y-57600000D01*
X174900000Y-57600000D02*
X176000000Y-57600000D01*
X176400000Y-57600000D02*
X177500000Y-57600000D01*
X177900000Y-57600000D02*
X179000000Y-57600000D01*
X179400000Y-57600000D02*
X180500000Y-57600000D01*
X180900000Y-57600000D02*
X182000000Y-57600000D01*
X182400000Y-57600000D02*
X183500000Y-57600000D01*
X183900000Y-57600000D02*
X185000000Y-57600000D01*
X185400000Y-57600000D02*
X186500000Y-57600000D01*
X186900000Y-57600000D02*
X188000000Y-57600000D01*
X188400000Y-57600000D02*
X189500000Y-57600000D01*
X189900000Y-57600000D02*
X191000000Y-57600000D01*
X191400000Y-57600000D02*
X192500000Y-57600000D01*
X192900000Y-57600000D02*
X194000000Y-57600000D01*
X194400000Y-57600000D02*
X195500000Y-57600000D01*
X195900000Y-57600000D02*
X197000000Y-57600000D01*
X197400000Y-57600000D02*
X198500000Y-57600000D01*
X198900000Y-57600000D02*
X200000000Y-57600000D01*
X200400000Y-57600000D02*
X201500000Y-57600000D01*
X201900000Y-57600000D02*
X203000000Y-57600000D01*
X203400000Y-57600000D02*
X204500000Y-57600000D01*
X204900000Y-57600000D02*
X206000000Y-57600000D01*
X206400000Y-57600000D02*
X207500000Y-57600000D01*
X207900000Y-57600000D02*
X209000000Y-57600000D01*
X209400000Y-57600000D02*
X210500000Y-57600000D01*
X210900000Y-57600000D02*
X212000000Y-57600000D01*
X212400000Y-57600000D02*
X213500000Y-57600000D01*
X213900000Y-57600000D02*
X215000000Y-57600000D01*
X215400000Y-57600000D02*
X216500000Y-57600000D01*
X216900000Y-57600000D02*
X218000000Y-57600000D01*
X218400000Y-57600000D02*
X219500000Y-57600000D01*
X219900000Y-57600000D02*
X220600000Y-57600000D01*
X220600000Y-57600000D02*
X220600000Y-58700000D01*
X220600000Y-59100000D02*
X220600000Y-60200000D01*
X220600000Y-60600000D02*
X220600000Y-61700000D01*
X220600000Y-62100000D02*
X220600000Y-63200000D01*
X220600000Y-63600000D02*
X220600000Y-64700000D01*
X220600000Y-65100000D02*
X220600000Y-66200000D01*
X220600000Y-66600000D02*
X220600000Y-67700000D01*
X220600000Y-68100000D02*
X220600000Y-69200000D01*
X220600000Y-69600000D02*
X220600000Y-70700000D01*
X220600000Y-71100000D02*
X220600000Y-72200000D01*
X220600000Y-72600000D02*
X220600000Y-73700000D01*
X220600000Y-74100000D02*
X220600000Y-75200000D01*
X220600000Y-75600000D02*
X220600000Y-76700000D01*
X220600000Y-77100000D02*
X220600000Y-78200000D01*
X220600000Y-78600000D02*
X220600000Y-79700000D01*
X220600000Y-80100000D02*
X220600000Y-81200000D01*
X220600000Y-81600000D02*
X220600000Y-82700000D01*
X220600000Y-83100000D02*
X220600000Y-84200000D01*
X220600000Y-84600000D02*
X220600000Y-85700000D01*
X220600000Y-86100000D02*
X220600000Y-87200000D01*
X220600000Y-87600000D02*
X220600000Y-88700000D01*
X220600000Y-89100000D02*
X220600000Y-90200000D01*
X220600000Y-90600000D02*
X220600000Y-91700000D01*
X220600000Y-92100000D02*
X220600000Y-93200000D01*
X220600000Y-93600000D02*
X220600000Y-94700000D01*
X220600000Y-95100000D02*
X220600000Y-96200000D01*
X220600000Y-96600000D02*
X220600000Y-97700000D01*
X220600000Y-98100000D02*
X220600000Y-99200000D01*
X220600000Y-99600000D02*
X220600000Y-100700000D01*
X220600000Y-101100000D02*
X220600000Y-102200000D01*
X220600000Y-102600000D02*
X220600000Y-103700000D01*
X220600000Y-104100000D02*
X220600000Y-105200000D01*
X220600000Y-105600000D02*
X220600000Y-106700000D01*
X220600000Y-107100000D02*
X220600000Y-108200000D01*
X220600000Y-108600000D02*
X220600000Y-109700000D01*
X220600000Y-110100000D02*
X220600000Y-111200000D01*
X220600000Y-111600000D02*
X220600000Y-112700000D01*
X220600000Y-113100000D02*
X220600000Y-114200000D01*
X220600000Y-114600000D02*
X220600000Y-115700000D01*
X220600000Y-116100000D02*
X220600000Y-117200000D01*
X220600000Y-117600000D02*
X220600000Y-118700000D01*
X220600000Y-119100000D02*
X220600000Y-120200000D01*
X220600000Y-120600000D02*
X220600000Y-121700000D01*
X220600000Y-122100000D02*
X220600000Y-123200000D01*
X220600000Y-123600000D02*
X220600000Y-124700000D01*
X220600000Y-125100000D02*
X220600000Y-126200000D01*
X220600000Y-126600000D02*
X220600000Y-127700000D01*
X220600000Y-128100000D02*
X220600000Y-129200000D01*
X220600000Y-129600000D02*
X220600000Y-130700000D01*
X220600000Y-131100000D02*
X220600000Y-132200000D01*
X220600000Y-132600000D02*
X220600000Y-133400000D01*
X220600000Y-133400000D02*
X219500000Y-133400000D01*
X219100000Y-133400000D02*
X218000000Y-133400000D01*
X217600000Y-133400000D02*
X216500000Y-133400000D01*
X216100000Y-133400000D02*
X215000000Y-133400000D01*
X214600000Y-133400000D02*
X213500000Y-133400000D01*
X213100000Y-133400000D02*
X212000000Y-133400000D01*
X211600000Y-133400000D02*
X210500000Y-133400000D01*
X210100000Y-133400000D02*
X209000000Y-133400000D01*
X208600000Y-133400000D02*
X207500000Y-133400000D01*
X207100000Y-133400000D02*
X206000000Y-133400000D01*
X205600000Y-133400000D02*
X204500000Y-133400000D01*
X204100000Y-133400000D02*
X203000000Y-133400000D01*
X202600000Y-133400000D02*
X201500000Y-133400000D01*
X201100000Y-133400000D02*
X200000000Y-133400000D01*
X199600000Y-133400000D02*
X198500000Y-133400000D01*
X198100000Y-133400000D02*
X197000000Y-133400000D01*
X196600000Y-133400000D02*
X195500000Y-133400000D01*
X195100000Y-133400000D02*
X194000000Y-133400000D01*
X193600000Y-133400000D02*
X192500000Y-133400000D01*
X192100000Y-133400000D02*
X191000000Y-133400000D01*
X190600000Y-133400000D02*
X189500000Y-133400000D01*
X189100000Y-133400000D02*
X188000000Y-133400000D01*
X187600000Y-133400000D02*
X186500000Y-133400000D01*
X186100000Y-133400000D02*
X185000000Y-133400000D01*
X184600000Y-133400000D02*
X183500000Y-133400000D01*
X183100000Y-133400000D02*
X182000000Y-133400000D01*
X181600000Y-133400000D02*
X180500000Y-133400000D01*
X180100000Y-133400000D02*
X179000000Y-133400000D01*
X178600000Y-133400000D02*
X177500000Y-133400000D01*
X177100000Y-133400000D02*
X176000000Y-133400000D01*
X175600000Y-133400000D02*
X174500000Y-133400000D01*
X174100000Y-133400000D02*
X173000000Y-133400000D01*
X172600000Y-133400000D02*
X171500000Y-133400000D01*
X171100000Y-133400000D02*
X170000000Y-133400000D01*
X169600000Y-133400000D02*
X168500000Y-133400000D01*
X168100000Y-133400000D02*
X167000000Y-133400000D01*
X166600000Y-133400000D02*
X165500000Y-133400000D01*
X165100000Y-133400000D02*
X164000000Y-133400000D01*
X163600000Y-133400000D02*
X162500000Y-133400000D01*
X162100000Y-133400000D02*
X161000000Y-133400000D01*
X160600000Y-133400000D02*
X159500000Y-133400000D01*
X159100000Y-133400000D02*
X158000000Y-133400000D01*
X157600000Y-133400000D02*
X156500000Y-133400000D01*
X156100000Y-133400000D02*
X155000000Y-133400000D01*
X154600000Y-133400000D02*
X153500000Y-133400000D01*
X153100000Y-133400000D02*
X152000000Y-133400000D01*
X151600000Y-133400000D02*
X150500000Y-133400000D01*
X150100000Y-133400000D02*
X149000000Y-133400000D01*
X148600000Y-133400000D02*
X147500000Y-133400000D01*
X147100000Y-133400000D02*
X146000000Y-133400000D01*
X145600000Y-133400000D02*
X144500000Y-133400000D01*
X144100000Y-133400000D02*
X143000000Y-133400000D01*
X142600000Y-133400000D02*
X141500000Y-133400000D01*
X141100000Y-133400000D02*
X140000000Y-133400000D01*
X139600000Y-133400000D02*
X138500000Y-133400000D01*
X138100000Y-133400000D02*
X137000000Y-133400000D01*
X136600000Y-133400000D02*
X135500000Y-133400000D01*
X135100000Y-133400000D02*
X134000000Y-133400000D01*
X133600000Y-133400000D02*
X132500000Y-133400000D01*
X132100000Y-133400000D02*
X131000000Y-133400000D01*
X130600000Y-133400000D02*
X129500000Y-133400000D01*
X129100000Y-133400000D02*
X128000000Y-133400000D01*
X127600000Y-133400000D02*
X126500000Y-133400000D01*
X126100000Y-133400000D02*
X125000000Y-133400000D01*
X124600000Y-133400000D02*
X123500000Y-133400000D01*
X123100000Y-133400000D02*
X122000000Y-133400000D01*
X121600000Y-133400000D02*
X120500000Y-133400000D01*
X120100000Y-133400000D02*
X119000000Y-133400000D01*
X118600000Y-133400000D02*
X117500000Y-133400000D01*
X117100000Y-133400000D02*
X116000000Y-133400000D01*
X115600000Y-133400000D02*
X114500000Y-133400000D01*
X114100000Y-133400000D02*
X113000000Y-133400000D01*
X112600000Y-133400000D02*
X111500000Y-133400000D01*
X111100000Y-133400000D02*
X110000000Y-133400000D01*
X109600000Y-133400000D02*
X108500000Y-133400000D01*
X108100000Y-133400000D02*
X107000000Y-133400000D01*
X106600000Y-133400000D02*
X105500000Y-133400000D01*
X105100000Y-133400000D02*
X104000000Y-133400000D01*
X103600000Y-133400000D02*
X102500000Y-133400000D01*
X102100000Y-133400000D02*
X101000000Y-133400000D01*
X100600000Y-133400000D02*
X99900000Y-133400000D01*
X99900000Y-133400000D02*
X99900000Y-132300000D01*
X99900000Y-131900000D02*
X99900000Y-130800000D01*
X99900000Y-130400000D02*
X99900000Y-129300000D01*
X99900000Y-128900000D02*
X99900000Y-127800000D01*
X99900000Y-127400000D02*
X99900000Y-126300000D01*
X99900000Y-125900000D02*
X99900000Y-124800000D01*
X99900000Y-124400000D02*
X99900000Y-123300000D01*
X99900000Y-122900000D02*
X99900000Y-121800000D01*
X99900000Y-121400000D02*
X99900000Y-120300000D01*
X99900000Y-119900000D02*
X99900000Y-118800000D01*
X99900000Y-118400000D02*
X99900000Y-117300000D01*
X99900000Y-116900000D02*
X99900000Y-115800000D01*
X99900000Y-115400000D02*
X99900000Y-114300000D01*
X99900000Y-113900000D02*
X99900000Y-112800000D01*
X99900000Y-112400000D02*
X99900000Y-111300000D01*
X99900000Y-110900000D02*
X99900000Y-109800000D01*
X99900000Y-109400000D02*
X99900000Y-108300000D01*
X99900000Y-107900000D02*
X99900000Y-106800000D01*
X99900000Y-106400000D02*
X99900000Y-105300000D01*
X99900000Y-104900000D02*
X99900000Y-103800000D01*
X99900000Y-103400000D02*
X99900000Y-102300000D01*
X99900000Y-101900000D02*
X99900000Y-100800000D01*
X99900000Y-100400000D02*
X99900000Y-99300000D01*
X99900000Y-98900000D02*
X99900000Y-97800000D01*
X99900000Y-97400000D02*
X99900000Y-96300000D01*
X99900000Y-95900000D02*
X99900000Y-94800000D01*
X99900000Y-94400000D02*
X99900000Y-93300000D01*
X99900000Y-92900000D02*
X99900000Y-91800000D01*
X99900000Y-91400000D02*
X99900000Y-90300000D01*
X99900000Y-89900000D02*
X99900000Y-88800000D01*
X99900000Y-88400000D02*
X99900000Y-87300000D01*
X99900000Y-86900000D02*
X99900000Y-85800000D01*
X99900000Y-85400000D02*
X99900000Y-84300000D01*
X99900000Y-83900000D02*
X99900000Y-82800000D01*
X99900000Y-82400000D02*
X99900000Y-81300000D01*
X99900000Y-80900000D02*
X99900000Y-79800000D01*
X99900000Y-79400000D02*
X99900000Y-78300000D01*
X99900000Y-77900000D02*
X99900000Y-76800000D01*
X99900000Y-76400000D02*
X99900000Y-75300000D01*
X99900000Y-74900000D02*
X99900000Y-73800000D01*
X99900000Y-73400000D02*
X99900000Y-72300000D01*
X99900000Y-71900000D02*
X99900000Y-70800000D01*
X99900000Y-70400000D02*
X99900000Y-69300000D01*
X99900000Y-68900000D02*
X99900000Y-67800000D01*
X99900000Y-67400000D02*
X99900000Y-66300000D01*
X99900000Y-65900000D02*
X99900000Y-64800000D01*
X99900000Y-64400000D02*
X99900000Y-63300000D01*
X99900000Y-62900000D02*
X99900000Y-61800000D01*
X99900000Y-61400000D02*
X99900000Y-60300000D01*
X99900000Y-59900000D02*
X99900000Y-58800000D01*
X99900000Y-58400000D02*
X99900000Y-57600000D01*
%LPC*%
D11*
X208000000Y-53500000D03*
X208000000Y-137500000D03*
X98000000Y-137500000D03*
X98000000Y-53500000D03*
D12*
X147000000Y-80000000D03*
X203270000Y-125760000D03*
X203190000Y-122740000D03*
%LPD*%
M02*
