%TF.GenerationSoftware,KiCad,Pcbnew,9.0.7-9.0.7~ubuntu24.04.1*%
%TF.CreationDate,2026-01-10T09:40:53+01:00*%
%TF.ProjectId,BB3plus DVID TFT display,42423370-6c75-4732-9044-564944205446,r1B2*%
%TF.SameCoordinates,Original*%
%TF.FileFunction,Paste,Bot*%
%TF.FilePolarity,Positive*%
%FSLAX46Y46*%
G04 Gerber Fmt 4.6, Leading zero omitted, Abs format (unit mm)*
G04 Created by KiCad (PCBNEW 9.0.7-9.0.7~ubuntu24.04.1) date 2026-01-10 09:40:53*
%MOMM*%
%LPD*%
G01*
G04 APERTURE LIST*
G04 Aperture macros list*
%AMRoundRect*
0 Rectangle with rounded corners*
0 $1 Rounding radius*
0 $2 $3 $4 $5 $6 $7 $8 $9 X,Y pos of 4 corners*
0 Add a 4 corners polygon primitive as box body*
4,1,4,$2,$3,$4,$5,$6,$7,$8,$9,$2,$3,0*
0 Add four circle primitives for the rounded corners*
1,1,$1+$1,$2,$3*
1,1,$1+$1,$4,$5*
1,1,$1+$1,$6,$7*
1,1,$1+$1,$8,$9*
0 Add four rect primitives between the rounded corners*
20,1,$1+$1,$2,$3,$4,$5,0*
20,1,$1+$1,$4,$5,$6,$7,0*
20,1,$1+$1,$6,$7,$8,$9,0*
20,1,$1+$1,$8,$9,$2,$3,0*%
G04 Aperture macros list end*
%ADD10RoundRect,0.045720X0.404280X0.454280X-0.404280X0.454280X-0.404280X-0.454280X0.404280X-0.454280X0*%
%ADD11RoundRect,0.200000X0.225000X-0.200000X0.225000X0.200000X-0.225000X0.200000X-0.225000X-0.200000X0*%
%ADD12RoundRect,0.225000X-0.225000X-0.450000X0.225000X-0.450000X0.225000X0.450000X-0.225000X0.450000X0*%
%ADD13RoundRect,0.200000X-0.200000X-0.225000X0.200000X-0.225000X0.200000X0.225000X-0.200000X0.225000X0*%
%ADD14RoundRect,0.225000X-0.450000X0.225000X-0.450000X-0.225000X0.450000X-0.225000X0.450000X0.225000X0*%
%ADD15RoundRect,0.225609X-0.236891X-0.424391X0.236891X-0.424391X0.236891X0.424391X-0.236891X0.424391X0*%
%ADD16R,2.400000X1.025000*%
%ADD17R,0.400000X0.500000*%
%ADD18RoundRect,0.046356X-0.856144X-0.475144X0.856144X-0.475144X0.856144X0.475144X-0.856144X0.475144X0*%
%ADD19RoundRect,0.049200X-1.488300X-2.440800X1.488300X-2.440800X1.488300X2.440800X-1.488300X2.440800X0*%
%ADD20R,0.992200X0.662000*%
%ADD21R,0.662000X0.992200*%
%ADD22RoundRect,0.055880X0.769120X2.144120X-0.769120X2.144120X-0.769120X-2.144120X0.769120X-2.144120X0*%
%ADD23RoundRect,0.055880X-0.769120X2.144120X-0.769120X-2.144120X0.769120X-2.144120X0.769120X2.144120X0*%
%ADD24RoundRect,0.200000X-0.225000X0.200000X-0.225000X-0.200000X0.225000X-0.200000X0.225000X0.200000X0*%
%ADD25RoundRect,0.200000X0.200000X0.225000X-0.200000X0.225000X-0.200000X-0.225000X0.200000X-0.225000X0*%
%ADD26RoundRect,0.175000X0.250000X-0.175000X0.250000X0.175000X-0.250000X0.175000X-0.250000X-0.175000X0*%
%ADD27R,0.200000X0.900000*%
%ADD28R,1.900000X1.200000*%
%ADD29RoundRect,0.045720X0.454280X-0.404280X0.454280X0.404280X-0.454280X0.404280X-0.454280X-0.404280X0*%
%ADD30RoundRect,0.225000X0.225000X0.450000X-0.225000X0.450000X-0.225000X-0.450000X0.225000X-0.450000X0*%
%ADD31RoundRect,0.036286X0.088714X-0.713714X0.088714X0.713714X-0.088714X0.713714X-0.088714X-0.713714X0*%
%ADD32R,1.068400X0.204800*%
%ADD33RoundRect,0.175000X-0.175000X-0.250000X0.175000X-0.250000X0.175000X0.250000X-0.175000X0.250000X0*%
%ADD34R,0.150000X1.200000*%
%ADD35R,1.630000X2.700000*%
%ADD36RoundRect,0.038100X-0.111900X-0.336900X0.111900X-0.336900X0.111900X0.336900X-0.111900X0.336900X0*%
%ADD37RoundRect,0.225000X0.450000X-0.225000X0.450000X0.225000X-0.450000X0.225000X-0.450000X-0.225000X0*%
%ADD38RoundRect,0.045720X-0.404280X-0.454280X0.404280X-0.454280X0.404280X0.454280X-0.404280X0.454280X0*%
%ADD39RoundRect,0.175000X-0.250000X0.175000X-0.250000X-0.175000X0.250000X-0.175000X0.250000X0.175000X0*%
%ADD40R,0.200000X0.700000*%
%ADD41R,0.700000X1.200000*%
%ADD42R,1.373200X0.179400*%
%ADD43R,0.179400X1.373200*%
%ADD44R,5.894400X5.894400*%
%ADD45RoundRect,0.036286X-0.088714X0.713714X-0.088714X-0.713714X0.088714X-0.713714X0.088714X0.713714X0*%
G04 APERTURE END LIST*
D10*
X131960000Y-70680000D03*
X130260000Y-70680000D03*
D11*
X98450000Y-76360000D03*
X98450000Y-74810000D03*
D12*
X180640000Y-102290000D03*
X182540000Y-102290000D03*
D11*
X117270000Y-88140000D03*
X117270000Y-86590000D03*
D13*
X126670000Y-67830000D03*
X125120000Y-67830000D03*
X123570000Y-67830000D03*
D14*
X196790000Y-119160000D03*
X196790000Y-121060000D03*
D15*
X122697500Y-79130000D03*
X124522500Y-79130000D03*
D16*
X90750000Y-94737500D03*
D17*
X91750000Y-95600000D03*
X89750000Y-95600000D03*
X91750000Y-109000000D03*
X89750000Y-109000000D03*
D16*
X90750000Y-109862500D03*
X95750000Y-94737500D03*
D17*
X96750000Y-95600000D03*
X94750000Y-95600000D03*
X96750000Y-109000000D03*
X94750000Y-109000000D03*
D16*
X95750000Y-109862500D03*
D18*
X198894200Y-120511400D03*
X198894200Y-118200000D03*
X198894200Y-115888600D03*
D19*
X204660000Y-118200000D03*
D20*
X124711100Y-81990000D03*
X127428900Y-81990000D03*
D21*
X126330000Y-76619150D03*
X126330000Y-79336950D03*
D16*
X90750000Y-58737500D03*
D17*
X91750000Y-59600000D03*
X89750000Y-59600000D03*
X91750000Y-73000000D03*
X89750000Y-73000000D03*
D16*
X90750000Y-73862500D03*
X95750000Y-58737500D03*
D17*
X96750000Y-59600000D03*
X94750000Y-59600000D03*
X96750000Y-73000000D03*
X94750000Y-73000000D03*
D16*
X95750000Y-73862500D03*
D22*
X128415750Y-76921624D03*
D23*
X131665750Y-76921624D03*
D24*
X173750000Y-114235000D03*
X173750000Y-115785000D03*
D25*
X115805000Y-80530000D03*
X114255000Y-80530000D03*
D26*
X141020000Y-83520000D03*
X141020000Y-81870000D03*
D27*
X197850001Y-124590000D03*
X197350002Y-124590000D03*
X196850000Y-124590000D03*
X196350001Y-124590000D03*
X195850000Y-124590000D03*
X195350001Y-124590000D03*
X194850002Y-124590000D03*
X194350000Y-124590000D03*
X193850001Y-124590000D03*
X193349999Y-124590000D03*
X192850001Y-124590000D03*
X192350001Y-124590000D03*
X191850000Y-124590000D03*
X191350001Y-124590000D03*
X190849999Y-124590000D03*
X190350000Y-124590000D03*
X189850001Y-124590000D03*
X189350000Y-124590000D03*
X188850001Y-124590000D03*
X188350002Y-124590000D03*
X187850000Y-124590000D03*
X187350001Y-124590000D03*
D28*
X200149991Y-127289999D03*
X185050011Y-127289999D03*
D13*
X148540000Y-78905000D03*
X150090000Y-78905000D03*
D25*
X161920000Y-102190000D03*
X160370000Y-102190000D03*
D24*
X157580000Y-114331000D03*
X157580000Y-115881000D03*
D29*
X159750000Y-109820000D03*
X159750000Y-108120000D03*
D11*
X98450000Y-112830000D03*
X98450000Y-111280000D03*
D25*
X111595000Y-92840000D03*
X110045000Y-92840000D03*
D13*
X127825000Y-80188050D03*
X129375000Y-80188050D03*
X148540000Y-80375000D03*
X150090000Y-80375000D03*
D11*
X142380000Y-83524000D03*
X142380000Y-81974000D03*
D30*
X131845000Y-73130000D03*
X129945000Y-73130000D03*
D13*
X180605000Y-106910000D03*
X182155000Y-106910000D03*
D10*
X181005000Y-113620000D03*
X179305000Y-113620000D03*
D14*
X164550000Y-114300000D03*
X164550000Y-116200000D03*
D24*
X157580000Y-111331000D03*
X157580000Y-112881000D03*
D31*
X147350000Y-80330000D03*
X146700000Y-80330000D03*
X146050000Y-80330000D03*
X145400000Y-80330000D03*
X144750000Y-80330000D03*
X144100000Y-80330000D03*
X143450000Y-80330000D03*
X142800000Y-80330000D03*
X142800000Y-74730000D03*
X143450000Y-74730000D03*
X144100000Y-74730000D03*
X144750000Y-74730000D03*
X145400000Y-74730000D03*
X146050000Y-74730000D03*
X146700000Y-74730000D03*
X147350000Y-74730000D03*
D13*
X114460000Y-72900000D03*
X116010000Y-72900000D03*
X117560000Y-72900000D03*
D11*
X173650000Y-95550000D03*
X173650000Y-94000000D03*
D24*
X166270000Y-114235000D03*
X166270000Y-115785000D03*
D32*
X106779600Y-91260000D03*
X106779600Y-90610014D03*
X106779600Y-89960028D03*
X106779600Y-89310042D03*
X112520000Y-89310042D03*
X112520000Y-89960028D03*
X112520000Y-90610014D03*
X112520000Y-91260000D03*
D11*
X98450000Y-94825000D03*
X98450000Y-93275000D03*
D33*
X109980000Y-96320000D03*
X111630000Y-96320000D03*
D14*
X161650000Y-108020000D03*
X161650000Y-109920000D03*
D34*
X125850000Y-86920000D03*
X126350000Y-86920000D03*
X126850000Y-86920000D03*
X127350000Y-86920000D03*
X127850000Y-86920000D03*
X128350000Y-86920000D03*
X128850000Y-86920000D03*
X129350000Y-86920000D03*
X129850000Y-86920000D03*
X130350000Y-86920000D03*
X130850000Y-86920000D03*
X131350000Y-86920000D03*
X131850000Y-86920000D03*
X132350000Y-86920000D03*
X132850000Y-86920000D03*
X133350000Y-86920000D03*
X133850000Y-86920000D03*
X134350000Y-86920000D03*
X134850000Y-86920000D03*
X135350000Y-86920000D03*
X135850000Y-86920000D03*
X136350000Y-86920000D03*
X136850000Y-86920000D03*
X137350000Y-86920000D03*
X137850000Y-86920000D03*
X138350000Y-86920000D03*
X138850000Y-86920000D03*
X139350000Y-86920000D03*
X139850000Y-86920000D03*
X140350000Y-86920000D03*
X140850000Y-86920000D03*
X141350000Y-86920000D03*
X141850000Y-86920000D03*
X142350000Y-86920000D03*
X142850000Y-86920000D03*
X143350000Y-86920000D03*
X143850000Y-86920000D03*
X144350000Y-86920000D03*
X144850000Y-86920000D03*
X145350000Y-86920000D03*
D35*
X147290000Y-90000000D03*
X123910000Y-90000000D03*
D36*
X126425000Y-75120000D03*
X125775000Y-75120000D03*
X125125000Y-75120000D03*
X125125000Y-72870000D03*
X126425000Y-72870000D03*
D13*
X128125000Y-84990000D03*
X129675000Y-84990000D03*
D11*
X98450000Y-58830000D03*
X98450000Y-57280000D03*
X171520000Y-95555000D03*
X171520000Y-94005000D03*
D15*
X122697500Y-77198050D03*
X124522500Y-77198050D03*
D37*
X196790000Y-117650000D03*
X196790000Y-115750000D03*
D16*
X90750000Y-112737500D03*
D17*
X91750000Y-113600000D03*
X89750000Y-113600000D03*
X91750000Y-127000000D03*
X89750000Y-127000000D03*
D16*
X90750000Y-127862500D03*
X95750000Y-112737500D03*
D17*
X96750000Y-113600000D03*
X94750000Y-113600000D03*
X96750000Y-127000000D03*
X94750000Y-127000000D03*
D16*
X95750000Y-127862500D03*
D15*
X126927500Y-71140000D03*
X128752500Y-71140000D03*
D16*
X90750000Y-76737500D03*
D17*
X91750000Y-77600000D03*
X89750000Y-77600000D03*
X91750000Y-91000000D03*
X89750000Y-91000000D03*
D16*
X90750000Y-91862500D03*
X95750000Y-76737500D03*
D17*
X96750000Y-77600000D03*
X94750000Y-77600000D03*
X96750000Y-91000000D03*
X94750000Y-91000000D03*
D16*
X95750000Y-91862500D03*
D38*
X121490000Y-71180000D03*
X123190000Y-71180000D03*
D24*
X177100000Y-114235000D03*
X177100000Y-115785000D03*
D25*
X166255000Y-95080000D03*
X164705000Y-95080000D03*
D39*
X161000000Y-114310000D03*
X161000000Y-115960000D03*
D40*
X115750000Y-89780000D03*
X116250000Y-89780000D03*
X116750000Y-89780000D03*
X117250000Y-89780000D03*
X117750000Y-89780000D03*
X118250000Y-89780000D03*
D41*
X119280000Y-92360000D03*
X114720000Y-92360000D03*
D33*
X109985000Y-94860000D03*
X111635000Y-94860000D03*
D42*
X163538400Y-110894400D03*
X163538400Y-110411800D03*
X163538400Y-109903800D03*
X163538400Y-109395800D03*
X163538400Y-108887800D03*
X163538400Y-108405200D03*
X163538400Y-107897200D03*
X163538400Y-107389200D03*
X163538400Y-106906600D03*
X163538400Y-106398600D03*
X163538400Y-105890600D03*
X163538400Y-105408000D03*
X163538400Y-104900000D03*
X163538400Y-104392000D03*
X163538400Y-103909400D03*
X163538400Y-103401400D03*
X163538400Y-102893400D03*
X163538400Y-102410800D03*
X163538400Y-101902800D03*
X163538400Y-101394800D03*
X163538400Y-100912200D03*
X163538400Y-100404200D03*
X163538400Y-99896200D03*
X163538400Y-99388200D03*
X163538400Y-98905600D03*
D43*
X165265600Y-97178400D03*
X165748200Y-97178400D03*
X166256200Y-97178400D03*
X166764200Y-97178400D03*
X167272200Y-97178400D03*
X167754800Y-97178400D03*
X168262800Y-97178400D03*
X168770800Y-97178400D03*
X169253400Y-97178400D03*
X169761400Y-97178400D03*
X170269400Y-97178400D03*
X170752000Y-97178400D03*
X171260000Y-97178400D03*
X171768000Y-97178400D03*
X172250600Y-97178400D03*
X172758600Y-97178400D03*
X173266600Y-97178400D03*
X173749200Y-97178400D03*
X174257200Y-97178400D03*
X174765200Y-97178400D03*
X175247800Y-97178400D03*
X175755800Y-97178400D03*
X176263800Y-97178400D03*
X176771800Y-97178400D03*
X177254400Y-97178400D03*
D42*
X178981600Y-98905600D03*
X178981600Y-99388200D03*
X178981600Y-99896200D03*
X178981600Y-100404200D03*
X178981600Y-100912200D03*
X178981600Y-101394800D03*
X178981600Y-101902800D03*
X178981600Y-102410800D03*
X178981600Y-102893400D03*
X178981600Y-103401400D03*
X178981600Y-103909400D03*
X178981600Y-104392000D03*
X178981600Y-104900000D03*
X178981600Y-105408000D03*
X178981600Y-105890600D03*
X178981600Y-106398600D03*
X178981600Y-106906600D03*
X178981600Y-107389200D03*
X178981600Y-107897200D03*
X178981600Y-108405200D03*
X178981600Y-108887800D03*
X178981600Y-109395800D03*
X178981600Y-109903800D03*
X178981600Y-110411800D03*
X178981600Y-110894400D03*
D43*
X177254400Y-112621600D03*
X176771800Y-112621600D03*
X176263800Y-112621600D03*
X175755800Y-112621600D03*
X175247800Y-112621600D03*
X174765200Y-112621600D03*
X174257200Y-112621600D03*
X173749200Y-112621600D03*
X173266600Y-112621600D03*
X172758600Y-112621600D03*
X172250600Y-112621600D03*
X171768000Y-112621600D03*
X171260000Y-112621600D03*
X170752000Y-112621600D03*
X170269400Y-112621600D03*
X169761400Y-112621600D03*
X169253400Y-112621600D03*
X168770800Y-112621600D03*
X168262800Y-112621600D03*
X167754800Y-112621600D03*
X167272200Y-112621600D03*
X166764200Y-112621600D03*
X166256200Y-112621600D03*
X165748200Y-112621600D03*
X165265600Y-112621600D03*
D44*
X171260000Y-104900000D03*
D26*
X161000000Y-112995000D03*
X161000000Y-111345000D03*
D29*
X162640000Y-115880000D03*
X162640000Y-114180000D03*
D24*
X171260000Y-114245000D03*
X171260000Y-115795000D03*
D12*
X179290000Y-115520000D03*
X181190000Y-115520000D03*
D10*
X182150000Y-100400000D03*
X180450000Y-100400000D03*
D24*
X167750000Y-114235000D03*
X167750000Y-115785000D03*
D45*
X117000000Y-74900000D03*
X117650000Y-74900000D03*
X118300000Y-74900000D03*
X118950000Y-74900000D03*
X119600000Y-74900000D03*
X120250000Y-74900000D03*
X120900000Y-74900000D03*
X121550000Y-74900000D03*
X121550000Y-80500000D03*
X120900000Y-80500000D03*
X120250000Y-80500000D03*
X119600000Y-80500000D03*
X118950000Y-80500000D03*
X118300000Y-80500000D03*
X117650000Y-80500000D03*
X117000000Y-80500000D03*
M02*
