%TF.GenerationSoftware,KiCad,Pcbnew,9.0.5-9.0.5~ubuntu24.04.1*%
%TF.CreationDate,2025-10-26T09:57:33+01:00*%
%TF.ProjectId,BB3plus DVID TFT display,42423370-6c75-4732-9044-564944205446,r1B1*%
%TF.SameCoordinates,Original*%
%TF.FileFunction,Profile,NP*%
%FSLAX46Y46*%
G04 Gerber Fmt 4.6, Leading zero omitted, Abs format (unit mm)*
G04 Created by KiCad (PCBNEW 9.0.5-9.0.5~ubuntu24.04.1) date 2025-10-26 09:57:33*
%MOMM*%
%LPD*%
G01*
G04 APERTURE LIST*
%TA.AperFunction,Profile*%
%ADD10C,0.100000*%
%TD*%
G04 APERTURE END LIST*
D10*
X221000000Y-140000000D02*
X221000000Y-51000000D01*
X85000000Y-51000000D02*
G75*
G02*
X86499997Y-49500000I1500000J0D01*
G01*
X206100000Y-133400000D02*
X206100000Y-140000000D01*
X85000000Y-140000000D02*
X85000000Y-51000000D01*
X86500000Y-49500000D02*
X219500000Y-49500000D01*
X221000000Y-140000000D02*
G75*
G02*
X219500003Y-141500000I-1500000J0D01*
G01*
X207600000Y-141500000D02*
X219500000Y-141500000D01*
X99900000Y-140000000D02*
X99900000Y-133400000D01*
X87000000Y-114000000D02*
X99500000Y-114000000D01*
X99500000Y-126600000D01*
X87000000Y-126600000D01*
X87000000Y-114000000D01*
X87000000Y-96000000D02*
X99500000Y-96000000D01*
X99500000Y-108600000D01*
X87000000Y-108600000D01*
X87000000Y-96000000D01*
X207600000Y-141500000D02*
G75*
G02*
X206100000Y-140000000I0J1500000D01*
G01*
X86500000Y-141500000D02*
G75*
G02*
X85000000Y-140000003I0J1500000D01*
G01*
X98400000Y-141500000D02*
X86500000Y-141500000D01*
X99900000Y-133400000D02*
X206100000Y-133400000D01*
X99900000Y-140000000D02*
G75*
G02*
X98400000Y-141500000I-1500000J0D01*
G01*
X87000000Y-60000000D02*
X99500000Y-60000000D01*
X99500000Y-72600000D01*
X87000000Y-72600000D01*
X87000000Y-60000000D01*
X219500041Y-49500003D02*
G75*
G02*
X221000097Y-51000000I-41J-1500097D01*
G01*
X87000000Y-78000000D02*
X99500000Y-78000000D01*
X99500000Y-90600000D01*
X87000000Y-90600000D01*
X87000000Y-78000000D01*
M02*
