M48
; DRILL file KiCad 10.0.6-10.0.6~ubuntu24.04.1 date 2026-09-03T16:26:41
; FORMAT={-:-/ absolute / metric / decimal}
; #@! TF.CreationDate,2026-09-03T16:26:41+02:00
; #@! TF.GenerationSoftware,Kicad,Pcbnew,10.0.6-10.0.6~ubuntu24.04.1
; #@! TF.FileFunction,Plated,1,2,PTH
FMAT,2
METRIC
; #@! TA.AperFunction,Plated,PTH,ViaDrill
T1C0.300
; #@! TA.AperFunction,Plated,PTH,ComponentDrill
T2C0.610
; #@! TA.AperFunction,Plated,PTH,ComponentDrill
T3C0.800
; #@! TA.AperFunction,Plated,PTH,ComponentDrill
T4C3.200
%
G90
G05
T1
X90.76Y-57.84
X90.76Y-75.85
X90.76Y-93.79
X90.76Y-111.85
X105.93Y-89.31
X110.05Y-93.48
X111.28Y-88.69
X111.51Y-93.42
X111.61Y-89.96
X113.634Y-93.99
X114.46Y-71.99
X114.5Y-81.1
X114.64Y-93.831
X115.4Y-79.95
X115.792Y-90.808
X116.713Y-90.833
X116.95Y-87.62
X117.0Y-86.05
X117.26Y-89.21
X117.57Y-72.23
X118.09Y-88.95
X118.26Y-90.68
X118.399Y-83.395
X118.666Y-84.041
X119.15Y-84.47
X119.15Y-95.88
X119.92Y-84.19
X120.02Y-82.45
X120.67Y-82.98
X121.34Y-76.24
X123.56Y-69.04
X123.97Y-71.18
X126.98Y-85.745
X128.63Y-85.165
X129.12Y-73.13
X129.74Y-80.21
X131.85Y-87.925
X131.96Y-68.15
X132.35Y-88.335
X132.85Y-88.805
X133.33Y-89.195
X133.85Y-89.665
X134.036Y-97.04
X134.35Y-90.045
X134.639Y-96.431
X134.65Y-96.97
X134.84Y-89.665
X135.28Y-96.46
X135.35Y-90.055
X135.36Y-95.83
X135.91Y-90.135
X136.02Y-95.9
X136.35Y-89.665
X136.575Y-95.785
X136.9Y-89.925
X137.125Y-95.645
X137.36Y-89.665
X137.99Y-89.885
X138.07Y-98.805
X138.36Y-89.485
X138.55Y-99.205
X138.85Y-89.185
X139.07Y-98.805
X139.35Y-88.885
X139.61Y-99.205
X140.06Y-98.805
X140.49Y-99.205
X140.94Y-98.805
X140.95Y-87.9
X141.4Y-99.205
X141.52Y-81.55
X142.14Y-84.58
X143.25Y-83.53
X143.25Y-85.815
X143.45Y-75.7
X143.89Y-85.79
X144.1Y-76.36
X144.56Y-76.87
X144.72Y-84.0
X144.72Y-85.63
X145.002Y-107.24
X145.35Y-76.39
X145.37Y-84.005
X145.484Y-85.634
X145.786Y-86.263
X145.96Y-110.46
X146.05Y-84.01
X146.13Y-86.8
X146.69Y-83.53
X147.37Y-109.91
X147.38Y-95.07
X147.38Y-96.55
X147.497Y-102.229
X148.33Y-108.66
X148.56Y-101.6
X148.79Y-82.36
X149.23Y-116.55
X149.31Y-78.86
X149.98Y-82.84
X150.56Y-111.5
X151.13Y-115.55
X152.36Y-111.5
X152.41Y-95.07
X154.3Y-116.33
X154.32Y-114.75
X155.985Y-113.738
X156.49Y-104.92
X156.49Y-105.645
X156.52Y-104.175
X157.19Y-104.905
X157.19Y-105.63
X157.22Y-104.16
X157.89Y-104.9
X157.89Y-105.625
X157.92Y-93.44
X157.92Y-104.155
X157.92Y-114.78
X157.93Y-116.33
X158.59Y-104.91
X158.59Y-105.635
X158.62Y-104.165
X158.72Y-95.51
X159.29Y-104.915
X159.29Y-105.64
X159.32Y-104.17
X160.31Y-93.42
X160.33Y-95.0
X160.4Y-116.34
X160.44Y-114.79
X162.97Y-118.9
X162.97Y-120.53
X162.97Y-122.04
X162.97Y-123.586
X163.75Y-116.35
X164.35Y-114.23
X165.31Y-115.27
X165.31Y-115.78
X167.26Y-106.3
X167.81Y-102.3
X167.82Y-101.8
X168.37Y-113.68
X168.59Y-99.75
X171.189Y-92.806
X171.404Y-98.626
X175.06Y-117.63
X175.099Y-118.942
X175.099Y-120.572
X175.099Y-122.082
X175.099Y-123.629
X176.368Y-101.12
X176.988Y-101.17
X177.568Y-101.17
X186.038Y-102.45
X186.038Y-103.11
X186.038Y-103.71
X186.038Y-104.39
X186.038Y-105.02
X186.038Y-105.7
X186.038Y-106.39
X186.706Y-102.445
X186.706Y-103.105
X186.706Y-103.705
X186.706Y-104.385
X186.706Y-105.015
X186.706Y-105.695
X186.706Y-106.385
T2
X131.31Y-81.94
X174.22Y-108.712
X180.771Y-108.712
T3
X111.2Y-55.06
X113.2Y-55.06
X115.2Y-55.06
X117.2Y-55.06
T4
X95.0Y-53.5
X95.0Y-137.5
X211.0Y-53.5
X211.0Y-137.5
M30
