%TF.GenerationSoftware,KiCad,Pcbnew,10.0.3-10.0.3~ubuntu24.04.1*%
%TF.CreationDate,2026-05-25T14:32:56+02:00*%
%TF.ProjectId,DIB2 USB adapter,44494232-2055-4534-9220-616461707465,r1B2*%
%TF.SameCoordinates,Original*%
%TF.FileFunction,Copper,L2,Inr*%
%TF.FilePolarity,Positive*%
%FSLAX46Y46*%
G04 Gerber Fmt 4.6, Leading zero omitted, Abs format (unit mm)*
G04 Created by KiCad (PCBNEW 10.0.3-10.0.3~ubuntu24.04.1) date 2026-05-25 14:32:56*
%MOMM*%
%LPD*%
G01*
G04 APERTURE LIST*
%ADD10C,0.101600*%
%TA.AperFunction,NonConductor*%
%ADD11C,0.101600*%
%TD*%
%TA.AperFunction,ComponentPad*%
%ADD12C,1.650000*%
%TD*%
%TA.AperFunction,ComponentPad*%
%ADD13C,5.500000*%
%TD*%
%TA.AperFunction,ComponentPad*%
%ADD14C,1.208000*%
%TD*%
%TA.AperFunction,ComponentPad*%
%ADD15C,1.100000*%
%TD*%
%TA.AperFunction,ComponentPad*%
%ADD16C,3.316000*%
%TD*%
%TA.AperFunction,ViaPad*%
%ADD17C,0.600000*%
%TD*%
G04 APERTURE END LIST*
D10*
D11*
X60918243Y-69188496D02*
X60961786Y-69144953D01*
X60961786Y-69144953D02*
X61048872Y-69101410D01*
X61048872Y-69101410D02*
X61266586Y-69101410D01*
X61266586Y-69101410D02*
X61353672Y-69144953D01*
X61353672Y-69144953D02*
X61397214Y-69188496D01*
X61397214Y-69188496D02*
X61440757Y-69275582D01*
X61440757Y-69275582D02*
X61440757Y-69362668D01*
X61440757Y-69362668D02*
X61397214Y-69493296D01*
X61397214Y-69493296D02*
X60874700Y-70015810D01*
X60874700Y-70015810D02*
X61440757Y-70015810D01*
D12*
%TO.N,+12V*%
%TO.C,X1*%
X69805000Y-108430000D03*
%TO.N,+5V*%
X67265000Y-108430000D03*
%TO.N,GND*%
X69805000Y-105890000D03*
X67265000Y-105890000D03*
%TO.N,/DIB_SCLK*%
X69805000Y-103350000D03*
%TO.N,+3V3*%
X67265000Y-103350000D03*
%TO.N,/DIB_MOSI*%
X69805000Y-100810000D03*
%TO.N,/~{DIB_FAULT}*%
X67265000Y-100810000D03*
%TO.N,/DIB_MISO*%
X69805000Y-98270000D03*
%TO.N,/AC_FREQ*%
X67265000Y-98270000D03*
%TO.N,/DIB_IRQ*%
X69805000Y-95730000D03*
%TO.N,/DIB_OE_SYNC*%
X67265000Y-95730000D03*
%TO.N,/~{DIB_CSA}*%
X69805000Y-93190000D03*
%TO.N,/~{DIB_RESET}*%
X67265000Y-93190000D03*
%TO.N,/DIB_UART_RX*%
X69805000Y-90650000D03*
%TO.N,/DIB_UART_TX*%
X67265000Y-90650000D03*
%TO.N,/DIB_I2C_SCL*%
X69805000Y-88110000D03*
%TO.N,/DIB_I2C_SDA*%
X67265000Y-88110000D03*
%TO.N,/~{DIB_ALERT}*%
X69805000Y-85570000D03*
%TO.N,PE*%
X67265000Y-85570000D03*
%TD*%
D13*
%TO.N,*%
%TO.C,KK1*%
X69500000Y-63000000D03*
%TD*%
D14*
%TO.N,+5V*%
%TO.C,X3*%
X70300000Y-124500000D03*
%TO.N,/DIB_USB_D-*%
X70300000Y-127000000D03*
%TO.N,/DIB_USB_D+*%
X70300000Y-129000000D03*
%TO.N,GND*%
X70300000Y-131500000D03*
D15*
%TO.N,/USB3_RX-*%
X71800000Y-132000000D03*
%TO.N,/USB3_RX+*%
X71800000Y-130000000D03*
D14*
%TO.N,GND*%
X71800000Y-128000000D03*
D15*
%TO.N,/USB3_TX-*%
X71800000Y-126000000D03*
%TO.N,/USB3_TX+*%
X71800000Y-124000000D03*
D16*
%TO.N,PE*%
X68300000Y-121430000D03*
X68300000Y-134570000D03*
%TD*%
D13*
%TO.N,*%
%TO.C,KK2*%
X69500000Y-147000000D03*
%TD*%
D17*
%TO.N,/~{DIB_FAULT}*%
X124210000Y-142830000D03*
%TO.N,/DIB_I2C_SDA*%
X125200000Y-142830000D03*
%TO.N,/DIB_I2C_SCL*%
X92230000Y-139970000D03*
%TO.N,/~{DIB_ALERT}*%
X93010000Y-140780000D03*
%TO.N,/DIB_SCLK*%
X88060000Y-139420000D03*
%TO.N,GND*%
X147750000Y-146070000D03*
%TO.N,/DIB_MISO*%
X97050000Y-139630000D03*
X87580000Y-98270000D03*
%TO.N,/~{DIB_CSA}*%
X97870000Y-138640000D03*
X83660000Y-93190000D03*
%TO.N,+12V*%
X117300000Y-146480000D03*
X117300000Y-145730000D03*
%TO.N,+5V*%
X79520000Y-139570000D03*
X121100000Y-146400000D03*
X79520000Y-138710000D03*
X121100000Y-145700000D03*
%TO.N,GND*%
X141580000Y-146070000D03*
X129197300Y-146447598D03*
X73470000Y-104020000D03*
X75690000Y-122230769D03*
X78992582Y-120680140D03*
X122211760Y-146448107D03*
X138478465Y-146070000D03*
X73450042Y-109119922D03*
X73460000Y-111070000D03*
X118200000Y-146295619D03*
X126200000Y-146447598D03*
%TO.N,+3V3*%
X120100000Y-143211869D03*
X119311869Y-143200000D03*
%TO.N,/DIB_MOSI*%
X88500000Y-138643000D03*
%TO.N,/~{DIB_FAULT}*%
X124200000Y-138440000D03*
X97470002Y-102080000D03*
%TO.N,/AC_FREQ*%
X131197300Y-142831411D03*
X131197300Y-138470000D03*
X100768712Y-99201288D03*
%TO.N,/DIB_IRQ*%
X90290000Y-138293000D03*
%TO.N,/DIB_OE_SYNC*%
X130197300Y-138440000D03*
X130197300Y-142831411D03*
X97660000Y-96900000D03*
%TO.N,/~{DIB_RESET}*%
X123200000Y-138440000D03*
X88090000Y-94430000D03*
X123200000Y-142831411D03*
%TO.N,/DIB_UART_RX*%
X97460000Y-90910000D03*
X136197300Y-142831411D03*
X136197300Y-138470000D03*
%TO.N,/DIB_UART_TX*%
X135197300Y-138470000D03*
X97460000Y-91890000D03*
X135197300Y-142831411D03*
%TO.N,/DIB_I2C_SDA*%
X87860000Y-89380000D03*
X125200000Y-138450000D03*
%TO.N,PE*%
X116200000Y-146300000D03*
%TO.N,/DIB_USB_D+*%
X144310000Y-146250000D03*
%TO.N,/DIB_USB_D-*%
X145040000Y-146250000D03*
%TD*%
%TA.AperFunction,Conductor*%
%TO.N,GND*%
G36*
X67944789Y-60220185D02*
G01*
X67990544Y-60272989D01*
X68000488Y-60342147D01*
X67971463Y-60405703D01*
X67943722Y-60429494D01*
X67758644Y-60545786D01*
X67494813Y-60756181D01*
X67256181Y-60994813D01*
X67045786Y-61258644D01*
X66866246Y-61544379D01*
X66719831Y-61848412D01*
X66608378Y-62166925D01*
X66608374Y-62166937D01*
X66533283Y-62495935D01*
X66533280Y-62495949D01*
X66495500Y-62831264D01*
X66495500Y-63168735D01*
X66533280Y-63504050D01*
X66533283Y-63504064D01*
X66608374Y-63833062D01*
X66608378Y-63833074D01*
X66719831Y-64151587D01*
X66866246Y-64455620D01*
X66866248Y-64455623D01*
X67045787Y-64741357D01*
X67107978Y-64819343D01*
X67256181Y-65005186D01*
X67494813Y-65243818D01*
X67654106Y-65370848D01*
X67758643Y-65454213D01*
X68044377Y-65633752D01*
X68348416Y-65780170D01*
X68587638Y-65863877D01*
X68666925Y-65891621D01*
X68666937Y-65891625D01*
X68995935Y-65966717D01*
X68995944Y-65966718D01*
X68995949Y-65966719D01*
X69219492Y-65991905D01*
X69331265Y-66004499D01*
X69331268Y-66004500D01*
X69331271Y-66004500D01*
X69668732Y-66004500D01*
X69668733Y-66004499D01*
X69840108Y-65985190D01*
X70004050Y-65966719D01*
X70004053Y-65966718D01*
X70004065Y-65966717D01*
X70333063Y-65891625D01*
X70651584Y-65780170D01*
X70955623Y-65633752D01*
X71241357Y-65454213D01*
X71450429Y-65287484D01*
X71505186Y-65243818D01*
X71505188Y-65243815D01*
X71505193Y-65243812D01*
X71743812Y-65005193D01*
X71954213Y-64741357D01*
X72133752Y-64455623D01*
X72280170Y-64151584D01*
X72391625Y-63833063D01*
X72466717Y-63504065D01*
X72504500Y-63168729D01*
X72504500Y-62831271D01*
X72466717Y-62495935D01*
X72391625Y-62166937D01*
X72280170Y-61848416D01*
X72133752Y-61544377D01*
X71954213Y-61258643D01*
X71819260Y-61089416D01*
X71743818Y-60994813D01*
X71505186Y-60756181D01*
X71277708Y-60574776D01*
X71241357Y-60545787D01*
X71056277Y-60429493D01*
X71009987Y-60377159D01*
X70999339Y-60308106D01*
X71027714Y-60244257D01*
X71086103Y-60205885D01*
X71122250Y-60200500D01*
X148310118Y-60200500D01*
X148345125Y-60200500D01*
X148354853Y-60200881D01*
X148543562Y-60215733D01*
X148562771Y-60218776D01*
X148742084Y-60261825D01*
X148760577Y-60267834D01*
X148824938Y-60294493D01*
X148930946Y-60338403D01*
X148948283Y-60347237D01*
X149105504Y-60443583D01*
X149121245Y-60455019D01*
X149261463Y-60574776D01*
X149275223Y-60588536D01*
X149394980Y-60728754D01*
X149406416Y-60744495D01*
X149502762Y-60901716D01*
X149511596Y-60919053D01*
X149582163Y-61089416D01*
X149588176Y-61107922D01*
X149631222Y-61287223D01*
X149634266Y-61306441D01*
X149646618Y-61463380D01*
X149647000Y-61473109D01*
X149647000Y-144946903D01*
X149646800Y-144948934D01*
X149646800Y-150976000D01*
X149627115Y-151043039D01*
X149574311Y-151088794D01*
X149522800Y-151100000D01*
X128971800Y-151100000D01*
X128904761Y-151080315D01*
X128859006Y-151027511D01*
X128847800Y-150976000D01*
X128847800Y-146176999D01*
X143755500Y-146176999D01*
X143755500Y-146323001D01*
X143768898Y-146373001D01*
X143793288Y-146464028D01*
X143793289Y-146464031D01*
X143866286Y-146590467D01*
X143866288Y-146590470D01*
X143866289Y-146590471D01*
X143969529Y-146693711D01*
X143969530Y-146693712D01*
X143969532Y-146693713D01*
X144000401Y-146711535D01*
X144095971Y-146766712D01*
X144236999Y-146804500D01*
X144237001Y-146804500D01*
X144382999Y-146804500D01*
X144383001Y-146804500D01*
X144524029Y-146766712D01*
X144613000Y-146715345D01*
X144680901Y-146698872D01*
X144737000Y-146715345D01*
X144825971Y-146766712D01*
X144966999Y-146804500D01*
X144967001Y-146804500D01*
X145112999Y-146804500D01*
X145113001Y-146804500D01*
X145254029Y-146766712D01*
X145380471Y-146693711D01*
X145483711Y-146590471D01*
X145556712Y-146464029D01*
X145594500Y-146323001D01*
X145594500Y-146176999D01*
X145556712Y-146035971D01*
X145503631Y-145944031D01*
X145483713Y-145909532D01*
X145483709Y-145909527D01*
X145380472Y-145806290D01*
X145380467Y-145806286D01*
X145254031Y-145733289D01*
X145254030Y-145733288D01*
X145254029Y-145733288D01*
X145113001Y-145695500D01*
X144966999Y-145695500D01*
X144825971Y-145733288D01*
X144825970Y-145733288D01*
X144736999Y-145784655D01*
X144669098Y-145801126D01*
X144613001Y-145784655D01*
X144524029Y-145733288D01*
X144383001Y-145695500D01*
X144236999Y-145695500D01*
X144095971Y-145733288D01*
X144095968Y-145733289D01*
X143969532Y-145806286D01*
X143969527Y-145806290D01*
X143866290Y-145909527D01*
X143866286Y-145909532D01*
X143793289Y-146035968D01*
X143793288Y-146035971D01*
X143755500Y-146176999D01*
X128847800Y-146176999D01*
X128847800Y-144949346D01*
X128847799Y-144949341D01*
X128847727Y-144948934D01*
X128812843Y-144751091D01*
X128743990Y-144561920D01*
X128643335Y-144387579D01*
X128513934Y-144233366D01*
X128382550Y-144123121D01*
X128359725Y-144103968D01*
X128359721Y-144103965D01*
X128185384Y-144003312D01*
X128185381Y-144003311D01*
X128185380Y-144003310D01*
X128161490Y-143994615D01*
X127996208Y-143934456D01*
X127797958Y-143899500D01*
X127797956Y-143899500D01*
X127596644Y-143899500D01*
X127596641Y-143899500D01*
X127398391Y-143934456D01*
X127209222Y-144003309D01*
X127209215Y-144003312D01*
X127034878Y-144103965D01*
X127034874Y-144103968D01*
X126880666Y-144233366D01*
X126751268Y-144387574D01*
X126751265Y-144387578D01*
X126650612Y-144561915D01*
X126650609Y-144561922D01*
X126581756Y-144751091D01*
X126546800Y-144949341D01*
X126546800Y-150976000D01*
X126527115Y-151043039D01*
X126474311Y-151088794D01*
X126422800Y-151100000D01*
X115874500Y-151100000D01*
X115807461Y-151080315D01*
X115761706Y-151027511D01*
X115750500Y-150976000D01*
X115750500Y-146895537D01*
X115770185Y-146828498D01*
X115822989Y-146782743D01*
X115892147Y-146772799D01*
X115936499Y-146788149D01*
X115985971Y-146816712D01*
X116126999Y-146854500D01*
X116127001Y-146854500D01*
X116272999Y-146854500D01*
X116273001Y-146854500D01*
X116414029Y-146816712D01*
X116540471Y-146743711D01*
X116598330Y-146685851D01*
X116659649Y-146652369D01*
X116729341Y-146657353D01*
X116785275Y-146699224D01*
X116793395Y-146711535D01*
X116856286Y-146820467D01*
X116856288Y-146820470D01*
X116856289Y-146820471D01*
X116959529Y-146923711D01*
X117085971Y-146996712D01*
X117226999Y-147034500D01*
X117227001Y-147034500D01*
X117372999Y-147034500D01*
X117373001Y-147034500D01*
X117514029Y-146996712D01*
X117640471Y-146923711D01*
X117743711Y-146820471D01*
X117816712Y-146694029D01*
X117854500Y-146553001D01*
X117854500Y-146406999D01*
X117816712Y-146265971D01*
X117759570Y-146166999D01*
X117743098Y-146099100D01*
X117759571Y-146043000D01*
X117763631Y-146035968D01*
X117816712Y-145944029D01*
X117854500Y-145803001D01*
X117854500Y-145656999D01*
X117846462Y-145626999D01*
X120545500Y-145626999D01*
X120545500Y-145773001D01*
X120582083Y-145909529D01*
X120583288Y-145914028D01*
X120583288Y-145914029D01*
X120625995Y-145988001D01*
X120642466Y-146055901D01*
X120625995Y-146111999D01*
X120583288Y-146185970D01*
X120583288Y-146185971D01*
X120545500Y-146326999D01*
X120545500Y-146473001D01*
X120566936Y-146553000D01*
X120583288Y-146614028D01*
X120583289Y-146614031D01*
X120656286Y-146740467D01*
X120656288Y-146740470D01*
X120656289Y-146740471D01*
X120759529Y-146843711D01*
X120885971Y-146916712D01*
X121026999Y-146954500D01*
X121027001Y-146954500D01*
X121172999Y-146954500D01*
X121173001Y-146954500D01*
X121314029Y-146916712D01*
X121440471Y-146843711D01*
X121543711Y-146740471D01*
X121616712Y-146614029D01*
X121654500Y-146473001D01*
X121654500Y-146326999D01*
X121616712Y-146185971D01*
X121574004Y-146111999D01*
X121557532Y-146044100D01*
X121574005Y-145988000D01*
X121584654Y-145969555D01*
X121616712Y-145914029D01*
X121654500Y-145773001D01*
X121654500Y-145626999D01*
X121616712Y-145485971D01*
X121561033Y-145389532D01*
X121543713Y-145359532D01*
X121543709Y-145359527D01*
X121440472Y-145256290D01*
X121440467Y-145256286D01*
X121314031Y-145183289D01*
X121314030Y-145183288D01*
X121314029Y-145183288D01*
X121173001Y-145145500D01*
X121026999Y-145145500D01*
X120885971Y-145183288D01*
X120885968Y-145183289D01*
X120759532Y-145256286D01*
X120759527Y-145256290D01*
X120656290Y-145359527D01*
X120656286Y-145359532D01*
X120583289Y-145485968D01*
X120583288Y-145485971D01*
X120545500Y-145626999D01*
X117846462Y-145626999D01*
X117816712Y-145515971D01*
X117743711Y-145389529D01*
X117640471Y-145286289D01*
X117640470Y-145286288D01*
X117640467Y-145286286D01*
X117514031Y-145213289D01*
X117514030Y-145213288D01*
X117514029Y-145213288D01*
X117373001Y-145175500D01*
X117226999Y-145175500D01*
X117085971Y-145213288D01*
X117085968Y-145213289D01*
X116959532Y-145286286D01*
X116959527Y-145286290D01*
X116856290Y-145389527D01*
X116856286Y-145389532D01*
X116783289Y-145515968D01*
X116783288Y-145515971D01*
X116745500Y-145656999D01*
X116745500Y-145762166D01*
X116725815Y-145829205D01*
X116673011Y-145874960D01*
X116603853Y-145884904D01*
X116546014Y-145860542D01*
X116540470Y-145856288D01*
X116414031Y-145783289D01*
X116414030Y-145783288D01*
X116414029Y-145783288D01*
X116273001Y-145745500D01*
X116126999Y-145745500D01*
X115985971Y-145783288D01*
X115985966Y-145783290D01*
X115936498Y-145811850D01*
X115868598Y-145828321D01*
X115802572Y-145805468D01*
X115759382Y-145750547D01*
X115750500Y-145704462D01*
X115750500Y-144960119D01*
X115750499Y-144960116D01*
X115750232Y-144959471D01*
X115740838Y-144915338D01*
X115740426Y-144899940D01*
X115711091Y-144756188D01*
X115702847Y-144715787D01*
X115702845Y-144715780D01*
X115633856Y-144540945D01*
X115633852Y-144540938D01*
X115535559Y-144380750D01*
X115535553Y-144380740D01*
X115487474Y-144326462D01*
X115410928Y-144240045D01*
X115263763Y-144123127D01*
X115263760Y-144123125D01*
X115263754Y-144123121D01*
X115098535Y-144033541D01*
X115098532Y-144033540D01*
X115039211Y-144013730D01*
X114920253Y-143974006D01*
X114920249Y-143974005D01*
X114920248Y-143974005D01*
X114734341Y-143946333D01*
X114640401Y-143948850D01*
X114640399Y-143948850D01*
X114625085Y-143949259D01*
X114617757Y-143949456D01*
X114614441Y-143949500D01*
X112889147Y-143949500D01*
X112885350Y-143949140D01*
X112875881Y-143949210D01*
X112837212Y-143949497D01*
X112837211Y-143949497D01*
X112836805Y-143949500D01*
X112797604Y-143949500D01*
X112796889Y-143949794D01*
X112784385Y-143949887D01*
X112756256Y-143950096D01*
X112744633Y-143950183D01*
X112564933Y-143983244D01*
X112393704Y-144047008D01*
X112393696Y-144047011D01*
X112236139Y-144139542D01*
X112097035Y-144258032D01*
X112097033Y-144258034D01*
X111980628Y-144398869D01*
X111980624Y-144398874D01*
X111890440Y-144557788D01*
X111890440Y-144557789D01*
X111829221Y-144729948D01*
X111798828Y-144910129D01*
X111798828Y-144910131D01*
X111799497Y-145000274D01*
X111799500Y-145001194D01*
X111799500Y-151865588D01*
X111779815Y-151932627D01*
X111763181Y-151953269D01*
X111453269Y-152263181D01*
X111391946Y-152296666D01*
X111365588Y-152299500D01*
X66504875Y-152299500D01*
X66495146Y-152299118D01*
X66306441Y-152284266D01*
X66287223Y-152281222D01*
X66107922Y-152238176D01*
X66089416Y-152232163D01*
X65919053Y-152161596D01*
X65901716Y-152152762D01*
X65744495Y-152056416D01*
X65728754Y-152044980D01*
X65588536Y-151925223D01*
X65574776Y-151911463D01*
X65455019Y-151771245D01*
X65443583Y-151755504D01*
X65347237Y-151598283D01*
X65338403Y-151580946D01*
X65325560Y-151549941D01*
X65267834Y-151410577D01*
X65261825Y-151392084D01*
X65218776Y-151212771D01*
X65215733Y-151193558D01*
X65200882Y-151004853D01*
X65200500Y-150995124D01*
X65200500Y-146831264D01*
X66495500Y-146831264D01*
X66495500Y-147168735D01*
X66533280Y-147504050D01*
X66533283Y-147504064D01*
X66608374Y-147833062D01*
X66608378Y-147833074D01*
X66719831Y-148151587D01*
X66866246Y-148455620D01*
X66866248Y-148455623D01*
X67045787Y-148741357D01*
X67107978Y-148819343D01*
X67256181Y-149005186D01*
X67494813Y-149243818D01*
X67654106Y-149370848D01*
X67758643Y-149454213D01*
X68044377Y-149633752D01*
X68348416Y-149780170D01*
X68587638Y-149863877D01*
X68666925Y-149891621D01*
X68666937Y-149891625D01*
X68995935Y-149966717D01*
X68995944Y-149966718D01*
X68995949Y-149966719D01*
X69219492Y-149991905D01*
X69331265Y-150004499D01*
X69331268Y-150004500D01*
X69331271Y-150004500D01*
X69668732Y-150004500D01*
X69668733Y-150004499D01*
X69840108Y-149985190D01*
X70004050Y-149966719D01*
X70004053Y-149966718D01*
X70004065Y-149966717D01*
X70333063Y-149891625D01*
X70651584Y-149780170D01*
X70955623Y-149633752D01*
X71241357Y-149454213D01*
X71450429Y-149287484D01*
X71505186Y-149243818D01*
X71505188Y-149243815D01*
X71505193Y-149243812D01*
X71743812Y-149005193D01*
X71954213Y-148741357D01*
X72133752Y-148455623D01*
X72280170Y-148151584D01*
X72391625Y-147833063D01*
X72466717Y-147504065D01*
X72504500Y-147168729D01*
X72504500Y-146831271D01*
X72483002Y-146640471D01*
X72466719Y-146495949D01*
X72466718Y-146495944D01*
X72466717Y-146495935D01*
X72391625Y-146166937D01*
X72280170Y-145848416D01*
X72133752Y-145544377D01*
X71954213Y-145258643D01*
X71783429Y-145044485D01*
X71743818Y-144994813D01*
X71505190Y-144756185D01*
X71505183Y-144756179D01*
X71338229Y-144623040D01*
X71241357Y-144545787D01*
X71022913Y-144408529D01*
X70955620Y-144366246D01*
X70651587Y-144219831D01*
X70333074Y-144108378D01*
X70333062Y-144108374D01*
X70064198Y-144047008D01*
X70004065Y-144033283D01*
X70004062Y-144033282D01*
X70004050Y-144033280D01*
X69668735Y-143995500D01*
X69668729Y-143995500D01*
X69331271Y-143995500D01*
X69331264Y-143995500D01*
X68995949Y-144033280D01*
X68995935Y-144033283D01*
X68666937Y-144108374D01*
X68666925Y-144108378D01*
X68348412Y-144219831D01*
X68044379Y-144366246D01*
X67758644Y-144545786D01*
X67494817Y-144756179D01*
X67494809Y-144756185D01*
X67256181Y-144994813D01*
X67045786Y-145258644D01*
X66866246Y-145544379D01*
X66719831Y-145848412D01*
X66608378Y-146166925D01*
X66608374Y-146166937D01*
X66533283Y-146495935D01*
X66533280Y-146495949D01*
X66495500Y-146831264D01*
X65200500Y-146831264D01*
X65200500Y-143460119D01*
X65200499Y-143460116D01*
X65169976Y-143386426D01*
X65113574Y-143330024D01*
X65039883Y-143299500D01*
X65039882Y-143299500D01*
X60004875Y-143299500D01*
X59995146Y-143299118D01*
X59806441Y-143284266D01*
X59787223Y-143281222D01*
X59613212Y-143239446D01*
X59607922Y-143238176D01*
X59589416Y-143232163D01*
X59419053Y-143161596D01*
X59401716Y-143152762D01*
X59359675Y-143126999D01*
X118757369Y-143126999D01*
X118757369Y-143273001D01*
X118777498Y-143348122D01*
X118795157Y-143414028D01*
X118795158Y-143414031D01*
X118868155Y-143540467D01*
X118868157Y-143540470D01*
X118868158Y-143540471D01*
X118971398Y-143643711D01*
X118971399Y-143643712D01*
X118971401Y-143643713D01*
X118991959Y-143655582D01*
X119097840Y-143716712D01*
X119238868Y-143754500D01*
X119238870Y-143754500D01*
X119384868Y-143754500D01*
X119384870Y-143754500D01*
X119525898Y-143716712D01*
X119633657Y-143654497D01*
X119701555Y-143638025D01*
X119757655Y-143654498D01*
X119759528Y-143655579D01*
X119759529Y-143655580D01*
X119885971Y-143728581D01*
X120026999Y-143766369D01*
X120027001Y-143766369D01*
X120172999Y-143766369D01*
X120173001Y-143766369D01*
X120314029Y-143728581D01*
X120440471Y-143655580D01*
X120543711Y-143552340D01*
X120616712Y-143425898D01*
X120654500Y-143284870D01*
X120654500Y-143138868D01*
X120616712Y-142997840D01*
X120571128Y-142918885D01*
X120543713Y-142871401D01*
X120543709Y-142871396D01*
X120440472Y-142768159D01*
X120440467Y-142768155D01*
X120423588Y-142758410D01*
X122645500Y-142758410D01*
X122645500Y-142904412D01*
X122682911Y-143044031D01*
X122683288Y-143045439D01*
X122683289Y-143045442D01*
X122756286Y-143171878D01*
X122756288Y-143171881D01*
X122756289Y-143171882D01*
X122859529Y-143275122D01*
X122859530Y-143275123D01*
X122859532Y-143275124D01*
X122876411Y-143284869D01*
X122985971Y-143348123D01*
X123126999Y-143385911D01*
X123127001Y-143385911D01*
X123272999Y-143385911D01*
X123273001Y-143385911D01*
X123414029Y-143348123D01*
X123540471Y-143275122D01*
X123618027Y-143197565D01*
X123679346Y-143164083D01*
X123749038Y-143169067D01*
X123793386Y-143197568D01*
X123869529Y-143273711D01*
X123869530Y-143273712D01*
X123869532Y-143273713D01*
X123888855Y-143284869D01*
X123995971Y-143346712D01*
X124136999Y-143384500D01*
X124137001Y-143384500D01*
X124282999Y-143384500D01*
X124283001Y-143384500D01*
X124424029Y-143346712D01*
X124550471Y-143273711D01*
X124617319Y-143206863D01*
X124678642Y-143173378D01*
X124748334Y-143178362D01*
X124792681Y-143206863D01*
X124859529Y-143273711D01*
X124859530Y-143273712D01*
X124859532Y-143273713D01*
X124878855Y-143284869D01*
X124985971Y-143346712D01*
X125126999Y-143384500D01*
X125127001Y-143384500D01*
X125272999Y-143384500D01*
X125273001Y-143384500D01*
X125414029Y-143346712D01*
X125540471Y-143273711D01*
X125643711Y-143170471D01*
X125716712Y-143044029D01*
X125754500Y-142903001D01*
X125754500Y-142758410D01*
X129642800Y-142758410D01*
X129642800Y-142904412D01*
X129680211Y-143044031D01*
X129680588Y-143045439D01*
X129680589Y-143045442D01*
X129753586Y-143171878D01*
X129753588Y-143171881D01*
X129753589Y-143171882D01*
X129856829Y-143275122D01*
X129856830Y-143275123D01*
X129856832Y-143275124D01*
X129873711Y-143284869D01*
X129983271Y-143348123D01*
X130124299Y-143385911D01*
X130124301Y-143385911D01*
X130270299Y-143385911D01*
X130270301Y-143385911D01*
X130411329Y-143348123D01*
X130537771Y-143275122D01*
X130609619Y-143203274D01*
X130670942Y-143169789D01*
X130740634Y-143174773D01*
X130784981Y-143203274D01*
X130856829Y-143275122D01*
X130856830Y-143275123D01*
X130856832Y-143275124D01*
X130873711Y-143284869D01*
X130983271Y-143348123D01*
X131124299Y-143385911D01*
X131124301Y-143385911D01*
X131270299Y-143385911D01*
X131270301Y-143385911D01*
X131411329Y-143348123D01*
X131537771Y-143275122D01*
X131641011Y-143171882D01*
X131714012Y-143045440D01*
X131751800Y-142904412D01*
X131751800Y-142758410D01*
X134642800Y-142758410D01*
X134642800Y-142904412D01*
X134680211Y-143044031D01*
X134680588Y-143045439D01*
X134680589Y-143045442D01*
X134753586Y-143171878D01*
X134753588Y-143171881D01*
X134753589Y-143171882D01*
X134856829Y-143275122D01*
X134856830Y-143275123D01*
X134856832Y-143275124D01*
X134873711Y-143284869D01*
X134983271Y-143348123D01*
X135124299Y-143385911D01*
X135124301Y-143385911D01*
X135270299Y-143385911D01*
X135270301Y-143385911D01*
X135411329Y-143348123D01*
X135537771Y-143275122D01*
X135609619Y-143203274D01*
X135670942Y-143169789D01*
X135740634Y-143174773D01*
X135784981Y-143203274D01*
X135856829Y-143275122D01*
X135856830Y-143275123D01*
X135856832Y-143275124D01*
X135873711Y-143284869D01*
X135983271Y-143348123D01*
X136124299Y-143385911D01*
X136124301Y-143385911D01*
X136270299Y-143385911D01*
X136270301Y-143385911D01*
X136411329Y-143348123D01*
X136537771Y-143275122D01*
X136641011Y-143171882D01*
X136714012Y-143045440D01*
X136751800Y-142904412D01*
X136751800Y-142758410D01*
X136714012Y-142617382D01*
X136644699Y-142497327D01*
X136641013Y-142490943D01*
X136641009Y-142490938D01*
X136537772Y-142387701D01*
X136537767Y-142387697D01*
X136411331Y-142314700D01*
X136411330Y-142314699D01*
X136411329Y-142314699D01*
X136270301Y-142276911D01*
X136124299Y-142276911D01*
X135983271Y-142314699D01*
X135983268Y-142314700D01*
X135856832Y-142387697D01*
X135856827Y-142387701D01*
X135784981Y-142459548D01*
X135723658Y-142493033D01*
X135653966Y-142488049D01*
X135609619Y-142459548D01*
X135537772Y-142387701D01*
X135537767Y-142387697D01*
X135411331Y-142314700D01*
X135411330Y-142314699D01*
X135411329Y-142314699D01*
X135270301Y-142276911D01*
X135124299Y-142276911D01*
X134983271Y-142314699D01*
X134983268Y-142314700D01*
X134856832Y-142387697D01*
X134856827Y-142387701D01*
X134753590Y-142490938D01*
X134753586Y-142490943D01*
X134680589Y-142617379D01*
X134680588Y-142617382D01*
X134642800Y-142758410D01*
X131751800Y-142758410D01*
X131714012Y-142617382D01*
X131644699Y-142497327D01*
X131641013Y-142490943D01*
X131641009Y-142490938D01*
X131537772Y-142387701D01*
X131537767Y-142387697D01*
X131411331Y-142314700D01*
X131411330Y-142314699D01*
X131411329Y-142314699D01*
X131270301Y-142276911D01*
X131124299Y-142276911D01*
X130983271Y-142314699D01*
X130983268Y-142314700D01*
X130856832Y-142387697D01*
X130856827Y-142387701D01*
X130784981Y-142459548D01*
X130723658Y-142493033D01*
X130653966Y-142488049D01*
X130609619Y-142459548D01*
X130537772Y-142387701D01*
X130537767Y-142387697D01*
X130411331Y-142314700D01*
X130411330Y-142314699D01*
X130411329Y-142314699D01*
X130270301Y-142276911D01*
X130124299Y-142276911D01*
X129983271Y-142314699D01*
X129983268Y-142314700D01*
X129856832Y-142387697D01*
X129856827Y-142387701D01*
X129753590Y-142490938D01*
X129753586Y-142490943D01*
X129680589Y-142617379D01*
X129680588Y-142617382D01*
X129642800Y-142758410D01*
X125754500Y-142758410D01*
X125754500Y-142756999D01*
X125716712Y-142615971D01*
X125645336Y-142492343D01*
X125643713Y-142489532D01*
X125643709Y-142489527D01*
X125540472Y-142386290D01*
X125540467Y-142386286D01*
X125414031Y-142313289D01*
X125414030Y-142313288D01*
X125414029Y-142313288D01*
X125273001Y-142275500D01*
X125126999Y-142275500D01*
X124985971Y-142313288D01*
X124985968Y-142313289D01*
X124859532Y-142386286D01*
X124859527Y-142386290D01*
X124792681Y-142453137D01*
X124731358Y-142486622D01*
X124661666Y-142481638D01*
X124617319Y-142453137D01*
X124550472Y-142386290D01*
X124550467Y-142386286D01*
X124424031Y-142313289D01*
X124424030Y-142313288D01*
X124424029Y-142313288D01*
X124283001Y-142275500D01*
X124136999Y-142275500D01*
X123995971Y-142313288D01*
X123995968Y-142313289D01*
X123869532Y-142386286D01*
X123791975Y-142463843D01*
X123730651Y-142497327D01*
X123660960Y-142492343D01*
X123616613Y-142463842D01*
X123540472Y-142387701D01*
X123540467Y-142387697D01*
X123414031Y-142314700D01*
X123414030Y-142314699D01*
X123414029Y-142314699D01*
X123273001Y-142276911D01*
X123126999Y-142276911D01*
X122985971Y-142314699D01*
X122985968Y-142314700D01*
X122859532Y-142387697D01*
X122859527Y-142387701D01*
X122756290Y-142490938D01*
X122756286Y-142490943D01*
X122683289Y-142617379D01*
X122683288Y-142617382D01*
X122645500Y-142758410D01*
X120423588Y-142758410D01*
X120314031Y-142695158D01*
X120314030Y-142695157D01*
X120314029Y-142695157D01*
X120173001Y-142657369D01*
X120026999Y-142657369D01*
X119885971Y-142695157D01*
X119885970Y-142695157D01*
X119778212Y-142757371D01*
X119710312Y-142773843D01*
X119654213Y-142757370D01*
X119525900Y-142683289D01*
X119525899Y-142683288D01*
X119525898Y-142683288D01*
X119384870Y-142645500D01*
X119238868Y-142645500D01*
X119097840Y-142683288D01*
X119097837Y-142683289D01*
X118971401Y-142756286D01*
X118971396Y-142756290D01*
X118868159Y-142859527D01*
X118868155Y-142859532D01*
X118795158Y-142985968D01*
X118795157Y-142985971D01*
X118757369Y-143126999D01*
X59359675Y-143126999D01*
X59244495Y-143056416D01*
X59228754Y-143044980D01*
X59088536Y-142925223D01*
X59074776Y-142911463D01*
X58955019Y-142771245D01*
X58943583Y-142755504D01*
X58847237Y-142598283D01*
X58838403Y-142580946D01*
X58801702Y-142492343D01*
X58767834Y-142410577D01*
X58761825Y-142392084D01*
X58718776Y-142212771D01*
X58715733Y-142193558D01*
X58700882Y-142004853D01*
X58700500Y-141995124D01*
X58700500Y-138636999D01*
X78965500Y-138636999D01*
X78965500Y-138783001D01*
X79000524Y-138913711D01*
X79003288Y-138924028D01*
X79003289Y-138924031D01*
X79076286Y-139050467D01*
X79076290Y-139050472D01*
X79078137Y-139052319D01*
X79079196Y-139054260D01*
X79081235Y-139056916D01*
X79080820Y-139057233D01*
X79111622Y-139113642D01*
X79106638Y-139183334D01*
X79081138Y-139223010D01*
X79081235Y-139223084D01*
X79080351Y-139224235D01*
X79078137Y-139227681D01*
X79076290Y-139229527D01*
X79076286Y-139229532D01*
X79003289Y-139355968D01*
X79003288Y-139355971D01*
X78965500Y-139496999D01*
X78965500Y-139643001D01*
X78981577Y-139702999D01*
X79003288Y-139784028D01*
X79003289Y-139784031D01*
X79076286Y-139910467D01*
X79076288Y-139910470D01*
X79076289Y-139910471D01*
X79179529Y-140013711D01*
X79179530Y-140013712D01*
X79179532Y-140013713D01*
X79230259Y-140043000D01*
X79305971Y-140086712D01*
X79446999Y-140124500D01*
X79447001Y-140124500D01*
X79592999Y-140124500D01*
X79593001Y-140124500D01*
X79734029Y-140086712D01*
X79860471Y-140013711D01*
X79963711Y-139910471D01*
X80036712Y-139784029D01*
X80074500Y-139643001D01*
X80074500Y-139496999D01*
X80036712Y-139355971D01*
X80031532Y-139346999D01*
X87505500Y-139346999D01*
X87505500Y-139493001D01*
X87542083Y-139629529D01*
X87543288Y-139634028D01*
X87543289Y-139634031D01*
X87616286Y-139760467D01*
X87616288Y-139760470D01*
X87616289Y-139760471D01*
X87719529Y-139863711D01*
X87845971Y-139936712D01*
X87986999Y-139974500D01*
X87987001Y-139974500D01*
X88132999Y-139974500D01*
X88133001Y-139974500D01*
X88274029Y-139936712D01*
X88342814Y-139896999D01*
X91675500Y-139896999D01*
X91675500Y-140043001D01*
X91703289Y-140146710D01*
X91713288Y-140184028D01*
X91713289Y-140184031D01*
X91786286Y-140310467D01*
X91786288Y-140310470D01*
X91786289Y-140310471D01*
X91889529Y-140413711D01*
X92015971Y-140486712D01*
X92156999Y-140524500D01*
X92157001Y-140524500D01*
X92302999Y-140524500D01*
X92303001Y-140524500D01*
X92312521Y-140521949D01*
X92382371Y-140523611D01*
X92440234Y-140562772D01*
X92467739Y-140627001D01*
X92464391Y-140673814D01*
X92455500Y-140706995D01*
X92455500Y-140853000D01*
X92493288Y-140994028D01*
X92493289Y-140994031D01*
X92566286Y-141120467D01*
X92566288Y-141120470D01*
X92566289Y-141120471D01*
X92669529Y-141223711D01*
X92795971Y-141296712D01*
X92936999Y-141334500D01*
X92937001Y-141334500D01*
X93082999Y-141334500D01*
X93083001Y-141334500D01*
X93224029Y-141296712D01*
X93350471Y-141223711D01*
X93453711Y-141120471D01*
X93526712Y-140994029D01*
X93564500Y-140853001D01*
X93564500Y-140706999D01*
X93526712Y-140565971D01*
X93453711Y-140439529D01*
X93350471Y-140336289D01*
X93350470Y-140336288D01*
X93350467Y-140336286D01*
X93224031Y-140263289D01*
X93224030Y-140263288D01*
X93224029Y-140263288D01*
X93083001Y-140225500D01*
X92936999Y-140225500D01*
X92927470Y-140228053D01*
X92857620Y-140226386D01*
X92799760Y-140187220D01*
X92772259Y-140122990D01*
X92775608Y-140076183D01*
X92784500Y-140043001D01*
X92784500Y-139896999D01*
X92746712Y-139755971D01*
X92681489Y-139643001D01*
X92673713Y-139629532D01*
X92673709Y-139629527D01*
X92601181Y-139556999D01*
X96495500Y-139556999D01*
X96495500Y-139703001D01*
X96509693Y-139755968D01*
X96533288Y-139844028D01*
X96533289Y-139844031D01*
X96606286Y-139970467D01*
X96606288Y-139970470D01*
X96606289Y-139970471D01*
X96709529Y-140073711D01*
X96709530Y-140073712D01*
X96709532Y-140073713D01*
X96732047Y-140086712D01*
X96835971Y-140146712D01*
X96976999Y-140184500D01*
X96977001Y-140184500D01*
X97122999Y-140184500D01*
X97123001Y-140184500D01*
X97264029Y-140146712D01*
X97390471Y-140073711D01*
X97493711Y-139970471D01*
X97566712Y-139844029D01*
X97604500Y-139703001D01*
X97604500Y-139556999D01*
X97566712Y-139415971D01*
X97522979Y-139340224D01*
X97506507Y-139272325D01*
X97529360Y-139206298D01*
X97584281Y-139163107D01*
X97653834Y-139156466D01*
X97662435Y-139158444D01*
X97796999Y-139194500D01*
X97797001Y-139194500D01*
X97942999Y-139194500D01*
X97943001Y-139194500D01*
X98084029Y-139156712D01*
X98210471Y-139083711D01*
X98313711Y-138980471D01*
X98386712Y-138854029D01*
X98424500Y-138713001D01*
X98424500Y-138566999D01*
X98386712Y-138425971D01*
X98383767Y-138420870D01*
X98383767Y-138420869D01*
X98352665Y-138366999D01*
X122645500Y-138366999D01*
X122645500Y-138513001D01*
X122678726Y-138637001D01*
X122683288Y-138654028D01*
X122683289Y-138654031D01*
X122756286Y-138780467D01*
X122756288Y-138780470D01*
X122756289Y-138780471D01*
X122859529Y-138883711D01*
X122859530Y-138883712D01*
X122859532Y-138883713D01*
X122893439Y-138903289D01*
X122985971Y-138956712D01*
X123126999Y-138994500D01*
X123127001Y-138994500D01*
X123272999Y-138994500D01*
X123273001Y-138994500D01*
X123414029Y-138956712D01*
X123540471Y-138883711D01*
X123612319Y-138811863D01*
X123673642Y-138778378D01*
X123743334Y-138783362D01*
X123787681Y-138811863D01*
X123859529Y-138883711D01*
X123859530Y-138883712D01*
X123859532Y-138883713D01*
X123893439Y-138903289D01*
X123985971Y-138956712D01*
X124126999Y-138994500D01*
X124127001Y-138994500D01*
X124272999Y-138994500D01*
X124273001Y-138994500D01*
X124414029Y-138956712D01*
X124540471Y-138883711D01*
X124607319Y-138816863D01*
X124668642Y-138783378D01*
X124738334Y-138788362D01*
X124782681Y-138816863D01*
X124859529Y-138893711D01*
X124859530Y-138893712D01*
X124859532Y-138893713D01*
X124912045Y-138924031D01*
X124985971Y-138966712D01*
X125126999Y-139004500D01*
X125127001Y-139004500D01*
X125272999Y-139004500D01*
X125273001Y-139004500D01*
X125414029Y-138966712D01*
X125540471Y-138893711D01*
X125643711Y-138790471D01*
X125716712Y-138664029D01*
X125754500Y-138523001D01*
X125754500Y-138376999D01*
X125751821Y-138366999D01*
X129642800Y-138366999D01*
X129642800Y-138513001D01*
X129676026Y-138637001D01*
X129680588Y-138654028D01*
X129680589Y-138654031D01*
X129753586Y-138780467D01*
X129753588Y-138780470D01*
X129753589Y-138780471D01*
X129856829Y-138883711D01*
X129856830Y-138883712D01*
X129856832Y-138883713D01*
X129890739Y-138903289D01*
X129983271Y-138956712D01*
X130124299Y-138994500D01*
X130124301Y-138994500D01*
X130270299Y-138994500D01*
X130270301Y-138994500D01*
X130411329Y-138956712D01*
X130537771Y-138883711D01*
X130594619Y-138826863D01*
X130655942Y-138793378D01*
X130725634Y-138798362D01*
X130769981Y-138826863D01*
X130856829Y-138913711D01*
X130856830Y-138913712D01*
X130856832Y-138913713D01*
X130874700Y-138924029D01*
X130983271Y-138986712D01*
X131124299Y-139024500D01*
X131124301Y-139024500D01*
X131270299Y-139024500D01*
X131270301Y-139024500D01*
X131411329Y-138986712D01*
X131537771Y-138913711D01*
X131641011Y-138810471D01*
X131714012Y-138684029D01*
X131751800Y-138543001D01*
X131751800Y-138396999D01*
X134642800Y-138396999D01*
X134642800Y-138543001D01*
X134672550Y-138654028D01*
X134680588Y-138684028D01*
X134680589Y-138684031D01*
X134753586Y-138810467D01*
X134753588Y-138810470D01*
X134753589Y-138810471D01*
X134856829Y-138913711D01*
X134856830Y-138913712D01*
X134856832Y-138913713D01*
X134874700Y-138924029D01*
X134983271Y-138986712D01*
X135124299Y-139024500D01*
X135124301Y-139024500D01*
X135270299Y-139024500D01*
X135270301Y-139024500D01*
X135411329Y-138986712D01*
X135537771Y-138913711D01*
X135609619Y-138841863D01*
X135670942Y-138808378D01*
X135740634Y-138813362D01*
X135784981Y-138841863D01*
X135856829Y-138913711D01*
X135856830Y-138913712D01*
X135856832Y-138913713D01*
X135874700Y-138924029D01*
X135983271Y-138986712D01*
X136124299Y-139024500D01*
X136124301Y-139024500D01*
X136270299Y-139024500D01*
X136270301Y-139024500D01*
X136411329Y-138986712D01*
X136537771Y-138913711D01*
X136641011Y-138810471D01*
X136714012Y-138684029D01*
X136751800Y-138543001D01*
X136751800Y-138396999D01*
X136714012Y-138255971D01*
X136656005Y-138155500D01*
X136641013Y-138129532D01*
X136641009Y-138129527D01*
X136537772Y-138026290D01*
X136537767Y-138026286D01*
X136411331Y-137953289D01*
X136411330Y-137953288D01*
X136411329Y-137953288D01*
X136270301Y-137915500D01*
X136124299Y-137915500D01*
X135983271Y-137953288D01*
X135983268Y-137953289D01*
X135856832Y-138026286D01*
X135856827Y-138026290D01*
X135784981Y-138098137D01*
X135723658Y-138131622D01*
X135653966Y-138126638D01*
X135609619Y-138098137D01*
X135537772Y-138026290D01*
X135537767Y-138026286D01*
X135411331Y-137953289D01*
X135411330Y-137953288D01*
X135411329Y-137953288D01*
X135270301Y-137915500D01*
X135124299Y-137915500D01*
X134983271Y-137953288D01*
X134983268Y-137953289D01*
X134856832Y-138026286D01*
X134856827Y-138026290D01*
X134753590Y-138129527D01*
X134753586Y-138129532D01*
X134680589Y-138255968D01*
X134680588Y-138255971D01*
X134642800Y-138396999D01*
X131751800Y-138396999D01*
X131714012Y-138255971D01*
X131656005Y-138155500D01*
X131641013Y-138129532D01*
X131641009Y-138129527D01*
X131537772Y-138026290D01*
X131537767Y-138026286D01*
X131411331Y-137953289D01*
X131411330Y-137953288D01*
X131411329Y-137953288D01*
X131270301Y-137915500D01*
X131124299Y-137915500D01*
X130983271Y-137953288D01*
X130983268Y-137953289D01*
X130856832Y-138026286D01*
X130856827Y-138026290D01*
X130799981Y-138083137D01*
X130738658Y-138116622D01*
X130668966Y-138111638D01*
X130624619Y-138083137D01*
X130537772Y-137996290D01*
X130537767Y-137996286D01*
X130411331Y-137923289D01*
X130411330Y-137923288D01*
X130411329Y-137923288D01*
X130270301Y-137885500D01*
X130124299Y-137885500D01*
X129983271Y-137923288D01*
X129983268Y-137923289D01*
X129856832Y-137996286D01*
X129856827Y-137996290D01*
X129753590Y-138099527D01*
X129753586Y-138099532D01*
X129680589Y-138225968D01*
X129680588Y-138225971D01*
X129642800Y-138366999D01*
X125751821Y-138366999D01*
X125716712Y-138235971D01*
X125670252Y-138155500D01*
X125643713Y-138109532D01*
X125643709Y-138109527D01*
X125540472Y-138006290D01*
X125540467Y-138006286D01*
X125414031Y-137933289D01*
X125414030Y-137933288D01*
X125414029Y-137933288D01*
X125273001Y-137895500D01*
X125126999Y-137895500D01*
X124985971Y-137933288D01*
X124985968Y-137933289D01*
X124859532Y-138006286D01*
X124859527Y-138006290D01*
X124792681Y-138073137D01*
X124731358Y-138106622D01*
X124661666Y-138101638D01*
X124617319Y-138073137D01*
X124540472Y-137996290D01*
X124540467Y-137996286D01*
X124414031Y-137923289D01*
X124414030Y-137923288D01*
X124414029Y-137923288D01*
X124273001Y-137885500D01*
X124126999Y-137885500D01*
X123985971Y-137923288D01*
X123985968Y-137923289D01*
X123859532Y-137996286D01*
X123859527Y-137996290D01*
X123787681Y-138068137D01*
X123726358Y-138101622D01*
X123656666Y-138096638D01*
X123612319Y-138068137D01*
X123540472Y-137996290D01*
X123540467Y-137996286D01*
X123414031Y-137923289D01*
X123414030Y-137923288D01*
X123414029Y-137923288D01*
X123273001Y-137885500D01*
X123126999Y-137885500D01*
X122985971Y-137923288D01*
X122985968Y-137923289D01*
X122859532Y-137996286D01*
X122859527Y-137996290D01*
X122756290Y-138099527D01*
X122756286Y-138099532D01*
X122683289Y-138225968D01*
X122683288Y-138225971D01*
X122645500Y-138366999D01*
X98352665Y-138366999D01*
X98313715Y-138299535D01*
X98313709Y-138299527D01*
X98210472Y-138196290D01*
X98210467Y-138196286D01*
X98084031Y-138123289D01*
X98084030Y-138123288D01*
X98084029Y-138123288D01*
X97943001Y-138085500D01*
X97796999Y-138085500D01*
X97655971Y-138123288D01*
X97655968Y-138123289D01*
X97529532Y-138196286D01*
X97529527Y-138196290D01*
X97426290Y-138299527D01*
X97426286Y-138299532D01*
X97353289Y-138425968D01*
X97353288Y-138425971D01*
X97315500Y-138566999D01*
X97315500Y-138713001D01*
X97351539Y-138847499D01*
X97353288Y-138854028D01*
X97353289Y-138854031D01*
X97397019Y-138929774D01*
X97413492Y-138997675D01*
X97390639Y-139063701D01*
X97335718Y-139106892D01*
X97266164Y-139113533D01*
X97257539Y-139111549D01*
X97201994Y-139096666D01*
X97123001Y-139075500D01*
X96976999Y-139075500D01*
X96835971Y-139113288D01*
X96835968Y-139113289D01*
X96709532Y-139186286D01*
X96709527Y-139186290D01*
X96606290Y-139289527D01*
X96606286Y-139289532D01*
X96533289Y-139415968D01*
X96533288Y-139415971D01*
X96495500Y-139556999D01*
X92601181Y-139556999D01*
X92570472Y-139526290D01*
X92570467Y-139526286D01*
X92444031Y-139453289D01*
X92444030Y-139453288D01*
X92444029Y-139453288D01*
X92303001Y-139415500D01*
X92156999Y-139415500D01*
X92015971Y-139453288D01*
X92015968Y-139453289D01*
X91889532Y-139526286D01*
X91889527Y-139526290D01*
X91786290Y-139629527D01*
X91786286Y-139629532D01*
X91713289Y-139755968D01*
X91713288Y-139755971D01*
X91675500Y-139896999D01*
X88342814Y-139896999D01*
X88400471Y-139863711D01*
X88503711Y-139760471D01*
X88576712Y-139634029D01*
X88614500Y-139493001D01*
X88614500Y-139346999D01*
X88606438Y-139316911D01*
X88608101Y-139247066D01*
X88647263Y-139189203D01*
X88694119Y-139165046D01*
X88714029Y-139159712D01*
X88840471Y-139086711D01*
X88943711Y-138983471D01*
X89016712Y-138857029D01*
X89054500Y-138716001D01*
X89054500Y-138569999D01*
X89016712Y-138428971D01*
X88943711Y-138302529D01*
X88861181Y-138219999D01*
X89735500Y-138219999D01*
X89735500Y-138366001D01*
X89770325Y-138495968D01*
X89773288Y-138507028D01*
X89773289Y-138507031D01*
X89846286Y-138633467D01*
X89846288Y-138633470D01*
X89846289Y-138633471D01*
X89949529Y-138736711D01*
X90075971Y-138809712D01*
X90216999Y-138847500D01*
X90217001Y-138847500D01*
X90362999Y-138847500D01*
X90363001Y-138847500D01*
X90504029Y-138809712D01*
X90630471Y-138736711D01*
X90733711Y-138633471D01*
X90806712Y-138507029D01*
X90844500Y-138366001D01*
X90844500Y-138219999D01*
X90806712Y-138078971D01*
X90764749Y-138006289D01*
X90733713Y-137952532D01*
X90733709Y-137952527D01*
X90630472Y-137849290D01*
X90630467Y-137849286D01*
X90504031Y-137776289D01*
X90504030Y-137776288D01*
X90504029Y-137776288D01*
X90363001Y-137738500D01*
X90216999Y-137738500D01*
X90075971Y-137776288D01*
X90075968Y-137776289D01*
X89949532Y-137849286D01*
X89949527Y-137849290D01*
X89846290Y-137952527D01*
X89846286Y-137952532D01*
X89773289Y-138078968D01*
X89773288Y-138078971D01*
X89735500Y-138219999D01*
X88861181Y-138219999D01*
X88840471Y-138199289D01*
X88840470Y-138199288D01*
X88840467Y-138199286D01*
X88714031Y-138126289D01*
X88714030Y-138126288D01*
X88714029Y-138126288D01*
X88573001Y-138088500D01*
X88426999Y-138088500D01*
X88285971Y-138126288D01*
X88285968Y-138126289D01*
X88159532Y-138199286D01*
X88159527Y-138199290D01*
X88056290Y-138302527D01*
X88056286Y-138302532D01*
X87983289Y-138428968D01*
X87983288Y-138428971D01*
X87945500Y-138569999D01*
X87945500Y-138716002D01*
X87953561Y-138746086D01*
X87951898Y-138815935D01*
X87912735Y-138873798D01*
X87865884Y-138897952D01*
X87845970Y-138903288D01*
X87845968Y-138903289D01*
X87719532Y-138976286D01*
X87719527Y-138976290D01*
X87616290Y-139079527D01*
X87616286Y-139079532D01*
X87543289Y-139205968D01*
X87543288Y-139205971D01*
X87505500Y-139346999D01*
X80031532Y-139346999D01*
X79963711Y-139229529D01*
X79949665Y-139215483D01*
X79941259Y-139200417D01*
X79937187Y-139182491D01*
X79928378Y-139166358D01*
X79929610Y-139149128D01*
X79925784Y-139132283D01*
X79932050Y-139115001D01*
X79933362Y-139096666D01*
X79945610Y-139077607D01*
X79949603Y-139066598D01*
X79955652Y-139061982D01*
X79958861Y-139056989D01*
X79958765Y-139056916D01*
X79959648Y-139055764D01*
X79961863Y-139052319D01*
X79963711Y-139050471D01*
X80036712Y-138924029D01*
X80074500Y-138783001D01*
X80074500Y-138636999D01*
X80036712Y-138495971D01*
X79979571Y-138396999D01*
X79963713Y-138369532D01*
X79963709Y-138369527D01*
X79860472Y-138266290D01*
X79860467Y-138266286D01*
X79734031Y-138193289D01*
X79734030Y-138193288D01*
X79734029Y-138193288D01*
X79593001Y-138155500D01*
X79446999Y-138155500D01*
X79305971Y-138193288D01*
X79305968Y-138193289D01*
X79179532Y-138266286D01*
X79179527Y-138266290D01*
X79076290Y-138369527D01*
X79076286Y-138369532D01*
X79003289Y-138495968D01*
X79003288Y-138495971D01*
X78965500Y-138636999D01*
X58700500Y-138636999D01*
X58700500Y-134444647D01*
X66387500Y-134444647D01*
X66387500Y-134695352D01*
X66420222Y-134943907D01*
X66485111Y-135186076D01*
X66581047Y-135417685D01*
X66581050Y-135417692D01*
X66706402Y-135634808D01*
X66706404Y-135634811D01*
X66706405Y-135634812D01*
X66859019Y-135833703D01*
X66859025Y-135833710D01*
X67036289Y-136010974D01*
X67036295Y-136010979D01*
X67235192Y-136163598D01*
X67452308Y-136288950D01*
X67683928Y-136384890D01*
X67926089Y-136449777D01*
X68112508Y-136474319D01*
X68174647Y-136482500D01*
X68174648Y-136482500D01*
X68425353Y-136482500D01*
X68475063Y-136475955D01*
X68673911Y-136449777D01*
X68916072Y-136384890D01*
X69147692Y-136288950D01*
X69364808Y-136163598D01*
X69563705Y-136010979D01*
X69740979Y-135833705D01*
X69893598Y-135634808D01*
X70018950Y-135417692D01*
X70114890Y-135186072D01*
X70179777Y-134943911D01*
X70212500Y-134695352D01*
X70212500Y-134444648D01*
X70179777Y-134196089D01*
X70114890Y-133953928D01*
X70018950Y-133722308D01*
X69893598Y-133505192D01*
X69740979Y-133306295D01*
X69740974Y-133306289D01*
X69563710Y-133129025D01*
X69563703Y-133129019D01*
X69364812Y-132976405D01*
X69364811Y-132976404D01*
X69364808Y-132976402D01*
X69147692Y-132851050D01*
X69147685Y-132851047D01*
X68916076Y-132755111D01*
X68673907Y-132690222D01*
X68425353Y-132657500D01*
X68425352Y-132657500D01*
X68174648Y-132657500D01*
X68174647Y-132657500D01*
X67926092Y-132690222D01*
X67683923Y-132755111D01*
X67452314Y-132851047D01*
X67452305Y-132851051D01*
X67235187Y-132976405D01*
X67036296Y-133129019D01*
X67036289Y-133129025D01*
X66859025Y-133306289D01*
X66859019Y-133306296D01*
X66706405Y-133505187D01*
X66581051Y-133722305D01*
X66581047Y-133722314D01*
X66485111Y-133953923D01*
X66420222Y-134196092D01*
X66387500Y-134444647D01*
X58700500Y-134444647D01*
X58700500Y-131413107D01*
X69196000Y-131413107D01*
X69196000Y-131586892D01*
X69223183Y-131758521D01*
X69276884Y-131923793D01*
X69355776Y-132078624D01*
X69355777Y-132078626D01*
X69360844Y-132085600D01*
X69360845Y-132085600D01*
X69946446Y-131500000D01*
X69946446Y-131499999D01*
X69360845Y-130914398D01*
X69360844Y-130914398D01*
X69355775Y-130921375D01*
X69276884Y-131076206D01*
X69223183Y-131241478D01*
X69196000Y-131413107D01*
X58700500Y-131413107D01*
X58700500Y-127084557D01*
X69441499Y-127084557D01*
X69474490Y-127250409D01*
X69474493Y-127250419D01*
X69539203Y-127406644D01*
X69539209Y-127406655D01*
X69633160Y-127547264D01*
X69752735Y-127666839D01*
X69752738Y-127666841D01*
X69893348Y-127760793D01*
X69893354Y-127760795D01*
X69893355Y-127760796D01*
X70048129Y-127824905D01*
X70049585Y-127825508D01*
X70049589Y-127825508D01*
X70049590Y-127825509D01*
X70215442Y-127858500D01*
X70215445Y-127858500D01*
X70384557Y-127858500D01*
X70451610Y-127845161D01*
X70547809Y-127826026D01*
X70568792Y-127827903D01*
X70589647Y-127824905D01*
X70602895Y-127830955D01*
X70617399Y-127832253D01*
X70634036Y-127845177D01*
X70653203Y-127853930D01*
X70661076Y-127866181D01*
X70672577Y-127875115D01*
X70679586Y-127894983D01*
X70690977Y-127912708D01*
X70694511Y-127937290D01*
X70695822Y-127941005D01*
X70696000Y-127947643D01*
X70696000Y-128052356D01*
X70676315Y-128119395D01*
X70623511Y-128165150D01*
X70554353Y-128175094D01*
X70547808Y-128173973D01*
X70384557Y-128141500D01*
X70384555Y-128141500D01*
X70215445Y-128141500D01*
X70215443Y-128141500D01*
X70049590Y-128174490D01*
X70049580Y-128174493D01*
X69893355Y-128239203D01*
X69893344Y-128239209D01*
X69752735Y-128333160D01*
X69633160Y-128452735D01*
X69539209Y-128593344D01*
X69539203Y-128593355D01*
X69474493Y-128749580D01*
X69474490Y-128749590D01*
X69441500Y-128915442D01*
X69441500Y-128915445D01*
X69441500Y-129084555D01*
X69441500Y-129084557D01*
X69441499Y-129084557D01*
X69474490Y-129250409D01*
X69474493Y-129250419D01*
X69539203Y-129406644D01*
X69539209Y-129406655D01*
X69633160Y-129547264D01*
X69752735Y-129666839D01*
X69752738Y-129666841D01*
X69893348Y-129760793D01*
X69893354Y-129760795D01*
X69893355Y-129760796D01*
X70005619Y-129807297D01*
X70049585Y-129825508D01*
X70049589Y-129825508D01*
X70049590Y-129825509D01*
X70215442Y-129858500D01*
X70215445Y-129858500D01*
X70384557Y-129858500D01*
X70496139Y-129836304D01*
X70550415Y-129825508D01*
X70706652Y-129760793D01*
X70827561Y-129680004D01*
X70894238Y-129659127D01*
X70961618Y-129677612D01*
X71008308Y-129729591D01*
X71019484Y-129798561D01*
X71018069Y-129807297D01*
X70995500Y-129920765D01*
X70995500Y-130079240D01*
X71026414Y-130234656D01*
X71026416Y-130234664D01*
X71087059Y-130381071D01*
X71087064Y-130381080D01*
X71124808Y-130437567D01*
X71145686Y-130504244D01*
X71127202Y-130571625D01*
X71075223Y-130618315D01*
X71006253Y-130629491D01*
X70948821Y-130606776D01*
X70878625Y-130555776D01*
X70723793Y-130476884D01*
X70558521Y-130423183D01*
X70386892Y-130396000D01*
X70213108Y-130396000D01*
X70041478Y-130423183D01*
X69876206Y-130476884D01*
X69721375Y-130555775D01*
X69714398Y-130560844D01*
X69714398Y-130560845D01*
X70303553Y-131150000D01*
X70253922Y-131150000D01*
X70164905Y-131173852D01*
X70085095Y-131219930D01*
X70019930Y-131285095D01*
X69973852Y-131364905D01*
X69950000Y-131453922D01*
X69950000Y-131546078D01*
X69973852Y-131635095D01*
X70019930Y-131714905D01*
X70085095Y-131780070D01*
X70164905Y-131826148D01*
X70253922Y-131850000D01*
X70303552Y-131850000D01*
X69714398Y-132439152D01*
X69721382Y-132444228D01*
X69876206Y-132523115D01*
X70041478Y-132576816D01*
X70213108Y-132604000D01*
X70386892Y-132604000D01*
X70558521Y-132576816D01*
X70723793Y-132523115D01*
X70878623Y-132444225D01*
X70943009Y-132397445D01*
X71008815Y-132373964D01*
X71076869Y-132389789D01*
X71118998Y-132428871D01*
X71175103Y-132512838D01*
X71175106Y-132512842D01*
X71287157Y-132624893D01*
X71287161Y-132624896D01*
X71418919Y-132712935D01*
X71418925Y-132712938D01*
X71418926Y-132712939D01*
X71565336Y-132773584D01*
X71720759Y-132804499D01*
X71720763Y-132804500D01*
X71720764Y-132804500D01*
X71879237Y-132804500D01*
X71879238Y-132804499D01*
X72034664Y-132773584D01*
X72181074Y-132712939D01*
X72312839Y-132624896D01*
X72424896Y-132512839D01*
X72512939Y-132381074D01*
X72573584Y-132234664D01*
X72604500Y-132079236D01*
X72604500Y-131920764D01*
X72573584Y-131765336D01*
X72525983Y-131650418D01*
X72512940Y-131618928D01*
X72512935Y-131618919D01*
X72424896Y-131487161D01*
X72424893Y-131487157D01*
X72312842Y-131375106D01*
X72312838Y-131375103D01*
X72181080Y-131287064D01*
X72181071Y-131287059D01*
X72034664Y-131226416D01*
X72034656Y-131226414D01*
X71879240Y-131195500D01*
X71879236Y-131195500D01*
X71720764Y-131195500D01*
X71720759Y-131195500D01*
X71565343Y-131226414D01*
X71565336Y-131226416D01*
X71518794Y-131245694D01*
X71449325Y-131253162D01*
X71386846Y-131221886D01*
X71353412Y-131169450D01*
X71323115Y-131076208D01*
X71244225Y-130921377D01*
X71193223Y-130851179D01*
X71169743Y-130785372D01*
X71185568Y-130717319D01*
X71235674Y-130668624D01*
X71304152Y-130654748D01*
X71362432Y-130675191D01*
X71418926Y-130712939D01*
X71565336Y-130773584D01*
X71720759Y-130804499D01*
X71720763Y-130804500D01*
X71720764Y-130804500D01*
X71879237Y-130804500D01*
X71879238Y-130804499D01*
X72034664Y-130773584D01*
X72181074Y-130712939D01*
X72312839Y-130624896D01*
X72424896Y-130512839D01*
X72512939Y-130381074D01*
X72573584Y-130234664D01*
X72604500Y-130079236D01*
X72604500Y-129920764D01*
X72573584Y-129765336D01*
X72512939Y-129618926D01*
X72512938Y-129618925D01*
X72512935Y-129618919D01*
X72424896Y-129487161D01*
X72424893Y-129487157D01*
X72312842Y-129375106D01*
X72312838Y-129375103D01*
X72181080Y-129287064D01*
X72181075Y-129287062D01*
X72181074Y-129287061D01*
X72153282Y-129275549D01*
X72098879Y-129231707D01*
X72076815Y-129165413D01*
X72094095Y-129097713D01*
X72145233Y-129050104D01*
X72162418Y-129043057D01*
X72223791Y-129023115D01*
X72378624Y-128944224D01*
X72385600Y-128939153D01*
X71796447Y-128350000D01*
X71846078Y-128350000D01*
X71935095Y-128326148D01*
X72014905Y-128280070D01*
X72080070Y-128214905D01*
X72126148Y-128135095D01*
X72150000Y-128046078D01*
X72150000Y-127999999D01*
X72153553Y-127999999D01*
X72153553Y-128000000D01*
X72739153Y-128585600D01*
X72744224Y-128578624D01*
X72823115Y-128423793D01*
X72876816Y-128258521D01*
X72904000Y-128086892D01*
X72904000Y-127913107D01*
X72876816Y-127741478D01*
X72823115Y-127576206D01*
X72744228Y-127421382D01*
X72739153Y-127414398D01*
X72153553Y-127999999D01*
X72150000Y-127999999D01*
X72150000Y-127953922D01*
X72126148Y-127864905D01*
X72080070Y-127785095D01*
X72014905Y-127719930D01*
X71935095Y-127673852D01*
X71846078Y-127650000D01*
X71796446Y-127650000D01*
X72385600Y-127060845D01*
X72385600Y-127060844D01*
X72378626Y-127055777D01*
X72378624Y-127055776D01*
X72223792Y-126976884D01*
X72162417Y-126956942D01*
X72104742Y-126917504D01*
X72077544Y-126853145D01*
X72089459Y-126784299D01*
X72136704Y-126732823D01*
X72153278Y-126724452D01*
X72181074Y-126712939D01*
X72312839Y-126624896D01*
X72424896Y-126512839D01*
X72512939Y-126381074D01*
X72573584Y-126234664D01*
X72604500Y-126079236D01*
X72604500Y-125920764D01*
X72573584Y-125765336D01*
X72512939Y-125618926D01*
X72512938Y-125618925D01*
X72512935Y-125618919D01*
X72424896Y-125487161D01*
X72424893Y-125487157D01*
X72312842Y-125375106D01*
X72312838Y-125375103D01*
X72181080Y-125287064D01*
X72181071Y-125287059D01*
X72034664Y-125226416D01*
X72034656Y-125226414D01*
X71879240Y-125195500D01*
X71879236Y-125195500D01*
X71720764Y-125195500D01*
X71720759Y-125195500D01*
X71565343Y-125226414D01*
X71565335Y-125226416D01*
X71418928Y-125287059D01*
X71418919Y-125287064D01*
X71287161Y-125375103D01*
X71287157Y-125375106D01*
X71175106Y-125487157D01*
X71175103Y-125487161D01*
X71087064Y-125618919D01*
X71087059Y-125618928D01*
X71026416Y-125765335D01*
X71026414Y-125765343D01*
X70995500Y-125920759D01*
X70995500Y-125920763D01*
X70995500Y-125920764D01*
X70995500Y-126079236D01*
X70995501Y-126079240D01*
X71018069Y-126192702D01*
X71011840Y-126262293D01*
X70968977Y-126317470D01*
X70903087Y-126340714D01*
X70835090Y-126324646D01*
X70827561Y-126319995D01*
X70706655Y-126239209D01*
X70706654Y-126239208D01*
X70706652Y-126239207D01*
X70706649Y-126239205D01*
X70706644Y-126239203D01*
X70550419Y-126174493D01*
X70550409Y-126174490D01*
X70384557Y-126141500D01*
X70384555Y-126141500D01*
X70215445Y-126141500D01*
X70215443Y-126141500D01*
X70049590Y-126174490D01*
X70049580Y-126174493D01*
X69893355Y-126239203D01*
X69893344Y-126239209D01*
X69752735Y-126333160D01*
X69633160Y-126452735D01*
X69539209Y-126593344D01*
X69539203Y-126593355D01*
X69474493Y-126749580D01*
X69474490Y-126749590D01*
X69441500Y-126915442D01*
X69441500Y-126915445D01*
X69441500Y-127084555D01*
X69441500Y-127084557D01*
X69441499Y-127084557D01*
X58700500Y-127084557D01*
X58700500Y-124584557D01*
X69441499Y-124584557D01*
X69474490Y-124750409D01*
X69474493Y-124750419D01*
X69539203Y-124906644D01*
X69539209Y-124906655D01*
X69633160Y-125047264D01*
X69752735Y-125166839D01*
X69752738Y-125166841D01*
X69893348Y-125260793D01*
X70049585Y-125325508D01*
X70049589Y-125325508D01*
X70049590Y-125325509D01*
X70215442Y-125358500D01*
X70215445Y-125358500D01*
X70384557Y-125358500D01*
X70496139Y-125336304D01*
X70550415Y-125325508D01*
X70706652Y-125260793D01*
X70847262Y-125166841D01*
X70966841Y-125047262D01*
X71060793Y-124906652D01*
X71125508Y-124750415D01*
X71130306Y-124726294D01*
X71162689Y-124664384D01*
X71223405Y-124629809D01*
X71293174Y-124633548D01*
X71320814Y-124647383D01*
X71418919Y-124712935D01*
X71418925Y-124712938D01*
X71418926Y-124712939D01*
X71565336Y-124773584D01*
X71720759Y-124804499D01*
X71720763Y-124804500D01*
X71720764Y-124804500D01*
X71879237Y-124804500D01*
X71879238Y-124804499D01*
X72034664Y-124773584D01*
X72181074Y-124712939D01*
X72312839Y-124624896D01*
X72424896Y-124512839D01*
X72512939Y-124381074D01*
X72573584Y-124234664D01*
X72604500Y-124079236D01*
X72604500Y-123920764D01*
X72573584Y-123765336D01*
X72526678Y-123652095D01*
X72512940Y-123618928D01*
X72512935Y-123618919D01*
X72424896Y-123487161D01*
X72424893Y-123487157D01*
X72312842Y-123375106D01*
X72312838Y-123375103D01*
X72181080Y-123287064D01*
X72181071Y-123287059D01*
X72034664Y-123226416D01*
X72034656Y-123226414D01*
X71879240Y-123195500D01*
X71879236Y-123195500D01*
X71720764Y-123195500D01*
X71720759Y-123195500D01*
X71565343Y-123226414D01*
X71565335Y-123226416D01*
X71418928Y-123287059D01*
X71418919Y-123287064D01*
X71287161Y-123375103D01*
X71287157Y-123375106D01*
X71175106Y-123487157D01*
X71175103Y-123487161D01*
X71087064Y-123618919D01*
X71087059Y-123618928D01*
X71064044Y-123674493D01*
X71026417Y-123765335D01*
X71024085Y-123770964D01*
X71021895Y-123770057D01*
X70989333Y-123819721D01*
X70925514Y-123848164D01*
X70856450Y-123837589D01*
X70840100Y-123828373D01*
X70706655Y-123739209D01*
X70706654Y-123739208D01*
X70706652Y-123739207D01*
X70706649Y-123739205D01*
X70706644Y-123739203D01*
X70550419Y-123674493D01*
X70550409Y-123674490D01*
X70384557Y-123641500D01*
X70384555Y-123641500D01*
X70215445Y-123641500D01*
X70215443Y-123641500D01*
X70049590Y-123674490D01*
X70049580Y-123674493D01*
X69893355Y-123739203D01*
X69893344Y-123739209D01*
X69752735Y-123833160D01*
X69633160Y-123952735D01*
X69539209Y-124093344D01*
X69539203Y-124093355D01*
X69474493Y-124249580D01*
X69474490Y-124249590D01*
X69441500Y-124415442D01*
X69441500Y-124415445D01*
X69441500Y-124584555D01*
X69441500Y-124584557D01*
X69441499Y-124584557D01*
X58700500Y-124584557D01*
X58700500Y-121304647D01*
X66387500Y-121304647D01*
X66387500Y-121555352D01*
X66420222Y-121803907D01*
X66485111Y-122046076D01*
X66581047Y-122277685D01*
X66581050Y-122277692D01*
X66706402Y-122494808D01*
X66706404Y-122494811D01*
X66706405Y-122494812D01*
X66859019Y-122693703D01*
X66859025Y-122693710D01*
X67036289Y-122870974D01*
X67036295Y-122870979D01*
X67235192Y-123023598D01*
X67452308Y-123148950D01*
X67683928Y-123244890D01*
X67926089Y-123309777D01*
X68112508Y-123334319D01*
X68174647Y-123342500D01*
X68174648Y-123342500D01*
X68425353Y-123342500D01*
X68475063Y-123335955D01*
X68673911Y-123309777D01*
X68916072Y-123244890D01*
X69147692Y-123148950D01*
X69364808Y-123023598D01*
X69563705Y-122870979D01*
X69740979Y-122693705D01*
X69893598Y-122494808D01*
X70018950Y-122277692D01*
X70114890Y-122046072D01*
X70179777Y-121803911D01*
X70212500Y-121555352D01*
X70212500Y-121304648D01*
X70179777Y-121056089D01*
X70114890Y-120813928D01*
X70018950Y-120582308D01*
X69893598Y-120365192D01*
X69740979Y-120166295D01*
X69740974Y-120166289D01*
X69563710Y-119989025D01*
X69563703Y-119989019D01*
X69364812Y-119836405D01*
X69364811Y-119836404D01*
X69364808Y-119836402D01*
X69147692Y-119711050D01*
X69147685Y-119711047D01*
X68916076Y-119615111D01*
X68673907Y-119550222D01*
X68425353Y-119517500D01*
X68425352Y-119517500D01*
X68174648Y-119517500D01*
X68174647Y-119517500D01*
X67926092Y-119550222D01*
X67683923Y-119615111D01*
X67452314Y-119711047D01*
X67452305Y-119711051D01*
X67235187Y-119836405D01*
X67036296Y-119989019D01*
X67036289Y-119989025D01*
X66859025Y-120166289D01*
X66859019Y-120166296D01*
X66706405Y-120365187D01*
X66581051Y-120582305D01*
X66581047Y-120582314D01*
X66485111Y-120813923D01*
X66420222Y-121056092D01*
X66387500Y-121304647D01*
X58700500Y-121304647D01*
X58700500Y-105785720D01*
X65940000Y-105785720D01*
X65940000Y-105994279D01*
X65972626Y-106200272D01*
X66037075Y-106398627D01*
X66131759Y-106584451D01*
X66167627Y-106633818D01*
X66167627Y-106633819D01*
X66741212Y-106060233D01*
X66752482Y-106102292D01*
X66824890Y-106227708D01*
X66927292Y-106330110D01*
X67052708Y-106402518D01*
X67094765Y-106413787D01*
X66521179Y-106987371D01*
X66521180Y-106987372D01*
X66570543Y-107023236D01*
X66570556Y-107023244D01*
X66756374Y-107117924D01*
X66920140Y-107171136D01*
X66977816Y-107210574D01*
X67005014Y-107274932D01*
X66993099Y-107343779D01*
X66945855Y-107395254D01*
X66920141Y-107406998D01*
X66850611Y-107429589D01*
X66699218Y-107506729D01*
X66620789Y-107563711D01*
X66561753Y-107606604D01*
X66561751Y-107606606D01*
X66561750Y-107606606D01*
X66441606Y-107726750D01*
X66441606Y-107726751D01*
X66441604Y-107726753D01*
X66398711Y-107785789D01*
X66341729Y-107864218D01*
X66264589Y-108015611D01*
X66212080Y-108177215D01*
X66185500Y-108345036D01*
X66185500Y-108514963D01*
X66212080Y-108682784D01*
X66264589Y-108844388D01*
X66341729Y-108995781D01*
X66441604Y-109133247D01*
X66561753Y-109253396D01*
X66699219Y-109353271D01*
X66770745Y-109389715D01*
X66850611Y-109430410D01*
X66850613Y-109430410D01*
X66850616Y-109430412D01*
X66937237Y-109458557D01*
X67012215Y-109482919D01*
X67180037Y-109509500D01*
X67180042Y-109509500D01*
X67349963Y-109509500D01*
X67517784Y-109482919D01*
X67679384Y-109430412D01*
X67830781Y-109353271D01*
X67968247Y-109253396D01*
X68088396Y-109133247D01*
X68188271Y-108995781D01*
X68265412Y-108844384D01*
X68317919Y-108682784D01*
X68344500Y-108514963D01*
X68344500Y-108345036D01*
X68317919Y-108177215D01*
X68265410Y-108015611D01*
X68188270Y-107864218D01*
X68088396Y-107726753D01*
X67968247Y-107606604D01*
X67830781Y-107506729D01*
X67679388Y-107429589D01*
X67647654Y-107419278D01*
X67609857Y-107406997D01*
X67552183Y-107367560D01*
X67524985Y-107303202D01*
X67536900Y-107234355D01*
X67584144Y-107182880D01*
X67609859Y-107171136D01*
X67773625Y-107117924D01*
X67959451Y-107023240D01*
X68008818Y-106987372D01*
X68008818Y-106987371D01*
X67435234Y-106413787D01*
X67477292Y-106402518D01*
X67602708Y-106330110D01*
X67705110Y-106227708D01*
X67777518Y-106102292D01*
X67788787Y-106060234D01*
X68362371Y-106633818D01*
X68362372Y-106633818D01*
X68398240Y-106584451D01*
X68424515Y-106532885D01*
X68472489Y-106482089D01*
X68540310Y-106465294D01*
X68606445Y-106487831D01*
X68645485Y-106532885D01*
X68671759Y-106584451D01*
X68707627Y-106633818D01*
X68707627Y-106633819D01*
X69281212Y-106060234D01*
X69292482Y-106102292D01*
X69364890Y-106227708D01*
X69467292Y-106330110D01*
X69592708Y-106402518D01*
X69634765Y-106413787D01*
X69061179Y-106987371D01*
X69061180Y-106987372D01*
X69110543Y-107023236D01*
X69110556Y-107023244D01*
X69296374Y-107117924D01*
X69460140Y-107171136D01*
X69517816Y-107210574D01*
X69545014Y-107274932D01*
X69533099Y-107343779D01*
X69485855Y-107395254D01*
X69460141Y-107406998D01*
X69390611Y-107429589D01*
X69239218Y-107506729D01*
X69160789Y-107563711D01*
X69101753Y-107606604D01*
X69101751Y-107606606D01*
X69101750Y-107606606D01*
X68981606Y-107726750D01*
X68981606Y-107726751D01*
X68981604Y-107726753D01*
X68938711Y-107785789D01*
X68881729Y-107864218D01*
X68804589Y-108015611D01*
X68752080Y-108177215D01*
X68725500Y-108345036D01*
X68725500Y-108514963D01*
X68752080Y-108682784D01*
X68804589Y-108844388D01*
X68881729Y-108995781D01*
X68981604Y-109133247D01*
X69101753Y-109253396D01*
X69239219Y-109353271D01*
X69310745Y-109389715D01*
X69390611Y-109430410D01*
X69390613Y-109430410D01*
X69390616Y-109430412D01*
X69477237Y-109458557D01*
X69552215Y-109482919D01*
X69720037Y-109509500D01*
X69720042Y-109509500D01*
X69889963Y-109509500D01*
X70057784Y-109482919D01*
X70219384Y-109430412D01*
X70370781Y-109353271D01*
X70508247Y-109253396D01*
X70628396Y-109133247D01*
X70728271Y-108995781D01*
X70805412Y-108844384D01*
X70857919Y-108682784D01*
X70884500Y-108514963D01*
X70884500Y-108345036D01*
X70857919Y-108177215D01*
X70805410Y-108015611D01*
X70728270Y-107864218D01*
X70628396Y-107726753D01*
X70508247Y-107606604D01*
X70370781Y-107506729D01*
X70219388Y-107429589D01*
X70187654Y-107419278D01*
X70149857Y-107406997D01*
X70092183Y-107367560D01*
X70064985Y-107303202D01*
X70076900Y-107234355D01*
X70124144Y-107182880D01*
X70149859Y-107171136D01*
X70313625Y-107117924D01*
X70499451Y-107023240D01*
X70548818Y-106987372D01*
X70548818Y-106987371D01*
X69975234Y-106413787D01*
X70017292Y-106402518D01*
X70142708Y-106330110D01*
X70245110Y-106227708D01*
X70317518Y-106102292D01*
X70328787Y-106060234D01*
X70902371Y-106633818D01*
X70902372Y-106633818D01*
X70938240Y-106584451D01*
X71032924Y-106398627D01*
X71097373Y-106200272D01*
X71130000Y-105994279D01*
X71130000Y-105785720D01*
X71097373Y-105579727D01*
X71032924Y-105381372D01*
X70938244Y-105195556D01*
X70938236Y-105195543D01*
X70902372Y-105146180D01*
X70902371Y-105146179D01*
X70328787Y-105719764D01*
X70317518Y-105677708D01*
X70245110Y-105552292D01*
X70142708Y-105449890D01*
X70017292Y-105377482D01*
X69975233Y-105366212D01*
X70548819Y-104792627D01*
X70499451Y-104756759D01*
X70313626Y-104662075D01*
X70149858Y-104608863D01*
X70092183Y-104569425D01*
X70064985Y-104505066D01*
X70076900Y-104436220D01*
X70124144Y-104384744D01*
X70149854Y-104373003D01*
X70219384Y-104350412D01*
X70370781Y-104273271D01*
X70508247Y-104173396D01*
X70628396Y-104053247D01*
X70728271Y-103915781D01*
X70805412Y-103764384D01*
X70857919Y-103602784D01*
X70884500Y-103434963D01*
X70884500Y-103265036D01*
X70857919Y-103097215D01*
X70805410Y-102935611D01*
X70728270Y-102784218D01*
X70628396Y-102646753D01*
X70508247Y-102526604D01*
X70370781Y-102426729D01*
X70358491Y-102420467D01*
X70219388Y-102349589D01*
X70057784Y-102297080D01*
X69889963Y-102270500D01*
X69889958Y-102270500D01*
X69720042Y-102270500D01*
X69720037Y-102270500D01*
X69552215Y-102297080D01*
X69390611Y-102349589D01*
X69239218Y-102426729D01*
X69160789Y-102483711D01*
X69101753Y-102526604D01*
X69101751Y-102526606D01*
X69101750Y-102526606D01*
X68981606Y-102646750D01*
X68981606Y-102646751D01*
X68981604Y-102646753D01*
X68938711Y-102705789D01*
X68881729Y-102784218D01*
X68804589Y-102935611D01*
X68752080Y-103097215D01*
X68725500Y-103265036D01*
X68725500Y-103434963D01*
X68752080Y-103602784D01*
X68804589Y-103764388D01*
X68881729Y-103915781D01*
X68981604Y-104053247D01*
X69101753Y-104173396D01*
X69239219Y-104273271D01*
X69390616Y-104350412D01*
X69460141Y-104373002D01*
X69517815Y-104412438D01*
X69545014Y-104476796D01*
X69533100Y-104545643D01*
X69485856Y-104597119D01*
X69460141Y-104608863D01*
X69296373Y-104662075D01*
X69110552Y-104756757D01*
X69061180Y-104792627D01*
X69634766Y-105366212D01*
X69592708Y-105377482D01*
X69467292Y-105449890D01*
X69364890Y-105552292D01*
X69292482Y-105677708D01*
X69281212Y-105719765D01*
X68707627Y-105146180D01*
X68671755Y-105195555D01*
X68645484Y-105247115D01*
X68597510Y-105297910D01*
X68529689Y-105314705D01*
X68463554Y-105292167D01*
X68424516Y-105247115D01*
X68398247Y-105195561D01*
X68398236Y-105195543D01*
X68362372Y-105146180D01*
X68362371Y-105146179D01*
X67788787Y-105719764D01*
X67777518Y-105677708D01*
X67705110Y-105552292D01*
X67602708Y-105449890D01*
X67477292Y-105377482D01*
X67435233Y-105366212D01*
X68008819Y-104792627D01*
X67959451Y-104756759D01*
X67773626Y-104662075D01*
X67609858Y-104608863D01*
X67552183Y-104569425D01*
X67524985Y-104505066D01*
X67536900Y-104436220D01*
X67584144Y-104384744D01*
X67609854Y-104373003D01*
X67679384Y-104350412D01*
X67830781Y-104273271D01*
X67968247Y-104173396D01*
X68088396Y-104053247D01*
X68188271Y-103915781D01*
X68265412Y-103764384D01*
X68317919Y-103602784D01*
X68344500Y-103434963D01*
X68344500Y-103265036D01*
X68317919Y-103097215D01*
X68265410Y-102935611D01*
X68188270Y-102784218D01*
X68088396Y-102646753D01*
X67968247Y-102526604D01*
X67830781Y-102426729D01*
X67818491Y-102420467D01*
X67679388Y-102349589D01*
X67517784Y-102297080D01*
X67349963Y-102270500D01*
X67349958Y-102270500D01*
X67180042Y-102270500D01*
X67180037Y-102270500D01*
X67012215Y-102297080D01*
X66850611Y-102349589D01*
X66699218Y-102426729D01*
X66620789Y-102483711D01*
X66561753Y-102526604D01*
X66561751Y-102526606D01*
X66561750Y-102526606D01*
X66441606Y-102646750D01*
X66441606Y-102646751D01*
X66441604Y-102646753D01*
X66398711Y-102705789D01*
X66341729Y-102784218D01*
X66264589Y-102935611D01*
X66212080Y-103097215D01*
X66185500Y-103265036D01*
X66185500Y-103434963D01*
X66212080Y-103602784D01*
X66264589Y-103764388D01*
X66341729Y-103915781D01*
X66441604Y-104053247D01*
X66561753Y-104173396D01*
X66699219Y-104273271D01*
X66850616Y-104350412D01*
X66920141Y-104373002D01*
X66977815Y-104412438D01*
X67005014Y-104476796D01*
X66993100Y-104545643D01*
X66945856Y-104597119D01*
X66920141Y-104608863D01*
X66756373Y-104662075D01*
X66570552Y-104756757D01*
X66521180Y-104792627D01*
X67094766Y-105366212D01*
X67052708Y-105377482D01*
X66927292Y-105449890D01*
X66824890Y-105552292D01*
X66752482Y-105677708D01*
X66741212Y-105719765D01*
X66167627Y-105146180D01*
X66131757Y-105195552D01*
X66037075Y-105381372D01*
X65972626Y-105579727D01*
X65940000Y-105785720D01*
X58700500Y-105785720D01*
X58700500Y-102006999D01*
X96915502Y-102006999D01*
X96915502Y-102153001D01*
X96946986Y-102270500D01*
X96953290Y-102294028D01*
X96953291Y-102294031D01*
X97026288Y-102420467D01*
X97026290Y-102420470D01*
X97026291Y-102420471D01*
X97129531Y-102523711D01*
X97129532Y-102523712D01*
X97129534Y-102523713D01*
X97134545Y-102526606D01*
X97255973Y-102596712D01*
X97397001Y-102634500D01*
X97397003Y-102634500D01*
X97543001Y-102634500D01*
X97543003Y-102634500D01*
X97684031Y-102596712D01*
X97810473Y-102523711D01*
X97913713Y-102420471D01*
X97986714Y-102294029D01*
X98024502Y-102153001D01*
X98024502Y-102006999D01*
X97986714Y-101865971D01*
X97913713Y-101739529D01*
X97810473Y-101636289D01*
X97810472Y-101636288D01*
X97810469Y-101636286D01*
X97684033Y-101563289D01*
X97684032Y-101563288D01*
X97684031Y-101563288D01*
X97543003Y-101525500D01*
X97397001Y-101525500D01*
X97255973Y-101563288D01*
X97255970Y-101563289D01*
X97129534Y-101636286D01*
X97129529Y-101636290D01*
X97026292Y-101739527D01*
X97026288Y-101739532D01*
X96953291Y-101865968D01*
X96953290Y-101865971D01*
X96915502Y-102006999D01*
X58700500Y-102006999D01*
X58700500Y-100725036D01*
X66185500Y-100725036D01*
X66185500Y-100894963D01*
X66212080Y-101062784D01*
X66264589Y-101224388D01*
X66341729Y-101375781D01*
X66441604Y-101513247D01*
X66561753Y-101633396D01*
X66699219Y-101733271D01*
X66770745Y-101769715D01*
X66850611Y-101810410D01*
X66850613Y-101810410D01*
X66850616Y-101810412D01*
X66937237Y-101838557D01*
X67012215Y-101862919D01*
X67180037Y-101889500D01*
X67180042Y-101889500D01*
X67349963Y-101889500D01*
X67517784Y-101862919D01*
X67679384Y-101810412D01*
X67830781Y-101733271D01*
X67968247Y-101633396D01*
X68088396Y-101513247D01*
X68188271Y-101375781D01*
X68265412Y-101224384D01*
X68317919Y-101062784D01*
X68344500Y-100894963D01*
X68344500Y-100725036D01*
X68725500Y-100725036D01*
X68725500Y-100894963D01*
X68752080Y-101062784D01*
X68804589Y-101224388D01*
X68881729Y-101375781D01*
X68981604Y-101513247D01*
X69101753Y-101633396D01*
X69239219Y-101733271D01*
X69310745Y-101769715D01*
X69390611Y-101810410D01*
X69390613Y-101810410D01*
X69390616Y-101810412D01*
X69477237Y-101838557D01*
X69552215Y-101862919D01*
X69720037Y-101889500D01*
X69720042Y-101889500D01*
X69889963Y-101889500D01*
X69972678Y-101876399D01*
X70057784Y-101862919D01*
X70219384Y-101810412D01*
X70370781Y-101733271D01*
X70508247Y-101633396D01*
X70628396Y-101513247D01*
X70728271Y-101375781D01*
X70805412Y-101224384D01*
X70857919Y-101062784D01*
X70884500Y-100894963D01*
X70884500Y-100725036D01*
X70857919Y-100557215D01*
X70805410Y-100395611D01*
X70728270Y-100244218D01*
X70628396Y-100106753D01*
X70508247Y-99986604D01*
X70370781Y-99886729D01*
X70219388Y-99809589D01*
X70057784Y-99757080D01*
X69889963Y-99730500D01*
X69889958Y-99730500D01*
X69720042Y-99730500D01*
X69720037Y-99730500D01*
X69552215Y-99757080D01*
X69390611Y-99809589D01*
X69239218Y-99886729D01*
X69160789Y-99943711D01*
X69101753Y-99986604D01*
X69101751Y-99986606D01*
X69101750Y-99986606D01*
X68981606Y-100106750D01*
X68981606Y-100106751D01*
X68981604Y-100106753D01*
X68938711Y-100165789D01*
X68881729Y-100244218D01*
X68804589Y-100395611D01*
X68752080Y-100557215D01*
X68725500Y-100725036D01*
X68344500Y-100725036D01*
X68317919Y-100557215D01*
X68265410Y-100395611D01*
X68188270Y-100244218D01*
X68088396Y-100106753D01*
X67968247Y-99986604D01*
X67830781Y-99886729D01*
X67679388Y-99809589D01*
X67517784Y-99757080D01*
X67349963Y-99730500D01*
X67349958Y-99730500D01*
X67180042Y-99730500D01*
X67180037Y-99730500D01*
X67012215Y-99757080D01*
X66850611Y-99809589D01*
X66699218Y-99886729D01*
X66620789Y-99943711D01*
X66561753Y-99986604D01*
X66561751Y-99986606D01*
X66561750Y-99986606D01*
X66441606Y-100106750D01*
X66441606Y-100106751D01*
X66441604Y-100106753D01*
X66398711Y-100165789D01*
X66341729Y-100244218D01*
X66264589Y-100395611D01*
X66212080Y-100557215D01*
X66185500Y-100725036D01*
X58700500Y-100725036D01*
X58700500Y-98185036D01*
X66185500Y-98185036D01*
X66185500Y-98354963D01*
X66212080Y-98522784D01*
X66264589Y-98684388D01*
X66335981Y-98824500D01*
X66341729Y-98835781D01*
X66441604Y-98973247D01*
X66561753Y-99093396D01*
X66699219Y-99193271D01*
X66770745Y-99229715D01*
X66850611Y-99270410D01*
X66850613Y-99270410D01*
X66850616Y-99270412D01*
X66937237Y-99298557D01*
X67012215Y-99322919D01*
X67180037Y-99349500D01*
X67180042Y-99349500D01*
X67349963Y-99349500D01*
X67517784Y-99322919D01*
X67679384Y-99270412D01*
X67830781Y-99193271D01*
X67968247Y-99093396D01*
X68088396Y-98973247D01*
X68188271Y-98835781D01*
X68265412Y-98684384D01*
X68317919Y-98522784D01*
X68324057Y-98484029D01*
X68344500Y-98354963D01*
X68344500Y-98185036D01*
X68725500Y-98185036D01*
X68725500Y-98354963D01*
X68752080Y-98522784D01*
X68804589Y-98684388D01*
X68875981Y-98824500D01*
X68881729Y-98835781D01*
X68981604Y-98973247D01*
X69101753Y-99093396D01*
X69239219Y-99193271D01*
X69310745Y-99229715D01*
X69390611Y-99270410D01*
X69390613Y-99270410D01*
X69390616Y-99270412D01*
X69477237Y-99298557D01*
X69552215Y-99322919D01*
X69720037Y-99349500D01*
X69720042Y-99349500D01*
X69889963Y-99349500D01*
X70057784Y-99322919D01*
X70219384Y-99270412D01*
X70370781Y-99193271D01*
X70460224Y-99128287D01*
X100214212Y-99128287D01*
X100214212Y-99274289D01*
X100227243Y-99322919D01*
X100252000Y-99415316D01*
X100252001Y-99415319D01*
X100324998Y-99541755D01*
X100325000Y-99541758D01*
X100325001Y-99541759D01*
X100428241Y-99644999D01*
X100554683Y-99718000D01*
X100695711Y-99755788D01*
X100695713Y-99755788D01*
X100841711Y-99755788D01*
X100841713Y-99755788D01*
X100982741Y-99718000D01*
X101109183Y-99644999D01*
X101212423Y-99541759D01*
X101285424Y-99415317D01*
X101323212Y-99274289D01*
X101323212Y-99128287D01*
X101285424Y-98987259D01*
X101212423Y-98860817D01*
X101109183Y-98757577D01*
X101109182Y-98757576D01*
X101109179Y-98757574D01*
X100982743Y-98684577D01*
X100982742Y-98684576D01*
X100982741Y-98684576D01*
X100841713Y-98646788D01*
X100695711Y-98646788D01*
X100554683Y-98684576D01*
X100554680Y-98684577D01*
X100428244Y-98757574D01*
X100428239Y-98757578D01*
X100325002Y-98860815D01*
X100324998Y-98860820D01*
X100252001Y-98987256D01*
X100252000Y-98987259D01*
X100214212Y-99128287D01*
X70460224Y-99128287D01*
X70508247Y-99093396D01*
X70628396Y-98973247D01*
X70728271Y-98835781D01*
X70805412Y-98684384D01*
X70857919Y-98522784D01*
X70864057Y-98484029D01*
X70884500Y-98354963D01*
X70884500Y-98196999D01*
X87025500Y-98196999D01*
X87025500Y-98343000D01*
X87063288Y-98484028D01*
X87063289Y-98484031D01*
X87136286Y-98610467D01*
X87136288Y-98610470D01*
X87136289Y-98610471D01*
X87239529Y-98713711D01*
X87365971Y-98786712D01*
X87506999Y-98824500D01*
X87507001Y-98824500D01*
X87652999Y-98824500D01*
X87653001Y-98824500D01*
X87794029Y-98786712D01*
X87920471Y-98713711D01*
X88023711Y-98610471D01*
X88096712Y-98484029D01*
X88134500Y-98343001D01*
X88134500Y-98196999D01*
X88096712Y-98055971D01*
X88023711Y-97929529D01*
X87920471Y-97826289D01*
X87920470Y-97826288D01*
X87920467Y-97826286D01*
X87794031Y-97753289D01*
X87794030Y-97753288D01*
X87794029Y-97753288D01*
X87653001Y-97715500D01*
X87506999Y-97715500D01*
X87365971Y-97753288D01*
X87365968Y-97753289D01*
X87239532Y-97826286D01*
X87239527Y-97826290D01*
X87136290Y-97929527D01*
X87136286Y-97929532D01*
X87063289Y-98055968D01*
X87063288Y-98055971D01*
X87025500Y-98196999D01*
X70884500Y-98196999D01*
X70884500Y-98185036D01*
X70857919Y-98017215D01*
X70805410Y-97855611D01*
X70764715Y-97775745D01*
X70728271Y-97704219D01*
X70628396Y-97566753D01*
X70508247Y-97446604D01*
X70370781Y-97346729D01*
X70364854Y-97343709D01*
X70219388Y-97269589D01*
X70057784Y-97217080D01*
X69889963Y-97190500D01*
X69889958Y-97190500D01*
X69720042Y-97190500D01*
X69720037Y-97190500D01*
X69552215Y-97217080D01*
X69390611Y-97269589D01*
X69239218Y-97346729D01*
X69160789Y-97403711D01*
X69101753Y-97446604D01*
X69101751Y-97446606D01*
X69101750Y-97446606D01*
X68981606Y-97566750D01*
X68981606Y-97566751D01*
X68981604Y-97566753D01*
X68938711Y-97625789D01*
X68881729Y-97704218D01*
X68804589Y-97855611D01*
X68752080Y-98017215D01*
X68725500Y-98185036D01*
X68344500Y-98185036D01*
X68317919Y-98017215D01*
X68265410Y-97855611D01*
X68224715Y-97775745D01*
X68188271Y-97704219D01*
X68088396Y-97566753D01*
X67968247Y-97446604D01*
X67830781Y-97346729D01*
X67824854Y-97343709D01*
X67679388Y-97269589D01*
X67517784Y-97217080D01*
X67349963Y-97190500D01*
X67349958Y-97190500D01*
X67180042Y-97190500D01*
X67180037Y-97190500D01*
X67012215Y-97217080D01*
X66850611Y-97269589D01*
X66699218Y-97346729D01*
X66620789Y-97403711D01*
X66561753Y-97446604D01*
X66561751Y-97446606D01*
X66561750Y-97446606D01*
X66441606Y-97566750D01*
X66441606Y-97566751D01*
X66441604Y-97566753D01*
X66398711Y-97625789D01*
X66341729Y-97704218D01*
X66264589Y-97855611D01*
X66212080Y-98017215D01*
X66185500Y-98185036D01*
X58700500Y-98185036D01*
X58700500Y-96826999D01*
X97105500Y-96826999D01*
X97105500Y-96973000D01*
X97143288Y-97114028D01*
X97143289Y-97114031D01*
X97216286Y-97240467D01*
X97216288Y-97240470D01*
X97216289Y-97240471D01*
X97319529Y-97343711D01*
X97445971Y-97416712D01*
X97586999Y-97454500D01*
X97587001Y-97454500D01*
X97732999Y-97454500D01*
X97733001Y-97454500D01*
X97874029Y-97416712D01*
X98000471Y-97343711D01*
X98103711Y-97240471D01*
X98176712Y-97114029D01*
X98214500Y-96973001D01*
X98214500Y-96826999D01*
X98176712Y-96685971D01*
X98103711Y-96559529D01*
X98000471Y-96456289D01*
X98000470Y-96456288D01*
X98000467Y-96456286D01*
X97874031Y-96383289D01*
X97874030Y-96383288D01*
X97874029Y-96383288D01*
X97733001Y-96345500D01*
X97586999Y-96345500D01*
X97445971Y-96383288D01*
X97445968Y-96383289D01*
X97319532Y-96456286D01*
X97319527Y-96456290D01*
X97216290Y-96559527D01*
X97216286Y-96559532D01*
X97143289Y-96685968D01*
X97143288Y-96685971D01*
X97105500Y-96826999D01*
X58700500Y-96826999D01*
X58700500Y-95645036D01*
X66185500Y-95645036D01*
X66185500Y-95814963D01*
X66212080Y-95982784D01*
X66264589Y-96144388D01*
X66341729Y-96295781D01*
X66441604Y-96433247D01*
X66561753Y-96553396D01*
X66699219Y-96653271D01*
X66763390Y-96685968D01*
X66850611Y-96730410D01*
X66850613Y-96730410D01*
X66850616Y-96730412D01*
X66937237Y-96758557D01*
X67012215Y-96782919D01*
X67180037Y-96809500D01*
X67180042Y-96809500D01*
X67349963Y-96809500D01*
X67517784Y-96782919D01*
X67679384Y-96730412D01*
X67830781Y-96653271D01*
X67968247Y-96553396D01*
X68088396Y-96433247D01*
X68188271Y-96295781D01*
X68265412Y-96144384D01*
X68317919Y-95982784D01*
X68344500Y-95814963D01*
X68344500Y-95645036D01*
X68725500Y-95645036D01*
X68725500Y-95814963D01*
X68752080Y-95982784D01*
X68804589Y-96144388D01*
X68881729Y-96295781D01*
X68981604Y-96433247D01*
X69101753Y-96553396D01*
X69239219Y-96653271D01*
X69303390Y-96685968D01*
X69390611Y-96730410D01*
X69390613Y-96730410D01*
X69390616Y-96730412D01*
X69477237Y-96758557D01*
X69552215Y-96782919D01*
X69720037Y-96809500D01*
X69720042Y-96809500D01*
X69889963Y-96809500D01*
X70057784Y-96782919D01*
X70219384Y-96730412D01*
X70219390Y-96730409D01*
X70262609Y-96708388D01*
X70262610Y-96708387D01*
X70370781Y-96653271D01*
X70508247Y-96553396D01*
X70628396Y-96433247D01*
X70728271Y-96295781D01*
X70805412Y-96144384D01*
X70857919Y-95982784D01*
X70884500Y-95814963D01*
X70884500Y-95645036D01*
X70857919Y-95477215D01*
X70805410Y-95315611D01*
X70728270Y-95164218D01*
X70628396Y-95026753D01*
X70508247Y-94906604D01*
X70370781Y-94806729D01*
X70219388Y-94729589D01*
X70057784Y-94677080D01*
X69889963Y-94650500D01*
X69889958Y-94650500D01*
X69720042Y-94650500D01*
X69720037Y-94650500D01*
X69552215Y-94677080D01*
X69390611Y-94729589D01*
X69239218Y-94806729D01*
X69160789Y-94863711D01*
X69101753Y-94906604D01*
X69101751Y-94906606D01*
X69101750Y-94906606D01*
X68981606Y-95026750D01*
X68981606Y-95026751D01*
X68981604Y-95026753D01*
X68938711Y-95085789D01*
X68881729Y-95164218D01*
X68804589Y-95315611D01*
X68752080Y-95477215D01*
X68725500Y-95645036D01*
X68344500Y-95645036D01*
X68317919Y-95477215D01*
X68265410Y-95315611D01*
X68188270Y-95164218D01*
X68088396Y-95026753D01*
X67968247Y-94906604D01*
X67830781Y-94806729D01*
X67679388Y-94729589D01*
X67517784Y-94677080D01*
X67349963Y-94650500D01*
X67349958Y-94650500D01*
X67180042Y-94650500D01*
X67180037Y-94650500D01*
X67012215Y-94677080D01*
X66850611Y-94729589D01*
X66699218Y-94806729D01*
X66620789Y-94863711D01*
X66561753Y-94906604D01*
X66561751Y-94906606D01*
X66561750Y-94906606D01*
X66441606Y-95026750D01*
X66441606Y-95026751D01*
X66441604Y-95026753D01*
X66398711Y-95085789D01*
X66341729Y-95164218D01*
X66264589Y-95315611D01*
X66212080Y-95477215D01*
X66185500Y-95645036D01*
X58700500Y-95645036D01*
X58700500Y-94356999D01*
X87535500Y-94356999D01*
X87535500Y-94503000D01*
X87573288Y-94644028D01*
X87573289Y-94644031D01*
X87646286Y-94770467D01*
X87646288Y-94770470D01*
X87646289Y-94770471D01*
X87749529Y-94873711D01*
X87875971Y-94946712D01*
X88016999Y-94984500D01*
X88017001Y-94984500D01*
X88162999Y-94984500D01*
X88163001Y-94984500D01*
X88304029Y-94946712D01*
X88430471Y-94873711D01*
X88533711Y-94770471D01*
X88606712Y-94644029D01*
X88644500Y-94503001D01*
X88644500Y-94356999D01*
X88606712Y-94215971D01*
X88570211Y-94152750D01*
X88533713Y-94089532D01*
X88533709Y-94089527D01*
X88430472Y-93986290D01*
X88430467Y-93986286D01*
X88304031Y-93913289D01*
X88304030Y-93913288D01*
X88304029Y-93913288D01*
X88163001Y-93875500D01*
X88016999Y-93875500D01*
X87875971Y-93913288D01*
X87875968Y-93913289D01*
X87749532Y-93986286D01*
X87749527Y-93986290D01*
X87646290Y-94089527D01*
X87646286Y-94089532D01*
X87573289Y-94215968D01*
X87573288Y-94215971D01*
X87535500Y-94356999D01*
X58700500Y-94356999D01*
X58700500Y-93105036D01*
X66185500Y-93105036D01*
X66185500Y-93274963D01*
X66212080Y-93442784D01*
X66264589Y-93604388D01*
X66335981Y-93744500D01*
X66341729Y-93755781D01*
X66441604Y-93893247D01*
X66561753Y-94013396D01*
X66699219Y-94113271D01*
X66770745Y-94149715D01*
X66850611Y-94190410D01*
X66850613Y-94190410D01*
X66850616Y-94190412D01*
X66929269Y-94215968D01*
X67012215Y-94242919D01*
X67180037Y-94269500D01*
X67180042Y-94269500D01*
X67349963Y-94269500D01*
X67517784Y-94242919D01*
X67679384Y-94190412D01*
X67830781Y-94113271D01*
X67968247Y-94013396D01*
X68088396Y-93893247D01*
X68188271Y-93755781D01*
X68265412Y-93604384D01*
X68317919Y-93442784D01*
X68324057Y-93404029D01*
X68344500Y-93274963D01*
X68344500Y-93105036D01*
X68725500Y-93105036D01*
X68725500Y-93274963D01*
X68752080Y-93442784D01*
X68804589Y-93604388D01*
X68875981Y-93744500D01*
X68881729Y-93755781D01*
X68981604Y-93893247D01*
X69101753Y-94013396D01*
X69239219Y-94113271D01*
X69310745Y-94149715D01*
X69390611Y-94190410D01*
X69390613Y-94190410D01*
X69390616Y-94190412D01*
X69469269Y-94215968D01*
X69552215Y-94242919D01*
X69720037Y-94269500D01*
X69720042Y-94269500D01*
X69889963Y-94269500D01*
X70057784Y-94242919D01*
X70094649Y-94230941D01*
X70140721Y-94215971D01*
X70219384Y-94190412D01*
X70370781Y-94113271D01*
X70508247Y-94013396D01*
X70628396Y-93893247D01*
X70728271Y-93755781D01*
X70805412Y-93604384D01*
X70857919Y-93442784D01*
X70864057Y-93404029D01*
X70884500Y-93274963D01*
X70884500Y-93116999D01*
X83105500Y-93116999D01*
X83105500Y-93263000D01*
X83143288Y-93404028D01*
X83143289Y-93404031D01*
X83216286Y-93530467D01*
X83216288Y-93530470D01*
X83216289Y-93530471D01*
X83319529Y-93633711D01*
X83445971Y-93706712D01*
X83586999Y-93744500D01*
X83587001Y-93744500D01*
X83732999Y-93744500D01*
X83733001Y-93744500D01*
X83874029Y-93706712D01*
X84000471Y-93633711D01*
X84103711Y-93530471D01*
X84176712Y-93404029D01*
X84214500Y-93263001D01*
X84214500Y-93116999D01*
X84176712Y-92975971D01*
X84103711Y-92849529D01*
X84000471Y-92746289D01*
X84000470Y-92746288D01*
X84000467Y-92746286D01*
X83874031Y-92673289D01*
X83874030Y-92673288D01*
X83874029Y-92673288D01*
X83733001Y-92635500D01*
X83586999Y-92635500D01*
X83445971Y-92673288D01*
X83445968Y-92673289D01*
X83319532Y-92746286D01*
X83319527Y-92746290D01*
X83216290Y-92849527D01*
X83216286Y-92849532D01*
X83143289Y-92975968D01*
X83143288Y-92975971D01*
X83105500Y-93116999D01*
X70884500Y-93116999D01*
X70884500Y-93105036D01*
X70857919Y-92937215D01*
X70805410Y-92775611D01*
X70764715Y-92695745D01*
X70728271Y-92624219D01*
X70628396Y-92486753D01*
X70508247Y-92366604D01*
X70370781Y-92266729D01*
X70219388Y-92189589D01*
X70057784Y-92137080D01*
X69889963Y-92110500D01*
X69889958Y-92110500D01*
X69720042Y-92110500D01*
X69720037Y-92110500D01*
X69552215Y-92137080D01*
X69390611Y-92189589D01*
X69239218Y-92266729D01*
X69160789Y-92323711D01*
X69101753Y-92366604D01*
X69101751Y-92366606D01*
X69101750Y-92366606D01*
X68981606Y-92486750D01*
X68981606Y-92486751D01*
X68981604Y-92486753D01*
X68938711Y-92545789D01*
X68881729Y-92624218D01*
X68804589Y-92775611D01*
X68752080Y-92937215D01*
X68725500Y-93105036D01*
X68344500Y-93105036D01*
X68317919Y-92937215D01*
X68265410Y-92775611D01*
X68224715Y-92695745D01*
X68188271Y-92624219D01*
X68088396Y-92486753D01*
X67968247Y-92366604D01*
X67830781Y-92266729D01*
X67679388Y-92189589D01*
X67517784Y-92137080D01*
X67349963Y-92110500D01*
X67349958Y-92110500D01*
X67180042Y-92110500D01*
X67180037Y-92110500D01*
X67012215Y-92137080D01*
X66850611Y-92189589D01*
X66699218Y-92266729D01*
X66620789Y-92323711D01*
X66561753Y-92366604D01*
X66561751Y-92366606D01*
X66561750Y-92366606D01*
X66441606Y-92486750D01*
X66441606Y-92486751D01*
X66441604Y-92486753D01*
X66398711Y-92545789D01*
X66341729Y-92624218D01*
X66264589Y-92775611D01*
X66212080Y-92937215D01*
X66185500Y-93105036D01*
X58700500Y-93105036D01*
X58700500Y-90565036D01*
X66185500Y-90565036D01*
X66185500Y-90734963D01*
X66212080Y-90902784D01*
X66264589Y-91064388D01*
X66341729Y-91215781D01*
X66441604Y-91353247D01*
X66561753Y-91473396D01*
X66699219Y-91573271D01*
X66770745Y-91609715D01*
X66850611Y-91650410D01*
X66850613Y-91650410D01*
X66850616Y-91650412D01*
X66929269Y-91675968D01*
X67012215Y-91702919D01*
X67180037Y-91729500D01*
X67180042Y-91729500D01*
X67349963Y-91729500D01*
X67517784Y-91702919D01*
X67679384Y-91650412D01*
X67830781Y-91573271D01*
X67968247Y-91473396D01*
X68088396Y-91353247D01*
X68188271Y-91215781D01*
X68265412Y-91064384D01*
X68317919Y-90902784D01*
X68328338Y-90837001D01*
X68344500Y-90734963D01*
X68344500Y-90565036D01*
X68725500Y-90565036D01*
X68725500Y-90734963D01*
X68752080Y-90902784D01*
X68804589Y-91064388D01*
X68881729Y-91215781D01*
X68981604Y-91353247D01*
X69101753Y-91473396D01*
X69239219Y-91573271D01*
X69310745Y-91609715D01*
X69390611Y-91650410D01*
X69390613Y-91650410D01*
X69390616Y-91650412D01*
X69469269Y-91675968D01*
X69552215Y-91702919D01*
X69720037Y-91729500D01*
X69720042Y-91729500D01*
X69889963Y-91729500D01*
X70057784Y-91702919D01*
X70219384Y-91650412D01*
X70370781Y-91573271D01*
X70508247Y-91473396D01*
X70628396Y-91353247D01*
X70728271Y-91215781D01*
X70805412Y-91064384D01*
X70857919Y-90902784D01*
X70868338Y-90836999D01*
X96905500Y-90836999D01*
X96905500Y-90983001D01*
X96927308Y-91064388D01*
X96943288Y-91124028D01*
X96943289Y-91124031D01*
X97016286Y-91250467D01*
X97016290Y-91250472D01*
X97078137Y-91312319D01*
X97111622Y-91373642D01*
X97106638Y-91443334D01*
X97078137Y-91487681D01*
X97016290Y-91549527D01*
X97016286Y-91549532D01*
X96943289Y-91675968D01*
X96943288Y-91675971D01*
X96905500Y-91816999D01*
X96905500Y-91963000D01*
X96943288Y-92104028D01*
X96943289Y-92104031D01*
X97016286Y-92230467D01*
X97016288Y-92230470D01*
X97016289Y-92230471D01*
X97119529Y-92333711D01*
X97245971Y-92406712D01*
X97386999Y-92444500D01*
X97387001Y-92444500D01*
X97532999Y-92444500D01*
X97533001Y-92444500D01*
X97674029Y-92406712D01*
X97800471Y-92333711D01*
X97903711Y-92230471D01*
X97976712Y-92104029D01*
X98014500Y-91963001D01*
X98014500Y-91816999D01*
X97976712Y-91675971D01*
X97940211Y-91612750D01*
X97903713Y-91549532D01*
X97903709Y-91549527D01*
X97841863Y-91487681D01*
X97808378Y-91426358D01*
X97813362Y-91356666D01*
X97841863Y-91312319D01*
X97903711Y-91250471D01*
X97976712Y-91124029D01*
X98014500Y-90983001D01*
X98014500Y-90836999D01*
X97976712Y-90695971D01*
X97903711Y-90569529D01*
X97800471Y-90466289D01*
X97800470Y-90466288D01*
X97800467Y-90466286D01*
X97674031Y-90393289D01*
X97674030Y-90393288D01*
X97674029Y-90393288D01*
X97533001Y-90355500D01*
X97386999Y-90355500D01*
X97245971Y-90393288D01*
X97245968Y-90393289D01*
X97119532Y-90466286D01*
X97119527Y-90466290D01*
X97016290Y-90569527D01*
X97016286Y-90569532D01*
X96943289Y-90695968D01*
X96943288Y-90695971D01*
X96905500Y-90836999D01*
X70868338Y-90836999D01*
X70872698Y-90809473D01*
X70884500Y-90734962D01*
X70884500Y-90565036D01*
X70857919Y-90397215D01*
X70805410Y-90235611D01*
X70728270Y-90084218D01*
X70628396Y-89946753D01*
X70508247Y-89826604D01*
X70370781Y-89726729D01*
X70358491Y-89720467D01*
X70219388Y-89649589D01*
X70057784Y-89597080D01*
X69889963Y-89570500D01*
X69889958Y-89570500D01*
X69720042Y-89570500D01*
X69720037Y-89570500D01*
X69552215Y-89597080D01*
X69390611Y-89649589D01*
X69239218Y-89726729D01*
X69160789Y-89783711D01*
X69101753Y-89826604D01*
X69101751Y-89826606D01*
X69101750Y-89826606D01*
X68981606Y-89946750D01*
X68981606Y-89946751D01*
X68981604Y-89946753D01*
X68938711Y-90005789D01*
X68881729Y-90084218D01*
X68804589Y-90235611D01*
X68752080Y-90397215D01*
X68725500Y-90565036D01*
X68344500Y-90565036D01*
X68317919Y-90397215D01*
X68265410Y-90235611D01*
X68188270Y-90084218D01*
X68088396Y-89946753D01*
X67968247Y-89826604D01*
X67830781Y-89726729D01*
X67818491Y-89720467D01*
X67679388Y-89649589D01*
X67517784Y-89597080D01*
X67349963Y-89570500D01*
X67349958Y-89570500D01*
X67180042Y-89570500D01*
X67180037Y-89570500D01*
X67012215Y-89597080D01*
X66850611Y-89649589D01*
X66699218Y-89726729D01*
X66620789Y-89783711D01*
X66561753Y-89826604D01*
X66561751Y-89826606D01*
X66561750Y-89826606D01*
X66441606Y-89946750D01*
X66441606Y-89946751D01*
X66441604Y-89946753D01*
X66398711Y-90005789D01*
X66341729Y-90084218D01*
X66264589Y-90235611D01*
X66212080Y-90397215D01*
X66185500Y-90565036D01*
X58700500Y-90565036D01*
X58700500Y-89306999D01*
X87305500Y-89306999D01*
X87305500Y-89453001D01*
X87336984Y-89570500D01*
X87343288Y-89594028D01*
X87343289Y-89594031D01*
X87416286Y-89720467D01*
X87416288Y-89720470D01*
X87416289Y-89720471D01*
X87519529Y-89823711D01*
X87519530Y-89823712D01*
X87519532Y-89823713D01*
X87524543Y-89826606D01*
X87645971Y-89896712D01*
X87786999Y-89934500D01*
X87787001Y-89934500D01*
X87932999Y-89934500D01*
X87933001Y-89934500D01*
X88074029Y-89896712D01*
X88200471Y-89823711D01*
X88303711Y-89720471D01*
X88376712Y-89594029D01*
X88414500Y-89453001D01*
X88414500Y-89306999D01*
X88376712Y-89165971D01*
X88303711Y-89039529D01*
X88200471Y-88936289D01*
X88200470Y-88936288D01*
X88200467Y-88936286D01*
X88074031Y-88863289D01*
X88074030Y-88863288D01*
X88074029Y-88863288D01*
X87933001Y-88825500D01*
X87786999Y-88825500D01*
X87645971Y-88863288D01*
X87645968Y-88863289D01*
X87519532Y-88936286D01*
X87519527Y-88936290D01*
X87416290Y-89039527D01*
X87416286Y-89039532D01*
X87343289Y-89165968D01*
X87343288Y-89165971D01*
X87305500Y-89306999D01*
X58700500Y-89306999D01*
X58700500Y-88025036D01*
X66185500Y-88025036D01*
X66185500Y-88194963D01*
X66212080Y-88362784D01*
X66264589Y-88524388D01*
X66341729Y-88675781D01*
X66441604Y-88813247D01*
X66561753Y-88933396D01*
X66699219Y-89033271D01*
X66770745Y-89069715D01*
X66850611Y-89110410D01*
X66850613Y-89110410D01*
X66850616Y-89110412D01*
X66937237Y-89138557D01*
X67012215Y-89162919D01*
X67180037Y-89189500D01*
X67180042Y-89189500D01*
X67349963Y-89189500D01*
X67517784Y-89162919D01*
X67679384Y-89110412D01*
X67830781Y-89033271D01*
X67968247Y-88933396D01*
X68088396Y-88813247D01*
X68188271Y-88675781D01*
X68265412Y-88524384D01*
X68317919Y-88362784D01*
X68344500Y-88194963D01*
X68344500Y-88025036D01*
X68725500Y-88025036D01*
X68725500Y-88194963D01*
X68752080Y-88362784D01*
X68804589Y-88524388D01*
X68881729Y-88675781D01*
X68981604Y-88813247D01*
X69101753Y-88933396D01*
X69239219Y-89033271D01*
X69310745Y-89069715D01*
X69390611Y-89110410D01*
X69390613Y-89110410D01*
X69390616Y-89110412D01*
X69477237Y-89138557D01*
X69552215Y-89162919D01*
X69720037Y-89189500D01*
X69720042Y-89189500D01*
X69889963Y-89189500D01*
X69972678Y-89176399D01*
X70057784Y-89162919D01*
X70219384Y-89110412D01*
X70370781Y-89033271D01*
X70508247Y-88933396D01*
X70628396Y-88813247D01*
X70728271Y-88675781D01*
X70805412Y-88524384D01*
X70857919Y-88362784D01*
X70884500Y-88194963D01*
X70884500Y-88025036D01*
X70857919Y-87857215D01*
X70805410Y-87695611D01*
X70728270Y-87544218D01*
X70628396Y-87406753D01*
X70508247Y-87286604D01*
X70370781Y-87186729D01*
X70219388Y-87109589D01*
X70057784Y-87057080D01*
X69889963Y-87030500D01*
X69889958Y-87030500D01*
X69720042Y-87030500D01*
X69720037Y-87030500D01*
X69552215Y-87057080D01*
X69390611Y-87109589D01*
X69239218Y-87186729D01*
X69160789Y-87243711D01*
X69101753Y-87286604D01*
X69101751Y-87286606D01*
X69101750Y-87286606D01*
X68981606Y-87406750D01*
X68981606Y-87406751D01*
X68981604Y-87406753D01*
X68938711Y-87465789D01*
X68881729Y-87544218D01*
X68804589Y-87695611D01*
X68752080Y-87857215D01*
X68725500Y-88025036D01*
X68344500Y-88025036D01*
X68317919Y-87857215D01*
X68265410Y-87695611D01*
X68188270Y-87544218D01*
X68088396Y-87406753D01*
X67968247Y-87286604D01*
X67830781Y-87186729D01*
X67679388Y-87109589D01*
X67517784Y-87057080D01*
X67349963Y-87030500D01*
X67349958Y-87030500D01*
X67180042Y-87030500D01*
X67180037Y-87030500D01*
X67012215Y-87057080D01*
X66850611Y-87109589D01*
X66699218Y-87186729D01*
X66620789Y-87243711D01*
X66561753Y-87286604D01*
X66561751Y-87286606D01*
X66561750Y-87286606D01*
X66441606Y-87406750D01*
X66441606Y-87406751D01*
X66441604Y-87406753D01*
X66398711Y-87465789D01*
X66341729Y-87544218D01*
X66264589Y-87695611D01*
X66212080Y-87857215D01*
X66185500Y-88025036D01*
X58700500Y-88025036D01*
X58700500Y-85485036D01*
X66185500Y-85485036D01*
X66185500Y-85654963D01*
X66212080Y-85822784D01*
X66264589Y-85984388D01*
X66341729Y-86135781D01*
X66441604Y-86273247D01*
X66561753Y-86393396D01*
X66699219Y-86493271D01*
X66770745Y-86529715D01*
X66850611Y-86570410D01*
X66850613Y-86570410D01*
X66850616Y-86570412D01*
X66937237Y-86598557D01*
X67012215Y-86622919D01*
X67180037Y-86649500D01*
X67180042Y-86649500D01*
X67349963Y-86649500D01*
X67517784Y-86622919D01*
X67679384Y-86570412D01*
X67830781Y-86493271D01*
X67968247Y-86393396D01*
X68088396Y-86273247D01*
X68188271Y-86135781D01*
X68265412Y-85984384D01*
X68317919Y-85822784D01*
X68344500Y-85654963D01*
X68344500Y-85485036D01*
X68725500Y-85485036D01*
X68725500Y-85654963D01*
X68752080Y-85822784D01*
X68804589Y-85984388D01*
X68881729Y-86135781D01*
X68981604Y-86273247D01*
X69101753Y-86393396D01*
X69239219Y-86493271D01*
X69310745Y-86529715D01*
X69390611Y-86570410D01*
X69390613Y-86570410D01*
X69390616Y-86570412D01*
X69477237Y-86598557D01*
X69552215Y-86622919D01*
X69720037Y-86649500D01*
X69720042Y-86649500D01*
X69889963Y-86649500D01*
X70057784Y-86622919D01*
X70219384Y-86570412D01*
X70370781Y-86493271D01*
X70508247Y-86393396D01*
X70628396Y-86273247D01*
X70728271Y-86135781D01*
X70805412Y-85984384D01*
X70857919Y-85822784D01*
X70884500Y-85654963D01*
X70884500Y-85485036D01*
X70857919Y-85317215D01*
X70805410Y-85155611D01*
X70728270Y-85004218D01*
X70628396Y-84866753D01*
X70508247Y-84746604D01*
X70370781Y-84646729D01*
X70219388Y-84569589D01*
X70057784Y-84517080D01*
X69889963Y-84490500D01*
X69889958Y-84490500D01*
X69720042Y-84490500D01*
X69720037Y-84490500D01*
X69552215Y-84517080D01*
X69390611Y-84569589D01*
X69239218Y-84646729D01*
X69160789Y-84703711D01*
X69101753Y-84746604D01*
X69101751Y-84746606D01*
X69101750Y-84746606D01*
X68981606Y-84866750D01*
X68981606Y-84866751D01*
X68981604Y-84866753D01*
X68938711Y-84925789D01*
X68881729Y-85004218D01*
X68804589Y-85155611D01*
X68752080Y-85317215D01*
X68725500Y-85485036D01*
X68344500Y-85485036D01*
X68317919Y-85317215D01*
X68265410Y-85155611D01*
X68188270Y-85004218D01*
X68088396Y-84866753D01*
X67968247Y-84746604D01*
X67830781Y-84646729D01*
X67679388Y-84569589D01*
X67517784Y-84517080D01*
X67349963Y-84490500D01*
X67349958Y-84490500D01*
X67180042Y-84490500D01*
X67180037Y-84490500D01*
X67012215Y-84517080D01*
X66850611Y-84569589D01*
X66699218Y-84646729D01*
X66620789Y-84703711D01*
X66561753Y-84746604D01*
X66561751Y-84746606D01*
X66561750Y-84746606D01*
X66441606Y-84866750D01*
X66441606Y-84866751D01*
X66441604Y-84866753D01*
X66398711Y-84925789D01*
X66341729Y-85004218D01*
X66264589Y-85155611D01*
X66212080Y-85317215D01*
X66185500Y-85485036D01*
X58700500Y-85485036D01*
X58700500Y-72800000D01*
X60100000Y-72800000D01*
X62195500Y-72800000D01*
X62195500Y-67529500D01*
X60100000Y-67529500D01*
X60100000Y-72800000D01*
X58700500Y-72800000D01*
X58700500Y-68004875D01*
X58700882Y-67995146D01*
X58715733Y-67806441D01*
X58718775Y-67787230D01*
X58761826Y-67607911D01*
X58767832Y-67589426D01*
X58838406Y-67419044D01*
X58847237Y-67401716D01*
X58943583Y-67244495D01*
X58955019Y-67228754D01*
X58994135Y-67182955D01*
X59074781Y-67088530D01*
X59088530Y-67074781D01*
X59228757Y-66955016D01*
X59244495Y-66943583D01*
X59401719Y-66847235D01*
X59419049Y-66838404D01*
X59589426Y-66767832D01*
X59607911Y-66761826D01*
X59787230Y-66718775D01*
X59806435Y-66715733D01*
X59995146Y-66700881D01*
X60004875Y-66700500D01*
X65039880Y-66700500D01*
X65039882Y-66700500D01*
X65113574Y-66669976D01*
X65169976Y-66613574D01*
X65200500Y-66539882D01*
X65200500Y-61504875D01*
X65200882Y-61495146D01*
X65215733Y-61306441D01*
X65218775Y-61287230D01*
X65261826Y-61107911D01*
X65267832Y-61089426D01*
X65338404Y-60919049D01*
X65347237Y-60901716D01*
X65436418Y-60756188D01*
X65443584Y-60744492D01*
X65455019Y-60728754D01*
X65494135Y-60682955D01*
X65574781Y-60588530D01*
X65588530Y-60574781D01*
X65728757Y-60455016D01*
X65744495Y-60443583D01*
X65806309Y-60405703D01*
X65901719Y-60347235D01*
X65919049Y-60338404D01*
X66089426Y-60267832D01*
X66107911Y-60261826D01*
X66287230Y-60218775D01*
X66306435Y-60215733D01*
X66495146Y-60200881D01*
X66504875Y-60200500D01*
X66539882Y-60200500D01*
X67877750Y-60200500D01*
X67944789Y-60220185D01*
G37*
%TD.AperFunction*%
%TD*%
M02*
