%TF.GenerationSoftware,KiCad,Pcbnew,9.0.7-9.0.7~ubuntu24.04.1*%
%TF.CreationDate,2026-03-03T17:56:52+01:00*%
%TF.ProjectId,DIB2 USB adapter,44494232-2055-4534-9220-616461707465,r1B1*%
%TF.SameCoordinates,Original*%
%TF.FileFunction,Copper,L4,Bot*%
%TF.FilePolarity,Positive*%
%FSLAX46Y46*%
G04 Gerber Fmt 4.6, Leading zero omitted, Abs format (unit mm)*
G04 Created by KiCad (PCBNEW 9.0.7-9.0.7~ubuntu24.04.1) date 2026-03-03 17:56:52*
%MOMM*%
%LPD*%
G01*
G04 APERTURE LIST*
%ADD10C,0.101600*%
%TA.AperFunction,NonConductor*%
%ADD11C,0.101600*%
%TD*%
%TA.AperFunction,ComponentPad*%
%ADD12C,1.650000*%
%TD*%
%TA.AperFunction,ConnectorPad*%
%ADD13R,0.700000X4.200000*%
%TD*%
%TA.AperFunction,ComponentPad*%
%ADD14C,5.500000*%
%TD*%
%TA.AperFunction,ComponentPad*%
%ADD15C,1.208000*%
%TD*%
%TA.AperFunction,ComponentPad*%
%ADD16C,1.100000*%
%TD*%
%TA.AperFunction,ComponentPad*%
%ADD17C,3.316000*%
%TD*%
%TA.AperFunction,ViaPad*%
%ADD18C,0.600000*%
%TD*%
%TA.AperFunction,Conductor*%
%ADD19C,0.406400*%
%TD*%
%TA.AperFunction,Conductor*%
%ADD20C,0.254000*%
%TD*%
%TA.AperFunction,Conductor*%
%ADD21C,0.177800*%
%TD*%
G04 APERTURE END LIST*
D10*
D11*
X61005328Y-71819210D02*
X61005328Y-72428810D01*
X61223042Y-71470868D02*
X61440756Y-72124010D01*
X61440756Y-72124010D02*
X60874699Y-72124010D01*
D12*
%TO.P,X1,1,Pin_1*%
%TO.N,+12V*%
X69805000Y-108430000D03*
%TO.P,X1,2,Pin_2*%
%TO.N,+5V*%
X67265000Y-108430000D03*
%TO.P,X1,3,Pin_3*%
%TO.N,GND*%
X69805000Y-105890000D03*
%TO.P,X1,4,Pin_4*%
X67265000Y-105890000D03*
%TO.P,X1,5,Pin_5*%
%TO.N,/DIB_SCLK*%
X69805000Y-103350000D03*
%TO.P,X1,6,Pin_6*%
%TO.N,+3V3*%
X67265000Y-103350000D03*
%TO.P,X1,7,Pin_7*%
%TO.N,/DIB_MOSI*%
X69805000Y-100810000D03*
%TO.P,X1,8,Pin_8*%
%TO.N,/~{DIB_FAULT}*%
X67265000Y-100810000D03*
%TO.P,X1,9,Pin_9*%
%TO.N,/DIB_MISO*%
X69805000Y-98270000D03*
%TO.P,X1,10,Pin_10*%
%TO.N,/AC_FREQ*%
X67265000Y-98270000D03*
%TO.P,X1,11,Pin_11*%
%TO.N,/DIB_IRQ*%
X69805000Y-95730000D03*
%TO.P,X1,12,Pin_12*%
%TO.N,/DIB_OE_SYNC*%
X67265000Y-95730000D03*
%TO.P,X1,13,Pin_13*%
%TO.N,/~{DIB_CSA}*%
X69805000Y-93190000D03*
%TO.P,X1,14,Pin_14*%
%TO.N,/~{DIB_RESET}*%
X67265000Y-93190000D03*
%TO.P,X1,15,Pin_15*%
%TO.N,/DIB_UART_RX*%
X69805000Y-90650000D03*
%TO.P,X1,16,Pin_16*%
%TO.N,/DIB_UART_TX*%
X67265000Y-90650000D03*
%TO.P,X1,17,Pin_17*%
%TO.N,/DIB_I2C_SCL*%
X69805000Y-88110000D03*
%TO.P,X1,18,Pin_18*%
%TO.N,/DIB_I2C_SDA*%
X67265000Y-88110000D03*
%TO.P,X1,19,Pin_19*%
%TO.N,/~{DIB_ALERT}*%
X69805000Y-85570000D03*
%TO.P,X1,20,Pin_20*%
%TO.N,PE*%
X67265000Y-85570000D03*
%TD*%
D13*
%TO.P,X2,A1,PE*%
%TO.N,PE*%
X116200000Y-149000000D03*
%TO.P,X2,A2,+12V*%
%TO.N,+12V*%
X117200000Y-149000000D03*
%TO.P,X2,A3,+12V*%
X118200000Y-149000000D03*
%TO.P,X2,A4,GND*%
%TO.N,GND*%
X119200000Y-149000000D03*
%TO.P,X2,A5,+5V*%
%TO.N,+5V*%
X120200000Y-149000000D03*
%TO.P,X2,A6,+5V*%
X121200000Y-149000000D03*
%TO.P,X2,A7,GND*%
%TO.N,GND*%
X122200000Y-149000000D03*
%TO.P,X2,A8,~{SHUTDOWN}*%
%TO.N,unconnected-(X2-~{SHUTDOWN}-PadA8)*%
X123200000Y-149000000D03*
%TO.P,X2,A9,~{SMBUS_ALERT}*%
%TO.N,/~{DIB_ALERT}*%
X124200000Y-149000000D03*
%TO.P,X2,A10,SCL/SMBCLK*%
%TO.N,/DIB_I2C_SCL*%
X125200000Y-149000000D03*
%TO.P,X2,A11,GND*%
%TO.N,GND*%
X126200000Y-149000000D03*
%TO.P,X2,A12,GND*%
X129197300Y-149000000D03*
%TO.P,X2,A13,QSPI_CLK*%
%TO.N,unconnected-(X2-QSPI_CLK-PadA13)*%
X130197300Y-149000000D03*
%TO.P,X2,A14,QSPI_IO0*%
%TO.N,unconnected-(X2-QSPI_IO0-PadA14)*%
X131197300Y-149000000D03*
%TO.P,X2,A15,QSPI_IO1*%
%TO.N,unconnected-(X2-QSPI_IO1-PadA15)*%
X132197300Y-149000000D03*
%TO.P,X2,A16,QSPI_IO2*%
%TO.N,unconnected-(X2-QSPI_IO2-PadA16)*%
X133197300Y-149000000D03*
%TO.P,X2,A17,QSPI_IO3*%
%TO.N,unconnected-(X2-QSPI_IO3-PadA17)*%
X134197300Y-149000000D03*
%TO.P,X2,A18,QSPI_NCS*%
%TO.N,unconnected-(X2-QSPI_NCS-PadA18)*%
X135197300Y-149000000D03*
%TO.P,X2,A19,RSVD1*%
%TO.N,unconnected-(X2-RSVD1-PadA19)*%
X136197300Y-149000000D03*
%TO.P,X2,A20,RSVD2*%
%TO.N,unconnected-(X2-RSVD2-PadA20)*%
X137197300Y-149000000D03*
%TO.P,X2,A21,SCLK*%
%TO.N,/DIB_SCLK*%
X138197300Y-149000000D03*
%TO.P,X2,A22,MOSI*%
%TO.N,/DIB_MOSI*%
X139197300Y-149000000D03*
%TO.P,X2,A23,MISO*%
%TO.N,/DIB_MISO*%
X140197300Y-149000000D03*
%TO.P,X2,A24,~{IRQ}*%
%TO.N,/DIB_IRQ*%
X141197300Y-149000000D03*
%TO.P,X2,A25,~{CSA}*%
%TO.N,/~{DIB_CSA}*%
X142197300Y-149000000D03*
%TO.P,X2,A26,~{CSB}*%
%TO.N,unconnected-(X2-~{CSB}-PadA26)*%
X143197300Y-149000000D03*
%TO.P,X2,A27,HSD+*%
%TO.N,/DIB_USB_D+*%
X144197300Y-149000000D03*
%TO.P,X2,A28,HSD-*%
%TO.N,/DIB_USB_D-*%
X145197300Y-149000000D03*
%TO.P,X2,A29,SSTX+*%
%TO.N,/USB3_TX+*%
X146197300Y-149000000D03*
%TO.P,X2,A30,SSTX-*%
%TO.N,/USB3_TX-*%
X147197300Y-149000000D03*
%TO.P,X2,A31,SSRX+*%
%TO.N,/USB3_RX+*%
X148197300Y-149000000D03*
%TO.P,X2,A32,SSRX-*%
%TO.N,/USB3_RX-*%
X149197300Y-149000000D03*
%TD*%
D14*
%TO.P,KK1,*%
%TO.N,*%
X69500000Y-63000000D03*
%TD*%
D15*
%TO.P,X3,1,VBUS*%
%TO.N,+5V*%
X70300000Y-124500000D03*
%TO.P,X3,2,D-*%
%TO.N,/DIB_USB_D+*%
X70300000Y-127000000D03*
%TO.P,X3,3,D+*%
%TO.N,/DIB_USB_D-*%
X70300000Y-129000000D03*
%TO.P,X3,4,GND*%
%TO.N,GND*%
X70300000Y-131500000D03*
D16*
%TO.P,X3,5,SSRX-*%
%TO.N,/USB3_RX+*%
X71800000Y-132000000D03*
%TO.P,X3,6,SSRX+*%
%TO.N,/USB3_RX-*%
X71800000Y-130000000D03*
D15*
%TO.P,X3,7,GND*%
%TO.N,GND*%
X71800000Y-128000000D03*
D16*
%TO.P,X3,8,SSTX-*%
%TO.N,/USB3_TX-*%
X71800000Y-126000000D03*
%TO.P,X3,9,SSTX+*%
%TO.N,/USB3_TX+*%
X71800000Y-124000000D03*
D17*
%TO.P,X3,SH,SH*%
%TO.N,PE*%
X68300000Y-121430000D03*
X68300000Y-134570000D03*
%TD*%
D14*
%TO.P,KK2,*%
%TO.N,*%
X69500000Y-147000000D03*
%TD*%
D18*
%TO.N,+3V3*%
X120100000Y-143211869D03*
X119311869Y-143200000D03*
%TO.N,/DIB_I2C_SCL*%
X92225230Y-139080000D03*
%TO.N,GND*%
X141361800Y-145390000D03*
X129197300Y-146447598D03*
X147750000Y-146447598D03*
X73470000Y-104020000D03*
X75690000Y-122230769D03*
X78992582Y-120680140D03*
X122211760Y-146448107D03*
X138197300Y-145400000D03*
X73450042Y-109119922D03*
X73460000Y-111070000D03*
X118200000Y-146295619D03*
X126200000Y-146447598D03*
%TO.N,/~{DIB_CSA}*%
X91090000Y-136200000D03*
%TO.N,/DIB_I2C_SDA*%
X87860000Y-89380000D03*
X125200000Y-140060000D03*
X125190000Y-143220000D03*
%TO.N,+5V*%
X74140000Y-138110000D03*
X121100000Y-146400000D03*
X74140000Y-137250000D03*
X121100000Y-145700000D03*
%TO.N,/DIB_OE_SYNC*%
X130190000Y-140610000D03*
X130190000Y-145320000D03*
X97660000Y-96900000D03*
%TO.N,/DIB_UART_TX*%
X135200000Y-140300000D03*
X97460000Y-91890000D03*
X135200000Y-145350000D03*
%TO.N,/DIB_MOSI*%
X88500000Y-137813000D03*
%TO.N,/AC_FREQ*%
X131200000Y-145340000D03*
X131148711Y-140590000D03*
X100768712Y-99201288D03*
%TO.N,/DIB_IRQ*%
X90290000Y-136663000D03*
%TO.N,/~{DIB_ALERT}*%
X93008400Y-139757000D03*
%TO.N,/~{DIB_RESET}*%
X123200000Y-140080000D03*
X88090000Y-94430000D03*
X123200000Y-142281300D03*
%TO.N,/DIB_SCLK*%
X87710000Y-138490000D03*
%TO.N,/DIB_USB_D-*%
X145040000Y-146250000D03*
%TO.N,+12V*%
X117300000Y-146480000D03*
X117300000Y-145730000D03*
%TO.N,/DIB_USB_D+*%
X144310000Y-146250000D03*
%TO.N,/~{DIB_FAULT}*%
X124200000Y-140060000D03*
X97470002Y-102080000D03*
X124200000Y-143210000D03*
%TO.N,/DIB_UART_RX*%
X97460000Y-90910000D03*
X136200000Y-145370000D03*
X136120000Y-140300000D03*
%TO.N,/DIB_MISO*%
X89310000Y-137340000D03*
%TD*%
D19*
%TO.N,PE*%
X66470000Y-132740000D02*
X68300000Y-134570000D01*
X68300000Y-135400000D02*
X68300000Y-134570000D01*
X63020000Y-89815000D02*
X67265000Y-85570000D01*
X116200000Y-144120000D02*
X115610000Y-143530000D01*
X63020000Y-116150000D02*
X63020000Y-89815000D01*
X66470000Y-123260000D02*
X66470000Y-132740000D01*
X68300000Y-121430000D02*
X63020000Y-116150000D01*
X116200000Y-149000000D02*
X116200000Y-144120000D01*
X76430000Y-143530000D02*
X68300000Y-135400000D01*
X68300000Y-121430000D02*
X66470000Y-123260000D01*
X115610000Y-143530000D02*
X76430000Y-143530000D01*
D20*
%TO.N,/DIB_I2C_SCL*%
X118540000Y-139080000D02*
X92225230Y-139080000D01*
X125200000Y-149000000D02*
X125200000Y-145740000D01*
X125200000Y-145740000D02*
X118540000Y-139080000D01*
%TO.N,GND*%
X122170000Y-146447598D02*
X122200000Y-146477598D01*
X122200000Y-146477598D02*
X122200000Y-149000000D01*
X118849619Y-146295619D02*
X118200000Y-146295619D01*
X119200000Y-146646000D02*
X118849619Y-146295619D01*
X119200000Y-149000000D02*
X119200000Y-146646000D01*
X126200000Y-146447598D02*
X126200000Y-149000000D01*
X129197300Y-146447598D02*
X129197300Y-149000000D01*
%TO.N,/~{DIB_CSA}*%
X133291200Y-136221200D02*
X133270000Y-136200000D01*
X133270000Y-136200000D02*
X91090000Y-136200000D01*
X142197300Y-143997300D02*
X134421200Y-136221200D01*
X142197300Y-149000000D02*
X142197300Y-143997300D01*
X134421200Y-136221200D02*
X133291200Y-136221200D01*
%TO.N,/DIB_I2C_SDA*%
X68535000Y-89380000D02*
X67265000Y-88110000D01*
X87860000Y-89380000D02*
X68535000Y-89380000D01*
D21*
%TO.N,/USB3_TX-*%
X71650000Y-125135100D02*
X71800000Y-125285100D01*
X68635100Y-131431612D02*
X68635100Y-126668388D01*
X146862400Y-146915100D02*
X146862400Y-146743576D01*
X147197300Y-147250000D02*
X146862400Y-146915100D01*
X71800000Y-125285100D02*
X71800000Y-126000000D01*
X68635100Y-126668388D02*
X69448388Y-125855100D01*
X147197300Y-149000000D02*
X147197300Y-147250000D01*
X71538388Y-125135100D02*
X71650000Y-125135100D01*
X146922306Y-146218818D02*
X134703488Y-134000000D01*
X146922306Y-146683670D02*
X146922306Y-146218818D01*
X69448388Y-125855100D02*
X70818388Y-125855100D01*
X134703488Y-134000000D02*
X71203488Y-134000000D01*
X70818388Y-125855100D02*
X71538388Y-125135100D01*
X71203488Y-134000000D02*
X68635100Y-131431612D01*
X146862400Y-146743576D02*
X146922306Y-146683670D01*
%TO.N,/USB3_TX+*%
X134566712Y-134330200D02*
X71066712Y-134330200D01*
X70681612Y-125524900D02*
X71401612Y-124804900D01*
X71600000Y-124804900D02*
X71800000Y-124604900D01*
X69311612Y-125524900D02*
X70681612Y-125524900D01*
X71401612Y-124804900D02*
X71600000Y-124804900D01*
X146532200Y-146611909D02*
X146592106Y-146552003D01*
X146532200Y-146915100D02*
X146532200Y-146611909D01*
X146197300Y-149000000D02*
X146197300Y-147250000D01*
X68304900Y-126531612D02*
X69311612Y-125524900D01*
X71066712Y-134330200D02*
X68304900Y-131568388D01*
X146197300Y-147250000D02*
X146532200Y-146915100D01*
X71800000Y-124604900D02*
X71800000Y-124000000D01*
X146592106Y-146552003D02*
X146592106Y-146355594D01*
X68304900Y-131568388D02*
X68304900Y-126531612D01*
X146592106Y-146355594D02*
X134566712Y-134330200D01*
%TO.N,/USB3_RX+*%
X148489048Y-145560000D02*
X148489048Y-146634257D01*
X77210174Y-132092200D02*
X77362574Y-132092200D01*
X77832474Y-130834900D02*
X77832474Y-130377700D01*
X72634900Y-131165100D02*
X73552574Y-131165100D01*
X74162174Y-132092200D02*
X74314574Y-132092200D01*
X77972174Y-130238000D02*
X78124574Y-130238000D01*
X147778815Y-144891165D02*
X147878791Y-144991141D01*
X71800000Y-132000000D02*
X72634900Y-131165100D01*
X74784474Y-131304800D02*
X74784474Y-130834900D01*
X74784474Y-131622300D02*
X74784474Y-131304800D01*
X79648574Y-131165100D02*
X80469767Y-131165100D01*
X148489048Y-145262536D02*
X148489048Y-145560000D01*
X147240000Y-144352490D02*
X147339905Y-144452395D01*
X76308474Y-131165100D02*
X76308474Y-130834900D01*
X75686174Y-132092200D02*
X75838574Y-132092200D01*
X73692274Y-131304800D02*
X73692274Y-131622300D01*
X74784474Y-130834900D02*
X74784474Y-130377700D01*
X148489048Y-146634257D02*
X148532200Y-146677409D01*
X80469767Y-131165100D02*
X134391612Y-131165100D01*
X76448174Y-130238000D02*
X76600574Y-130238000D01*
X78734174Y-132092200D02*
X78886574Y-132092200D01*
X148197300Y-147250000D02*
X148197300Y-149000000D01*
X147678908Y-144452395D02*
X147778815Y-144552303D01*
X78264274Y-130377700D02*
X78264274Y-130834900D01*
X77832474Y-131622300D02*
X77832474Y-131165100D01*
X148217653Y-144991141D02*
X148317630Y-145091118D01*
X148532200Y-146915100D02*
X148197300Y-147250000D01*
X76740274Y-130377700D02*
X76740274Y-130834900D01*
X77832474Y-131165100D02*
X77832474Y-130834900D01*
X76308474Y-131622300D02*
X76308474Y-131165100D01*
X76740274Y-131165100D02*
X76740274Y-131622300D01*
X74924174Y-130238000D02*
X75076574Y-130238000D01*
X75216274Y-131165100D02*
X75216274Y-131622300D01*
X76740274Y-130834900D02*
X76740274Y-131165100D01*
X148317630Y-145091118D02*
X148489048Y-145262536D01*
X79356474Y-131622300D02*
X79356474Y-131304800D01*
X79496174Y-131165100D02*
X79648574Y-131165100D01*
X148532200Y-146677409D02*
X148532200Y-146915100D01*
X75216274Y-130377700D02*
X75216274Y-130834900D01*
X78264274Y-130834900D02*
X78264274Y-131304800D01*
X75216274Y-130834900D02*
X75216274Y-131165100D01*
X76308474Y-130834900D02*
X76308474Y-130377700D01*
X78264274Y-131304800D02*
X78264274Y-131622300D01*
X134391612Y-131165100D02*
X147240000Y-144013488D01*
X73552574Y-131165100D02*
G75*
G02*
X73692300Y-131304800I26J-139700D01*
G01*
X147339905Y-144452395D02*
G75*
G03*
X147509407Y-144452395I84751J84751D01*
G01*
X147240000Y-144182989D02*
G75*
G03*
X147240039Y-144352450I84700J-84711D01*
G01*
X147509407Y-144452395D02*
G75*
G02*
X147678909Y-144452394I84751J-84750D01*
G01*
X77362574Y-132092200D02*
G75*
G03*
X77832500Y-131622300I26J469900D01*
G01*
X75076574Y-130238000D02*
G75*
G02*
X75216300Y-130377700I26J-139700D01*
G01*
X78124574Y-130238000D02*
G75*
G02*
X78264300Y-130377700I26J-139700D01*
G01*
X77832474Y-130377700D02*
G75*
G02*
X77972174Y-130237974I139726J0D01*
G01*
X74314574Y-132092200D02*
G75*
G03*
X74784500Y-131622300I26J469900D01*
G01*
X76740274Y-131622300D02*
G75*
G03*
X77210174Y-132092226I469926J0D01*
G01*
X78264274Y-131622300D02*
G75*
G03*
X78734174Y-132092226I469926J0D01*
G01*
X147778815Y-144721734D02*
G75*
G03*
X147778864Y-144891115I84685J-84666D01*
G01*
X76600574Y-130238000D02*
G75*
G02*
X76740300Y-130377700I26J-139700D01*
G01*
X74784474Y-130377700D02*
G75*
G02*
X74924174Y-130237974I139726J0D01*
G01*
X147240000Y-144013488D02*
G75*
G02*
X147239962Y-144182951I-84800J-84712D01*
G01*
X76308474Y-130377700D02*
G75*
G02*
X76448174Y-130237974I139726J0D01*
G01*
X148048222Y-144991141D02*
G75*
G02*
X148217653Y-144991140I84716J-84717D01*
G01*
X79356474Y-131304800D02*
G75*
G02*
X79496174Y-131165074I139726J0D01*
G01*
X147778815Y-144552303D02*
G75*
G02*
X147778797Y-144721715I-84715J-84697D01*
G01*
X78886574Y-132092200D02*
G75*
G03*
X79356500Y-131622300I26J469900D01*
G01*
X75216274Y-131622300D02*
G75*
G03*
X75686174Y-132092226I469926J0D01*
G01*
X75838574Y-132092200D02*
G75*
G03*
X76308500Y-131622300I26J469900D01*
G01*
X73692274Y-131622300D02*
G75*
G03*
X74162174Y-132092226I469926J0D01*
G01*
X147878791Y-144991141D02*
G75*
G03*
X148048222Y-144991142I84716J84717D01*
G01*
%TO.N,/USB3_RX-*%
X78594474Y-130834900D02*
X78594474Y-131304800D01*
X75978274Y-131165100D02*
X75978274Y-130834900D01*
X77972174Y-129907800D02*
X78124574Y-129907800D01*
X79648574Y-130834900D02*
X80469767Y-130834900D01*
X74162174Y-131762000D02*
X74314574Y-131762000D01*
X77070474Y-130377700D02*
X77070474Y-130834900D01*
X77502274Y-130834900D02*
X77502274Y-130377700D01*
X77070474Y-131165100D02*
X77070474Y-131622300D01*
X148862400Y-146551048D02*
X148862400Y-146915100D01*
X78594474Y-130377700D02*
X78594474Y-130834900D01*
X76448174Y-129907800D02*
X76600574Y-129907800D01*
X148819248Y-146507896D02*
X148862400Y-146551048D01*
X78594474Y-131304800D02*
X78594474Y-131622300D01*
X77502274Y-131622300D02*
X77502274Y-131165100D01*
X77070474Y-130834900D02*
X77070474Y-131165100D01*
X74022474Y-131304800D02*
X74022474Y-131622300D01*
X77210174Y-131762000D02*
X77362574Y-131762000D01*
X75546474Y-130834900D02*
X75546474Y-131165100D01*
X74454274Y-131304800D02*
X74454274Y-130834900D01*
X148819248Y-145125760D02*
X148819248Y-146507896D01*
X148862400Y-146915100D02*
X149197300Y-147250000D01*
X75686174Y-131762000D02*
X75838574Y-131762000D01*
X80469767Y-130834900D02*
X134528388Y-130834900D01*
X74454274Y-130834900D02*
X74454274Y-130377700D01*
X79026274Y-131622300D02*
X79026274Y-131304800D01*
X75978274Y-131622300D02*
X75978274Y-131165100D01*
X78734174Y-131762000D02*
X78886574Y-131762000D01*
X75546474Y-130377700D02*
X75546474Y-130834900D01*
X72634900Y-130834900D02*
X73552574Y-130834900D01*
X74924174Y-129907800D02*
X75076574Y-129907800D01*
X74454274Y-131622300D02*
X74454274Y-131304800D01*
X75546474Y-131165100D02*
X75546474Y-131622300D01*
X149197300Y-147250000D02*
X149197300Y-149000000D01*
X134528388Y-130834900D02*
X148819248Y-145125760D01*
X79496174Y-130834900D02*
X79648574Y-130834900D01*
X75978274Y-130834900D02*
X75978274Y-130377700D01*
X71800000Y-130000000D02*
X72634900Y-130834900D01*
X77502274Y-131165100D02*
X77502274Y-130834900D01*
X77502274Y-130377700D02*
G75*
G02*
X77972174Y-129907774I469926J0D01*
G01*
X73552574Y-130834900D02*
G75*
G02*
X74022500Y-131304800I26J-469900D01*
G01*
X75076574Y-129907800D02*
G75*
G02*
X75546500Y-130377700I26J-469900D01*
G01*
X75546474Y-131622300D02*
G75*
G03*
X75686174Y-131762026I139726J0D01*
G01*
X78886574Y-131762000D02*
G75*
G03*
X79026300Y-131622300I26J139700D01*
G01*
X75838574Y-131762000D02*
G75*
G03*
X75978300Y-131622300I26J139700D01*
G01*
X76600574Y-129907800D02*
G75*
G02*
X77070500Y-130377700I26J-469900D01*
G01*
X77070474Y-131622300D02*
G75*
G03*
X77210174Y-131762026I139726J0D01*
G01*
X74454274Y-130377700D02*
G75*
G02*
X74924174Y-129907774I469926J0D01*
G01*
X79026274Y-131304800D02*
G75*
G02*
X79496174Y-130834874I469926J0D01*
G01*
X78594474Y-131622300D02*
G75*
G03*
X78734174Y-131762026I139726J0D01*
G01*
X74022474Y-131622300D02*
G75*
G03*
X74162174Y-131762026I139726J0D01*
G01*
X77362574Y-131762000D02*
G75*
G03*
X77502300Y-131622300I26J139700D01*
G01*
X78124574Y-129907800D02*
G75*
G02*
X78594500Y-130377700I26J-469900D01*
G01*
X74314574Y-131762000D02*
G75*
G03*
X74454300Y-131622300I26J139700D01*
G01*
X75978274Y-130377700D02*
G75*
G02*
X76448174Y-129907774I469926J0D01*
G01*
D20*
%TO.N,/DIB_OE_SYNC*%
X97560000Y-97000000D02*
X97660000Y-96900000D01*
X67265000Y-95730000D02*
X68535000Y-97000000D01*
X68535000Y-97000000D02*
X97560000Y-97000000D01*
%TO.N,/DIB_UART_TX*%
X67265000Y-90650000D02*
X68505000Y-91890000D01*
X68505000Y-91890000D02*
X97460000Y-91890000D01*
%TO.N,/DIB_MOSI*%
X131750000Y-137920000D02*
X88607000Y-137920000D01*
X139197300Y-149000000D02*
X139197300Y-145367300D01*
X139197300Y-145367300D02*
X131750000Y-137920000D01*
X88607000Y-137920000D02*
X88500000Y-137813000D01*
%TO.N,/AC_FREQ*%
X100430000Y-99540000D02*
X100768712Y-99201288D01*
X67265000Y-98270000D02*
X68535000Y-99540000D01*
X68535000Y-99540000D02*
X100430000Y-99540000D01*
%TO.N,/DIB_IRQ*%
X141197300Y-149000000D02*
X141197300Y-146597300D01*
X141197300Y-146597300D02*
X140630000Y-146030000D01*
X134280000Y-136780000D02*
X90407000Y-136780000D01*
X140630000Y-146030000D02*
X140630000Y-143130000D01*
X90407000Y-136780000D02*
X90290000Y-136663000D01*
X140630000Y-143130000D02*
X134280000Y-136780000D01*
%TO.N,/~{DIB_ALERT}*%
X124200000Y-149000000D02*
X124200000Y-145530262D01*
X93115400Y-139650000D02*
X93008400Y-139757000D01*
X124200000Y-145530262D02*
X118319738Y-139650000D01*
X118319738Y-139650000D02*
X93115400Y-139650000D01*
%TO.N,/~{DIB_RESET}*%
X67265000Y-93190000D02*
X68505000Y-94430000D01*
X68505000Y-94430000D02*
X88090000Y-94430000D01*
%TO.N,/DIB_SCLK*%
X130140000Y-138490000D02*
X87710000Y-138490000D01*
X138197300Y-146547300D02*
X130140000Y-138490000D01*
X138197300Y-149000000D02*
X138197300Y-146547300D01*
D21*
%TO.N,/DIB_USB_D-*%
X145197300Y-147250000D02*
X144862400Y-146915100D01*
X144862400Y-146427600D02*
X145040000Y-146250000D01*
X144862400Y-146915100D02*
X144862400Y-146427600D01*
X145197300Y-149000000D02*
X145197300Y-147250000D01*
%TO.N,/DIB_USB_D+*%
X144532200Y-146915100D02*
X144532200Y-146472200D01*
X144197300Y-149000000D02*
X144197300Y-147250000D01*
X144197300Y-147250000D02*
X144532200Y-146915100D01*
X144532200Y-146472200D02*
X144310000Y-146250000D01*
D20*
%TO.N,/~{DIB_FAULT}*%
X68535000Y-102080000D02*
X97470002Y-102080000D01*
X67265000Y-100810000D02*
X68535000Y-102080000D01*
%TO.N,/DIB_UART_RX*%
X69805000Y-90650000D02*
X97200000Y-90650000D01*
X97200000Y-90650000D02*
X97460000Y-90910000D01*
%TO.N,/DIB_MISO*%
X140071200Y-143351200D02*
X134060000Y-137340000D01*
X140197300Y-149000000D02*
X140197300Y-146387563D01*
X140197300Y-146387563D02*
X140071200Y-146261462D01*
X140071200Y-146261462D02*
X140071200Y-143351200D01*
X134060000Y-137340000D02*
X89310000Y-137340000D01*
%TD*%
%TA.AperFunction,Conductor*%
%TO.N,+5V*%
G36*
X121126810Y-145301236D02*
G01*
X121221001Y-145316155D01*
X121250930Y-145325880D01*
X121328749Y-145365531D01*
X121354212Y-145384031D01*
X121415968Y-145445787D01*
X121434468Y-145471250D01*
X121474119Y-145549069D01*
X121483845Y-145579003D01*
X121498761Y-145673176D01*
X121500000Y-145688914D01*
X121500000Y-150711085D01*
X121498761Y-150726822D01*
X121498761Y-150726823D01*
X121483845Y-150820996D01*
X121474119Y-150850930D01*
X121434468Y-150928749D01*
X121415968Y-150954212D01*
X121354212Y-151015968D01*
X121328749Y-151034468D01*
X121250930Y-151074119D01*
X121220996Y-151083845D01*
X121144346Y-151095985D01*
X121126821Y-151098761D01*
X121111086Y-151100000D01*
X120288914Y-151100000D01*
X120273178Y-151098761D01*
X120252075Y-151095418D01*
X120179003Y-151083845D01*
X120149069Y-151074119D01*
X120071250Y-151034468D01*
X120045787Y-151015968D01*
X119984031Y-150954212D01*
X119965531Y-150928749D01*
X119925880Y-150850930D01*
X119916155Y-150821001D01*
X119901237Y-150726811D01*
X119900000Y-150711085D01*
X119900000Y-145688914D01*
X119901236Y-145673189D01*
X119916155Y-145578996D01*
X119925880Y-145549069D01*
X119965533Y-145471246D01*
X119984028Y-145445790D01*
X120045790Y-145384028D01*
X120071246Y-145365533D01*
X120149070Y-145325879D01*
X120178996Y-145316155D01*
X120273189Y-145301236D01*
X120288914Y-145300000D01*
X121111086Y-145300000D01*
X121126810Y-145301236D01*
G37*
%TD.AperFunction*%
%TD*%
%TA.AperFunction,Conductor*%
%TO.N,+12V*%
G36*
X117326810Y-145301236D02*
G01*
X117421001Y-145316155D01*
X117450930Y-145325880D01*
X117528749Y-145365531D01*
X117554212Y-145384031D01*
X117615968Y-145445787D01*
X117634468Y-145471250D01*
X117674119Y-145549069D01*
X117683845Y-145579003D01*
X117698761Y-145673176D01*
X117700000Y-145688914D01*
X117700000Y-146215497D01*
X117696300Y-146229306D01*
X117696300Y-146361932D01*
X117700000Y-146375740D01*
X117700000Y-146800000D01*
X118111086Y-146800000D01*
X118126810Y-146801236D01*
X118221001Y-146816155D01*
X118250930Y-146825880D01*
X118328749Y-146865531D01*
X118354212Y-146884031D01*
X118415968Y-146945787D01*
X118434468Y-146971250D01*
X118474119Y-147049069D01*
X118483845Y-147079003D01*
X118498761Y-147173176D01*
X118500000Y-147188914D01*
X118500000Y-150711085D01*
X118498761Y-150726822D01*
X118498761Y-150726823D01*
X118483845Y-150820996D01*
X118474119Y-150850930D01*
X118434468Y-150928749D01*
X118415968Y-150954212D01*
X118354212Y-151015968D01*
X118328749Y-151034468D01*
X118250930Y-151074119D01*
X118220996Y-151083845D01*
X118144346Y-151095985D01*
X118126821Y-151098761D01*
X118111086Y-151100000D01*
X117288914Y-151100000D01*
X117273178Y-151098761D01*
X117252075Y-151095418D01*
X117179003Y-151083845D01*
X117149069Y-151074119D01*
X117071250Y-151034468D01*
X117045787Y-151015968D01*
X116984031Y-150954212D01*
X116965531Y-150928749D01*
X116925880Y-150850930D01*
X116916155Y-150821001D01*
X116901237Y-150726811D01*
X116900000Y-150711085D01*
X116900000Y-145688914D01*
X116901236Y-145673189D01*
X116916155Y-145578996D01*
X116925880Y-145549069D01*
X116965533Y-145471246D01*
X116984028Y-145445790D01*
X117045790Y-145384028D01*
X117071246Y-145365533D01*
X117149070Y-145325879D01*
X117178996Y-145316155D01*
X117273189Y-145301236D01*
X117288914Y-145300000D01*
X117311086Y-145300000D01*
X117326810Y-145301236D01*
G37*
%TD.AperFunction*%
%TD*%
M02*
