%TF.GenerationSoftware,KiCad,Pcbnew,9.0.7-9.0.7~ubuntu24.04.1*%
%TF.CreationDate,2026-03-13T19:14:44+01:00*%
%TF.ProjectId,DIB2 USB adapter front mask,44494232-2055-4534-9220-616461707465,r1B1*%
%TF.SameCoordinates,Original*%
%TF.FileFunction,Legend,Top*%
%TF.FilePolarity,Positive*%
%FSLAX46Y46*%
G04 Gerber Fmt 4.6, Leading zero omitted, Abs format (unit mm)*
G04 Created by KiCad (PCBNEW 9.0.7-9.0.7~ubuntu24.04.1) date 2026-03-13 19:14:44*
%MOMM*%
%LPD*%
G01*
G04 APERTURE LIST*
%ADD10C,0.000000*%
G04 APERTURE END LIST*
D10*
%TO.C,G\u002A\u002A\u002A*%
G36*
X148333236Y-68273766D02*
G01*
X148428528Y-68277576D01*
X148505418Y-68284254D01*
X148566607Y-68294849D01*
X148614800Y-68310410D01*
X148652700Y-68331985D01*
X148683009Y-68360622D01*
X148708431Y-68397371D01*
X148723070Y-68424986D01*
X148739044Y-68461948D01*
X148747797Y-68496411D01*
X148751215Y-68537687D01*
X148751508Y-68565420D01*
X148744301Y-68650917D01*
X148722762Y-68722121D01*
X148686128Y-68781006D01*
X148656766Y-68811085D01*
X148626127Y-68835569D01*
X148594795Y-68854161D01*
X148559288Y-68867626D01*
X148516125Y-68876728D01*
X148461824Y-68882233D01*
X148392906Y-68884907D01*
X148318074Y-68885525D01*
X148134633Y-68885525D01*
X148134633Y-68577078D01*
X148134633Y-68268630D01*
X148333236Y-68273766D01*
G37*
G36*
X151287383Y-108364085D02*
G01*
X151368030Y-108369284D01*
X151433239Y-108378795D01*
X151485784Y-108393313D01*
X151528434Y-108413530D01*
X151563964Y-108440138D01*
X151584911Y-108461599D01*
X151615366Y-108504575D01*
X151634456Y-108553476D01*
X151643725Y-108613501D01*
X151645201Y-108664382D01*
X151637256Y-108748148D01*
X151614064Y-108818340D01*
X151574899Y-108876805D01*
X151553465Y-108898350D01*
X151526415Y-108921602D01*
X151501149Y-108939318D01*
X151474185Y-108952323D01*
X151442037Y-108961441D01*
X151401222Y-108967494D01*
X151348256Y-108971308D01*
X151279655Y-108973706D01*
X151230192Y-108974795D01*
X151026293Y-108978800D01*
X151026293Y-108670653D01*
X151026293Y-108362506D01*
X151188526Y-108362506D01*
X151287383Y-108364085D01*
G37*
G36*
X148317348Y-69086856D02*
G01*
X148424950Y-69088456D01*
X148514218Y-69093617D01*
X148587809Y-69103034D01*
X148648379Y-69117400D01*
X148698583Y-69137412D01*
X148741080Y-69163762D01*
X148778523Y-69197147D01*
X148791020Y-69210727D01*
X148829903Y-69267103D01*
X148854105Y-69332688D01*
X148864757Y-69410986D01*
X148865492Y-69441844D01*
X148856533Y-69523271D01*
X148829544Y-69593707D01*
X148784358Y-69653405D01*
X148720807Y-69702617D01*
X148677305Y-69725610D01*
X148659707Y-69733082D01*
X148641354Y-69738833D01*
X148619143Y-69743141D01*
X148589969Y-69746286D01*
X148550729Y-69748548D01*
X148498319Y-69750204D01*
X148429637Y-69751535D01*
X148380901Y-69752270D01*
X148134633Y-69755789D01*
X148134633Y-69421282D01*
X148134633Y-69086776D01*
X148317348Y-69086856D01*
G37*
G36*
X151251377Y-109180715D02*
G01*
X151340000Y-109183086D01*
X151410834Y-109186499D01*
X151467270Y-109191606D01*
X151512700Y-109199062D01*
X151550515Y-109209520D01*
X151584106Y-109223633D01*
X151616866Y-109242055D01*
X151636855Y-109254994D01*
X151671327Y-109282383D01*
X151698879Y-109315955D01*
X151724231Y-109360316D01*
X151742521Y-109398458D01*
X151753347Y-109429435D01*
X151758623Y-109461771D01*
X151760261Y-109503987D01*
X151760330Y-109521140D01*
X151753375Y-109604489D01*
X151731567Y-109673714D01*
X151693491Y-109731065D01*
X151637732Y-109778793D01*
X151577085Y-109812676D01*
X151557754Y-109821440D01*
X151539665Y-109828158D01*
X151519656Y-109833151D01*
X151494558Y-109836742D01*
X151461207Y-109839251D01*
X151416438Y-109841001D01*
X151357083Y-109842312D01*
X151279979Y-109843508D01*
X151272561Y-109843613D01*
X151026293Y-109847115D01*
X151026293Y-109511555D01*
X151026293Y-109175995D01*
X151251377Y-109180715D01*
G37*
G36*
X145732861Y-68281956D02*
G01*
X145846367Y-68284187D01*
X145942147Y-68291279D01*
X146023294Y-68304184D01*
X146092903Y-68323850D01*
X146154067Y-68351228D01*
X146209880Y-68387269D01*
X146263437Y-68432923D01*
X146281288Y-68450406D01*
X146343529Y-68522646D01*
X146391866Y-68601493D01*
X146429567Y-68692682D01*
X146441944Y-68732310D01*
X146450990Y-68765890D01*
X146457516Y-68797493D01*
X146461918Y-68831596D01*
X146464595Y-68872679D01*
X146465943Y-68925219D01*
X146466361Y-68993694D01*
X146466368Y-69007335D01*
X146465058Y-69104279D01*
X146460581Y-69184608D01*
X146452119Y-69252762D01*
X146438853Y-69313178D01*
X146419963Y-69370295D01*
X146394630Y-69428552D01*
X146385032Y-69448155D01*
X146330728Y-69536425D01*
X146264421Y-69609423D01*
X146187976Y-69665215D01*
X146162697Y-69678624D01*
X146116334Y-69699886D01*
X146072838Y-69716337D01*
X146028235Y-69728683D01*
X145978556Y-69737629D01*
X145919826Y-69743881D01*
X145848075Y-69748146D01*
X145759330Y-69751129D01*
X145754045Y-69751266D01*
X145539554Y-69756750D01*
X145539554Y-69019261D01*
X145539554Y-68281772D01*
X145732861Y-68281956D01*
G37*
G36*
X149377350Y-47410404D02*
G01*
X149419916Y-47413834D01*
X149450710Y-47419350D01*
X149462335Y-47424457D01*
X149465704Y-47428615D01*
X149468615Y-47436065D01*
X149471100Y-47448263D01*
X149473192Y-47466667D01*
X149474926Y-47492734D01*
X149476333Y-47527922D01*
X149477447Y-47573687D01*
X149478302Y-47631487D01*
X149478930Y-47702778D01*
X149479364Y-47789019D01*
X149479638Y-47891666D01*
X149479784Y-48012176D01*
X149479836Y-48152006D01*
X149479838Y-48194664D01*
X149479838Y-48950334D01*
X149456369Y-48962894D01*
X149430598Y-48970557D01*
X149390195Y-48975978D01*
X149341610Y-48978983D01*
X149291295Y-48979397D01*
X149245698Y-48977047D01*
X149211272Y-48971758D01*
X149204442Y-48969701D01*
X149167369Y-48956375D01*
X149164651Y-48197743D01*
X149164159Y-48052060D01*
X149163819Y-47926104D01*
X149163660Y-47818418D01*
X149163709Y-47727544D01*
X149163995Y-47652026D01*
X149164546Y-47590407D01*
X149165389Y-47541229D01*
X149166553Y-47503035D01*
X149168066Y-47474368D01*
X149169956Y-47453771D01*
X149172251Y-47439787D01*
X149174979Y-47430958D01*
X149178169Y-47425829D01*
X149179545Y-47424515D01*
X149198855Y-47417529D01*
X149233765Y-47412623D01*
X149278800Y-47409800D01*
X149328487Y-47409060D01*
X149377350Y-47410404D01*
G37*
G36*
X145696063Y-141568976D02*
G01*
X145725997Y-141573342D01*
X145745123Y-141581768D01*
X145747859Y-141585578D01*
X145747319Y-141599605D01*
X145742834Y-141631802D01*
X145734882Y-141679794D01*
X145723943Y-141741207D01*
X145710496Y-141813666D01*
X145695020Y-141894796D01*
X145677994Y-141982222D01*
X145659898Y-142073571D01*
X145641211Y-142166466D01*
X145622412Y-142258534D01*
X145603979Y-142347400D01*
X145586394Y-142430689D01*
X145570133Y-142506026D01*
X145555678Y-142571036D01*
X145543506Y-142623346D01*
X145534098Y-142660580D01*
X145527932Y-142680363D01*
X145526429Y-142682894D01*
X145507414Y-142688414D01*
X145477472Y-142691050D01*
X145444194Y-142690900D01*
X145415174Y-142688065D01*
X145398002Y-142682645D01*
X145396608Y-142681182D01*
X145397280Y-142668902D01*
X145401834Y-142638259D01*
X145409797Y-142591622D01*
X145420697Y-142531360D01*
X145434059Y-142459840D01*
X145449413Y-142379433D01*
X145466284Y-142292507D01*
X145484200Y-142201430D01*
X145502687Y-142108572D01*
X145521274Y-142016301D01*
X145539486Y-141926985D01*
X145556852Y-141842995D01*
X145572897Y-141766698D01*
X145587150Y-141700464D01*
X145599138Y-141646661D01*
X145608387Y-141607657D01*
X145614424Y-141585822D01*
X145616015Y-141582168D01*
X145633611Y-141573196D01*
X145662781Y-141568864D01*
X145696063Y-141568976D01*
G37*
G36*
X154454081Y-68262080D02*
G01*
X154516777Y-68268544D01*
X154548186Y-68275007D01*
X154643668Y-68310568D01*
X154726266Y-68362769D01*
X154796065Y-68431708D01*
X154853147Y-68517485D01*
X154897595Y-68620196D01*
X154925873Y-68722573D01*
X154937581Y-68793830D01*
X154945473Y-68878362D01*
X154949502Y-68970164D01*
X154949618Y-69063228D01*
X154945771Y-69151549D01*
X154937912Y-69229121D01*
X154930367Y-69272139D01*
X154895616Y-69394936D01*
X154848954Y-69500766D01*
X154790555Y-69589399D01*
X154720598Y-69660608D01*
X154639258Y-69714163D01*
X154565711Y-69744269D01*
X154499275Y-69759606D01*
X154421501Y-69768854D01*
X154340690Y-69771640D01*
X154265145Y-69767597D01*
X154216743Y-69759817D01*
X154118034Y-69728977D01*
X154034922Y-69684450D01*
X153965962Y-69625127D01*
X153909707Y-69549902D01*
X153886330Y-69506876D01*
X153858233Y-69444854D01*
X153837052Y-69385783D01*
X153821020Y-69323134D01*
X153808369Y-69250381D01*
X153800612Y-69190218D01*
X153792533Y-69079585D01*
X153793015Y-68965940D01*
X153801513Y-68853717D01*
X153817485Y-68747351D01*
X153840387Y-68651275D01*
X153869677Y-68569923D01*
X153878992Y-68550302D01*
X153934666Y-68462196D01*
X154004732Y-68387266D01*
X154086568Y-68327774D01*
X154177550Y-68285982D01*
X154190229Y-68281870D01*
X154243436Y-68270358D01*
X154310053Y-68263128D01*
X154382720Y-68260322D01*
X154454081Y-68262080D01*
G37*
G36*
X153755151Y-141857209D02*
G01*
X153787890Y-141862960D01*
X153796370Y-141865594D01*
X153813718Y-141874109D01*
X153820295Y-141886509D01*
X153818785Y-141910030D01*
X153817014Y-141921203D01*
X153808845Y-141962472D01*
X153798276Y-141986525D01*
X153780787Y-141997227D01*
X153751857Y-141998440D01*
X153729013Y-141996418D01*
X153681060Y-141995153D01*
X153641804Y-142004439D01*
X153605454Y-142026897D01*
X153566216Y-142065146D01*
X153558872Y-142073373D01*
X153528475Y-142110909D01*
X153503001Y-142150123D01*
X153481162Y-142194379D01*
X153461671Y-142247039D01*
X153443239Y-142311465D01*
X153424578Y-142391021D01*
X153409514Y-142463358D01*
X153396035Y-142527782D01*
X153383004Y-142585114D01*
X153371248Y-142632095D01*
X153361592Y-142665464D01*
X153354861Y-142681963D01*
X153353892Y-142682983D01*
X153336209Y-142687954D01*
X153307243Y-142690729D01*
X153274520Y-142691262D01*
X153245563Y-142689508D01*
X153227897Y-142685422D01*
X153225934Y-142683752D01*
X153226895Y-142671942D01*
X153231678Y-142641666D01*
X153239858Y-142595217D01*
X153251011Y-142534882D01*
X153264712Y-142462952D01*
X153280535Y-142381718D01*
X153298055Y-142293468D01*
X153302102Y-142273306D01*
X153383049Y-141870804D01*
X153441306Y-141870804D01*
X153474601Y-141871327D01*
X153491887Y-141874793D01*
X153498335Y-141884046D01*
X153499121Y-141901929D01*
X153499112Y-141902581D01*
X153496628Y-141934851D01*
X153491151Y-141971745D01*
X153490327Y-141976004D01*
X153481991Y-142017651D01*
X153517691Y-141970708D01*
X153562064Y-141924011D01*
X153614689Y-141886939D01*
X153669810Y-141862816D01*
X153718192Y-141854916D01*
X153755151Y-141857209D01*
G37*
G36*
X148041346Y-47407829D02*
G01*
X148142196Y-47412775D01*
X148235234Y-47420126D01*
X148316678Y-47429611D01*
X148382745Y-47440960D01*
X148409857Y-47447533D01*
X148523724Y-47489246D01*
X148623594Y-47546737D01*
X148708942Y-47619440D01*
X148779244Y-47706785D01*
X148833975Y-47808204D01*
X148872611Y-47923129D01*
X148880466Y-47957618D01*
X148888928Y-48015134D01*
X148894422Y-48086772D01*
X148896851Y-48165662D01*
X148896120Y-48244938D01*
X148892132Y-48317732D01*
X148886246Y-48368511D01*
X148857383Y-48495149D01*
X148813150Y-48607234D01*
X148753730Y-48704584D01*
X148679303Y-48787018D01*
X148590051Y-48854357D01*
X148486154Y-48906420D01*
X148367793Y-48943027D01*
X148295932Y-48956607D01*
X148236940Y-48963230D01*
X148159670Y-48968007D01*
X148063226Y-48970975D01*
X147946715Y-48972171D01*
X147924957Y-48972201D01*
X147657023Y-48972264D01*
X147631024Y-48946265D01*
X147605025Y-48920266D01*
X147605025Y-48720361D01*
X147922790Y-48720361D01*
X148079025Y-48715710D01*
X148145565Y-48713197D01*
X148195617Y-48709800D01*
X148233875Y-48704911D01*
X148265033Y-48697920D01*
X148293786Y-48688222D01*
X148295050Y-48687731D01*
X148374079Y-48648355D01*
X148438534Y-48596977D01*
X148489103Y-48532421D01*
X148526476Y-48453509D01*
X148551340Y-48359066D01*
X148564385Y-48247914D01*
X148565554Y-48225516D01*
X148565447Y-48114222D01*
X148554218Y-48018592D01*
X148531072Y-47935796D01*
X148495213Y-47863001D01*
X148445847Y-47797377D01*
X148445096Y-47796540D01*
X148390167Y-47746525D01*
X148325064Y-47708479D01*
X148247633Y-47681694D01*
X148155720Y-47665461D01*
X148047170Y-47659074D01*
X148026064Y-47658916D01*
X147922790Y-47658836D01*
X147922790Y-48189598D01*
X147922790Y-48720361D01*
X147605025Y-48720361D01*
X147605025Y-48190772D01*
X147605025Y-48189598D01*
X147605025Y-47461278D01*
X147632353Y-47435599D01*
X147643533Y-47426000D01*
X147655819Y-47419048D01*
X147672761Y-47414219D01*
X147697907Y-47410990D01*
X147734806Y-47408836D01*
X147787006Y-47407234D01*
X147831345Y-47406230D01*
X147936468Y-47405557D01*
X148041346Y-47407829D01*
G37*
G36*
X140442109Y-36684713D02*
G01*
X140442438Y-36917850D01*
X140442675Y-37130620D01*
X140442813Y-37323843D01*
X140442848Y-37498338D01*
X140442775Y-37654921D01*
X140442588Y-37794413D01*
X140442284Y-37917631D01*
X140441856Y-38025393D01*
X140441301Y-38118519D01*
X140440612Y-38197825D01*
X140439786Y-38264132D01*
X140438817Y-38318257D01*
X140437700Y-38361018D01*
X140436430Y-38393234D01*
X140435003Y-38415724D01*
X140433413Y-38429306D01*
X140431655Y-38434797D01*
X140431517Y-38434906D01*
X140419642Y-38435826D01*
X140387698Y-38436721D01*
X140336800Y-38437584D01*
X140268061Y-38438410D01*
X140182597Y-38439193D01*
X140081522Y-38439929D01*
X139965952Y-38440611D01*
X139837000Y-38441234D01*
X139695782Y-38441793D01*
X139543413Y-38442283D01*
X139381006Y-38442697D01*
X139209678Y-38443031D01*
X139030542Y-38443279D01*
X138844713Y-38443436D01*
X138669187Y-38443494D01*
X138442453Y-38443502D01*
X138235961Y-38443475D01*
X138048769Y-38443404D01*
X137879934Y-38443281D01*
X137728514Y-38443097D01*
X137593567Y-38442842D01*
X137474150Y-38442509D01*
X137369322Y-38442087D01*
X137278139Y-38441569D01*
X137199660Y-38440945D01*
X137132942Y-38440206D01*
X137077043Y-38439344D01*
X137031020Y-38438349D01*
X136993932Y-38437214D01*
X136964836Y-38435928D01*
X136942789Y-38434483D01*
X136926850Y-38432870D01*
X136916076Y-38431081D01*
X136909525Y-38429106D01*
X136906254Y-38426936D01*
X136906207Y-38426880D01*
X136898006Y-38406519D01*
X136903416Y-38392456D01*
X136905946Y-38390162D01*
X136911147Y-38388071D01*
X136919971Y-38386170D01*
X136933370Y-38384449D01*
X136952298Y-38382896D01*
X136977707Y-38381501D01*
X137010549Y-38380252D01*
X137051777Y-38379139D01*
X137102344Y-38378149D01*
X137163202Y-38377273D01*
X137235304Y-38376499D01*
X137319602Y-38375815D01*
X137417050Y-38375211D01*
X137528599Y-38374676D01*
X137655203Y-38374199D01*
X137797813Y-38373767D01*
X137957383Y-38373372D01*
X138134866Y-38373000D01*
X138331213Y-38372641D01*
X138547377Y-38372285D01*
X138647828Y-38372128D01*
X140381108Y-38369448D01*
X140383788Y-36656198D01*
X140386468Y-34942948D01*
X140412949Y-34942948D01*
X140439429Y-34942948D01*
X140442109Y-36684713D01*
G37*
G36*
X157866213Y-36656198D02*
G01*
X157868893Y-38369448D01*
X159602173Y-38372128D01*
X159827254Y-38372487D01*
X160032104Y-38372843D01*
X160217675Y-38373208D01*
X160384919Y-38373592D01*
X160534790Y-38374006D01*
X160668239Y-38374462D01*
X160786219Y-38374971D01*
X160889684Y-38375543D01*
X160979585Y-38376191D01*
X161056875Y-38376924D01*
X161122506Y-38377755D01*
X161177433Y-38378694D01*
X161222606Y-38379752D01*
X161258978Y-38380941D01*
X161287503Y-38382271D01*
X161309133Y-38383754D01*
X161324820Y-38385400D01*
X161335517Y-38387221D01*
X161342176Y-38389229D01*
X161345751Y-38391433D01*
X161346585Y-38392456D01*
X161351448Y-38413272D01*
X161343794Y-38426880D01*
X161340591Y-38429055D01*
X161334132Y-38431035D01*
X161323472Y-38432829D01*
X161307671Y-38434445D01*
X161285785Y-38435894D01*
X161256872Y-38437184D01*
X161219991Y-38438323D01*
X161174199Y-38439321D01*
X161118553Y-38440186D01*
X161052111Y-38440928D01*
X160973931Y-38441555D01*
X160883071Y-38442076D01*
X160778587Y-38442500D01*
X160659539Y-38442835D01*
X160524984Y-38443092D01*
X160373978Y-38443277D01*
X160205581Y-38443402D01*
X160018849Y-38443474D01*
X159812841Y-38443502D01*
X159586614Y-38443495D01*
X159580814Y-38443494D01*
X159389823Y-38443426D01*
X159204501Y-38443262D01*
X159025963Y-38443007D01*
X158855325Y-38442666D01*
X158693699Y-38442245D01*
X158542202Y-38441750D01*
X158401948Y-38441185D01*
X158274052Y-38440557D01*
X158159629Y-38439870D01*
X158059792Y-38439131D01*
X157975658Y-38438343D01*
X157908340Y-38437514D01*
X157858954Y-38436649D01*
X157828614Y-38435752D01*
X157818484Y-38434906D01*
X157816714Y-38429985D01*
X157815111Y-38417037D01*
X157813672Y-38395241D01*
X157812390Y-38363780D01*
X157811262Y-38321834D01*
X157810282Y-38268587D01*
X157809445Y-38203219D01*
X157808747Y-38124912D01*
X157808181Y-38032847D01*
X157807744Y-37926207D01*
X157807431Y-37804172D01*
X157807236Y-37665925D01*
X157807154Y-37510646D01*
X157807181Y-37337518D01*
X157807312Y-37145723D01*
X157807541Y-36934441D01*
X157807864Y-36702855D01*
X157807892Y-36684713D01*
X157810572Y-34942948D01*
X157837052Y-34942948D01*
X157863532Y-34942948D01*
X157866213Y-36656198D01*
G37*
G36*
X152144642Y-141656469D02*
G01*
X152168497Y-141662981D01*
X152169577Y-141663619D01*
X152177210Y-141671802D01*
X152179671Y-141686700D01*
X152177083Y-141713312D01*
X152171616Y-141745546D01*
X152164040Y-141785944D01*
X152157122Y-141820857D01*
X152152601Y-141841676D01*
X152150742Y-141852474D01*
X152153975Y-141859390D01*
X152165944Y-141863289D01*
X152190291Y-141865035D01*
X152230662Y-141865492D01*
X152253059Y-141865508D01*
X152305635Y-141866198D01*
X152340016Y-141869558D01*
X152359176Y-141877523D01*
X152366092Y-141892029D01*
X152363739Y-141915010D01*
X152358932Y-141934357D01*
X152349252Y-141959732D01*
X152333823Y-141976632D01*
X152308752Y-141986671D01*
X152270145Y-141991459D01*
X152218229Y-141992614D01*
X152121970Y-141992614D01*
X152076837Y-142222993D01*
X152059431Y-142314005D01*
X152046640Y-142386658D01*
X152038277Y-142443227D01*
X152034156Y-142485986D01*
X152034088Y-142517209D01*
X152037886Y-142539170D01*
X152045363Y-142554144D01*
X152049193Y-142558538D01*
X152072276Y-142569754D01*
X152107880Y-142574763D01*
X152148178Y-142573244D01*
X152185340Y-142564875D01*
X152187170Y-142564197D01*
X152214060Y-142558529D01*
X152227596Y-142567949D01*
X152228524Y-142593520D01*
X152223562Y-142616232D01*
X152209067Y-142651690D01*
X152185707Y-142675720D01*
X152149832Y-142690460D01*
X152097793Y-142698048D01*
X152082231Y-142699057D01*
X152033609Y-142699839D01*
X151997657Y-142695252D01*
X151966295Y-142684200D01*
X151963699Y-142682983D01*
X151933966Y-142665672D01*
X151911214Y-142644048D01*
X151895289Y-142616049D01*
X151886039Y-142579614D01*
X151883311Y-142532682D01*
X151886951Y-142473192D01*
X151896808Y-142399082D01*
X151912727Y-142308291D01*
X151929577Y-142222993D01*
X151976600Y-141992614D01*
X151931295Y-141992614D01*
X151890286Y-141990661D01*
X151866185Y-141983211D01*
X151854946Y-141967881D01*
X151852482Y-141946173D01*
X151858403Y-141905771D01*
X151877551Y-141880201D01*
X151912004Y-141867610D01*
X151942914Y-141865508D01*
X151968004Y-141865759D01*
X151985092Y-141864219D01*
X151996555Y-141857451D01*
X152004770Y-141842017D01*
X152012114Y-141814480D01*
X152020965Y-141771402D01*
X152026295Y-141744941D01*
X152035636Y-141707284D01*
X152045998Y-141677951D01*
X152055177Y-141663150D01*
X152055382Y-141663014D01*
X152077946Y-141656431D01*
X152111079Y-141654267D01*
X152144642Y-141656469D01*
G37*
G36*
X151741476Y-47390147D02*
G01*
X151833441Y-47410130D01*
X151916142Y-47443065D01*
X151987481Y-47488449D01*
X152045365Y-47545780D01*
X152087696Y-47614553D01*
X152096329Y-47635394D01*
X152121214Y-47731717D01*
X152126056Y-47832592D01*
X152111010Y-47936179D01*
X152076228Y-48040637D01*
X152059341Y-48077226D01*
X152034919Y-48124085D01*
X152008881Y-48168415D01*
X151979265Y-48212705D01*
X151944109Y-48259443D01*
X151901453Y-48311118D01*
X151849333Y-48370219D01*
X151785789Y-48439233D01*
X151714197Y-48515043D01*
X151525972Y-48712756D01*
X151845422Y-48718052D01*
X152164872Y-48723348D01*
X152179107Y-48765717D01*
X152185946Y-48799819D01*
X152188288Y-48842654D01*
X152186494Y-48887227D01*
X152180924Y-48926542D01*
X152171938Y-48953605D01*
X152169234Y-48957595D01*
X152163157Y-48961135D01*
X152150191Y-48964080D01*
X152128639Y-48966481D01*
X152096804Y-48968386D01*
X152052989Y-48969848D01*
X151995497Y-48970914D01*
X151922632Y-48971636D01*
X151832695Y-48972064D01*
X151723990Y-48972248D01*
X151671887Y-48972264D01*
X151186713Y-48972264D01*
X151164760Y-48944355D01*
X151150944Y-48913942D01*
X151143170Y-48869983D01*
X151141488Y-48819253D01*
X151145950Y-48768526D01*
X151156607Y-48724576D01*
X151162985Y-48709686D01*
X151175499Y-48691577D01*
X151200474Y-48660590D01*
X151235767Y-48619195D01*
X151279236Y-48569860D01*
X151328739Y-48515054D01*
X151380920Y-48458544D01*
X151467543Y-48364186D01*
X151539599Y-48281899D01*
X151598377Y-48209704D01*
X151645165Y-48145621D01*
X151681251Y-48087672D01*
X151707923Y-48033876D01*
X151726468Y-47982255D01*
X151738175Y-47930828D01*
X151741973Y-47903634D01*
X151741757Y-47832298D01*
X151724434Y-47772810D01*
X151691104Y-47726184D01*
X151642862Y-47693432D01*
X151580807Y-47675569D01*
X151506035Y-47673606D01*
X151494000Y-47674723D01*
X151452640Y-47681700D01*
X151409828Y-47694921D01*
X151359483Y-47716524D01*
X151320278Y-47735851D01*
X151267488Y-47761803D01*
X151230006Y-47776584D01*
X151204774Y-47779572D01*
X151188729Y-47770146D01*
X151178812Y-47747685D01*
X151171961Y-47711568D01*
X151171098Y-47705573D01*
X151165853Y-47635294D01*
X151173492Y-47579075D01*
X151195891Y-47533754D01*
X151234927Y-47496168D01*
X151292476Y-47463156D01*
X151322874Y-47449789D01*
X151430944Y-47412936D01*
X151538132Y-47391047D01*
X151642341Y-47383618D01*
X151741476Y-47390147D01*
G37*
G36*
X152942953Y-141862184D02*
G01*
X153010822Y-141882938D01*
X153063693Y-141916483D01*
X153100530Y-141962023D01*
X153120301Y-142018760D01*
X153123541Y-142057278D01*
X153113672Y-142117458D01*
X153084623Y-142170281D01*
X153037237Y-142215323D01*
X152972351Y-142252157D01*
X152890805Y-142280357D01*
X152793441Y-142299500D01*
X152681097Y-142309157D01*
X152624297Y-142310298D01*
X152585754Y-142311408D01*
X152561474Y-142317280D01*
X152548149Y-142331890D01*
X152542475Y-142359214D01*
X152541143Y-142403225D01*
X152541117Y-142410308D01*
X152548761Y-142471215D01*
X152570881Y-142521697D01*
X152605719Y-142558435D01*
X152625647Y-142569859D01*
X152665947Y-142580509D01*
X152720098Y-142584410D01*
X152781980Y-142581880D01*
X152845473Y-142573235D01*
X152904457Y-142558791D01*
X152916346Y-142554822D01*
X152958244Y-142542355D01*
X152983667Y-142540251D01*
X152989622Y-142542949D01*
X152994642Y-142561189D01*
X152989462Y-142589168D01*
X152976740Y-142619786D01*
X152959131Y-142645943D01*
X152947048Y-142656726D01*
X152906207Y-142675129D01*
X152850218Y-142688951D01*
X152784696Y-142697827D01*
X152715252Y-142701394D01*
X152647500Y-142699286D01*
X152587053Y-142691138D01*
X152553848Y-142682263D01*
X152496044Y-142655378D01*
X152452659Y-142617655D01*
X152420806Y-142569887D01*
X152410655Y-142548255D01*
X152404076Y-142525211D01*
X152400385Y-142495639D01*
X152398898Y-142454425D01*
X152398862Y-142405708D01*
X152405218Y-142300898D01*
X152423748Y-142209320D01*
X152430114Y-142192835D01*
X152583573Y-142192835D01*
X152593178Y-142199228D01*
X152619298Y-142202605D01*
X152657519Y-142203219D01*
X152703426Y-142201324D01*
X152752604Y-142197173D01*
X152800638Y-142191017D01*
X152843114Y-142183111D01*
X152867484Y-142176571D01*
X152916976Y-142153440D01*
X152952138Y-142122608D01*
X152972054Y-142087315D01*
X152975807Y-142050803D01*
X152962482Y-142016313D01*
X152931160Y-141987086D01*
X152922485Y-141982067D01*
X152886052Y-141971305D01*
X152838601Y-141968756D01*
X152788474Y-141974028D01*
X152744010Y-141986730D01*
X152735062Y-141990863D01*
X152695829Y-142017683D01*
X152657161Y-142055635D01*
X152623048Y-142099401D01*
X152597477Y-142143661D01*
X152584440Y-142183097D01*
X152583573Y-142192835D01*
X152430114Y-142192835D01*
X152455959Y-142125908D01*
X152503354Y-142045592D01*
X152507629Y-142039457D01*
X152569474Y-141965623D01*
X152638039Y-141911412D01*
X152715269Y-141875811D01*
X152803112Y-141857803D01*
X152861120Y-141855019D01*
X152942953Y-141862184D01*
G37*
G36*
X150432371Y-141855149D02*
G01*
X150504920Y-141862804D01*
X150565882Y-141886305D01*
X150619350Y-141927252D01*
X150621034Y-141928919D01*
X150644552Y-141949271D01*
X150657157Y-141952305D01*
X150659309Y-141948748D01*
X150670480Y-141909443D01*
X150679883Y-141886071D01*
X150691595Y-141874201D01*
X150709692Y-141869402D01*
X150734039Y-141867515D01*
X150766191Y-141867489D01*
X150789586Y-141871138D01*
X150795575Y-141874173D01*
X150795567Y-141886126D01*
X150791808Y-141916039D01*
X150784828Y-141961125D01*
X150775157Y-142018597D01*
X150763325Y-142085669D01*
X150749862Y-142159553D01*
X150735298Y-142237462D01*
X150720162Y-142316609D01*
X150704984Y-142394207D01*
X150690294Y-142467469D01*
X150676623Y-142533608D01*
X150664499Y-142589838D01*
X150654452Y-142633370D01*
X150647013Y-142661418D01*
X150644586Y-142668417D01*
X150636128Y-142682687D01*
X150622303Y-142689351D01*
X150596782Y-142690444D01*
X150578750Y-142689601D01*
X150548413Y-142686683D01*
X150530580Y-142679479D01*
X150523307Y-142663886D01*
X150524652Y-142635799D01*
X150532516Y-142591907D01*
X150540694Y-142550374D01*
X150481581Y-142604399D01*
X150418506Y-142651138D01*
X150349244Y-142683597D01*
X150278006Y-142700754D01*
X150209003Y-142701587D01*
X150147459Y-142685516D01*
X150107236Y-142663944D01*
X150077771Y-142636311D01*
X150052805Y-142596198D01*
X150045121Y-142580479D01*
X150032671Y-142550114D01*
X150025091Y-142519425D01*
X150021283Y-142481623D01*
X150020283Y-142436049D01*
X150169710Y-142436049D01*
X150180589Y-142495764D01*
X150202734Y-142540192D01*
X150235530Y-142568464D01*
X150278361Y-142579710D01*
X150330614Y-142573061D01*
X150381364Y-142552997D01*
X150421496Y-142525348D01*
X150464227Y-142483259D01*
X150504802Y-142432160D01*
X150538468Y-142377479D01*
X150543169Y-142368204D01*
X150558764Y-142329903D01*
X150575198Y-142279048D01*
X150589896Y-142223992D01*
X150595808Y-142197413D01*
X150618062Y-142088674D01*
X150581206Y-142050332D01*
X150527285Y-142005707D01*
X150472236Y-141981283D01*
X150417521Y-141976237D01*
X150364600Y-141989745D01*
X150314933Y-142020983D01*
X150269983Y-142069128D01*
X150231208Y-142133355D01*
X150200071Y-142212842D01*
X150184207Y-142274234D01*
X150170711Y-142361915D01*
X150169710Y-142436049D01*
X150020283Y-142436049D01*
X150020149Y-142429918D01*
X150020141Y-142425939D01*
X150028529Y-142305375D01*
X150053457Y-142193555D01*
X150094191Y-142092484D01*
X150149998Y-142004165D01*
X150191977Y-141956559D01*
X150247250Y-141908150D01*
X150301277Y-141876882D01*
X150360352Y-141860099D01*
X150430773Y-141855145D01*
X150432371Y-141855149D01*
G37*
G36*
X149937949Y-141493185D02*
G01*
X149959851Y-141498490D01*
X149966951Y-141514266D01*
X149967092Y-141518615D01*
X149965038Y-141535436D01*
X149959181Y-141570200D01*
X149949990Y-141620593D01*
X149937934Y-141684301D01*
X149923484Y-141759009D01*
X149907109Y-141842404D01*
X149889278Y-141932171D01*
X149870461Y-142025996D01*
X149851128Y-142121565D01*
X149831748Y-142216565D01*
X149812791Y-142308680D01*
X149794726Y-142395597D01*
X149778024Y-142475002D01*
X149763152Y-142544581D01*
X149750582Y-142602019D01*
X149740783Y-142645002D01*
X149734224Y-142671217D01*
X149731735Y-142678456D01*
X149716214Y-142685397D01*
X149688253Y-142690101D01*
X149656357Y-142692016D01*
X149629030Y-142690592D01*
X149615370Y-142686000D01*
X149614258Y-142673447D01*
X149616932Y-142646229D01*
X149622366Y-142612768D01*
X149635057Y-142545231D01*
X149589146Y-142592470D01*
X149525601Y-142644679D01*
X149453587Y-142681104D01*
X149377826Y-142699657D01*
X149342140Y-142701609D01*
X149301632Y-142699649D01*
X149266165Y-142695232D01*
X149246810Y-142690418D01*
X149207363Y-142666057D01*
X149169175Y-142627388D01*
X149138613Y-142580990D01*
X149119231Y-142524307D01*
X149110561Y-142453845D01*
X149111427Y-142411877D01*
X149260838Y-142411877D01*
X149266881Y-142474800D01*
X149283953Y-142524501D01*
X149311355Y-142559040D01*
X149348389Y-142576477D01*
X149352732Y-142577225D01*
X149402442Y-142575721D01*
X149457105Y-142559562D01*
X149505703Y-142533237D01*
X149564832Y-142480033D01*
X149615005Y-142408335D01*
X149655713Y-142319078D01*
X149686446Y-142213195D01*
X149690479Y-142194407D01*
X149710988Y-142094323D01*
X149688094Y-142066061D01*
X149640937Y-142020623D01*
X149587317Y-141990418D01*
X149531485Y-141977183D01*
X149481385Y-141981605D01*
X149424547Y-142007730D01*
X149374792Y-142053040D01*
X149332710Y-142116556D01*
X149298893Y-142197298D01*
X149273933Y-142294286D01*
X149266522Y-142337671D01*
X149260838Y-142411877D01*
X149111427Y-142411877D01*
X149112211Y-142373866D01*
X149123784Y-142288630D01*
X149144889Y-142202398D01*
X149175129Y-142119430D01*
X149182885Y-142102218D01*
X149229754Y-142018334D01*
X149283974Y-141952718D01*
X149347552Y-141903138D01*
X149376696Y-141886975D01*
X149451151Y-141860597D01*
X149527559Y-141853390D01*
X149602169Y-141864965D01*
X149671232Y-141894933D01*
X149708166Y-141921343D01*
X149740540Y-141948677D01*
X149782133Y-141736265D01*
X149795251Y-141671215D01*
X149807745Y-141612845D01*
X149818835Y-141564513D01*
X149827744Y-141529579D01*
X149833695Y-141511403D01*
X149834496Y-141510029D01*
X149855756Y-141498287D01*
X149894967Y-141492796D01*
X149937949Y-141493185D01*
G37*
G36*
X138663387Y-150053409D02*
G01*
X138669187Y-150053410D01*
X138860178Y-150053478D01*
X139045500Y-150053642D01*
X139224037Y-150053897D01*
X139394676Y-150054238D01*
X139556301Y-150054659D01*
X139707798Y-150055154D01*
X139848052Y-150055719D01*
X139975949Y-150056347D01*
X140090372Y-150057034D01*
X140190209Y-150057774D01*
X140274343Y-150058561D01*
X140341661Y-150059390D01*
X140391047Y-150060256D01*
X140421387Y-150061153D01*
X140431517Y-150061999D01*
X140433287Y-150066919D01*
X140434890Y-150079868D01*
X140436329Y-150101663D01*
X140437610Y-150133125D01*
X140438739Y-150175070D01*
X140439719Y-150228317D01*
X140440556Y-150293685D01*
X140441254Y-150371993D01*
X140441819Y-150464057D01*
X140442256Y-150570698D01*
X140442570Y-150692732D01*
X140442765Y-150830980D01*
X140442846Y-150986258D01*
X140442819Y-151159386D01*
X140442689Y-151351181D01*
X140442459Y-151562463D01*
X140442136Y-151794050D01*
X140442109Y-151812191D01*
X140439429Y-153553957D01*
X140417809Y-153557052D01*
X140396762Y-153556343D01*
X140388680Y-153552638D01*
X140387852Y-153541393D01*
X140387049Y-153510087D01*
X140386276Y-153459843D01*
X140385539Y-153391783D01*
X140384842Y-153307031D01*
X140384191Y-153206710D01*
X140383589Y-153091943D01*
X140383043Y-152963852D01*
X140382557Y-152823561D01*
X140382136Y-152672193D01*
X140381784Y-152510871D01*
X140381508Y-152340718D01*
X140381311Y-152162856D01*
X140381198Y-151978409D01*
X140381172Y-151836293D01*
X140381172Y-150127456D01*
X138647860Y-150124777D01*
X138422776Y-150124418D01*
X138217924Y-150124061D01*
X138032351Y-150123697D01*
X137865105Y-150123313D01*
X137715232Y-150122898D01*
X137581781Y-150122442D01*
X137463799Y-150121934D01*
X137360333Y-150121361D01*
X137270430Y-150120713D01*
X137193138Y-150119980D01*
X137127504Y-150119149D01*
X137072577Y-150118211D01*
X137027402Y-150117152D01*
X136991028Y-150115964D01*
X136962502Y-150114634D01*
X136940871Y-150113151D01*
X136925183Y-150111505D01*
X136914486Y-150109683D01*
X136907825Y-150107676D01*
X136904250Y-150105472D01*
X136903416Y-150104448D01*
X136898553Y-150083633D01*
X136906207Y-150070024D01*
X136909409Y-150067849D01*
X136915869Y-150065870D01*
X136926529Y-150064076D01*
X136942330Y-150062459D01*
X136964216Y-150061010D01*
X136993128Y-150059720D01*
X137030010Y-150058581D01*
X137075802Y-150057583D01*
X137131448Y-150056718D01*
X137197890Y-150055976D01*
X137276070Y-150055349D01*
X137366930Y-150054829D01*
X137471413Y-150054405D01*
X137590462Y-150054069D01*
X137725017Y-150053813D01*
X137876023Y-150053627D01*
X138044420Y-150053502D01*
X138231151Y-150053431D01*
X138437160Y-150053403D01*
X138663387Y-150053409D01*
G37*
G36*
X150154220Y-47410772D02*
G01*
X150246209Y-47411296D01*
X150320148Y-47412368D01*
X150379169Y-47414155D01*
X150426404Y-47416825D01*
X150464983Y-47420546D01*
X150498039Y-47425486D01*
X150523166Y-47430553D01*
X150621879Y-47460080D01*
X150702716Y-47500760D01*
X150766033Y-47552963D01*
X150812186Y-47617058D01*
X150841533Y-47693414D01*
X150853853Y-47772655D01*
X150851905Y-47864688D01*
X150832513Y-47944822D01*
X150795524Y-48013393D01*
X150740786Y-48070739D01*
X150708717Y-48094019D01*
X150654129Y-48129391D01*
X150689852Y-48141758D01*
X150772928Y-48180761D01*
X150841427Y-48234163D01*
X150894275Y-48300043D01*
X150930396Y-48376476D01*
X150948715Y-48461539D01*
X150948159Y-48553309D01*
X150942083Y-48593160D01*
X150914091Y-48684754D01*
X150868441Y-48764914D01*
X150805899Y-48832665D01*
X150727230Y-48887034D01*
X150700778Y-48900505D01*
X150663727Y-48917616D01*
X150630609Y-48931408D01*
X150598523Y-48942279D01*
X150564567Y-48950626D01*
X150525840Y-48956848D01*
X150479440Y-48961342D01*
X150422465Y-48964507D01*
X150352014Y-48966739D01*
X150265185Y-48968436D01*
X150197890Y-48969452D01*
X149872615Y-48974094D01*
X149845701Y-48947180D01*
X149818787Y-48920266D01*
X149818787Y-48728644D01*
X150136552Y-48728644D01*
X150277623Y-48728644D01*
X150362428Y-48726855D01*
X150427552Y-48721523D01*
X150471219Y-48713046D01*
X150525219Y-48687155D01*
X150572430Y-48646198D01*
X150601890Y-48603847D01*
X150610588Y-48572906D01*
X150614071Y-48529801D01*
X150612450Y-48482868D01*
X150605834Y-48440448D01*
X150599464Y-48420513D01*
X150576244Y-48378711D01*
X150544879Y-48346127D01*
X150502859Y-48321701D01*
X150447677Y-48304374D01*
X150376823Y-48293088D01*
X150287789Y-48286783D01*
X150282194Y-48286555D01*
X150136552Y-48280810D01*
X150136552Y-48504727D01*
X150136552Y-48728644D01*
X149818787Y-48728644D01*
X149818787Y-48504727D01*
X149818787Y-48194812D01*
X149818787Y-48050746D01*
X150136552Y-48050746D01*
X150261010Y-48050513D01*
X150321050Y-48049609D01*
X150364798Y-48046777D01*
X150397101Y-48041445D01*
X150422807Y-48033041D01*
X150427836Y-48030825D01*
X150474613Y-48002594D01*
X150506185Y-47965427D01*
X150523708Y-47926989D01*
X150537261Y-47862876D01*
X150532875Y-47801544D01*
X150511739Y-47746699D01*
X150475042Y-47702051D01*
X150444751Y-47680980D01*
X150421612Y-47669756D01*
X150397170Y-47661944D01*
X150366432Y-47656683D01*
X150324406Y-47653113D01*
X150267332Y-47650422D01*
X150136552Y-47645384D01*
X150136552Y-47848065D01*
X150136552Y-48050746D01*
X149818787Y-48050746D01*
X149818787Y-47848065D01*
X149818787Y-47469358D01*
X149844399Y-47439639D01*
X149870012Y-47409920D01*
X150154220Y-47410772D01*
G37*
G36*
X147382837Y-141567864D02*
G01*
X147402047Y-141573614D01*
X147465842Y-141605990D01*
X147513884Y-141651676D01*
X147545548Y-141709153D01*
X147560207Y-141776903D01*
X147557238Y-141853405D01*
X147542956Y-141915978D01*
X147521192Y-141974022D01*
X147490377Y-142032630D01*
X147449068Y-142093546D01*
X147395821Y-142158508D01*
X147329190Y-142229258D01*
X147247732Y-142307536D01*
X147150002Y-142395084D01*
X147133674Y-142409275D01*
X147084836Y-142451849D01*
X147041726Y-142489948D01*
X147006837Y-142521328D01*
X146982660Y-142543745D01*
X146971685Y-142554954D01*
X146971328Y-142555539D01*
X146980407Y-142558124D01*
X147007757Y-142560649D01*
X147050466Y-142562974D01*
X147105623Y-142564958D01*
X147170313Y-142566460D01*
X147209513Y-142567038D01*
X147287293Y-142568059D01*
X147346469Y-142569205D01*
X147389620Y-142570710D01*
X147419326Y-142572806D01*
X147438166Y-142575728D01*
X147448719Y-142579709D01*
X147453565Y-142584983D01*
X147454886Y-142589261D01*
X147453592Y-142626936D01*
X147439021Y-142663041D01*
X147429482Y-142675068D01*
X147422303Y-142679888D01*
X147409975Y-142683697D01*
X147390218Y-142686609D01*
X147360755Y-142688738D01*
X147319305Y-142690197D01*
X147263590Y-142691101D01*
X147191332Y-142691563D01*
X147100251Y-142691696D01*
X147096602Y-142691697D01*
X147005138Y-142691583D01*
X146932550Y-142691163D01*
X146876533Y-142690318D01*
X146834780Y-142688929D01*
X146804983Y-142686876D01*
X146784837Y-142684041D01*
X146772035Y-142680305D01*
X146764270Y-142675549D01*
X146763151Y-142674498D01*
X146752412Y-142649965D01*
X146754338Y-142614814D01*
X146768539Y-142575110D01*
X146769699Y-142572856D01*
X146780008Y-142561112D01*
X146804053Y-142537549D01*
X146839586Y-142504249D01*
X146884357Y-142463295D01*
X146936120Y-142416771D01*
X146983812Y-142374509D01*
X147043412Y-142321293D01*
X147101142Y-142268394D01*
X147153961Y-142218700D01*
X147198830Y-142175099D01*
X147232710Y-142140478D01*
X147247763Y-142123727D01*
X147304650Y-142048292D01*
X147346838Y-141975852D01*
X147374248Y-141908008D01*
X147386801Y-141846356D01*
X147384421Y-141792496D01*
X147367028Y-141748027D01*
X147334543Y-141714546D01*
X147286889Y-141693652D01*
X147269025Y-141689980D01*
X147227423Y-141688500D01*
X147178723Y-141697160D01*
X147119579Y-141716828D01*
X147050817Y-141746429D01*
X147009554Y-141764846D01*
X146983130Y-141774412D01*
X146967618Y-141776105D01*
X146959094Y-141770907D01*
X146958155Y-141769561D01*
X146952624Y-141744508D01*
X146957807Y-141710311D01*
X146972116Y-141675074D01*
X146978804Y-141664257D01*
X147011258Y-141633011D01*
X147059963Y-141605913D01*
X147120222Y-141583970D01*
X147187337Y-141568187D01*
X147256610Y-141559571D01*
X147323342Y-141559128D01*
X147382837Y-141567864D01*
G37*
G36*
X159810827Y-150053261D02*
G01*
X160017084Y-150053308D01*
X160204044Y-150053396D01*
X160372650Y-150053535D01*
X160523843Y-150053734D01*
X160658569Y-150054002D01*
X160777770Y-150054347D01*
X160882389Y-150054780D01*
X160973370Y-150055308D01*
X161051656Y-150055942D01*
X161118190Y-150056689D01*
X161173915Y-150057559D01*
X161219774Y-150058560D01*
X161256712Y-150059703D01*
X161285670Y-150060995D01*
X161307592Y-150062446D01*
X161323422Y-150064065D01*
X161334103Y-150065861D01*
X161340578Y-150067843D01*
X161343790Y-150070019D01*
X161343794Y-150070024D01*
X161351995Y-150090385D01*
X161346585Y-150104448D01*
X161344054Y-150106742D01*
X161338854Y-150108833D01*
X161330030Y-150110734D01*
X161316630Y-150112455D01*
X161297703Y-150114008D01*
X161272294Y-150115403D01*
X161239452Y-150116652D01*
X161198224Y-150117765D01*
X161147657Y-150118755D01*
X161086799Y-150119631D01*
X161014697Y-150120406D01*
X160930399Y-150121089D01*
X160832951Y-150121693D01*
X160721402Y-150122228D01*
X160594798Y-150122706D01*
X160452187Y-150123137D01*
X160292617Y-150123533D01*
X160115135Y-150123904D01*
X159918788Y-150124263D01*
X159702624Y-150124619D01*
X159602173Y-150124777D01*
X157868893Y-150127456D01*
X157866213Y-151840706D01*
X157863532Y-153553957D01*
X157841912Y-153557052D01*
X157820865Y-153556343D01*
X157812784Y-153552638D01*
X157811962Y-153541399D01*
X157811166Y-153510089D01*
X157810400Y-153459820D01*
X157809668Y-153391706D01*
X157808976Y-153306859D01*
X157808328Y-153206392D01*
X157807729Y-153091420D01*
X157807184Y-152963053D01*
X157806697Y-152822406D01*
X157806274Y-152670591D01*
X157805919Y-152508721D01*
X157805637Y-152337909D01*
X157805432Y-152159269D01*
X157805311Y-151973913D01*
X157805276Y-151805618D01*
X157805289Y-151579628D01*
X157805335Y-151373880D01*
X157805422Y-151187436D01*
X157805560Y-151019354D01*
X157805758Y-150868694D01*
X157806025Y-150734514D01*
X157806369Y-150615874D01*
X157806800Y-150511834D01*
X157807326Y-150421452D01*
X157807958Y-150343788D01*
X157808703Y-150277902D01*
X157809571Y-150222852D01*
X157810571Y-150177697D01*
X157811712Y-150141498D01*
X157813003Y-150113313D01*
X157814453Y-150092202D01*
X157816071Y-150077224D01*
X157817866Y-150067438D01*
X157819847Y-150061904D01*
X157822023Y-150059680D01*
X157822030Y-150059677D01*
X157834291Y-150058975D01*
X157866618Y-150058293D01*
X157917891Y-150057638D01*
X157986992Y-150057012D01*
X158072802Y-150056419D01*
X158174202Y-150055865D01*
X158290073Y-150055352D01*
X158419297Y-150054886D01*
X158560754Y-150054469D01*
X158713326Y-150054106D01*
X158875894Y-150053802D01*
X159047339Y-150053560D01*
X159226542Y-150053384D01*
X159412384Y-150053279D01*
X159584328Y-150053248D01*
X159810827Y-150053261D01*
G37*
G36*
X148716862Y-141570881D02*
G01*
X148747015Y-141576492D01*
X148756620Y-141582168D01*
X148760262Y-141594982D01*
X148766787Y-141626661D01*
X148775836Y-141675135D01*
X148787048Y-141738335D01*
X148800064Y-141814190D01*
X148814523Y-141900632D01*
X148830066Y-141995591D01*
X148846333Y-142096996D01*
X148848257Y-142109128D01*
X148864471Y-142211325D01*
X148879766Y-142307483D01*
X148893805Y-142395508D01*
X148906253Y-142473307D01*
X148916775Y-142538785D01*
X148925034Y-142589849D01*
X148930695Y-142624406D01*
X148933422Y-142640362D01*
X148933528Y-142640891D01*
X148932369Y-142667042D01*
X148914678Y-142683143D01*
X148879324Y-142689851D01*
X148849308Y-142689647D01*
X148786051Y-142686400D01*
X148767144Y-142564591D01*
X148759156Y-142513900D01*
X148751868Y-142469045D01*
X148746149Y-142435277D01*
X148743110Y-142418948D01*
X148740991Y-142411146D01*
X148736659Y-142405265D01*
X148727429Y-142401033D01*
X148710621Y-142398179D01*
X148683553Y-142396432D01*
X148643544Y-142395521D01*
X148587911Y-142395172D01*
X148513973Y-142395116D01*
X148507732Y-142395116D01*
X148277481Y-142395116D01*
X148215674Y-142510432D01*
X148182389Y-142572649D01*
X148157268Y-142618770D01*
X148138145Y-142651192D01*
X148122853Y-142672311D01*
X148109223Y-142684526D01*
X148095090Y-142690233D01*
X148078286Y-142691830D01*
X148056644Y-142691714D01*
X148051817Y-142691697D01*
X148017285Y-142690574D01*
X147991890Y-142687669D01*
X147982812Y-142684635D01*
X147976087Y-142668514D01*
X147975751Y-142664074D01*
X147980790Y-142652621D01*
X147995156Y-142624753D01*
X148017726Y-142582484D01*
X148047375Y-142527826D01*
X148082979Y-142462792D01*
X148123413Y-142389394D01*
X148167554Y-142309644D01*
X148188510Y-142271928D01*
X148346477Y-142271928D01*
X148356503Y-142274089D01*
X148384324Y-142275958D01*
X148426549Y-142277413D01*
X148479789Y-142278333D01*
X148531839Y-142278602D01*
X148717202Y-142278602D01*
X148717202Y-142254056D01*
X148715674Y-142238448D01*
X148711451Y-142205703D01*
X148705073Y-142159462D01*
X148697080Y-142103367D01*
X148688014Y-142041056D01*
X148678415Y-141976171D01*
X148668823Y-141912352D01*
X148659779Y-141853240D01*
X148651824Y-141802474D01*
X148645498Y-141763696D01*
X148641341Y-141740546D01*
X148640292Y-141736103D01*
X148634961Y-141743224D01*
X148621152Y-141766233D01*
X148600394Y-141802344D01*
X148574213Y-141848771D01*
X148544138Y-141902730D01*
X148511695Y-141961434D01*
X148478411Y-142022098D01*
X148445815Y-142081937D01*
X148415434Y-142138165D01*
X148388794Y-142187997D01*
X148367424Y-142228647D01*
X148352851Y-142257330D01*
X148346602Y-142271259D01*
X148346477Y-142271928D01*
X148188510Y-142271928D01*
X148214277Y-142225555D01*
X148262458Y-142139139D01*
X148310973Y-142052410D01*
X148358697Y-141967379D01*
X148404505Y-141886059D01*
X148447275Y-141810462D01*
X148485881Y-141742601D01*
X148519199Y-141684488D01*
X148546106Y-141638136D01*
X148565476Y-141605557D01*
X148576185Y-141588764D01*
X148577200Y-141587464D01*
X148591469Y-141577106D01*
X148614991Y-141571309D01*
X148652813Y-141569062D01*
X148669882Y-141568928D01*
X148716862Y-141570881D01*
G37*
G36*
X144754736Y-141571025D02*
G01*
X144774337Y-141571550D01*
X144848756Y-141574078D01*
X144906171Y-141577254D01*
X144950762Y-141581527D01*
X144986705Y-141587348D01*
X145018182Y-141595164D01*
X145031130Y-141599168D01*
X145111129Y-141633905D01*
X145175283Y-141681673D01*
X145225655Y-141744182D01*
X145242974Y-141774805D01*
X145258057Y-141805017D01*
X145268364Y-141829416D01*
X145274798Y-141853179D01*
X145278263Y-141881484D01*
X145279663Y-141919506D01*
X145279901Y-141972423D01*
X145279887Y-141986250D01*
X145279015Y-142052223D01*
X145276098Y-142103540D01*
X145270426Y-142146687D01*
X145261291Y-142188151D01*
X145255492Y-142209276D01*
X145212587Y-142325324D01*
X145155128Y-142426770D01*
X145083754Y-142512947D01*
X144999099Y-142583190D01*
X144901800Y-142636831D01*
X144818807Y-142666362D01*
X144777811Y-142674229D01*
X144716039Y-142680583D01*
X144633363Y-142685435D01*
X144554483Y-142688179D01*
X144481194Y-142689916D01*
X144426124Y-142690551D01*
X144386330Y-142689948D01*
X144358867Y-142687972D01*
X144340792Y-142684486D01*
X144329163Y-142679355D01*
X144326752Y-142677674D01*
X144321976Y-142673588D01*
X144318396Y-142668152D01*
X144316282Y-142659583D01*
X144315906Y-142646100D01*
X144317536Y-142625919D01*
X144321446Y-142597259D01*
X144327905Y-142558337D01*
X144329250Y-142550950D01*
X144480338Y-142550950D01*
X144490148Y-142557573D01*
X144516652Y-142562085D01*
X144555457Y-142564432D01*
X144602174Y-142564556D01*
X144652410Y-142562405D01*
X144701775Y-142557922D01*
X144729254Y-142554073D01*
X144810933Y-142531841D01*
X144887793Y-142494214D01*
X144953423Y-142444586D01*
X144972156Y-142425454D01*
X145024092Y-142356383D01*
X145065980Y-142277837D01*
X145097271Y-142193358D01*
X145117418Y-142106489D01*
X145125875Y-142020772D01*
X145122096Y-141939749D01*
X145105532Y-141866963D01*
X145075637Y-141805956D01*
X145069184Y-141797004D01*
X145044222Y-141772427D01*
X145008769Y-141746937D01*
X144982480Y-141732160D01*
X144955107Y-141719755D01*
X144929200Y-141711144D01*
X144899516Y-141705416D01*
X144860813Y-141701660D01*
X144807850Y-141698964D01*
X144786986Y-141698175D01*
X144650912Y-141693261D01*
X144644868Y-141718480D01*
X144640204Y-141739709D01*
X144632297Y-141777693D01*
X144621688Y-141829694D01*
X144608918Y-141892976D01*
X144594528Y-141964800D01*
X144579058Y-142042432D01*
X144563050Y-142123132D01*
X144547045Y-142204165D01*
X144531583Y-142282794D01*
X144517205Y-142356281D01*
X144504453Y-142421890D01*
X144493867Y-142476883D01*
X144485988Y-142518524D01*
X144481358Y-142544076D01*
X144480338Y-142550950D01*
X144329250Y-142550950D01*
X144337183Y-142507370D01*
X144349553Y-142442577D01*
X144365284Y-142362174D01*
X144384648Y-142264379D01*
X144405352Y-142160287D01*
X144425552Y-142059040D01*
X144444751Y-141963266D01*
X144462506Y-141875149D01*
X144478371Y-141796872D01*
X144491904Y-141730618D01*
X144502659Y-141678572D01*
X144510194Y-141642915D01*
X144514063Y-141625831D01*
X144514083Y-141625755D01*
X144521486Y-141606060D01*
X144533441Y-141591249D01*
X144552612Y-141580766D01*
X144581664Y-141574057D01*
X144623259Y-141570567D01*
X144680062Y-141569742D01*
X144754736Y-141571025D01*
G37*
G36*
X151531394Y-141862151D02*
G01*
X151587869Y-141884625D01*
X151633452Y-141923718D01*
X151656527Y-141955558D01*
X151669720Y-141977755D01*
X151678634Y-141997145D01*
X151684100Y-142018580D01*
X151686946Y-142046909D01*
X151688004Y-142086982D01*
X151688108Y-142140099D01*
X151686752Y-142211759D01*
X151682591Y-142267393D01*
X151675130Y-142312036D01*
X151668824Y-142335766D01*
X151629000Y-142441947D01*
X151579999Y-142530839D01*
X151522424Y-142601859D01*
X151456876Y-142654429D01*
X151383959Y-142687969D01*
X151304273Y-142701898D01*
X151288109Y-142702280D01*
X151217894Y-142696379D01*
X151158351Y-142677065D01*
X151102961Y-142642634D01*
X151080502Y-142626760D01*
X151066326Y-142619105D01*
X151064320Y-142619130D01*
X151061399Y-142630236D01*
X151055171Y-142658646D01*
X151046367Y-142700867D01*
X151035719Y-142753407D01*
X151026937Y-142797618D01*
X151014854Y-142856539D01*
X151003285Y-142908602D01*
X150993135Y-142950052D01*
X150985308Y-142977135D01*
X150981621Y-142985629D01*
X150965902Y-142992798D01*
X150937731Y-142997274D01*
X150904779Y-142998818D01*
X150874719Y-142997195D01*
X150855223Y-142992166D01*
X150852357Y-142989627D01*
X150853295Y-142977845D01*
X150858022Y-142947670D01*
X150866074Y-142901461D01*
X150876987Y-142841578D01*
X150890295Y-142770380D01*
X150905536Y-142690229D01*
X150922243Y-142603482D01*
X150939953Y-142512500D01*
X150952358Y-142449376D01*
X151100667Y-142449376D01*
X151108910Y-142473655D01*
X151130474Y-142503001D01*
X151160113Y-142532277D01*
X151192583Y-142556345D01*
X151222641Y-142570068D01*
X151224270Y-142570454D01*
X151249659Y-142576319D01*
X151264617Y-142580142D01*
X151287444Y-142580556D01*
X151320166Y-142574526D01*
X151353258Y-142564079D01*
X151365242Y-142558727D01*
X151410444Y-142525072D01*
X151451292Y-142474044D01*
X151486194Y-142409276D01*
X151513555Y-142334399D01*
X151531780Y-142253045D01*
X151539276Y-142168845D01*
X151539364Y-142162089D01*
X151537273Y-142098091D01*
X151529083Y-142051265D01*
X151513509Y-142018151D01*
X151489270Y-141995292D01*
X151474436Y-141987067D01*
X151427765Y-141976101D01*
X151376757Y-141983574D01*
X151323895Y-142007868D01*
X151271664Y-142047367D01*
X151222546Y-142100453D01*
X151179026Y-142165509D01*
X151167542Y-142186903D01*
X151152711Y-142222882D01*
X151136983Y-142271915D01*
X151122155Y-142326951D01*
X151110022Y-142380943D01*
X151102379Y-142426840D01*
X151100667Y-142449376D01*
X150952358Y-142449376D01*
X150958202Y-142419642D01*
X150976524Y-142327267D01*
X150994455Y-142237737D01*
X151011530Y-142153409D01*
X151027287Y-142076645D01*
X151041258Y-142009802D01*
X151052982Y-141955242D01*
X151061992Y-141915323D01*
X151067824Y-141892406D01*
X151069050Y-141888788D01*
X151077509Y-141874517D01*
X151091335Y-141867854D01*
X151116857Y-141866761D01*
X151134887Y-141867603D01*
X151164275Y-141869876D01*
X151181546Y-141875380D01*
X151188783Y-141888390D01*
X151188064Y-141913179D01*
X151181470Y-141954019D01*
X151180270Y-141960837D01*
X151171889Y-142008502D01*
X151226330Y-141957640D01*
X151293207Y-141904726D01*
X151360732Y-141871416D01*
X151432155Y-141856294D01*
X151461554Y-141855019D01*
X151531394Y-141862151D01*
G37*
G36*
X153054514Y-47406213D02*
G01*
X153063283Y-47406419D01*
X153122387Y-47408161D01*
X153164093Y-47410419D01*
X153192187Y-47413757D01*
X153210456Y-47418744D01*
X153222684Y-47425945D01*
X153228256Y-47431104D01*
X153234324Y-47443612D01*
X153246618Y-47474210D01*
X153264454Y-47520962D01*
X153287147Y-47581934D01*
X153314013Y-47655190D01*
X153344367Y-47738795D01*
X153377525Y-47830812D01*
X153412803Y-47929308D01*
X153449515Y-48032346D01*
X153486978Y-48137991D01*
X153524507Y-48244308D01*
X153561418Y-48349361D01*
X153597027Y-48451215D01*
X153630648Y-48547934D01*
X153661598Y-48637584D01*
X153689192Y-48718228D01*
X153712746Y-48787932D01*
X153731574Y-48844759D01*
X153744994Y-48886776D01*
X153752320Y-48912045D01*
X153753004Y-48914967D01*
X153755696Y-48938065D01*
X153750640Y-48954767D01*
X153735235Y-48966071D01*
X153706883Y-48972971D01*
X153662984Y-48976464D01*
X153600938Y-48977544D01*
X153589596Y-48977560D01*
X153525363Y-48976722D01*
X153480026Y-48974070D01*
X153451361Y-48969399D01*
X153438255Y-48963535D01*
X153429289Y-48949063D01*
X153415444Y-48918150D01*
X153398231Y-48874553D01*
X153379162Y-48822029D01*
X153366899Y-48786117D01*
X153312441Y-48622722D01*
X153018514Y-48622722D01*
X152724587Y-48622722D01*
X152689404Y-48736588D01*
X152666748Y-48809372D01*
X152648895Y-48864513D01*
X152634556Y-48904658D01*
X152622441Y-48932453D01*
X152611260Y-48950545D01*
X152599724Y-48961580D01*
X152586544Y-48968204D01*
X152574756Y-48971884D01*
X152541276Y-48977493D01*
X152495028Y-48980690D01*
X152443868Y-48981420D01*
X152395655Y-48979627D01*
X152358247Y-48975259D01*
X152350313Y-48973440D01*
X152329292Y-48961048D01*
X152320816Y-48935544D01*
X152320653Y-48933999D01*
X152323585Y-48919452D01*
X152332903Y-48886881D01*
X152347937Y-48838239D01*
X152368020Y-48775477D01*
X152392481Y-48700548D01*
X152420654Y-48615403D01*
X152451869Y-48521994D01*
X152485458Y-48422274D01*
X152506383Y-48360569D01*
X152805776Y-48360569D01*
X152815845Y-48362960D01*
X152843959Y-48365062D01*
X152886979Y-48366760D01*
X152941769Y-48367940D01*
X153005188Y-48368487D01*
X153022012Y-48368511D01*
X153238248Y-48368511D01*
X153130795Y-48045766D01*
X153104581Y-47967871D01*
X153080262Y-47897207D01*
X153058674Y-47836082D01*
X153040653Y-47786801D01*
X153027037Y-47751672D01*
X153018661Y-47733002D01*
X153016508Y-47730649D01*
X153011759Y-47742030D01*
X153001430Y-47770548D01*
X152986522Y-47813206D01*
X152968039Y-47867007D01*
X152946983Y-47928953D01*
X152924357Y-47996048D01*
X152901163Y-48065293D01*
X152878405Y-48133691D01*
X152857085Y-48198245D01*
X152838207Y-48255957D01*
X152822772Y-48303830D01*
X152811783Y-48338865D01*
X152806244Y-48358067D01*
X152805776Y-48360569D01*
X152506383Y-48360569D01*
X152520752Y-48318195D01*
X152557082Y-48211707D01*
X152593780Y-48104764D01*
X152630178Y-47999317D01*
X152665606Y-47897318D01*
X152699396Y-47800720D01*
X152730880Y-47711474D01*
X152759388Y-47631531D01*
X152784253Y-47562845D01*
X152804806Y-47507367D01*
X152820377Y-47467049D01*
X152830299Y-47443843D01*
X152832385Y-47440014D01*
X152844662Y-47426331D01*
X152862869Y-47416445D01*
X152889982Y-47409924D01*
X152928976Y-47406333D01*
X152982828Y-47405240D01*
X153054514Y-47406213D01*
G37*
G36*
X144761700Y-45953100D02*
G01*
X144917703Y-45982657D01*
X145072794Y-46030619D01*
X145224313Y-46095828D01*
X145369599Y-46177126D01*
X145505992Y-46273355D01*
X145630833Y-46383357D01*
X145640180Y-46392655D01*
X145748413Y-46513654D01*
X145836314Y-46639217D01*
X145904432Y-46770340D01*
X145953317Y-46908021D01*
X145974661Y-46999490D01*
X145981404Y-47056736D01*
X145983682Y-47127926D01*
X145981837Y-47206372D01*
X145976210Y-47285388D01*
X145967141Y-47358284D01*
X145954973Y-47418373D01*
X145952918Y-47425808D01*
X145901881Y-47565522D01*
X145832718Y-47696719D01*
X145747107Y-47817372D01*
X145646731Y-47925455D01*
X145533268Y-48018939D01*
X145408399Y-48095799D01*
X145389731Y-48105301D01*
X145295090Y-48148010D01*
X145210656Y-48177410D01*
X145137695Y-48193248D01*
X145077476Y-48195270D01*
X145031267Y-48183223D01*
X145023090Y-48178648D01*
X144993087Y-48153836D01*
X144967849Y-48123684D01*
X144966993Y-48122340D01*
X144956723Y-48103549D01*
X144951075Y-48084234D01*
X144949452Y-48058634D01*
X144951259Y-48020986D01*
X144953547Y-47992489D01*
X144958981Y-47893070D01*
X144956501Y-47807045D01*
X144945633Y-47727974D01*
X144929062Y-47660094D01*
X144882133Y-47531383D01*
X144816289Y-47404800D01*
X144731038Y-47279665D01*
X144625885Y-47155298D01*
X144500337Y-47031019D01*
X144422081Y-46962175D01*
X144354776Y-46903813D01*
X144300958Y-46853556D01*
X144256787Y-46807326D01*
X144218420Y-46761044D01*
X144182016Y-46710633D01*
X144174120Y-46698929D01*
X144124711Y-46612909D01*
X144093846Y-46528696D01*
X144080024Y-46441240D01*
X144079950Y-46433381D01*
X144219009Y-46433381D01*
X144237101Y-46515315D01*
X144254862Y-46559328D01*
X144289018Y-46620800D01*
X144334875Y-46682927D01*
X144394542Y-46748124D01*
X144470129Y-46818805D01*
X144515803Y-46858007D01*
X144657321Y-46986064D01*
X144779779Y-47116830D01*
X144882911Y-47249758D01*
X144966450Y-47384300D01*
X145030127Y-47519911D01*
X145073676Y-47656043D01*
X145096829Y-47792150D01*
X145099320Y-47927684D01*
X145087568Y-48028061D01*
X145081303Y-48063634D01*
X145117122Y-48056186D01*
X145145853Y-48048846D01*
X145185503Y-48037035D01*
X145223729Y-48024570D01*
X145345790Y-47972487D01*
X145456737Y-47904471D01*
X145555655Y-47822466D01*
X145641626Y-47728420D01*
X145713737Y-47624275D01*
X145771070Y-47511979D01*
X145812711Y-47393475D01*
X145837744Y-47270709D01*
X145845252Y-47145627D01*
X145834320Y-47020173D01*
X145804033Y-46896293D01*
X145782344Y-46837943D01*
X145720462Y-46715689D01*
X145639837Y-46599414D01*
X145542447Y-46490696D01*
X145430271Y-46391112D01*
X145305286Y-46302239D01*
X145169471Y-46225654D01*
X145024805Y-46162933D01*
X144877544Y-46116743D01*
X144822368Y-46103497D01*
X144774943Y-46094724D01*
X144727681Y-46089537D01*
X144672996Y-46087049D01*
X144618036Y-46086404D01*
X144559428Y-46086456D01*
X144516950Y-46087565D01*
X144485555Y-46090460D01*
X144460189Y-46095872D01*
X144435805Y-46104530D01*
X144408306Y-46116724D01*
X144335576Y-46160646D01*
X144279552Y-46216375D01*
X144240963Y-46281809D01*
X144220540Y-46354845D01*
X144219009Y-46433381D01*
X144079950Y-46433381D01*
X144079454Y-46380597D01*
X144091927Y-46286442D01*
X144121918Y-46203222D01*
X144170476Y-46128545D01*
X144207914Y-46087859D01*
X144277908Y-46029767D01*
X144353698Y-45987502D01*
X144438572Y-45959871D01*
X144535820Y-45945683D01*
X144607444Y-45943105D01*
X144761700Y-45953100D01*
G37*
G36*
X143821862Y-46870957D02*
G01*
X143906754Y-46881001D01*
X143973773Y-46894666D01*
X144119059Y-46943645D01*
X144254310Y-47010656D01*
X144378191Y-47094419D01*
X144489366Y-47193649D01*
X144586502Y-47307066D01*
X144668262Y-47433387D01*
X144733313Y-47571329D01*
X144761333Y-47651196D01*
X144780092Y-47726809D01*
X144784443Y-47788497D01*
X144773995Y-47838212D01*
X144748362Y-47877910D01*
X144710422Y-47907631D01*
X144691989Y-47916816D01*
X144670847Y-47922525D01*
X144642946Y-47924975D01*
X144604234Y-47924384D01*
X144550660Y-47920970D01*
X144515270Y-47918126D01*
X144389095Y-47918146D01*
X144261721Y-47938959D01*
X144133739Y-47980247D01*
X144005738Y-48041695D01*
X143878308Y-48122986D01*
X143752040Y-48223804D01*
X143627522Y-48343832D01*
X143539988Y-48441144D01*
X143451069Y-48541394D01*
X143369394Y-48623917D01*
X143292938Y-48690037D01*
X143219677Y-48741075D01*
X143147587Y-48778355D01*
X143074645Y-48803200D01*
X142998824Y-48816933D01*
X142960363Y-48819989D01*
X142901831Y-48820531D01*
X142854091Y-48814745D01*
X142814848Y-48804097D01*
X142724869Y-48763490D01*
X142645570Y-48705936D01*
X142579115Y-48633886D01*
X142527668Y-48549791D01*
X142493393Y-48456102D01*
X142488360Y-48434388D01*
X142481408Y-48380337D01*
X142479378Y-48323418D01*
X142622052Y-48323418D01*
X142622905Y-48367729D01*
X142625305Y-48400187D01*
X142629874Y-48425455D01*
X142637235Y-48448199D01*
X142648009Y-48473083D01*
X142651096Y-48479728D01*
X142696851Y-48556446D01*
X142753256Y-48615298D01*
X142818775Y-48655746D01*
X142891877Y-48677256D01*
X142971025Y-48679290D01*
X143054688Y-48661314D01*
X143108653Y-48639647D01*
X143170811Y-48605814D01*
X143230418Y-48563446D01*
X143290789Y-48509695D01*
X143355243Y-48441713D01*
X143400515Y-48389002D01*
X143534672Y-48239886D01*
X143671738Y-48110858D01*
X143811346Y-48002221D01*
X143953129Y-47914281D01*
X144008987Y-47885633D01*
X144088412Y-47848781D01*
X144156397Y-47821500D01*
X144218953Y-47802428D01*
X144282095Y-47790205D01*
X144351834Y-47783469D01*
X144434185Y-47780859D01*
X144472658Y-47780665D01*
X144650341Y-47780684D01*
X144643485Y-47748888D01*
X144627243Y-47691150D01*
X144602327Y-47623541D01*
X144571950Y-47553729D01*
X144539323Y-47489381D01*
X144523159Y-47461634D01*
X144443196Y-47350528D01*
X144349936Y-47253148D01*
X144245495Y-47170405D01*
X144131991Y-47103205D01*
X144011538Y-47052458D01*
X143886255Y-47019073D01*
X143758257Y-47003957D01*
X143629660Y-47008019D01*
X143515000Y-47028864D01*
X143392757Y-47070796D01*
X143273156Y-47132080D01*
X143158056Y-47210901D01*
X143049317Y-47305439D01*
X142948798Y-47413880D01*
X142858358Y-47534404D01*
X142779858Y-47665197D01*
X142715155Y-47804439D01*
X142711240Y-47814331D01*
X142676957Y-47907412D01*
X142652286Y-47989163D01*
X142635873Y-48066382D01*
X142626369Y-48145865D01*
X142622422Y-48234409D01*
X142622124Y-48262589D01*
X142622052Y-48323418D01*
X142479378Y-48323418D01*
X142478946Y-48311301D01*
X142480662Y-48232926D01*
X142486241Y-48150862D01*
X142495372Y-48070755D01*
X142507740Y-47998253D01*
X142514078Y-47970416D01*
X142563373Y-47809007D01*
X142627852Y-47655564D01*
X142706161Y-47511488D01*
X142796945Y-47378181D01*
X142898852Y-47257045D01*
X143010528Y-47149481D01*
X143130618Y-47056891D01*
X143257769Y-46980676D01*
X143390627Y-46922239D01*
X143527839Y-46882981D01*
X143572363Y-46874711D01*
X143646410Y-46867402D01*
X143732329Y-46866287D01*
X143821862Y-46870957D01*
G37*
G36*
X146238897Y-141570608D02*
G01*
X146286199Y-141571809D01*
X146350552Y-141574134D01*
X146410135Y-141577402D01*
X146460651Y-141581292D01*
X146497803Y-141585483D01*
X146515279Y-141588919D01*
X146579613Y-141618295D01*
X146627444Y-141660321D01*
X146657939Y-141713816D01*
X146670265Y-141777601D01*
X146669772Y-141807899D01*
X146662906Y-141854135D01*
X146650524Y-141901594D01*
X146642012Y-141924413D01*
X146616485Y-141969275D01*
X146581653Y-142013512D01*
X146543027Y-142051111D01*
X146506117Y-142076055D01*
X146500974Y-142078373D01*
X146469913Y-142091239D01*
X146505213Y-142106039D01*
X146559589Y-142138837D01*
X146598967Y-142183411D01*
X146623800Y-142237046D01*
X146634542Y-142297026D01*
X146631647Y-142360636D01*
X146615568Y-142425160D01*
X146586760Y-142487882D01*
X146545675Y-142546087D01*
X146492768Y-142597060D01*
X146428493Y-142638084D01*
X146415263Y-142644425D01*
X146372057Y-142661167D01*
X146323387Y-142673778D01*
X146265890Y-142682687D01*
X146196207Y-142688325D01*
X146110979Y-142691120D01*
X146046086Y-142691617D01*
X145978670Y-142691338D01*
X145929326Y-142690256D01*
X145894949Y-142688104D01*
X145872434Y-142684615D01*
X145858676Y-142679523D01*
X145852770Y-142675042D01*
X145841117Y-142650610D01*
X145841628Y-142635322D01*
X145844755Y-142620556D01*
X145851588Y-142587135D01*
X145855728Y-142566686D01*
X146002787Y-142566686D01*
X146149840Y-142562990D01*
X146211201Y-142561050D01*
X146256018Y-142558361D01*
X146288929Y-142554251D01*
X146314575Y-142548047D01*
X146337596Y-142539079D01*
X146347494Y-142534378D01*
X146403890Y-142495575D01*
X146444643Y-142442527D01*
X146467431Y-142384098D01*
X146476113Y-142320741D01*
X146466509Y-142268054D01*
X146438983Y-142226366D01*
X146409898Y-142204307D01*
X146371516Y-142188627D01*
X146320705Y-142178626D01*
X146254330Y-142173606D01*
X146198395Y-142172681D01*
X146082796Y-142172681D01*
X146048728Y-142344803D01*
X146036885Y-142404336D01*
X146026080Y-142458092D01*
X146017149Y-142501959D01*
X146010925Y-142531828D01*
X146008723Y-142541806D01*
X146002787Y-142566686D01*
X145855728Y-142566686D01*
X145861702Y-142537183D01*
X145874669Y-142472821D01*
X145890062Y-142396172D01*
X145907455Y-142309358D01*
X145926420Y-142214503D01*
X145946532Y-142113728D01*
X145947449Y-142109128D01*
X145960425Y-142044260D01*
X146111524Y-142044260D01*
X146121235Y-142050823D01*
X146147219Y-142054694D01*
X146184763Y-142056078D01*
X146229156Y-142055179D01*
X146275685Y-142052202D01*
X146319637Y-142047353D01*
X146356300Y-142040837D01*
X146380962Y-142032858D01*
X146381631Y-142032512D01*
X146430377Y-141996876D01*
X146469462Y-141949174D01*
X146496568Y-141894348D01*
X146509379Y-141837339D01*
X146505580Y-141783091D01*
X146502880Y-141773776D01*
X146486979Y-141743642D01*
X146460419Y-141721735D01*
X146420703Y-141707145D01*
X146365333Y-141698960D01*
X146291815Y-141696269D01*
X146290470Y-141696266D01*
X146178126Y-141696033D01*
X146144821Y-141862860D01*
X146133497Y-141920460D01*
X146123825Y-141971324D01*
X146116518Y-142011570D01*
X146112288Y-142037317D01*
X146111524Y-142044260D01*
X145960425Y-142044260D01*
X145970817Y-141992306D01*
X145990588Y-141894538D01*
X146007176Y-141814079D01*
X146020995Y-141749181D01*
X146032461Y-141698098D01*
X146041987Y-141659083D01*
X146049990Y-141630391D01*
X146056883Y-141610275D01*
X146063081Y-141596987D01*
X146068999Y-141588783D01*
X146071597Y-141586353D01*
X146081726Y-141579347D01*
X146094619Y-141574388D01*
X146113530Y-141571255D01*
X146141711Y-141569728D01*
X146182416Y-141569586D01*
X146238897Y-141570608D01*
G37*
G36*
X144376734Y-48059892D02*
G01*
X144420251Y-48082990D01*
X144453578Y-48121773D01*
X144463036Y-48139028D01*
X144472082Y-48159550D01*
X144476863Y-48178957D01*
X144477614Y-48202928D01*
X144474576Y-48237144D01*
X144468960Y-48280212D01*
X144462200Y-48406807D01*
X144476177Y-48535096D01*
X144510574Y-48664464D01*
X144565070Y-48794296D01*
X144639347Y-48923977D01*
X144733083Y-49052890D01*
X144845960Y-49180422D01*
X144977659Y-49305957D01*
X145021278Y-49343546D01*
X145119124Y-49429757D01*
X145198627Y-49508199D01*
X145260729Y-49579870D01*
X145305226Y-49643850D01*
X145353239Y-49738997D01*
X145384018Y-49834865D01*
X145397126Y-49928722D01*
X145392124Y-50017839D01*
X145375450Y-50082081D01*
X145330685Y-50175952D01*
X145270065Y-50256383D01*
X145194964Y-50322255D01*
X145106760Y-50372450D01*
X145006829Y-50405847D01*
X144967578Y-50413654D01*
X144895348Y-50420809D01*
X144810067Y-50421469D01*
X144718794Y-50415790D01*
X144644922Y-50406587D01*
X144482486Y-50372032D01*
X144324709Y-50320334D01*
X144173314Y-50252902D01*
X144030027Y-50171144D01*
X143896572Y-50076469D01*
X143774672Y-49970286D01*
X143666053Y-49854003D01*
X143572439Y-49729027D01*
X143495554Y-49596769D01*
X143437123Y-49458636D01*
X143420590Y-49406542D01*
X143405050Y-49334323D01*
X143395013Y-49248445D01*
X143390644Y-49155749D01*
X143391863Y-49078527D01*
X143530332Y-49078527D01*
X143531147Y-49209229D01*
X143551174Y-49340362D01*
X143589355Y-49465159D01*
X143646575Y-49585551D01*
X143722546Y-49701592D01*
X143815011Y-49811648D01*
X143921711Y-49914082D01*
X144040389Y-50007258D01*
X144168786Y-50089541D01*
X144304645Y-50159293D01*
X144445707Y-50214879D01*
X144589714Y-50254664D01*
X144705798Y-50274047D01*
X144771610Y-50280777D01*
X144824343Y-50283541D01*
X144871721Y-50282367D01*
X144921469Y-50277281D01*
X144938820Y-50274880D01*
X145024119Y-50253578D01*
X145100313Y-50216729D01*
X145164279Y-50166394D01*
X145212893Y-50104635D01*
X145222138Y-50087933D01*
X145234960Y-50059748D01*
X145242799Y-50032210D01*
X145246789Y-49998685D01*
X145248064Y-49952538D01*
X145248088Y-49936150D01*
X145247464Y-49887522D01*
X145244710Y-49852718D01*
X145238192Y-49824386D01*
X145226276Y-49795171D01*
X145209237Y-49761380D01*
X145171902Y-49698581D01*
X145125069Y-49636501D01*
X145066149Y-49572212D01*
X144992558Y-49502791D01*
X144941097Y-49458145D01*
X144791089Y-49321943D01*
X144662087Y-49184950D01*
X144553917Y-49046912D01*
X144466408Y-48907575D01*
X144399388Y-48766686D01*
X144352684Y-48623991D01*
X144341457Y-48575287D01*
X144329713Y-48500157D01*
X144323457Y-48419520D01*
X144322920Y-48341055D01*
X144328333Y-48272438D01*
X144331710Y-48251997D01*
X144335759Y-48218183D01*
X144333018Y-48196943D01*
X144331246Y-48194267D01*
X144315540Y-48191742D01*
X144282723Y-48196916D01*
X144239364Y-48208206D01*
X144107685Y-48256864D01*
X143987135Y-48321586D01*
X143878611Y-48400636D01*
X143783013Y-48492275D01*
X143701237Y-48594768D01*
X143634183Y-48706376D01*
X143582749Y-48825364D01*
X143547832Y-48949993D01*
X143530332Y-49078527D01*
X143391863Y-49078527D01*
X143392107Y-49063077D01*
X143399567Y-48977271D01*
X143408962Y-48922587D01*
X143448769Y-48781371D01*
X143503713Y-48652284D01*
X143575531Y-48532169D01*
X143665959Y-48417863D01*
X143714780Y-48365859D01*
X143824162Y-48267298D01*
X143941555Y-48186399D01*
X144070517Y-48120956D01*
X144172371Y-48082223D01*
X144254062Y-48059756D01*
X144321761Y-48052229D01*
X144376734Y-48059892D01*
G37*
G36*
X146587598Y-47475703D02*
G01*
X146616230Y-47480052D01*
X146642756Y-47488467D01*
X146673532Y-47502205D01*
X146696065Y-47513221D01*
X146780562Y-47566430D01*
X146852490Y-47635359D01*
X146909953Y-47717428D01*
X146951055Y-47810056D01*
X146970245Y-47886279D01*
X146979083Y-47975242D01*
X146977964Y-48077599D01*
X146967473Y-48188371D01*
X146948197Y-48302579D01*
X146920723Y-48415245D01*
X146900183Y-48481101D01*
X146840329Y-48629220D01*
X146763567Y-48774801D01*
X146672560Y-48914116D01*
X146569972Y-49043433D01*
X146458466Y-49159023D01*
X146352085Y-49248689D01*
X146281937Y-49296141D01*
X146199836Y-49342986D01*
X146112537Y-49385925D01*
X146026797Y-49421661D01*
X145949372Y-49446898D01*
X145942056Y-49448791D01*
X145863501Y-49463812D01*
X145774393Y-49473169D01*
X145682580Y-49476547D01*
X145595908Y-49473630D01*
X145528962Y-49465394D01*
X145412613Y-49438401D01*
X145303746Y-49400410D01*
X145198176Y-49350972D01*
X145064984Y-49270202D01*
X144946418Y-49174206D01*
X144842869Y-49063452D01*
X144754733Y-48938407D01*
X144682402Y-48799539D01*
X144638921Y-48687070D01*
X144617533Y-48612944D01*
X144608740Y-48552949D01*
X144609320Y-48546157D01*
X144746397Y-48546157D01*
X144749589Y-48563698D01*
X144750040Y-48566070D01*
X144765034Y-48623783D01*
X144789278Y-48691935D01*
X144819903Y-48763591D01*
X144854044Y-48831812D01*
X144874642Y-48867589D01*
X144927746Y-48942781D01*
X144994609Y-49019808D01*
X145069569Y-49093058D01*
X145146963Y-49156921D01*
X145208893Y-49198721D01*
X145281509Y-49236837D01*
X145365017Y-49272380D01*
X145451524Y-49302461D01*
X145533141Y-49324196D01*
X145571331Y-49331287D01*
X145642104Y-49337094D01*
X145724252Y-49336143D01*
X145809228Y-49328877D01*
X145888483Y-49315741D01*
X145893985Y-49314525D01*
X146021575Y-49275186D01*
X146145052Y-49216545D01*
X146262998Y-49140316D01*
X146373994Y-49048209D01*
X146476622Y-48941936D01*
X146569464Y-48823208D01*
X146651103Y-48693738D01*
X146720120Y-48555236D01*
X146775097Y-48409414D01*
X146814617Y-48257984D01*
X146826983Y-48188444D01*
X146839453Y-48064071D01*
X146836804Y-47954397D01*
X146818991Y-47859236D01*
X146785966Y-47778400D01*
X146737686Y-47711705D01*
X146701676Y-47678635D01*
X146630561Y-47634999D01*
X146553894Y-47611645D01*
X146472832Y-47608759D01*
X146388532Y-47626529D01*
X146385759Y-47627453D01*
X146323209Y-47652621D01*
X146263603Y-47685841D01*
X146204191Y-47729312D01*
X146142220Y-47785235D01*
X146074939Y-47855812D01*
X146017179Y-47922241D01*
X145918750Y-48034042D01*
X145824715Y-48130085D01*
X145730986Y-48214026D01*
X145633478Y-48289519D01*
X145528103Y-48360221D01*
X145526190Y-48361421D01*
X145399037Y-48431500D01*
X145268468Y-48485129D01*
X145137249Y-48521581D01*
X145008148Y-48540123D01*
X144883930Y-48540026D01*
X144858955Y-48537596D01*
X144807924Y-48531731D01*
X144774568Y-48528762D01*
X144755471Y-48529581D01*
X144747219Y-48535082D01*
X144746397Y-48546157D01*
X144609320Y-48546157D01*
X144612930Y-48503903D01*
X144630490Y-48462624D01*
X144661806Y-48425930D01*
X144671758Y-48417161D01*
X144705055Y-48389142D01*
X144870741Y-48395990D01*
X144966523Y-48397936D01*
X145047705Y-48394228D01*
X145120415Y-48383580D01*
X145190783Y-48364706D01*
X145264937Y-48336321D01*
X145349007Y-48297140D01*
X145354191Y-48294570D01*
X145490243Y-48217527D01*
X145620091Y-48124253D01*
X145745520Y-48013266D01*
X145868317Y-47883086D01*
X145910268Y-47833606D01*
X145979699Y-47752833D01*
X146042548Y-47687105D01*
X146102480Y-47632925D01*
X146163161Y-47586799D01*
X146183481Y-47573073D01*
X146248657Y-47532766D01*
X146304990Y-47504821D01*
X146359130Y-47487150D01*
X146417726Y-47477666D01*
X146487429Y-47474283D01*
X146498578Y-47474177D01*
X146550500Y-47474164D01*
X146587598Y-47475703D01*
G37*
G36*
X154236086Y-47408172D02*
G01*
X154294317Y-47412074D01*
X154346937Y-47417538D01*
X154388431Y-47424211D01*
X154410341Y-47430360D01*
X154453001Y-47458957D01*
X154490322Y-47505548D01*
X154519477Y-47565989D01*
X154527362Y-47587534D01*
X154541609Y-47626669D01*
X154561371Y-47681062D01*
X154585803Y-47748382D01*
X154614059Y-47826299D01*
X154645293Y-47912479D01*
X154678660Y-48004594D01*
X154702342Y-48070000D01*
X154741019Y-48176618D01*
X154773248Y-48264832D01*
X154799671Y-48336203D01*
X154820930Y-48392290D01*
X154837668Y-48434652D01*
X154850526Y-48464849D01*
X154860148Y-48484439D01*
X154867175Y-48494984D01*
X154872249Y-48498042D01*
X154876014Y-48495172D01*
X154876838Y-48493687D01*
X154882942Y-48479044D01*
X154895685Y-48446612D01*
X154914285Y-48398444D01*
X154937959Y-48336591D01*
X154965923Y-48263107D01*
X154997394Y-48180043D01*
X155031590Y-48089452D01*
X155067689Y-47993486D01*
X155104101Y-47897050D01*
X155138922Y-47805829D01*
X155171324Y-47721920D01*
X155200481Y-47647422D01*
X155225564Y-47584434D01*
X155245746Y-47535053D01*
X155260199Y-47501379D01*
X155268009Y-47485635D01*
X155288233Y-47459080D01*
X155310305Y-47439469D01*
X155337715Y-47425789D01*
X155373953Y-47417025D01*
X155422511Y-47412162D01*
X155486878Y-47410187D01*
X155528405Y-47409964D01*
X155601604Y-47410715D01*
X155656686Y-47413574D01*
X155696681Y-47419382D01*
X155724620Y-47428981D01*
X155743532Y-47443214D01*
X155756448Y-47462922D01*
X155761461Y-47474717D01*
X155763413Y-47490441D01*
X155765197Y-47526104D01*
X155766797Y-47580462D01*
X155768195Y-47652272D01*
X155769375Y-47740287D01*
X155770321Y-47843265D01*
X155771015Y-47959960D01*
X155771440Y-48089129D01*
X155771581Y-48225833D01*
X155771581Y-48950334D01*
X155747748Y-48963153D01*
X155718528Y-48972327D01*
X155675551Y-48978241D01*
X155626030Y-48980660D01*
X155577174Y-48979350D01*
X155536195Y-48974075D01*
X155522665Y-48970487D01*
X155480296Y-48956287D01*
X155475000Y-48310257D01*
X155469704Y-47664227D01*
X155243771Y-48299709D01*
X155202043Y-48416504D01*
X155162511Y-48526040D01*
X155125770Y-48626731D01*
X155092416Y-48716990D01*
X155063045Y-48795230D01*
X155038253Y-48859863D01*
X155018636Y-48909302D01*
X155004789Y-48941961D01*
X154997310Y-48956251D01*
X154997194Y-48956375D01*
X154985497Y-48965925D01*
X154969783Y-48972120D01*
X154945616Y-48975658D01*
X154908560Y-48977237D01*
X154862520Y-48977560D01*
X154805927Y-48976705D01*
X154766342Y-48973805D01*
X154739645Y-48968352D01*
X154722483Y-48960356D01*
X154716167Y-48954118D01*
X154708483Y-48942152D01*
X154698907Y-48923058D01*
X154686913Y-48895435D01*
X154671978Y-48857882D01*
X154653577Y-48809000D01*
X154631186Y-48747388D01*
X154604280Y-48671644D01*
X154572335Y-48580369D01*
X154534827Y-48472163D01*
X154491231Y-48345624D01*
X154479337Y-48311014D01*
X154262198Y-47678874D01*
X154256695Y-48317625D01*
X154255672Y-48431850D01*
X154254631Y-48539601D01*
X154253595Y-48639044D01*
X154252587Y-48728345D01*
X154251630Y-48805669D01*
X154250746Y-48869182D01*
X154249957Y-48917050D01*
X154249288Y-48947439D01*
X154248760Y-48958514D01*
X154248751Y-48958526D01*
X154227084Y-48968058D01*
X154190128Y-48975162D01*
X154143670Y-48979552D01*
X154093495Y-48980943D01*
X154045389Y-48979049D01*
X154005141Y-48973585D01*
X153994881Y-48971040D01*
X153965488Y-48955361D01*
X153954776Y-48937571D01*
X153953835Y-48923201D01*
X153953029Y-48889445D01*
X153952366Y-48838100D01*
X153951850Y-48770965D01*
X153951491Y-48689838D01*
X153951293Y-48596515D01*
X153951264Y-48492796D01*
X153951411Y-48380478D01*
X153951740Y-48261359D01*
X153951993Y-48195515D01*
X153955025Y-47477022D01*
X153988652Y-47446981D01*
X154020855Y-47425190D01*
X154061509Y-47412662D01*
X154082859Y-47409371D01*
X154124843Y-47406467D01*
X154177756Y-47406185D01*
X154236086Y-47408172D01*
G37*
G36*
X152562156Y-109109253D02*
G01*
X152562156Y-110512714D01*
X149749938Y-110512714D01*
X146937719Y-110512714D01*
X146937719Y-109109253D01*
X146937719Y-108486694D01*
X147468481Y-108486694D01*
X147468669Y-108583696D01*
X147469158Y-108698669D01*
X147469927Y-108833109D01*
X147470064Y-108855041D01*
X147470940Y-108989617D01*
X147471772Y-109104771D01*
X147472625Y-109202267D01*
X147473564Y-109283866D01*
X147474653Y-109351331D01*
X147475959Y-109406425D01*
X147477544Y-109450911D01*
X147479475Y-109486550D01*
X147481816Y-109515106D01*
X147484632Y-109538341D01*
X147487987Y-109558017D01*
X147491946Y-109575897D01*
X147496574Y-109593744D01*
X147497321Y-109596492D01*
X147537970Y-109712336D01*
X147592573Y-109812265D01*
X147661390Y-109896523D01*
X147744679Y-109965354D01*
X147842699Y-110019001D01*
X147955710Y-110057709D01*
X147997663Y-110067524D01*
X148025172Y-110070827D01*
X148068604Y-110073175D01*
X148122713Y-110074404D01*
X148182253Y-110074349D01*
X148203482Y-110073994D01*
X148272436Y-110071943D01*
X148325353Y-110068713D01*
X148367371Y-110063704D01*
X148403631Y-110056319D01*
X148436510Y-110046851D01*
X148549073Y-110001344D01*
X148645649Y-109942042D01*
X148726500Y-109868650D01*
X148761177Y-109822099D01*
X149257402Y-109822099D01*
X149258923Y-109866255D01*
X149264444Y-109896036D01*
X149275410Y-109918097D01*
X149279361Y-109923428D01*
X149316816Y-109957967D01*
X149372831Y-109991360D01*
X149444783Y-110022395D01*
X149530047Y-110049858D01*
X149580463Y-110062720D01*
X149629497Y-110070287D01*
X149692611Y-110074398D01*
X149763954Y-110075233D01*
X149837675Y-110072972D01*
X149907923Y-110067795D01*
X149968847Y-110059882D01*
X150014594Y-110049413D01*
X150014742Y-110049365D01*
X150121538Y-110005324D01*
X150213455Y-109947547D01*
X150289604Y-109876868D01*
X150349099Y-109794119D01*
X150391051Y-109700133D01*
X150392897Y-109694450D01*
X150407413Y-109628972D01*
X150414277Y-109553171D01*
X150413352Y-109475708D01*
X150404502Y-109405242D01*
X150397879Y-109378058D01*
X150369198Y-109308780D01*
X150325524Y-109238804D01*
X150271632Y-109175043D01*
X150233884Y-109140610D01*
X150202745Y-109118742D01*
X150176220Y-109102609D01*
X150782673Y-109102609D01*
X150782754Y-109238335D01*
X150782987Y-109368172D01*
X150783360Y-109490530D01*
X150783862Y-109603820D01*
X150784480Y-109706453D01*
X150785203Y-109796838D01*
X150786018Y-109873387D01*
X150786913Y-109934510D01*
X150787877Y-109978617D01*
X150788897Y-110004119D01*
X150789555Y-110009898D01*
X150795992Y-110022548D01*
X150805990Y-110032736D01*
X150821643Y-110040684D01*
X150845045Y-110046619D01*
X150878292Y-110050764D01*
X150923476Y-110053343D01*
X150982695Y-110054582D01*
X151058040Y-110054704D01*
X151151609Y-110053933D01*
X151195768Y-110053411D01*
X151295914Y-110051950D01*
X151377387Y-110050230D01*
X151442694Y-110048116D01*
X151494347Y-110045472D01*
X151534854Y-110042161D01*
X151566726Y-110038048D01*
X151592471Y-110032997D01*
X151598109Y-110031606D01*
X151689670Y-110001109D01*
X151775393Y-109959243D01*
X151849215Y-109909216D01*
X151878993Y-109882905D01*
X151938955Y-109810165D01*
X151984639Y-109724953D01*
X152014646Y-109631621D01*
X152027573Y-109534521D01*
X152022108Y-109438561D01*
X151997098Y-109336329D01*
X151956754Y-109248531D01*
X151900554Y-109174553D01*
X151827974Y-109113778D01*
X151738492Y-109065590D01*
X151689476Y-109046782D01*
X151681276Y-109041281D01*
X151685172Y-109032182D01*
X151703354Y-109016713D01*
X151726237Y-109000274D01*
X151796079Y-108938826D01*
X151850222Y-108863697D01*
X151884935Y-108784088D01*
X151900167Y-108712099D01*
X151904689Y-108630211D01*
X151898764Y-108546644D01*
X151882653Y-108469621D01*
X151874087Y-108444229D01*
X151840062Y-108379758D01*
X151790338Y-108317947D01*
X151730194Y-108264412D01*
X151670144Y-108227270D01*
X151631044Y-108209461D01*
X151592111Y-108195084D01*
X151550539Y-108183791D01*
X151503519Y-108175234D01*
X151448244Y-108169065D01*
X151381908Y-108164937D01*
X151301701Y-108162501D01*
X151204818Y-108161409D01*
X151137476Y-108161255D01*
X150834671Y-108161255D01*
X150808672Y-108187253D01*
X150782673Y-108213252D01*
X150782673Y-109102609D01*
X150176220Y-109102609D01*
X150156005Y-109090314D01*
X150097391Y-109057436D01*
X150030631Y-109022217D01*
X149977669Y-108995640D01*
X149881944Y-108947756D01*
X149803788Y-108906511D01*
X149741136Y-108870596D01*
X149691922Y-108838699D01*
X149654080Y-108809507D01*
X149625543Y-108781711D01*
X149609852Y-108762178D01*
X149574262Y-108696070D01*
X149557612Y-108625436D01*
X149560243Y-108554051D01*
X149582496Y-108485690D01*
X149584531Y-108481633D01*
X149624648Y-108425830D01*
X149680470Y-108384221D01*
X149751954Y-108356828D01*
X149839057Y-108343675D01*
X149841597Y-108343519D01*
X149898724Y-108342517D01*
X149951526Y-108347601D01*
X150005217Y-108360062D01*
X150065011Y-108381192D01*
X150136122Y-108412284D01*
X150155000Y-108421157D01*
X150212926Y-108447696D01*
X150254590Y-108462776D01*
X150282460Y-108464833D01*
X150299006Y-108452305D01*
X150306695Y-108423630D01*
X150307996Y-108377243D01*
X150306058Y-108325527D01*
X150301822Y-108288943D01*
X150290550Y-108262572D01*
X150268160Y-108241035D01*
X150230570Y-108218957D01*
X150221723Y-108214434D01*
X150218859Y-108213252D01*
X150118021Y-108171630D01*
X150010115Y-108144593D01*
X149900804Y-108132940D01*
X149792888Y-108136288D01*
X149689168Y-108154252D01*
X149592445Y-108186449D01*
X149505518Y-108232495D01*
X149431188Y-108292008D01*
X149399301Y-108327089D01*
X149351417Y-108402248D01*
X149319161Y-108487862D01*
X149302778Y-108579820D01*
X149302514Y-108674013D01*
X149318612Y-108766330D01*
X149351318Y-108852662D01*
X149366367Y-108880093D01*
X149397976Y-108927132D01*
X149434813Y-108969780D01*
X149479539Y-109010043D01*
X149534814Y-109049924D01*
X149603299Y-109091429D01*
X149687654Y-109136559D01*
X149744642Y-109165061D01*
X149843645Y-109214702D01*
X149924833Y-109258126D01*
X149990094Y-109296895D01*
X150041319Y-109332570D01*
X150080395Y-109366711D01*
X150109214Y-109400880D01*
X150129664Y-109436636D01*
X150143634Y-109475542D01*
X150149359Y-109499419D01*
X150154005Y-109570237D01*
X150140797Y-109641418D01*
X150111810Y-109708060D01*
X150069118Y-109765260D01*
X150020038Y-109805016D01*
X149943518Y-109840049D01*
X149854895Y-109860319D01*
X149757648Y-109865414D01*
X149655257Y-109854924D01*
X149633424Y-109850702D01*
X149584164Y-109836616D01*
X149522499Y-109813039D01*
X149453758Y-109782071D01*
X149432139Y-109771445D01*
X149384241Y-109747892D01*
X149342595Y-109728268D01*
X149311114Y-109714357D01*
X149293712Y-109707939D01*
X149292166Y-109707710D01*
X149274878Y-109717829D01*
X149263399Y-109747823D01*
X149257894Y-109797150D01*
X149257402Y-109822099D01*
X148761177Y-109822099D01*
X148791888Y-109780872D01*
X148842075Y-109678413D01*
X148877323Y-109560979D01*
X148880421Y-109546551D01*
X148883993Y-109526676D01*
X148887037Y-109503173D01*
X148889593Y-109474315D01*
X148891700Y-109438375D01*
X148893400Y-109393626D01*
X148894731Y-109338340D01*
X148895735Y-109270790D01*
X148896450Y-109189250D01*
X148896917Y-109091991D01*
X148897176Y-108977287D01*
X148897267Y-108843409D01*
X148897269Y-108819451D01*
X148897269Y-108173919D01*
X148863912Y-108162291D01*
X148829534Y-108155299D01*
X148783610Y-108152181D01*
X148735440Y-108153049D01*
X148694326Y-108158016D01*
X148685426Y-108160134D01*
X148658945Y-108167493D01*
X148653112Y-108823736D01*
X148651844Y-108963630D01*
X148650619Y-109084075D01*
X148649304Y-109186805D01*
X148647763Y-109273553D01*
X148645863Y-109346055D01*
X148643468Y-109406043D01*
X148640446Y-109455253D01*
X148636660Y-109495418D01*
X148631976Y-109528272D01*
X148626261Y-109555550D01*
X148619379Y-109578985D01*
X148611197Y-109600312D01*
X148601579Y-109621265D01*
X148590391Y-109643578D01*
X148589394Y-109645533D01*
X148557183Y-109695527D01*
X148513547Y-109745901D01*
X148465689Y-109788947D01*
X148436976Y-109808622D01*
X148372914Y-109836786D01*
X148295740Y-109855830D01*
X148211826Y-109864954D01*
X148127544Y-109863358D01*
X148068954Y-109854861D01*
X147978955Y-109826532D01*
X147901974Y-109781741D01*
X147837708Y-109720202D01*
X147785851Y-109641630D01*
X147749631Y-109556392D01*
X147745048Y-109542329D01*
X147741123Y-109527976D01*
X147737796Y-109511620D01*
X147735006Y-109491549D01*
X147732692Y-109466054D01*
X147730794Y-109433421D01*
X147729249Y-109391939D01*
X147727998Y-109339896D01*
X147726979Y-109275581D01*
X147726133Y-109197282D01*
X147725396Y-109103288D01*
X147724710Y-108991886D01*
X147724013Y-108861366D01*
X147723862Y-108831859D01*
X147720503Y-108173148D01*
X147682450Y-108160589D01*
X147646124Y-108153332D01*
X147602381Y-108151346D01*
X147557473Y-108154075D01*
X147517653Y-108160964D01*
X147489172Y-108171458D01*
X147480649Y-108178509D01*
X147477581Y-108185486D01*
X147475001Y-108198490D01*
X147472887Y-108219013D01*
X147471216Y-108248550D01*
X147469962Y-108288594D01*
X147469104Y-108340637D01*
X147468618Y-108406172D01*
X147468481Y-108486694D01*
X146937719Y-108486694D01*
X146937719Y-107705792D01*
X149749938Y-107705792D01*
X152562156Y-107705792D01*
X152562156Y-109109253D01*
G37*
G36*
X155792765Y-69092072D02*
G01*
X155792765Y-70495533D01*
X150253065Y-70495533D01*
X144713366Y-70495533D01*
X144713366Y-70338150D01*
X152229013Y-70338150D01*
X152229058Y-70338398D01*
X152245232Y-70357045D01*
X152276821Y-70370003D01*
X152318611Y-70376410D01*
X152365389Y-70375403D01*
X152406393Y-70367740D01*
X152440017Y-70352294D01*
X152460694Y-70325537D01*
X152461990Y-70322783D01*
X152468936Y-70305546D01*
X152482352Y-70270319D01*
X152501705Y-70218575D01*
X152526458Y-70151789D01*
X152556077Y-70071436D01*
X152590027Y-69978992D01*
X152627773Y-69875930D01*
X152668781Y-69763726D01*
X152712515Y-69643854D01*
X152758441Y-69517790D01*
X152806024Y-69387009D01*
X152854729Y-69252984D01*
X152904020Y-69117192D01*
X152953364Y-68981107D01*
X152955374Y-68975558D01*
X153529393Y-68975558D01*
X153530549Y-69146849D01*
X153545856Y-69302381D01*
X153575319Y-69442165D01*
X153618948Y-69566214D01*
X153676750Y-69674540D01*
X153748731Y-69767156D01*
X153834900Y-69844074D01*
X153935263Y-69905306D01*
X154049829Y-69950866D01*
X154129796Y-69971632D01*
X154175301Y-69978073D01*
X154235899Y-69982056D01*
X154306372Y-69983693D01*
X154381504Y-69983096D01*
X154456076Y-69980375D01*
X154524872Y-69975642D01*
X154582674Y-69969007D01*
X154622331Y-69961134D01*
X154661928Y-69947975D01*
X154711347Y-69928520D01*
X154761671Y-69906346D01*
X154775918Y-69899549D01*
X154823666Y-69874300D01*
X154864824Y-69847237D01*
X154905859Y-69813544D01*
X154953242Y-69768408D01*
X154956520Y-69765139D01*
X155001375Y-69718575D01*
X155034937Y-69678583D01*
X155062266Y-69638271D01*
X155088423Y-69590744D01*
X155096814Y-69574015D01*
X155144880Y-69457763D01*
X155180859Y-69330370D01*
X155204808Y-69195270D01*
X155216785Y-69055897D01*
X155216846Y-68915686D01*
X155205050Y-68778070D01*
X155181455Y-68646485D01*
X155146116Y-68524364D01*
X155099093Y-68415142D01*
X155076750Y-68375382D01*
X155007816Y-68281730D01*
X154924022Y-68203024D01*
X154825696Y-68139445D01*
X154713167Y-68091172D01*
X154586762Y-68058383D01*
X154467813Y-68042755D01*
X154354990Y-68040915D01*
X154239106Y-68052052D01*
X154125678Y-68075022D01*
X154020221Y-68108681D01*
X153928254Y-68151886D01*
X153921014Y-68156093D01*
X153868113Y-68192976D01*
X153811084Y-68241944D01*
X153755594Y-68297347D01*
X153707307Y-68353536D01*
X153672322Y-68404110D01*
X153624807Y-68495217D01*
X153588066Y-68587921D01*
X153561043Y-68686443D01*
X153542682Y-68795007D01*
X153531926Y-68917836D01*
X153529393Y-68975558D01*
X152955374Y-68975558D01*
X153002225Y-68846203D01*
X153050069Y-68713957D01*
X153096360Y-68585841D01*
X153140564Y-68463332D01*
X153182146Y-68347905D01*
X153220570Y-68241033D01*
X153255303Y-68144193D01*
X153285809Y-68058858D01*
X153311553Y-67986504D01*
X153332001Y-67928606D01*
X153346617Y-67886638D01*
X153354867Y-67862075D01*
X153356568Y-67856046D01*
X153347546Y-67835477D01*
X153320032Y-67821841D01*
X153273355Y-67814899D01*
X153237585Y-67813847D01*
X153194659Y-67815106D01*
X153166964Y-67819729D01*
X153148649Y-67828992D01*
X153142336Y-67834582D01*
X153135824Y-67847312D01*
X153122754Y-67878415D01*
X153103661Y-67926425D01*
X153079079Y-67989875D01*
X153049543Y-68067299D01*
X153015588Y-68157232D01*
X152977749Y-68258205D01*
X152936560Y-68368754D01*
X152892558Y-68487411D01*
X152846276Y-68612711D01*
X152798249Y-68743186D01*
X152749013Y-68877371D01*
X152699102Y-69013799D01*
X152649051Y-69151004D01*
X152599395Y-69287519D01*
X152550668Y-69421878D01*
X152503406Y-69552615D01*
X152458144Y-69678263D01*
X152415416Y-69797356D01*
X152375757Y-69908428D01*
X152339702Y-70010011D01*
X152307787Y-70100641D01*
X152280545Y-70178849D01*
X152258512Y-70243171D01*
X152242222Y-70292139D01*
X152232211Y-70324288D01*
X152229013Y-70338150D01*
X144713366Y-70338150D01*
X144713366Y-69175323D01*
X145285336Y-69175323D01*
X145285364Y-69315392D01*
X145285493Y-69436980D01*
X145285794Y-69541440D01*
X145286334Y-69630121D01*
X145287182Y-69704377D01*
X145288407Y-69765558D01*
X145290078Y-69815017D01*
X145292263Y-69854105D01*
X145295030Y-69884174D01*
X145298450Y-69906576D01*
X145302589Y-69922661D01*
X145307517Y-69933783D01*
X145313303Y-69941292D01*
X145320015Y-69946541D01*
X145327722Y-69950880D01*
X145333007Y-69953694D01*
X145350676Y-69957511D01*
X145386143Y-69960595D01*
X145436037Y-69962941D01*
X145496983Y-69964544D01*
X145565609Y-69965399D01*
X145638543Y-69965501D01*
X145712410Y-69964844D01*
X145783839Y-69963424D01*
X145849455Y-69961234D01*
X145905887Y-69958271D01*
X145948798Y-69954637D01*
X146094161Y-69930421D01*
X146224128Y-69891743D01*
X146339046Y-69838317D01*
X146439263Y-69769857D01*
X146525124Y-69686077D01*
X146596977Y-69586691D01*
X146655168Y-69471414D01*
X146700043Y-69339958D01*
X146701768Y-69333611D01*
X146711126Y-69297495D01*
X146718134Y-69265667D01*
X146723131Y-69234106D01*
X146726459Y-69198795D01*
X146728459Y-69155713D01*
X146729471Y-69100841D01*
X146729835Y-69030162D01*
X146729850Y-69018599D01*
X147128378Y-69018599D01*
X147128442Y-69187868D01*
X147128644Y-69337002D01*
X147128998Y-69467049D01*
X147129519Y-69579057D01*
X147130222Y-69674075D01*
X147131120Y-69753151D01*
X147132228Y-69817333D01*
X147133560Y-69867670D01*
X147135132Y-69905211D01*
X147136958Y-69931003D01*
X147139052Y-69946095D01*
X147141259Y-69951451D01*
X147172216Y-69962610D01*
X147216347Y-69968990D01*
X147266166Y-69970509D01*
X147314189Y-69967086D01*
X147352932Y-69958639D01*
X147364054Y-69953889D01*
X147367289Y-69951231D01*
X147370126Y-69946058D01*
X147372590Y-69937054D01*
X147374708Y-69922903D01*
X147376505Y-69902289D01*
X147378008Y-69873898D01*
X147379242Y-69836414D01*
X147380234Y-69788520D01*
X147381011Y-69728903D01*
X147381597Y-69656245D01*
X147382019Y-69569232D01*
X147382303Y-69466549D01*
X147382476Y-69346879D01*
X147382562Y-69208907D01*
X147382568Y-69175932D01*
X147885704Y-69175932D01*
X147885712Y-69316635D01*
X147885818Y-69438834D01*
X147886096Y-69543868D01*
X147886620Y-69633076D01*
X147887467Y-69707799D01*
X147888710Y-69769375D01*
X147890425Y-69819146D01*
X147892686Y-69858449D01*
X147895568Y-69888626D01*
X147899147Y-69911016D01*
X147903497Y-69926958D01*
X147908692Y-69937792D01*
X147914809Y-69944859D01*
X147921921Y-69949497D01*
X147930104Y-69953047D01*
X147938311Y-69956359D01*
X147953896Y-69958508D01*
X147987939Y-69960250D01*
X148037718Y-69961544D01*
X148100508Y-69962346D01*
X148173586Y-69962617D01*
X148254230Y-69962313D01*
X148298812Y-69961907D01*
X148399040Y-69960618D01*
X148480601Y-69959074D01*
X148546009Y-69957141D01*
X148597782Y-69954688D01*
X148638435Y-69951582D01*
X148670484Y-69947691D01*
X148696445Y-69942881D01*
X148706610Y-69940434D01*
X148804721Y-69906926D01*
X148894256Y-69860236D01*
X148926100Y-69836644D01*
X149436391Y-69836644D01*
X149436443Y-69889132D01*
X149443852Y-69920958D01*
X149458653Y-69944741D01*
X149463921Y-69949439D01*
X149470710Y-69953386D01*
X149480782Y-69956647D01*
X149495901Y-69959288D01*
X149517831Y-69961374D01*
X149548334Y-69962970D01*
X149589173Y-69964142D01*
X149642112Y-69964955D01*
X149708914Y-69965474D01*
X149791343Y-69965765D01*
X149891161Y-69965894D01*
X150010132Y-69965925D01*
X150030029Y-69965925D01*
X150580221Y-69965925D01*
X150596710Y-69942384D01*
X150607987Y-69912805D01*
X150613020Y-69867508D01*
X150613199Y-69855833D01*
X150613509Y-69831112D01*
X150613199Y-69810743D01*
X150610405Y-69794305D01*
X150603266Y-69781380D01*
X150589918Y-69771547D01*
X150568501Y-69764387D01*
X150537150Y-69759481D01*
X150494004Y-69756410D01*
X150437201Y-69754754D01*
X150364877Y-69754094D01*
X150275171Y-69754009D01*
X150166220Y-69754082D01*
X150161390Y-69754082D01*
X150069770Y-69753926D01*
X149985119Y-69753483D01*
X149909696Y-69752786D01*
X149845763Y-69751869D01*
X149795581Y-69750768D01*
X149761410Y-69749516D01*
X149745512Y-69748149D01*
X149744642Y-69747738D01*
X149751675Y-69738732D01*
X149771533Y-69716470D01*
X149802348Y-69682964D01*
X149842256Y-69640221D01*
X149889391Y-69590252D01*
X149941887Y-69535066D01*
X149948686Y-69527951D01*
X150032197Y-69440155D01*
X150102587Y-69365058D01*
X150161769Y-69300435D01*
X150211657Y-69244058D01*
X150254164Y-69193701D01*
X150291202Y-69147138D01*
X150324684Y-69102143D01*
X150356524Y-69056490D01*
X150366251Y-69042020D01*
X150380527Y-69018599D01*
X151714784Y-69018599D01*
X151714848Y-69187868D01*
X151715050Y-69337002D01*
X151715404Y-69467049D01*
X151715925Y-69579057D01*
X151716627Y-69674075D01*
X151717525Y-69753151D01*
X151718633Y-69817333D01*
X151719966Y-69867670D01*
X151721538Y-69905211D01*
X151723363Y-69931003D01*
X151725457Y-69946095D01*
X151727664Y-69951451D01*
X151758622Y-69962610D01*
X151802752Y-69968990D01*
X151852571Y-69970509D01*
X151900594Y-69967086D01*
X151939337Y-69958639D01*
X151950459Y-69953889D01*
X151953694Y-69951231D01*
X151956531Y-69946058D01*
X151958995Y-69937054D01*
X151961113Y-69922903D01*
X151962910Y-69902289D01*
X151964413Y-69873898D01*
X151965647Y-69836414D01*
X151966640Y-69788520D01*
X151967416Y-69728903D01*
X151968002Y-69656245D01*
X151968424Y-69569232D01*
X151968709Y-69466549D01*
X151968881Y-69346879D01*
X151968968Y-69208907D01*
X151968995Y-69051318D01*
X151968995Y-69018851D01*
X151968971Y-68856909D01*
X151968882Y-68714838D01*
X151968703Y-68591324D01*
X151968411Y-68485054D01*
X151967980Y-68394715D01*
X151967386Y-68318994D01*
X151966605Y-68256576D01*
X151965613Y-68206148D01*
X151964383Y-68166398D01*
X151962894Y-68136011D01*
X151961118Y-68113675D01*
X151959034Y-68098075D01*
X151956615Y-68087899D01*
X151953837Y-68081832D01*
X151951479Y-68079169D01*
X151929607Y-68070558D01*
X151888768Y-68065784D01*
X151841889Y-68064632D01*
X151785161Y-68066447D01*
X151748248Y-68071987D01*
X151732300Y-68079169D01*
X151729234Y-68082997D01*
X151726545Y-68089941D01*
X151724209Y-68101313D01*
X151722201Y-68118428D01*
X151720498Y-68142599D01*
X151719073Y-68175140D01*
X151717904Y-68217364D01*
X151716965Y-68270585D01*
X151716232Y-68336116D01*
X151715680Y-68415272D01*
X151715285Y-68509366D01*
X151715022Y-68619710D01*
X151714868Y-68747620D01*
X151714797Y-68894408D01*
X151714784Y-69018599D01*
X150380527Y-69018599D01*
X150429221Y-68938714D01*
X150475359Y-68841199D01*
X150506214Y-68744728D01*
X150523332Y-68644558D01*
X150528278Y-68545043D01*
X150519828Y-68435716D01*
X150494274Y-68338819D01*
X150451933Y-68254727D01*
X150393122Y-68183815D01*
X150318155Y-68126461D01*
X150227351Y-68083039D01*
X150121025Y-68053924D01*
X150113196Y-68052466D01*
X150002637Y-68042225D01*
X149886069Y-68049314D01*
X149768386Y-68072898D01*
X149654483Y-68112147D01*
X149593807Y-68140849D01*
X149540568Y-68171436D01*
X149504531Y-68199888D01*
X149482659Y-68230322D01*
X149471914Y-68266858D01*
X149469246Y-68309761D01*
X149471779Y-68364221D01*
X149480408Y-68399138D01*
X149496672Y-68415658D01*
X149522114Y-68414926D01*
X149558275Y-68398089D01*
X149574578Y-68388071D01*
X149668512Y-68335262D01*
X149762879Y-68296312D01*
X149854450Y-68272093D01*
X149939994Y-68263476D01*
X150011100Y-68270186D01*
X150086105Y-68295590D01*
X150147602Y-68336307D01*
X150195000Y-68390856D01*
X150227708Y-68457760D01*
X150245135Y-68535539D01*
X150246691Y-68622716D01*
X150231785Y-68717811D01*
X150214400Y-68778939D01*
X150193634Y-68835287D01*
X150168343Y-68891033D01*
X150137212Y-68947960D01*
X150098923Y-69007851D01*
X150052160Y-69072490D01*
X149995606Y-69143660D01*
X149927944Y-69223143D01*
X149847857Y-69312723D01*
X149754029Y-69414183D01*
X149713291Y-69457501D01*
X149654313Y-69520305D01*
X149599579Y-69579222D01*
X149550917Y-69632239D01*
X149510150Y-69677340D01*
X149479105Y-69712513D01*
X149459608Y-69735742D01*
X149453868Y-69743706D01*
X149441861Y-69780941D01*
X149436391Y-69836644D01*
X148926100Y-69836644D01*
X148971972Y-69802660D01*
X149034627Y-69736490D01*
X149069043Y-69683985D01*
X149105972Y-69594820D01*
X149126295Y-69497990D01*
X149130065Y-69398088D01*
X149117336Y-69299711D01*
X149088161Y-69207455D01*
X149062948Y-69157230D01*
X149033073Y-69116323D01*
X148992410Y-69074312D01*
X148945380Y-69034485D01*
X148896403Y-69000129D01*
X148849899Y-68974532D01*
X148810288Y-68960981D01*
X148797299Y-68959670D01*
X148782132Y-68955569D01*
X148785597Y-68944009D01*
X148806958Y-68926104D01*
X148828619Y-68912449D01*
X148888225Y-68865839D01*
X148938394Y-68803066D01*
X148977086Y-68727815D01*
X149002259Y-68643774D01*
X149010601Y-68583648D01*
X149009156Y-68480899D01*
X148989468Y-68386515D01*
X148952368Y-68302020D01*
X148898686Y-68228938D01*
X148829252Y-68168795D01*
X148764514Y-68131761D01*
X148725567Y-68115064D01*
X148685593Y-68101594D01*
X148641818Y-68091025D01*
X148591468Y-68083035D01*
X148531768Y-68077298D01*
X148459945Y-68073490D01*
X148373224Y-68071288D01*
X148268831Y-68070367D01*
X148238498Y-68070298D01*
X147945156Y-68069928D01*
X147915437Y-68095493D01*
X147885718Y-68121057D01*
X147885718Y-69015384D01*
X147885704Y-69175932D01*
X147382568Y-69175932D01*
X147382589Y-69051318D01*
X147382590Y-69018851D01*
X147382566Y-68856909D01*
X147382477Y-68714838D01*
X147382298Y-68591324D01*
X147382005Y-68485054D01*
X147381575Y-68394715D01*
X147380981Y-68318994D01*
X147380200Y-68256576D01*
X147379207Y-68206148D01*
X147377978Y-68166398D01*
X147376488Y-68136011D01*
X147374713Y-68113675D01*
X147372628Y-68098075D01*
X147370209Y-68087899D01*
X147367431Y-68081832D01*
X147365074Y-68079169D01*
X147343201Y-68070558D01*
X147302362Y-68065784D01*
X147255484Y-68064632D01*
X147198756Y-68066447D01*
X147161843Y-68071987D01*
X147145894Y-68079169D01*
X147142828Y-68082997D01*
X147140139Y-68089941D01*
X147137804Y-68101313D01*
X147135796Y-68118428D01*
X147134092Y-68142599D01*
X147132668Y-68175140D01*
X147131498Y-68217364D01*
X147130559Y-68270585D01*
X147129826Y-68336116D01*
X147129274Y-68415272D01*
X147128880Y-68509366D01*
X147128617Y-68619710D01*
X147128463Y-68747620D01*
X147128391Y-68894408D01*
X147128378Y-69018599D01*
X146729850Y-69018599D01*
X146729872Y-69002038D01*
X146729171Y-68906759D01*
X146726367Y-68828411D01*
X146720661Y-68762781D01*
X146711253Y-68705658D01*
X146697346Y-68652828D01*
X146678139Y-68600078D01*
X146652834Y-68543197D01*
X146636463Y-68509503D01*
X146572158Y-68400034D01*
X146495658Y-68307444D01*
X146405683Y-68230599D01*
X146300952Y-68168363D01*
X146207197Y-68128871D01*
X146156580Y-68112369D01*
X146104285Y-68099075D01*
X146047407Y-68088693D01*
X145983038Y-68080924D01*
X145908274Y-68075471D01*
X145820207Y-68072037D01*
X145715931Y-68070325D01*
X145631754Y-68069991D01*
X145337340Y-68069928D01*
X145311341Y-68095927D01*
X145285342Y-68121926D01*
X145285342Y-69015421D01*
X145285336Y-69175323D01*
X144713366Y-69175323D01*
X144713366Y-69092072D01*
X144713366Y-67688611D01*
X150253065Y-67688611D01*
X155792765Y-67688611D01*
X155792765Y-69092072D01*
G37*
%TD*%
M02*
