%TF.GenerationSoftware,KiCad,Pcbnew,9.0.7-9.0.7~ubuntu24.04.1*%
%TF.CreationDate,2026-03-03T17:56:52+01:00*%
%TF.ProjectId,DIB2 USB adapter,44494232-2055-4534-9220-616461707465,r1B1*%
%TF.SameCoordinates,Original*%
%TF.FileFunction,Copper,L1,Top*%
%TF.FilePolarity,Positive*%
%FSLAX46Y46*%
G04 Gerber Fmt 4.6, Leading zero omitted, Abs format (unit mm)*
G04 Created by KiCad (PCBNEW 9.0.7-9.0.7~ubuntu24.04.1) date 2026-03-03 17:56:52*
%MOMM*%
%LPD*%
G01*
G04 APERTURE LIST*
G04 Aperture macros list*
%AMRoundRect*
0 Rectangle with rounded corners*
0 $1 Rounding radius*
0 $2 $3 $4 $5 $6 $7 $8 $9 X,Y pos of 4 corners*
0 Add a 4 corners polygon primitive as box body*
4,1,4,$2,$3,$4,$5,$6,$7,$8,$9,$2,$3,0*
0 Add four circle primitives for the rounded corners*
1,1,$1+$1,$2,$3*
1,1,$1+$1,$4,$5*
1,1,$1+$1,$6,$7*
1,1,$1+$1,$8,$9*
0 Add four rect primitives between the rounded corners*
20,1,$1+$1,$2,$3,$4,$5,0*
20,1,$1+$1,$4,$5,$6,$7,0*
20,1,$1+$1,$6,$7,$8,$9,0*
20,1,$1+$1,$8,$9,$2,$3,0*%
G04 Aperture macros list end*
%ADD10C,0.101600*%
%TA.AperFunction,NonConductor*%
%ADD11C,0.101600*%
%TD*%
%TA.AperFunction,ComponentPad*%
%ADD12C,1.650000*%
%TD*%
%TA.AperFunction,SMDPad,CuDef*%
%ADD13RoundRect,0.225000X-0.225000X-0.250000X0.225000X-0.250000X0.225000X0.250000X-0.225000X0.250000X0*%
%TD*%
%TA.AperFunction,ConnectorPad*%
%ADD14R,0.700000X4.200000*%
%TD*%
%TA.AperFunction,SMDPad,CuDef*%
%ADD15C,0.750000*%
%TD*%
%TA.AperFunction,ComponentPad*%
%ADD16C,5.500000*%
%TD*%
%TA.AperFunction,ComponentPad*%
%ADD17C,1.208000*%
%TD*%
%TA.AperFunction,ComponentPad*%
%ADD18C,1.100000*%
%TD*%
%TA.AperFunction,ComponentPad*%
%ADD19C,3.316000*%
%TD*%
%TA.AperFunction,SMDPad,CuDef*%
%ADD20R,1.016000X1.295400*%
%TD*%
%TA.AperFunction,SMDPad,CuDef*%
%ADD21RoundRect,0.200000X-0.200000X-0.275000X0.200000X-0.275000X0.200000X0.275000X-0.200000X0.275000X0*%
%TD*%
%TA.AperFunction,SMDPad,CuDef*%
%ADD22RoundRect,0.200000X0.200000X0.275000X-0.200000X0.275000X-0.200000X-0.275000X0.200000X-0.275000X0*%
%TD*%
%TA.AperFunction,ViaPad*%
%ADD23C,0.600000*%
%TD*%
%TA.AperFunction,Conductor*%
%ADD24C,0.406400*%
%TD*%
%TA.AperFunction,Conductor*%
%ADD25C,0.254000*%
%TD*%
%TA.AperFunction,Conductor*%
%ADD26C,0.304800*%
%TD*%
%TA.AperFunction,Conductor*%
%ADD27C,1.016000*%
%TD*%
%TA.AperFunction,Conductor*%
%ADD28C,0.177800*%
%TD*%
G04 APERTURE END LIST*
D10*
D11*
X61440757Y-68809310D02*
X60918243Y-68809310D01*
X61179500Y-68809310D02*
X61179500Y-67894910D01*
X61179500Y-67894910D02*
X61092414Y-68025539D01*
X61092414Y-68025539D02*
X61005329Y-68112625D01*
X61005329Y-68112625D02*
X60918243Y-68156168D01*
D12*
%TO.P,X1,1,Pin_1*%
%TO.N,+12V*%
X69805000Y-108430000D03*
%TO.P,X1,2,Pin_2*%
%TO.N,+5V*%
X67265000Y-108430000D03*
%TO.P,X1,3,Pin_3*%
%TO.N,GND*%
X69805000Y-105890000D03*
%TO.P,X1,4,Pin_4*%
X67265000Y-105890000D03*
%TO.P,X1,5,Pin_5*%
%TO.N,/DIB_SCLK*%
X69805000Y-103350000D03*
%TO.P,X1,6,Pin_6*%
%TO.N,+3V3*%
X67265000Y-103350000D03*
%TO.P,X1,7,Pin_7*%
%TO.N,/DIB_MOSI*%
X69805000Y-100810000D03*
%TO.P,X1,8,Pin_8*%
%TO.N,/~{DIB_FAULT}*%
X67265000Y-100810000D03*
%TO.P,X1,9,Pin_9*%
%TO.N,/DIB_MISO*%
X69805000Y-98270000D03*
%TO.P,X1,10,Pin_10*%
%TO.N,/AC_FREQ*%
X67265000Y-98270000D03*
%TO.P,X1,11,Pin_11*%
%TO.N,/DIB_IRQ*%
X69805000Y-95730000D03*
%TO.P,X1,12,Pin_12*%
%TO.N,/DIB_OE_SYNC*%
X67265000Y-95730000D03*
%TO.P,X1,13,Pin_13*%
%TO.N,/~{DIB_CSA}*%
X69805000Y-93190000D03*
%TO.P,X1,14,Pin_14*%
%TO.N,/~{DIB_RESET}*%
X67265000Y-93190000D03*
%TO.P,X1,15,Pin_15*%
%TO.N,/DIB_UART_RX*%
X69805000Y-90650000D03*
%TO.P,X1,16,Pin_16*%
%TO.N,/DIB_UART_TX*%
X67265000Y-90650000D03*
%TO.P,X1,17,Pin_17*%
%TO.N,/DIB_I2C_SCL*%
X69805000Y-88110000D03*
%TO.P,X1,18,Pin_18*%
%TO.N,/DIB_I2C_SDA*%
X67265000Y-88110000D03*
%TO.P,X1,19,Pin_19*%
%TO.N,/~{DIB_ALERT}*%
X69805000Y-85570000D03*
%TO.P,X1,20,Pin_20*%
%TO.N,PE*%
X67265000Y-85570000D03*
%TD*%
D13*
%TO.P,C4,1,1*%
%TO.N,+5V*%
X74135000Y-121520769D03*
%TO.P,C4,2,2*%
%TO.N,GND*%
X75685000Y-121520769D03*
%TD*%
D14*
%TO.P,X2,B1,+12V*%
%TO.N,+12V*%
X116200000Y-149000000D03*
%TO.P,X2,B2,+12V*%
X117200000Y-149000000D03*
%TO.P,X2,B3,GND*%
%TO.N,GND*%
X118200000Y-149000000D03*
%TO.P,X2,B4,+3V3*%
%TO.N,+3V3*%
X119200000Y-149000000D03*
%TO.P,X2,B5,+3V3*%
X120200000Y-149000000D03*
%TO.P,X2,B6,+VAUX*%
%TO.N,unconnected-(X2-+VAUX-PadB6)*%
X121200000Y-149000000D03*
%TO.P,X2,B7,GND*%
%TO.N,GND*%
X122200000Y-149000000D03*
%TO.P,X2,B8,~{RESET}*%
%TO.N,/~{DIB_RESET}*%
X123200000Y-149000000D03*
%TO.P,X2,B9,~{FAULT}*%
%TO.N,/~{DIB_FAULT}*%
X124200000Y-149000000D03*
%TO.P,X2,B10,SDA/SMBDAT*%
%TO.N,/DIB_I2C_SDA*%
X125200000Y-149000000D03*
%TO.P,X2,B11,GND*%
%TO.N,GND*%
X126200000Y-149000000D03*
%TO.P,X2,B12,GND*%
X129197300Y-149000000D03*
%TO.P,X2,B13,OE_SNYC*%
%TO.N,/DIB_OE_SYNC*%
X130197300Y-149000000D03*
%TO.P,X2,B14,AC_FREQ*%
%TO.N,/AC_FREQ*%
X131197300Y-149000000D03*
%TO.P,X2,B15,A0*%
%TO.N,unconnected-(X2-A0-PadB15)*%
X132197300Y-149000000D03*
%TO.P,X2,B16,A1*%
%TO.N,unconnected-(X2-A1-PadB16)*%
X133197300Y-149000000D03*
%TO.P,X2,B17,A2*%
%TO.N,unconnected-(X2-A2-PadB17)*%
X134197300Y-149000000D03*
%TO.P,X2,B18,UART_RX*%
%TO.N,/DIB_UART_TX*%
X135197300Y-149000000D03*
%TO.P,X2,B19,UART_TX*%
%TO.N,/DIB_UART_RX*%
X136197300Y-149000000D03*
%TO.P,X2,B20,BOOT*%
%TO.N,unconnected-(X2-BOOT-PadB20)*%
X137197300Y-149000000D03*
%TO.P,X2,B21,GND*%
%TO.N,GND*%
X138197300Y-149000000D03*
%TO.P,X2,B22,PCIe_CLK-*%
%TO.N,unconnected-(X2-PCIe_CLK--PadB22)*%
X139197300Y-149000000D03*
%TO.P,X2,B23,PCIe_CLK+*%
%TO.N,unconnected-(X2-PCIe_CLK+-PadB23)*%
X140197300Y-149000000D03*
%TO.P,X2,B24,GND*%
%TO.N,GND*%
X141197300Y-149000000D03*
%TO.P,X2,B25,PCIe_RX-*%
%TO.N,unconnected-(X2-PCIe_RX--PadB25)*%
X142197300Y-149000000D03*
%TO.P,X2,B26,PCIe_RX+*%
%TO.N,unconnected-(X2-PCIe_RX+-PadB26)*%
X143197300Y-149000000D03*
%TO.P,X2,B27,PCIe_TX-*%
%TO.N,unconnected-(X2-PCIe_TX--PadB27)*%
X144197300Y-149000000D03*
%TO.P,X2,B28,PCIe_TX+*%
%TO.N,unconnected-(X2-PCIe_TX+-PadB28)*%
X145197300Y-149000000D03*
%TO.P,X2,B29,~{PCIe_CLKREQ}*%
%TO.N,unconnected-(X2-~{PCIe_CLKREQ}-PadB29)*%
X146197300Y-149000000D03*
%TO.P,X2,B30,~{PCIe_WAKE}*%
%TO.N,unconnected-(X2-~{PCIe_WAKE}-PadB30)*%
X147197300Y-149000000D03*
%TO.P,X2,B31,GND*%
%TO.N,GND*%
X148197300Y-149000000D03*
%TO.P,X2,B32,ETH_SYNC*%
%TO.N,unconnected-(X2-ETH_SYNC-PadB32)*%
X149197300Y-149000000D03*
%TD*%
D13*
%TO.P,C3,1,1*%
%TO.N,+3V3*%
X71900000Y-103360000D03*
%TO.P,C3,2,2*%
%TO.N,GND*%
X73450000Y-103360000D03*
%TD*%
D15*
%TO.P,FM2,*%
%TO.N,*%
X148000000Y-62000000D03*
%TD*%
%TO.P,FM1,*%
%TO.N,*%
X76000000Y-62000000D03*
%TD*%
D16*
%TO.P,KK1,*%
%TO.N,*%
X69500000Y-63000000D03*
%TD*%
D17*
%TO.P,X3,1,VBUS*%
%TO.N,+5V*%
X70300000Y-124500000D03*
%TO.P,X3,2,D-*%
%TO.N,/DIB_USB_D+*%
X70300000Y-127000000D03*
%TO.P,X3,3,D+*%
%TO.N,/DIB_USB_D-*%
X70300000Y-129000000D03*
%TO.P,X3,4,GND*%
%TO.N,GND*%
X70300000Y-131500000D03*
D18*
%TO.P,X3,5,SSRX-*%
%TO.N,/USB3_RX+*%
X71800000Y-132000000D03*
%TO.P,X3,6,SSRX+*%
%TO.N,/USB3_RX-*%
X71800000Y-130000000D03*
D17*
%TO.P,X3,7,GND*%
%TO.N,GND*%
X71800000Y-128000000D03*
D18*
%TO.P,X3,8,SSTX-*%
%TO.N,/USB3_TX-*%
X71800000Y-126000000D03*
%TO.P,X3,9,SSTX+*%
%TO.N,/USB3_TX+*%
X71800000Y-124000000D03*
D19*
%TO.P,X3,SH,SH*%
%TO.N,PE*%
X68300000Y-121430000D03*
X68300000Y-134570000D03*
%TD*%
D13*
%TO.P,C2,1,1*%
%TO.N,+5V*%
X71900000Y-110409362D03*
%TO.P,C2,2,2*%
%TO.N,GND*%
X73450000Y-110409362D03*
%TD*%
%TO.P,C1,1,1*%
%TO.N,+12V*%
X71900000Y-108466681D03*
%TO.P,C1,2,2*%
%TO.N,GND*%
X73450000Y-108466681D03*
%TD*%
D20*
%TO.P,LED1,A,A*%
%TO.N,+5V*%
X74117500Y-120020000D03*
%TO.P,LED1,C,C*%
%TO.N,Net-(LED1-PadC)*%
X76022500Y-120020000D03*
%TD*%
D16*
%TO.P,KK2,*%
%TO.N,*%
X69500000Y-147000000D03*
%TD*%
D15*
%TO.P,FM3,*%
%TO.N,*%
X62000000Y-141000000D03*
%TD*%
%TO.P,FM4,*%
%TO.N,*%
X148000000Y-141000000D03*
%TD*%
D21*
%TO.P,R1,1,1*%
%TO.N,Net-(LED1-PadC)*%
X77345989Y-120020769D03*
%TO.P,R1,2,2*%
%TO.N,GND*%
X78995989Y-120020769D03*
%TD*%
D22*
%TO.P,R2,1,1*%
%TO.N,GND*%
X75735000Y-122980769D03*
%TO.P,R2,2,2*%
%TO.N,+5V*%
X74085000Y-122980769D03*
%TD*%
D23*
%TO.N,+3V3*%
X120100000Y-143211869D03*
X119311869Y-143200000D03*
%TO.N,/DIB_I2C_SCL*%
X92225230Y-139080000D03*
%TO.N,GND*%
X141361800Y-145390000D03*
X129197300Y-146447598D03*
X147750000Y-146447598D03*
X73470000Y-104020000D03*
X75690000Y-122230769D03*
X78992582Y-120680140D03*
X122211760Y-146448107D03*
X138197300Y-145400000D03*
X73450042Y-109119922D03*
X73460000Y-111070000D03*
X118200000Y-146295619D03*
X126200000Y-146447598D03*
%TO.N,/~{DIB_CSA}*%
X91090000Y-136200000D03*
%TO.N,/DIB_I2C_SDA*%
X87860000Y-89380000D03*
X125200000Y-140060000D03*
X125190000Y-143220000D03*
%TO.N,+5V*%
X74140000Y-138110000D03*
X121100000Y-146400000D03*
X74140000Y-137250000D03*
X121100000Y-145700000D03*
%TO.N,/DIB_OE_SYNC*%
X130190000Y-140610000D03*
X130190000Y-145320000D03*
X97660000Y-96900000D03*
%TO.N,/DIB_UART_TX*%
X135200000Y-140300000D03*
X97460000Y-91890000D03*
X135200000Y-145350000D03*
%TO.N,/DIB_MOSI*%
X88500000Y-137813000D03*
%TO.N,/AC_FREQ*%
X131200000Y-145340000D03*
X131148711Y-140590000D03*
X100768712Y-99201288D03*
%TO.N,/DIB_IRQ*%
X90290000Y-136663000D03*
%TO.N,/~{DIB_ALERT}*%
X93008400Y-139757000D03*
%TO.N,/~{DIB_RESET}*%
X123200000Y-140080000D03*
X88090000Y-94430000D03*
X123200000Y-142281300D03*
%TO.N,/DIB_SCLK*%
X87710000Y-138490000D03*
%TO.N,/DIB_USB_D-*%
X145040000Y-146250000D03*
%TO.N,+12V*%
X117300000Y-146480000D03*
X117300000Y-145730000D03*
%TO.N,/DIB_USB_D+*%
X144310000Y-146250000D03*
%TO.N,/~{DIB_FAULT}*%
X124200000Y-140060000D03*
X97470002Y-102080000D03*
X124200000Y-143210000D03*
%TO.N,/DIB_UART_RX*%
X97460000Y-90910000D03*
X136200000Y-145370000D03*
X136120000Y-140300000D03*
%TO.N,/DIB_MISO*%
X89310000Y-137340000D03*
%TD*%
D24*
%TO.N,+3V3*%
X70660000Y-104600000D02*
X68515000Y-104600000D01*
X68515000Y-104600000D02*
X67265000Y-103350000D01*
X71900000Y-103360000D02*
X70660000Y-104600000D01*
D25*
%TO.N,Net-(LED1-PadC)*%
X77345220Y-120020000D02*
X77345989Y-120020769D01*
X76022500Y-120020000D02*
X77345220Y-120020000D01*
%TO.N,/DIB_I2C_SCL*%
X92225230Y-139080000D02*
X92225230Y-107945230D01*
X69805000Y-88110000D02*
X72390000Y-88110000D01*
X72390000Y-88110000D02*
X92225230Y-107945230D01*
%TO.N,GND*%
X75685000Y-122225769D02*
X75690000Y-122230769D01*
X148197300Y-146894898D02*
X147750000Y-146447598D01*
X75735000Y-122275769D02*
X75690000Y-122230769D01*
X126200000Y-146447598D02*
X126200000Y-149000000D01*
X138197300Y-145400000D02*
X138197300Y-149000000D01*
D26*
X73450000Y-104000000D02*
X73470000Y-104020000D01*
D25*
X141197300Y-149000000D02*
X141197300Y-145554500D01*
X122200000Y-146459867D02*
X122211760Y-146448107D01*
X75685000Y-121520769D02*
X75685000Y-122225769D01*
D26*
X73450000Y-103360000D02*
X73450000Y-104000000D01*
D25*
X148197300Y-149000000D02*
X148197300Y-146894898D01*
X118200000Y-149000000D02*
X118200000Y-146295619D01*
X122200000Y-149000000D02*
X122200000Y-146459867D01*
X129197300Y-146447598D02*
X129197300Y-149000000D01*
X75735000Y-122980769D02*
X75735000Y-122275769D01*
X141197300Y-145554500D02*
X141361800Y-145390000D01*
%TO.N,/~{DIB_CSA}*%
X91090000Y-136200000D02*
X91090000Y-108400000D01*
X75880000Y-93190000D02*
X91090000Y-108400000D01*
X69805000Y-93190000D02*
X75880000Y-93190000D01*
%TO.N,/DIB_I2C_SDA*%
X87860000Y-89380000D02*
X125200000Y-126720000D01*
X125200000Y-143230000D02*
X125190000Y-143220000D01*
X125200000Y-149000000D02*
X125200000Y-143230000D01*
X125200000Y-126720000D02*
X125200000Y-140060000D01*
D27*
%TO.N,+5V*%
X74104231Y-122330769D02*
X74135000Y-122300000D01*
X71900000Y-112810000D02*
X71900000Y-110409362D01*
D25*
X74117500Y-121503269D02*
X74135000Y-121520769D01*
D27*
X70300000Y-124500000D02*
X70300000Y-123340000D01*
X71309231Y-122330769D02*
X74104231Y-122330769D01*
X69244362Y-110409362D02*
X67265000Y-108430000D01*
X74135000Y-121520769D02*
X74135000Y-137245000D01*
X73090769Y-121520769D02*
X74135000Y-121520769D01*
X71900000Y-112810000D02*
X71900000Y-120330000D01*
X71900000Y-110409362D02*
X69244362Y-110409362D01*
X71900000Y-120330000D02*
X73090769Y-121520769D01*
X74140000Y-137250000D02*
X74140000Y-138100000D01*
X71880000Y-110429362D02*
X71900000Y-110409362D01*
X70300000Y-123340000D02*
X71309231Y-122330769D01*
D25*
X74117500Y-120020000D02*
X74117500Y-121503269D01*
D27*
X74135000Y-137245000D02*
X74140000Y-137250000D01*
D25*
%TO.N,/DIB_OE_SYNC*%
X130197300Y-145327300D02*
X130190000Y-145320000D01*
X130190000Y-140610000D02*
X130190000Y-129460000D01*
X130190000Y-129460000D02*
X97660000Y-96930000D01*
X130197300Y-149000000D02*
X130197300Y-145327300D01*
X97660000Y-96930000D02*
X97660000Y-96900000D01*
%TO.N,/DIB_UART_TX*%
X135197300Y-149000000D02*
X135197300Y-145352700D01*
X135197300Y-145352700D02*
X135200000Y-145350000D01*
X135210000Y-129640000D02*
X135210000Y-140290000D01*
X97460000Y-91890000D02*
X135210000Y-129640000D01*
X135210000Y-140290000D02*
X135200000Y-140300000D01*
%TO.N,/DIB_MOSI*%
X88500000Y-137813000D02*
X88500000Y-110260000D01*
X79050000Y-100810000D02*
X88500000Y-110260000D01*
X69805000Y-100810000D02*
X79050000Y-100810000D01*
%TO.N,/AC_FREQ*%
X131148711Y-140590000D02*
X131148711Y-129531287D01*
X100793712Y-99176288D02*
X100768712Y-99201288D01*
X131197300Y-145342700D02*
X131200000Y-145340000D01*
X131197300Y-149000000D02*
X131197300Y-145342700D01*
X131148711Y-129531287D02*
X100793712Y-99176288D01*
%TO.N,/DIB_IRQ*%
X69805000Y-95730000D02*
X76860000Y-95730000D01*
X90290000Y-136663000D02*
X90290000Y-109160000D01*
X76860000Y-95730000D02*
X90290000Y-109160000D01*
%TO.N,/~{DIB_ALERT}*%
X93010000Y-139755400D02*
X93008400Y-139757000D01*
X71420000Y-85570000D02*
X93010000Y-107160000D01*
X69805000Y-85570000D02*
X71420000Y-85570000D01*
X93010000Y-107160000D02*
X93010000Y-139755400D01*
%TO.N,/~{DIB_RESET}*%
X123200000Y-128920000D02*
X88710000Y-94430000D01*
X123200000Y-149000000D02*
X123200000Y-142160000D01*
X123200000Y-140080000D02*
X123200000Y-128920000D01*
X88710000Y-94430000D02*
X88090000Y-94430000D01*
%TO.N,/DIB_SCLK*%
X87710000Y-138490000D02*
X87710000Y-110860000D01*
X69805000Y-103350000D02*
X70795000Y-102360000D01*
X79210000Y-102360000D02*
X87710000Y-110860000D01*
X70795000Y-102360000D02*
X79210000Y-102360000D01*
D28*
%TO.N,/DIB_USB_D-*%
X144827400Y-146037400D02*
X144827400Y-145301874D01*
X140863126Y-141337600D02*
X70943126Y-141337600D01*
X145040000Y-146250000D02*
X144827400Y-146037400D01*
X70943126Y-141337600D02*
X65882400Y-136276874D01*
X70000000Y-128132400D02*
X70300000Y-128432400D01*
X70300000Y-128432400D02*
X70300000Y-129000000D01*
X67773126Y-128132400D02*
X70000000Y-128132400D01*
X65882400Y-130023126D02*
X67773126Y-128132400D01*
X144827400Y-145301874D02*
X140863126Y-141337600D01*
X65882400Y-136276874D02*
X65882400Y-130023126D01*
D24*
%TO.N,+12V*%
X71900000Y-108466681D02*
X69841681Y-108466681D01*
X69841681Y-108466681D02*
X69805000Y-108430000D01*
D28*
%TO.N,/DIB_USB_D+*%
X70816874Y-141642400D02*
X140736874Y-141642400D01*
X144310000Y-146250000D02*
X144522600Y-146037400D01*
X143847315Y-145112053D02*
X143757512Y-145022250D01*
X143757511Y-144663038D02*
X143667711Y-144573237D01*
X70300000Y-127527600D02*
X70000000Y-127827600D01*
X144522600Y-146037400D02*
X144522600Y-145428126D01*
X65577600Y-136403126D02*
X70816874Y-141642400D01*
X144522600Y-145428126D02*
X144206527Y-145112053D01*
X141864897Y-142770423D02*
X143171272Y-144076798D01*
X140736874Y-141642400D02*
X141864897Y-142770423D01*
X143667711Y-144573237D02*
X143171272Y-144076798D01*
X70300000Y-127000000D02*
X70300000Y-127527600D01*
X65577600Y-129896874D02*
X65577600Y-136403126D01*
X70000000Y-127827600D02*
X67646874Y-127827600D01*
X67646874Y-127827600D02*
X65577600Y-129896874D01*
X143757511Y-144842644D02*
G75*
G03*
X143757552Y-144662997I-89811J89844D01*
G01*
X144026921Y-145112053D02*
G75*
G02*
X143847315Y-145112053I-89803J89805D01*
G01*
X143757512Y-145022250D02*
G75*
G02*
X143757464Y-144842598I89788J89850D01*
G01*
X144206527Y-145112053D02*
G75*
G03*
X144026921Y-145112053I-89803J-89798D01*
G01*
D25*
%TO.N,/~{DIB_FAULT}*%
X124200000Y-149000000D02*
X124200000Y-143210000D01*
X97470000Y-102080000D02*
X124200000Y-128810000D01*
X124200000Y-128810000D02*
X124200000Y-140060000D01*
%TO.N,/DIB_UART_RX*%
X136120000Y-129570000D02*
X136120000Y-140300000D01*
X136197300Y-149000000D02*
X136197300Y-145372700D01*
X97460000Y-90910000D02*
X136120000Y-129570000D01*
X136197300Y-145372700D02*
X136200000Y-145370000D01*
%TO.N,/DIB_MISO*%
X89310000Y-137340000D02*
X89310000Y-109570000D01*
X69805000Y-98270000D02*
X78010000Y-98270000D01*
X78010000Y-98270000D02*
X89310000Y-109570000D01*
%TD*%
%TA.AperFunction,Conductor*%
%TO.N,+3V3*%
G36*
X120126810Y-142801236D02*
G01*
X120221001Y-142816155D01*
X120250930Y-142825880D01*
X120328749Y-142865531D01*
X120354212Y-142884031D01*
X120415968Y-142945787D01*
X120434468Y-142971250D01*
X120474119Y-143049069D01*
X120483845Y-143079003D01*
X120498761Y-143173176D01*
X120500000Y-143188914D01*
X120500000Y-150711085D01*
X120498761Y-150726822D01*
X120498761Y-150726823D01*
X120483845Y-150820996D01*
X120474119Y-150850930D01*
X120434468Y-150928749D01*
X120415968Y-150954212D01*
X120354212Y-151015968D01*
X120328749Y-151034468D01*
X120250930Y-151074119D01*
X120220996Y-151083845D01*
X120144346Y-151095985D01*
X120126821Y-151098761D01*
X120111086Y-151100000D01*
X119288914Y-151100000D01*
X119273178Y-151098761D01*
X119252075Y-151095418D01*
X119179003Y-151083845D01*
X119149069Y-151074119D01*
X119071250Y-151034468D01*
X119045787Y-151015968D01*
X118984031Y-150954212D01*
X118965531Y-150928749D01*
X118925880Y-150850930D01*
X118916155Y-150821001D01*
X118901237Y-150726811D01*
X118900000Y-150711085D01*
X118900000Y-143188914D01*
X118901236Y-143173189D01*
X118916155Y-143078996D01*
X118925880Y-143049069D01*
X118965533Y-142971246D01*
X118984028Y-142945790D01*
X119045790Y-142884028D01*
X119071246Y-142865533D01*
X119149070Y-142825879D01*
X119178996Y-142816155D01*
X119273189Y-142801236D01*
X119288914Y-142800000D01*
X120111086Y-142800000D01*
X120126810Y-142801236D01*
G37*
%TD.AperFunction*%
%TD*%
M02*
