M48
; DRILL file {KiCad 9.0.7-9.0.7~ubuntu24.04.1} date 2026-03-03T17:56:54+0100
; FORMAT={-:-/ absolute / inch / decimal}
; #@! TF.CreationDate,2026-03-03T17:56:54+01:00
; #@! TF.GenerationSoftware,Kicad,Pcbnew,9.0.7-9.0.7~ubuntu24.04.1
; #@! TF.FileFunction,Plated,1,4,PTH
FMAT,2
INCH
; #@! TA.AperFunction,Plated,PTH,ViaDrill
T1C0.0118
; #@! TA.AperFunction,Plated,PTH,ComponentDrill
T2C0.0276
; #@! TA.AperFunction,Plated,PTH,ComponentDrill
T3C0.0433
; #@! TA.AperFunction,Plated,PTH,ComponentDrill
T4C0.0906
; #@! TA.AperFunction,Plated,PTH,ComponentDrill
T5C0.1260
%
G90
G05
T1
X2.8917Y-4.2961
X2.8921Y-4.3728
X2.8925Y-4.0953
X2.9189Y-5.4035
X2.9189Y-5.4374
X2.9799Y-4.8122
X3.1099Y-4.7512
X3.4531Y-5.4524
X3.4591Y-3.5189
X3.4681Y-3.7177
X3.4843Y-5.4257
X3.5161Y-5.4071
X3.5547Y-5.3804
X3.5862Y-5.3622
X3.6309Y-5.4756
X3.6617Y-5.5022
X3.837Y-3.5791
X3.837Y-3.6177
X3.8374Y-4.0189
X3.8449Y-3.815
X3.9673Y-3.9056
X4.6181Y-5.7374
X4.6181Y-5.7669
X4.6535Y-5.7597
X4.6973Y-5.6378
X4.7283Y-5.6383
X4.7677Y-5.7362
X4.7677Y-5.7638
X4.8115Y-5.7657
X4.8504Y-5.515
X4.8504Y-5.6016
X4.8898Y-5.5142
X4.8898Y-5.6382
X4.9287Y-5.6386
X4.9291Y-5.5142
X4.9685Y-5.7657
X5.0865Y-5.7657
X5.1256Y-5.5358
X5.1256Y-5.7213
X5.1633Y-5.535
X5.1654Y-5.722
X5.3228Y-5.5236
X5.3228Y-5.7224
X5.3591Y-5.5236
X5.3622Y-5.7232
X5.4408Y-5.7244
X5.5654Y-5.724
X5.6815Y-5.7579
X5.7102Y-5.7579
X5.8169Y-5.7657
T2
X2.7677Y-4.9016
X2.7677Y-5.0
X2.7677Y-5.0787
X2.7677Y-5.1772
X2.8268Y-4.8819
X2.8268Y-4.9606
X2.8268Y-5.0394
X2.8268Y-5.1181
X2.8268Y-5.1969
T3
X2.6482Y-3.3689
X2.6482Y-3.4689
X2.6482Y-3.5689
X2.6482Y-3.6689
X2.6482Y-3.7689
X2.6482Y-3.8689
X2.6482Y-3.9689
X2.6482Y-4.0689
X2.6482Y-4.1689
X2.6482Y-4.2689
X2.7482Y-3.3689
X2.7482Y-3.4689
X2.7482Y-3.5689
X2.7482Y-3.6689
X2.7482Y-3.7689
X2.7482Y-3.8689
X2.7482Y-3.9689
X2.7482Y-4.0689
X2.7482Y-4.1689
X2.7482Y-4.2689
T4
X2.689Y-4.7807
X2.689Y-5.298
T5
X2.7362Y-2.4803
X2.7362Y-5.7874
M30
