%TF.GenerationSoftware,KiCad,Pcbnew,10.0.3-10.0.3~ubuntu24.04.1*%
%TF.CreationDate,2026-05-25T14:32:56+02:00*%
%TF.ProjectId,DIB2 USB adapter,44494232-2055-4534-9220-616461707465,r1B2*%
%TF.SameCoordinates,Original*%
%TF.FileFunction,Legend,Top*%
%TF.FilePolarity,Positive*%
%FSLAX46Y46*%
G04 Gerber Fmt 4.6, Leading zero omitted, Abs format (unit mm)*
G04 Created by KiCad (PCBNEW 10.0.3-10.0.3~ubuntu24.04.1) date 2026-05-25 14:32:56*
%MOMM*%
%LPD*%
G01*
G04 APERTURE LIST*
%ADD10C,0.203200*%
%ADD11C,0.100000*%
%ADD12C,0.152400*%
%ADD13C,0.254000*%
%ADD14C,0.025400*%
%ADD15C,0.000000*%
%ADD16C,0.200000*%
%ADD17C,0.120000*%
G04 APERTURE END LIST*
D10*
X85605556Y-65591813D02*
X89750682Y-65591813D01*
X89750682Y-86291813D01*
X85605556Y-86291813D01*
X85605556Y-65591813D01*
D11*
X86306238Y-66331092D02*
X87206238Y-66331092D01*
X87206238Y-67231092D01*
X86306238Y-67231092D01*
X86306238Y-66331092D01*
G36*
X86306238Y-66331092D02*
G01*
X87206238Y-66331092D01*
X87206238Y-67231092D01*
X86306238Y-67231092D01*
X86306238Y-66331092D01*
G37*
X86306238Y-68366808D02*
X87206238Y-68366808D01*
X87206238Y-69266808D01*
X86306238Y-69266808D01*
X86306238Y-68366808D01*
G36*
X86306238Y-68366808D02*
G01*
X87206238Y-68366808D01*
X87206238Y-69266808D01*
X86306238Y-69266808D01*
X86306238Y-68366808D01*
G37*
X86306238Y-70402524D02*
X87206238Y-70402524D01*
X87206238Y-71302524D01*
X86306238Y-71302524D01*
X86306238Y-70402524D01*
G36*
X86306238Y-70402524D02*
G01*
X87206238Y-70402524D01*
X87206238Y-71302524D01*
X86306238Y-71302524D01*
X86306238Y-70402524D01*
G37*
X86306238Y-72438239D02*
X87206238Y-72438239D01*
X87206238Y-73338239D01*
X86306238Y-73338239D01*
X86306238Y-72438239D01*
G36*
X86306238Y-72438239D02*
G01*
X87206238Y-72438239D01*
X87206238Y-73338239D01*
X86306238Y-73338239D01*
X86306238Y-72438239D01*
G37*
X86306238Y-74473955D02*
X87206238Y-74473955D01*
X87206238Y-75373955D01*
X86306238Y-75373955D01*
X86306238Y-74473955D01*
G36*
X86306238Y-74473955D02*
G01*
X87206238Y-74473955D01*
X87206238Y-75373955D01*
X86306238Y-75373955D01*
X86306238Y-74473955D01*
G37*
X86306238Y-76509671D02*
X87206238Y-76509671D01*
X87206238Y-77409671D01*
X86306238Y-77409671D01*
X86306238Y-76509671D01*
G36*
X86306238Y-76509671D02*
G01*
X87206238Y-76509671D01*
X87206238Y-77409671D01*
X86306238Y-77409671D01*
X86306238Y-76509671D01*
G37*
X86306238Y-78545387D02*
X87206238Y-78545387D01*
X87206238Y-79445387D01*
X86306238Y-79445387D01*
X86306238Y-78545387D01*
G36*
X86306238Y-78545387D02*
G01*
X87206238Y-78545387D01*
X87206238Y-79445387D01*
X86306238Y-79445387D01*
X86306238Y-78545387D01*
G37*
X86306238Y-80581102D02*
X87206238Y-80581102D01*
X87206238Y-81481102D01*
X86306238Y-81481102D01*
X86306238Y-80581102D01*
G36*
X86306238Y-80581102D02*
G01*
X87206238Y-80581102D01*
X87206238Y-81481102D01*
X86306238Y-81481102D01*
X86306238Y-80581102D01*
G37*
X86306238Y-82616818D02*
X87206238Y-82616818D01*
X87206238Y-83516818D01*
X86306238Y-83516818D01*
X86306238Y-82616818D01*
G36*
X86306238Y-82616818D02*
G01*
X87206238Y-82616818D01*
X87206238Y-83516818D01*
X86306238Y-83516818D01*
X86306238Y-82616818D01*
G37*
X86306238Y-84652534D02*
X87206238Y-84652534D01*
X87206238Y-85552534D01*
X86306238Y-85552534D01*
X86306238Y-84652534D01*
G36*
X86306238Y-84652534D02*
G01*
X87206238Y-84652534D01*
X87206238Y-85552534D01*
X86306238Y-85552534D01*
X86306238Y-84652534D01*
G37*
X88150000Y-66331092D02*
X89050000Y-66331092D01*
X89050000Y-67231092D01*
X88150000Y-67231092D01*
X88150000Y-66331092D01*
G36*
X88150000Y-66331092D02*
G01*
X89050000Y-66331092D01*
X89050000Y-67231092D01*
X88150000Y-67231092D01*
X88150000Y-66331092D01*
G37*
X88150000Y-68366808D02*
X89050000Y-68366808D01*
X89050000Y-69266808D01*
X88150000Y-69266808D01*
X88150000Y-68366808D01*
G36*
X88150000Y-68366808D02*
G01*
X89050000Y-68366808D01*
X89050000Y-69266808D01*
X88150000Y-69266808D01*
X88150000Y-68366808D01*
G37*
X88150000Y-70402524D02*
X89050000Y-70402524D01*
X89050000Y-71302524D01*
X88150000Y-71302524D01*
X88150000Y-70402524D01*
G36*
X88150000Y-70402524D02*
G01*
X89050000Y-70402524D01*
X89050000Y-71302524D01*
X88150000Y-71302524D01*
X88150000Y-70402524D01*
G37*
X88150000Y-72438239D02*
X89050000Y-72438239D01*
X89050000Y-73338239D01*
X88150000Y-73338239D01*
X88150000Y-72438239D01*
G36*
X88150000Y-72438239D02*
G01*
X89050000Y-72438239D01*
X89050000Y-73338239D01*
X88150000Y-73338239D01*
X88150000Y-72438239D01*
G37*
X88150000Y-74473955D02*
X89050000Y-74473955D01*
X89050000Y-75373955D01*
X88150000Y-75373955D01*
X88150000Y-74473955D01*
G36*
X88150000Y-74473955D02*
G01*
X89050000Y-74473955D01*
X89050000Y-75373955D01*
X88150000Y-75373955D01*
X88150000Y-74473955D01*
G37*
X88150000Y-76509671D02*
X89050000Y-76509671D01*
X89050000Y-77409671D01*
X88150000Y-77409671D01*
X88150000Y-76509671D01*
G36*
X88150000Y-76509671D02*
G01*
X89050000Y-76509671D01*
X89050000Y-77409671D01*
X88150000Y-77409671D01*
X88150000Y-76509671D01*
G37*
X88150000Y-78545387D02*
X89050000Y-78545387D01*
X89050000Y-79445387D01*
X88150000Y-79445387D01*
X88150000Y-78545387D01*
G36*
X88150000Y-78545387D02*
G01*
X89050000Y-78545387D01*
X89050000Y-79445387D01*
X88150000Y-79445387D01*
X88150000Y-78545387D01*
G37*
X88150000Y-80581102D02*
X89050000Y-80581102D01*
X89050000Y-81481102D01*
X88150000Y-81481102D01*
X88150000Y-80581102D01*
G36*
X88150000Y-80581102D02*
G01*
X89050000Y-80581102D01*
X89050000Y-81481102D01*
X88150000Y-81481102D01*
X88150000Y-80581102D01*
G37*
X88150000Y-82616818D02*
X89050000Y-82616818D01*
X89050000Y-83516818D01*
X88150000Y-83516818D01*
X88150000Y-82616818D01*
G36*
X88150000Y-82616818D02*
G01*
X89050000Y-82616818D01*
X89050000Y-83516818D01*
X88150000Y-83516818D01*
X88150000Y-82616818D01*
G37*
X88150000Y-84652534D02*
X89050000Y-84652534D01*
X89050000Y-85552534D01*
X88150000Y-85552534D01*
X88150000Y-84652534D01*
G36*
X88150000Y-84652534D02*
G01*
X89050000Y-84652534D01*
X89050000Y-85552534D01*
X88150000Y-85552534D01*
X88150000Y-84652534D01*
G37*
D12*
X131592875Y-63526488D02*
X131973875Y-63526488D01*
X132137161Y-64125202D02*
X131592875Y-64125202D01*
X131592875Y-64125202D02*
X131592875Y-62982202D01*
X131592875Y-62982202D02*
X132137161Y-62982202D01*
X132627018Y-63526488D02*
X133008018Y-63526488D01*
X133171304Y-64125202D02*
X132627018Y-64125202D01*
X132627018Y-64125202D02*
X132627018Y-62982202D01*
X132627018Y-62982202D02*
X133171304Y-62982202D01*
X133552304Y-62982202D02*
X134314304Y-62982202D01*
X134314304Y-62982202D02*
X133552304Y-64125202D01*
X133552304Y-64125202D02*
X134314304Y-64125202D01*
X135620589Y-64125202D02*
X135620589Y-62982202D01*
X135620589Y-62982202D02*
X135892732Y-62982202D01*
X135892732Y-62982202D02*
X136056018Y-63036631D01*
X136056018Y-63036631D02*
X136164875Y-63145488D01*
X136164875Y-63145488D02*
X136219304Y-63254345D01*
X136219304Y-63254345D02*
X136273732Y-63472059D01*
X136273732Y-63472059D02*
X136273732Y-63635345D01*
X136273732Y-63635345D02*
X136219304Y-63853059D01*
X136219304Y-63853059D02*
X136164875Y-63961916D01*
X136164875Y-63961916D02*
X136056018Y-64070774D01*
X136056018Y-64070774D02*
X135892732Y-64125202D01*
X135892732Y-64125202D02*
X135620589Y-64125202D01*
X136763589Y-64125202D02*
X136763589Y-62982202D01*
X137688875Y-63526488D02*
X137852161Y-63580916D01*
X137852161Y-63580916D02*
X137906590Y-63635345D01*
X137906590Y-63635345D02*
X137961018Y-63744202D01*
X137961018Y-63744202D02*
X137961018Y-63907488D01*
X137961018Y-63907488D02*
X137906590Y-64016345D01*
X137906590Y-64016345D02*
X137852161Y-64070774D01*
X137852161Y-64070774D02*
X137743304Y-64125202D01*
X137743304Y-64125202D02*
X137307875Y-64125202D01*
X137307875Y-64125202D02*
X137307875Y-62982202D01*
X137307875Y-62982202D02*
X137688875Y-62982202D01*
X137688875Y-62982202D02*
X137797733Y-63036631D01*
X137797733Y-63036631D02*
X137852161Y-63091059D01*
X137852161Y-63091059D02*
X137906590Y-63199916D01*
X137906590Y-63199916D02*
X137906590Y-63308774D01*
X137906590Y-63308774D02*
X137852161Y-63417631D01*
X137852161Y-63417631D02*
X137797733Y-63472059D01*
X137797733Y-63472059D02*
X137688875Y-63526488D01*
X137688875Y-63526488D02*
X137307875Y-63526488D01*
X138396447Y-63091059D02*
X138450875Y-63036631D01*
X138450875Y-63036631D02*
X138559733Y-62982202D01*
X138559733Y-62982202D02*
X138831875Y-62982202D01*
X138831875Y-62982202D02*
X138940733Y-63036631D01*
X138940733Y-63036631D02*
X138995161Y-63091059D01*
X138995161Y-63091059D02*
X139049590Y-63199916D01*
X139049590Y-63199916D02*
X139049590Y-63308774D01*
X139049590Y-63308774D02*
X138995161Y-63472059D01*
X138995161Y-63472059D02*
X138342018Y-64125202D01*
X138342018Y-64125202D02*
X139049590Y-64125202D01*
X140355875Y-63798631D02*
X140900161Y-63798631D01*
X140247018Y-64125202D02*
X140628018Y-62982202D01*
X140628018Y-62982202D02*
X141009018Y-64125202D01*
X141879875Y-64125202D02*
X141879875Y-62982202D01*
X141879875Y-64070774D02*
X141771017Y-64125202D01*
X141771017Y-64125202D02*
X141553303Y-64125202D01*
X141553303Y-64125202D02*
X141444446Y-64070774D01*
X141444446Y-64070774D02*
X141390017Y-64016345D01*
X141390017Y-64016345D02*
X141335589Y-63907488D01*
X141335589Y-63907488D02*
X141335589Y-63580916D01*
X141335589Y-63580916D02*
X141390017Y-63472059D01*
X141390017Y-63472059D02*
X141444446Y-63417631D01*
X141444446Y-63417631D02*
X141553303Y-63363202D01*
X141553303Y-63363202D02*
X141771017Y-63363202D01*
X141771017Y-63363202D02*
X141879875Y-63417631D01*
X142914018Y-64125202D02*
X142914018Y-63526488D01*
X142914018Y-63526488D02*
X142859589Y-63417631D01*
X142859589Y-63417631D02*
X142750732Y-63363202D01*
X142750732Y-63363202D02*
X142533018Y-63363202D01*
X142533018Y-63363202D02*
X142424160Y-63417631D01*
X142914018Y-64070774D02*
X142805160Y-64125202D01*
X142805160Y-64125202D02*
X142533018Y-64125202D01*
X142533018Y-64125202D02*
X142424160Y-64070774D01*
X142424160Y-64070774D02*
X142369732Y-63961916D01*
X142369732Y-63961916D02*
X142369732Y-63853059D01*
X142369732Y-63853059D02*
X142424160Y-63744202D01*
X142424160Y-63744202D02*
X142533018Y-63689774D01*
X142533018Y-63689774D02*
X142805160Y-63689774D01*
X142805160Y-63689774D02*
X142914018Y-63635345D01*
X143458303Y-63363202D02*
X143458303Y-64506202D01*
X143458303Y-63417631D02*
X143567161Y-63363202D01*
X143567161Y-63363202D02*
X143784875Y-63363202D01*
X143784875Y-63363202D02*
X143893732Y-63417631D01*
X143893732Y-63417631D02*
X143948161Y-63472059D01*
X143948161Y-63472059D02*
X144002589Y-63580916D01*
X144002589Y-63580916D02*
X144002589Y-63907488D01*
X144002589Y-63907488D02*
X143948161Y-64016345D01*
X143948161Y-64016345D02*
X143893732Y-64070774D01*
X143893732Y-64070774D02*
X143784875Y-64125202D01*
X143784875Y-64125202D02*
X143567161Y-64125202D01*
X143567161Y-64125202D02*
X143458303Y-64070774D01*
X144329161Y-63363202D02*
X144764589Y-63363202D01*
X144492446Y-62982202D02*
X144492446Y-63961916D01*
X144492446Y-63961916D02*
X144546875Y-64070774D01*
X144546875Y-64070774D02*
X144655732Y-64125202D01*
X144655732Y-64125202D02*
X144764589Y-64125202D01*
X145581018Y-64070774D02*
X145472161Y-64125202D01*
X145472161Y-64125202D02*
X145254447Y-64125202D01*
X145254447Y-64125202D02*
X145145589Y-64070774D01*
X145145589Y-64070774D02*
X145091161Y-63961916D01*
X145091161Y-63961916D02*
X145091161Y-63526488D01*
X145091161Y-63526488D02*
X145145589Y-63417631D01*
X145145589Y-63417631D02*
X145254447Y-63363202D01*
X145254447Y-63363202D02*
X145472161Y-63363202D01*
X145472161Y-63363202D02*
X145581018Y-63417631D01*
X145581018Y-63417631D02*
X145635447Y-63526488D01*
X145635447Y-63526488D02*
X145635447Y-63635345D01*
X145635447Y-63635345D02*
X145091161Y-63744202D01*
X146125303Y-64125202D02*
X146125303Y-63363202D01*
X146125303Y-63580916D02*
X146179732Y-63472059D01*
X146179732Y-63472059D02*
X146234161Y-63417631D01*
X146234161Y-63417631D02*
X146343018Y-63363202D01*
X146343018Y-63363202D02*
X146451875Y-63363202D01*
X131919447Y-66400797D02*
X131865018Y-66346368D01*
X131865018Y-66346368D02*
X131756161Y-66183082D01*
X131756161Y-66183082D02*
X131701733Y-66074225D01*
X131701733Y-66074225D02*
X131647304Y-65910940D01*
X131647304Y-65910940D02*
X131592875Y-65638797D01*
X131592875Y-65638797D02*
X131592875Y-65421082D01*
X131592875Y-65421082D02*
X131647304Y-65148940D01*
X131647304Y-65148940D02*
X131701733Y-64985654D01*
X131701733Y-64985654D02*
X131756161Y-64876797D01*
X131756161Y-64876797D02*
X131865018Y-64713511D01*
X131865018Y-64713511D02*
X131919447Y-64659082D01*
X132572590Y-64822368D02*
X132681447Y-64822368D01*
X132681447Y-64822368D02*
X132790304Y-64876797D01*
X132790304Y-64876797D02*
X132844733Y-64931225D01*
X132844733Y-64931225D02*
X132899161Y-65040082D01*
X132899161Y-65040082D02*
X132953590Y-65257797D01*
X132953590Y-65257797D02*
X132953590Y-65529940D01*
X132953590Y-65529940D02*
X132899161Y-65747654D01*
X132899161Y-65747654D02*
X132844733Y-65856511D01*
X132844733Y-65856511D02*
X132790304Y-65910940D01*
X132790304Y-65910940D02*
X132681447Y-65965368D01*
X132681447Y-65965368D02*
X132572590Y-65965368D01*
X132572590Y-65965368D02*
X132463733Y-65910940D01*
X132463733Y-65910940D02*
X132409304Y-65856511D01*
X132409304Y-65856511D02*
X132354875Y-65747654D01*
X132354875Y-65747654D02*
X132300447Y-65529940D01*
X132300447Y-65529940D02*
X132300447Y-65257797D01*
X132300447Y-65257797D02*
X132354875Y-65040082D01*
X132354875Y-65040082D02*
X132409304Y-64931225D01*
X132409304Y-64931225D02*
X132463733Y-64876797D01*
X132463733Y-64876797D02*
X132572590Y-64822368D01*
X133933304Y-64822368D02*
X133715589Y-64822368D01*
X133715589Y-64822368D02*
X133606732Y-64876797D01*
X133606732Y-64876797D02*
X133552304Y-64931225D01*
X133552304Y-64931225D02*
X133443446Y-65094511D01*
X133443446Y-65094511D02*
X133389018Y-65312225D01*
X133389018Y-65312225D02*
X133389018Y-65747654D01*
X133389018Y-65747654D02*
X133443446Y-65856511D01*
X133443446Y-65856511D02*
X133497875Y-65910940D01*
X133497875Y-65910940D02*
X133606732Y-65965368D01*
X133606732Y-65965368D02*
X133824446Y-65965368D01*
X133824446Y-65965368D02*
X133933304Y-65910940D01*
X133933304Y-65910940D02*
X133987732Y-65856511D01*
X133987732Y-65856511D02*
X134042161Y-65747654D01*
X134042161Y-65747654D02*
X134042161Y-65475511D01*
X134042161Y-65475511D02*
X133987732Y-65366654D01*
X133987732Y-65366654D02*
X133933304Y-65312225D01*
X133933304Y-65312225D02*
X133824446Y-65257797D01*
X133824446Y-65257797D02*
X133606732Y-65257797D01*
X133606732Y-65257797D02*
X133497875Y-65312225D01*
X133497875Y-65312225D02*
X133443446Y-65366654D01*
X133443446Y-65366654D02*
X133389018Y-65475511D01*
X135348446Y-64767940D02*
X134368732Y-66237511D01*
X135675018Y-64931225D02*
X135729446Y-64876797D01*
X135729446Y-64876797D02*
X135838304Y-64822368D01*
X135838304Y-64822368D02*
X136110446Y-64822368D01*
X136110446Y-64822368D02*
X136219304Y-64876797D01*
X136219304Y-64876797D02*
X136273732Y-64931225D01*
X136273732Y-64931225D02*
X136328161Y-65040082D01*
X136328161Y-65040082D02*
X136328161Y-65148940D01*
X136328161Y-65148940D02*
X136273732Y-65312225D01*
X136273732Y-65312225D02*
X135620589Y-65965368D01*
X135620589Y-65965368D02*
X136328161Y-65965368D01*
X137035732Y-64822368D02*
X137144589Y-64822368D01*
X137144589Y-64822368D02*
X137253446Y-64876797D01*
X137253446Y-64876797D02*
X137307875Y-64931225D01*
X137307875Y-64931225D02*
X137362303Y-65040082D01*
X137362303Y-65040082D02*
X137416732Y-65257797D01*
X137416732Y-65257797D02*
X137416732Y-65529940D01*
X137416732Y-65529940D02*
X137362303Y-65747654D01*
X137362303Y-65747654D02*
X137307875Y-65856511D01*
X137307875Y-65856511D02*
X137253446Y-65910940D01*
X137253446Y-65910940D02*
X137144589Y-65965368D01*
X137144589Y-65965368D02*
X137035732Y-65965368D01*
X137035732Y-65965368D02*
X136926875Y-65910940D01*
X136926875Y-65910940D02*
X136872446Y-65856511D01*
X136872446Y-65856511D02*
X136818017Y-65747654D01*
X136818017Y-65747654D02*
X136763589Y-65529940D01*
X136763589Y-65529940D02*
X136763589Y-65257797D01*
X136763589Y-65257797D02*
X136818017Y-65040082D01*
X136818017Y-65040082D02*
X136872446Y-64931225D01*
X136872446Y-64931225D02*
X136926875Y-64876797D01*
X136926875Y-64876797D02*
X137035732Y-64822368D01*
X137852160Y-64931225D02*
X137906588Y-64876797D01*
X137906588Y-64876797D02*
X138015446Y-64822368D01*
X138015446Y-64822368D02*
X138287588Y-64822368D01*
X138287588Y-64822368D02*
X138396446Y-64876797D01*
X138396446Y-64876797D02*
X138450874Y-64931225D01*
X138450874Y-64931225D02*
X138505303Y-65040082D01*
X138505303Y-65040082D02*
X138505303Y-65148940D01*
X138505303Y-65148940D02*
X138450874Y-65312225D01*
X138450874Y-65312225D02*
X137797731Y-65965368D01*
X137797731Y-65965368D02*
X138505303Y-65965368D01*
X139485017Y-64822368D02*
X139267302Y-64822368D01*
X139267302Y-64822368D02*
X139158445Y-64876797D01*
X139158445Y-64876797D02*
X139104017Y-64931225D01*
X139104017Y-64931225D02*
X138995159Y-65094511D01*
X138995159Y-65094511D02*
X138940731Y-65312225D01*
X138940731Y-65312225D02*
X138940731Y-65747654D01*
X138940731Y-65747654D02*
X138995159Y-65856511D01*
X138995159Y-65856511D02*
X139049588Y-65910940D01*
X139049588Y-65910940D02*
X139158445Y-65965368D01*
X139158445Y-65965368D02*
X139376159Y-65965368D01*
X139376159Y-65965368D02*
X139485017Y-65910940D01*
X139485017Y-65910940D02*
X139539445Y-65856511D01*
X139539445Y-65856511D02*
X139593874Y-65747654D01*
X139593874Y-65747654D02*
X139593874Y-65475511D01*
X139593874Y-65475511D02*
X139539445Y-65366654D01*
X139539445Y-65366654D02*
X139485017Y-65312225D01*
X139485017Y-65312225D02*
X139376159Y-65257797D01*
X139376159Y-65257797D02*
X139158445Y-65257797D01*
X139158445Y-65257797D02*
X139049588Y-65312225D01*
X139049588Y-65312225D02*
X138995159Y-65366654D01*
X138995159Y-65366654D02*
X138940731Y-65475511D01*
X140954587Y-65965368D02*
X140954587Y-65203368D01*
X140954587Y-65421082D02*
X141009016Y-65312225D01*
X141009016Y-65312225D02*
X141063445Y-65257797D01*
X141063445Y-65257797D02*
X141172302Y-65203368D01*
X141172302Y-65203368D02*
X141281159Y-65203368D01*
X142260873Y-65965368D02*
X141607730Y-65965368D01*
X141934301Y-65965368D02*
X141934301Y-64822368D01*
X141934301Y-64822368D02*
X141825444Y-64985654D01*
X141825444Y-64985654D02*
X141716587Y-65094511D01*
X141716587Y-65094511D02*
X141607730Y-65148940D01*
X143131729Y-65366654D02*
X143295015Y-65421082D01*
X143295015Y-65421082D02*
X143349444Y-65475511D01*
X143349444Y-65475511D02*
X143403872Y-65584368D01*
X143403872Y-65584368D02*
X143403872Y-65747654D01*
X143403872Y-65747654D02*
X143349444Y-65856511D01*
X143349444Y-65856511D02*
X143295015Y-65910940D01*
X143295015Y-65910940D02*
X143186158Y-65965368D01*
X143186158Y-65965368D02*
X142750729Y-65965368D01*
X142750729Y-65965368D02*
X142750729Y-64822368D01*
X142750729Y-64822368D02*
X143131729Y-64822368D01*
X143131729Y-64822368D02*
X143240587Y-64876797D01*
X143240587Y-64876797D02*
X143295015Y-64931225D01*
X143295015Y-64931225D02*
X143349444Y-65040082D01*
X143349444Y-65040082D02*
X143349444Y-65148940D01*
X143349444Y-65148940D02*
X143295015Y-65257797D01*
X143295015Y-65257797D02*
X143240587Y-65312225D01*
X143240587Y-65312225D02*
X143131729Y-65366654D01*
X143131729Y-65366654D02*
X142750729Y-65366654D01*
X143839301Y-64931225D02*
X143893729Y-64876797D01*
X143893729Y-64876797D02*
X144002587Y-64822368D01*
X144002587Y-64822368D02*
X144274729Y-64822368D01*
X144274729Y-64822368D02*
X144383587Y-64876797D01*
X144383587Y-64876797D02*
X144438015Y-64931225D01*
X144438015Y-64931225D02*
X144492444Y-65040082D01*
X144492444Y-65040082D02*
X144492444Y-65148940D01*
X144492444Y-65148940D02*
X144438015Y-65312225D01*
X144438015Y-65312225D02*
X143784872Y-65965368D01*
X143784872Y-65965368D02*
X144492444Y-65965368D01*
X144873443Y-66400797D02*
X144927872Y-66346368D01*
X144927872Y-66346368D02*
X145036729Y-66183082D01*
X145036729Y-66183082D02*
X145091158Y-66074225D01*
X145091158Y-66074225D02*
X145145586Y-65910940D01*
X145145586Y-65910940D02*
X145200015Y-65638797D01*
X145200015Y-65638797D02*
X145200015Y-65421082D01*
X145200015Y-65421082D02*
X145145586Y-65148940D01*
X145145586Y-65148940D02*
X145091158Y-64985654D01*
X145091158Y-64985654D02*
X145036729Y-64876797D01*
X145036729Y-64876797D02*
X144927872Y-64713511D01*
X144927872Y-64713511D02*
X144873443Y-64659082D01*
D13*
X91434724Y-67329707D02*
X90709009Y-67329707D01*
X91071866Y-67329707D02*
X91071866Y-66059707D01*
X91071866Y-66059707D02*
X90950914Y-66241135D01*
X90950914Y-66241135D02*
X90829962Y-66362088D01*
X90829962Y-66362088D02*
X90709009Y-66422564D01*
X92039486Y-67329707D02*
X92281390Y-67329707D01*
X92281390Y-67329707D02*
X92402343Y-67269231D01*
X92402343Y-67269231D02*
X92462819Y-67208754D01*
X92462819Y-67208754D02*
X92583771Y-67027326D01*
X92583771Y-67027326D02*
X92644248Y-66785421D01*
X92644248Y-66785421D02*
X92644248Y-66301611D01*
X92644248Y-66301611D02*
X92583771Y-66180659D01*
X92583771Y-66180659D02*
X92523295Y-66120183D01*
X92523295Y-66120183D02*
X92402343Y-66059707D01*
X92402343Y-66059707D02*
X92160438Y-66059707D01*
X92160438Y-66059707D02*
X92039486Y-66120183D01*
X92039486Y-66120183D02*
X91979009Y-66180659D01*
X91979009Y-66180659D02*
X91918533Y-66301611D01*
X91918533Y-66301611D02*
X91918533Y-66603992D01*
X91918533Y-66603992D02*
X91979009Y-66724945D01*
X91979009Y-66724945D02*
X92039486Y-66785421D01*
X92039486Y-66785421D02*
X92160438Y-66845897D01*
X92160438Y-66845897D02*
X92402343Y-66845897D01*
X92402343Y-66845897D02*
X92523295Y-66785421D01*
X92523295Y-66785421D02*
X92583771Y-66724945D01*
X92583771Y-66724945D02*
X92644248Y-66603992D01*
X94095676Y-66966850D02*
X94700438Y-66966850D01*
X93974724Y-67329707D02*
X94398057Y-66059707D01*
X94398057Y-66059707D02*
X94821391Y-67329707D01*
X95849485Y-67329707D02*
X95244723Y-67329707D01*
X95244723Y-67329707D02*
X95244723Y-66059707D01*
X96272818Y-66664469D02*
X96696152Y-66664469D01*
X96877580Y-67329707D02*
X96272818Y-67329707D01*
X96272818Y-67329707D02*
X96272818Y-66059707D01*
X96272818Y-66059707D02*
X96877580Y-66059707D01*
X98147581Y-67329707D02*
X97724247Y-66724945D01*
X97421866Y-67329707D02*
X97421866Y-66059707D01*
X97421866Y-66059707D02*
X97905676Y-66059707D01*
X97905676Y-66059707D02*
X98026628Y-66120183D01*
X98026628Y-66120183D02*
X98087105Y-66180659D01*
X98087105Y-66180659D02*
X98147581Y-66301611D01*
X98147581Y-66301611D02*
X98147581Y-66483040D01*
X98147581Y-66483040D02*
X98087105Y-66603992D01*
X98087105Y-66603992D02*
X98026628Y-66664469D01*
X98026628Y-66664469D02*
X97905676Y-66724945D01*
X97905676Y-66724945D02*
X97421866Y-66724945D01*
X98510438Y-66059707D02*
X99236152Y-66059707D01*
X98873295Y-67329707D02*
X98873295Y-66059707D01*
X93980772Y-65707131D02*
X99230105Y-65707131D01*
X91434724Y-69374336D02*
X90709009Y-69374336D01*
X91071866Y-69374336D02*
X91071866Y-68104336D01*
X91071866Y-68104336D02*
X90950914Y-68285764D01*
X90950914Y-68285764D02*
X90829962Y-68406717D01*
X90829962Y-68406717D02*
X90709009Y-68467193D01*
X91858057Y-68104336D02*
X92704724Y-68104336D01*
X92704724Y-68104336D02*
X92160438Y-69374336D01*
X94156152Y-69374336D02*
X94156152Y-68104336D01*
X94700438Y-68225288D02*
X94760914Y-68164812D01*
X94760914Y-68164812D02*
X94881867Y-68104336D01*
X94881867Y-68104336D02*
X95184248Y-68104336D01*
X95184248Y-68104336D02*
X95305200Y-68164812D01*
X95305200Y-68164812D02*
X95365676Y-68225288D01*
X95365676Y-68225288D02*
X95426153Y-68346240D01*
X95426153Y-68346240D02*
X95426153Y-68467193D01*
X95426153Y-68467193D02*
X95365676Y-68648621D01*
X95365676Y-68648621D02*
X94639962Y-69374336D01*
X94639962Y-69374336D02*
X95426153Y-69374336D01*
X96696153Y-69253383D02*
X96635677Y-69313860D01*
X96635677Y-69313860D02*
X96454248Y-69374336D01*
X96454248Y-69374336D02*
X96333296Y-69374336D01*
X96333296Y-69374336D02*
X96151867Y-69313860D01*
X96151867Y-69313860D02*
X96030915Y-69192907D01*
X96030915Y-69192907D02*
X95970438Y-69071955D01*
X95970438Y-69071955D02*
X95909962Y-68830050D01*
X95909962Y-68830050D02*
X95909962Y-68648621D01*
X95909962Y-68648621D02*
X95970438Y-68406717D01*
X95970438Y-68406717D02*
X96030915Y-68285764D01*
X96030915Y-68285764D02*
X96151867Y-68164812D01*
X96151867Y-68164812D02*
X96333296Y-68104336D01*
X96333296Y-68104336D02*
X96454248Y-68104336D01*
X96454248Y-68104336D02*
X96635677Y-68164812D01*
X96635677Y-68164812D02*
X96696153Y-68225288D01*
X98147581Y-69313860D02*
X98329010Y-69374336D01*
X98329010Y-69374336D02*
X98631391Y-69374336D01*
X98631391Y-69374336D02*
X98752343Y-69313860D01*
X98752343Y-69313860D02*
X98812819Y-69253383D01*
X98812819Y-69253383D02*
X98873296Y-69132431D01*
X98873296Y-69132431D02*
X98873296Y-69011479D01*
X98873296Y-69011479D02*
X98812819Y-68890526D01*
X98812819Y-68890526D02*
X98752343Y-68830050D01*
X98752343Y-68830050D02*
X98631391Y-68769574D01*
X98631391Y-68769574D02*
X98389486Y-68709098D01*
X98389486Y-68709098D02*
X98268534Y-68648621D01*
X98268534Y-68648621D02*
X98208057Y-68588145D01*
X98208057Y-68588145D02*
X98147581Y-68467193D01*
X98147581Y-68467193D02*
X98147581Y-68346240D01*
X98147581Y-68346240D02*
X98208057Y-68225288D01*
X98208057Y-68225288D02*
X98268534Y-68164812D01*
X98268534Y-68164812D02*
X98389486Y-68104336D01*
X98389486Y-68104336D02*
X98691867Y-68104336D01*
X98691867Y-68104336D02*
X98873296Y-68164812D01*
X100143296Y-69253383D02*
X100082820Y-69313860D01*
X100082820Y-69313860D02*
X99901391Y-69374336D01*
X99901391Y-69374336D02*
X99780439Y-69374336D01*
X99780439Y-69374336D02*
X99599010Y-69313860D01*
X99599010Y-69313860D02*
X99478058Y-69192907D01*
X99478058Y-69192907D02*
X99417581Y-69071955D01*
X99417581Y-69071955D02*
X99357105Y-68830050D01*
X99357105Y-68830050D02*
X99357105Y-68648621D01*
X99357105Y-68648621D02*
X99417581Y-68406717D01*
X99417581Y-68406717D02*
X99478058Y-68285764D01*
X99478058Y-68285764D02*
X99599010Y-68164812D01*
X99599010Y-68164812D02*
X99780439Y-68104336D01*
X99780439Y-68104336D02*
X99901391Y-68104336D01*
X99901391Y-68104336D02*
X100082820Y-68164812D01*
X100082820Y-68164812D02*
X100143296Y-68225288D01*
X101292343Y-69374336D02*
X100687581Y-69374336D01*
X100687581Y-69374336D02*
X100687581Y-68104336D01*
X91434724Y-71418965D02*
X90709009Y-71418965D01*
X91071866Y-71418965D02*
X91071866Y-70148965D01*
X91071866Y-70148965D02*
X90950914Y-70330393D01*
X90950914Y-70330393D02*
X90829962Y-70451346D01*
X90829962Y-70451346D02*
X90709009Y-70511822D01*
X92583771Y-70148965D02*
X91979009Y-70148965D01*
X91979009Y-70148965D02*
X91918533Y-70753727D01*
X91918533Y-70753727D02*
X91979009Y-70693250D01*
X91979009Y-70693250D02*
X92099962Y-70632774D01*
X92099962Y-70632774D02*
X92402343Y-70632774D01*
X92402343Y-70632774D02*
X92523295Y-70693250D01*
X92523295Y-70693250D02*
X92583771Y-70753727D01*
X92583771Y-70753727D02*
X92644248Y-70874679D01*
X92644248Y-70874679D02*
X92644248Y-71177060D01*
X92644248Y-71177060D02*
X92583771Y-71298012D01*
X92583771Y-71298012D02*
X92523295Y-71358489D01*
X92523295Y-71358489D02*
X92402343Y-71418965D01*
X92402343Y-71418965D02*
X92099962Y-71418965D01*
X92099962Y-71418965D02*
X91979009Y-71358489D01*
X91979009Y-71358489D02*
X91918533Y-71298012D01*
X94156152Y-70148965D02*
X94156152Y-71177060D01*
X94156152Y-71177060D02*
X94216629Y-71298012D01*
X94216629Y-71298012D02*
X94277105Y-71358489D01*
X94277105Y-71358489D02*
X94398057Y-71418965D01*
X94398057Y-71418965D02*
X94639962Y-71418965D01*
X94639962Y-71418965D02*
X94760914Y-71358489D01*
X94760914Y-71358489D02*
X94821391Y-71298012D01*
X94821391Y-71298012D02*
X94881867Y-71177060D01*
X94881867Y-71177060D02*
X94881867Y-70148965D01*
X95426152Y-71056108D02*
X96030914Y-71056108D01*
X95305200Y-71418965D02*
X95728533Y-70148965D01*
X95728533Y-70148965D02*
X96151867Y-71418965D01*
X97300914Y-71418965D02*
X96877580Y-70814203D01*
X96575199Y-71418965D02*
X96575199Y-70148965D01*
X96575199Y-70148965D02*
X97059009Y-70148965D01*
X97059009Y-70148965D02*
X97179961Y-70209441D01*
X97179961Y-70209441D02*
X97240438Y-70269917D01*
X97240438Y-70269917D02*
X97300914Y-70390869D01*
X97300914Y-70390869D02*
X97300914Y-70572298D01*
X97300914Y-70572298D02*
X97240438Y-70693250D01*
X97240438Y-70693250D02*
X97179961Y-70753727D01*
X97179961Y-70753727D02*
X97059009Y-70814203D01*
X97059009Y-70814203D02*
X96575199Y-70814203D01*
X97663771Y-70148965D02*
X98389485Y-70148965D01*
X98026628Y-71418965D02*
X98026628Y-70148965D01*
X100506152Y-71418965D02*
X100082818Y-70814203D01*
X99780437Y-71418965D02*
X99780437Y-70148965D01*
X99780437Y-70148965D02*
X100264247Y-70148965D01*
X100264247Y-70148965D02*
X100385199Y-70209441D01*
X100385199Y-70209441D02*
X100445676Y-70269917D01*
X100445676Y-70269917D02*
X100506152Y-70390869D01*
X100506152Y-70390869D02*
X100506152Y-70572298D01*
X100506152Y-70572298D02*
X100445676Y-70693250D01*
X100445676Y-70693250D02*
X100385199Y-70753727D01*
X100385199Y-70753727D02*
X100264247Y-70814203D01*
X100264247Y-70814203D02*
X99780437Y-70814203D01*
X100929485Y-70148965D02*
X101776152Y-71418965D01*
X101776152Y-70148965D02*
X100929485Y-71418965D01*
X91434724Y-73463594D02*
X90709009Y-73463594D01*
X91071866Y-73463594D02*
X91071866Y-72193594D01*
X91071866Y-72193594D02*
X90950914Y-72375022D01*
X90950914Y-72375022D02*
X90829962Y-72495975D01*
X90829962Y-72495975D02*
X90709009Y-72556451D01*
X91858057Y-72193594D02*
X92644248Y-72193594D01*
X92644248Y-72193594D02*
X92220914Y-72677403D01*
X92220914Y-72677403D02*
X92402343Y-72677403D01*
X92402343Y-72677403D02*
X92523295Y-72737879D01*
X92523295Y-72737879D02*
X92583771Y-72798356D01*
X92583771Y-72798356D02*
X92644248Y-72919308D01*
X92644248Y-72919308D02*
X92644248Y-73221689D01*
X92644248Y-73221689D02*
X92583771Y-73342641D01*
X92583771Y-73342641D02*
X92523295Y-73403118D01*
X92523295Y-73403118D02*
X92402343Y-73463594D01*
X92402343Y-73463594D02*
X92039486Y-73463594D01*
X92039486Y-73463594D02*
X91918533Y-73403118D01*
X91918533Y-73403118D02*
X91858057Y-73342641D01*
X94881867Y-73342641D02*
X94821391Y-73403118D01*
X94821391Y-73403118D02*
X94639962Y-73463594D01*
X94639962Y-73463594D02*
X94519010Y-73463594D01*
X94519010Y-73463594D02*
X94337581Y-73403118D01*
X94337581Y-73403118D02*
X94216629Y-73282165D01*
X94216629Y-73282165D02*
X94156152Y-73161213D01*
X94156152Y-73161213D02*
X94095676Y-72919308D01*
X94095676Y-72919308D02*
X94095676Y-72737879D01*
X94095676Y-72737879D02*
X94156152Y-72495975D01*
X94156152Y-72495975D02*
X94216629Y-72375022D01*
X94216629Y-72375022D02*
X94337581Y-72254070D01*
X94337581Y-72254070D02*
X94519010Y-72193594D01*
X94519010Y-72193594D02*
X94639962Y-72193594D01*
X94639962Y-72193594D02*
X94821391Y-72254070D01*
X94821391Y-72254070D02*
X94881867Y-72314546D01*
X95365676Y-73403118D02*
X95547105Y-73463594D01*
X95547105Y-73463594D02*
X95849486Y-73463594D01*
X95849486Y-73463594D02*
X95970438Y-73403118D01*
X95970438Y-73403118D02*
X96030914Y-73342641D01*
X96030914Y-73342641D02*
X96091391Y-73221689D01*
X96091391Y-73221689D02*
X96091391Y-73100737D01*
X96091391Y-73100737D02*
X96030914Y-72979784D01*
X96030914Y-72979784D02*
X95970438Y-72919308D01*
X95970438Y-72919308D02*
X95849486Y-72858832D01*
X95849486Y-72858832D02*
X95607581Y-72798356D01*
X95607581Y-72798356D02*
X95486629Y-72737879D01*
X95486629Y-72737879D02*
X95426152Y-72677403D01*
X95426152Y-72677403D02*
X95365676Y-72556451D01*
X95365676Y-72556451D02*
X95365676Y-72435498D01*
X95365676Y-72435498D02*
X95426152Y-72314546D01*
X95426152Y-72314546D02*
X95486629Y-72254070D01*
X95486629Y-72254070D02*
X95607581Y-72193594D01*
X95607581Y-72193594D02*
X95909962Y-72193594D01*
X95909962Y-72193594D02*
X96091391Y-72254070D01*
X96575200Y-73100737D02*
X97179962Y-73100737D01*
X96454248Y-73463594D02*
X96877581Y-72193594D01*
X96877581Y-72193594D02*
X97300915Y-73463594D01*
X93980772Y-71841018D02*
X97294867Y-71841018D01*
X91434724Y-75508223D02*
X90709009Y-75508223D01*
X91071866Y-75508223D02*
X91071866Y-74238223D01*
X91071866Y-74238223D02*
X90950914Y-74419651D01*
X90950914Y-74419651D02*
X90829962Y-74540604D01*
X90829962Y-74540604D02*
X90709009Y-74601080D01*
X92644248Y-75508223D02*
X91918533Y-75508223D01*
X92281390Y-75508223D02*
X92281390Y-74238223D01*
X92281390Y-74238223D02*
X92160438Y-74419651D01*
X92160438Y-74419651D02*
X92039486Y-74540604D01*
X92039486Y-74540604D02*
X91918533Y-74601080D01*
X94156152Y-75508223D02*
X94156152Y-74238223D01*
X95486629Y-75508223D02*
X95063295Y-74903461D01*
X94760914Y-75508223D02*
X94760914Y-74238223D01*
X94760914Y-74238223D02*
X95244724Y-74238223D01*
X95244724Y-74238223D02*
X95365676Y-74298699D01*
X95365676Y-74298699D02*
X95426153Y-74359175D01*
X95426153Y-74359175D02*
X95486629Y-74480127D01*
X95486629Y-74480127D02*
X95486629Y-74661556D01*
X95486629Y-74661556D02*
X95426153Y-74782508D01*
X95426153Y-74782508D02*
X95365676Y-74842985D01*
X95365676Y-74842985D02*
X95244724Y-74903461D01*
X95244724Y-74903461D02*
X94760914Y-74903461D01*
X96877581Y-75629175D02*
X96756629Y-75568699D01*
X96756629Y-75568699D02*
X96635676Y-75447747D01*
X96635676Y-75447747D02*
X96454248Y-75266318D01*
X96454248Y-75266318D02*
X96333295Y-75205842D01*
X96333295Y-75205842D02*
X96212343Y-75205842D01*
X96272819Y-75508223D02*
X96151867Y-75447747D01*
X96151867Y-75447747D02*
X96030914Y-75326794D01*
X96030914Y-75326794D02*
X95970438Y-75084889D01*
X95970438Y-75084889D02*
X95970438Y-74661556D01*
X95970438Y-74661556D02*
X96030914Y-74419651D01*
X96030914Y-74419651D02*
X96151867Y-74298699D01*
X96151867Y-74298699D02*
X96272819Y-74238223D01*
X96272819Y-74238223D02*
X96514724Y-74238223D01*
X96514724Y-74238223D02*
X96635676Y-74298699D01*
X96635676Y-74298699D02*
X96756629Y-74419651D01*
X96756629Y-74419651D02*
X96817105Y-74661556D01*
X96817105Y-74661556D02*
X96817105Y-75084889D01*
X96817105Y-75084889D02*
X96756629Y-75326794D01*
X96756629Y-75326794D02*
X96635676Y-75447747D01*
X96635676Y-75447747D02*
X96514724Y-75508223D01*
X96514724Y-75508223D02*
X96272819Y-75508223D01*
X93980772Y-73885647D02*
X96932010Y-73885647D01*
X90829962Y-77552852D02*
X91071866Y-77552852D01*
X91071866Y-77552852D02*
X91192819Y-77492376D01*
X91192819Y-77492376D02*
X91253295Y-77431899D01*
X91253295Y-77431899D02*
X91374247Y-77250471D01*
X91374247Y-77250471D02*
X91434724Y-77008566D01*
X91434724Y-77008566D02*
X91434724Y-76524756D01*
X91434724Y-76524756D02*
X91374247Y-76403804D01*
X91374247Y-76403804D02*
X91313771Y-76343328D01*
X91313771Y-76343328D02*
X91192819Y-76282852D01*
X91192819Y-76282852D02*
X90950914Y-76282852D01*
X90950914Y-76282852D02*
X90829962Y-76343328D01*
X90829962Y-76343328D02*
X90769485Y-76403804D01*
X90769485Y-76403804D02*
X90709009Y-76524756D01*
X90709009Y-76524756D02*
X90709009Y-76827137D01*
X90709009Y-76827137D02*
X90769485Y-76948090D01*
X90769485Y-76948090D02*
X90829962Y-77008566D01*
X90829962Y-77008566D02*
X90950914Y-77069042D01*
X90950914Y-77069042D02*
X91192819Y-77069042D01*
X91192819Y-77069042D02*
X91313771Y-77008566D01*
X91313771Y-77008566D02*
X91374247Y-76948090D01*
X91374247Y-76948090D02*
X91434724Y-76827137D01*
X92886152Y-77492376D02*
X93067581Y-77552852D01*
X93067581Y-77552852D02*
X93369962Y-77552852D01*
X93369962Y-77552852D02*
X93490914Y-77492376D01*
X93490914Y-77492376D02*
X93551390Y-77431899D01*
X93551390Y-77431899D02*
X93611867Y-77310947D01*
X93611867Y-77310947D02*
X93611867Y-77189995D01*
X93611867Y-77189995D02*
X93551390Y-77069042D01*
X93551390Y-77069042D02*
X93490914Y-77008566D01*
X93490914Y-77008566D02*
X93369962Y-76948090D01*
X93369962Y-76948090D02*
X93128057Y-76887614D01*
X93128057Y-76887614D02*
X93007105Y-76827137D01*
X93007105Y-76827137D02*
X92946628Y-76766661D01*
X92946628Y-76766661D02*
X92886152Y-76645709D01*
X92886152Y-76645709D02*
X92886152Y-76524756D01*
X92886152Y-76524756D02*
X92946628Y-76403804D01*
X92946628Y-76403804D02*
X93007105Y-76343328D01*
X93007105Y-76343328D02*
X93128057Y-76282852D01*
X93128057Y-76282852D02*
X93430438Y-76282852D01*
X93430438Y-76282852D02*
X93611867Y-76343328D01*
X94156152Y-77552852D02*
X94156152Y-76282852D01*
X94156152Y-76282852D02*
X94639962Y-76282852D01*
X94639962Y-76282852D02*
X94760914Y-76343328D01*
X94760914Y-76343328D02*
X94821391Y-76403804D01*
X94821391Y-76403804D02*
X94881867Y-76524756D01*
X94881867Y-76524756D02*
X94881867Y-76706185D01*
X94881867Y-76706185D02*
X94821391Y-76827137D01*
X94821391Y-76827137D02*
X94760914Y-76887614D01*
X94760914Y-76887614D02*
X94639962Y-76948090D01*
X94639962Y-76948090D02*
X94156152Y-76948090D01*
X95426152Y-77552852D02*
X95426152Y-76282852D01*
X96998533Y-77552852D02*
X96998533Y-76282852D01*
X96998533Y-76282852D02*
X97421867Y-77189995D01*
X97421867Y-77189995D02*
X97845200Y-76282852D01*
X97845200Y-76282852D02*
X97845200Y-77552852D01*
X98449962Y-77552852D02*
X98449962Y-76282852D01*
X98994248Y-77492376D02*
X99175677Y-77552852D01*
X99175677Y-77552852D02*
X99478058Y-77552852D01*
X99478058Y-77552852D02*
X99599010Y-77492376D01*
X99599010Y-77492376D02*
X99659486Y-77431899D01*
X99659486Y-77431899D02*
X99719963Y-77310947D01*
X99719963Y-77310947D02*
X99719963Y-77189995D01*
X99719963Y-77189995D02*
X99659486Y-77069042D01*
X99659486Y-77069042D02*
X99599010Y-77008566D01*
X99599010Y-77008566D02*
X99478058Y-76948090D01*
X99478058Y-76948090D02*
X99236153Y-76887614D01*
X99236153Y-76887614D02*
X99115201Y-76827137D01*
X99115201Y-76827137D02*
X99054724Y-76766661D01*
X99054724Y-76766661D02*
X98994248Y-76645709D01*
X98994248Y-76645709D02*
X98994248Y-76524756D01*
X98994248Y-76524756D02*
X99054724Y-76403804D01*
X99054724Y-76403804D02*
X99115201Y-76343328D01*
X99115201Y-76343328D02*
X99236153Y-76282852D01*
X99236153Y-76282852D02*
X99538534Y-76282852D01*
X99538534Y-76282852D02*
X99719963Y-76343328D01*
X100506153Y-76282852D02*
X100748058Y-76282852D01*
X100748058Y-76282852D02*
X100869010Y-76343328D01*
X100869010Y-76343328D02*
X100989963Y-76464280D01*
X100989963Y-76464280D02*
X101050439Y-76706185D01*
X101050439Y-76706185D02*
X101050439Y-77129518D01*
X101050439Y-77129518D02*
X100989963Y-77371423D01*
X100989963Y-77371423D02*
X100869010Y-77492376D01*
X100869010Y-77492376D02*
X100748058Y-77552852D01*
X100748058Y-77552852D02*
X100506153Y-77552852D01*
X100506153Y-77552852D02*
X100385201Y-77492376D01*
X100385201Y-77492376D02*
X100264248Y-77371423D01*
X100264248Y-77371423D02*
X100203772Y-77129518D01*
X100203772Y-77129518D02*
X100203772Y-76706185D01*
X100203772Y-76706185D02*
X100264248Y-76464280D01*
X100264248Y-76464280D02*
X100385201Y-76343328D01*
X100385201Y-76343328D02*
X100506153Y-76282852D01*
X90648533Y-78327481D02*
X91495200Y-78327481D01*
X91495200Y-78327481D02*
X90950914Y-79597481D01*
X92886152Y-79537005D02*
X93067581Y-79597481D01*
X93067581Y-79597481D02*
X93369962Y-79597481D01*
X93369962Y-79597481D02*
X93490914Y-79537005D01*
X93490914Y-79537005D02*
X93551390Y-79476528D01*
X93551390Y-79476528D02*
X93611867Y-79355576D01*
X93611867Y-79355576D02*
X93611867Y-79234624D01*
X93611867Y-79234624D02*
X93551390Y-79113671D01*
X93551390Y-79113671D02*
X93490914Y-79053195D01*
X93490914Y-79053195D02*
X93369962Y-78992719D01*
X93369962Y-78992719D02*
X93128057Y-78932243D01*
X93128057Y-78932243D02*
X93007105Y-78871766D01*
X93007105Y-78871766D02*
X92946628Y-78811290D01*
X92946628Y-78811290D02*
X92886152Y-78690338D01*
X92886152Y-78690338D02*
X92886152Y-78569385D01*
X92886152Y-78569385D02*
X92946628Y-78448433D01*
X92946628Y-78448433D02*
X93007105Y-78387957D01*
X93007105Y-78387957D02*
X93128057Y-78327481D01*
X93128057Y-78327481D02*
X93430438Y-78327481D01*
X93430438Y-78327481D02*
X93611867Y-78387957D01*
X94156152Y-79597481D02*
X94156152Y-78327481D01*
X94156152Y-78327481D02*
X94639962Y-78327481D01*
X94639962Y-78327481D02*
X94760914Y-78387957D01*
X94760914Y-78387957D02*
X94821391Y-78448433D01*
X94821391Y-78448433D02*
X94881867Y-78569385D01*
X94881867Y-78569385D02*
X94881867Y-78750814D01*
X94881867Y-78750814D02*
X94821391Y-78871766D01*
X94821391Y-78871766D02*
X94760914Y-78932243D01*
X94760914Y-78932243D02*
X94639962Y-78992719D01*
X94639962Y-78992719D02*
X94156152Y-78992719D01*
X95426152Y-79597481D02*
X95426152Y-78327481D01*
X96998533Y-79597481D02*
X96998533Y-78327481D01*
X96998533Y-78327481D02*
X97421867Y-79234624D01*
X97421867Y-79234624D02*
X97845200Y-78327481D01*
X97845200Y-78327481D02*
X97845200Y-79597481D01*
X98691867Y-78327481D02*
X98933772Y-78327481D01*
X98933772Y-78327481D02*
X99054724Y-78387957D01*
X99054724Y-78387957D02*
X99175677Y-78508909D01*
X99175677Y-78508909D02*
X99236153Y-78750814D01*
X99236153Y-78750814D02*
X99236153Y-79174147D01*
X99236153Y-79174147D02*
X99175677Y-79416052D01*
X99175677Y-79416052D02*
X99054724Y-79537005D01*
X99054724Y-79537005D02*
X98933772Y-79597481D01*
X98933772Y-79597481D02*
X98691867Y-79597481D01*
X98691867Y-79597481D02*
X98570915Y-79537005D01*
X98570915Y-79537005D02*
X98449962Y-79416052D01*
X98449962Y-79416052D02*
X98389486Y-79174147D01*
X98389486Y-79174147D02*
X98389486Y-78750814D01*
X98389486Y-78750814D02*
X98449962Y-78508909D01*
X98449962Y-78508909D02*
X98570915Y-78387957D01*
X98570915Y-78387957D02*
X98691867Y-78327481D01*
X99719962Y-79537005D02*
X99901391Y-79597481D01*
X99901391Y-79597481D02*
X100203772Y-79597481D01*
X100203772Y-79597481D02*
X100324724Y-79537005D01*
X100324724Y-79537005D02*
X100385200Y-79476528D01*
X100385200Y-79476528D02*
X100445677Y-79355576D01*
X100445677Y-79355576D02*
X100445677Y-79234624D01*
X100445677Y-79234624D02*
X100385200Y-79113671D01*
X100385200Y-79113671D02*
X100324724Y-79053195D01*
X100324724Y-79053195D02*
X100203772Y-78992719D01*
X100203772Y-78992719D02*
X99961867Y-78932243D01*
X99961867Y-78932243D02*
X99840915Y-78871766D01*
X99840915Y-78871766D02*
X99780438Y-78811290D01*
X99780438Y-78811290D02*
X99719962Y-78690338D01*
X99719962Y-78690338D02*
X99719962Y-78569385D01*
X99719962Y-78569385D02*
X99780438Y-78448433D01*
X99780438Y-78448433D02*
X99840915Y-78387957D01*
X99840915Y-78387957D02*
X99961867Y-78327481D01*
X99961867Y-78327481D02*
X100264248Y-78327481D01*
X100264248Y-78327481D02*
X100445677Y-78387957D01*
X100989962Y-79597481D02*
X100989962Y-78327481D01*
X91374247Y-80372110D02*
X90769485Y-80372110D01*
X90769485Y-80372110D02*
X90709009Y-80976872D01*
X90709009Y-80976872D02*
X90769485Y-80916395D01*
X90769485Y-80916395D02*
X90890438Y-80855919D01*
X90890438Y-80855919D02*
X91192819Y-80855919D01*
X91192819Y-80855919D02*
X91313771Y-80916395D01*
X91313771Y-80916395D02*
X91374247Y-80976872D01*
X91374247Y-80976872D02*
X91434724Y-81097824D01*
X91434724Y-81097824D02*
X91434724Y-81400205D01*
X91434724Y-81400205D02*
X91374247Y-81521157D01*
X91374247Y-81521157D02*
X91313771Y-81581634D01*
X91313771Y-81581634D02*
X91192819Y-81642110D01*
X91192819Y-81642110D02*
X90890438Y-81642110D01*
X90890438Y-81642110D02*
X90769485Y-81581634D01*
X90769485Y-81581634D02*
X90709009Y-81521157D01*
X92886152Y-81581634D02*
X93067581Y-81642110D01*
X93067581Y-81642110D02*
X93369962Y-81642110D01*
X93369962Y-81642110D02*
X93490914Y-81581634D01*
X93490914Y-81581634D02*
X93551390Y-81521157D01*
X93551390Y-81521157D02*
X93611867Y-81400205D01*
X93611867Y-81400205D02*
X93611867Y-81279253D01*
X93611867Y-81279253D02*
X93551390Y-81158300D01*
X93551390Y-81158300D02*
X93490914Y-81097824D01*
X93490914Y-81097824D02*
X93369962Y-81037348D01*
X93369962Y-81037348D02*
X93128057Y-80976872D01*
X93128057Y-80976872D02*
X93007105Y-80916395D01*
X93007105Y-80916395D02*
X92946628Y-80855919D01*
X92946628Y-80855919D02*
X92886152Y-80734967D01*
X92886152Y-80734967D02*
X92886152Y-80614014D01*
X92886152Y-80614014D02*
X92946628Y-80493062D01*
X92946628Y-80493062D02*
X93007105Y-80432586D01*
X93007105Y-80432586D02*
X93128057Y-80372110D01*
X93128057Y-80372110D02*
X93430438Y-80372110D01*
X93430438Y-80372110D02*
X93611867Y-80432586D01*
X94156152Y-81642110D02*
X94156152Y-80372110D01*
X94156152Y-80372110D02*
X94639962Y-80372110D01*
X94639962Y-80372110D02*
X94760914Y-80432586D01*
X94760914Y-80432586D02*
X94821391Y-80493062D01*
X94821391Y-80493062D02*
X94881867Y-80614014D01*
X94881867Y-80614014D02*
X94881867Y-80795443D01*
X94881867Y-80795443D02*
X94821391Y-80916395D01*
X94821391Y-80916395D02*
X94760914Y-80976872D01*
X94760914Y-80976872D02*
X94639962Y-81037348D01*
X94639962Y-81037348D02*
X94156152Y-81037348D01*
X95426152Y-81642110D02*
X95426152Y-80372110D01*
X97724248Y-81521157D02*
X97663772Y-81581634D01*
X97663772Y-81581634D02*
X97482343Y-81642110D01*
X97482343Y-81642110D02*
X97361391Y-81642110D01*
X97361391Y-81642110D02*
X97179962Y-81581634D01*
X97179962Y-81581634D02*
X97059010Y-81460681D01*
X97059010Y-81460681D02*
X96998533Y-81339729D01*
X96998533Y-81339729D02*
X96938057Y-81097824D01*
X96938057Y-81097824D02*
X96938057Y-80916395D01*
X96938057Y-80916395D02*
X96998533Y-80674491D01*
X96998533Y-80674491D02*
X97059010Y-80553538D01*
X97059010Y-80553538D02*
X97179962Y-80432586D01*
X97179962Y-80432586D02*
X97361391Y-80372110D01*
X97361391Y-80372110D02*
X97482343Y-80372110D01*
X97482343Y-80372110D02*
X97663772Y-80432586D01*
X97663772Y-80432586D02*
X97724248Y-80493062D01*
X98873295Y-81642110D02*
X98268533Y-81642110D01*
X98268533Y-81642110D02*
X98268533Y-80372110D01*
X99296628Y-81642110D02*
X99296628Y-80372110D01*
X100022343Y-81642110D02*
X99478057Y-80916395D01*
X100022343Y-80372110D02*
X99296628Y-81097824D01*
X90648533Y-82416739D02*
X91434724Y-82416739D01*
X91434724Y-82416739D02*
X91011390Y-82900548D01*
X91011390Y-82900548D02*
X91192819Y-82900548D01*
X91192819Y-82900548D02*
X91313771Y-82961024D01*
X91313771Y-82961024D02*
X91374247Y-83021501D01*
X91374247Y-83021501D02*
X91434724Y-83142453D01*
X91434724Y-83142453D02*
X91434724Y-83444834D01*
X91434724Y-83444834D02*
X91374247Y-83565786D01*
X91374247Y-83565786D02*
X91313771Y-83626263D01*
X91313771Y-83626263D02*
X91192819Y-83686739D01*
X91192819Y-83686739D02*
X90829962Y-83686739D01*
X90829962Y-83686739D02*
X90709009Y-83626263D01*
X90709009Y-83626263D02*
X90648533Y-83565786D01*
X93611867Y-82477215D02*
X93490914Y-82416739D01*
X93490914Y-82416739D02*
X93309486Y-82416739D01*
X93309486Y-82416739D02*
X93128057Y-82477215D01*
X93128057Y-82477215D02*
X93007105Y-82598167D01*
X93007105Y-82598167D02*
X92946628Y-82719120D01*
X92946628Y-82719120D02*
X92886152Y-82961024D01*
X92886152Y-82961024D02*
X92886152Y-83142453D01*
X92886152Y-83142453D02*
X92946628Y-83384358D01*
X92946628Y-83384358D02*
X93007105Y-83505310D01*
X93007105Y-83505310D02*
X93128057Y-83626263D01*
X93128057Y-83626263D02*
X93309486Y-83686739D01*
X93309486Y-83686739D02*
X93430438Y-83686739D01*
X93430438Y-83686739D02*
X93611867Y-83626263D01*
X93611867Y-83626263D02*
X93672343Y-83565786D01*
X93672343Y-83565786D02*
X93672343Y-83142453D01*
X93672343Y-83142453D02*
X93430438Y-83142453D01*
X94216628Y-83686739D02*
X94216628Y-82416739D01*
X94216628Y-82416739D02*
X94942343Y-83686739D01*
X94942343Y-83686739D02*
X94942343Y-82416739D01*
X95547104Y-83686739D02*
X95547104Y-82416739D01*
X95547104Y-82416739D02*
X95849485Y-82416739D01*
X95849485Y-82416739D02*
X96030914Y-82477215D01*
X96030914Y-82477215D02*
X96151866Y-82598167D01*
X96151866Y-82598167D02*
X96212343Y-82719120D01*
X96212343Y-82719120D02*
X96272819Y-82961024D01*
X96272819Y-82961024D02*
X96272819Y-83142453D01*
X96272819Y-83142453D02*
X96212343Y-83384358D01*
X96212343Y-83384358D02*
X96151866Y-83505310D01*
X96151866Y-83505310D02*
X96030914Y-83626263D01*
X96030914Y-83626263D02*
X95849485Y-83686739D01*
X95849485Y-83686739D02*
X95547104Y-83686739D01*
X91434724Y-85731368D02*
X90709009Y-85731368D01*
X91071866Y-85731368D02*
X91071866Y-84461368D01*
X91071866Y-84461368D02*
X90950914Y-84642796D01*
X90950914Y-84642796D02*
X90829962Y-84763749D01*
X90829962Y-84763749D02*
X90709009Y-84824225D01*
X92946628Y-85247558D02*
X93914248Y-85247558D01*
X93430438Y-85731368D02*
X93430438Y-84763749D01*
X95184248Y-85731368D02*
X94458533Y-85731368D01*
X94821390Y-85731368D02*
X94821390Y-84461368D01*
X94821390Y-84461368D02*
X94700438Y-84642796D01*
X94700438Y-84642796D02*
X94579486Y-84763749D01*
X94579486Y-84763749D02*
X94458533Y-84824225D01*
X95668057Y-84582320D02*
X95728533Y-84521844D01*
X95728533Y-84521844D02*
X95849486Y-84461368D01*
X95849486Y-84461368D02*
X96151867Y-84461368D01*
X96151867Y-84461368D02*
X96272819Y-84521844D01*
X96272819Y-84521844D02*
X96333295Y-84582320D01*
X96333295Y-84582320D02*
X96393772Y-84703272D01*
X96393772Y-84703272D02*
X96393772Y-84824225D01*
X96393772Y-84824225D02*
X96333295Y-85005653D01*
X96333295Y-85005653D02*
X95607581Y-85731368D01*
X95607581Y-85731368D02*
X96393772Y-85731368D01*
X96756629Y-84461368D02*
X97179962Y-85731368D01*
X97179962Y-85731368D02*
X97603296Y-84461368D01*
X79429560Y-67329707D02*
X79429560Y-66059707D01*
X79429560Y-66059707D02*
X79913370Y-66059707D01*
X79913370Y-66059707D02*
X80034322Y-66120183D01*
X80034322Y-66120183D02*
X80094799Y-66180659D01*
X80094799Y-66180659D02*
X80155275Y-66301611D01*
X80155275Y-66301611D02*
X80155275Y-66483040D01*
X80155275Y-66483040D02*
X80094799Y-66603992D01*
X80094799Y-66603992D02*
X80034322Y-66664469D01*
X80034322Y-66664469D02*
X79913370Y-66724945D01*
X79913370Y-66724945D02*
X79429560Y-66724945D01*
X80699560Y-66664469D02*
X81122894Y-66664469D01*
X81304322Y-67329707D02*
X80699560Y-67329707D01*
X80699560Y-67329707D02*
X80699560Y-66059707D01*
X80699560Y-66059707D02*
X81304322Y-66059707D01*
X82755751Y-66180659D02*
X82816227Y-66120183D01*
X82816227Y-66120183D02*
X82937180Y-66059707D01*
X82937180Y-66059707D02*
X83239561Y-66059707D01*
X83239561Y-66059707D02*
X83360513Y-66120183D01*
X83360513Y-66120183D02*
X83420989Y-66180659D01*
X83420989Y-66180659D02*
X83481466Y-66301611D01*
X83481466Y-66301611D02*
X83481466Y-66422564D01*
X83481466Y-66422564D02*
X83420989Y-66603992D01*
X83420989Y-66603992D02*
X82695275Y-67329707D01*
X82695275Y-67329707D02*
X83481466Y-67329707D01*
X84267656Y-66059707D02*
X84388609Y-66059707D01*
X84388609Y-66059707D02*
X84509561Y-66120183D01*
X84509561Y-66120183D02*
X84570037Y-66180659D01*
X84570037Y-66180659D02*
X84630513Y-66301611D01*
X84630513Y-66301611D02*
X84690990Y-66543516D01*
X84690990Y-66543516D02*
X84690990Y-66845897D01*
X84690990Y-66845897D02*
X84630513Y-67087802D01*
X84630513Y-67087802D02*
X84570037Y-67208754D01*
X84570037Y-67208754D02*
X84509561Y-67269231D01*
X84509561Y-67269231D02*
X84388609Y-67329707D01*
X84388609Y-67329707D02*
X84267656Y-67329707D01*
X84267656Y-67329707D02*
X84146704Y-67269231D01*
X84146704Y-67269231D02*
X84086228Y-67208754D01*
X84086228Y-67208754D02*
X84025751Y-67087802D01*
X84025751Y-67087802D02*
X83965275Y-66845897D01*
X83965275Y-66845897D02*
X83965275Y-66543516D01*
X83965275Y-66543516D02*
X84025751Y-66301611D01*
X84025751Y-66301611D02*
X84086228Y-66180659D01*
X84086228Y-66180659D02*
X84146704Y-66120183D01*
X84146704Y-66120183D02*
X84267656Y-66059707D01*
X74228608Y-69374336D02*
X74228608Y-68104336D01*
X74772894Y-68225288D02*
X74833370Y-68164812D01*
X74833370Y-68164812D02*
X74954323Y-68104336D01*
X74954323Y-68104336D02*
X75256704Y-68104336D01*
X75256704Y-68104336D02*
X75377656Y-68164812D01*
X75377656Y-68164812D02*
X75438132Y-68225288D01*
X75438132Y-68225288D02*
X75498609Y-68346240D01*
X75498609Y-68346240D02*
X75498609Y-68467193D01*
X75498609Y-68467193D02*
X75438132Y-68648621D01*
X75438132Y-68648621D02*
X74712418Y-69374336D01*
X74712418Y-69374336D02*
X75498609Y-69374336D01*
X76768609Y-69253383D02*
X76708133Y-69313860D01*
X76708133Y-69313860D02*
X76526704Y-69374336D01*
X76526704Y-69374336D02*
X76405752Y-69374336D01*
X76405752Y-69374336D02*
X76224323Y-69313860D01*
X76224323Y-69313860D02*
X76103371Y-69192907D01*
X76103371Y-69192907D02*
X76042894Y-69071955D01*
X76042894Y-69071955D02*
X75982418Y-68830050D01*
X75982418Y-68830050D02*
X75982418Y-68648621D01*
X75982418Y-68648621D02*
X76042894Y-68406717D01*
X76042894Y-68406717D02*
X76103371Y-68285764D01*
X76103371Y-68285764D02*
X76224323Y-68164812D01*
X76224323Y-68164812D02*
X76405752Y-68104336D01*
X76405752Y-68104336D02*
X76526704Y-68104336D01*
X76526704Y-68104336D02*
X76708133Y-68164812D01*
X76708133Y-68164812D02*
X76768609Y-68225288D01*
X78220037Y-69313860D02*
X78401466Y-69374336D01*
X78401466Y-69374336D02*
X78703847Y-69374336D01*
X78703847Y-69374336D02*
X78824799Y-69313860D01*
X78824799Y-69313860D02*
X78885275Y-69253383D01*
X78885275Y-69253383D02*
X78945752Y-69132431D01*
X78945752Y-69132431D02*
X78945752Y-69011479D01*
X78945752Y-69011479D02*
X78885275Y-68890526D01*
X78885275Y-68890526D02*
X78824799Y-68830050D01*
X78824799Y-68830050D02*
X78703847Y-68769574D01*
X78703847Y-68769574D02*
X78461942Y-68709098D01*
X78461942Y-68709098D02*
X78340990Y-68648621D01*
X78340990Y-68648621D02*
X78280513Y-68588145D01*
X78280513Y-68588145D02*
X78220037Y-68467193D01*
X78220037Y-68467193D02*
X78220037Y-68346240D01*
X78220037Y-68346240D02*
X78280513Y-68225288D01*
X78280513Y-68225288D02*
X78340990Y-68164812D01*
X78340990Y-68164812D02*
X78461942Y-68104336D01*
X78461942Y-68104336D02*
X78764323Y-68104336D01*
X78764323Y-68104336D02*
X78945752Y-68164812D01*
X79490037Y-69374336D02*
X79490037Y-68104336D01*
X79490037Y-68104336D02*
X79792418Y-68104336D01*
X79792418Y-68104336D02*
X79973847Y-68164812D01*
X79973847Y-68164812D02*
X80094799Y-68285764D01*
X80094799Y-68285764D02*
X80155276Y-68406717D01*
X80155276Y-68406717D02*
X80215752Y-68648621D01*
X80215752Y-68648621D02*
X80215752Y-68830050D01*
X80215752Y-68830050D02*
X80155276Y-69071955D01*
X80155276Y-69071955D02*
X80094799Y-69192907D01*
X80094799Y-69192907D02*
X79973847Y-69313860D01*
X79973847Y-69313860D02*
X79792418Y-69374336D01*
X79792418Y-69374336D02*
X79490037Y-69374336D01*
X80699561Y-69011479D02*
X81304323Y-69011479D01*
X80578609Y-69374336D02*
X81001942Y-68104336D01*
X81001942Y-68104336D02*
X81425276Y-69374336D01*
X83481466Y-69374336D02*
X82755751Y-69374336D01*
X83118608Y-69374336D02*
X83118608Y-68104336D01*
X83118608Y-68104336D02*
X82997656Y-68285764D01*
X82997656Y-68285764D02*
X82876704Y-68406717D01*
X82876704Y-68406717D02*
X82755751Y-68467193D01*
X84207180Y-68648621D02*
X84086228Y-68588145D01*
X84086228Y-68588145D02*
X84025751Y-68527669D01*
X84025751Y-68527669D02*
X83965275Y-68406717D01*
X83965275Y-68406717D02*
X83965275Y-68346240D01*
X83965275Y-68346240D02*
X84025751Y-68225288D01*
X84025751Y-68225288D02*
X84086228Y-68164812D01*
X84086228Y-68164812D02*
X84207180Y-68104336D01*
X84207180Y-68104336D02*
X84449085Y-68104336D01*
X84449085Y-68104336D02*
X84570037Y-68164812D01*
X84570037Y-68164812D02*
X84630513Y-68225288D01*
X84630513Y-68225288D02*
X84690990Y-68346240D01*
X84690990Y-68346240D02*
X84690990Y-68406717D01*
X84690990Y-68406717D02*
X84630513Y-68527669D01*
X84630513Y-68527669D02*
X84570037Y-68588145D01*
X84570037Y-68588145D02*
X84449085Y-68648621D01*
X84449085Y-68648621D02*
X84207180Y-68648621D01*
X84207180Y-68648621D02*
X84086228Y-68709098D01*
X84086228Y-68709098D02*
X84025751Y-68769574D01*
X84025751Y-68769574D02*
X83965275Y-68890526D01*
X83965275Y-68890526D02*
X83965275Y-69132431D01*
X83965275Y-69132431D02*
X84025751Y-69253383D01*
X84025751Y-69253383D02*
X84086228Y-69313860D01*
X84086228Y-69313860D02*
X84207180Y-69374336D01*
X84207180Y-69374336D02*
X84449085Y-69374336D01*
X84449085Y-69374336D02*
X84570037Y-69313860D01*
X84570037Y-69313860D02*
X84630513Y-69253383D01*
X84630513Y-69253383D02*
X84690990Y-69132431D01*
X84690990Y-69132431D02*
X84690990Y-68890526D01*
X84690990Y-68890526D02*
X84630513Y-68769574D01*
X84630513Y-68769574D02*
X84570037Y-68709098D01*
X84570037Y-68709098D02*
X84449085Y-68648621D01*
X74047180Y-70148965D02*
X74047180Y-71177060D01*
X74047180Y-71177060D02*
X74107657Y-71298012D01*
X74107657Y-71298012D02*
X74168133Y-71358489D01*
X74168133Y-71358489D02*
X74289085Y-71418965D01*
X74289085Y-71418965D02*
X74530990Y-71418965D01*
X74530990Y-71418965D02*
X74651942Y-71358489D01*
X74651942Y-71358489D02*
X74712419Y-71298012D01*
X74712419Y-71298012D02*
X74772895Y-71177060D01*
X74772895Y-71177060D02*
X74772895Y-70148965D01*
X75317180Y-71056108D02*
X75921942Y-71056108D01*
X75196228Y-71418965D02*
X75619561Y-70148965D01*
X75619561Y-70148965D02*
X76042895Y-71418965D01*
X77191942Y-71418965D02*
X76768608Y-70814203D01*
X76466227Y-71418965D02*
X76466227Y-70148965D01*
X76466227Y-70148965D02*
X76950037Y-70148965D01*
X76950037Y-70148965D02*
X77070989Y-70209441D01*
X77070989Y-70209441D02*
X77131466Y-70269917D01*
X77131466Y-70269917D02*
X77191942Y-70390869D01*
X77191942Y-70390869D02*
X77191942Y-70572298D01*
X77191942Y-70572298D02*
X77131466Y-70693250D01*
X77131466Y-70693250D02*
X77070989Y-70753727D01*
X77070989Y-70753727D02*
X76950037Y-70814203D01*
X76950037Y-70814203D02*
X76466227Y-70814203D01*
X77554799Y-70148965D02*
X78280513Y-70148965D01*
X77917656Y-71418965D02*
X77917656Y-70148965D01*
X79490037Y-70148965D02*
X80215751Y-70148965D01*
X79852894Y-71418965D02*
X79852894Y-70148965D01*
X80518132Y-70148965D02*
X81364799Y-71418965D01*
X81364799Y-70148965D02*
X80518132Y-71418965D01*
X83481466Y-71418965D02*
X82755751Y-71418965D01*
X83118608Y-71418965D02*
X83118608Y-70148965D01*
X83118608Y-70148965D02*
X82997656Y-70330393D01*
X82997656Y-70330393D02*
X82876704Y-70451346D01*
X82876704Y-70451346D02*
X82755751Y-70511822D01*
X84570037Y-70148965D02*
X84328132Y-70148965D01*
X84328132Y-70148965D02*
X84207180Y-70209441D01*
X84207180Y-70209441D02*
X84146704Y-70269917D01*
X84146704Y-70269917D02*
X84025751Y-70451346D01*
X84025751Y-70451346D02*
X83965275Y-70693250D01*
X83965275Y-70693250D02*
X83965275Y-71177060D01*
X83965275Y-71177060D02*
X84025751Y-71298012D01*
X84025751Y-71298012D02*
X84086228Y-71358489D01*
X84086228Y-71358489D02*
X84207180Y-71418965D01*
X84207180Y-71418965D02*
X84449085Y-71418965D01*
X84449085Y-71418965D02*
X84570037Y-71358489D01*
X84570037Y-71358489D02*
X84630513Y-71298012D01*
X84630513Y-71298012D02*
X84690990Y-71177060D01*
X84690990Y-71177060D02*
X84690990Y-70874679D01*
X84690990Y-70874679D02*
X84630513Y-70753727D01*
X84630513Y-70753727D02*
X84570037Y-70693250D01*
X84570037Y-70693250D02*
X84449085Y-70632774D01*
X84449085Y-70632774D02*
X84207180Y-70632774D01*
X84207180Y-70632774D02*
X84086228Y-70693250D01*
X84086228Y-70693250D02*
X84025751Y-70753727D01*
X84025751Y-70753727D02*
X83965275Y-70874679D01*
X76829084Y-73463594D02*
X76405750Y-72858832D01*
X76103369Y-73463594D02*
X76103369Y-72193594D01*
X76103369Y-72193594D02*
X76587179Y-72193594D01*
X76587179Y-72193594D02*
X76708131Y-72254070D01*
X76708131Y-72254070D02*
X76768608Y-72314546D01*
X76768608Y-72314546D02*
X76829084Y-72435498D01*
X76829084Y-72435498D02*
X76829084Y-72616927D01*
X76829084Y-72616927D02*
X76768608Y-72737879D01*
X76768608Y-72737879D02*
X76708131Y-72798356D01*
X76708131Y-72798356D02*
X76587179Y-72858832D01*
X76587179Y-72858832D02*
X76103369Y-72858832D01*
X77373369Y-72798356D02*
X77796703Y-72798356D01*
X77978131Y-73463594D02*
X77373369Y-73463594D01*
X77373369Y-73463594D02*
X77373369Y-72193594D01*
X77373369Y-72193594D02*
X77978131Y-72193594D01*
X78461941Y-73403118D02*
X78643370Y-73463594D01*
X78643370Y-73463594D02*
X78945751Y-73463594D01*
X78945751Y-73463594D02*
X79066703Y-73403118D01*
X79066703Y-73403118D02*
X79127179Y-73342641D01*
X79127179Y-73342641D02*
X79187656Y-73221689D01*
X79187656Y-73221689D02*
X79187656Y-73100737D01*
X79187656Y-73100737D02*
X79127179Y-72979784D01*
X79127179Y-72979784D02*
X79066703Y-72919308D01*
X79066703Y-72919308D02*
X78945751Y-72858832D01*
X78945751Y-72858832D02*
X78703846Y-72798356D01*
X78703846Y-72798356D02*
X78582894Y-72737879D01*
X78582894Y-72737879D02*
X78522417Y-72677403D01*
X78522417Y-72677403D02*
X78461941Y-72556451D01*
X78461941Y-72556451D02*
X78461941Y-72435498D01*
X78461941Y-72435498D02*
X78522417Y-72314546D01*
X78522417Y-72314546D02*
X78582894Y-72254070D01*
X78582894Y-72254070D02*
X78703846Y-72193594D01*
X78703846Y-72193594D02*
X79006227Y-72193594D01*
X79006227Y-72193594D02*
X79187656Y-72254070D01*
X79731941Y-72798356D02*
X80155275Y-72798356D01*
X80336703Y-73463594D02*
X79731941Y-73463594D01*
X79731941Y-73463594D02*
X79731941Y-72193594D01*
X79731941Y-72193594D02*
X80336703Y-72193594D01*
X80699561Y-72193594D02*
X81425275Y-72193594D01*
X81062418Y-73463594D02*
X81062418Y-72193594D01*
X75927989Y-71841018D02*
X81419228Y-71841018D01*
X83481466Y-73463594D02*
X82755751Y-73463594D01*
X83118608Y-73463594D02*
X83118608Y-72193594D01*
X83118608Y-72193594D02*
X82997656Y-72375022D01*
X82997656Y-72375022D02*
X82876704Y-72495975D01*
X82876704Y-72495975D02*
X82755751Y-72556451D01*
X84570037Y-72616927D02*
X84570037Y-73463594D01*
X84267656Y-72133118D02*
X83965275Y-73040260D01*
X83965275Y-73040260D02*
X84751466Y-73040260D01*
X74228608Y-74238223D02*
X74470513Y-74238223D01*
X74470513Y-74238223D02*
X74591465Y-74298699D01*
X74591465Y-74298699D02*
X74712418Y-74419651D01*
X74712418Y-74419651D02*
X74772894Y-74661556D01*
X74772894Y-74661556D02*
X74772894Y-75084889D01*
X74772894Y-75084889D02*
X74712418Y-75326794D01*
X74712418Y-75326794D02*
X74591465Y-75447747D01*
X74591465Y-75447747D02*
X74470513Y-75508223D01*
X74470513Y-75508223D02*
X74228608Y-75508223D01*
X74228608Y-75508223D02*
X74107656Y-75447747D01*
X74107656Y-75447747D02*
X73986703Y-75326794D01*
X73986703Y-75326794D02*
X73926227Y-75084889D01*
X73926227Y-75084889D02*
X73926227Y-74661556D01*
X73926227Y-74661556D02*
X73986703Y-74419651D01*
X73986703Y-74419651D02*
X74107656Y-74298699D01*
X74107656Y-74298699D02*
X74228608Y-74238223D01*
X75317179Y-74842985D02*
X75740513Y-74842985D01*
X75921941Y-75508223D02*
X75317179Y-75508223D01*
X75317179Y-75508223D02*
X75317179Y-74238223D01*
X75317179Y-74238223D02*
X75921941Y-74238223D01*
X77373370Y-75447747D02*
X77554799Y-75508223D01*
X77554799Y-75508223D02*
X77857180Y-75508223D01*
X77857180Y-75508223D02*
X77978132Y-75447747D01*
X77978132Y-75447747D02*
X78038608Y-75387270D01*
X78038608Y-75387270D02*
X78099085Y-75266318D01*
X78099085Y-75266318D02*
X78099085Y-75145366D01*
X78099085Y-75145366D02*
X78038608Y-75024413D01*
X78038608Y-75024413D02*
X77978132Y-74963937D01*
X77978132Y-74963937D02*
X77857180Y-74903461D01*
X77857180Y-74903461D02*
X77615275Y-74842985D01*
X77615275Y-74842985D02*
X77494323Y-74782508D01*
X77494323Y-74782508D02*
X77433846Y-74722032D01*
X77433846Y-74722032D02*
X77373370Y-74601080D01*
X77373370Y-74601080D02*
X77373370Y-74480127D01*
X77373370Y-74480127D02*
X77433846Y-74359175D01*
X77433846Y-74359175D02*
X77494323Y-74298699D01*
X77494323Y-74298699D02*
X77615275Y-74238223D01*
X77615275Y-74238223D02*
X77917656Y-74238223D01*
X77917656Y-74238223D02*
X78099085Y-74298699D01*
X78522418Y-74661556D02*
X78824799Y-75508223D01*
X79127180Y-74661556D02*
X78824799Y-75508223D01*
X78824799Y-75508223D02*
X78703847Y-75810604D01*
X78703847Y-75810604D02*
X78643370Y-75871080D01*
X78643370Y-75871080D02*
X78522418Y-75931556D01*
X79610989Y-74661556D02*
X79610989Y-75508223D01*
X79610989Y-74782508D02*
X79671466Y-74722032D01*
X79671466Y-74722032D02*
X79792418Y-74661556D01*
X79792418Y-74661556D02*
X79973847Y-74661556D01*
X79973847Y-74661556D02*
X80094799Y-74722032D01*
X80094799Y-74722032D02*
X80155275Y-74842985D01*
X80155275Y-74842985D02*
X80155275Y-75508223D01*
X81304323Y-75447747D02*
X81183371Y-75508223D01*
X81183371Y-75508223D02*
X80941466Y-75508223D01*
X80941466Y-75508223D02*
X80820514Y-75447747D01*
X80820514Y-75447747D02*
X80760037Y-75387270D01*
X80760037Y-75387270D02*
X80699561Y-75266318D01*
X80699561Y-75266318D02*
X80699561Y-74903461D01*
X80699561Y-74903461D02*
X80760037Y-74782508D01*
X80760037Y-74782508D02*
X80820514Y-74722032D01*
X80820514Y-74722032D02*
X80941466Y-74661556D01*
X80941466Y-74661556D02*
X81183371Y-74661556D01*
X81183371Y-74661556D02*
X81304323Y-74722032D01*
X83481466Y-75508223D02*
X82755751Y-75508223D01*
X83118608Y-75508223D02*
X83118608Y-74238223D01*
X83118608Y-74238223D02*
X82997656Y-74419651D01*
X82997656Y-74419651D02*
X82876704Y-74540604D01*
X82876704Y-74540604D02*
X82755751Y-74601080D01*
X83965275Y-74359175D02*
X84025751Y-74298699D01*
X84025751Y-74298699D02*
X84146704Y-74238223D01*
X84146704Y-74238223D02*
X84449085Y-74238223D01*
X84449085Y-74238223D02*
X84570037Y-74298699D01*
X84570037Y-74298699D02*
X84630513Y-74359175D01*
X84630513Y-74359175D02*
X84690990Y-74480127D01*
X84690990Y-74480127D02*
X84690990Y-74601080D01*
X84690990Y-74601080D02*
X84630513Y-74782508D01*
X84630513Y-74782508D02*
X83904799Y-75508223D01*
X83904799Y-75508223D02*
X84690990Y-75508223D01*
X74349562Y-77189995D02*
X74954324Y-77189995D01*
X74228610Y-77552852D02*
X74651943Y-76282852D01*
X74651943Y-76282852D02*
X75075277Y-77552852D01*
X76224324Y-77431899D02*
X76163848Y-77492376D01*
X76163848Y-77492376D02*
X75982419Y-77552852D01*
X75982419Y-77552852D02*
X75861467Y-77552852D01*
X75861467Y-77552852D02*
X75680038Y-77492376D01*
X75680038Y-77492376D02*
X75559086Y-77371423D01*
X75559086Y-77371423D02*
X75498609Y-77250471D01*
X75498609Y-77250471D02*
X75438133Y-77008566D01*
X75438133Y-77008566D02*
X75438133Y-76827137D01*
X75438133Y-76827137D02*
X75498609Y-76585233D01*
X75498609Y-76585233D02*
X75559086Y-76464280D01*
X75559086Y-76464280D02*
X75680038Y-76343328D01*
X75680038Y-76343328D02*
X75861467Y-76282852D01*
X75861467Y-76282852D02*
X75982419Y-76282852D01*
X75982419Y-76282852D02*
X76163848Y-76343328D01*
X76163848Y-76343328D02*
X76224324Y-76403804D01*
X78159562Y-76887614D02*
X77736228Y-76887614D01*
X77736228Y-77552852D02*
X77736228Y-76282852D01*
X77736228Y-76282852D02*
X78340990Y-76282852D01*
X78824799Y-77552852D02*
X78824799Y-76706185D01*
X78824799Y-76948090D02*
X78885276Y-76827137D01*
X78885276Y-76827137D02*
X78945752Y-76766661D01*
X78945752Y-76766661D02*
X79066704Y-76706185D01*
X79066704Y-76706185D02*
X79187657Y-76706185D01*
X80094799Y-77492376D02*
X79973847Y-77552852D01*
X79973847Y-77552852D02*
X79731942Y-77552852D01*
X79731942Y-77552852D02*
X79610989Y-77492376D01*
X79610989Y-77492376D02*
X79550513Y-77371423D01*
X79550513Y-77371423D02*
X79550513Y-76887614D01*
X79550513Y-76887614D02*
X79610989Y-76766661D01*
X79610989Y-76766661D02*
X79731942Y-76706185D01*
X79731942Y-76706185D02*
X79973847Y-76706185D01*
X79973847Y-76706185D02*
X80094799Y-76766661D01*
X80094799Y-76766661D02*
X80155275Y-76887614D01*
X80155275Y-76887614D02*
X80155275Y-77008566D01*
X80155275Y-77008566D02*
X79550513Y-77129518D01*
X81243846Y-76706185D02*
X81243846Y-77976185D01*
X81243846Y-77492376D02*
X81122894Y-77552852D01*
X81122894Y-77552852D02*
X80880989Y-77552852D01*
X80880989Y-77552852D02*
X80760037Y-77492376D01*
X80760037Y-77492376D02*
X80699560Y-77431899D01*
X80699560Y-77431899D02*
X80639084Y-77310947D01*
X80639084Y-77310947D02*
X80639084Y-76948090D01*
X80639084Y-76948090D02*
X80699560Y-76827137D01*
X80699560Y-76827137D02*
X80760037Y-76766661D01*
X80760037Y-76766661D02*
X80880989Y-76706185D01*
X80880989Y-76706185D02*
X81122894Y-76706185D01*
X81122894Y-76706185D02*
X81243846Y-76766661D01*
X83481466Y-77552852D02*
X82755751Y-77552852D01*
X83118608Y-77552852D02*
X83118608Y-76282852D01*
X83118608Y-76282852D02*
X82997656Y-76464280D01*
X82997656Y-76464280D02*
X82876704Y-76585233D01*
X82876704Y-76585233D02*
X82755751Y-76645709D01*
X84267656Y-76282852D02*
X84388609Y-76282852D01*
X84388609Y-76282852D02*
X84509561Y-76343328D01*
X84509561Y-76343328D02*
X84570037Y-76403804D01*
X84570037Y-76403804D02*
X84630513Y-76524756D01*
X84630513Y-76524756D02*
X84690990Y-76766661D01*
X84690990Y-76766661D02*
X84690990Y-77069042D01*
X84690990Y-77069042D02*
X84630513Y-77310947D01*
X84630513Y-77310947D02*
X84570037Y-77431899D01*
X84570037Y-77431899D02*
X84509561Y-77492376D01*
X84509561Y-77492376D02*
X84388609Y-77552852D01*
X84388609Y-77552852D02*
X84267656Y-77552852D01*
X84267656Y-77552852D02*
X84146704Y-77492376D01*
X84146704Y-77492376D02*
X84086228Y-77431899D01*
X84086228Y-77431899D02*
X84025751Y-77310947D01*
X84025751Y-77310947D02*
X83965275Y-77069042D01*
X83965275Y-77069042D02*
X83965275Y-76766661D01*
X83965275Y-76766661D02*
X84025751Y-76524756D01*
X84025751Y-76524756D02*
X84086228Y-76403804D01*
X84086228Y-76403804D02*
X84146704Y-76343328D01*
X84146704Y-76343328D02*
X84267656Y-76282852D01*
X77978134Y-78932243D02*
X77554800Y-78932243D01*
X77554800Y-79597481D02*
X77554800Y-78327481D01*
X77554800Y-78327481D02*
X78159562Y-78327481D01*
X78582895Y-79234624D02*
X79187657Y-79234624D01*
X78461943Y-79597481D02*
X78885276Y-78327481D01*
X78885276Y-78327481D02*
X79308610Y-79597481D01*
X79731942Y-78327481D02*
X79731942Y-79355576D01*
X79731942Y-79355576D02*
X79792419Y-79476528D01*
X79792419Y-79476528D02*
X79852895Y-79537005D01*
X79852895Y-79537005D02*
X79973847Y-79597481D01*
X79973847Y-79597481D02*
X80215752Y-79597481D01*
X80215752Y-79597481D02*
X80336704Y-79537005D01*
X80336704Y-79537005D02*
X80397181Y-79476528D01*
X80397181Y-79476528D02*
X80457657Y-79355576D01*
X80457657Y-79355576D02*
X80457657Y-78327481D01*
X81667180Y-79597481D02*
X81062418Y-79597481D01*
X81062418Y-79597481D02*
X81062418Y-78327481D01*
X81909085Y-78327481D02*
X82634799Y-78327481D01*
X82271942Y-79597481D02*
X82271942Y-78327481D01*
X77379420Y-77974905D02*
X82628752Y-77974905D01*
X84207180Y-78871766D02*
X84086228Y-78811290D01*
X84086228Y-78811290D02*
X84025751Y-78750814D01*
X84025751Y-78750814D02*
X83965275Y-78629862D01*
X83965275Y-78629862D02*
X83965275Y-78569385D01*
X83965275Y-78569385D02*
X84025751Y-78448433D01*
X84025751Y-78448433D02*
X84086228Y-78387957D01*
X84086228Y-78387957D02*
X84207180Y-78327481D01*
X84207180Y-78327481D02*
X84449085Y-78327481D01*
X84449085Y-78327481D02*
X84570037Y-78387957D01*
X84570037Y-78387957D02*
X84630513Y-78448433D01*
X84630513Y-78448433D02*
X84690990Y-78569385D01*
X84690990Y-78569385D02*
X84690990Y-78629862D01*
X84690990Y-78629862D02*
X84630513Y-78750814D01*
X84630513Y-78750814D02*
X84570037Y-78811290D01*
X84570037Y-78811290D02*
X84449085Y-78871766D01*
X84449085Y-78871766D02*
X84207180Y-78871766D01*
X84207180Y-78871766D02*
X84086228Y-78932243D01*
X84086228Y-78932243D02*
X84025751Y-78992719D01*
X84025751Y-78992719D02*
X83965275Y-79113671D01*
X83965275Y-79113671D02*
X83965275Y-79355576D01*
X83965275Y-79355576D02*
X84025751Y-79476528D01*
X84025751Y-79476528D02*
X84086228Y-79537005D01*
X84086228Y-79537005D02*
X84207180Y-79597481D01*
X84207180Y-79597481D02*
X84449085Y-79597481D01*
X84449085Y-79597481D02*
X84570037Y-79537005D01*
X84570037Y-79537005D02*
X84630513Y-79476528D01*
X84630513Y-79476528D02*
X84690990Y-79355576D01*
X84690990Y-79355576D02*
X84690990Y-79113671D01*
X84690990Y-79113671D02*
X84630513Y-78992719D01*
X84630513Y-78992719D02*
X84570037Y-78932243D01*
X84570037Y-78932243D02*
X84449085Y-78871766D01*
X77978132Y-81158300D02*
X78945752Y-81158300D01*
X78461942Y-81642110D02*
X78461942Y-80674491D01*
X79429561Y-80372110D02*
X80215752Y-80372110D01*
X80215752Y-80372110D02*
X79792418Y-80855919D01*
X79792418Y-80855919D02*
X79973847Y-80855919D01*
X79973847Y-80855919D02*
X80094799Y-80916395D01*
X80094799Y-80916395D02*
X80155275Y-80976872D01*
X80155275Y-80976872D02*
X80215752Y-81097824D01*
X80215752Y-81097824D02*
X80215752Y-81400205D01*
X80215752Y-81400205D02*
X80155275Y-81521157D01*
X80155275Y-81521157D02*
X80094799Y-81581634D01*
X80094799Y-81581634D02*
X79973847Y-81642110D01*
X79973847Y-81642110D02*
X79610990Y-81642110D01*
X79610990Y-81642110D02*
X79490037Y-81581634D01*
X79490037Y-81581634D02*
X79429561Y-81521157D01*
X80578609Y-80372110D02*
X81001942Y-81642110D01*
X81001942Y-81642110D02*
X81425276Y-80372110D01*
X81727656Y-80372110D02*
X82513847Y-80372110D01*
X82513847Y-80372110D02*
X82090513Y-80855919D01*
X82090513Y-80855919D02*
X82271942Y-80855919D01*
X82271942Y-80855919D02*
X82392894Y-80916395D01*
X82392894Y-80916395D02*
X82453370Y-80976872D01*
X82453370Y-80976872D02*
X82513847Y-81097824D01*
X82513847Y-81097824D02*
X82513847Y-81400205D01*
X82513847Y-81400205D02*
X82453370Y-81521157D01*
X82453370Y-81521157D02*
X82392894Y-81581634D01*
X82392894Y-81581634D02*
X82271942Y-81642110D01*
X82271942Y-81642110D02*
X81909085Y-81642110D01*
X81909085Y-81642110D02*
X81788132Y-81581634D01*
X81788132Y-81581634D02*
X81727656Y-81521157D01*
X84570037Y-80372110D02*
X84328132Y-80372110D01*
X84328132Y-80372110D02*
X84207180Y-80432586D01*
X84207180Y-80432586D02*
X84146704Y-80493062D01*
X84146704Y-80493062D02*
X84025751Y-80674491D01*
X84025751Y-80674491D02*
X83965275Y-80916395D01*
X83965275Y-80916395D02*
X83965275Y-81400205D01*
X83965275Y-81400205D02*
X84025751Y-81521157D01*
X84025751Y-81521157D02*
X84086228Y-81581634D01*
X84086228Y-81581634D02*
X84207180Y-81642110D01*
X84207180Y-81642110D02*
X84449085Y-81642110D01*
X84449085Y-81642110D02*
X84570037Y-81581634D01*
X84570037Y-81581634D02*
X84630513Y-81521157D01*
X84630513Y-81521157D02*
X84690990Y-81400205D01*
X84690990Y-81400205D02*
X84690990Y-81097824D01*
X84690990Y-81097824D02*
X84630513Y-80976872D01*
X84630513Y-80976872D02*
X84570037Y-80916395D01*
X84570037Y-80916395D02*
X84449085Y-80855919D01*
X84449085Y-80855919D02*
X84207180Y-80855919D01*
X84207180Y-80855919D02*
X84086228Y-80916395D01*
X84086228Y-80916395D02*
X84025751Y-80976872D01*
X84025751Y-80976872D02*
X83965275Y-81097824D01*
X79852895Y-82477215D02*
X79731942Y-82416739D01*
X79731942Y-82416739D02*
X79550514Y-82416739D01*
X79550514Y-82416739D02*
X79369085Y-82477215D01*
X79369085Y-82477215D02*
X79248133Y-82598167D01*
X79248133Y-82598167D02*
X79187656Y-82719120D01*
X79187656Y-82719120D02*
X79127180Y-82961024D01*
X79127180Y-82961024D02*
X79127180Y-83142453D01*
X79127180Y-83142453D02*
X79187656Y-83384358D01*
X79187656Y-83384358D02*
X79248133Y-83505310D01*
X79248133Y-83505310D02*
X79369085Y-83626263D01*
X79369085Y-83626263D02*
X79550514Y-83686739D01*
X79550514Y-83686739D02*
X79671466Y-83686739D01*
X79671466Y-83686739D02*
X79852895Y-83626263D01*
X79852895Y-83626263D02*
X79913371Y-83565786D01*
X79913371Y-83565786D02*
X79913371Y-83142453D01*
X79913371Y-83142453D02*
X79671466Y-83142453D01*
X80457656Y-83686739D02*
X80457656Y-82416739D01*
X80457656Y-82416739D02*
X81183371Y-83686739D01*
X81183371Y-83686739D02*
X81183371Y-82416739D01*
X81788132Y-83686739D02*
X81788132Y-82416739D01*
X81788132Y-82416739D02*
X82090513Y-82416739D01*
X82090513Y-82416739D02*
X82271942Y-82477215D01*
X82271942Y-82477215D02*
X82392894Y-82598167D01*
X82392894Y-82598167D02*
X82453371Y-82719120D01*
X82453371Y-82719120D02*
X82513847Y-82961024D01*
X82513847Y-82961024D02*
X82513847Y-83142453D01*
X82513847Y-83142453D02*
X82453371Y-83384358D01*
X82453371Y-83384358D02*
X82392894Y-83505310D01*
X82392894Y-83505310D02*
X82271942Y-83626263D01*
X82271942Y-83626263D02*
X82090513Y-83686739D01*
X82090513Y-83686739D02*
X81788132Y-83686739D01*
X84570037Y-82840072D02*
X84570037Y-83686739D01*
X84267656Y-82356263D02*
X83965275Y-83263405D01*
X83965275Y-83263405D02*
X84751466Y-83263405D01*
X79187656Y-85247558D02*
X80155276Y-85247558D01*
X79671466Y-85731368D02*
X79671466Y-84763749D01*
X81364799Y-84461368D02*
X80760037Y-84461368D01*
X80760037Y-84461368D02*
X80699561Y-85066130D01*
X80699561Y-85066130D02*
X80760037Y-85005653D01*
X80760037Y-85005653D02*
X80880990Y-84945177D01*
X80880990Y-84945177D02*
X81183371Y-84945177D01*
X81183371Y-84945177D02*
X81304323Y-85005653D01*
X81304323Y-85005653D02*
X81364799Y-85066130D01*
X81364799Y-85066130D02*
X81425276Y-85187082D01*
X81425276Y-85187082D02*
X81425276Y-85489463D01*
X81425276Y-85489463D02*
X81364799Y-85610415D01*
X81364799Y-85610415D02*
X81304323Y-85670892D01*
X81304323Y-85670892D02*
X81183371Y-85731368D01*
X81183371Y-85731368D02*
X80880990Y-85731368D01*
X80880990Y-85731368D02*
X80760037Y-85670892D01*
X80760037Y-85670892D02*
X80699561Y-85610415D01*
X81788133Y-84461368D02*
X82211466Y-85731368D01*
X82211466Y-85731368D02*
X82634800Y-84461368D01*
X83965275Y-84582320D02*
X84025751Y-84521844D01*
X84025751Y-84521844D02*
X84146704Y-84461368D01*
X84146704Y-84461368D02*
X84449085Y-84461368D01*
X84449085Y-84461368D02*
X84570037Y-84521844D01*
X84570037Y-84521844D02*
X84630513Y-84582320D01*
X84630513Y-84582320D02*
X84690990Y-84703272D01*
X84690990Y-84703272D02*
X84690990Y-84824225D01*
X84690990Y-84824225D02*
X84630513Y-85005653D01*
X84630513Y-85005653D02*
X83904799Y-85731368D01*
X83904799Y-85731368D02*
X84690990Y-85731368D01*
D12*
X74344613Y-118993255D02*
X73957565Y-118993255D01*
X73957565Y-118993255D02*
X73957565Y-118180455D01*
X74615546Y-118567503D02*
X74886480Y-118567503D01*
X75002594Y-118993255D02*
X74615546Y-118993255D01*
X74615546Y-118993255D02*
X74615546Y-118180455D01*
X74615546Y-118180455D02*
X75002594Y-118180455D01*
X75350936Y-118993255D02*
X75350936Y-118180455D01*
X75350936Y-118180455D02*
X75544460Y-118180455D01*
X75544460Y-118180455D02*
X75660574Y-118219160D01*
X75660574Y-118219160D02*
X75737984Y-118296570D01*
X75737984Y-118296570D02*
X75776689Y-118373979D01*
X75776689Y-118373979D02*
X75815393Y-118528798D01*
X75815393Y-118528798D02*
X75815393Y-118644912D01*
X75815393Y-118644912D02*
X75776689Y-118799731D01*
X75776689Y-118799731D02*
X75737984Y-118877141D01*
X75737984Y-118877141D02*
X75660574Y-118954551D01*
X75660574Y-118954551D02*
X75544460Y-118993255D01*
X75544460Y-118993255D02*
X75350936Y-118993255D01*
X76589489Y-118993255D02*
X76125032Y-118993255D01*
X76357260Y-118993255D02*
X76357260Y-118180455D01*
X76357260Y-118180455D02*
X76279851Y-118296570D01*
X76279851Y-118296570D02*
X76202441Y-118373979D01*
X76202441Y-118373979D02*
X76125032Y-118412684D01*
X63878457Y-78988884D02*
X64555791Y-80004884D01*
X64555791Y-78988884D02*
X63878457Y-80004884D01*
X65475029Y-80004884D02*
X64894457Y-80004884D01*
X65184743Y-80004884D02*
X65184743Y-78988884D01*
X65184743Y-78988884D02*
X65087981Y-79134027D01*
X65087981Y-79134027D02*
X64991219Y-79230789D01*
X64991219Y-79230789D02*
X64894457Y-79279170D01*
X76844533Y-121821451D02*
X76805829Y-121860156D01*
X76805829Y-121860156D02*
X76689714Y-121898860D01*
X76689714Y-121898860D02*
X76612305Y-121898860D01*
X76612305Y-121898860D02*
X76496191Y-121860156D01*
X76496191Y-121860156D02*
X76418781Y-121782746D01*
X76418781Y-121782746D02*
X76380076Y-121705336D01*
X76380076Y-121705336D02*
X76341372Y-121550517D01*
X76341372Y-121550517D02*
X76341372Y-121434403D01*
X76341372Y-121434403D02*
X76380076Y-121279584D01*
X76380076Y-121279584D02*
X76418781Y-121202175D01*
X76418781Y-121202175D02*
X76496191Y-121124765D01*
X76496191Y-121124765D02*
X76612305Y-121086060D01*
X76612305Y-121086060D02*
X76689714Y-121086060D01*
X76689714Y-121086060D02*
X76805829Y-121124765D01*
X76805829Y-121124765D02*
X76844533Y-121163470D01*
X77541219Y-121356994D02*
X77541219Y-121898860D01*
X77347695Y-121047356D02*
X77154172Y-121627927D01*
X77154172Y-121627927D02*
X77657333Y-121627927D01*
X74632489Y-103667429D02*
X74593785Y-103706134D01*
X74593785Y-103706134D02*
X74477670Y-103744838D01*
X74477670Y-103744838D02*
X74400261Y-103744838D01*
X74400261Y-103744838D02*
X74284147Y-103706134D01*
X74284147Y-103706134D02*
X74206737Y-103628724D01*
X74206737Y-103628724D02*
X74168032Y-103551314D01*
X74168032Y-103551314D02*
X74129328Y-103396495D01*
X74129328Y-103396495D02*
X74129328Y-103280381D01*
X74129328Y-103280381D02*
X74168032Y-103125562D01*
X74168032Y-103125562D02*
X74206737Y-103048153D01*
X74206737Y-103048153D02*
X74284147Y-102970743D01*
X74284147Y-102970743D02*
X74400261Y-102932038D01*
X74400261Y-102932038D02*
X74477670Y-102932038D01*
X74477670Y-102932038D02*
X74593785Y-102970743D01*
X74593785Y-102970743D02*
X74632489Y-103009448D01*
X74903423Y-102932038D02*
X75406585Y-102932038D01*
X75406585Y-102932038D02*
X75135651Y-103241676D01*
X75135651Y-103241676D02*
X75251766Y-103241676D01*
X75251766Y-103241676D02*
X75329175Y-103280381D01*
X75329175Y-103280381D02*
X75367880Y-103319086D01*
X75367880Y-103319086D02*
X75406585Y-103396495D01*
X75406585Y-103396495D02*
X75406585Y-103590019D01*
X75406585Y-103590019D02*
X75367880Y-103667429D01*
X75367880Y-103667429D02*
X75329175Y-103706134D01*
X75329175Y-103706134D02*
X75251766Y-103744838D01*
X75251766Y-103744838D02*
X75019537Y-103744838D01*
X75019537Y-103744838D02*
X74942128Y-103706134D01*
X74942128Y-103706134D02*
X74903423Y-103667429D01*
X71488936Y-119526367D02*
X72166270Y-120542367D01*
X72166270Y-119526367D02*
X71488936Y-120542367D01*
X72456555Y-119526367D02*
X73085508Y-119526367D01*
X73085508Y-119526367D02*
X72746841Y-119913415D01*
X72746841Y-119913415D02*
X72891984Y-119913415D01*
X72891984Y-119913415D02*
X72988746Y-119961796D01*
X72988746Y-119961796D02*
X73037127Y-120010177D01*
X73037127Y-120010177D02*
X73085508Y-120106939D01*
X73085508Y-120106939D02*
X73085508Y-120348844D01*
X73085508Y-120348844D02*
X73037127Y-120445606D01*
X73037127Y-120445606D02*
X72988746Y-120493987D01*
X72988746Y-120493987D02*
X72891984Y-120542367D01*
X72891984Y-120542367D02*
X72601698Y-120542367D01*
X72601698Y-120542367D02*
X72504936Y-120493987D01*
X72504936Y-120493987D02*
X72456555Y-120445606D01*
X74632489Y-110716791D02*
X74593785Y-110755496D01*
X74593785Y-110755496D02*
X74477670Y-110794200D01*
X74477670Y-110794200D02*
X74400261Y-110794200D01*
X74400261Y-110794200D02*
X74284147Y-110755496D01*
X74284147Y-110755496D02*
X74206737Y-110678086D01*
X74206737Y-110678086D02*
X74168032Y-110600676D01*
X74168032Y-110600676D02*
X74129328Y-110445857D01*
X74129328Y-110445857D02*
X74129328Y-110329743D01*
X74129328Y-110329743D02*
X74168032Y-110174924D01*
X74168032Y-110174924D02*
X74206737Y-110097515D01*
X74206737Y-110097515D02*
X74284147Y-110020105D01*
X74284147Y-110020105D02*
X74400261Y-109981400D01*
X74400261Y-109981400D02*
X74477670Y-109981400D01*
X74477670Y-109981400D02*
X74593785Y-110020105D01*
X74593785Y-110020105D02*
X74632489Y-110058810D01*
X74942128Y-110058810D02*
X74980832Y-110020105D01*
X74980832Y-110020105D02*
X75058242Y-109981400D01*
X75058242Y-109981400D02*
X75251766Y-109981400D01*
X75251766Y-109981400D02*
X75329175Y-110020105D01*
X75329175Y-110020105D02*
X75367880Y-110058810D01*
X75367880Y-110058810D02*
X75406585Y-110136219D01*
X75406585Y-110136219D02*
X75406585Y-110213629D01*
X75406585Y-110213629D02*
X75367880Y-110329743D01*
X75367880Y-110329743D02*
X74903423Y-110794200D01*
X74903423Y-110794200D02*
X75406585Y-110794200D01*
X74632489Y-108774110D02*
X74593785Y-108812815D01*
X74593785Y-108812815D02*
X74477670Y-108851519D01*
X74477670Y-108851519D02*
X74400261Y-108851519D01*
X74400261Y-108851519D02*
X74284147Y-108812815D01*
X74284147Y-108812815D02*
X74206737Y-108735405D01*
X74206737Y-108735405D02*
X74168032Y-108657995D01*
X74168032Y-108657995D02*
X74129328Y-108503176D01*
X74129328Y-108503176D02*
X74129328Y-108387062D01*
X74129328Y-108387062D02*
X74168032Y-108232243D01*
X74168032Y-108232243D02*
X74206737Y-108154834D01*
X74206737Y-108154834D02*
X74284147Y-108077424D01*
X74284147Y-108077424D02*
X74400261Y-108038719D01*
X74400261Y-108038719D02*
X74477670Y-108038719D01*
X74477670Y-108038719D02*
X74593785Y-108077424D01*
X74593785Y-108077424D02*
X74632489Y-108116129D01*
X75406585Y-108851519D02*
X74942128Y-108851519D01*
X75174356Y-108851519D02*
X75174356Y-108038719D01*
X75174356Y-108038719D02*
X75096947Y-108154834D01*
X75096947Y-108154834D02*
X75019537Y-108232243D01*
X75019537Y-108232243D02*
X74942128Y-108270948D01*
X78035522Y-119309360D02*
X77764589Y-118922313D01*
X77571065Y-119309360D02*
X77571065Y-118496560D01*
X77571065Y-118496560D02*
X77880703Y-118496560D01*
X77880703Y-118496560D02*
X77958113Y-118535265D01*
X77958113Y-118535265D02*
X77996818Y-118573970D01*
X77996818Y-118573970D02*
X78035522Y-118651379D01*
X78035522Y-118651379D02*
X78035522Y-118767494D01*
X78035522Y-118767494D02*
X77996818Y-118844903D01*
X77996818Y-118844903D02*
X77958113Y-118883608D01*
X77958113Y-118883608D02*
X77880703Y-118922313D01*
X77880703Y-118922313D02*
X77571065Y-118922313D01*
X78809618Y-119309360D02*
X78345161Y-119309360D01*
X78577389Y-119309360D02*
X78577389Y-118496560D01*
X78577389Y-118496560D02*
X78499980Y-118612675D01*
X78499980Y-118612675D02*
X78422570Y-118690084D01*
X78422570Y-118690084D02*
X78345161Y-118728789D01*
X76814533Y-123348860D02*
X76543600Y-122961813D01*
X76350076Y-123348860D02*
X76350076Y-122536060D01*
X76350076Y-122536060D02*
X76659714Y-122536060D01*
X76659714Y-122536060D02*
X76737124Y-122574765D01*
X76737124Y-122574765D02*
X76775829Y-122613470D01*
X76775829Y-122613470D02*
X76814533Y-122690879D01*
X76814533Y-122690879D02*
X76814533Y-122806994D01*
X76814533Y-122806994D02*
X76775829Y-122884403D01*
X76775829Y-122884403D02*
X76737124Y-122923108D01*
X76737124Y-122923108D02*
X76659714Y-122961813D01*
X76659714Y-122961813D02*
X76350076Y-122961813D01*
X77124172Y-122613470D02*
X77162876Y-122574765D01*
X77162876Y-122574765D02*
X77240286Y-122536060D01*
X77240286Y-122536060D02*
X77433810Y-122536060D01*
X77433810Y-122536060D02*
X77511219Y-122574765D01*
X77511219Y-122574765D02*
X77549924Y-122613470D01*
X77549924Y-122613470D02*
X77588629Y-122690879D01*
X77588629Y-122690879D02*
X77588629Y-122768289D01*
X77588629Y-122768289D02*
X77549924Y-122884403D01*
X77549924Y-122884403D02*
X77085467Y-123348860D01*
X77085467Y-123348860D02*
X77588629Y-123348860D01*
%TO.C,LED1*%
D14*
X75171600Y-119359600D02*
X75476400Y-119359600D01*
X75476400Y-120680400D01*
X75171600Y-120680400D01*
X75171600Y-119359600D01*
G36*
X75171600Y-119359600D02*
G01*
X75476400Y-119359600D01*
X75476400Y-120680400D01*
X75171600Y-120680400D01*
X75171600Y-119359600D01*
G37*
D15*
%TO.C,LOGO2*%
G36*
X106577550Y-146100599D02*
G01*
X106577550Y-146429578D01*
X106311502Y-146438493D01*
X106189494Y-146443902D01*
X106095654Y-146451933D01*
X106018000Y-146464376D01*
X105944552Y-146483020D01*
X105884822Y-146502216D01*
X105658339Y-146600035D01*
X105454401Y-146730189D01*
X105275429Y-146890260D01*
X105123843Y-147077831D01*
X105002064Y-147290485D01*
X104937502Y-147448221D01*
X104915418Y-147514406D01*
X104900010Y-147571687D01*
X104890089Y-147629837D01*
X104884469Y-147698626D01*
X104881961Y-147787825D01*
X104881379Y-147907204D01*
X104881379Y-147910039D01*
X104881934Y-148030140D01*
X104884390Y-148119860D01*
X104889934Y-148188970D01*
X104899755Y-148247240D01*
X104915039Y-148304441D01*
X104936973Y-148370345D01*
X104937502Y-148371858D01*
X105037624Y-148600190D01*
X105169200Y-148805085D01*
X105329809Y-148984123D01*
X105517029Y-149134888D01*
X105728441Y-149254963D01*
X105884822Y-149317863D01*
X105963004Y-149342352D01*
X106036378Y-149359293D01*
X106116925Y-149370477D01*
X106216626Y-149377692D01*
X106311502Y-149381586D01*
X106577550Y-149390501D01*
X106577550Y-149719480D01*
X106577550Y-150048458D01*
X106351660Y-150046646D01*
X106241406Y-150043354D01*
X106128154Y-150035967D01*
X106028438Y-150025735D01*
X105981319Y-150018631D01*
X105695864Y-149946805D01*
X105425535Y-149838160D01*
X105172486Y-149693884D01*
X104938867Y-149515164D01*
X104769726Y-149350684D01*
X104591075Y-149129843D01*
X104446563Y-148891545D01*
X104336190Y-148639479D01*
X104259958Y-148377331D01*
X104217865Y-148108792D01*
X104209912Y-147837549D01*
X104236099Y-147567291D01*
X104296426Y-147301707D01*
X104390892Y-147044484D01*
X104519498Y-146799312D01*
X104682244Y-146569879D01*
X104769726Y-146469395D01*
X104987189Y-146263336D01*
X105223984Y-146092236D01*
X105478447Y-145956820D01*
X105748918Y-145857813D01*
X106033735Y-145795939D01*
X106331234Y-145771924D01*
X106369350Y-145771621D01*
X106577550Y-145771621D01*
X106577550Y-146100599D01*
G37*
G36*
X110211858Y-146101720D02*
G01*
X110211858Y-146431820D01*
X109996008Y-146432179D01*
X109755689Y-146449141D01*
X109532466Y-146500407D01*
X109320942Y-146587803D01*
X109115716Y-146713155D01*
X109073562Y-146743984D01*
X108917107Y-146884294D01*
X108778342Y-147053476D01*
X108663680Y-147241858D01*
X108579536Y-147439769D01*
X108553747Y-147527720D01*
X108540943Y-147578735D01*
X109165570Y-147578735D01*
X109790198Y-147578735D01*
X109790198Y-147910039D01*
X109790198Y-148241344D01*
X109165570Y-148241344D01*
X108540943Y-148241344D01*
X108553747Y-148292359D01*
X108622368Y-148491400D01*
X108724340Y-148685184D01*
X108853249Y-148864040D01*
X109002681Y-149018296D01*
X109073562Y-149076095D01*
X109275754Y-149208309D01*
X109482191Y-149302467D01*
X109698994Y-149360630D01*
X109932284Y-149384855D01*
X109994200Y-149385850D01*
X110211858Y-149385850D01*
X110211858Y-149717154D01*
X110211858Y-150048458D01*
X109985969Y-150046646D01*
X109875806Y-150043365D01*
X109762735Y-150036006D01*
X109663246Y-150025816D01*
X109616195Y-150018727D01*
X109335619Y-149947978D01*
X109070762Y-149841738D01*
X108824296Y-149702494D01*
X108598894Y-149532736D01*
X108397227Y-149334951D01*
X108221968Y-149111628D01*
X108075787Y-148865254D01*
X107961356Y-148598318D01*
X107908918Y-148428826D01*
X107888182Y-148346504D01*
X107873655Y-148274040D01*
X107864270Y-148200916D01*
X107858959Y-148116612D01*
X107856655Y-148010610D01*
X107856257Y-147910039D01*
X107857002Y-147780742D01*
X107859948Y-147681068D01*
X107866165Y-147600498D01*
X107876718Y-147528514D01*
X107892677Y-147454596D01*
X107908918Y-147391253D01*
X108003384Y-147111038D01*
X108130411Y-146851676D01*
X108287370Y-146615204D01*
X108471631Y-146403653D01*
X108680561Y-146219058D01*
X108911530Y-146063454D01*
X109161908Y-145938874D01*
X109429065Y-145847353D01*
X109710368Y-145790923D01*
X110003189Y-145771621D01*
X110003658Y-145771621D01*
X110211858Y-145771621D01*
X110211858Y-146101720D01*
G37*
%TO.C,LOGO6*%
G36*
X93437396Y-147705950D02*
G01*
X93444793Y-147718633D01*
X93461323Y-147747419D01*
X93486249Y-147791011D01*
X93518830Y-147848111D01*
X93558329Y-147917421D01*
X93604005Y-147997642D01*
X93655119Y-148087476D01*
X93710933Y-148185625D01*
X93770707Y-148290792D01*
X93833702Y-148401678D01*
X93891782Y-148503955D01*
X93957094Y-148618966D01*
X94019895Y-148729505D01*
X94079439Y-148834265D01*
X94134983Y-148931937D01*
X94185780Y-149021211D01*
X94231085Y-149100780D01*
X94270154Y-149169334D01*
X94302241Y-149225566D01*
X94326601Y-149268165D01*
X94342489Y-149295825D01*
X94348874Y-149306772D01*
X94359471Y-149327109D01*
X94361609Y-149337839D01*
X94360306Y-149338369D01*
X94350673Y-149333280D01*
X94324990Y-149318744D01*
X94284455Y-149295458D01*
X94230262Y-149264118D01*
X94163609Y-149225421D01*
X94085691Y-149180065D01*
X93997706Y-149128744D01*
X93900849Y-149072157D01*
X93796317Y-149010999D01*
X93685306Y-148945968D01*
X93569013Y-148877760D01*
X93527203Y-148853218D01*
X93409311Y-148783971D01*
X93296300Y-148717529D01*
X93189367Y-148654598D01*
X93089707Y-148595886D01*
X92998518Y-148542099D01*
X92916996Y-148493944D01*
X92846336Y-148452128D01*
X92787736Y-148417359D01*
X92742392Y-148390342D01*
X92711500Y-148371786D01*
X92696257Y-148362396D01*
X92694844Y-148361409D01*
X92699686Y-148353491D01*
X92718635Y-148337866D01*
X92748529Y-148316934D01*
X92779336Y-148297281D01*
X92910558Y-148210385D01*
X93033723Y-148116362D01*
X93146323Y-148017519D01*
X93245848Y-147916161D01*
X93329789Y-147814593D01*
X93373903Y-147750968D01*
X93420353Y-147678248D01*
X93437396Y-147705950D01*
G37*
G36*
X91857213Y-144942228D02*
G01*
X91872260Y-144966548D01*
X91895559Y-145005503D01*
X91926314Y-145057698D01*
X91963730Y-145121742D01*
X92007012Y-145196241D01*
X92055365Y-145279804D01*
X92107992Y-145371036D01*
X92164099Y-145468546D01*
X92222889Y-145570941D01*
X92283569Y-145676827D01*
X92345341Y-145784813D01*
X92407411Y-145893505D01*
X92468983Y-146001511D01*
X92529262Y-146107437D01*
X92587452Y-146209892D01*
X92642759Y-146307483D01*
X92694385Y-146398816D01*
X92741537Y-146482499D01*
X92783419Y-146557140D01*
X92819235Y-146621345D01*
X92848189Y-146673722D01*
X92869487Y-146712878D01*
X92882333Y-146737420D01*
X92886014Y-146745784D01*
X92878076Y-146758972D01*
X92855963Y-146779344D01*
X92823059Y-146804496D01*
X92782749Y-146832024D01*
X92738419Y-146859522D01*
X92693452Y-146884586D01*
X92683359Y-146889762D01*
X92570424Y-146938708D01*
X92443376Y-146979760D01*
X92306934Y-147011772D01*
X92165819Y-147033602D01*
X92051081Y-147043045D01*
X91869536Y-147056627D01*
X91705573Y-147079045D01*
X91558755Y-147110434D01*
X91428647Y-147150930D01*
X91314811Y-147200669D01*
X91216812Y-147259788D01*
X91134214Y-147328421D01*
X91133390Y-147329229D01*
X91056030Y-147405208D01*
X90828270Y-147271806D01*
X90753153Y-147227366D01*
X90694513Y-147191627D01*
X90651200Y-147163825D01*
X90622065Y-147143193D01*
X90605958Y-147128967D01*
X90601657Y-147120904D01*
X90606668Y-147110051D01*
X90620899Y-147083220D01*
X90643623Y-147041683D01*
X90674116Y-146986708D01*
X90711650Y-146919566D01*
X90755502Y-146841528D01*
X90804944Y-146753862D01*
X90859252Y-146657839D01*
X90917700Y-146554730D01*
X90979561Y-146445803D01*
X91044111Y-146332330D01*
X91110624Y-146215579D01*
X91178374Y-146096822D01*
X91246636Y-145977328D01*
X91314683Y-145858368D01*
X91381791Y-145741210D01*
X91447233Y-145627126D01*
X91510284Y-145517385D01*
X91570218Y-145413257D01*
X91626310Y-145316013D01*
X91677834Y-145226922D01*
X91724064Y-145147254D01*
X91764275Y-145078280D01*
X91797741Y-145021269D01*
X91823737Y-144977492D01*
X91841536Y-144948218D01*
X91850413Y-144934717D01*
X91851214Y-144933934D01*
X91857213Y-144942228D01*
G37*
G36*
X90578874Y-147682572D02*
G01*
X90640300Y-147718654D01*
X90696237Y-147751811D01*
X90744289Y-147780597D01*
X90782063Y-147803571D01*
X90807163Y-147819288D01*
X90817044Y-147826137D01*
X90817062Y-147838079D01*
X90807393Y-147864788D01*
X90787755Y-147906897D01*
X90757866Y-147965038D01*
X90741796Y-147995119D01*
X90702443Y-148070187D01*
X90672780Y-148132451D01*
X90651550Y-148185856D01*
X90637498Y-148234346D01*
X90629366Y-148281864D01*
X90625897Y-148332355D01*
X90625520Y-148360120D01*
X90626454Y-148404959D01*
X90629693Y-148448327D01*
X90635894Y-148493104D01*
X90645712Y-148542175D01*
X90659805Y-148598420D01*
X90678827Y-148664723D01*
X90703436Y-148743965D01*
X90734287Y-148839029D01*
X90735129Y-148841588D01*
X90816623Y-149089186D01*
X90854551Y-149089186D01*
X90886951Y-149094062D01*
X90923604Y-149106324D01*
X90936569Y-149112457D01*
X90987603Y-149150030D01*
X91029395Y-149204206D01*
X91062155Y-149275400D01*
X91086092Y-149364029D01*
X91097070Y-149431584D01*
X91102769Y-149473511D01*
X91107644Y-149499072D01*
X91113095Y-149511785D01*
X91120520Y-149515165D01*
X91129558Y-149513289D01*
X91175364Y-149488795D01*
X91213009Y-149446951D01*
X91227398Y-149421747D01*
X91227517Y-149421372D01*
X91461954Y-149421372D01*
X91467037Y-149463616D01*
X91481433Y-149490363D01*
X91525697Y-149527168D01*
X91576240Y-149546637D01*
X91603833Y-149549330D01*
X91629337Y-149547524D01*
X91650535Y-149539892D01*
X91673854Y-149523191D01*
X91697148Y-149502253D01*
X91728978Y-149467983D01*
X91758471Y-149425672D01*
X91774732Y-149396195D01*
X91826637Y-149396195D01*
X91830608Y-149425592D01*
X91839962Y-149438464D01*
X91889739Y-149468176D01*
X91949694Y-149485489D01*
X91989733Y-149488945D01*
X92024128Y-149488141D01*
X92047051Y-149482868D01*
X92067010Y-149469710D01*
X92088472Y-149449304D01*
X92110802Y-149425867D01*
X92122299Y-149407589D01*
X92125894Y-149386359D01*
X92124517Y-149354060D01*
X92124242Y-149350243D01*
X92117544Y-149304994D01*
X92103452Y-149271038D01*
X92094347Y-149257730D01*
X92075349Y-149238599D01*
X92046185Y-149215376D01*
X92011971Y-149191443D01*
X91977820Y-149170182D01*
X91948849Y-149154977D01*
X91930245Y-149149210D01*
X91922109Y-149158103D01*
X91911759Y-149181373D01*
X91901845Y-149212576D01*
X91887559Y-149254728D01*
X91868810Y-149296615D01*
X91855385Y-149320118D01*
X91835096Y-149359503D01*
X91826637Y-149396195D01*
X91774732Y-149396195D01*
X91789027Y-149370283D01*
X91796758Y-149354765D01*
X91823182Y-149297934D01*
X91839150Y-149254514D01*
X91844926Y-149221019D01*
X91840773Y-149193965D01*
X91826954Y-149169869D01*
X91811987Y-149153211D01*
X91787762Y-149131936D01*
X91764985Y-149121948D01*
X91733730Y-149119227D01*
X91727962Y-149119198D01*
X91695490Y-149121466D01*
X91667350Y-149130246D01*
X91635246Y-149148501D01*
X91622950Y-149156712D01*
X91570891Y-149196982D01*
X91531931Y-149239916D01*
X91499902Y-149292832D01*
X91488804Y-149315900D01*
X91469264Y-149370846D01*
X91461954Y-149421372D01*
X91227517Y-149421372D01*
X91243109Y-149372169D01*
X91249829Y-149308544D01*
X91248049Y-149234442D01*
X91238260Y-149153432D01*
X91220956Y-149069086D01*
X91196627Y-148984973D01*
X91165765Y-148904663D01*
X91152128Y-148875273D01*
X91109482Y-148788169D01*
X91128279Y-148716090D01*
X91142938Y-148628541D01*
X91141535Y-148543364D01*
X91124307Y-148464818D01*
X91112498Y-148435022D01*
X91098546Y-148402704D01*
X91088854Y-148376731D01*
X91085701Y-148363970D01*
X91091957Y-148352549D01*
X91108927Y-148329668D01*
X91133910Y-148298460D01*
X91164205Y-148262055D01*
X91197112Y-148223588D01*
X91229930Y-148186188D01*
X91259959Y-148152989D01*
X91284498Y-148127123D01*
X91300848Y-148111721D01*
X91305711Y-148108800D01*
X91316848Y-148112521D01*
X91317207Y-148124679D01*
X91306028Y-148146771D01*
X91282551Y-148180290D01*
X91246012Y-148226731D01*
X91245044Y-148227924D01*
X91208161Y-148274551D01*
X91183261Y-148310417D01*
X91168924Y-148339613D01*
X91163732Y-148366234D01*
X91166264Y-148394373D01*
X91175101Y-148428124D01*
X91175345Y-148428926D01*
X91180595Y-148454139D01*
X91185888Y-148492948D01*
X91190426Y-148538957D01*
X91192304Y-148564912D01*
X91194685Y-148618272D01*
X91193773Y-148658306D01*
X91189101Y-148691494D01*
X91181048Y-148721662D01*
X91163504Y-148777440D01*
X91201071Y-148838303D01*
X91222614Y-148878245D01*
X91240833Y-148920864D01*
X91250401Y-148951659D01*
X91258715Y-148982889D01*
X91267867Y-148999359D01*
X91281268Y-149006151D01*
X91287693Y-149007194D01*
X91314423Y-149001452D01*
X91343526Y-148981544D01*
X91370290Y-148952017D01*
X91390006Y-148917416D01*
X91394639Y-148903996D01*
X91405726Y-148833757D01*
X91399154Y-148764013D01*
X91374445Y-148692723D01*
X91331120Y-148617845D01*
X91325894Y-148610293D01*
X91301811Y-148572247D01*
X91289621Y-148544276D01*
X91288875Y-148531760D01*
X91295642Y-148511852D01*
X91306207Y-148482375D01*
X91311145Y-148468942D01*
X91321406Y-148430363D01*
X91323697Y-148387012D01*
X91321845Y-148357506D01*
X91315858Y-148291089D01*
X91362068Y-148234958D01*
X91390489Y-148202351D01*
X91410890Y-148184660D01*
X91426355Y-148180157D01*
X91439966Y-148187113D01*
X91442733Y-148189724D01*
X91445097Y-148201379D01*
X91437833Y-148224009D01*
X91420124Y-148259816D01*
X91409506Y-148279081D01*
X91375860Y-148349406D01*
X91355060Y-148416526D01*
X91348066Y-148476713D01*
X91350804Y-148507466D01*
X91359636Y-148537537D01*
X91375347Y-148575531D01*
X91395710Y-148617482D01*
X91418497Y-148659424D01*
X91441481Y-148697391D01*
X91462434Y-148727417D01*
X91479129Y-148745536D01*
X91486486Y-148749052D01*
X91499982Y-148740339D01*
X91514621Y-148718443D01*
X91527274Y-148689724D01*
X91534811Y-148660546D01*
X91535700Y-148649013D01*
X91529793Y-148617858D01*
X91513423Y-148575863D01*
X91497044Y-148543284D01*
X91458491Y-148472570D01*
X91483033Y-148393225D01*
X91501190Y-148338229D01*
X91518018Y-148294264D01*
X91532415Y-148263877D01*
X91543277Y-148249613D01*
X91545545Y-148248855D01*
X91557893Y-148254135D01*
X91570840Y-148262586D01*
X91580372Y-148271047D01*
X91582395Y-148280770D01*
X91575790Y-148296590D01*
X91559436Y-148323341D01*
X91555246Y-148329884D01*
X91527363Y-148388461D01*
X91518995Y-148446145D01*
X91530178Y-148501786D01*
X91548939Y-148537825D01*
X91571392Y-148565990D01*
X91590824Y-148575570D01*
X91609518Y-148566281D01*
X91629759Y-148537841D01*
X91635664Y-148527072D01*
X91649959Y-148497588D01*
X91655156Y-148475716D01*
X91652537Y-148451961D01*
X91648169Y-148434431D01*
X91641358Y-148401599D01*
X91637224Y-148367100D01*
X91636023Y-148336487D01*
X91638013Y-148315311D01*
X91642357Y-148308879D01*
X91652922Y-148313666D01*
X91677292Y-148326770D01*
X91712063Y-148346304D01*
X91753830Y-148370381D01*
X91762993Y-148375734D01*
X91877189Y-148442589D01*
X91814076Y-148497605D01*
X91712768Y-148592465D01*
X91625632Y-148687702D01*
X91553603Y-148781946D01*
X91497621Y-148873826D01*
X91458621Y-148961971D01*
X91437541Y-149045010D01*
X91436952Y-149049170D01*
X91431966Y-149090675D01*
X91427242Y-149138506D01*
X91423038Y-149188732D01*
X91419611Y-149237423D01*
X91417220Y-149280646D01*
X91416123Y-149314471D01*
X91416579Y-149334967D01*
X91417892Y-149339284D01*
X91425309Y-149331537D01*
X91440785Y-149310867D01*
X91461484Y-149281131D01*
X91470204Y-149268144D01*
X91523551Y-149193997D01*
X91573169Y-149138266D01*
X91620339Y-149099998D01*
X91666342Y-149078240D01*
X91712459Y-149072037D01*
X91731450Y-149073731D01*
X91767915Y-149083487D01*
X91802455Y-149099241D01*
X91807853Y-149102641D01*
X91832080Y-149118852D01*
X91850185Y-149130657D01*
X91852632Y-149132186D01*
X91864046Y-149127837D01*
X91885036Y-149108220D01*
X91914169Y-149074775D01*
X91914636Y-149074191D01*
X91996643Y-149074191D01*
X92001966Y-149099480D01*
X92016231Y-149122136D01*
X92049048Y-149153375D01*
X92092126Y-149180834D01*
X92135842Y-149198489D01*
X92139698Y-149199442D01*
X92187366Y-149202555D01*
X92227735Y-149187516D01*
X92246158Y-149172746D01*
X92260220Y-149156472D01*
X92267636Y-149137864D01*
X92270256Y-149110218D01*
X92270281Y-149085399D01*
X92263607Y-149027057D01*
X92246633Y-148975106D01*
X92221393Y-148932750D01*
X92189920Y-148903190D01*
X92154245Y-148889627D01*
X92145667Y-148889107D01*
X92129955Y-148892007D01*
X92113118Y-148902557D01*
X92091935Y-148923527D01*
X92063183Y-148957693D01*
X92056980Y-148965427D01*
X92023260Y-149010587D01*
X92003444Y-149045701D01*
X91996643Y-149074191D01*
X91914636Y-149074191D01*
X91932588Y-149051723D01*
X92012605Y-148952139D01*
X92094817Y-148855326D01*
X92174020Y-148767351D01*
X92202344Y-148737396D01*
X92266404Y-148670719D01*
X93019081Y-149111268D01*
X93148209Y-149186845D01*
X93284485Y-149266598D01*
X93425185Y-149348934D01*
X93567585Y-149432260D01*
X93708962Y-149514981D01*
X93846591Y-149595505D01*
X93977749Y-149672237D01*
X94099712Y-149743584D01*
X94209757Y-149807952D01*
X94301967Y-149861881D01*
X94396256Y-149917073D01*
X94485488Y-149969405D01*
X94568150Y-150017985D01*
X94642731Y-150061919D01*
X94707717Y-150100312D01*
X94761597Y-150132272D01*
X94802859Y-150156904D01*
X94829989Y-150173316D01*
X94841476Y-150180613D01*
X94841679Y-150180782D01*
X94832629Y-150181558D01*
X94804210Y-150182310D01*
X94757063Y-150183037D01*
X94691826Y-150183735D01*
X94609140Y-150184405D01*
X94509645Y-150185042D01*
X94393979Y-150185647D01*
X94262783Y-150186216D01*
X94116695Y-150186748D01*
X93956357Y-150187241D01*
X93782406Y-150187693D01*
X93595484Y-150188103D01*
X93396229Y-150188467D01*
X93185281Y-150188786D01*
X92963280Y-150189055D01*
X92730865Y-150189275D01*
X92488676Y-150189442D01*
X92237353Y-150189555D01*
X91977535Y-150189612D01*
X91847744Y-150189619D01*
X88844306Y-150189619D01*
X88858550Y-150162071D01*
X88865228Y-150150050D01*
X88881155Y-150121845D01*
X88905654Y-150078640D01*
X88938048Y-150021624D01*
X88977661Y-149951983D01*
X89023815Y-149870902D01*
X89075832Y-149779570D01*
X89133036Y-149679171D01*
X89194750Y-149570894D01*
X89260295Y-149455924D01*
X89328996Y-149335448D01*
X89400175Y-149210653D01*
X89439392Y-149141908D01*
X90835602Y-149141908D01*
X90839216Y-149170601D01*
X90848909Y-149212010D01*
X90862957Y-149260423D01*
X90879636Y-149310132D01*
X90897221Y-149355427D01*
X90905985Y-149374991D01*
X90924528Y-149408791D01*
X90948138Y-149444798D01*
X90973599Y-149478904D01*
X90997698Y-149507002D01*
X91017220Y-149524982D01*
X91026775Y-149529359D01*
X91036722Y-149521071D01*
X91046922Y-149501848D01*
X91053722Y-149465574D01*
X91052854Y-149416728D01*
X91045452Y-149360709D01*
X91032649Y-149302915D01*
X91015579Y-149248742D01*
X90995374Y-149203590D01*
X90979207Y-149179320D01*
X90937993Y-149142289D01*
X90892299Y-149122269D01*
X90866111Y-149119198D01*
X90844265Y-149121945D01*
X90836241Y-149133052D01*
X90835602Y-149141908D01*
X89439392Y-149141908D01*
X89473155Y-149082725D01*
X89547258Y-148952851D01*
X89621808Y-148822217D01*
X89696127Y-148692010D01*
X89769538Y-148563416D01*
X89841364Y-148437623D01*
X89910928Y-148315816D01*
X89977552Y-148199182D01*
X90040561Y-148088908D01*
X90099275Y-147986181D01*
X90153019Y-147892186D01*
X90201114Y-147808111D01*
X90242884Y-147735141D01*
X90277653Y-147674465D01*
X90304741Y-147627267D01*
X90323473Y-147594736D01*
X90333171Y-147578056D01*
X90334140Y-147576445D01*
X90350987Y-147549289D01*
X90578874Y-147682572D01*
G37*
%TO.C,X1*%
D16*
X56475000Y-80370000D02*
X56475000Y-113630000D01*
X56475000Y-113630000D02*
X65525000Y-113630000D01*
X65500000Y-80370000D02*
X56475000Y-80370000D01*
X65500000Y-82835000D02*
X65500000Y-80370000D01*
X65500000Y-82835000D02*
X65800000Y-82835000D01*
X65525000Y-110115000D02*
X65500000Y-83885000D01*
X65525000Y-111165000D02*
X65775000Y-111165000D01*
X65525000Y-113630000D02*
X65525000Y-111165000D01*
X65775000Y-110115000D02*
X65525000Y-110115000D01*
X65775000Y-111165000D02*
X65775000Y-110115000D01*
X65800000Y-82835000D02*
X65800000Y-83885000D01*
X65800000Y-83885000D02*
X65500000Y-83885000D01*
%TO.C,C4*%
D17*
X74769420Y-121010769D02*
X75050580Y-121010769D01*
X74769420Y-122030769D02*
X75050580Y-122030769D01*
D15*
%TO.C,LOGO4*%
G36*
X127373534Y-64385482D02*
G01*
X127427500Y-64414412D01*
X127467838Y-64459102D01*
X127488871Y-64508701D01*
X127490893Y-64533378D01*
X127490030Y-64574996D01*
X127486545Y-64627410D01*
X127481706Y-64675954D01*
X127474475Y-64827239D01*
X127488013Y-64978041D01*
X127522676Y-65129484D01*
X127578822Y-65282693D01*
X127656807Y-65438791D01*
X127756989Y-65598903D01*
X127789490Y-65645198D01*
X127844483Y-65715835D01*
X127914240Y-65796145D01*
X127994760Y-65881988D01*
X128082043Y-65969222D01*
X128172087Y-66053704D01*
X128251117Y-66123063D01*
X128374129Y-66232184D01*
X128476672Y-66334654D01*
X128559937Y-66432422D01*
X128625113Y-66527437D01*
X128673390Y-66621647D01*
X128705958Y-66717001D01*
X128724006Y-66815449D01*
X128728823Y-66905464D01*
X128726571Y-66971036D01*
X128718659Y-67024665D01*
X128703355Y-67077379D01*
X128700594Y-67085119D01*
X128650058Y-67191099D01*
X128580821Y-67285174D01*
X128495305Y-67365289D01*
X128395929Y-67429385D01*
X128285113Y-67475407D01*
X128221989Y-67491890D01*
X128158673Y-67501045D01*
X128079297Y-67506268D01*
X127990770Y-67507561D01*
X127899998Y-67504929D01*
X127813890Y-67498377D01*
X127760926Y-67491591D01*
X127564291Y-67450824D01*
X127372450Y-67391330D01*
X127187184Y-67314513D01*
X127010278Y-67221776D01*
X126843513Y-67114522D01*
X126688672Y-66994156D01*
X126547540Y-66862081D01*
X126421898Y-66719700D01*
X126313530Y-66568416D01*
X126224218Y-66409634D01*
X126155746Y-66244757D01*
X126148175Y-66222043D01*
X126106544Y-66056031D01*
X126086951Y-65885500D01*
X126087030Y-65879277D01*
X126215931Y-65879277D01*
X126224621Y-65966376D01*
X126259704Y-66134674D01*
X126317116Y-66297786D01*
X126396301Y-66454906D01*
X126496702Y-66605223D01*
X126617760Y-66747931D01*
X126758918Y-66882221D01*
X126919618Y-67007286D01*
X126964001Y-67037835D01*
X127106914Y-67124996D01*
X127258007Y-67200961D01*
X127413963Y-67264806D01*
X127571464Y-67315610D01*
X127727194Y-67352450D01*
X127877836Y-67374402D01*
X128020074Y-67380546D01*
X128150590Y-67369959D01*
X128155420Y-67369190D01*
X128264585Y-67341582D01*
X128361200Y-67297287D01*
X128443635Y-67238166D01*
X128510257Y-67166080D01*
X128559436Y-67082889D01*
X128589539Y-66990454D01*
X128598937Y-66890635D01*
X128597850Y-66864599D01*
X128585942Y-66778923D01*
X128561392Y-66696006D01*
X128522862Y-66613878D01*
X128469016Y-66530567D01*
X128398517Y-66444101D01*
X128310030Y-66352511D01*
X128202216Y-66253824D01*
X128157906Y-66215749D01*
X128075493Y-66143235D01*
X127990566Y-66063655D01*
X127907636Y-65981554D01*
X127831211Y-65901480D01*
X127765803Y-65827979D01*
X127730653Y-65785014D01*
X127610212Y-65616228D01*
X127511859Y-65446893D01*
X127435775Y-65277563D01*
X127382137Y-65108787D01*
X127351124Y-64941118D01*
X127342915Y-64775107D01*
X127355379Y-64626168D01*
X127361895Y-64572920D01*
X127361214Y-64536150D01*
X127350664Y-64514292D01*
X127327569Y-64505779D01*
X127289256Y-64509045D01*
X127233051Y-64522525D01*
X127196219Y-64532948D01*
X127038203Y-64590007D01*
X126890188Y-64665709D01*
X126753433Y-64758195D01*
X126629198Y-64865606D01*
X126518742Y-64986084D01*
X126423326Y-65117770D01*
X126344210Y-65258806D01*
X126282652Y-65407333D01*
X126239913Y-65561493D01*
X126217253Y-65719427D01*
X126215931Y-65879277D01*
X126087030Y-65879277D01*
X126089149Y-65712747D01*
X126112892Y-65540067D01*
X126157934Y-65369759D01*
X126224029Y-65204118D01*
X126266108Y-65121552D01*
X126342716Y-64999723D01*
X126436287Y-64879614D01*
X126541590Y-64766951D01*
X126653396Y-64667459D01*
X126737680Y-64605388D01*
X126820993Y-64554039D01*
X126911185Y-64505932D01*
X127003909Y-64462815D01*
X127094819Y-64426438D01*
X127179569Y-64398549D01*
X127253814Y-64380896D01*
X127309811Y-64375198D01*
X127373534Y-64385482D01*
G37*
G36*
X126703485Y-62796752D02*
G01*
X126877216Y-62834452D01*
X126944190Y-62855136D01*
X127100191Y-62917032D01*
X127243719Y-62994974D01*
X127378200Y-63091181D01*
X127507058Y-63207874D01*
X127538979Y-63240702D01*
X127658961Y-63383312D01*
X127758331Y-63536786D01*
X127837125Y-63701189D01*
X127889796Y-63856104D01*
X127907349Y-63939424D01*
X127908442Y-64007726D01*
X127892606Y-64062943D01*
X127859372Y-64107007D01*
X127822186Y-64134227D01*
X127795871Y-64146793D01*
X127766217Y-64153898D01*
X127728465Y-64155740D01*
X127677860Y-64152517D01*
X127609641Y-64144427D01*
X127601877Y-64143386D01*
X127468572Y-64136478D01*
X127328124Y-64150092D01*
X127182981Y-64183512D01*
X127035590Y-64236022D01*
X126888397Y-64306905D01*
X126746167Y-64393867D01*
X126646222Y-64465582D01*
X126551315Y-64542045D01*
X126457907Y-64626580D01*
X126362454Y-64722514D01*
X126261417Y-64833171D01*
X126189017Y-64916987D01*
X126140803Y-64972213D01*
X126090272Y-65027347D01*
X126042557Y-65076960D01*
X126002786Y-65115625D01*
X125992722Y-65124670D01*
X125876154Y-65214936D01*
X125758144Y-65283726D01*
X125639720Y-65330664D01*
X125521913Y-65355373D01*
X125405752Y-65357479D01*
X125367401Y-65353066D01*
X125276632Y-65329113D01*
X125185727Y-65286308D01*
X125100216Y-65228402D01*
X125025627Y-65159146D01*
X124967487Y-65082293D01*
X124966860Y-65081253D01*
X124924196Y-65002367D01*
X124894506Y-64926460D01*
X124875617Y-64845886D01*
X124865361Y-64753000D01*
X124863710Y-64721971D01*
X124992559Y-64721971D01*
X125008763Y-64839164D01*
X125041849Y-64942119D01*
X125092167Y-65032101D01*
X125128073Y-65077377D01*
X125202228Y-65143885D01*
X125287974Y-65191450D01*
X125382140Y-65219160D01*
X125481554Y-65226104D01*
X125583045Y-65211369D01*
X125588778Y-65209871D01*
X125679268Y-65176602D01*
X125774605Y-65124885D01*
X125869855Y-65057422D01*
X125875853Y-65052615D01*
X125905160Y-65028595D01*
X125930990Y-65006209D01*
X125955995Y-64982638D01*
X125982829Y-64955059D01*
X126014143Y-64920652D01*
X126052591Y-64876596D01*
X126100823Y-64820069D01*
X126156760Y-64753868D01*
X126296889Y-64599843D01*
X126443640Y-64461663D01*
X126595484Y-64340136D01*
X126750893Y-64236073D01*
X126908337Y-64150284D01*
X127066288Y-64083579D01*
X127223217Y-64036769D01*
X127377594Y-64010663D01*
X127527892Y-64006073D01*
X127563686Y-64008303D01*
X127643688Y-64014653D01*
X127702870Y-64017743D01*
X127743659Y-64015872D01*
X127768486Y-64007344D01*
X127779779Y-63990459D01*
X127779968Y-63963519D01*
X127771482Y-63924825D01*
X127756901Y-63873205D01*
X127698763Y-63711739D01*
X127620674Y-63560254D01*
X127524367Y-63420448D01*
X127411573Y-63294020D01*
X127284026Y-63182671D01*
X127143458Y-63088099D01*
X126991601Y-63012003D01*
X126830188Y-62956083D01*
X126818718Y-62953006D01*
X126656345Y-62921382D01*
X126495925Y-62912706D01*
X126336764Y-62927057D01*
X126178169Y-62964511D01*
X126019444Y-63025145D01*
X125973273Y-63047085D01*
X125878556Y-63097065D01*
X125795521Y-63148242D01*
X125718018Y-63205136D01*
X125639894Y-63272266D01*
X125554998Y-63354155D01*
X125553823Y-63355336D01*
X125419603Y-63505995D01*
X125301258Y-63671006D01*
X125200044Y-63847613D01*
X125117212Y-64033059D01*
X125054017Y-64224587D01*
X125011710Y-64419441D01*
X124992886Y-64589275D01*
X124992559Y-64721971D01*
X124863710Y-64721971D01*
X124863436Y-64716818D01*
X124866594Y-64532432D01*
X124890546Y-64346924D01*
X124933968Y-64162401D01*
X124995534Y-63980971D01*
X125073920Y-63804742D01*
X125167801Y-63635821D01*
X125275852Y-63476317D01*
X125396747Y-63328337D01*
X125529161Y-63193989D01*
X125671771Y-63075380D01*
X125823250Y-62974619D01*
X125982273Y-62893812D01*
X126019020Y-62878572D01*
X126188197Y-62823234D01*
X126358790Y-62791148D01*
X126530615Y-62782319D01*
X126703485Y-62796752D01*
G37*
G36*
X130394260Y-63614464D02*
G01*
X130498148Y-63652205D01*
X130593658Y-63709377D01*
X130678709Y-63785294D01*
X130751221Y-63879274D01*
X130792212Y-63952953D01*
X130821020Y-64021096D01*
X130841124Y-64090335D01*
X130853373Y-64166007D01*
X130858616Y-64253450D01*
X130857701Y-64357998D01*
X130857516Y-64363547D01*
X130838752Y-64573583D01*
X130796932Y-64780300D01*
X130732053Y-64983709D01*
X130644110Y-65183820D01*
X130533101Y-65380646D01*
X130493802Y-65441299D01*
X130368962Y-65610570D01*
X130233290Y-65761427D01*
X130087798Y-65893147D01*
X129933497Y-66005002D01*
X129771397Y-66096267D01*
X129602509Y-66166216D01*
X129427844Y-66214124D01*
X129412929Y-66217125D01*
X129305859Y-66232133D01*
X129188056Y-66238580D01*
X129068567Y-66236492D01*
X128956438Y-66225891D01*
X128897768Y-66215732D01*
X128719306Y-66166470D01*
X128548691Y-66095980D01*
X128387969Y-66005603D01*
X128239190Y-65896684D01*
X128104400Y-65770562D01*
X127985647Y-65628580D01*
X127971064Y-65608422D01*
X127924105Y-65535918D01*
X127878217Y-65453303D01*
X127835233Y-65365040D01*
X127796983Y-65275589D01*
X127765301Y-65189412D01*
X127742018Y-65110970D01*
X127728966Y-65044724D01*
X127726805Y-65013568D01*
X127727297Y-65010488D01*
X127859441Y-65010488D01*
X127864597Y-65055913D01*
X127881073Y-65119541D01*
X127889695Y-65147623D01*
X127954738Y-65316445D01*
X128038807Y-65472360D01*
X128140869Y-65614321D01*
X128259892Y-65741283D01*
X128394844Y-65852201D01*
X128544691Y-65946027D01*
X128708402Y-66021716D01*
X128776906Y-66046468D01*
X128938999Y-66089066D01*
X129102032Y-66109169D01*
X129264022Y-66106613D01*
X129359909Y-66094133D01*
X129526840Y-66053321D01*
X129688440Y-65990535D01*
X129843577Y-65906725D01*
X129991119Y-65802837D01*
X130129932Y-65679821D01*
X130258884Y-65538624D01*
X130376843Y-65380195D01*
X130482676Y-65205481D01*
X130529351Y-65115060D01*
X130599725Y-64959273D01*
X130653151Y-64812797D01*
X130690920Y-64670447D01*
X130714326Y-64527035D01*
X130724663Y-64377374D01*
X130725417Y-64328592D01*
X130725328Y-64256601D01*
X130724063Y-64202739D01*
X130721097Y-64161844D01*
X130715907Y-64128751D01*
X130707968Y-64098299D01*
X130699471Y-64072891D01*
X130652278Y-63968961D01*
X130590335Y-63882709D01*
X130512626Y-63812988D01*
X130423285Y-63761024D01*
X130386462Y-63745248D01*
X130353485Y-63735621D01*
X130316326Y-63730713D01*
X130266959Y-63729099D01*
X130243502Y-63729051D01*
X130184499Y-63730355D01*
X130140062Y-63734903D01*
X130101525Y-63744142D01*
X130060220Y-63759520D01*
X130059658Y-63759753D01*
X129974275Y-63800177D01*
X129893332Y-63849383D01*
X129813748Y-63909904D01*
X129732445Y-63984271D01*
X129646341Y-64075015D01*
X129573207Y-64159581D01*
X129410191Y-64341521D01*
X129244541Y-64501313D01*
X129076535Y-64638768D01*
X128906452Y-64753700D01*
X128734571Y-64845921D01*
X128561170Y-64915244D01*
X128386529Y-64961483D01*
X128376041Y-64963514D01*
X128309741Y-64972733D01*
X128231187Y-64978472D01*
X128148162Y-64980618D01*
X128068451Y-64979061D01*
X127999837Y-64973688D01*
X127970931Y-64969313D01*
X127921351Y-64962678D01*
X127886873Y-64965946D01*
X127866552Y-64981190D01*
X127859441Y-65010488D01*
X127727297Y-65010488D01*
X127737047Y-64949449D01*
X127767619Y-64896699D01*
X127816824Y-64856570D01*
X127868857Y-64826077D01*
X128000867Y-64841282D01*
X128070871Y-64847455D01*
X128143551Y-64850713D01*
X128208339Y-64850676D01*
X128231049Y-64849559D01*
X128381770Y-64827850D01*
X128535685Y-64784363D01*
X128691111Y-64720108D01*
X128846366Y-64636094D01*
X128999766Y-64533330D01*
X129149628Y-64412825D01*
X129294269Y-64275589D01*
X129420326Y-64136551D01*
X129509066Y-64033336D01*
X129587101Y-63946971D01*
X129656996Y-63875148D01*
X129721311Y-63815559D01*
X129782609Y-63765896D01*
X129843451Y-63723851D01*
X129906399Y-63687115D01*
X129936520Y-63671488D01*
X130053123Y-63624665D01*
X130169668Y-63600010D01*
X130284073Y-63596838D01*
X130394260Y-63614464D01*
G37*
G36*
X127715154Y-61550397D02*
G01*
X127794405Y-61551054D01*
X127856539Y-61552840D01*
X127907735Y-61556352D01*
X127954171Y-61562184D01*
X128002026Y-61570932D01*
X128057479Y-61583192D01*
X128058869Y-61583514D01*
X128272051Y-61644605D01*
X128475582Y-61726372D01*
X128668152Y-61828085D01*
X128848450Y-61949018D01*
X129015165Y-62088442D01*
X129078365Y-62149845D01*
X129209340Y-62297387D01*
X129318572Y-62452168D01*
X129405841Y-62613786D01*
X129470927Y-62781840D01*
X129511081Y-62942079D01*
X129519495Y-63008150D01*
X129523796Y-63089391D01*
X129524100Y-63178054D01*
X129520525Y-63266392D01*
X129513186Y-63346660D01*
X129504170Y-63402308D01*
X129454826Y-63580406D01*
X129385012Y-63748141D01*
X129295714Y-63904208D01*
X129187917Y-64047307D01*
X129062605Y-64176134D01*
X128920765Y-64289385D01*
X128763381Y-64385759D01*
X128758736Y-64388215D01*
X128675650Y-64428403D01*
X128591591Y-64462631D01*
X128510310Y-64489877D01*
X128435557Y-64509118D01*
X128371080Y-64519330D01*
X128320631Y-64519492D01*
X128297722Y-64513966D01*
X128252327Y-64485290D01*
X128213657Y-64442987D01*
X128191801Y-64401116D01*
X128185777Y-64372880D01*
X128184794Y-64336109D01*
X128188903Y-64285201D01*
X128193181Y-64250430D01*
X128202037Y-64095266D01*
X128187716Y-63939385D01*
X128150323Y-63782985D01*
X128089966Y-63626266D01*
X128006752Y-63469427D01*
X127900789Y-63312668D01*
X127772182Y-63156188D01*
X127621038Y-63000186D01*
X127447466Y-62844862D01*
X127432366Y-62832265D01*
X127320170Y-62732484D01*
X127227488Y-62635018D01*
X127151245Y-62536470D01*
X127118144Y-62485431D01*
X127060362Y-62371156D01*
X127025067Y-62256804D01*
X127011588Y-62144247D01*
X127012428Y-62132308D01*
X127150473Y-62132308D01*
X127151953Y-62195051D01*
X127156649Y-62242454D01*
X127165720Y-62282387D01*
X127177463Y-62315649D01*
X127208017Y-62381812D01*
X127247555Y-62447510D01*
X127297988Y-62514949D01*
X127361230Y-62586335D01*
X127439193Y-62663876D01*
X127533788Y-62749777D01*
X127611794Y-62816796D01*
X127765727Y-62957537D01*
X127903867Y-63106106D01*
X128025000Y-63260634D01*
X128127911Y-63419251D01*
X128211384Y-63580088D01*
X128274205Y-63741276D01*
X128314610Y-63898036D01*
X128325658Y-63979030D01*
X128331348Y-64071383D01*
X128331514Y-64165363D01*
X128325992Y-64251242D01*
X128321235Y-64286952D01*
X128316557Y-64332482D01*
X128321268Y-64363839D01*
X128337513Y-64381771D01*
X128367434Y-64387024D01*
X128413177Y-64380346D01*
X128476886Y-64362482D01*
X128508491Y-64352168D01*
X128668005Y-64286916D01*
X128815597Y-64202805D01*
X128949839Y-64101456D01*
X129069302Y-63984494D01*
X129172558Y-63853542D01*
X129258178Y-63710224D01*
X129324734Y-63556164D01*
X129370798Y-63392985D01*
X129376222Y-63365867D01*
X129388352Y-63270638D01*
X129392155Y-63164247D01*
X129387976Y-63054791D01*
X129376162Y-62950369D01*
X129357057Y-62859081D01*
X129354136Y-62848868D01*
X129316317Y-62737105D01*
X129270687Y-62634071D01*
X129213017Y-62530866D01*
X129174231Y-62470198D01*
X129108658Y-62381533D01*
X129027697Y-62288124D01*
X128936848Y-62195550D01*
X128841613Y-62109392D01*
X128747493Y-62035231D01*
X128740475Y-62030195D01*
X128663898Y-61980027D01*
X128572637Y-61927182D01*
X128473335Y-61874992D01*
X128372640Y-61826792D01*
X128277194Y-61785917D01*
X128193643Y-61755698D01*
X128192860Y-61755452D01*
X128060553Y-61719402D01*
X127927094Y-61693381D01*
X127797601Y-61677981D01*
X127677190Y-61673796D01*
X127570977Y-61681418D01*
X127563686Y-61682489D01*
X127462450Y-61707989D01*
X127369580Y-61751003D01*
X127288569Y-61809098D01*
X127222911Y-61879841D01*
X127181565Y-61948567D01*
X127166585Y-61983313D01*
X127157266Y-62014712D01*
X127152346Y-62050213D01*
X127150566Y-62097268D01*
X127150473Y-62132308D01*
X127012428Y-62132308D01*
X127019249Y-62035355D01*
X127047378Y-61931997D01*
X127095302Y-61836044D01*
X127162347Y-61749367D01*
X127247839Y-61673834D01*
X127351107Y-61611317D01*
X127447172Y-61571553D01*
X127475303Y-61563256D01*
X127506206Y-61557338D01*
X127544268Y-61553452D01*
X127593872Y-61551253D01*
X127659407Y-61550393D01*
X127715154Y-61550397D01*
G37*
%TO.C,C3*%
D17*
X72534420Y-102850000D02*
X72815580Y-102850000D01*
X72534420Y-103870000D02*
X72815580Y-103870000D01*
%TO.C,X3*%
D16*
X56520000Y-120825000D02*
X56520000Y-135175000D01*
X56520000Y-135175000D02*
X66250000Y-135175000D01*
X66250000Y-120825000D02*
X56520000Y-120825000D01*
X73020000Y-120825000D02*
X70350000Y-120825000D01*
X73020000Y-120825000D02*
X73020000Y-135175000D01*
X73020000Y-135175000D02*
X70350000Y-135175000D01*
%TO.C,C2*%
D17*
X72534420Y-109899362D02*
X72815580Y-109899362D01*
X72534420Y-110919362D02*
X72815580Y-110919362D01*
%TO.C,C1*%
X72534420Y-107956681D02*
X72815580Y-107956681D01*
X72534420Y-108976681D02*
X72815580Y-108976681D01*
D15*
%TO.C,LOGO3*%
G36*
X79895528Y-145226499D02*
G01*
X79929451Y-145402649D01*
X79959354Y-145541816D01*
X79980594Y-145623036D01*
X79986053Y-145635064D01*
X80052647Y-145673089D01*
X80171061Y-145725611D01*
X80308712Y-145779852D01*
X80433020Y-145823032D01*
X80511404Y-145842370D01*
X80514903Y-145842505D01*
X80584861Y-145818663D01*
X80704839Y-145755430D01*
X80851778Y-145665247D01*
X80888578Y-145640917D01*
X81032918Y-145546915D01*
X81149373Y-145476301D01*
X81217746Y-145441166D01*
X81225373Y-145439330D01*
X81271193Y-145469164D01*
X81362698Y-145548886D01*
X81483449Y-145663827D01*
X81539316Y-145719464D01*
X81816960Y-145999599D01*
X81595670Y-146313027D01*
X81494673Y-146463697D01*
X81418101Y-146592455D01*
X81378298Y-146677980D01*
X81375335Y-146693651D01*
X81394637Y-146767958D01*
X81443701Y-146891880D01*
X81496876Y-147007231D01*
X81617461Y-147253616D01*
X81908642Y-147309409D01*
X82123163Y-147349150D01*
X82265411Y-147380622D01*
X82349585Y-147419007D01*
X82389883Y-147479483D01*
X82400503Y-147577232D01*
X82395645Y-147727433D01*
X82391876Y-147826051D01*
X82379013Y-148239154D01*
X82087831Y-148294947D01*
X81876831Y-148336161D01*
X81737736Y-148366930D01*
X81654334Y-148393005D01*
X81610412Y-148420138D01*
X81589757Y-148454081D01*
X81583524Y-148473849D01*
X81554732Y-148558784D01*
X81505041Y-148690999D01*
X81468789Y-148782953D01*
X81376299Y-149013172D01*
X81600506Y-149331405D01*
X81824713Y-149649638D01*
X81587755Y-149900186D01*
X81464478Y-150025940D01*
X81357155Y-150127291D01*
X81286531Y-150184780D01*
X81280587Y-150188310D01*
X81212483Y-150189619D01*
X81098386Y-150139034D01*
X80928867Y-150032258D01*
X80909996Y-150019351D01*
X80609616Y-149812816D01*
X80447234Y-149890250D01*
X80341743Y-149935336D01*
X80276476Y-149953432D01*
X80269015Y-149951848D01*
X80247412Y-149907068D01*
X80198181Y-149793886D01*
X80127510Y-149626867D01*
X80041590Y-149420576D01*
X79988693Y-149292285D01*
X79724208Y-148648558D01*
X79937518Y-148440788D01*
X80115778Y-148214884D01*
X80210705Y-147973023D01*
X80222158Y-147726471D01*
X80149998Y-147486498D01*
X79994085Y-147264369D01*
X79952621Y-147222868D01*
X79741169Y-147077216D01*
X79509774Y-147008828D01*
X79273915Y-147012671D01*
X79049069Y-147083715D01*
X78850714Y-147216926D01*
X78694327Y-147407273D01*
X78595387Y-147649724D01*
X78591730Y-147665311D01*
X78579726Y-147914854D01*
X78653898Y-148158719D01*
X78810910Y-148387355D01*
X78862483Y-148440788D01*
X79075793Y-148648558D01*
X78811308Y-149292285D01*
X78719184Y-149514749D01*
X78638394Y-149706542D01*
X78575236Y-149852970D01*
X78536009Y-149939338D01*
X78526838Y-149955997D01*
X78479826Y-149948569D01*
X78395038Y-149902717D01*
X78286969Y-149845400D01*
X78192717Y-149839515D01*
X78082838Y-149888863D01*
X77984411Y-149955735D01*
X77812300Y-150081103D01*
X77694129Y-150158375D01*
X77607856Y-150186926D01*
X77531438Y-150166134D01*
X77442831Y-150095373D01*
X77319992Y-149974021D01*
X77281485Y-149935837D01*
X76981741Y-149640479D01*
X77202722Y-149326826D01*
X77423702Y-149013172D01*
X77331212Y-148782953D01*
X77275117Y-148639198D01*
X77231567Y-148520214D01*
X77216477Y-148473849D01*
X77201128Y-148434766D01*
X77170071Y-148405174D01*
X77107092Y-148379321D01*
X76995980Y-148351456D01*
X76820522Y-148315827D01*
X76712170Y-148294947D01*
X76420988Y-148239154D01*
X76408125Y-147826051D01*
X76400857Y-147644210D01*
X76402027Y-147522349D01*
X76425834Y-147445288D01*
X76486477Y-147397846D01*
X76598152Y-147364843D01*
X76775060Y-147331100D01*
X76891358Y-147309409D01*
X77182540Y-147253616D01*
X77303125Y-147007231D01*
X77367718Y-146865085D01*
X77411858Y-146748538D01*
X77424666Y-146693651D01*
X77400499Y-146628103D01*
X77335283Y-146511926D01*
X77241361Y-146366442D01*
X77204331Y-146313027D01*
X76983041Y-145999599D01*
X77260685Y-145719464D01*
X77390124Y-145593886D01*
X77498906Y-145497544D01*
X77569986Y-145445163D01*
X77584421Y-145439813D01*
X77640850Y-145464202D01*
X77748732Y-145528373D01*
X77886941Y-145619577D01*
X77918456Y-145641400D01*
X78065402Y-145737387D01*
X78192328Y-145808459D01*
X78275513Y-145841578D01*
X78284319Y-145842505D01*
X78361016Y-145826019D01*
X78484554Y-145784949D01*
X78622405Y-145731871D01*
X78742043Y-145679363D01*
X78810941Y-145640003D01*
X78813030Y-145638058D01*
X78829333Y-145588047D01*
X78856294Y-145470942D01*
X78889208Y-145307915D01*
X78904473Y-145226499D01*
X78976288Y-144834568D01*
X79400000Y-144834568D01*
X79823713Y-144834568D01*
X79895528Y-145226499D01*
G37*
%TO.C,R1*%
D17*
X77933731Y-119498269D02*
X78408247Y-119498269D01*
X77933731Y-120543269D02*
X78408247Y-120543269D01*
D15*
%TO.C,LOGO5*%
G36*
X87341699Y-149762432D02*
G01*
X87341699Y-150189619D01*
X85597773Y-150189619D01*
X83853848Y-150189619D01*
X83853848Y-149762432D01*
X83853848Y-149335246D01*
X85597773Y-149335246D01*
X87341699Y-149335246D01*
X87341699Y-149762432D01*
G37*
G36*
X86355813Y-147615911D02*
G01*
X86392718Y-147637467D01*
X86420038Y-147671347D01*
X86433243Y-147713329D01*
X86429657Y-147758006D01*
X86410345Y-147796124D01*
X86379224Y-147824774D01*
X86340215Y-147841048D01*
X86297237Y-147842039D01*
X86270742Y-147833894D01*
X86233970Y-147807868D01*
X86211411Y-147772166D01*
X86203066Y-147731333D01*
X86208940Y-147689913D01*
X86229035Y-147652452D01*
X86263354Y-147623495D01*
X86270594Y-147619749D01*
X86313659Y-147609173D01*
X86355813Y-147615911D01*
G37*
G36*
X87733705Y-144258786D02*
G01*
X87733705Y-144328387D01*
X87280644Y-144790535D01*
X86827582Y-145252684D01*
X86828680Y-145469628D01*
X86829778Y-145686572D01*
X86693732Y-145686572D01*
X86644062Y-145686882D01*
X86602517Y-145687734D01*
X86572754Y-145689006D01*
X86558432Y-145690578D01*
X86557686Y-145691046D01*
X86556775Y-145701527D01*
X86554136Y-145730468D01*
X86549915Y-145776311D01*
X86544256Y-145837501D01*
X86537303Y-145912481D01*
X86529202Y-145999695D01*
X86520095Y-146097586D01*
X86510129Y-146204599D01*
X86499447Y-146319176D01*
X86488194Y-146439762D01*
X86487326Y-146449055D01*
X86475991Y-146570873D01*
X86465221Y-146687428D01*
X86455163Y-146797088D01*
X86445962Y-146898221D01*
X86437766Y-146989193D01*
X86430721Y-147068371D01*
X86424972Y-147134122D01*
X86420666Y-147184815D01*
X86417949Y-147218815D01*
X86416967Y-147234491D01*
X86416966Y-147234686D01*
X86418494Y-147246246D01*
X86424106Y-147259849D01*
X86435346Y-147277396D01*
X86453757Y-147300787D01*
X86480883Y-147331923D01*
X86518265Y-147372707D01*
X86567448Y-147425039D01*
X86595379Y-147454480D01*
X86639111Y-147500495D01*
X86694402Y-147558684D01*
X86758969Y-147626643D01*
X86830527Y-147701969D01*
X86906792Y-147782256D01*
X86985482Y-147865101D01*
X87064313Y-147948101D01*
X87134642Y-148022154D01*
X87495491Y-148402132D01*
X87458857Y-148438766D01*
X87437075Y-148459847D01*
X87423997Y-148468297D01*
X87414179Y-148465768D01*
X87403681Y-148455521D01*
X87393312Y-148444508D01*
X87370504Y-148420353D01*
X87336637Y-148384517D01*
X87293091Y-148338458D01*
X87241246Y-148283635D01*
X87182482Y-148221507D01*
X87118177Y-148153534D01*
X87049713Y-148081176D01*
X87029209Y-148059508D01*
X86673278Y-147683373D01*
X86665709Y-147751111D01*
X86647837Y-147832444D01*
X86615094Y-147903316D01*
X86569866Y-147962926D01*
X86514538Y-148010472D01*
X86451497Y-148045153D01*
X86383126Y-148066165D01*
X86311813Y-148072708D01*
X86239942Y-148063981D01*
X86169899Y-148039180D01*
X86104069Y-147997505D01*
X86059151Y-147954976D01*
X86036520Y-147928534D01*
X86020570Y-147907473D01*
X86014908Y-147896802D01*
X86005162Y-147894807D01*
X85977142Y-147892987D01*
X85932679Y-147891381D01*
X85873601Y-147890029D01*
X85801738Y-147888967D01*
X85718919Y-147888236D01*
X85626974Y-147887872D01*
X85587722Y-147887838D01*
X85160535Y-147887838D01*
X85160535Y-147978301D01*
X85160535Y-148068764D01*
X85049969Y-148068764D01*
X84939404Y-148068764D01*
X84939404Y-147982845D01*
X84938950Y-147940468D01*
X84936768Y-147913071D01*
X84931627Y-147895537D01*
X84922296Y-147882750D01*
X84913342Y-147874508D01*
X84905600Y-147867334D01*
X84899316Y-147859027D01*
X84894088Y-147847200D01*
X84889513Y-147829469D01*
X84885188Y-147803448D01*
X84880713Y-147766753D01*
X84875683Y-147716999D01*
X84869698Y-147651799D01*
X84862987Y-147575959D01*
X84856547Y-147503457D01*
X84850572Y-147437524D01*
X84845312Y-147380810D01*
X84841016Y-147335962D01*
X84837934Y-147305628D01*
X84836315Y-147292456D01*
X84836255Y-147292217D01*
X84829026Y-147298053D01*
X84808787Y-147317234D01*
X84776574Y-147348723D01*
X84733421Y-147391481D01*
X84680363Y-147444472D01*
X84618433Y-147506656D01*
X84548668Y-147576997D01*
X84472101Y-147654455D01*
X84389767Y-147737994D01*
X84302701Y-147826574D01*
X84247612Y-147882740D01*
X84158010Y-147974082D01*
X84072416Y-148061174D01*
X83991878Y-148142962D01*
X83917442Y-148218390D01*
X83850153Y-148286404D01*
X83791058Y-148345949D01*
X83741203Y-148395969D01*
X83701635Y-148435409D01*
X83673399Y-148463216D01*
X83657543Y-148478333D01*
X83654407Y-148480873D01*
X83643671Y-148474368D01*
X83624775Y-148457962D01*
X83615612Y-148449079D01*
X83583818Y-148417285D01*
X83796731Y-148198954D01*
X83845641Y-148148856D01*
X83906374Y-148086736D01*
X83976665Y-148014910D01*
X84054244Y-147935692D01*
X84136843Y-147851397D01*
X84222196Y-147764340D01*
X84308034Y-147676836D01*
X84392088Y-147591200D01*
X84417973Y-147564840D01*
X84806558Y-147169160D01*
X84951965Y-147169160D01*
X84975395Y-147435523D01*
X84981710Y-147508343D01*
X84987415Y-147576074D01*
X84992266Y-147635673D01*
X84996022Y-147684102D01*
X84998438Y-147718319D01*
X84999268Y-147734554D01*
X84999712Y-147767221D01*
X85485885Y-147767221D01*
X85972059Y-147767221D01*
X85974638Y-147727728D01*
X86142604Y-147727728D01*
X86152167Y-147784574D01*
X86177109Y-147832185D01*
X86214177Y-147868876D01*
X86260119Y-147892959D01*
X86311681Y-147902750D01*
X86365611Y-147896561D01*
X86418656Y-147872707D01*
X86420268Y-147871656D01*
X86460543Y-147833850D01*
X86485882Y-147785653D01*
X86495183Y-147731266D01*
X86487340Y-147674884D01*
X86478317Y-147650839D01*
X86447532Y-147603277D01*
X86407625Y-147570842D01*
X86361817Y-147552796D01*
X86313333Y-147548401D01*
X86265394Y-147556918D01*
X86221223Y-147577609D01*
X86184044Y-147609737D01*
X86157080Y-147652562D01*
X86143553Y-147705348D01*
X86142604Y-147727728D01*
X85974638Y-147727728D01*
X85976817Y-147694348D01*
X85986438Y-147628473D01*
X86007727Y-147571555D01*
X86043527Y-147517199D01*
X86068392Y-147488292D01*
X86100134Y-147459685D01*
X86140253Y-147431835D01*
X86182949Y-147407986D01*
X86222424Y-147391384D01*
X86252472Y-147385274D01*
X86265135Y-147382615D01*
X86273008Y-147371551D01*
X86278431Y-147347435D01*
X86281011Y-147328583D01*
X86288094Y-147271900D01*
X86208513Y-147190375D01*
X86183427Y-147164459D01*
X86146615Y-147126129D01*
X86100168Y-147077576D01*
X86046176Y-147020990D01*
X85986728Y-146958563D01*
X85923915Y-146892485D01*
X85859826Y-146824945D01*
X85854244Y-146819057D01*
X85579555Y-146529263D01*
X85434687Y-146673311D01*
X85382266Y-146725816D01*
X85320785Y-146788013D01*
X85255030Y-146855020D01*
X85189789Y-146921957D01*
X85129849Y-146983942D01*
X85120892Y-146993259D01*
X84951965Y-147169160D01*
X84806558Y-147169160D01*
X84826301Y-147149057D01*
X84759334Y-146369459D01*
X84705353Y-145741042D01*
X84831533Y-145741042D01*
X84831969Y-145751152D01*
X84834015Y-145779601D01*
X84837532Y-145824700D01*
X84842380Y-145884763D01*
X84848421Y-145958100D01*
X84855514Y-146043024D01*
X84863520Y-146137846D01*
X84872300Y-146240880D01*
X84881715Y-146350436D01*
X84884303Y-146380398D01*
X84893906Y-146491554D01*
X84902977Y-146596751D01*
X84911371Y-146694285D01*
X84918942Y-146782451D01*
X84925544Y-146859548D01*
X84931032Y-146923870D01*
X84935258Y-146973714D01*
X84938078Y-147007378D01*
X84939346Y-147023157D01*
X84939404Y-147024117D01*
X84946221Y-147018684D01*
X84965668Y-147000438D01*
X84996239Y-146970860D01*
X85036428Y-146931430D01*
X85084727Y-146883629D01*
X85139631Y-146828935D01*
X85199633Y-146768831D01*
X85218331Y-146750037D01*
X85279808Y-146687852D01*
X85336592Y-146629742D01*
X85387158Y-146577320D01*
X85429982Y-146532197D01*
X85463539Y-146495983D01*
X85486302Y-146470289D01*
X85496748Y-146456728D01*
X85497259Y-146455359D01*
X85494479Y-146451516D01*
X85654853Y-146451516D01*
X85660820Y-146460230D01*
X85679035Y-146481565D01*
X85707839Y-146513774D01*
X85745577Y-146555106D01*
X85790590Y-146603812D01*
X85841223Y-146658143D01*
X85895818Y-146716348D01*
X85952718Y-146776678D01*
X86010266Y-146837385D01*
X86066805Y-146896717D01*
X86120679Y-146952927D01*
X86170229Y-147004263D01*
X86213800Y-147048977D01*
X86249734Y-147085319D01*
X86276373Y-147111540D01*
X86292062Y-147125890D01*
X86295592Y-147128036D01*
X86297309Y-147117469D01*
X86300708Y-147088482D01*
X86305629Y-147042675D01*
X86311912Y-146981648D01*
X86319399Y-146906998D01*
X86327930Y-146820326D01*
X86337347Y-146723230D01*
X86347491Y-146617310D01*
X86358201Y-146504165D01*
X86367273Y-146407364D01*
X86381227Y-146256571D01*
X86393146Y-146125080D01*
X86403084Y-146012198D01*
X86411092Y-145917231D01*
X86417226Y-145839487D01*
X86421538Y-145778273D01*
X86424081Y-145732897D01*
X86424910Y-145702665D01*
X86424076Y-145686885D01*
X86422994Y-145684154D01*
X86413647Y-145689571D01*
X86391235Y-145708692D01*
X86356598Y-145740703D01*
X86310576Y-145784791D01*
X86254010Y-145840142D01*
X86187739Y-145905941D01*
X86112604Y-145981376D01*
X86035011Y-146059971D01*
X85963421Y-146132854D01*
X85896161Y-146201505D01*
X85834539Y-146264577D01*
X85779863Y-146320723D01*
X85733441Y-146368594D01*
X85696580Y-146406846D01*
X85670589Y-146434129D01*
X85656776Y-146449097D01*
X85654853Y-146451516D01*
X85494479Y-146451516D01*
X85490673Y-146446256D01*
X85471986Y-146424424D01*
X85442805Y-146391585D01*
X85404734Y-146349463D01*
X85359379Y-146299781D01*
X85308347Y-146244261D01*
X85253243Y-146184626D01*
X85195673Y-146122600D01*
X85137242Y-146059906D01*
X85079557Y-145998266D01*
X85024223Y-145939404D01*
X84972847Y-145885043D01*
X84927033Y-145836905D01*
X84888388Y-145796714D01*
X84858518Y-145766193D01*
X84839028Y-145747064D01*
X84831533Y-145741042D01*
X84705353Y-145741042D01*
X84692367Y-145589862D01*
X84150891Y-145017540D01*
X84064279Y-144926006D01*
X83980695Y-144837692D01*
X83901313Y-144753840D01*
X83827307Y-144675688D01*
X83759853Y-144604476D01*
X83700124Y-144541444D01*
X83649294Y-144487831D01*
X83608540Y-144444876D01*
X83579034Y-144413821D01*
X83561951Y-144395904D01*
X83560259Y-144394141D01*
X83511104Y-144343064D01*
X83514114Y-144275655D01*
X83517124Y-144208246D01*
X84094140Y-144816845D01*
X84182184Y-144909618D01*
X84266223Y-144997997D01*
X84345238Y-145080920D01*
X84418208Y-145157325D01*
X84484114Y-145226149D01*
X84541935Y-145286329D01*
X84590651Y-145336803D01*
X84629242Y-145376509D01*
X84656688Y-145404384D01*
X84671969Y-145419365D01*
X84674883Y-145421716D01*
X84675401Y-145410928D01*
X84674241Y-145384206D01*
X84671725Y-145345618D01*
X84668175Y-145299235D01*
X84663913Y-145249123D01*
X84659262Y-145199354D01*
X84654542Y-145153994D01*
X84651891Y-145131229D01*
X84646025Y-145083485D01*
X84778580Y-145083485D01*
X84778969Y-145126204D01*
X84779970Y-145149372D01*
X84782530Y-145188685D01*
X84786359Y-145240270D01*
X84791168Y-145300253D01*
X84796669Y-145364763D01*
X84797280Y-145371698D01*
X84815202Y-145574474D01*
X84872754Y-145636636D01*
X84891593Y-145656803D01*
X84922579Y-145689752D01*
X84964016Y-145733687D01*
X85014206Y-145786815D01*
X85071453Y-145847338D01*
X85134061Y-145913464D01*
X85200332Y-145983396D01*
X85253699Y-146039666D01*
X85577093Y-146380535D01*
X85801116Y-146156683D01*
X86025139Y-145932832D01*
X85708429Y-145930178D01*
X85391719Y-145927524D01*
X85391719Y-145801898D01*
X85391719Y-145676273D01*
X85761109Y-145678909D01*
X86130500Y-145681546D01*
X86133540Y-145746219D01*
X86136581Y-145810892D01*
X86276773Y-145670968D01*
X86371918Y-145576006D01*
X86565225Y-145576006D01*
X86646893Y-145576006D01*
X86728561Y-145576006D01*
X86728561Y-145475491D01*
X86727979Y-145427933D01*
X86725950Y-145397388D01*
X86722045Y-145380794D01*
X86715835Y-145375085D01*
X86714519Y-145374977D01*
X86699823Y-145382609D01*
X86677368Y-145402733D01*
X86650660Y-145431189D01*
X86623205Y-145463817D01*
X86598506Y-145496459D01*
X86580070Y-145524954D01*
X86571484Y-145544710D01*
X86565225Y-145576006D01*
X86371918Y-145576006D01*
X86416966Y-145531044D01*
X86416966Y-145397727D01*
X86416966Y-145264411D01*
X86447120Y-145264411D01*
X86468881Y-145261513D01*
X86476778Y-145249947D01*
X86477346Y-145241795D01*
X86478312Y-145220264D01*
X86480762Y-145186424D01*
X86483825Y-145151332D01*
X86490233Y-145083485D01*
X85634407Y-145083485D01*
X84778580Y-145083485D01*
X84646025Y-145083485D01*
X84576608Y-145083485D01*
X84507191Y-145083485D01*
X84507191Y-145018151D01*
X84507191Y-144952816D01*
X84570999Y-144952816D01*
X84634807Y-144952816D01*
X84638408Y-144944831D01*
X84773881Y-144944831D01*
X84779416Y-144950387D01*
X84798237Y-144952517D01*
X84823458Y-144952816D01*
X84879095Y-144952816D01*
X84879095Y-144901966D01*
X84877781Y-144871477D01*
X84873319Y-144858253D01*
X84866531Y-144858535D01*
X84836301Y-144878906D01*
X84806993Y-144902674D01*
X84784878Y-144924489D01*
X84777746Y-144934273D01*
X84773881Y-144944831D01*
X84638408Y-144944831D01*
X84653152Y-144912134D01*
X84673730Y-144879410D01*
X84706453Y-144841251D01*
X84746203Y-144802524D01*
X84780514Y-144774167D01*
X85090175Y-144774167D01*
X85090175Y-144863491D01*
X85090175Y-144952816D01*
X85783725Y-144952816D01*
X85927817Y-144952677D01*
X86056568Y-144952265D01*
X86169362Y-144951588D01*
X86265579Y-144950656D01*
X86344603Y-144949476D01*
X86405814Y-144948059D01*
X86448595Y-144946412D01*
X86472327Y-144944543D01*
X86477275Y-144943100D01*
X86469230Y-144926695D01*
X86447857Y-144903838D01*
X86417300Y-144878023D01*
X86381701Y-144852743D01*
X86345203Y-144831492D01*
X86344492Y-144831132D01*
X86297484Y-144811089D01*
X86237305Y-144790769D01*
X86170768Y-144772104D01*
X86104682Y-144757027D01*
X86052601Y-144748300D01*
X86004857Y-144742121D01*
X86004857Y-144797211D01*
X86004857Y-144852302D01*
X85708339Y-144852302D01*
X85411821Y-144852302D01*
X85411821Y-144791993D01*
X85411367Y-144758607D01*
X85408556Y-144740604D01*
X85401219Y-144733265D01*
X85387187Y-144731870D01*
X85384180Y-144731884D01*
X85354951Y-144733761D01*
X85311204Y-144738634D01*
X85258182Y-144745801D01*
X85201128Y-144754562D01*
X85152997Y-144762806D01*
X85090175Y-144774167D01*
X84780514Y-144774167D01*
X84787862Y-144768094D01*
X84826313Y-144742829D01*
X84836606Y-144737697D01*
X84862627Y-144724663D01*
X84875029Y-144711571D01*
X84875951Y-144706556D01*
X85532439Y-144706556D01*
X85532439Y-144731684D01*
X85708339Y-144731684D01*
X85884239Y-144731684D01*
X85884239Y-144706556D01*
X85884239Y-144681427D01*
X85708339Y-144681427D01*
X85532439Y-144681427D01*
X85532439Y-144706556D01*
X84875951Y-144706556D01*
X84878839Y-144690857D01*
X84878980Y-144681427D01*
X84879095Y-144673790D01*
X84879095Y-144629000D01*
X84997199Y-144633632D01*
X85070172Y-144634347D01*
X85145561Y-144631436D01*
X85212507Y-144625333D01*
X85215818Y-144624901D01*
X85264929Y-144618421D01*
X85312349Y-144612246D01*
X85350756Y-144607327D01*
X85364077Y-144605661D01*
X85393137Y-144600881D01*
X85407273Y-144593767D01*
X85411643Y-144581037D01*
X85411821Y-144575271D01*
X85411821Y-144550758D01*
X85708339Y-144550758D01*
X86004857Y-144550758D01*
X86004857Y-144581228D01*
X86004994Y-144595220D01*
X86007573Y-144605093D01*
X86015849Y-144612344D01*
X86033075Y-144618470D01*
X86062505Y-144624966D01*
X86107392Y-144633331D01*
X86125215Y-144636584D01*
X86241949Y-144663533D01*
X86346407Y-144699084D01*
X86436213Y-144742284D01*
X86504739Y-144788683D01*
X86547280Y-144823203D01*
X86591059Y-144797547D01*
X86642438Y-144777164D01*
X86692946Y-144774151D01*
X86739808Y-144786235D01*
X86780251Y-144811144D01*
X86811501Y-144846608D01*
X86830784Y-144890355D01*
X86835328Y-144940113D01*
X86824352Y-144988603D01*
X86796943Y-145037595D01*
X86758205Y-145070063D01*
X86707646Y-145086337D01*
X86676178Y-145088511D01*
X86648248Y-145088599D01*
X86629753Y-145091190D01*
X86618320Y-145099771D01*
X86611575Y-145117828D01*
X86607144Y-145148850D01*
X86602654Y-145196323D01*
X86602632Y-145196564D01*
X86596292Y-145264411D01*
X86635080Y-145264411D01*
X86641455Y-145264577D01*
X86647296Y-145264542D01*
X86653434Y-145263507D01*
X86660697Y-145260672D01*
X86669915Y-145255239D01*
X86681918Y-145246407D01*
X86697534Y-145233377D01*
X86717594Y-145215351D01*
X86742926Y-145191528D01*
X86774360Y-145161109D01*
X86812726Y-145123296D01*
X86858852Y-145077288D01*
X86913568Y-145022286D01*
X86977703Y-144957491D01*
X87052088Y-144882103D01*
X87137550Y-144795324D01*
X87234920Y-144696353D01*
X87345026Y-144584392D01*
X87424919Y-144503153D01*
X87733705Y-144189185D01*
X87733705Y-144258786D01*
G37*
%TO.C,R2*%
D17*
X75147258Y-122458269D02*
X74672742Y-122458269D01*
X75147258Y-123503269D02*
X74672742Y-123503269D01*
%TD*%
M02*
