%TF.GenerationSoftware,KiCad,Pcbnew,9.0.7-9.0.7~ubuntu24.04.1*%
%TF.CreationDate,2026-03-03T17:56:52+01:00*%
%TF.ProjectId,DIB2 USB adapter,44494232-2055-4534-9220-616461707465,r1B1*%
%TF.SameCoordinates,Original*%
%TF.FileFunction,Copper,L2,Inr*%
%TF.FilePolarity,Positive*%
%FSLAX46Y46*%
G04 Gerber Fmt 4.6, Leading zero omitted, Abs format (unit mm)*
G04 Created by KiCad (PCBNEW 9.0.7-9.0.7~ubuntu24.04.1) date 2026-03-03 17:56:52*
%MOMM*%
%LPD*%
G01*
G04 APERTURE LIST*
%ADD10C,0.101600*%
%TA.AperFunction,NonConductor*%
%ADD11C,0.101600*%
%TD*%
%TA.AperFunction,ComponentPad*%
%ADD12C,1.650000*%
%TD*%
%TA.AperFunction,ComponentPad*%
%ADD13C,5.500000*%
%TD*%
%TA.AperFunction,ComponentPad*%
%ADD14C,1.208000*%
%TD*%
%TA.AperFunction,ComponentPad*%
%ADD15C,1.100000*%
%TD*%
%TA.AperFunction,ComponentPad*%
%ADD16C,3.316000*%
%TD*%
%TA.AperFunction,ViaPad*%
%ADD17C,0.600000*%
%TD*%
G04 APERTURE END LIST*
D10*
D11*
X60918243Y-69188496D02*
X60961786Y-69144953D01*
X60961786Y-69144953D02*
X61048872Y-69101410D01*
X61048872Y-69101410D02*
X61266586Y-69101410D01*
X61266586Y-69101410D02*
X61353672Y-69144953D01*
X61353672Y-69144953D02*
X61397214Y-69188496D01*
X61397214Y-69188496D02*
X61440757Y-69275582D01*
X61440757Y-69275582D02*
X61440757Y-69362668D01*
X61440757Y-69362668D02*
X61397214Y-69493296D01*
X61397214Y-69493296D02*
X60874700Y-70015810D01*
X60874700Y-70015810D02*
X61440757Y-70015810D01*
D12*
%TO.N,+12V*%
%TO.C,X1*%
X69805000Y-108430000D03*
%TO.N,+5V*%
X67265000Y-108430000D03*
%TO.N,GND*%
X69805000Y-105890000D03*
X67265000Y-105890000D03*
%TO.N,/DIB_SCLK*%
X69805000Y-103350000D03*
%TO.N,+3V3*%
X67265000Y-103350000D03*
%TO.N,/DIB_MOSI*%
X69805000Y-100810000D03*
%TO.N,/~{DIB_FAULT}*%
X67265000Y-100810000D03*
%TO.N,/DIB_MISO*%
X69805000Y-98270000D03*
%TO.N,/AC_FREQ*%
X67265000Y-98270000D03*
%TO.N,/DIB_IRQ*%
X69805000Y-95730000D03*
%TO.N,/DIB_OE_SYNC*%
X67265000Y-95730000D03*
%TO.N,/~{DIB_CSA}*%
X69805000Y-93190000D03*
%TO.N,/~{DIB_RESET}*%
X67265000Y-93190000D03*
%TO.N,/DIB_UART_RX*%
X69805000Y-90650000D03*
%TO.N,/DIB_UART_TX*%
X67265000Y-90650000D03*
%TO.N,/DIB_I2C_SCL*%
X69805000Y-88110000D03*
%TO.N,/DIB_I2C_SDA*%
X67265000Y-88110000D03*
%TO.N,/~{DIB_ALERT}*%
X69805000Y-85570000D03*
%TO.N,PE*%
X67265000Y-85570000D03*
%TD*%
D13*
%TO.N,*%
%TO.C,KK1*%
X69500000Y-63000000D03*
%TD*%
D14*
%TO.N,+5V*%
%TO.C,X3*%
X70300000Y-124500000D03*
%TO.N,/DIB_USB_D+*%
X70300000Y-127000000D03*
%TO.N,/DIB_USB_D-*%
X70300000Y-129000000D03*
%TO.N,GND*%
X70300000Y-131500000D03*
D15*
%TO.N,/USB3_RX+*%
X71800000Y-132000000D03*
%TO.N,/USB3_RX-*%
X71800000Y-130000000D03*
D14*
%TO.N,GND*%
X71800000Y-128000000D03*
D15*
%TO.N,/USB3_TX-*%
X71800000Y-126000000D03*
%TO.N,/USB3_TX+*%
X71800000Y-124000000D03*
D16*
%TO.N,PE*%
X68300000Y-121430000D03*
X68300000Y-134570000D03*
%TD*%
D13*
%TO.N,*%
%TO.C,KK2*%
X69500000Y-147000000D03*
%TD*%
D17*
%TO.N,+3V3*%
X120100000Y-143211869D03*
X119311869Y-143200000D03*
%TO.N,/DIB_I2C_SCL*%
X92225230Y-139080000D03*
%TO.N,GND*%
X141361800Y-145390000D03*
X129197300Y-146447598D03*
X147750000Y-146447598D03*
X73470000Y-104020000D03*
X75690000Y-122230769D03*
X78992582Y-120680140D03*
X122211760Y-146448107D03*
X138197300Y-145400000D03*
X73450042Y-109119922D03*
X73460000Y-111070000D03*
X118200000Y-146295619D03*
X126200000Y-146447598D03*
%TO.N,/~{DIB_CSA}*%
X91090000Y-136200000D03*
%TO.N,/DIB_I2C_SDA*%
X87860000Y-89380000D03*
X125200000Y-140060000D03*
X125190000Y-143220000D03*
%TO.N,+5V*%
X74140000Y-138110000D03*
X121100000Y-146400000D03*
X74140000Y-137250000D03*
X121100000Y-145700000D03*
%TO.N,/DIB_OE_SYNC*%
X130190000Y-140610000D03*
X130190000Y-145320000D03*
X97660000Y-96900000D03*
%TO.N,/DIB_UART_TX*%
X135200000Y-140300000D03*
X97460000Y-91890000D03*
X135200000Y-145350000D03*
%TO.N,/DIB_MOSI*%
X88500000Y-137813000D03*
%TO.N,/AC_FREQ*%
X131200000Y-145340000D03*
X131148711Y-140590000D03*
X100768712Y-99201288D03*
%TO.N,/DIB_IRQ*%
X90290000Y-136663000D03*
%TO.N,/~{DIB_ALERT}*%
X93008400Y-139757000D03*
%TO.N,/~{DIB_RESET}*%
X123200000Y-140080000D03*
X88090000Y-94430000D03*
X123200000Y-142281300D03*
%TO.N,/DIB_SCLK*%
X87710000Y-138490000D03*
%TO.N,/DIB_USB_D-*%
X145040000Y-146250000D03*
%TO.N,+12V*%
X117300000Y-146480000D03*
X117300000Y-145730000D03*
%TO.N,/DIB_USB_D+*%
X144310000Y-146250000D03*
%TO.N,/~{DIB_FAULT}*%
X124200000Y-140060000D03*
X97470002Y-102080000D03*
X124200000Y-143210000D03*
%TO.N,/DIB_UART_RX*%
X97460000Y-90910000D03*
X136200000Y-145370000D03*
X136120000Y-140300000D03*
%TO.N,/DIB_MISO*%
X89310000Y-137340000D03*
%TD*%
%TA.AperFunction,Conductor*%
%TO.N,GND*%
G36*
X67944789Y-60220185D02*
G01*
X67990544Y-60272989D01*
X68000488Y-60342147D01*
X67971463Y-60405703D01*
X67943722Y-60429494D01*
X67758644Y-60545786D01*
X67494813Y-60756181D01*
X67256181Y-60994813D01*
X67045786Y-61258644D01*
X66866246Y-61544379D01*
X66719831Y-61848412D01*
X66608378Y-62166925D01*
X66608374Y-62166937D01*
X66533283Y-62495935D01*
X66533280Y-62495949D01*
X66495500Y-62831264D01*
X66495500Y-63168735D01*
X66533280Y-63504050D01*
X66533283Y-63504064D01*
X66608374Y-63833062D01*
X66608378Y-63833074D01*
X66719831Y-64151587D01*
X66866246Y-64455620D01*
X66866248Y-64455623D01*
X67045787Y-64741357D01*
X67107978Y-64819343D01*
X67256181Y-65005186D01*
X67494813Y-65243818D01*
X67654106Y-65370848D01*
X67758643Y-65454213D01*
X68044377Y-65633752D01*
X68348416Y-65780170D01*
X68587638Y-65863877D01*
X68666925Y-65891621D01*
X68666937Y-65891625D01*
X68995935Y-65966717D01*
X68995944Y-65966718D01*
X68995949Y-65966719D01*
X69219492Y-65991905D01*
X69331265Y-66004499D01*
X69331268Y-66004500D01*
X69331271Y-66004500D01*
X69668732Y-66004500D01*
X69668733Y-66004499D01*
X69840108Y-65985190D01*
X70004050Y-65966719D01*
X70004053Y-65966718D01*
X70004065Y-65966717D01*
X70333063Y-65891625D01*
X70651584Y-65780170D01*
X70955623Y-65633752D01*
X71241357Y-65454213D01*
X71450429Y-65287484D01*
X71505186Y-65243818D01*
X71505188Y-65243815D01*
X71505193Y-65243812D01*
X71743812Y-65005193D01*
X71954213Y-64741357D01*
X72133752Y-64455623D01*
X72280170Y-64151584D01*
X72391625Y-63833063D01*
X72466717Y-63504065D01*
X72504500Y-63168729D01*
X72504500Y-62831271D01*
X72466717Y-62495935D01*
X72391625Y-62166937D01*
X72280170Y-61848416D01*
X72133752Y-61544377D01*
X71954213Y-61258643D01*
X71819259Y-61089415D01*
X71743818Y-60994813D01*
X71505186Y-60756181D01*
X71319343Y-60607978D01*
X71241357Y-60545787D01*
X71056277Y-60429493D01*
X71009987Y-60377159D01*
X70999339Y-60308106D01*
X71027714Y-60244257D01*
X71086103Y-60205885D01*
X71122250Y-60200500D01*
X148310118Y-60200500D01*
X148345125Y-60200500D01*
X148354853Y-60200881D01*
X148543563Y-60215733D01*
X148562772Y-60218776D01*
X148742085Y-60261825D01*
X148760577Y-60267833D01*
X148857803Y-60308106D01*
X148930946Y-60338403D01*
X148948283Y-60347237D01*
X149105504Y-60443582D01*
X149121246Y-60455019D01*
X149261464Y-60574777D01*
X149275222Y-60588535D01*
X149394980Y-60728753D01*
X149406417Y-60744495D01*
X149502762Y-60901716D01*
X149511596Y-60919053D01*
X149582163Y-61089415D01*
X149588176Y-61107921D01*
X149631222Y-61287222D01*
X149634266Y-61306440D01*
X149646618Y-61463380D01*
X149647000Y-61473109D01*
X149647000Y-144946903D01*
X149646800Y-144948934D01*
X149646800Y-150976000D01*
X149627115Y-151043039D01*
X149574311Y-151088794D01*
X149522800Y-151100000D01*
X128971800Y-151100000D01*
X128904761Y-151080315D01*
X128859006Y-151027511D01*
X128847800Y-150976000D01*
X128847800Y-146176999D01*
X143755500Y-146176999D01*
X143755500Y-146323001D01*
X143756572Y-146326999D01*
X143793288Y-146464028D01*
X143793289Y-146464031D01*
X143866286Y-146590467D01*
X143866288Y-146590470D01*
X143866289Y-146590471D01*
X143969529Y-146693711D01*
X143969530Y-146693712D01*
X143969532Y-146693713D01*
X143970083Y-146694031D01*
X144095971Y-146766712D01*
X144236999Y-146804500D01*
X144237001Y-146804500D01*
X144382999Y-146804500D01*
X144383001Y-146804500D01*
X144524029Y-146766712D01*
X144613000Y-146715345D01*
X144680901Y-146698872D01*
X144737000Y-146715345D01*
X144825971Y-146766712D01*
X144966999Y-146804500D01*
X144967001Y-146804500D01*
X145112999Y-146804500D01*
X145113001Y-146804500D01*
X145254029Y-146766712D01*
X145380471Y-146693711D01*
X145483711Y-146590471D01*
X145556712Y-146464029D01*
X145594500Y-146323001D01*
X145594500Y-146176999D01*
X145556712Y-146035971D01*
X145503631Y-145944031D01*
X145483713Y-145909532D01*
X145483709Y-145909527D01*
X145380472Y-145806290D01*
X145380467Y-145806286D01*
X145254031Y-145733289D01*
X145254030Y-145733288D01*
X145254029Y-145733288D01*
X145113001Y-145695500D01*
X144966999Y-145695500D01*
X144825971Y-145733288D01*
X144825970Y-145733288D01*
X144736999Y-145784655D01*
X144669098Y-145801126D01*
X144613001Y-145784655D01*
X144524029Y-145733288D01*
X144518711Y-145731863D01*
X144383001Y-145695500D01*
X144236999Y-145695500D01*
X144095971Y-145733288D01*
X144095968Y-145733289D01*
X143969532Y-145806286D01*
X143969527Y-145806290D01*
X143866290Y-145909527D01*
X143866286Y-145909532D01*
X143793289Y-146035968D01*
X143793288Y-146035971D01*
X143755500Y-146176999D01*
X128847800Y-146176999D01*
X128847800Y-145246999D01*
X129635500Y-145246999D01*
X129635500Y-145393001D01*
X129668450Y-145515971D01*
X129673288Y-145534028D01*
X129673289Y-145534031D01*
X129746286Y-145660467D01*
X129746288Y-145660470D01*
X129746289Y-145660471D01*
X129849529Y-145763711D01*
X129849530Y-145763712D01*
X129849532Y-145763713D01*
X129885805Y-145784655D01*
X129975971Y-145836712D01*
X130116999Y-145874500D01*
X130117001Y-145874500D01*
X130262999Y-145874500D01*
X130263001Y-145874500D01*
X130404029Y-145836712D01*
X130530471Y-145763711D01*
X130597319Y-145696863D01*
X130658642Y-145663378D01*
X130728334Y-145668362D01*
X130772681Y-145696863D01*
X130859529Y-145783711D01*
X130859530Y-145783712D01*
X130859532Y-145783713D01*
X130892940Y-145803001D01*
X130985971Y-145856712D01*
X131126999Y-145894500D01*
X131127001Y-145894500D01*
X131272999Y-145894500D01*
X131273001Y-145894500D01*
X131414029Y-145856712D01*
X131540471Y-145783711D01*
X131643711Y-145680471D01*
X131716712Y-145554029D01*
X131754500Y-145413001D01*
X131754500Y-145276999D01*
X134645500Y-145276999D01*
X134645500Y-145423001D01*
X134680609Y-145554028D01*
X134683288Y-145564028D01*
X134683289Y-145564031D01*
X134756286Y-145690467D01*
X134756288Y-145690470D01*
X134756289Y-145690471D01*
X134859529Y-145793711D01*
X134859530Y-145793712D01*
X134859532Y-145793713D01*
X134922750Y-145830211D01*
X134985971Y-145866712D01*
X135126999Y-145904500D01*
X135127001Y-145904500D01*
X135272999Y-145904500D01*
X135273001Y-145904500D01*
X135414029Y-145866712D01*
X135540471Y-145793711D01*
X135602319Y-145731863D01*
X135663642Y-145698378D01*
X135733334Y-145703362D01*
X135777681Y-145731863D01*
X135859529Y-145813711D01*
X135859530Y-145813712D01*
X135859532Y-145813713D01*
X135899366Y-145836711D01*
X135985971Y-145886712D01*
X136126999Y-145924500D01*
X136127001Y-145924500D01*
X136272999Y-145924500D01*
X136273001Y-145924500D01*
X136414029Y-145886712D01*
X136540471Y-145813711D01*
X136643711Y-145710471D01*
X136716712Y-145584029D01*
X136754500Y-145443001D01*
X136754500Y-145296999D01*
X136716712Y-145155971D01*
X136649967Y-145040364D01*
X136643713Y-145029532D01*
X136643709Y-145029527D01*
X136540472Y-144926290D01*
X136540467Y-144926286D01*
X136414031Y-144853289D01*
X136414030Y-144853288D01*
X136414029Y-144853288D01*
X136273001Y-144815500D01*
X136126999Y-144815500D01*
X135985971Y-144853288D01*
X135985968Y-144853289D01*
X135859532Y-144926286D01*
X135859527Y-144926290D01*
X135797681Y-144988137D01*
X135736358Y-145021622D01*
X135666666Y-145016638D01*
X135622319Y-144988137D01*
X135540472Y-144906290D01*
X135540467Y-144906286D01*
X135414031Y-144833289D01*
X135414030Y-144833288D01*
X135414029Y-144833288D01*
X135273001Y-144795500D01*
X135126999Y-144795500D01*
X134985971Y-144833288D01*
X134985968Y-144833289D01*
X134859532Y-144906286D01*
X134859527Y-144906290D01*
X134756290Y-145009527D01*
X134756286Y-145009532D01*
X134683289Y-145135968D01*
X134683288Y-145135971D01*
X134645500Y-145276999D01*
X131754500Y-145276999D01*
X131754500Y-145266999D01*
X131716712Y-145125971D01*
X131661033Y-145029532D01*
X131643713Y-144999532D01*
X131643709Y-144999527D01*
X131540472Y-144896290D01*
X131540467Y-144896286D01*
X131414031Y-144823289D01*
X131414030Y-144823288D01*
X131414029Y-144823288D01*
X131273001Y-144785500D01*
X131126999Y-144785500D01*
X130985971Y-144823288D01*
X130985968Y-144823289D01*
X130859532Y-144896286D01*
X130859527Y-144896290D01*
X130792681Y-144963137D01*
X130731358Y-144996622D01*
X130661666Y-144991638D01*
X130617319Y-144963137D01*
X130530472Y-144876290D01*
X130530467Y-144876286D01*
X130404031Y-144803289D01*
X130404030Y-144803288D01*
X130404029Y-144803288D01*
X130263001Y-144765500D01*
X130116999Y-144765500D01*
X129975971Y-144803288D01*
X129975968Y-144803289D01*
X129849532Y-144876286D01*
X129849527Y-144876290D01*
X129746290Y-144979527D01*
X129746286Y-144979532D01*
X129673289Y-145105968D01*
X129673288Y-145105971D01*
X129635500Y-145246999D01*
X128847800Y-145246999D01*
X128847800Y-144949346D01*
X128847799Y-144949341D01*
X128847727Y-144948934D01*
X128812843Y-144751091D01*
X128743990Y-144561920D01*
X128643335Y-144387579D01*
X128637590Y-144380733D01*
X128601047Y-144337183D01*
X128513934Y-144233366D01*
X128382537Y-144123110D01*
X128359725Y-144103968D01*
X128359721Y-144103965D01*
X128185384Y-144003312D01*
X128185381Y-144003311D01*
X128185380Y-144003310D01*
X128161490Y-143994615D01*
X127996208Y-143934456D01*
X127797958Y-143899500D01*
X127797956Y-143899500D01*
X127596644Y-143899500D01*
X127596641Y-143899500D01*
X127398391Y-143934456D01*
X127209222Y-144003309D01*
X127209215Y-144003312D01*
X127034878Y-144103965D01*
X127034874Y-144103968D01*
X126880666Y-144233366D01*
X126751268Y-144387574D01*
X126751265Y-144387578D01*
X126650612Y-144561915D01*
X126650609Y-144561922D01*
X126581756Y-144751091D01*
X126546800Y-144949341D01*
X126546800Y-150976000D01*
X126527115Y-151043039D01*
X126474311Y-151088794D01*
X126422800Y-151100000D01*
X115874500Y-151100000D01*
X115807461Y-151080315D01*
X115761706Y-151027511D01*
X115750500Y-150976000D01*
X115750500Y-145656999D01*
X116745500Y-145656999D01*
X116745500Y-145803001D01*
X116778056Y-145924500D01*
X116783288Y-145944028D01*
X116783288Y-145944029D01*
X116840429Y-146043001D01*
X116856901Y-146110901D01*
X116840429Y-146166999D01*
X116783288Y-146265970D01*
X116783288Y-146265971D01*
X116745500Y-146406999D01*
X116745500Y-146553001D01*
X116783204Y-146693713D01*
X116783288Y-146694028D01*
X116783289Y-146694031D01*
X116856286Y-146820467D01*
X116856288Y-146820470D01*
X116856289Y-146820471D01*
X116959529Y-146923711D01*
X117085971Y-146996712D01*
X117226999Y-147034500D01*
X117227001Y-147034500D01*
X117372999Y-147034500D01*
X117373001Y-147034500D01*
X117514029Y-146996712D01*
X117640471Y-146923711D01*
X117743711Y-146820471D01*
X117816712Y-146694029D01*
X117854500Y-146553001D01*
X117854500Y-146406999D01*
X117816712Y-146265971D01*
X117759570Y-146166999D01*
X117743098Y-146099100D01*
X117759571Y-146043000D01*
X117763631Y-146035968D01*
X117816712Y-145944029D01*
X117854500Y-145803001D01*
X117854500Y-145656999D01*
X117846462Y-145626999D01*
X120545500Y-145626999D01*
X120545500Y-145773001D01*
X120582083Y-145909529D01*
X120583288Y-145914028D01*
X120583288Y-145914029D01*
X120625995Y-145988001D01*
X120642466Y-146055901D01*
X120625995Y-146111999D01*
X120583288Y-146185970D01*
X120583288Y-146185971D01*
X120545500Y-146326999D01*
X120545500Y-146473001D01*
X120566936Y-146553000D01*
X120583288Y-146614028D01*
X120583289Y-146614031D01*
X120656286Y-146740467D01*
X120656288Y-146740470D01*
X120656289Y-146740471D01*
X120759529Y-146843711D01*
X120885971Y-146916712D01*
X121026999Y-146954500D01*
X121027001Y-146954500D01*
X121172999Y-146954500D01*
X121173001Y-146954500D01*
X121314029Y-146916712D01*
X121440471Y-146843711D01*
X121543711Y-146740471D01*
X121616712Y-146614029D01*
X121654500Y-146473001D01*
X121654500Y-146326999D01*
X121616712Y-146185971D01*
X121574004Y-146111999D01*
X121557532Y-146044100D01*
X121574005Y-145988000D01*
X121599390Y-145944031D01*
X121616712Y-145914029D01*
X121654500Y-145773001D01*
X121654500Y-145626999D01*
X121616712Y-145485971D01*
X121563036Y-145393001D01*
X121543713Y-145359532D01*
X121543709Y-145359527D01*
X121440472Y-145256290D01*
X121440467Y-145256286D01*
X121314031Y-145183289D01*
X121314030Y-145183288D01*
X121314029Y-145183288D01*
X121173001Y-145145500D01*
X121026999Y-145145500D01*
X120885971Y-145183288D01*
X120885968Y-145183289D01*
X120759532Y-145256286D01*
X120759527Y-145256290D01*
X120656290Y-145359527D01*
X120656286Y-145359532D01*
X120583289Y-145485968D01*
X120583288Y-145485971D01*
X120545500Y-145626999D01*
X117846462Y-145626999D01*
X117816712Y-145515971D01*
X117763036Y-145423001D01*
X117743713Y-145389532D01*
X117743709Y-145389527D01*
X117640472Y-145286290D01*
X117640467Y-145286286D01*
X117514031Y-145213289D01*
X117514030Y-145213288D01*
X117514029Y-145213288D01*
X117373001Y-145175500D01*
X117226999Y-145175500D01*
X117085971Y-145213288D01*
X117085968Y-145213289D01*
X116959532Y-145286286D01*
X116959527Y-145286290D01*
X116856290Y-145389527D01*
X116856286Y-145389532D01*
X116783289Y-145515968D01*
X116783288Y-145515971D01*
X116745500Y-145656999D01*
X115750500Y-145656999D01*
X115750500Y-144960119D01*
X115750500Y-144960118D01*
X115750249Y-144959512D01*
X115740852Y-144915366D01*
X115740440Y-144899945D01*
X115702863Y-144715779D01*
X115633876Y-144540936D01*
X115535573Y-144380731D01*
X115410944Y-144240030D01*
X115385518Y-144219830D01*
X115263775Y-144123111D01*
X115123387Y-144046998D01*
X115098535Y-144033524D01*
X115098534Y-144033523D01*
X115098533Y-144033523D01*
X115098530Y-144033522D01*
X114920248Y-143973994D01*
X114804971Y-143956840D01*
X114734337Y-143946330D01*
X114734335Y-143946330D01*
X114734328Y-143946329D01*
X114640390Y-143948849D01*
X114640390Y-143948850D01*
X114617849Y-143949455D01*
X114614522Y-143949500D01*
X112876600Y-143949500D01*
X112875890Y-143949212D01*
X112836690Y-143949500D01*
X112788135Y-143949500D01*
X112784361Y-143949885D01*
X112746184Y-143950166D01*
X112744648Y-143950178D01*
X112643784Y-143968731D01*
X112564929Y-143983236D01*
X112393702Y-144046994D01*
X112393698Y-144046996D01*
X112236129Y-144139529D01*
X112097024Y-144258020D01*
X112097022Y-144258022D01*
X111980614Y-144398862D01*
X111980610Y-144398867D01*
X111890427Y-144557785D01*
X111890427Y-144557787D01*
X111829210Y-144729958D01*
X111798824Y-144910127D01*
X111798824Y-144910133D01*
X111799497Y-145000291D01*
X111799500Y-145001216D01*
X111799500Y-151865588D01*
X111779815Y-151932627D01*
X111763181Y-151953269D01*
X111453269Y-152263181D01*
X111391946Y-152296666D01*
X111365588Y-152299500D01*
X66504875Y-152299500D01*
X66495146Y-152299118D01*
X66306440Y-152284266D01*
X66287222Y-152281222D01*
X66107921Y-152238176D01*
X66089415Y-152232163D01*
X65919053Y-152161596D01*
X65901716Y-152152762D01*
X65744495Y-152056417D01*
X65728753Y-152044980D01*
X65588535Y-151925222D01*
X65574777Y-151911464D01*
X65455019Y-151771246D01*
X65443582Y-151755504D01*
X65347237Y-151598283D01*
X65338403Y-151580946D01*
X65324272Y-151546833D01*
X65267833Y-151410577D01*
X65261825Y-151392085D01*
X65218776Y-151212772D01*
X65215733Y-151193559D01*
X65200882Y-151004853D01*
X65200500Y-150995124D01*
X65200500Y-146831264D01*
X66495500Y-146831264D01*
X66495500Y-147168735D01*
X66533280Y-147504050D01*
X66533283Y-147504064D01*
X66608374Y-147833062D01*
X66608378Y-147833074D01*
X66719831Y-148151587D01*
X66866246Y-148455620D01*
X66866248Y-148455623D01*
X67045787Y-148741357D01*
X67107978Y-148819343D01*
X67256181Y-149005186D01*
X67494813Y-149243818D01*
X67654106Y-149370848D01*
X67758643Y-149454213D01*
X68044377Y-149633752D01*
X68348416Y-149780170D01*
X68587638Y-149863877D01*
X68666925Y-149891621D01*
X68666937Y-149891625D01*
X68995935Y-149966717D01*
X68995944Y-149966718D01*
X68995949Y-149966719D01*
X69219492Y-149991905D01*
X69331265Y-150004499D01*
X69331268Y-150004500D01*
X69331271Y-150004500D01*
X69668732Y-150004500D01*
X69668733Y-150004499D01*
X69840108Y-149985190D01*
X70004050Y-149966719D01*
X70004053Y-149966718D01*
X70004065Y-149966717D01*
X70333063Y-149891625D01*
X70651584Y-149780170D01*
X70955623Y-149633752D01*
X71241357Y-149454213D01*
X71450429Y-149287484D01*
X71505186Y-149243818D01*
X71505188Y-149243815D01*
X71505193Y-149243812D01*
X71743812Y-149005193D01*
X71954213Y-148741357D01*
X72133752Y-148455623D01*
X72280170Y-148151584D01*
X72391625Y-147833063D01*
X72466717Y-147504065D01*
X72504500Y-147168729D01*
X72504500Y-146831271D01*
X72466717Y-146495935D01*
X72391625Y-146166937D01*
X72280170Y-145848416D01*
X72133752Y-145544377D01*
X71954213Y-145258643D01*
X71848409Y-145125968D01*
X71743818Y-144994813D01*
X71505190Y-144756185D01*
X71505183Y-144756179D01*
X71338229Y-144623040D01*
X71241357Y-144545787D01*
X71022895Y-144408518D01*
X70955620Y-144366246D01*
X70651587Y-144219831D01*
X70333074Y-144108378D01*
X70333062Y-144108374D01*
X70064145Y-144046996D01*
X70004065Y-144033283D01*
X70004062Y-144033282D01*
X70004050Y-144033280D01*
X69668735Y-143995500D01*
X69668729Y-143995500D01*
X69331271Y-143995500D01*
X69331264Y-143995500D01*
X68995949Y-144033280D01*
X68995935Y-144033283D01*
X68666937Y-144108374D01*
X68666925Y-144108378D01*
X68348412Y-144219831D01*
X68044379Y-144366246D01*
X67758644Y-144545786D01*
X67494817Y-144756179D01*
X67494809Y-144756185D01*
X67256181Y-144994813D01*
X67045786Y-145258644D01*
X66866246Y-145544379D01*
X66719831Y-145848412D01*
X66608378Y-146166925D01*
X66608374Y-146166937D01*
X66533283Y-146495935D01*
X66533280Y-146495949D01*
X66495500Y-146831264D01*
X65200500Y-146831264D01*
X65200500Y-143460119D01*
X65200499Y-143460116D01*
X65189694Y-143434031D01*
X65169976Y-143386426D01*
X65113574Y-143330024D01*
X65039883Y-143299500D01*
X65039882Y-143299500D01*
X60004875Y-143299500D01*
X59995146Y-143299118D01*
X59806440Y-143284266D01*
X59787222Y-143281222D01*
X59613211Y-143239446D01*
X59607921Y-143238176D01*
X59589415Y-143232163D01*
X59419053Y-143161596D01*
X59401716Y-143152762D01*
X59359675Y-143126999D01*
X118757369Y-143126999D01*
X118757369Y-143273001D01*
X118764470Y-143299500D01*
X118795157Y-143414028D01*
X118795158Y-143414031D01*
X118868155Y-143540467D01*
X118868157Y-143540470D01*
X118868158Y-143540471D01*
X118971398Y-143643711D01*
X118971399Y-143643712D01*
X118971401Y-143643713D01*
X119009801Y-143665883D01*
X119097840Y-143716712D01*
X119238868Y-143754500D01*
X119238870Y-143754500D01*
X119384868Y-143754500D01*
X119384870Y-143754500D01*
X119525898Y-143716712D01*
X119633657Y-143654497D01*
X119701555Y-143638025D01*
X119757655Y-143654498D01*
X119759528Y-143655579D01*
X119759529Y-143655580D01*
X119885971Y-143728581D01*
X120026999Y-143766369D01*
X120027001Y-143766369D01*
X120172999Y-143766369D01*
X120173001Y-143766369D01*
X120314029Y-143728581D01*
X120440471Y-143655580D01*
X120543711Y-143552340D01*
X120616712Y-143425898D01*
X120654500Y-143284870D01*
X120654500Y-143138868D01*
X120653999Y-143136999D01*
X123645500Y-143136999D01*
X123645500Y-143283001D01*
X123680609Y-143414028D01*
X123683288Y-143424028D01*
X123683289Y-143424031D01*
X123756286Y-143550467D01*
X123756288Y-143550470D01*
X123756289Y-143550471D01*
X123859529Y-143653711D01*
X123859530Y-143653712D01*
X123859532Y-143653713D01*
X123922750Y-143690211D01*
X123985971Y-143726712D01*
X124126999Y-143764500D01*
X124127001Y-143764500D01*
X124272999Y-143764500D01*
X124273001Y-143764500D01*
X124414029Y-143726712D01*
X124540471Y-143653711D01*
X124602319Y-143591863D01*
X124663642Y-143558378D01*
X124733334Y-143563362D01*
X124777681Y-143591863D01*
X124849529Y-143663711D01*
X124975971Y-143736712D01*
X125116999Y-143774500D01*
X125117001Y-143774500D01*
X125262999Y-143774500D01*
X125263001Y-143774500D01*
X125404029Y-143736712D01*
X125530471Y-143663711D01*
X125633711Y-143560471D01*
X125706712Y-143434029D01*
X125744500Y-143293001D01*
X125744500Y-143146999D01*
X125706712Y-143005971D01*
X125633711Y-142879529D01*
X125530471Y-142776289D01*
X125530470Y-142776288D01*
X125530467Y-142776286D01*
X125404031Y-142703289D01*
X125404030Y-142703288D01*
X125404029Y-142703288D01*
X125263001Y-142665500D01*
X125116999Y-142665500D01*
X124975971Y-142703288D01*
X124975968Y-142703289D01*
X124849532Y-142776286D01*
X124849527Y-142776290D01*
X124787681Y-142838137D01*
X124726358Y-142871622D01*
X124656666Y-142866638D01*
X124612319Y-142838137D01*
X124540472Y-142766290D01*
X124540467Y-142766286D01*
X124414031Y-142693289D01*
X124414030Y-142693288D01*
X124414029Y-142693288D01*
X124273001Y-142655500D01*
X124126999Y-142655500D01*
X123985971Y-142693288D01*
X123985968Y-142693289D01*
X123859532Y-142766286D01*
X123859527Y-142766290D01*
X123756290Y-142869527D01*
X123756286Y-142869532D01*
X123683289Y-142995968D01*
X123683288Y-142995971D01*
X123645500Y-143136999D01*
X120653999Y-143136999D01*
X120616712Y-142997840D01*
X120548407Y-142879532D01*
X120543713Y-142871401D01*
X120543709Y-142871396D01*
X120440472Y-142768159D01*
X120440467Y-142768155D01*
X120314031Y-142695158D01*
X120314030Y-142695157D01*
X120314029Y-142695157D01*
X120173001Y-142657369D01*
X120026999Y-142657369D01*
X119885971Y-142695157D01*
X119885970Y-142695157D01*
X119778212Y-142757371D01*
X119710312Y-142773843D01*
X119654213Y-142757370D01*
X119525900Y-142683289D01*
X119525899Y-142683288D01*
X119525898Y-142683288D01*
X119384870Y-142645500D01*
X119238868Y-142645500D01*
X119097840Y-142683288D01*
X119097837Y-142683289D01*
X118971401Y-142756286D01*
X118971396Y-142756290D01*
X118868159Y-142859527D01*
X118868155Y-142859532D01*
X118795158Y-142985968D01*
X118795157Y-142985971D01*
X118757369Y-143126999D01*
X59359675Y-143126999D01*
X59244495Y-143056417D01*
X59228753Y-143044980D01*
X59088535Y-142925222D01*
X59074777Y-142911464D01*
X58955019Y-142771246D01*
X58943582Y-142755504D01*
X58847237Y-142598283D01*
X58838403Y-142580946D01*
X58802939Y-142495329D01*
X58767833Y-142410577D01*
X58761825Y-142392085D01*
X58718777Y-142212775D01*
X58718068Y-142208299D01*
X122645500Y-142208299D01*
X122645500Y-142354300D01*
X122683288Y-142495328D01*
X122683289Y-142495331D01*
X122756286Y-142621767D01*
X122756288Y-142621770D01*
X122756289Y-142621771D01*
X122859529Y-142725011D01*
X122985971Y-142798012D01*
X123126999Y-142835800D01*
X123127001Y-142835800D01*
X123272999Y-142835800D01*
X123273001Y-142835800D01*
X123414029Y-142798012D01*
X123540471Y-142725011D01*
X123643711Y-142621771D01*
X123716712Y-142495329D01*
X123754500Y-142354301D01*
X123754500Y-142208299D01*
X123716712Y-142067271D01*
X123675058Y-141995124D01*
X123643713Y-141940832D01*
X123643709Y-141940827D01*
X123540472Y-141837590D01*
X123540467Y-141837586D01*
X123414031Y-141764589D01*
X123414030Y-141764588D01*
X123414029Y-141764588D01*
X123273001Y-141726800D01*
X123126999Y-141726800D01*
X122985971Y-141764588D01*
X122985968Y-141764589D01*
X122859532Y-141837586D01*
X122859527Y-141837590D01*
X122756290Y-141940827D01*
X122756286Y-141940832D01*
X122683289Y-142067268D01*
X122683288Y-142067271D01*
X122645500Y-142208299D01*
X58718068Y-142208299D01*
X58715733Y-142193559D01*
X58700882Y-142004853D01*
X58700500Y-141995124D01*
X58700500Y-137176999D01*
X73585500Y-137176999D01*
X73585500Y-137323000D01*
X73623288Y-137464028D01*
X73623289Y-137464031D01*
X73696286Y-137590467D01*
X73696290Y-137590472D01*
X73698137Y-137592319D01*
X73699196Y-137594260D01*
X73701235Y-137596916D01*
X73700820Y-137597233D01*
X73731622Y-137653642D01*
X73726638Y-137723334D01*
X73701138Y-137763010D01*
X73701235Y-137763084D01*
X73700351Y-137764235D01*
X73698137Y-137767681D01*
X73696290Y-137769527D01*
X73696286Y-137769532D01*
X73623289Y-137895968D01*
X73623288Y-137895971D01*
X73585500Y-138036999D01*
X73585500Y-138183001D01*
X73605251Y-138256711D01*
X73623288Y-138324028D01*
X73623289Y-138324031D01*
X73696286Y-138450467D01*
X73696288Y-138450470D01*
X73696289Y-138450471D01*
X73799529Y-138553711D01*
X73799530Y-138553712D01*
X73799532Y-138553713D01*
X73862750Y-138590211D01*
X73925971Y-138626712D01*
X74066999Y-138664500D01*
X74067001Y-138664500D01*
X74212999Y-138664500D01*
X74213001Y-138664500D01*
X74354029Y-138626712D01*
X74480471Y-138553711D01*
X74583711Y-138450471D01*
X74603036Y-138416999D01*
X87155500Y-138416999D01*
X87155500Y-138563001D01*
X87182697Y-138664500D01*
X87193288Y-138704028D01*
X87193289Y-138704031D01*
X87266286Y-138830467D01*
X87266288Y-138830470D01*
X87266289Y-138830471D01*
X87369529Y-138933711D01*
X87495971Y-139006712D01*
X87636999Y-139044500D01*
X87637001Y-139044500D01*
X87782999Y-139044500D01*
X87783001Y-139044500D01*
X87922958Y-139006999D01*
X91670730Y-139006999D01*
X91670730Y-139153001D01*
X91694119Y-139240288D01*
X91708518Y-139294028D01*
X91708519Y-139294031D01*
X91781516Y-139420467D01*
X91781518Y-139420470D01*
X91781519Y-139420471D01*
X91884759Y-139523711D01*
X91884760Y-139523712D01*
X91884762Y-139523713D01*
X91918669Y-139543289D01*
X92011201Y-139596712D01*
X92152229Y-139634500D01*
X92152231Y-139634500D01*
X92298229Y-139634500D01*
X92298231Y-139634500D01*
X92298232Y-139634499D01*
X92306287Y-139633439D01*
X92306468Y-139634820D01*
X92367653Y-139636275D01*
X92425517Y-139675436D01*
X92453023Y-139739664D01*
X92453900Y-139754388D01*
X92453900Y-139830001D01*
X92490551Y-139966783D01*
X92491688Y-139971028D01*
X92491689Y-139971031D01*
X92564686Y-140097467D01*
X92564688Y-140097470D01*
X92564689Y-140097471D01*
X92667929Y-140200711D01*
X92667930Y-140200712D01*
X92667932Y-140200713D01*
X92713461Y-140226999D01*
X92794371Y-140273712D01*
X92935399Y-140311500D01*
X92935401Y-140311500D01*
X93081399Y-140311500D01*
X93081401Y-140311500D01*
X93222429Y-140273712D01*
X93348871Y-140200711D01*
X93452111Y-140097471D01*
X93504345Y-140006999D01*
X122645500Y-140006999D01*
X122645500Y-140153001D01*
X122676724Y-140269529D01*
X122683288Y-140294028D01*
X122683289Y-140294031D01*
X122756286Y-140420467D01*
X122756288Y-140420470D01*
X122756289Y-140420471D01*
X122859529Y-140523711D01*
X122859530Y-140523712D01*
X122859532Y-140523713D01*
X122922750Y-140560211D01*
X122985971Y-140596712D01*
X123126999Y-140634500D01*
X123127001Y-140634500D01*
X123272999Y-140634500D01*
X123273001Y-140634500D01*
X123414029Y-140596712D01*
X123540471Y-140523711D01*
X123622319Y-140441863D01*
X123683642Y-140408378D01*
X123753334Y-140413362D01*
X123797681Y-140441863D01*
X123859529Y-140503711D01*
X123859530Y-140503712D01*
X123859532Y-140503713D01*
X123917186Y-140536999D01*
X123985971Y-140576712D01*
X124126999Y-140614500D01*
X124127001Y-140614500D01*
X124272999Y-140614500D01*
X124273001Y-140614500D01*
X124414029Y-140576712D01*
X124540471Y-140503711D01*
X124612319Y-140431863D01*
X124673642Y-140398378D01*
X124743334Y-140403362D01*
X124787681Y-140431863D01*
X124859529Y-140503711D01*
X124859530Y-140503712D01*
X124859532Y-140503713D01*
X124917186Y-140536999D01*
X124985971Y-140576712D01*
X125126999Y-140614500D01*
X125127001Y-140614500D01*
X125272999Y-140614500D01*
X125273001Y-140614500D01*
X125414029Y-140576712D01*
X125482814Y-140536999D01*
X129635500Y-140536999D01*
X129635500Y-140683001D01*
X129671328Y-140816712D01*
X129673288Y-140824028D01*
X129673289Y-140824031D01*
X129746286Y-140950467D01*
X129746288Y-140950470D01*
X129746289Y-140950471D01*
X129849529Y-141053711D01*
X129975971Y-141126712D01*
X130116999Y-141164500D01*
X130117001Y-141164500D01*
X130262999Y-141164500D01*
X130263001Y-141164500D01*
X130404029Y-141126712D01*
X130530471Y-141053711D01*
X130591677Y-140992504D01*
X130652996Y-140959022D01*
X130722688Y-140964006D01*
X130767036Y-140992507D01*
X130808240Y-141033711D01*
X130808241Y-141033712D01*
X130808243Y-141033713D01*
X130871461Y-141070211D01*
X130934682Y-141106712D01*
X131075710Y-141144500D01*
X131075712Y-141144500D01*
X131221710Y-141144500D01*
X131221712Y-141144500D01*
X131362740Y-141106712D01*
X131489182Y-141033711D01*
X131592422Y-140930471D01*
X131665423Y-140804029D01*
X131703211Y-140663001D01*
X131703211Y-140516999D01*
X131665423Y-140375971D01*
X131618114Y-140294029D01*
X131610518Y-140280872D01*
X131610517Y-140280870D01*
X131592426Y-140249535D01*
X131592420Y-140249527D01*
X131569892Y-140226999D01*
X134645500Y-140226999D01*
X134645500Y-140373001D01*
X134680524Y-140503711D01*
X134683288Y-140514028D01*
X134683289Y-140514031D01*
X134756286Y-140640467D01*
X134756288Y-140640470D01*
X134756289Y-140640471D01*
X134859529Y-140743711D01*
X134985971Y-140816712D01*
X135126999Y-140854500D01*
X135127001Y-140854500D01*
X135272999Y-140854500D01*
X135273001Y-140854500D01*
X135414029Y-140816712D01*
X135540471Y-140743711D01*
X135572319Y-140711863D01*
X135633642Y-140678378D01*
X135703334Y-140683362D01*
X135747681Y-140711863D01*
X135779529Y-140743711D01*
X135905971Y-140816712D01*
X136046999Y-140854500D01*
X136047001Y-140854500D01*
X136192999Y-140854500D01*
X136193001Y-140854500D01*
X136334029Y-140816712D01*
X136460471Y-140743711D01*
X136563711Y-140640471D01*
X136636712Y-140514029D01*
X136674500Y-140373001D01*
X136674500Y-140226999D01*
X136636712Y-140085971D01*
X136570351Y-139971030D01*
X136563713Y-139959532D01*
X136563709Y-139959527D01*
X136460472Y-139856290D01*
X136460467Y-139856286D01*
X136334031Y-139783289D01*
X136334030Y-139783288D01*
X136334029Y-139783288D01*
X136193001Y-139745500D01*
X136046999Y-139745500D01*
X135905971Y-139783288D01*
X135905968Y-139783289D01*
X135779532Y-139856286D01*
X135779527Y-139856290D01*
X135747681Y-139888137D01*
X135686358Y-139921622D01*
X135616666Y-139916638D01*
X135572319Y-139888137D01*
X135540472Y-139856290D01*
X135540467Y-139856286D01*
X135414031Y-139783289D01*
X135414030Y-139783288D01*
X135414029Y-139783288D01*
X135273001Y-139745500D01*
X135126999Y-139745500D01*
X134985971Y-139783288D01*
X134985968Y-139783289D01*
X134859532Y-139856286D01*
X134859527Y-139856290D01*
X134756290Y-139959527D01*
X134756286Y-139959532D01*
X134683289Y-140085968D01*
X134683288Y-140085971D01*
X134645500Y-140226999D01*
X131569892Y-140226999D01*
X131489183Y-140146290D01*
X131489178Y-140146286D01*
X131362742Y-140073289D01*
X131362741Y-140073288D01*
X131362740Y-140073288D01*
X131221712Y-140035500D01*
X131075710Y-140035500D01*
X130934682Y-140073288D01*
X130934679Y-140073289D01*
X130808243Y-140146286D01*
X130747036Y-140207493D01*
X130685712Y-140240977D01*
X130616021Y-140235992D01*
X130571674Y-140207492D01*
X130530472Y-140166290D01*
X130530467Y-140166286D01*
X130404031Y-140093289D01*
X130404030Y-140093288D01*
X130404029Y-140093288D01*
X130263001Y-140055500D01*
X130116999Y-140055500D01*
X129975971Y-140093288D01*
X129975968Y-140093289D01*
X129849532Y-140166286D01*
X129849527Y-140166290D01*
X129746290Y-140269527D01*
X129746286Y-140269532D01*
X129673289Y-140395968D01*
X129673288Y-140395971D01*
X129635500Y-140536999D01*
X125482814Y-140536999D01*
X125540471Y-140503711D01*
X125643711Y-140400471D01*
X125716712Y-140274029D01*
X125754500Y-140133001D01*
X125754500Y-139986999D01*
X125716712Y-139845971D01*
X125650693Y-139731622D01*
X125643713Y-139719532D01*
X125643709Y-139719527D01*
X125540472Y-139616290D01*
X125540467Y-139616286D01*
X125414031Y-139543289D01*
X125414030Y-139543288D01*
X125414029Y-139543288D01*
X125273001Y-139505500D01*
X125126999Y-139505500D01*
X124985971Y-139543288D01*
X124985968Y-139543289D01*
X124859532Y-139616286D01*
X124859527Y-139616290D01*
X124787681Y-139688137D01*
X124726358Y-139721622D01*
X124656666Y-139716638D01*
X124612319Y-139688137D01*
X124540472Y-139616290D01*
X124540467Y-139616286D01*
X124414031Y-139543289D01*
X124414030Y-139543288D01*
X124414029Y-139543288D01*
X124273001Y-139505500D01*
X124126999Y-139505500D01*
X123985971Y-139543288D01*
X123985968Y-139543289D01*
X123859532Y-139616286D01*
X123859527Y-139616290D01*
X123777681Y-139698137D01*
X123716358Y-139731622D01*
X123646666Y-139726638D01*
X123602319Y-139698137D01*
X123540472Y-139636290D01*
X123540467Y-139636286D01*
X123414031Y-139563289D01*
X123414030Y-139563288D01*
X123414029Y-139563288D01*
X123273001Y-139525500D01*
X123126999Y-139525500D01*
X122985971Y-139563288D01*
X122985968Y-139563289D01*
X122859532Y-139636286D01*
X122859527Y-139636290D01*
X122756290Y-139739527D01*
X122756286Y-139739532D01*
X122683289Y-139865968D01*
X122683288Y-139865971D01*
X122645500Y-140006999D01*
X93504345Y-140006999D01*
X93525112Y-139971029D01*
X93562900Y-139830001D01*
X93562900Y-139683999D01*
X93525112Y-139542971D01*
X93488611Y-139479750D01*
X93452113Y-139416532D01*
X93452109Y-139416527D01*
X93348872Y-139313290D01*
X93348867Y-139313286D01*
X93222431Y-139240289D01*
X93222430Y-139240288D01*
X93222429Y-139240288D01*
X93081401Y-139202500D01*
X92935399Y-139202500D01*
X92935397Y-139202500D01*
X92927343Y-139203561D01*
X92927161Y-139202182D01*
X92865962Y-139200719D01*
X92808103Y-139161551D01*
X92780605Y-139097320D01*
X92779730Y-139082611D01*
X92779730Y-139007001D01*
X92779730Y-139006999D01*
X92741942Y-138865971D01*
X92668941Y-138739529D01*
X92565701Y-138636289D01*
X92565700Y-138636288D01*
X92565697Y-138636286D01*
X92439261Y-138563289D01*
X92439260Y-138563288D01*
X92439259Y-138563288D01*
X92298231Y-138525500D01*
X92152229Y-138525500D01*
X92011201Y-138563288D01*
X92011198Y-138563289D01*
X91884762Y-138636286D01*
X91884757Y-138636290D01*
X91781520Y-138739527D01*
X91781516Y-138739532D01*
X91708519Y-138865968D01*
X91708518Y-138865971D01*
X91670730Y-139006999D01*
X87922958Y-139006999D01*
X87924029Y-139006712D01*
X88050471Y-138933711D01*
X88153711Y-138830471D01*
X88226712Y-138704029D01*
X88264500Y-138563001D01*
X88264500Y-138485558D01*
X88284185Y-138418519D01*
X88336989Y-138372764D01*
X88406147Y-138362820D01*
X88420581Y-138365780D01*
X88426999Y-138367500D01*
X88427002Y-138367500D01*
X88572999Y-138367500D01*
X88573001Y-138367500D01*
X88714029Y-138329712D01*
X88840471Y-138256711D01*
X88943711Y-138153471D01*
X89016712Y-138027029D01*
X89032507Y-137968080D01*
X89068870Y-137908421D01*
X89131717Y-137877891D01*
X89184372Y-137880398D01*
X89236999Y-137894500D01*
X89237001Y-137894500D01*
X89382999Y-137894500D01*
X89383001Y-137894500D01*
X89524029Y-137856712D01*
X89650471Y-137783711D01*
X89753711Y-137680471D01*
X89826712Y-137554029D01*
X89864500Y-137413001D01*
X89864500Y-137272393D01*
X89884185Y-137205354D01*
X89936989Y-137159599D01*
X90006147Y-137149655D01*
X90050496Y-137165004D01*
X90075971Y-137179712D01*
X90216999Y-137217500D01*
X90217001Y-137217500D01*
X90362999Y-137217500D01*
X90363001Y-137217500D01*
X90504029Y-137179712D01*
X90630471Y-137106711D01*
X90733711Y-137003471D01*
X90806712Y-136877029D01*
X90819337Y-136829909D01*
X90855700Y-136770251D01*
X90918546Y-136739721D01*
X90971202Y-136742228D01*
X91016999Y-136754500D01*
X91017001Y-136754500D01*
X91162999Y-136754500D01*
X91163001Y-136754500D01*
X91304029Y-136716712D01*
X91430471Y-136643711D01*
X91533711Y-136540471D01*
X91606712Y-136414029D01*
X91644500Y-136273001D01*
X91644500Y-136126999D01*
X91606712Y-135985971D01*
X91533711Y-135859529D01*
X91430471Y-135756289D01*
X91430470Y-135756288D01*
X91430467Y-135756286D01*
X91304031Y-135683289D01*
X91304030Y-135683288D01*
X91304029Y-135683288D01*
X91163001Y-135645500D01*
X91016999Y-135645500D01*
X90875971Y-135683288D01*
X90875968Y-135683289D01*
X90749532Y-135756286D01*
X90749527Y-135756290D01*
X90646290Y-135859527D01*
X90646286Y-135859532D01*
X90573289Y-135985968D01*
X90573288Y-135985969D01*
X90560663Y-136033089D01*
X90524297Y-136092749D01*
X90461450Y-136123278D01*
X90408796Y-136120770D01*
X90363002Y-136108500D01*
X90363001Y-136108500D01*
X90216999Y-136108500D01*
X90075971Y-136146288D01*
X90075968Y-136146289D01*
X89949532Y-136219286D01*
X89949527Y-136219290D01*
X89846290Y-136322527D01*
X89846286Y-136322532D01*
X89773289Y-136448968D01*
X89773288Y-136448971D01*
X89735500Y-136589999D01*
X89735500Y-136730606D01*
X89715815Y-136797645D01*
X89663011Y-136843400D01*
X89593853Y-136853344D01*
X89549502Y-136837994D01*
X89524033Y-136823290D01*
X89524031Y-136823289D01*
X89524029Y-136823288D01*
X89383001Y-136785500D01*
X89236999Y-136785500D01*
X89095971Y-136823288D01*
X89095968Y-136823289D01*
X88969532Y-136896286D01*
X88969527Y-136896290D01*
X88866290Y-136999527D01*
X88866286Y-136999532D01*
X88793289Y-137125968D01*
X88793288Y-137125969D01*
X88777493Y-137184919D01*
X88741127Y-137244580D01*
X88678280Y-137275108D01*
X88625626Y-137272600D01*
X88573002Y-137258500D01*
X88573001Y-137258500D01*
X88426999Y-137258500D01*
X88285971Y-137296288D01*
X88285968Y-137296289D01*
X88159532Y-137369286D01*
X88159527Y-137369290D01*
X88056290Y-137472527D01*
X88056286Y-137472532D01*
X87983289Y-137598968D01*
X87983288Y-137598971D01*
X87945500Y-137739999D01*
X87945500Y-137817441D01*
X87925815Y-137884480D01*
X87873011Y-137930235D01*
X87803853Y-137940179D01*
X87789413Y-137937218D01*
X87788013Y-137936842D01*
X87783001Y-137935500D01*
X87636999Y-137935500D01*
X87495971Y-137973288D01*
X87495968Y-137973289D01*
X87369532Y-138046286D01*
X87369527Y-138046290D01*
X87266290Y-138149527D01*
X87266286Y-138149532D01*
X87193289Y-138275968D01*
X87193288Y-138275971D01*
X87155500Y-138416999D01*
X74603036Y-138416999D01*
X74631615Y-138367499D01*
X74643524Y-138346872D01*
X74646970Y-138340901D01*
X74656712Y-138324029D01*
X74694500Y-138183001D01*
X74694500Y-138036999D01*
X74656712Y-137895971D01*
X74583711Y-137769529D01*
X74581863Y-137767681D01*
X74580803Y-137765739D01*
X74578765Y-137763084D01*
X74579179Y-137762766D01*
X74548378Y-137706358D01*
X74553362Y-137636666D01*
X74578861Y-137596989D01*
X74578765Y-137596916D01*
X74579648Y-137595764D01*
X74581863Y-137592319D01*
X74583711Y-137590471D01*
X74656712Y-137464029D01*
X74694500Y-137323001D01*
X74694500Y-137176999D01*
X74656712Y-137035971D01*
X74583711Y-136909529D01*
X74480471Y-136806289D01*
X74480470Y-136806288D01*
X74480467Y-136806286D01*
X74354031Y-136733289D01*
X74354030Y-136733288D01*
X74354029Y-136733288D01*
X74213001Y-136695500D01*
X74066999Y-136695500D01*
X73925971Y-136733288D01*
X73925968Y-136733289D01*
X73799532Y-136806286D01*
X73799527Y-136806290D01*
X73696290Y-136909527D01*
X73696286Y-136909532D01*
X73623289Y-137035968D01*
X73623288Y-137035971D01*
X73585500Y-137176999D01*
X58700500Y-137176999D01*
X58700500Y-134444647D01*
X66387500Y-134444647D01*
X66387500Y-134695352D01*
X66420222Y-134943907D01*
X66485111Y-135186076D01*
X66581047Y-135417685D01*
X66581050Y-135417692D01*
X66706402Y-135634808D01*
X66706404Y-135634811D01*
X66706405Y-135634812D01*
X66859019Y-135833703D01*
X66859025Y-135833710D01*
X67036289Y-136010974D01*
X67036295Y-136010979D01*
X67235192Y-136163598D01*
X67452308Y-136288950D01*
X67683928Y-136384890D01*
X67926089Y-136449777D01*
X68112508Y-136474319D01*
X68174647Y-136482500D01*
X68174648Y-136482500D01*
X68425353Y-136482500D01*
X68475063Y-136475955D01*
X68673911Y-136449777D01*
X68916072Y-136384890D01*
X69147692Y-136288950D01*
X69364808Y-136163598D01*
X69563705Y-136010979D01*
X69740979Y-135833705D01*
X69893598Y-135634808D01*
X70018950Y-135417692D01*
X70114890Y-135186072D01*
X70179777Y-134943911D01*
X70212500Y-134695352D01*
X70212500Y-134444648D01*
X70179777Y-134196089D01*
X70114890Y-133953928D01*
X70018950Y-133722308D01*
X69893598Y-133505192D01*
X69740979Y-133306295D01*
X69740974Y-133306289D01*
X69563710Y-133129025D01*
X69563703Y-133129019D01*
X69364812Y-132976405D01*
X69364811Y-132976404D01*
X69364808Y-132976402D01*
X69147692Y-132851050D01*
X69147685Y-132851047D01*
X68916076Y-132755111D01*
X68673907Y-132690222D01*
X68425353Y-132657500D01*
X68425352Y-132657500D01*
X68174648Y-132657500D01*
X68174647Y-132657500D01*
X67926092Y-132690222D01*
X67683923Y-132755111D01*
X67452314Y-132851047D01*
X67452305Y-132851051D01*
X67235187Y-132976405D01*
X67036296Y-133129019D01*
X67036289Y-133129025D01*
X66859025Y-133306289D01*
X66859019Y-133306296D01*
X66706405Y-133505187D01*
X66581051Y-133722305D01*
X66581047Y-133722314D01*
X66485111Y-133953923D01*
X66420222Y-134196092D01*
X66387500Y-134444647D01*
X58700500Y-134444647D01*
X58700500Y-131413107D01*
X69196000Y-131413107D01*
X69196000Y-131586892D01*
X69223183Y-131758521D01*
X69276884Y-131923793D01*
X69355776Y-132078624D01*
X69355777Y-132078626D01*
X69360844Y-132085600D01*
X69360845Y-132085600D01*
X69946446Y-131500000D01*
X69946446Y-131499999D01*
X69360845Y-130914398D01*
X69360844Y-130914398D01*
X69355775Y-130921375D01*
X69276884Y-131076206D01*
X69223183Y-131241478D01*
X69196000Y-131413107D01*
X58700500Y-131413107D01*
X58700500Y-127084557D01*
X69441499Y-127084557D01*
X69474490Y-127250409D01*
X69474493Y-127250419D01*
X69539203Y-127406644D01*
X69539209Y-127406655D01*
X69633160Y-127547264D01*
X69752735Y-127666839D01*
X69752738Y-127666841D01*
X69893348Y-127760793D01*
X69893354Y-127760795D01*
X69893355Y-127760796D01*
X70048129Y-127824905D01*
X70049585Y-127825508D01*
X70049589Y-127825508D01*
X70049590Y-127825509D01*
X70215442Y-127858500D01*
X70215445Y-127858500D01*
X70384557Y-127858500D01*
X70451610Y-127845161D01*
X70547809Y-127826026D01*
X70568792Y-127827903D01*
X70589647Y-127824905D01*
X70602895Y-127830955D01*
X70617399Y-127832253D01*
X70634036Y-127845177D01*
X70653203Y-127853930D01*
X70661076Y-127866181D01*
X70672577Y-127875115D01*
X70679586Y-127894983D01*
X70690977Y-127912708D01*
X70694511Y-127937290D01*
X70695822Y-127941005D01*
X70696000Y-127947643D01*
X70696000Y-128052356D01*
X70676315Y-128119395D01*
X70623511Y-128165150D01*
X70554353Y-128175094D01*
X70547808Y-128173973D01*
X70384557Y-128141500D01*
X70384555Y-128141500D01*
X70215445Y-128141500D01*
X70215443Y-128141500D01*
X70049590Y-128174490D01*
X70049580Y-128174493D01*
X69893355Y-128239203D01*
X69893344Y-128239209D01*
X69752735Y-128333160D01*
X69633160Y-128452735D01*
X69539209Y-128593344D01*
X69539203Y-128593355D01*
X69474493Y-128749580D01*
X69474490Y-128749590D01*
X69441500Y-128915442D01*
X69441500Y-128915445D01*
X69441500Y-129084555D01*
X69441500Y-129084557D01*
X69441499Y-129084557D01*
X69474490Y-129250409D01*
X69474493Y-129250419D01*
X69539203Y-129406644D01*
X69539209Y-129406655D01*
X69633160Y-129547264D01*
X69752735Y-129666839D01*
X69752738Y-129666841D01*
X69893348Y-129760793D01*
X69893354Y-129760795D01*
X69893355Y-129760796D01*
X70005619Y-129807297D01*
X70049585Y-129825508D01*
X70049589Y-129825508D01*
X70049590Y-129825509D01*
X70215442Y-129858500D01*
X70215445Y-129858500D01*
X70384557Y-129858500D01*
X70496139Y-129836304D01*
X70550415Y-129825508D01*
X70706652Y-129760793D01*
X70827561Y-129680004D01*
X70894238Y-129659127D01*
X70961618Y-129677612D01*
X71008308Y-129729591D01*
X71019484Y-129798561D01*
X71018069Y-129807297D01*
X70995500Y-129920765D01*
X70995500Y-130079240D01*
X71026414Y-130234656D01*
X71026416Y-130234664D01*
X71087059Y-130381071D01*
X71087064Y-130381080D01*
X71124808Y-130437567D01*
X71145686Y-130504244D01*
X71127202Y-130571625D01*
X71075223Y-130618315D01*
X71006253Y-130629491D01*
X70948821Y-130606776D01*
X70878625Y-130555776D01*
X70723793Y-130476884D01*
X70558521Y-130423183D01*
X70386892Y-130396000D01*
X70213108Y-130396000D01*
X70041478Y-130423183D01*
X69876206Y-130476884D01*
X69721375Y-130555775D01*
X69714398Y-130560844D01*
X69714398Y-130560845D01*
X70303553Y-131150000D01*
X70253922Y-131150000D01*
X70164905Y-131173852D01*
X70085095Y-131219930D01*
X70019930Y-131285095D01*
X69973852Y-131364905D01*
X69950000Y-131453922D01*
X69950000Y-131546078D01*
X69973852Y-131635095D01*
X70019930Y-131714905D01*
X70085095Y-131780070D01*
X70164905Y-131826148D01*
X70253922Y-131850000D01*
X70303552Y-131850000D01*
X69714398Y-132439152D01*
X69721382Y-132444228D01*
X69876206Y-132523115D01*
X70041478Y-132576816D01*
X70213108Y-132604000D01*
X70386892Y-132604000D01*
X70558521Y-132576816D01*
X70723793Y-132523115D01*
X70878623Y-132444225D01*
X70943009Y-132397445D01*
X71008815Y-132373964D01*
X71076869Y-132389789D01*
X71118998Y-132428871D01*
X71175103Y-132512838D01*
X71175106Y-132512842D01*
X71287157Y-132624893D01*
X71287161Y-132624896D01*
X71418919Y-132712935D01*
X71418925Y-132712938D01*
X71418926Y-132712939D01*
X71565336Y-132773584D01*
X71720759Y-132804499D01*
X71720763Y-132804500D01*
X71720764Y-132804500D01*
X71879237Y-132804500D01*
X71879238Y-132804499D01*
X72034664Y-132773584D01*
X72181074Y-132712939D01*
X72312839Y-132624896D01*
X72424896Y-132512839D01*
X72512939Y-132381074D01*
X72573584Y-132234664D01*
X72604500Y-132079236D01*
X72604500Y-131920764D01*
X72573584Y-131765336D01*
X72525983Y-131650418D01*
X72512940Y-131618928D01*
X72512935Y-131618919D01*
X72424896Y-131487161D01*
X72424893Y-131487157D01*
X72312842Y-131375106D01*
X72312838Y-131375103D01*
X72181080Y-131287064D01*
X72181071Y-131287059D01*
X72034664Y-131226416D01*
X72034656Y-131226414D01*
X71879240Y-131195500D01*
X71879236Y-131195500D01*
X71720764Y-131195500D01*
X71720759Y-131195500D01*
X71565343Y-131226414D01*
X71565336Y-131226416D01*
X71518794Y-131245694D01*
X71449325Y-131253162D01*
X71386846Y-131221886D01*
X71353412Y-131169450D01*
X71323115Y-131076208D01*
X71244225Y-130921377D01*
X71193223Y-130851179D01*
X71169743Y-130785372D01*
X71185568Y-130717319D01*
X71235674Y-130668624D01*
X71304152Y-130654748D01*
X71362432Y-130675191D01*
X71418926Y-130712939D01*
X71565336Y-130773584D01*
X71720759Y-130804499D01*
X71720763Y-130804500D01*
X71720764Y-130804500D01*
X71879237Y-130804500D01*
X71879238Y-130804499D01*
X72034664Y-130773584D01*
X72181074Y-130712939D01*
X72312839Y-130624896D01*
X72424896Y-130512839D01*
X72512939Y-130381074D01*
X72573584Y-130234664D01*
X72604500Y-130079236D01*
X72604500Y-129920764D01*
X72573584Y-129765336D01*
X72512939Y-129618926D01*
X72512938Y-129618925D01*
X72512935Y-129618919D01*
X72424896Y-129487161D01*
X72424893Y-129487157D01*
X72312842Y-129375106D01*
X72312838Y-129375103D01*
X72181080Y-129287064D01*
X72181075Y-129287062D01*
X72181074Y-129287061D01*
X72153282Y-129275549D01*
X72098879Y-129231707D01*
X72076815Y-129165413D01*
X72094095Y-129097713D01*
X72145233Y-129050104D01*
X72162418Y-129043057D01*
X72223791Y-129023115D01*
X72378624Y-128944224D01*
X72385600Y-128939153D01*
X71796447Y-128350000D01*
X71846078Y-128350000D01*
X71935095Y-128326148D01*
X72014905Y-128280070D01*
X72080070Y-128214905D01*
X72126148Y-128135095D01*
X72150000Y-128046078D01*
X72150000Y-127999999D01*
X72153553Y-127999999D01*
X72153553Y-128000000D01*
X72739153Y-128585600D01*
X72744224Y-128578624D01*
X72823115Y-128423793D01*
X72876816Y-128258521D01*
X72904000Y-128086892D01*
X72904000Y-127913107D01*
X72876816Y-127741478D01*
X72823115Y-127576206D01*
X72744228Y-127421382D01*
X72739153Y-127414398D01*
X72153553Y-127999999D01*
X72150000Y-127999999D01*
X72150000Y-127953922D01*
X72126148Y-127864905D01*
X72080070Y-127785095D01*
X72014905Y-127719930D01*
X71935095Y-127673852D01*
X71846078Y-127650000D01*
X71796446Y-127650000D01*
X72385600Y-127060845D01*
X72385600Y-127060844D01*
X72378626Y-127055777D01*
X72378624Y-127055776D01*
X72223792Y-126976884D01*
X72162417Y-126956942D01*
X72104742Y-126917504D01*
X72077544Y-126853145D01*
X72089459Y-126784299D01*
X72136704Y-126732823D01*
X72153278Y-126724452D01*
X72181074Y-126712939D01*
X72312839Y-126624896D01*
X72424896Y-126512839D01*
X72512939Y-126381074D01*
X72573584Y-126234664D01*
X72604500Y-126079236D01*
X72604500Y-125920764D01*
X72573584Y-125765336D01*
X72512939Y-125618926D01*
X72512938Y-125618925D01*
X72512935Y-125618919D01*
X72424896Y-125487161D01*
X72424893Y-125487157D01*
X72312842Y-125375106D01*
X72312838Y-125375103D01*
X72181080Y-125287064D01*
X72181071Y-125287059D01*
X72034664Y-125226416D01*
X72034656Y-125226414D01*
X71879240Y-125195500D01*
X71879236Y-125195500D01*
X71720764Y-125195500D01*
X71720759Y-125195500D01*
X71565343Y-125226414D01*
X71565335Y-125226416D01*
X71418928Y-125287059D01*
X71418919Y-125287064D01*
X71287161Y-125375103D01*
X71287157Y-125375106D01*
X71175106Y-125487157D01*
X71175103Y-125487161D01*
X71087064Y-125618919D01*
X71087059Y-125618928D01*
X71026416Y-125765335D01*
X71026414Y-125765343D01*
X70995500Y-125920759D01*
X70995500Y-125920763D01*
X70995500Y-125920764D01*
X70995500Y-126079236D01*
X70995501Y-126079240D01*
X71018069Y-126192702D01*
X71011840Y-126262293D01*
X70968977Y-126317470D01*
X70903087Y-126340714D01*
X70835090Y-126324646D01*
X70827561Y-126319995D01*
X70706655Y-126239209D01*
X70706654Y-126239208D01*
X70706652Y-126239207D01*
X70706649Y-126239205D01*
X70706644Y-126239203D01*
X70550419Y-126174493D01*
X70550409Y-126174490D01*
X70384557Y-126141500D01*
X70384555Y-126141500D01*
X70215445Y-126141500D01*
X70215443Y-126141500D01*
X70049590Y-126174490D01*
X70049580Y-126174493D01*
X69893355Y-126239203D01*
X69893344Y-126239209D01*
X69752735Y-126333160D01*
X69633160Y-126452735D01*
X69539209Y-126593344D01*
X69539203Y-126593355D01*
X69474493Y-126749580D01*
X69474490Y-126749590D01*
X69441500Y-126915442D01*
X69441500Y-126915445D01*
X69441500Y-127084555D01*
X69441500Y-127084557D01*
X69441499Y-127084557D01*
X58700500Y-127084557D01*
X58700500Y-124584557D01*
X69441499Y-124584557D01*
X69474490Y-124750409D01*
X69474493Y-124750419D01*
X69539203Y-124906644D01*
X69539209Y-124906655D01*
X69633160Y-125047264D01*
X69752735Y-125166839D01*
X69752738Y-125166841D01*
X69893348Y-125260793D01*
X70049585Y-125325508D01*
X70049589Y-125325508D01*
X70049590Y-125325509D01*
X70215442Y-125358500D01*
X70215445Y-125358500D01*
X70384557Y-125358500D01*
X70496139Y-125336304D01*
X70550415Y-125325508D01*
X70706652Y-125260793D01*
X70847262Y-125166841D01*
X70966841Y-125047262D01*
X71060793Y-124906652D01*
X71125508Y-124750415D01*
X71130306Y-124726294D01*
X71162689Y-124664384D01*
X71223405Y-124629809D01*
X71293174Y-124633548D01*
X71320814Y-124647383D01*
X71418919Y-124712935D01*
X71418925Y-124712938D01*
X71418926Y-124712939D01*
X71565336Y-124773584D01*
X71720759Y-124804499D01*
X71720763Y-124804500D01*
X71720764Y-124804500D01*
X71879237Y-124804500D01*
X71879238Y-124804499D01*
X72034664Y-124773584D01*
X72181074Y-124712939D01*
X72312839Y-124624896D01*
X72424896Y-124512839D01*
X72512939Y-124381074D01*
X72573584Y-124234664D01*
X72604500Y-124079236D01*
X72604500Y-123920764D01*
X72573584Y-123765336D01*
X72526678Y-123652095D01*
X72512940Y-123618928D01*
X72512935Y-123618919D01*
X72424896Y-123487161D01*
X72424893Y-123487157D01*
X72312842Y-123375106D01*
X72312838Y-123375103D01*
X72181080Y-123287064D01*
X72181071Y-123287059D01*
X72034664Y-123226416D01*
X72034656Y-123226414D01*
X71879240Y-123195500D01*
X71879236Y-123195500D01*
X71720764Y-123195500D01*
X71720759Y-123195500D01*
X71565343Y-123226414D01*
X71565335Y-123226416D01*
X71418928Y-123287059D01*
X71418919Y-123287064D01*
X71287161Y-123375103D01*
X71287157Y-123375106D01*
X71175106Y-123487157D01*
X71175103Y-123487161D01*
X71087064Y-123618919D01*
X71087059Y-123618928D01*
X71064044Y-123674493D01*
X71026417Y-123765335D01*
X71024085Y-123770964D01*
X71021895Y-123770057D01*
X70989333Y-123819721D01*
X70925514Y-123848164D01*
X70856450Y-123837589D01*
X70840100Y-123828373D01*
X70706655Y-123739209D01*
X70706654Y-123739208D01*
X70706652Y-123739207D01*
X70706649Y-123739205D01*
X70706644Y-123739203D01*
X70550419Y-123674493D01*
X70550409Y-123674490D01*
X70384557Y-123641500D01*
X70384555Y-123641500D01*
X70215445Y-123641500D01*
X70215443Y-123641500D01*
X70049590Y-123674490D01*
X70049580Y-123674493D01*
X69893355Y-123739203D01*
X69893344Y-123739209D01*
X69752735Y-123833160D01*
X69633160Y-123952735D01*
X69539209Y-124093344D01*
X69539203Y-124093355D01*
X69474493Y-124249580D01*
X69474490Y-124249590D01*
X69441500Y-124415442D01*
X69441500Y-124415445D01*
X69441500Y-124584555D01*
X69441500Y-124584557D01*
X69441499Y-124584557D01*
X58700500Y-124584557D01*
X58700500Y-121304647D01*
X66387500Y-121304647D01*
X66387500Y-121555352D01*
X66420222Y-121803907D01*
X66485111Y-122046076D01*
X66581047Y-122277685D01*
X66581050Y-122277692D01*
X66706402Y-122494808D01*
X66706404Y-122494811D01*
X66706405Y-122494812D01*
X66859019Y-122693703D01*
X66859025Y-122693710D01*
X67036289Y-122870974D01*
X67036295Y-122870979D01*
X67235192Y-123023598D01*
X67452308Y-123148950D01*
X67683928Y-123244890D01*
X67926089Y-123309777D01*
X68112508Y-123334319D01*
X68174647Y-123342500D01*
X68174648Y-123342500D01*
X68425353Y-123342500D01*
X68475063Y-123335955D01*
X68673911Y-123309777D01*
X68916072Y-123244890D01*
X69147692Y-123148950D01*
X69364808Y-123023598D01*
X69563705Y-122870979D01*
X69740979Y-122693705D01*
X69893598Y-122494808D01*
X70018950Y-122277692D01*
X70114890Y-122046072D01*
X70179777Y-121803911D01*
X70212500Y-121555352D01*
X70212500Y-121304648D01*
X70179777Y-121056089D01*
X70114890Y-120813928D01*
X70018950Y-120582308D01*
X69893598Y-120365192D01*
X69740979Y-120166295D01*
X69740974Y-120166289D01*
X69563710Y-119989025D01*
X69563703Y-119989019D01*
X69364812Y-119836405D01*
X69364811Y-119836404D01*
X69364808Y-119836402D01*
X69147692Y-119711050D01*
X69147685Y-119711047D01*
X68916076Y-119615111D01*
X68673907Y-119550222D01*
X68425353Y-119517500D01*
X68425352Y-119517500D01*
X68174648Y-119517500D01*
X68174647Y-119517500D01*
X67926092Y-119550222D01*
X67683923Y-119615111D01*
X67452314Y-119711047D01*
X67452305Y-119711051D01*
X67235187Y-119836405D01*
X67036296Y-119989019D01*
X67036289Y-119989025D01*
X66859025Y-120166289D01*
X66859019Y-120166296D01*
X66706405Y-120365187D01*
X66581051Y-120582305D01*
X66581047Y-120582314D01*
X66485111Y-120813923D01*
X66420222Y-121056092D01*
X66387500Y-121304647D01*
X58700500Y-121304647D01*
X58700500Y-105785720D01*
X65940000Y-105785720D01*
X65940000Y-105994279D01*
X65972626Y-106200272D01*
X66037075Y-106398627D01*
X66131759Y-106584451D01*
X66167627Y-106633818D01*
X66167627Y-106633819D01*
X66741212Y-106060233D01*
X66752482Y-106102292D01*
X66824890Y-106227708D01*
X66927292Y-106330110D01*
X67052708Y-106402518D01*
X67094765Y-106413787D01*
X66521179Y-106987371D01*
X66521180Y-106987372D01*
X66570543Y-107023236D01*
X66570556Y-107023244D01*
X66756374Y-107117924D01*
X66920140Y-107171136D01*
X66977816Y-107210574D01*
X67005014Y-107274932D01*
X66993099Y-107343779D01*
X66945855Y-107395254D01*
X66920141Y-107406998D01*
X66850611Y-107429589D01*
X66699218Y-107506729D01*
X66620789Y-107563711D01*
X66561753Y-107606604D01*
X66561751Y-107606606D01*
X66561750Y-107606606D01*
X66441606Y-107726750D01*
X66441606Y-107726751D01*
X66441604Y-107726753D01*
X66398711Y-107785789D01*
X66341729Y-107864218D01*
X66264589Y-108015611D01*
X66212080Y-108177215D01*
X66185500Y-108345036D01*
X66185500Y-108514963D01*
X66212080Y-108682784D01*
X66264589Y-108844388D01*
X66341729Y-108995781D01*
X66441604Y-109133247D01*
X66561753Y-109253396D01*
X66699219Y-109353271D01*
X66770745Y-109389715D01*
X66850611Y-109430410D01*
X66850613Y-109430410D01*
X66850616Y-109430412D01*
X66937237Y-109458557D01*
X67012215Y-109482919D01*
X67180037Y-109509500D01*
X67180042Y-109509500D01*
X67349963Y-109509500D01*
X67517784Y-109482919D01*
X67679384Y-109430412D01*
X67830781Y-109353271D01*
X67968247Y-109253396D01*
X68088396Y-109133247D01*
X68188271Y-108995781D01*
X68265412Y-108844384D01*
X68317919Y-108682784D01*
X68344500Y-108514963D01*
X68344500Y-108345036D01*
X68317919Y-108177215D01*
X68265410Y-108015611D01*
X68188270Y-107864218D01*
X68088396Y-107726753D01*
X67968247Y-107606604D01*
X67830781Y-107506729D01*
X67679388Y-107429589D01*
X67647654Y-107419278D01*
X67609857Y-107406997D01*
X67552183Y-107367560D01*
X67524985Y-107303202D01*
X67536900Y-107234355D01*
X67584144Y-107182880D01*
X67609859Y-107171136D01*
X67773625Y-107117924D01*
X67959451Y-107023240D01*
X68008818Y-106987372D01*
X68008818Y-106987371D01*
X67435234Y-106413787D01*
X67477292Y-106402518D01*
X67602708Y-106330110D01*
X67705110Y-106227708D01*
X67777518Y-106102292D01*
X67788787Y-106060234D01*
X68362371Y-106633818D01*
X68362372Y-106633818D01*
X68398240Y-106584451D01*
X68424515Y-106532885D01*
X68472489Y-106482089D01*
X68540310Y-106465294D01*
X68606445Y-106487831D01*
X68645485Y-106532885D01*
X68671759Y-106584451D01*
X68707627Y-106633818D01*
X68707627Y-106633819D01*
X69281212Y-106060234D01*
X69292482Y-106102292D01*
X69364890Y-106227708D01*
X69467292Y-106330110D01*
X69592708Y-106402518D01*
X69634765Y-106413787D01*
X69061179Y-106987371D01*
X69061180Y-106987372D01*
X69110543Y-107023236D01*
X69110556Y-107023244D01*
X69296374Y-107117924D01*
X69460140Y-107171136D01*
X69517816Y-107210574D01*
X69545014Y-107274932D01*
X69533099Y-107343779D01*
X69485855Y-107395254D01*
X69460141Y-107406998D01*
X69390611Y-107429589D01*
X69239218Y-107506729D01*
X69160789Y-107563711D01*
X69101753Y-107606604D01*
X69101751Y-107606606D01*
X69101750Y-107606606D01*
X68981606Y-107726750D01*
X68981606Y-107726751D01*
X68981604Y-107726753D01*
X68938711Y-107785789D01*
X68881729Y-107864218D01*
X68804589Y-108015611D01*
X68752080Y-108177215D01*
X68725500Y-108345036D01*
X68725500Y-108514963D01*
X68752080Y-108682784D01*
X68804589Y-108844388D01*
X68881729Y-108995781D01*
X68981604Y-109133247D01*
X69101753Y-109253396D01*
X69239219Y-109353271D01*
X69310745Y-109389715D01*
X69390611Y-109430410D01*
X69390613Y-109430410D01*
X69390616Y-109430412D01*
X69477237Y-109458557D01*
X69552215Y-109482919D01*
X69720037Y-109509500D01*
X69720042Y-109509500D01*
X69889963Y-109509500D01*
X70057784Y-109482919D01*
X70219384Y-109430412D01*
X70370781Y-109353271D01*
X70508247Y-109253396D01*
X70628396Y-109133247D01*
X70728271Y-108995781D01*
X70805412Y-108844384D01*
X70857919Y-108682784D01*
X70884500Y-108514963D01*
X70884500Y-108345036D01*
X70857919Y-108177215D01*
X70805410Y-108015611D01*
X70728270Y-107864218D01*
X70628396Y-107726753D01*
X70508247Y-107606604D01*
X70370781Y-107506729D01*
X70219388Y-107429589D01*
X70187654Y-107419278D01*
X70149857Y-107406997D01*
X70092183Y-107367560D01*
X70064985Y-107303202D01*
X70076900Y-107234355D01*
X70124144Y-107182880D01*
X70149859Y-107171136D01*
X70313625Y-107117924D01*
X70499451Y-107023240D01*
X70548818Y-106987372D01*
X70548818Y-106987371D01*
X69975234Y-106413787D01*
X70017292Y-106402518D01*
X70142708Y-106330110D01*
X70245110Y-106227708D01*
X70317518Y-106102292D01*
X70328787Y-106060234D01*
X70902371Y-106633818D01*
X70902372Y-106633818D01*
X70938240Y-106584451D01*
X71032924Y-106398627D01*
X71097373Y-106200272D01*
X71130000Y-105994279D01*
X71130000Y-105785720D01*
X71097373Y-105579727D01*
X71032924Y-105381372D01*
X70938244Y-105195556D01*
X70938236Y-105195543D01*
X70902372Y-105146180D01*
X70902371Y-105146179D01*
X70328787Y-105719764D01*
X70317518Y-105677708D01*
X70245110Y-105552292D01*
X70142708Y-105449890D01*
X70017292Y-105377482D01*
X69975233Y-105366212D01*
X70548819Y-104792627D01*
X70499451Y-104756759D01*
X70313626Y-104662075D01*
X70149858Y-104608863D01*
X70092183Y-104569425D01*
X70064985Y-104505066D01*
X70076900Y-104436220D01*
X70124144Y-104384744D01*
X70149854Y-104373003D01*
X70219384Y-104350412D01*
X70370781Y-104273271D01*
X70508247Y-104173396D01*
X70628396Y-104053247D01*
X70728271Y-103915781D01*
X70805412Y-103764384D01*
X70857919Y-103602784D01*
X70884500Y-103434963D01*
X70884500Y-103265036D01*
X70857919Y-103097215D01*
X70805410Y-102935611D01*
X70728270Y-102784218D01*
X70628396Y-102646753D01*
X70508247Y-102526604D01*
X70370781Y-102426729D01*
X70358491Y-102420467D01*
X70219388Y-102349589D01*
X70057784Y-102297080D01*
X69889963Y-102270500D01*
X69889958Y-102270500D01*
X69720042Y-102270500D01*
X69720037Y-102270500D01*
X69552215Y-102297080D01*
X69390611Y-102349589D01*
X69239218Y-102426729D01*
X69160789Y-102483711D01*
X69101753Y-102526604D01*
X69101751Y-102526606D01*
X69101750Y-102526606D01*
X68981606Y-102646750D01*
X68981606Y-102646751D01*
X68981604Y-102646753D01*
X68938711Y-102705789D01*
X68881729Y-102784218D01*
X68804589Y-102935611D01*
X68752080Y-103097215D01*
X68725500Y-103265036D01*
X68725500Y-103434963D01*
X68752080Y-103602784D01*
X68804589Y-103764388D01*
X68881729Y-103915781D01*
X68981604Y-104053247D01*
X69101753Y-104173396D01*
X69239219Y-104273271D01*
X69390616Y-104350412D01*
X69460141Y-104373002D01*
X69517815Y-104412438D01*
X69545014Y-104476796D01*
X69533100Y-104545643D01*
X69485856Y-104597119D01*
X69460141Y-104608863D01*
X69296373Y-104662075D01*
X69110552Y-104756757D01*
X69061180Y-104792627D01*
X69634766Y-105366212D01*
X69592708Y-105377482D01*
X69467292Y-105449890D01*
X69364890Y-105552292D01*
X69292482Y-105677708D01*
X69281212Y-105719765D01*
X68707627Y-105146180D01*
X68671755Y-105195555D01*
X68645484Y-105247115D01*
X68597510Y-105297910D01*
X68529689Y-105314705D01*
X68463554Y-105292167D01*
X68424516Y-105247115D01*
X68398247Y-105195561D01*
X68398236Y-105195543D01*
X68362372Y-105146180D01*
X68362371Y-105146179D01*
X67788787Y-105719764D01*
X67777518Y-105677708D01*
X67705110Y-105552292D01*
X67602708Y-105449890D01*
X67477292Y-105377482D01*
X67435233Y-105366212D01*
X68008819Y-104792627D01*
X67959451Y-104756759D01*
X67773626Y-104662075D01*
X67609858Y-104608863D01*
X67552183Y-104569425D01*
X67524985Y-104505066D01*
X67536900Y-104436220D01*
X67584144Y-104384744D01*
X67609854Y-104373003D01*
X67679384Y-104350412D01*
X67830781Y-104273271D01*
X67968247Y-104173396D01*
X68088396Y-104053247D01*
X68188271Y-103915781D01*
X68265412Y-103764384D01*
X68317919Y-103602784D01*
X68344500Y-103434963D01*
X68344500Y-103265036D01*
X68317919Y-103097215D01*
X68265410Y-102935611D01*
X68188270Y-102784218D01*
X68088396Y-102646753D01*
X67968247Y-102526604D01*
X67830781Y-102426729D01*
X67818491Y-102420467D01*
X67679388Y-102349589D01*
X67517784Y-102297080D01*
X67349963Y-102270500D01*
X67349958Y-102270500D01*
X67180042Y-102270500D01*
X67180037Y-102270500D01*
X67012215Y-102297080D01*
X66850611Y-102349589D01*
X66699218Y-102426729D01*
X66620789Y-102483711D01*
X66561753Y-102526604D01*
X66561751Y-102526606D01*
X66561750Y-102526606D01*
X66441606Y-102646750D01*
X66441606Y-102646751D01*
X66441604Y-102646753D01*
X66398711Y-102705789D01*
X66341729Y-102784218D01*
X66264589Y-102935611D01*
X66212080Y-103097215D01*
X66185500Y-103265036D01*
X66185500Y-103434963D01*
X66212080Y-103602784D01*
X66264589Y-103764388D01*
X66341729Y-103915781D01*
X66441604Y-104053247D01*
X66561753Y-104173396D01*
X66699219Y-104273271D01*
X66850616Y-104350412D01*
X66920141Y-104373002D01*
X66977815Y-104412438D01*
X67005014Y-104476796D01*
X66993100Y-104545643D01*
X66945856Y-104597119D01*
X66920141Y-104608863D01*
X66756373Y-104662075D01*
X66570552Y-104756757D01*
X66521180Y-104792627D01*
X67094766Y-105366212D01*
X67052708Y-105377482D01*
X66927292Y-105449890D01*
X66824890Y-105552292D01*
X66752482Y-105677708D01*
X66741212Y-105719765D01*
X66167627Y-105146180D01*
X66131757Y-105195552D01*
X66037075Y-105381372D01*
X65972626Y-105579727D01*
X65940000Y-105785720D01*
X58700500Y-105785720D01*
X58700500Y-102006999D01*
X96915502Y-102006999D01*
X96915502Y-102153001D01*
X96946986Y-102270500D01*
X96953290Y-102294028D01*
X96953291Y-102294031D01*
X97026288Y-102420467D01*
X97026290Y-102420470D01*
X97026291Y-102420471D01*
X97129531Y-102523711D01*
X97129532Y-102523712D01*
X97129534Y-102523713D01*
X97134545Y-102526606D01*
X97255973Y-102596712D01*
X97397001Y-102634500D01*
X97397003Y-102634500D01*
X97543001Y-102634500D01*
X97543003Y-102634500D01*
X97684031Y-102596712D01*
X97810473Y-102523711D01*
X97913713Y-102420471D01*
X97986714Y-102294029D01*
X98024502Y-102153001D01*
X98024502Y-102006999D01*
X97986714Y-101865971D01*
X97913713Y-101739529D01*
X97810473Y-101636289D01*
X97810472Y-101636288D01*
X97810469Y-101636286D01*
X97684033Y-101563289D01*
X97684032Y-101563288D01*
X97684031Y-101563288D01*
X97543003Y-101525500D01*
X97397001Y-101525500D01*
X97255973Y-101563288D01*
X97255970Y-101563289D01*
X97129534Y-101636286D01*
X97129529Y-101636290D01*
X97026292Y-101739527D01*
X97026288Y-101739532D01*
X96953291Y-101865968D01*
X96953290Y-101865971D01*
X96915502Y-102006999D01*
X58700500Y-102006999D01*
X58700500Y-100725036D01*
X66185500Y-100725036D01*
X66185500Y-100894963D01*
X66212080Y-101062784D01*
X66264589Y-101224388D01*
X66341729Y-101375781D01*
X66441604Y-101513247D01*
X66561753Y-101633396D01*
X66699219Y-101733271D01*
X66770745Y-101769715D01*
X66850611Y-101810410D01*
X66850613Y-101810410D01*
X66850616Y-101810412D01*
X66937237Y-101838557D01*
X67012215Y-101862919D01*
X67180037Y-101889500D01*
X67180042Y-101889500D01*
X67349963Y-101889500D01*
X67517784Y-101862919D01*
X67679384Y-101810412D01*
X67830781Y-101733271D01*
X67968247Y-101633396D01*
X68088396Y-101513247D01*
X68188271Y-101375781D01*
X68265412Y-101224384D01*
X68317919Y-101062784D01*
X68344500Y-100894963D01*
X68344500Y-100725036D01*
X68725500Y-100725036D01*
X68725500Y-100894963D01*
X68752080Y-101062784D01*
X68804589Y-101224388D01*
X68881729Y-101375781D01*
X68981604Y-101513247D01*
X69101753Y-101633396D01*
X69239219Y-101733271D01*
X69310745Y-101769715D01*
X69390611Y-101810410D01*
X69390613Y-101810410D01*
X69390616Y-101810412D01*
X69477237Y-101838557D01*
X69552215Y-101862919D01*
X69720037Y-101889500D01*
X69720042Y-101889500D01*
X69889963Y-101889500D01*
X69972678Y-101876399D01*
X70057784Y-101862919D01*
X70219384Y-101810412D01*
X70370781Y-101733271D01*
X70508247Y-101633396D01*
X70628396Y-101513247D01*
X70728271Y-101375781D01*
X70805412Y-101224384D01*
X70857919Y-101062784D01*
X70884500Y-100894963D01*
X70884500Y-100725036D01*
X70857919Y-100557215D01*
X70805410Y-100395611D01*
X70728270Y-100244218D01*
X70628396Y-100106753D01*
X70508247Y-99986604D01*
X70370781Y-99886729D01*
X70219388Y-99809589D01*
X70057784Y-99757080D01*
X69889963Y-99730500D01*
X69889958Y-99730500D01*
X69720042Y-99730500D01*
X69720037Y-99730500D01*
X69552215Y-99757080D01*
X69390611Y-99809589D01*
X69239218Y-99886729D01*
X69160789Y-99943711D01*
X69101753Y-99986604D01*
X69101751Y-99986606D01*
X69101750Y-99986606D01*
X68981606Y-100106750D01*
X68981606Y-100106751D01*
X68981604Y-100106753D01*
X68938711Y-100165789D01*
X68881729Y-100244218D01*
X68804589Y-100395611D01*
X68752080Y-100557215D01*
X68725500Y-100725036D01*
X68344500Y-100725036D01*
X68317919Y-100557215D01*
X68265410Y-100395611D01*
X68188270Y-100244218D01*
X68088396Y-100106753D01*
X67968247Y-99986604D01*
X67830781Y-99886729D01*
X67679388Y-99809589D01*
X67517784Y-99757080D01*
X67349963Y-99730500D01*
X67349958Y-99730500D01*
X67180042Y-99730500D01*
X67180037Y-99730500D01*
X67012215Y-99757080D01*
X66850611Y-99809589D01*
X66699218Y-99886729D01*
X66620789Y-99943711D01*
X66561753Y-99986604D01*
X66561751Y-99986606D01*
X66561750Y-99986606D01*
X66441606Y-100106750D01*
X66441606Y-100106751D01*
X66441604Y-100106753D01*
X66398711Y-100165789D01*
X66341729Y-100244218D01*
X66264589Y-100395611D01*
X66212080Y-100557215D01*
X66185500Y-100725036D01*
X58700500Y-100725036D01*
X58700500Y-98185036D01*
X66185500Y-98185036D01*
X66185500Y-98354963D01*
X66212080Y-98522784D01*
X66264589Y-98684388D01*
X66301882Y-98757578D01*
X66341729Y-98835781D01*
X66441604Y-98973247D01*
X66561753Y-99093396D01*
X66699219Y-99193271D01*
X66770745Y-99229715D01*
X66850611Y-99270410D01*
X66850613Y-99270410D01*
X66850616Y-99270412D01*
X66937237Y-99298557D01*
X67012215Y-99322919D01*
X67180037Y-99349500D01*
X67180042Y-99349500D01*
X67349963Y-99349500D01*
X67517784Y-99322919D01*
X67679384Y-99270412D01*
X67830781Y-99193271D01*
X67968247Y-99093396D01*
X68088396Y-98973247D01*
X68188271Y-98835781D01*
X68265412Y-98684384D01*
X68317919Y-98522784D01*
X68344500Y-98354963D01*
X68344500Y-98185036D01*
X68725500Y-98185036D01*
X68725500Y-98354963D01*
X68752080Y-98522784D01*
X68804589Y-98684388D01*
X68841882Y-98757578D01*
X68881729Y-98835781D01*
X68981604Y-98973247D01*
X69101753Y-99093396D01*
X69239219Y-99193271D01*
X69310745Y-99229715D01*
X69390611Y-99270410D01*
X69390613Y-99270410D01*
X69390616Y-99270412D01*
X69477237Y-99298557D01*
X69552215Y-99322919D01*
X69720037Y-99349500D01*
X69720042Y-99349500D01*
X69889963Y-99349500D01*
X70057784Y-99322919D01*
X70219384Y-99270412D01*
X70370781Y-99193271D01*
X70460224Y-99128287D01*
X100214212Y-99128287D01*
X100214212Y-99274289D01*
X100227243Y-99322919D01*
X100252000Y-99415316D01*
X100252001Y-99415319D01*
X100324998Y-99541755D01*
X100325000Y-99541758D01*
X100325001Y-99541759D01*
X100428241Y-99644999D01*
X100554683Y-99718000D01*
X100695711Y-99755788D01*
X100695713Y-99755788D01*
X100841711Y-99755788D01*
X100841713Y-99755788D01*
X100982741Y-99718000D01*
X101109183Y-99644999D01*
X101212423Y-99541759D01*
X101285424Y-99415317D01*
X101323212Y-99274289D01*
X101323212Y-99128287D01*
X101285424Y-98987259D01*
X101212423Y-98860817D01*
X101109183Y-98757577D01*
X101109182Y-98757576D01*
X101109179Y-98757574D01*
X100982743Y-98684577D01*
X100982742Y-98684576D01*
X100982741Y-98684576D01*
X100841713Y-98646788D01*
X100695711Y-98646788D01*
X100554683Y-98684576D01*
X100554680Y-98684577D01*
X100428244Y-98757574D01*
X100428239Y-98757578D01*
X100325002Y-98860815D01*
X100324998Y-98860820D01*
X100252001Y-98987256D01*
X100252000Y-98987259D01*
X100214212Y-99128287D01*
X70460224Y-99128287D01*
X70508247Y-99093396D01*
X70628396Y-98973247D01*
X70728271Y-98835781D01*
X70805412Y-98684384D01*
X70857919Y-98522784D01*
X70884500Y-98354963D01*
X70884500Y-98185036D01*
X70857919Y-98017215D01*
X70805410Y-97855611D01*
X70728270Y-97704218D01*
X70628396Y-97566753D01*
X70508247Y-97446604D01*
X70370781Y-97346729D01*
X70364854Y-97343709D01*
X70219388Y-97269589D01*
X70057784Y-97217080D01*
X69889963Y-97190500D01*
X69889958Y-97190500D01*
X69720042Y-97190500D01*
X69720037Y-97190500D01*
X69552215Y-97217080D01*
X69390611Y-97269589D01*
X69239218Y-97346729D01*
X69160789Y-97403711D01*
X69101753Y-97446604D01*
X69101751Y-97446606D01*
X69101750Y-97446606D01*
X68981606Y-97566750D01*
X68981606Y-97566751D01*
X68981604Y-97566753D01*
X68938711Y-97625789D01*
X68881729Y-97704218D01*
X68804589Y-97855611D01*
X68752080Y-98017215D01*
X68725500Y-98185036D01*
X68344500Y-98185036D01*
X68317919Y-98017215D01*
X68265410Y-97855611D01*
X68188270Y-97704218D01*
X68088396Y-97566753D01*
X67968247Y-97446604D01*
X67830781Y-97346729D01*
X67824854Y-97343709D01*
X67679388Y-97269589D01*
X67517784Y-97217080D01*
X67349963Y-97190500D01*
X67349958Y-97190500D01*
X67180042Y-97190500D01*
X67180037Y-97190500D01*
X67012215Y-97217080D01*
X66850611Y-97269589D01*
X66699218Y-97346729D01*
X66620789Y-97403711D01*
X66561753Y-97446604D01*
X66561751Y-97446606D01*
X66561750Y-97446606D01*
X66441606Y-97566750D01*
X66441606Y-97566751D01*
X66441604Y-97566753D01*
X66398711Y-97625789D01*
X66341729Y-97704218D01*
X66264589Y-97855611D01*
X66212080Y-98017215D01*
X66185500Y-98185036D01*
X58700500Y-98185036D01*
X58700500Y-96826999D01*
X97105500Y-96826999D01*
X97105500Y-96973000D01*
X97143288Y-97114028D01*
X97143289Y-97114031D01*
X97216286Y-97240467D01*
X97216288Y-97240470D01*
X97216289Y-97240471D01*
X97319529Y-97343711D01*
X97445971Y-97416712D01*
X97586999Y-97454500D01*
X97587001Y-97454500D01*
X97732999Y-97454500D01*
X97733001Y-97454500D01*
X97874029Y-97416712D01*
X98000471Y-97343711D01*
X98103711Y-97240471D01*
X98176712Y-97114029D01*
X98214500Y-96973001D01*
X98214500Y-96826999D01*
X98176712Y-96685971D01*
X98103711Y-96559529D01*
X98000471Y-96456289D01*
X98000470Y-96456288D01*
X98000467Y-96456286D01*
X97874031Y-96383289D01*
X97874030Y-96383288D01*
X97874029Y-96383288D01*
X97733001Y-96345500D01*
X97586999Y-96345500D01*
X97445971Y-96383288D01*
X97445968Y-96383289D01*
X97319532Y-96456286D01*
X97319527Y-96456290D01*
X97216290Y-96559527D01*
X97216286Y-96559532D01*
X97143289Y-96685968D01*
X97143288Y-96685971D01*
X97105500Y-96826999D01*
X58700500Y-96826999D01*
X58700500Y-95645036D01*
X66185500Y-95645036D01*
X66185500Y-95814963D01*
X66212080Y-95982784D01*
X66264589Y-96144388D01*
X66341729Y-96295781D01*
X66441604Y-96433247D01*
X66561753Y-96553396D01*
X66699219Y-96653271D01*
X66763390Y-96685968D01*
X66850611Y-96730410D01*
X66850613Y-96730410D01*
X66850616Y-96730412D01*
X66937237Y-96758557D01*
X67012215Y-96782919D01*
X67180037Y-96809500D01*
X67180042Y-96809500D01*
X67349963Y-96809500D01*
X67517784Y-96782919D01*
X67679384Y-96730412D01*
X67830781Y-96653271D01*
X67968247Y-96553396D01*
X68088396Y-96433247D01*
X68188271Y-96295781D01*
X68265412Y-96144384D01*
X68317919Y-95982784D01*
X68344500Y-95814963D01*
X68344500Y-95645036D01*
X68725500Y-95645036D01*
X68725500Y-95814963D01*
X68752080Y-95982784D01*
X68804589Y-96144388D01*
X68881729Y-96295781D01*
X68981604Y-96433247D01*
X69101753Y-96553396D01*
X69239219Y-96653271D01*
X69303390Y-96685968D01*
X69390611Y-96730410D01*
X69390613Y-96730410D01*
X69390616Y-96730412D01*
X69477237Y-96758557D01*
X69552215Y-96782919D01*
X69720037Y-96809500D01*
X69720042Y-96809500D01*
X69889963Y-96809500D01*
X70057784Y-96782919D01*
X70219384Y-96730412D01*
X70219390Y-96730409D01*
X70262609Y-96708388D01*
X70262610Y-96708387D01*
X70370781Y-96653271D01*
X70508247Y-96553396D01*
X70628396Y-96433247D01*
X70728271Y-96295781D01*
X70805412Y-96144384D01*
X70857919Y-95982784D01*
X70884500Y-95814963D01*
X70884500Y-95645036D01*
X70857919Y-95477215D01*
X70805410Y-95315611D01*
X70728270Y-95164218D01*
X70628396Y-95026753D01*
X70508247Y-94906604D01*
X70370781Y-94806729D01*
X70219388Y-94729589D01*
X70057784Y-94677080D01*
X69889963Y-94650500D01*
X69889958Y-94650500D01*
X69720042Y-94650500D01*
X69720037Y-94650500D01*
X69552215Y-94677080D01*
X69390611Y-94729589D01*
X69239218Y-94806729D01*
X69160789Y-94863711D01*
X69101753Y-94906604D01*
X69101751Y-94906606D01*
X69101750Y-94906606D01*
X68981606Y-95026750D01*
X68981606Y-95026751D01*
X68981604Y-95026753D01*
X68938711Y-95085789D01*
X68881729Y-95164218D01*
X68804589Y-95315611D01*
X68752080Y-95477215D01*
X68725500Y-95645036D01*
X68344500Y-95645036D01*
X68317919Y-95477215D01*
X68265410Y-95315611D01*
X68188270Y-95164218D01*
X68088396Y-95026753D01*
X67968247Y-94906604D01*
X67830781Y-94806729D01*
X67679388Y-94729589D01*
X67517784Y-94677080D01*
X67349963Y-94650500D01*
X67349958Y-94650500D01*
X67180042Y-94650500D01*
X67180037Y-94650500D01*
X67012215Y-94677080D01*
X66850611Y-94729589D01*
X66699218Y-94806729D01*
X66620789Y-94863711D01*
X66561753Y-94906604D01*
X66561751Y-94906606D01*
X66561750Y-94906606D01*
X66441606Y-95026750D01*
X66441606Y-95026751D01*
X66441604Y-95026753D01*
X66398711Y-95085789D01*
X66341729Y-95164218D01*
X66264589Y-95315611D01*
X66212080Y-95477215D01*
X66185500Y-95645036D01*
X58700500Y-95645036D01*
X58700500Y-94356999D01*
X87535500Y-94356999D01*
X87535500Y-94503000D01*
X87573288Y-94644028D01*
X87573289Y-94644031D01*
X87646286Y-94770467D01*
X87646288Y-94770470D01*
X87646289Y-94770471D01*
X87749529Y-94873711D01*
X87875971Y-94946712D01*
X88016999Y-94984500D01*
X88017001Y-94984500D01*
X88162999Y-94984500D01*
X88163001Y-94984500D01*
X88304029Y-94946712D01*
X88430471Y-94873711D01*
X88533711Y-94770471D01*
X88606712Y-94644029D01*
X88644500Y-94503001D01*
X88644500Y-94356999D01*
X88606712Y-94215971D01*
X88570211Y-94152750D01*
X88533713Y-94089532D01*
X88533709Y-94089527D01*
X88430472Y-93986290D01*
X88430467Y-93986286D01*
X88304031Y-93913289D01*
X88304030Y-93913288D01*
X88304029Y-93913288D01*
X88163001Y-93875500D01*
X88016999Y-93875500D01*
X87875971Y-93913288D01*
X87875968Y-93913289D01*
X87749532Y-93986286D01*
X87749527Y-93986290D01*
X87646290Y-94089527D01*
X87646286Y-94089532D01*
X87573289Y-94215968D01*
X87573288Y-94215971D01*
X87535500Y-94356999D01*
X58700500Y-94356999D01*
X58700500Y-93105036D01*
X66185500Y-93105036D01*
X66185500Y-93274963D01*
X66212080Y-93442784D01*
X66264589Y-93604388D01*
X66341729Y-93755781D01*
X66441604Y-93893247D01*
X66561753Y-94013396D01*
X66699219Y-94113271D01*
X66770745Y-94149715D01*
X66850611Y-94190410D01*
X66850613Y-94190410D01*
X66850616Y-94190412D01*
X66929269Y-94215968D01*
X67012215Y-94242919D01*
X67180037Y-94269500D01*
X67180042Y-94269500D01*
X67349963Y-94269500D01*
X67517784Y-94242919D01*
X67679384Y-94190412D01*
X67830781Y-94113271D01*
X67968247Y-94013396D01*
X68088396Y-93893247D01*
X68188271Y-93755781D01*
X68265412Y-93604384D01*
X68317919Y-93442784D01*
X68344500Y-93274963D01*
X68344500Y-93105036D01*
X68725500Y-93105036D01*
X68725500Y-93274963D01*
X68752080Y-93442784D01*
X68804589Y-93604388D01*
X68881729Y-93755781D01*
X68981604Y-93893247D01*
X69101753Y-94013396D01*
X69239219Y-94113271D01*
X69310745Y-94149715D01*
X69390611Y-94190410D01*
X69390613Y-94190410D01*
X69390616Y-94190412D01*
X69469269Y-94215968D01*
X69552215Y-94242919D01*
X69720037Y-94269500D01*
X69720042Y-94269500D01*
X69889963Y-94269500D01*
X70057784Y-94242919D01*
X70094649Y-94230941D01*
X70140721Y-94215971D01*
X70219384Y-94190412D01*
X70370781Y-94113271D01*
X70508247Y-94013396D01*
X70628396Y-93893247D01*
X70728271Y-93755781D01*
X70805412Y-93604384D01*
X70857919Y-93442784D01*
X70884500Y-93274963D01*
X70884500Y-93105036D01*
X70857919Y-92937215D01*
X70805410Y-92775611D01*
X70728270Y-92624218D01*
X70628396Y-92486753D01*
X70508247Y-92366604D01*
X70370781Y-92266729D01*
X70219388Y-92189589D01*
X70057784Y-92137080D01*
X69889963Y-92110500D01*
X69889958Y-92110500D01*
X69720042Y-92110500D01*
X69720037Y-92110500D01*
X69552215Y-92137080D01*
X69390611Y-92189589D01*
X69239218Y-92266729D01*
X69160789Y-92323711D01*
X69101753Y-92366604D01*
X69101751Y-92366606D01*
X69101750Y-92366606D01*
X68981606Y-92486750D01*
X68981606Y-92486751D01*
X68981604Y-92486753D01*
X68938711Y-92545789D01*
X68881729Y-92624218D01*
X68804589Y-92775611D01*
X68752080Y-92937215D01*
X68725500Y-93105036D01*
X68344500Y-93105036D01*
X68317919Y-92937215D01*
X68265410Y-92775611D01*
X68188270Y-92624218D01*
X68088396Y-92486753D01*
X67968247Y-92366604D01*
X67830781Y-92266729D01*
X67679388Y-92189589D01*
X67517784Y-92137080D01*
X67349963Y-92110500D01*
X67349958Y-92110500D01*
X67180042Y-92110500D01*
X67180037Y-92110500D01*
X67012215Y-92137080D01*
X66850611Y-92189589D01*
X66699218Y-92266729D01*
X66620789Y-92323711D01*
X66561753Y-92366604D01*
X66561751Y-92366606D01*
X66561750Y-92366606D01*
X66441606Y-92486750D01*
X66441606Y-92486751D01*
X66441604Y-92486753D01*
X66398711Y-92545789D01*
X66341729Y-92624218D01*
X66264589Y-92775611D01*
X66212080Y-92937215D01*
X66185500Y-93105036D01*
X58700500Y-93105036D01*
X58700500Y-90565036D01*
X66185500Y-90565036D01*
X66185500Y-90734963D01*
X66212080Y-90902784D01*
X66264589Y-91064388D01*
X66341729Y-91215781D01*
X66441604Y-91353247D01*
X66561753Y-91473396D01*
X66699219Y-91573271D01*
X66770745Y-91609715D01*
X66850611Y-91650410D01*
X66850613Y-91650410D01*
X66850616Y-91650412D01*
X66929269Y-91675968D01*
X67012215Y-91702919D01*
X67180037Y-91729500D01*
X67180042Y-91729500D01*
X67349963Y-91729500D01*
X67517784Y-91702919D01*
X67679384Y-91650412D01*
X67830781Y-91573271D01*
X67968247Y-91473396D01*
X68088396Y-91353247D01*
X68188271Y-91215781D01*
X68265412Y-91064384D01*
X68317919Y-90902784D01*
X68328338Y-90837001D01*
X68344500Y-90734963D01*
X68344500Y-90565036D01*
X68725500Y-90565036D01*
X68725500Y-90734963D01*
X68752080Y-90902784D01*
X68804589Y-91064388D01*
X68881729Y-91215781D01*
X68981604Y-91353247D01*
X69101753Y-91473396D01*
X69239219Y-91573271D01*
X69310745Y-91609715D01*
X69390611Y-91650410D01*
X69390613Y-91650410D01*
X69390616Y-91650412D01*
X69469269Y-91675968D01*
X69552215Y-91702919D01*
X69720037Y-91729500D01*
X69720042Y-91729500D01*
X69889963Y-91729500D01*
X70057784Y-91702919D01*
X70219384Y-91650412D01*
X70370781Y-91573271D01*
X70508247Y-91473396D01*
X70628396Y-91353247D01*
X70728271Y-91215781D01*
X70805412Y-91064384D01*
X70857919Y-90902784D01*
X70868338Y-90836999D01*
X96905500Y-90836999D01*
X96905500Y-90983001D01*
X96927308Y-91064388D01*
X96943288Y-91124028D01*
X96943289Y-91124031D01*
X97016286Y-91250467D01*
X97016290Y-91250472D01*
X97078137Y-91312319D01*
X97111622Y-91373642D01*
X97106638Y-91443334D01*
X97078137Y-91487681D01*
X97016290Y-91549527D01*
X97016286Y-91549532D01*
X96943289Y-91675968D01*
X96943288Y-91675971D01*
X96905500Y-91816999D01*
X96905500Y-91963000D01*
X96943288Y-92104028D01*
X96943289Y-92104031D01*
X97016286Y-92230467D01*
X97016288Y-92230470D01*
X97016289Y-92230471D01*
X97119529Y-92333711D01*
X97245971Y-92406712D01*
X97386999Y-92444500D01*
X97387001Y-92444500D01*
X97532999Y-92444500D01*
X97533001Y-92444500D01*
X97674029Y-92406712D01*
X97800471Y-92333711D01*
X97903711Y-92230471D01*
X97976712Y-92104029D01*
X98014500Y-91963001D01*
X98014500Y-91816999D01*
X97976712Y-91675971D01*
X97940211Y-91612750D01*
X97903713Y-91549532D01*
X97903709Y-91549527D01*
X97841863Y-91487681D01*
X97808378Y-91426358D01*
X97813362Y-91356666D01*
X97841863Y-91312319D01*
X97903711Y-91250471D01*
X97976712Y-91124029D01*
X98014500Y-90983001D01*
X98014500Y-90836999D01*
X97976712Y-90695971D01*
X97903711Y-90569529D01*
X97800471Y-90466289D01*
X97800470Y-90466288D01*
X97800467Y-90466286D01*
X97674031Y-90393289D01*
X97674030Y-90393288D01*
X97674029Y-90393288D01*
X97533001Y-90355500D01*
X97386999Y-90355500D01*
X97245971Y-90393288D01*
X97245968Y-90393289D01*
X97119532Y-90466286D01*
X97119527Y-90466290D01*
X97016290Y-90569527D01*
X97016286Y-90569532D01*
X96943289Y-90695968D01*
X96943288Y-90695971D01*
X96905500Y-90836999D01*
X70868338Y-90836999D01*
X70872698Y-90809473D01*
X70884500Y-90734962D01*
X70884500Y-90565036D01*
X70857919Y-90397215D01*
X70805410Y-90235611D01*
X70728270Y-90084218D01*
X70628396Y-89946753D01*
X70508247Y-89826604D01*
X70370781Y-89726729D01*
X70358491Y-89720467D01*
X70219388Y-89649589D01*
X70057784Y-89597080D01*
X69889963Y-89570500D01*
X69889958Y-89570500D01*
X69720042Y-89570500D01*
X69720037Y-89570500D01*
X69552215Y-89597080D01*
X69390611Y-89649589D01*
X69239218Y-89726729D01*
X69160789Y-89783711D01*
X69101753Y-89826604D01*
X69101751Y-89826606D01*
X69101750Y-89826606D01*
X68981606Y-89946750D01*
X68981606Y-89946751D01*
X68981604Y-89946753D01*
X68938711Y-90005789D01*
X68881729Y-90084218D01*
X68804589Y-90235611D01*
X68752080Y-90397215D01*
X68725500Y-90565036D01*
X68344500Y-90565036D01*
X68317919Y-90397215D01*
X68265410Y-90235611D01*
X68188270Y-90084218D01*
X68088396Y-89946753D01*
X67968247Y-89826604D01*
X67830781Y-89726729D01*
X67818491Y-89720467D01*
X67679388Y-89649589D01*
X67517784Y-89597080D01*
X67349963Y-89570500D01*
X67349958Y-89570500D01*
X67180042Y-89570500D01*
X67180037Y-89570500D01*
X67012215Y-89597080D01*
X66850611Y-89649589D01*
X66699218Y-89726729D01*
X66620789Y-89783711D01*
X66561753Y-89826604D01*
X66561751Y-89826606D01*
X66561750Y-89826606D01*
X66441606Y-89946750D01*
X66441606Y-89946751D01*
X66441604Y-89946753D01*
X66398711Y-90005789D01*
X66341729Y-90084218D01*
X66264589Y-90235611D01*
X66212080Y-90397215D01*
X66185500Y-90565036D01*
X58700500Y-90565036D01*
X58700500Y-89306999D01*
X87305500Y-89306999D01*
X87305500Y-89453001D01*
X87336984Y-89570500D01*
X87343288Y-89594028D01*
X87343289Y-89594031D01*
X87416286Y-89720467D01*
X87416288Y-89720470D01*
X87416289Y-89720471D01*
X87519529Y-89823711D01*
X87519530Y-89823712D01*
X87519532Y-89823713D01*
X87524543Y-89826606D01*
X87645971Y-89896712D01*
X87786999Y-89934500D01*
X87787001Y-89934500D01*
X87932999Y-89934500D01*
X87933001Y-89934500D01*
X88074029Y-89896712D01*
X88200471Y-89823711D01*
X88303711Y-89720471D01*
X88376712Y-89594029D01*
X88414500Y-89453001D01*
X88414500Y-89306999D01*
X88376712Y-89165971D01*
X88303711Y-89039529D01*
X88200471Y-88936289D01*
X88200470Y-88936288D01*
X88200467Y-88936286D01*
X88074031Y-88863289D01*
X88074030Y-88863288D01*
X88074029Y-88863288D01*
X87933001Y-88825500D01*
X87786999Y-88825500D01*
X87645971Y-88863288D01*
X87645968Y-88863289D01*
X87519532Y-88936286D01*
X87519527Y-88936290D01*
X87416290Y-89039527D01*
X87416286Y-89039532D01*
X87343289Y-89165968D01*
X87343288Y-89165971D01*
X87305500Y-89306999D01*
X58700500Y-89306999D01*
X58700500Y-88025036D01*
X66185500Y-88025036D01*
X66185500Y-88194963D01*
X66212080Y-88362784D01*
X66264589Y-88524388D01*
X66341729Y-88675781D01*
X66441604Y-88813247D01*
X66561753Y-88933396D01*
X66699219Y-89033271D01*
X66770745Y-89069715D01*
X66850611Y-89110410D01*
X66850613Y-89110410D01*
X66850616Y-89110412D01*
X66937237Y-89138557D01*
X67012215Y-89162919D01*
X67180037Y-89189500D01*
X67180042Y-89189500D01*
X67349963Y-89189500D01*
X67517784Y-89162919D01*
X67679384Y-89110412D01*
X67830781Y-89033271D01*
X67968247Y-88933396D01*
X68088396Y-88813247D01*
X68188271Y-88675781D01*
X68265412Y-88524384D01*
X68317919Y-88362784D01*
X68344500Y-88194963D01*
X68344500Y-88025036D01*
X68725500Y-88025036D01*
X68725500Y-88194963D01*
X68752080Y-88362784D01*
X68804589Y-88524388D01*
X68881729Y-88675781D01*
X68981604Y-88813247D01*
X69101753Y-88933396D01*
X69239219Y-89033271D01*
X69310745Y-89069715D01*
X69390611Y-89110410D01*
X69390613Y-89110410D01*
X69390616Y-89110412D01*
X69477237Y-89138557D01*
X69552215Y-89162919D01*
X69720037Y-89189500D01*
X69720042Y-89189500D01*
X69889963Y-89189500D01*
X69972678Y-89176399D01*
X70057784Y-89162919D01*
X70219384Y-89110412D01*
X70370781Y-89033271D01*
X70508247Y-88933396D01*
X70628396Y-88813247D01*
X70728271Y-88675781D01*
X70805412Y-88524384D01*
X70857919Y-88362784D01*
X70884500Y-88194963D01*
X70884500Y-88025036D01*
X70857919Y-87857215D01*
X70805410Y-87695611D01*
X70728270Y-87544218D01*
X70628396Y-87406753D01*
X70508247Y-87286604D01*
X70370781Y-87186729D01*
X70219388Y-87109589D01*
X70057784Y-87057080D01*
X69889963Y-87030500D01*
X69889958Y-87030500D01*
X69720042Y-87030500D01*
X69720037Y-87030500D01*
X69552215Y-87057080D01*
X69390611Y-87109589D01*
X69239218Y-87186729D01*
X69160789Y-87243711D01*
X69101753Y-87286604D01*
X69101751Y-87286606D01*
X69101750Y-87286606D01*
X68981606Y-87406750D01*
X68981606Y-87406751D01*
X68981604Y-87406753D01*
X68938711Y-87465789D01*
X68881729Y-87544218D01*
X68804589Y-87695611D01*
X68752080Y-87857215D01*
X68725500Y-88025036D01*
X68344500Y-88025036D01*
X68317919Y-87857215D01*
X68265410Y-87695611D01*
X68188270Y-87544218D01*
X68088396Y-87406753D01*
X67968247Y-87286604D01*
X67830781Y-87186729D01*
X67679388Y-87109589D01*
X67517784Y-87057080D01*
X67349963Y-87030500D01*
X67349958Y-87030500D01*
X67180042Y-87030500D01*
X67180037Y-87030500D01*
X67012215Y-87057080D01*
X66850611Y-87109589D01*
X66699218Y-87186729D01*
X66620789Y-87243711D01*
X66561753Y-87286604D01*
X66561751Y-87286606D01*
X66561750Y-87286606D01*
X66441606Y-87406750D01*
X66441606Y-87406751D01*
X66441604Y-87406753D01*
X66398711Y-87465789D01*
X66341729Y-87544218D01*
X66264589Y-87695611D01*
X66212080Y-87857215D01*
X66185500Y-88025036D01*
X58700500Y-88025036D01*
X58700500Y-85485036D01*
X66185500Y-85485036D01*
X66185500Y-85654963D01*
X66212080Y-85822784D01*
X66264589Y-85984388D01*
X66341729Y-86135781D01*
X66441604Y-86273247D01*
X66561753Y-86393396D01*
X66699219Y-86493271D01*
X66770745Y-86529715D01*
X66850611Y-86570410D01*
X66850613Y-86570410D01*
X66850616Y-86570412D01*
X66937237Y-86598557D01*
X67012215Y-86622919D01*
X67180037Y-86649500D01*
X67180042Y-86649500D01*
X67349963Y-86649500D01*
X67517784Y-86622919D01*
X67679384Y-86570412D01*
X67830781Y-86493271D01*
X67968247Y-86393396D01*
X68088396Y-86273247D01*
X68188271Y-86135781D01*
X68265412Y-85984384D01*
X68317919Y-85822784D01*
X68344500Y-85654963D01*
X68344500Y-85485036D01*
X68725500Y-85485036D01*
X68725500Y-85654963D01*
X68752080Y-85822784D01*
X68804589Y-85984388D01*
X68881729Y-86135781D01*
X68981604Y-86273247D01*
X69101753Y-86393396D01*
X69239219Y-86493271D01*
X69310745Y-86529715D01*
X69390611Y-86570410D01*
X69390613Y-86570410D01*
X69390616Y-86570412D01*
X69477237Y-86598557D01*
X69552215Y-86622919D01*
X69720037Y-86649500D01*
X69720042Y-86649500D01*
X69889963Y-86649500D01*
X70057784Y-86622919D01*
X70219384Y-86570412D01*
X70370781Y-86493271D01*
X70508247Y-86393396D01*
X70628396Y-86273247D01*
X70728271Y-86135781D01*
X70805412Y-85984384D01*
X70857919Y-85822784D01*
X70884500Y-85654963D01*
X70884500Y-85485036D01*
X70857919Y-85317215D01*
X70805410Y-85155611D01*
X70728270Y-85004218D01*
X70628396Y-84866753D01*
X70508247Y-84746604D01*
X70370781Y-84646729D01*
X70219388Y-84569589D01*
X70057784Y-84517080D01*
X69889963Y-84490500D01*
X69889958Y-84490500D01*
X69720042Y-84490500D01*
X69720037Y-84490500D01*
X69552215Y-84517080D01*
X69390611Y-84569589D01*
X69239218Y-84646729D01*
X69160789Y-84703711D01*
X69101753Y-84746604D01*
X69101751Y-84746606D01*
X69101750Y-84746606D01*
X68981606Y-84866750D01*
X68981606Y-84866751D01*
X68981604Y-84866753D01*
X68938711Y-84925789D01*
X68881729Y-85004218D01*
X68804589Y-85155611D01*
X68752080Y-85317215D01*
X68725500Y-85485036D01*
X68344500Y-85485036D01*
X68317919Y-85317215D01*
X68265410Y-85155611D01*
X68188270Y-85004218D01*
X68088396Y-84866753D01*
X67968247Y-84746604D01*
X67830781Y-84646729D01*
X67679388Y-84569589D01*
X67517784Y-84517080D01*
X67349963Y-84490500D01*
X67349958Y-84490500D01*
X67180042Y-84490500D01*
X67180037Y-84490500D01*
X67012215Y-84517080D01*
X66850611Y-84569589D01*
X66699218Y-84646729D01*
X66620789Y-84703711D01*
X66561753Y-84746604D01*
X66561751Y-84746606D01*
X66561750Y-84746606D01*
X66441606Y-84866750D01*
X66441606Y-84866751D01*
X66441604Y-84866753D01*
X66398711Y-84925789D01*
X66341729Y-85004218D01*
X66264589Y-85155611D01*
X66212080Y-85317215D01*
X66185500Y-85485036D01*
X58700500Y-85485036D01*
X58700500Y-72800000D01*
X60100000Y-72800000D01*
X62195500Y-72800000D01*
X62195500Y-67529500D01*
X60100000Y-67529500D01*
X60100000Y-72800000D01*
X58700500Y-72800000D01*
X58700500Y-68004875D01*
X58700882Y-67995146D01*
X58715733Y-67806440D01*
X58718775Y-67787229D01*
X58761826Y-67607910D01*
X58767832Y-67589425D01*
X58838406Y-67419044D01*
X58847237Y-67401716D01*
X58943582Y-67244495D01*
X58955019Y-67228753D01*
X59074781Y-67088530D01*
X59088530Y-67074781D01*
X59228755Y-66955017D01*
X59244495Y-66943582D01*
X59401719Y-66847235D01*
X59419050Y-66838404D01*
X59589425Y-66767832D01*
X59607910Y-66761826D01*
X59787229Y-66718775D01*
X59806434Y-66715733D01*
X59995146Y-66700881D01*
X60004875Y-66700500D01*
X65039880Y-66700500D01*
X65039882Y-66700500D01*
X65113574Y-66669976D01*
X65169976Y-66613574D01*
X65200500Y-66539882D01*
X65200500Y-61504875D01*
X65200882Y-61495146D01*
X65215733Y-61306440D01*
X65218775Y-61287229D01*
X65261826Y-61107910D01*
X65267832Y-61089425D01*
X65338404Y-60919050D01*
X65347237Y-60901716D01*
X65443582Y-60744495D01*
X65455019Y-60728753D01*
X65574781Y-60588530D01*
X65588530Y-60574781D01*
X65728755Y-60455017D01*
X65744495Y-60443582D01*
X65870693Y-60366248D01*
X65901719Y-60347235D01*
X65919050Y-60338404D01*
X66089425Y-60267832D01*
X66107910Y-60261826D01*
X66287229Y-60218775D01*
X66306434Y-60215733D01*
X66495146Y-60200881D01*
X66504875Y-60200500D01*
X66539882Y-60200500D01*
X67877750Y-60200500D01*
X67944789Y-60220185D01*
G37*
%TD.AperFunction*%
%TD*%
M02*
