%TF.GenerationSoftware,KiCad,Pcbnew,10.0.3-10.0.3~ubuntu24.04.1*%
%TF.CreationDate,2026-05-25T14:32:57+02:00*%
%TF.ProjectId,DIB2 USB adapter,44494232-2055-4534-9220-616461707465,r1B2*%
%TF.SameCoordinates,Original*%
%TF.FileFunction,Profile,NP*%
%FSLAX46Y46*%
G04 Gerber Fmt 4.6, Leading zero omitted, Abs format (unit mm)*
G04 Created by KiCad (PCBNEW 10.0.3-10.0.3~ubuntu24.04.1) date 2026-05-25 14:32:57*
%MOMM*%
%LPD*%
G01*
G04 APERTURE LIST*
%TA.AperFunction,Profile*%
%ADD10C,0.100000*%
%TD*%
G04 APERTURE END LIST*
D10*
X58500000Y-68000000D02*
G75*
G02*
X60000000Y-66500000I1500000J0D01*
G01*
X58500000Y-142000000D02*
X58500000Y-68000000D01*
X60000000Y-143500000D02*
G75*
G02*
X58500000Y-142000000I0J1500000D01*
G01*
X65000000Y-61500000D02*
G75*
G02*
X66500000Y-60000000I1500000J0D01*
G01*
X65000000Y-66500000D02*
X60000000Y-66500000D01*
X65000000Y-66500000D02*
X65000000Y-61500000D01*
X65000000Y-143500000D02*
X60000000Y-143500000D01*
X65000000Y-151000000D02*
X65000000Y-143500000D01*
X66500000Y-60000000D02*
X148350000Y-60000000D01*
X66500000Y-152500000D02*
G75*
G02*
X65000000Y-151000000I0J1500000D01*
G01*
X111500000Y-152500000D02*
X66500000Y-152500000D01*
X111500000Y-152500000D02*
X112000000Y-152000000D01*
X112000000Y-145000000D02*
G75*
G02*
X112837486Y-144149999I843700J6300D01*
G01*
X112000000Y-152000000D02*
X112000000Y-145000000D01*
X114642513Y-144150000D02*
X112837486Y-144150000D01*
X114645768Y-144149278D02*
G75*
G02*
X115542524Y-144999251I23432J-873322D01*
G01*
X148350000Y-60000000D02*
G75*
G02*
X149850000Y-61500000I0J-1500000D01*
G01*
X149847500Y-145000000D02*
X149847500Y-61500000D01*
%TO.C,X2*%
X115550000Y-145000000D02*
X115550000Y-152000000D01*
X115550000Y-152000000D02*
X116047300Y-152500000D01*
X116047300Y-152500000D02*
X126247300Y-152500000D01*
X126247300Y-152500000D02*
X126747300Y-152000000D01*
X126747300Y-152000000D02*
X126747300Y-145050000D01*
X128647300Y-145050000D02*
X128647300Y-152000000D01*
X128647300Y-152000000D02*
X129147300Y-152500000D01*
X149347300Y-152500000D02*
X129147300Y-152500000D01*
X149847300Y-145000000D02*
X149847300Y-152000000D01*
X149847300Y-152000000D02*
X149347300Y-152500000D01*
X126747300Y-145050000D02*
G75*
G02*
X128647300Y-145050000I950000J0D01*
G01*
%TD*%
M02*
