%TF.GenerationSoftware,KiCad,Pcbnew,10.0.3-10.0.3~ubuntu24.04.1*%
%TF.CreationDate,2026-05-25T14:32:57+02:00*%
%TF.ProjectId,DIB2 USB adapter,44494232-2055-4534-9220-616461707465,r1B2*%
%TF.SameCoordinates,Original*%
%TF.FileFunction,Soldermask,Bot*%
%TF.FilePolarity,Negative*%
%FSLAX46Y46*%
G04 Gerber Fmt 4.6, Leading zero omitted, Abs format (unit mm)*
G04 Created by KiCad (PCBNEW 10.0.3-10.0.3~ubuntu24.04.1) date 2026-05-25 14:32:57*
%MOMM*%
%LPD*%
G01*
G04 APERTURE LIST*
%ADD10C,0.200000*%
%ADD11C,1.854000*%
%ADD12C,5.652400*%
%ADD13C,1.412000*%
%ADD14C,1.304000*%
%ADD15C,3.520000*%
G04 APERTURE END LIST*
D10*
%TO.C,X2*%
X115450000Y-146950000D02*
X149950000Y-146950000D01*
X149950000Y-152450000D01*
X115450000Y-152450000D01*
X115450000Y-146950000D01*
G36*
X149950000Y-152450000D02*
G01*
X115450000Y-152450000D01*
X115450000Y-146950000D01*
X149950000Y-146950000D01*
X149950000Y-152450000D01*
G37*
%TD*%
D11*
%TO.C,X1*%
X69805000Y-108430000D03*
X67265000Y-108430000D03*
X69805000Y-105890000D03*
X67265000Y-105890000D03*
X69805000Y-103350000D03*
X67265000Y-103350000D03*
X69805000Y-100810000D03*
X67265000Y-100810000D03*
X69805000Y-98270000D03*
X67265000Y-98270000D03*
X69805000Y-95730000D03*
X67265000Y-95730000D03*
X69805000Y-93190000D03*
X67265000Y-93190000D03*
X69805000Y-90650000D03*
X67265000Y-90650000D03*
X69805000Y-88110000D03*
X67265000Y-88110000D03*
X69805000Y-85570000D03*
X67265000Y-85570000D03*
%TD*%
D12*
%TO.C,KK1*%
X69500000Y-63000000D03*
%TD*%
D13*
%TO.C,X3*%
X70300000Y-124500000D03*
X70300000Y-127000000D03*
X70300000Y-129000000D03*
X70300000Y-131500000D03*
D14*
X71800000Y-132000000D03*
X71800000Y-130000000D03*
D13*
X71800000Y-128000000D03*
D14*
X71800000Y-126000000D03*
X71800000Y-124000000D03*
D15*
X68300000Y-121430000D03*
X68300000Y-134570000D03*
%TD*%
D12*
%TO.C,KK2*%
X69500000Y-147000000D03*
%TD*%
M02*
