M48
; DRILL file KiCad 10.0.3-10.0.3~ubuntu24.04.1 date 2026-05-25T14:32:59
; FORMAT={-:-/ absolute / metric / decimal}
; #@! TF.CreationDate,2026-05-25T14:32:59+02:00
; #@! TF.GenerationSoftware,Kicad,Pcbnew,10.0.3-10.0.3~ubuntu24.04.1
; #@! TF.FileFunction,Plated,1,4,PTH
FMAT,2
METRIC
; #@! TA.AperFunction,Plated,PTH,ViaDrill
T1C0.300
; #@! TA.AperFunction,Plated,PTH,ComponentDrill
T2C0.700
; #@! TA.AperFunction,Plated,PTH,ComponentDrill
T3C1.100
; #@! TA.AperFunction,Plated,PTH,ComponentDrill
T4C2.300
; #@! TA.AperFunction,Plated,PTH,ComponentDrill
T5C3.200
%
G90
G05
T1
X73.45Y-109.12
X73.46Y-111.07
X73.47Y-104.02
X75.69Y-122.231
X78.993Y-120.68
X79.52Y-138.71
X79.52Y-139.57
X83.66Y-93.19
X87.58Y-98.27
X87.86Y-89.38
X88.06Y-139.42
X88.09Y-94.43
X88.5Y-138.643
X90.29Y-138.293
X92.23Y-139.97
X93.01Y-140.78
X97.05Y-139.63
X97.46Y-90.91
X97.46Y-91.89
X97.47Y-102.08
X97.66Y-96.9
X97.87Y-138.64
X100.769Y-99.201
X116.2Y-146.3
X117.3Y-145.73
X117.3Y-146.48
X118.2Y-146.296
X119.312Y-143.2
X120.1Y-143.212
X121.1Y-145.7
X121.1Y-146.4
X122.212Y-146.448
X123.2Y-138.44
X123.2Y-142.831
X124.2Y-138.44
X124.21Y-142.83
X125.2Y-138.45
X125.2Y-142.83
X126.2Y-146.448
X129.197Y-146.448
X130.197Y-138.44
X130.197Y-142.831
X131.197Y-138.47
X131.197Y-142.831
X135.197Y-138.47
X135.197Y-142.831
X136.197Y-138.47
X136.197Y-142.831
X138.478Y-146.07
X141.58Y-146.07
X144.31Y-146.25
X145.04Y-146.25
X147.75Y-146.07
T2
X70.3Y-124.5
X70.3Y-127.0
X70.3Y-129.0
X70.3Y-131.5
X71.8Y-124.0
X71.8Y-126.0
X71.8Y-128.0
X71.8Y-130.0
X71.8Y-132.0
T3
X67.265Y-85.57
X67.265Y-88.11
X67.265Y-90.65
X67.265Y-93.19
X67.265Y-95.73
X67.265Y-98.27
X67.265Y-100.81
X67.265Y-103.35
X67.265Y-105.89
X67.265Y-108.43
X69.805Y-85.57
X69.805Y-88.11
X69.805Y-90.65
X69.805Y-93.19
X69.805Y-95.73
X69.805Y-98.27
X69.805Y-100.81
X69.805Y-103.35
X69.805Y-105.89
X69.805Y-108.43
T4
X68.3Y-121.43
X68.3Y-134.57
T5
X69.5Y-63.0
X69.5Y-147.0
M30
