%TF.GenerationSoftware,KiCad,Pcbnew,9.0.7-9.0.7~ubuntu24.04.1*%
%TF.CreationDate,2026-03-03T17:56:53+01:00*%
%TF.ProjectId,DIB2 USB adapter,44494232-2055-4534-9220-616461707465,r1B1*%
%TF.SameCoordinates,Original*%
%TF.FileFunction,OtherDrawing,Comment*%
%FSLAX46Y46*%
G04 Gerber Fmt 4.6, Leading zero omitted, Abs format (unit mm)*
G04 Created by KiCad (PCBNEW 9.0.7-9.0.7~ubuntu24.04.1) date 2026-03-03 17:56:53*
%MOMM*%
%LPD*%
G01*
G04 APERTURE LIST*
%ADD10C,0.100000*%
%ADD11C,0.150000*%
G04 APERTURE END LIST*
D10*
X114650000Y-151280000D02*
X151150000Y-151280000D01*
X151150000Y-153195000D01*
X114650000Y-153195000D01*
X114650000Y-151280000D01*
D11*
X115104585Y-154125417D02*
X115247442Y-154173036D01*
X115247442Y-154173036D02*
X115295061Y-154220655D01*
X115295061Y-154220655D02*
X115342680Y-154315893D01*
X115342680Y-154315893D02*
X115342680Y-154458750D01*
X115342680Y-154458750D02*
X115295061Y-154553988D01*
X115295061Y-154553988D02*
X115247442Y-154601608D01*
X115247442Y-154601608D02*
X115152204Y-154649227D01*
X115152204Y-154649227D02*
X114771252Y-154649227D01*
X114771252Y-154649227D02*
X114771252Y-153649227D01*
X114771252Y-153649227D02*
X115104585Y-153649227D01*
X115104585Y-153649227D02*
X115199823Y-153696846D01*
X115199823Y-153696846D02*
X115247442Y-153744465D01*
X115247442Y-153744465D02*
X115295061Y-153839703D01*
X115295061Y-153839703D02*
X115295061Y-153934941D01*
X115295061Y-153934941D02*
X115247442Y-154030179D01*
X115247442Y-154030179D02*
X115199823Y-154077798D01*
X115199823Y-154077798D02*
X115104585Y-154125417D01*
X115104585Y-154125417D02*
X114771252Y-154125417D01*
X116152204Y-154601608D02*
X116056966Y-154649227D01*
X116056966Y-154649227D02*
X115866490Y-154649227D01*
X115866490Y-154649227D02*
X115771252Y-154601608D01*
X115771252Y-154601608D02*
X115723633Y-154506369D01*
X115723633Y-154506369D02*
X115723633Y-154125417D01*
X115723633Y-154125417D02*
X115771252Y-154030179D01*
X115771252Y-154030179D02*
X115866490Y-153982560D01*
X115866490Y-153982560D02*
X116056966Y-153982560D01*
X116056966Y-153982560D02*
X116152204Y-154030179D01*
X116152204Y-154030179D02*
X116199823Y-154125417D01*
X116199823Y-154125417D02*
X116199823Y-154220655D01*
X116199823Y-154220655D02*
X115723633Y-154315893D01*
X116533157Y-153982560D02*
X116771252Y-154649227D01*
X116771252Y-154649227D02*
X117009347Y-153982560D01*
X117771252Y-154601608D02*
X117676014Y-154649227D01*
X117676014Y-154649227D02*
X117485538Y-154649227D01*
X117485538Y-154649227D02*
X117390300Y-154601608D01*
X117390300Y-154601608D02*
X117342681Y-154506369D01*
X117342681Y-154506369D02*
X117342681Y-154125417D01*
X117342681Y-154125417D02*
X117390300Y-154030179D01*
X117390300Y-154030179D02*
X117485538Y-153982560D01*
X117485538Y-153982560D02*
X117676014Y-153982560D01*
X117676014Y-153982560D02*
X117771252Y-154030179D01*
X117771252Y-154030179D02*
X117818871Y-154125417D01*
X117818871Y-154125417D02*
X117818871Y-154220655D01*
X117818871Y-154220655D02*
X117342681Y-154315893D01*
X118390300Y-154649227D02*
X118295062Y-154601608D01*
X118295062Y-154601608D02*
X118247443Y-154506369D01*
X118247443Y-154506369D02*
X118247443Y-153649227D01*
X118771253Y-154649227D02*
X118771253Y-153982560D01*
X118771253Y-153649227D02*
X118723634Y-153696846D01*
X118723634Y-153696846D02*
X118771253Y-153744465D01*
X118771253Y-153744465D02*
X118818872Y-153696846D01*
X118818872Y-153696846D02*
X118771253Y-153649227D01*
X118771253Y-153649227D02*
X118771253Y-153744465D01*
X119247443Y-153982560D02*
X119247443Y-154649227D01*
X119247443Y-154077798D02*
X119295062Y-154030179D01*
X119295062Y-154030179D02*
X119390300Y-153982560D01*
X119390300Y-153982560D02*
X119533157Y-153982560D01*
X119533157Y-153982560D02*
X119628395Y-154030179D01*
X119628395Y-154030179D02*
X119676014Y-154125417D01*
X119676014Y-154125417D02*
X119676014Y-154649227D01*
X120580776Y-153982560D02*
X120580776Y-154792084D01*
X120580776Y-154792084D02*
X120533157Y-154887322D01*
X120533157Y-154887322D02*
X120485538Y-154934941D01*
X120485538Y-154934941D02*
X120390300Y-154982560D01*
X120390300Y-154982560D02*
X120247443Y-154982560D01*
X120247443Y-154982560D02*
X120152205Y-154934941D01*
X120580776Y-154601608D02*
X120485538Y-154649227D01*
X120485538Y-154649227D02*
X120295062Y-154649227D01*
X120295062Y-154649227D02*
X120199824Y-154601608D01*
X120199824Y-154601608D02*
X120152205Y-154553988D01*
X120152205Y-154553988D02*
X120104586Y-154458750D01*
X120104586Y-154458750D02*
X120104586Y-154173036D01*
X120104586Y-154173036D02*
X120152205Y-154077798D01*
X120152205Y-154077798D02*
X120199824Y-154030179D01*
X120199824Y-154030179D02*
X120295062Y-153982560D01*
X120295062Y-153982560D02*
X120485538Y-153982560D01*
X120485538Y-153982560D02*
X120580776Y-154030179D01*
X122247443Y-154649227D02*
X122247443Y-154125417D01*
X122247443Y-154125417D02*
X122199824Y-154030179D01*
X122199824Y-154030179D02*
X122104586Y-153982560D01*
X122104586Y-153982560D02*
X121914110Y-153982560D01*
X121914110Y-153982560D02*
X121818872Y-154030179D01*
X122247443Y-154601608D02*
X122152205Y-154649227D01*
X122152205Y-154649227D02*
X121914110Y-154649227D01*
X121914110Y-154649227D02*
X121818872Y-154601608D01*
X121818872Y-154601608D02*
X121771253Y-154506369D01*
X121771253Y-154506369D02*
X121771253Y-154411131D01*
X121771253Y-154411131D02*
X121818872Y-154315893D01*
X121818872Y-154315893D02*
X121914110Y-154268274D01*
X121914110Y-154268274D02*
X122152205Y-154268274D01*
X122152205Y-154268274D02*
X122247443Y-154220655D01*
X122723634Y-154649227D02*
X122723634Y-153982560D01*
X122723634Y-154173036D02*
X122771253Y-154077798D01*
X122771253Y-154077798D02*
X122818872Y-154030179D01*
X122818872Y-154030179D02*
X122914110Y-153982560D01*
X122914110Y-153982560D02*
X123009348Y-153982560D01*
X123723634Y-154601608D02*
X123628396Y-154649227D01*
X123628396Y-154649227D02*
X123437920Y-154649227D01*
X123437920Y-154649227D02*
X123342682Y-154601608D01*
X123342682Y-154601608D02*
X123295063Y-154506369D01*
X123295063Y-154506369D02*
X123295063Y-154125417D01*
X123295063Y-154125417D02*
X123342682Y-154030179D01*
X123342682Y-154030179D02*
X123437920Y-153982560D01*
X123437920Y-153982560D02*
X123628396Y-153982560D01*
X123628396Y-153982560D02*
X123723634Y-154030179D01*
X123723634Y-154030179D02*
X123771253Y-154125417D01*
X123771253Y-154125417D02*
X123771253Y-154220655D01*
X123771253Y-154220655D02*
X123295063Y-154315893D01*
X124628396Y-154649227D02*
X124628396Y-154125417D01*
X124628396Y-154125417D02*
X124580777Y-154030179D01*
X124580777Y-154030179D02*
X124485539Y-153982560D01*
X124485539Y-153982560D02*
X124295063Y-153982560D01*
X124295063Y-153982560D02*
X124199825Y-154030179D01*
X124628396Y-154601608D02*
X124533158Y-154649227D01*
X124533158Y-154649227D02*
X124295063Y-154649227D01*
X124295063Y-154649227D02*
X124199825Y-154601608D01*
X124199825Y-154601608D02*
X124152206Y-154506369D01*
X124152206Y-154506369D02*
X124152206Y-154411131D01*
X124152206Y-154411131D02*
X124199825Y-154315893D01*
X124199825Y-154315893D02*
X124295063Y-154268274D01*
X124295063Y-154268274D02*
X124533158Y-154268274D01*
X124533158Y-154268274D02*
X124628396Y-154220655D01*
X151604819Y-110678570D02*
X151604819Y-110059523D01*
X151604819Y-110059523D02*
X151985771Y-110392856D01*
X151985771Y-110392856D02*
X151985771Y-110249999D01*
X151985771Y-110249999D02*
X152033390Y-110154761D01*
X152033390Y-110154761D02*
X152081009Y-110107142D01*
X152081009Y-110107142D02*
X152176247Y-110059523D01*
X152176247Y-110059523D02*
X152414342Y-110059523D01*
X152414342Y-110059523D02*
X152509580Y-110107142D01*
X152509580Y-110107142D02*
X152557200Y-110154761D01*
X152557200Y-110154761D02*
X152604819Y-110249999D01*
X152604819Y-110249999D02*
X152604819Y-110535713D01*
X152604819Y-110535713D02*
X152557200Y-110630951D01*
X152557200Y-110630951D02*
X152509580Y-110678570D01*
X151604819Y-109202380D02*
X151604819Y-109392856D01*
X151604819Y-109392856D02*
X151652438Y-109488094D01*
X151652438Y-109488094D02*
X151700057Y-109535713D01*
X151700057Y-109535713D02*
X151842914Y-109630951D01*
X151842914Y-109630951D02*
X152033390Y-109678570D01*
X152033390Y-109678570D02*
X152414342Y-109678570D01*
X152414342Y-109678570D02*
X152509580Y-109630951D01*
X152509580Y-109630951D02*
X152557200Y-109583332D01*
X152557200Y-109583332D02*
X152604819Y-109488094D01*
X152604819Y-109488094D02*
X152604819Y-109297618D01*
X152604819Y-109297618D02*
X152557200Y-109202380D01*
X152557200Y-109202380D02*
X152509580Y-109154761D01*
X152509580Y-109154761D02*
X152414342Y-109107142D01*
X152414342Y-109107142D02*
X152176247Y-109107142D01*
X152176247Y-109107142D02*
X152081009Y-109154761D01*
X152081009Y-109154761D02*
X152033390Y-109202380D01*
X152033390Y-109202380D02*
X151985771Y-109297618D01*
X151985771Y-109297618D02*
X151985771Y-109488094D01*
X151985771Y-109488094D02*
X152033390Y-109583332D01*
X152033390Y-109583332D02*
X152081009Y-109630951D01*
X152081009Y-109630951D02*
X152176247Y-109678570D01*
X151938152Y-108249999D02*
X152604819Y-108249999D01*
X151557200Y-108488094D02*
X152271485Y-108726189D01*
X152271485Y-108726189D02*
X152271485Y-108107142D01*
X152604819Y-107202380D02*
X152604819Y-107773808D01*
X152604819Y-107488094D02*
X151604819Y-107488094D01*
X151604819Y-107488094D02*
X151747676Y-107583332D01*
X151747676Y-107583332D02*
X151842914Y-107678570D01*
X151842914Y-107678570D02*
X151890533Y-107773808D01*
X152557200Y-106726189D02*
X152604819Y-106726189D01*
X152604819Y-106726189D02*
X152700057Y-106773808D01*
X152700057Y-106773808D02*
X152747676Y-106821427D01*
X151604819Y-106392856D02*
X151604819Y-105726190D01*
X151604819Y-105726190D02*
X152604819Y-106154761D01*
X152604819Y-104583332D02*
X151938152Y-104583332D01*
X152033390Y-104583332D02*
X151985771Y-104535713D01*
X151985771Y-104535713D02*
X151938152Y-104440475D01*
X151938152Y-104440475D02*
X151938152Y-104297618D01*
X151938152Y-104297618D02*
X151985771Y-104202380D01*
X151985771Y-104202380D02*
X152081009Y-104154761D01*
X152081009Y-104154761D02*
X152604819Y-104154761D01*
X152081009Y-104154761D02*
X151985771Y-104107142D01*
X151985771Y-104107142D02*
X151938152Y-104011904D01*
X151938152Y-104011904D02*
X151938152Y-103869047D01*
X151938152Y-103869047D02*
X151985771Y-103773808D01*
X151985771Y-103773808D02*
X152081009Y-103726189D01*
X152081009Y-103726189D02*
X152604819Y-103726189D01*
X152604819Y-103249999D02*
X151938152Y-103249999D01*
X151604819Y-103249999D02*
X151652438Y-103297618D01*
X151652438Y-103297618D02*
X151700057Y-103249999D01*
X151700057Y-103249999D02*
X151652438Y-103202380D01*
X151652438Y-103202380D02*
X151604819Y-103249999D01*
X151604819Y-103249999D02*
X151700057Y-103249999D01*
X152604819Y-102630952D02*
X152557200Y-102726190D01*
X152557200Y-102726190D02*
X152461961Y-102773809D01*
X152461961Y-102773809D02*
X151604819Y-102773809D01*
X152557200Y-102297618D02*
X152604819Y-102202380D01*
X152604819Y-102202380D02*
X152604819Y-102011904D01*
X152604819Y-102011904D02*
X152557200Y-101916666D01*
X152557200Y-101916666D02*
X152461961Y-101869047D01*
X152461961Y-101869047D02*
X152414342Y-101869047D01*
X152414342Y-101869047D02*
X152319104Y-101916666D01*
X152319104Y-101916666D02*
X152271485Y-102011904D01*
X152271485Y-102011904D02*
X152271485Y-102154761D01*
X152271485Y-102154761D02*
X152223866Y-102249999D01*
X152223866Y-102249999D02*
X152128628Y-102297618D01*
X152128628Y-102297618D02*
X152081009Y-102297618D01*
X152081009Y-102297618D02*
X151985771Y-102249999D01*
X151985771Y-102249999D02*
X151938152Y-102154761D01*
X151938152Y-102154761D02*
X151938152Y-102011904D01*
X151938152Y-102011904D02*
X151985771Y-101916666D01*
D10*
X148850000Y-60000000D02*
X153886420Y-60000000D01*
X153886420Y-152500000D02*
X148850000Y-152500000D01*
X153300000Y-60000000D02*
X153300000Y-152500000D01*
X153300000Y-60000000D02*
X153886421Y-61126504D01*
X153300000Y-60000000D02*
X152713579Y-61126504D01*
X153300000Y-152500000D02*
X152713579Y-151373496D01*
X153300000Y-152500000D02*
X153886421Y-151373496D01*
D11*
X99745179Y-54704819D02*
X100364226Y-54704819D01*
X100364226Y-54704819D02*
X100030893Y-55085771D01*
X100030893Y-55085771D02*
X100173750Y-55085771D01*
X100173750Y-55085771D02*
X100268988Y-55133390D01*
X100268988Y-55133390D02*
X100316607Y-55181009D01*
X100316607Y-55181009D02*
X100364226Y-55276247D01*
X100364226Y-55276247D02*
X100364226Y-55514342D01*
X100364226Y-55514342D02*
X100316607Y-55609580D01*
X100316607Y-55609580D02*
X100268988Y-55657200D01*
X100268988Y-55657200D02*
X100173750Y-55704819D01*
X100173750Y-55704819D02*
X99888036Y-55704819D01*
X99888036Y-55704819D02*
X99792798Y-55657200D01*
X99792798Y-55657200D02*
X99745179Y-55609580D01*
X101268988Y-54704819D02*
X100792798Y-54704819D01*
X100792798Y-54704819D02*
X100745179Y-55181009D01*
X100745179Y-55181009D02*
X100792798Y-55133390D01*
X100792798Y-55133390D02*
X100888036Y-55085771D01*
X100888036Y-55085771D02*
X101126131Y-55085771D01*
X101126131Y-55085771D02*
X101221369Y-55133390D01*
X101221369Y-55133390D02*
X101268988Y-55181009D01*
X101268988Y-55181009D02*
X101316607Y-55276247D01*
X101316607Y-55276247D02*
X101316607Y-55514342D01*
X101316607Y-55514342D02*
X101268988Y-55609580D01*
X101268988Y-55609580D02*
X101221369Y-55657200D01*
X101221369Y-55657200D02*
X101126131Y-55704819D01*
X101126131Y-55704819D02*
X100888036Y-55704819D01*
X100888036Y-55704819D02*
X100792798Y-55657200D01*
X100792798Y-55657200D02*
X100745179Y-55609580D01*
X101792798Y-55704819D02*
X101983274Y-55704819D01*
X101983274Y-55704819D02*
X102078512Y-55657200D01*
X102078512Y-55657200D02*
X102126131Y-55609580D01*
X102126131Y-55609580D02*
X102221369Y-55466723D01*
X102221369Y-55466723D02*
X102268988Y-55276247D01*
X102268988Y-55276247D02*
X102268988Y-54895295D01*
X102268988Y-54895295D02*
X102221369Y-54800057D01*
X102221369Y-54800057D02*
X102173750Y-54752438D01*
X102173750Y-54752438D02*
X102078512Y-54704819D01*
X102078512Y-54704819D02*
X101888036Y-54704819D01*
X101888036Y-54704819D02*
X101792798Y-54752438D01*
X101792798Y-54752438D02*
X101745179Y-54800057D01*
X101745179Y-54800057D02*
X101697560Y-54895295D01*
X101697560Y-54895295D02*
X101697560Y-55133390D01*
X101697560Y-55133390D02*
X101745179Y-55228628D01*
X101745179Y-55228628D02*
X101792798Y-55276247D01*
X101792798Y-55276247D02*
X101888036Y-55323866D01*
X101888036Y-55323866D02*
X102078512Y-55323866D01*
X102078512Y-55323866D02*
X102173750Y-55276247D01*
X102173750Y-55276247D02*
X102221369Y-55228628D01*
X102221369Y-55228628D02*
X102268988Y-55133390D01*
X103126131Y-54704819D02*
X102935655Y-54704819D01*
X102935655Y-54704819D02*
X102840417Y-54752438D01*
X102840417Y-54752438D02*
X102792798Y-54800057D01*
X102792798Y-54800057D02*
X102697560Y-54942914D01*
X102697560Y-54942914D02*
X102649941Y-55133390D01*
X102649941Y-55133390D02*
X102649941Y-55514342D01*
X102649941Y-55514342D02*
X102697560Y-55609580D01*
X102697560Y-55609580D02*
X102745179Y-55657200D01*
X102745179Y-55657200D02*
X102840417Y-55704819D01*
X102840417Y-55704819D02*
X103030893Y-55704819D01*
X103030893Y-55704819D02*
X103126131Y-55657200D01*
X103126131Y-55657200D02*
X103173750Y-55609580D01*
X103173750Y-55609580D02*
X103221369Y-55514342D01*
X103221369Y-55514342D02*
X103221369Y-55276247D01*
X103221369Y-55276247D02*
X103173750Y-55181009D01*
X103173750Y-55181009D02*
X103126131Y-55133390D01*
X103126131Y-55133390D02*
X103030893Y-55085771D01*
X103030893Y-55085771D02*
X102840417Y-55085771D01*
X102840417Y-55085771D02*
X102745179Y-55133390D01*
X102745179Y-55133390D02*
X102697560Y-55181009D01*
X102697560Y-55181009D02*
X102649941Y-55276247D01*
X103697560Y-55657200D02*
X103697560Y-55704819D01*
X103697560Y-55704819D02*
X103649941Y-55800057D01*
X103649941Y-55800057D02*
X103602322Y-55847676D01*
X104554702Y-55038152D02*
X104554702Y-55704819D01*
X104316607Y-54657200D02*
X104078512Y-55371485D01*
X104078512Y-55371485D02*
X104697559Y-55371485D01*
X105840417Y-55704819D02*
X105840417Y-55038152D01*
X105840417Y-55133390D02*
X105888036Y-55085771D01*
X105888036Y-55085771D02*
X105983274Y-55038152D01*
X105983274Y-55038152D02*
X106126131Y-55038152D01*
X106126131Y-55038152D02*
X106221369Y-55085771D01*
X106221369Y-55085771D02*
X106268988Y-55181009D01*
X106268988Y-55181009D02*
X106268988Y-55704819D01*
X106268988Y-55181009D02*
X106316607Y-55085771D01*
X106316607Y-55085771D02*
X106411845Y-55038152D01*
X106411845Y-55038152D02*
X106554702Y-55038152D01*
X106554702Y-55038152D02*
X106649941Y-55085771D01*
X106649941Y-55085771D02*
X106697560Y-55181009D01*
X106697560Y-55181009D02*
X106697560Y-55704819D01*
X107173750Y-55704819D02*
X107173750Y-55038152D01*
X107173750Y-54704819D02*
X107126131Y-54752438D01*
X107126131Y-54752438D02*
X107173750Y-54800057D01*
X107173750Y-54800057D02*
X107221369Y-54752438D01*
X107221369Y-54752438D02*
X107173750Y-54704819D01*
X107173750Y-54704819D02*
X107173750Y-54800057D01*
X107792797Y-55704819D02*
X107697559Y-55657200D01*
X107697559Y-55657200D02*
X107649940Y-55561961D01*
X107649940Y-55561961D02*
X107649940Y-54704819D01*
X108126131Y-55657200D02*
X108221369Y-55704819D01*
X108221369Y-55704819D02*
X108411845Y-55704819D01*
X108411845Y-55704819D02*
X108507083Y-55657200D01*
X108507083Y-55657200D02*
X108554702Y-55561961D01*
X108554702Y-55561961D02*
X108554702Y-55514342D01*
X108554702Y-55514342D02*
X108507083Y-55419104D01*
X108507083Y-55419104D02*
X108411845Y-55371485D01*
X108411845Y-55371485D02*
X108268988Y-55371485D01*
X108268988Y-55371485D02*
X108173750Y-55323866D01*
X108173750Y-55323866D02*
X108126131Y-55228628D01*
X108126131Y-55228628D02*
X108126131Y-55181009D01*
X108126131Y-55181009D02*
X108173750Y-55085771D01*
X108173750Y-55085771D02*
X108268988Y-55038152D01*
X108268988Y-55038152D02*
X108411845Y-55038152D01*
X108411845Y-55038152D02*
X108507083Y-55085771D01*
D10*
X149847500Y-61000000D02*
X149847500Y-55813580D01*
X58500000Y-55813580D02*
X58500000Y-61000000D01*
X149847500Y-56400000D02*
X58500000Y-56400000D01*
X149847500Y-56400000D02*
X148720996Y-56986421D01*
X149847500Y-56400000D02*
X148720996Y-55813579D01*
X58500000Y-56400000D02*
X59626504Y-55813579D01*
X58500000Y-56400000D02*
X59626504Y-56986421D01*
M02*
