  0
SECTION
  2
HEADER
  9
$ANGBASE
  50
0.0
  9
$ANGDIR
  70
1
  9
$MEASUREMENT
  70
1
  0
ENDSEC
  0
SECTION
  2
TABLES
  0
TABLE
  2
LTYPE
  70
4
  0
LTYPE
  5
40F
  2
CONTINUOUS
  70
0
  3
Solid line
  72
65
  73
0
  40
0.0
  0
LTYPE
  5
410
  2
DASHDOT
 70
0
  3
Dash Dot ____ _ ____ _
 72
65
 73
4
 40
2.0
 49
1.25
 49
-0.25
 49
0.25
 49
-0.25
  0
LTYPE
  5
411
  2
DASHED
 70
0
  3
Dashed __ __ __ __ __
 72
65
 73
2
 40
0.75
 49
0.5
 49
-0.25
  0
LTYPE
  5
43B
  2
DOTTED
 70
0
  3
Dotted .  .  .  .
 72
65
 73
2
 40
0.2
 49
0.0
 49
-0.2
  0
ENDTAB
  0
TABLE
  2
STYLE
  70
4
  0
STYLE
  2
KICAD
  70
0
  40
0
  41
1
  42
1
  50
0
  71
0
  3
isocp.shx
  0
STYLE
  2
KICADB
  70
0
  40
0
  41
1
  42
1
  50
0
  71
0
  3
isocp.shx
  0
STYLE
  2
KICADI
  70
0
  40
0
  41
1
  42
1
  50
15
  71
0
  3
isocp.shx
  0
STYLE
  2
KICADBI
  70
0
  40
0
  41
1
  42
1
  50
15
  71
0
  3
isocp.shx
  0
ENDTAB
  0
TABLE
  2
LAYER
  70
1
  0
LAYER
  2
BLACK
  70
0
  62
7
  6
CONTINUOUS
  0
ENDTAB
  0
ENDSEC
  0
SECTION
  2
ENTITIES
0
LINE
8
BLACK
6
CONTINUOUS
10
157.75
20
-38.5
11
140.5
21
-38.5
0
LINE
8
BLACK
6
CONTINUOUS
10
140.5
20
-150.
11
140.5
21
-38.5
0
CIRCLE
8
BLACK
10
148.
20
-138.
40
1.5999999999999999
0
LINE
8
BLACK
6
CONTINUOUS
10
145.6999999999999886
20
-71.3999999999999915
11
154.7999999999999829
21
-71.3999999999999915
0
LINE
8
BLACK
6
CONTINUOUS
10
154.7999999999999829
20
-71.3999999999999915
11
154.7999999999999829
21
-104.5999999999999943
0
LINE
8
BLACK
6
CONTINUOUS
10
154.7999999999999829
20
-104.5999999999999943
11
145.6999999999999886
21
-104.5999999999999943
0
LINE
8
BLACK
6
CONTINUOUS
10
145.6999999999999886
20
-104.5999999999999943
11
145.6999999999999886
21
-71.3999999999999915
0
CIRCLE
8
BLACK
10
148.
20
-54.
40
1.5999999999999999
0
CIRCLE
8
BLACK
10
149.125
20
-146.75
40
0.6
0
LINE
8
BLACK
6
CONTINUOUS
10
157.75
20
-150.
11
140.5
21
-150.
0
LINE
8
BLACK
6
CONTINUOUS
10
146.1999999999999886
20
-111.5999999999999943
11
153.2999999999999829
21
-111.5999999999999943
0
LINE
8
BLACK
6
CONTINUOUS
10
153.2999999999999829
20
-111.5999999999999943
11
153.2999999999999829
21
-126.3999999999999915
0
LINE
8
BLACK
6
CONTINUOUS
10
153.2999999999999829
20
-126.3999999999999915
11
146.1999999999999886
21
-126.3999999999999915
0
LINE
8
BLACK
6
CONTINUOUS
10
146.1999999999999886
20
-126.3999999999999915
11
146.1999999999999886
21
-111.5999999999999943
0
CIRCLE
8
BLACK
10
149.125
20
-41.75
40
0.6
0
LINE
8
BLACK
6
CONTINUOUS
10
157.75
20
-38.5
11
157.75
21
-150.
  0
ENDSEC
  0
EOF
