%TF.GenerationSoftware,KiCad,Pcbnew,9.0.7-9.0.7~ubuntu24.04.1*%
%TF.CreationDate,2026-02-02T13:58:58+01:00*%
%TF.ProjectId,BB3plus USB hub test,42423370-6c75-4732-9055-534220687562,r1B1*%
%TF.SameCoordinates,Original*%
%TF.FileFunction,Soldermask,Bot*%
%TF.FilePolarity,Negative*%
%FSLAX46Y46*%
G04 Gerber Fmt 4.6, Leading zero omitted, Abs format (unit mm)*
G04 Created by KiCad (PCBNEW 9.0.7-9.0.7~ubuntu24.04.1) date 2026-02-02 13:58:58*
%MOMM*%
%LPD*%
G01*
G04 APERTURE LIST*
G04 Aperture macros list*
%AMRoundRect*
0 Rectangle with rounded corners*
0 $1 Rounding radius*
0 $2 $3 $4 $5 $6 $7 $8 $9 X,Y pos of 4 corners*
0 Add a 4 corners polygon primitive as box body*
4,1,4,$2,$3,$4,$5,$6,$7,$8,$9,$2,$3,0*
0 Add four circle primitives for the rounded corners*
1,1,$1+$1,$2,$3*
1,1,$1+$1,$4,$5*
1,1,$1+$1,$6,$7*
1,1,$1+$1,$8,$9*
0 Add four rect primitives between the rounded corners*
20,1,$1+$1,$2,$3,$4,$5,0*
20,1,$1+$1,$4,$5,$6,$7,0*
20,1,$1+$1,$6,$7,$8,$9,0*
20,1,$1+$1,$8,$9,$2,$3,0*%
%AMFreePoly0*
4,1,17,0.355561,0.794901,0.794901,0.355561,0.813500,0.310660,0.813500,-0.310660,0.794901,-0.355561,0.355561,-0.794901,0.310660,-0.813500,-0.310660,-0.813500,-0.355561,-0.794901,-0.794901,-0.355561,-0.813500,-0.310660,-0.813500,0.310660,-0.794901,0.355561,-0.355561,0.794901,-0.310660,0.813500,0.310660,0.813500,0.355561,0.794901,0.355561,0.794901,$1*%
%AMFreePoly1*
4,1,17,0.413137,0.933901,0.933901,0.413137,0.952500,0.368236,0.952500,-0.368236,0.933901,-0.413137,0.413137,-0.933901,0.368236,-0.952500,-0.368236,-0.952500,-0.413137,-0.933901,-0.933901,-0.413137,-0.952500,-0.368236,-0.952500,0.368236,-0.933901,0.413137,-0.413137,0.933901,-0.368236,0.952500,0.368236,0.952500,0.413137,0.933901,0.413137,0.933901,$1*%
G04 Aperture macros list end*
%ADD10C,0.010000*%
%ADD11FreePoly0,90.000000*%
%ADD12RoundRect,0.170000X-0.680000X-0.680000X0.680000X-0.680000X0.680000X0.680000X-0.680000X0.680000X0*%
%ADD13O,1.700000X1.700000*%
%ADD14C,0.650000*%
%ADD15C,0.600000*%
%ADD16O,1.004000X1.604000*%
%ADD17C,1.270000*%
%ADD18RoundRect,0.102000X-0.750000X0.550000X-0.750000X-0.550000X0.750000X-0.550000X0.750000X0.550000X0*%
%ADD19O,1.704000X1.304000*%
%ADD20O,1.804000X1.404000*%
%ADD21RoundRect,0.102000X-0.800000X0.600000X-0.800000X-0.600000X0.800000X-0.600000X0.800000X0.600000X0*%
%ADD22C,2.559000*%
%ADD23C,3.530000*%
%ADD24C,0.800000*%
%ADD25C,5.500000*%
%ADD26FreePoly1,90.000000*%
%ADD27C,1.905000*%
%ADD28RoundRect,0.170000X0.680000X-0.680000X0.680000X0.680000X-0.680000X0.680000X-0.680000X-0.680000X0*%
%ADD29C,1.700000*%
%ADD30RoundRect,0.250000X-0.845000X0.620000X-0.845000X-0.620000X0.845000X-0.620000X0.845000X0.620000X0*%
%ADD31O,2.190000X1.740000*%
%ADD32RoundRect,0.170000X-0.680000X0.680000X-0.680000X-0.680000X0.680000X-0.680000X0.680000X0.680000X0*%
%ADD33C,2.350000*%
%ADD34RoundRect,0.102000X-0.604000X0.604000X-0.604000X-0.604000X0.604000X-0.604000X0.604000X0.604000X0*%
%ADD35C,1.412000*%
%ADD36FreePoly0,180.000000*%
%ADD37C,1.250000*%
%ADD38RoundRect,0.063500X0.838200X-0.838200X0.838200X0.838200X-0.838200X0.838200X-0.838200X-0.838200X0*%
%ADD39C,1.803400*%
%ADD40C,1.927000*%
%ADD41C,1.627000*%
%ADD42C,3.089000*%
%ADD43C,2.800000*%
%ADD44R,1.400000X1.400000*%
%ADD45C,1.400000*%
%ADD46C,2.387600*%
%ADD47C,0.990600*%
%ADD48C,6.100000*%
%ADD49RoundRect,0.170000X0.680000X0.680000X-0.680000X0.680000X-0.680000X-0.680000X0.680000X-0.680000X0*%
%ADD50O,1.404000X2.004000*%
G04 APERTURE END LIST*
D10*
%TO.C,X9*%
X367772000Y-170936000D02*
X367794000Y-170937000D01*
X367816000Y-170940000D01*
X367838000Y-170944000D01*
X367860000Y-170949000D01*
X367881000Y-170956000D01*
X367902000Y-170963000D01*
X367923000Y-170972000D01*
X367943000Y-170981000D01*
X367962000Y-170992000D01*
X367981000Y-171004000D01*
X368000000Y-171016000D01*
X368017000Y-171030000D01*
X368034000Y-171044000D01*
X368051000Y-171059000D01*
X368066000Y-171076000D01*
X368080000Y-171093000D01*
X368094000Y-171110000D01*
X368106000Y-171129000D01*
X368118000Y-171147000D01*
X368129000Y-171167000D01*
X368138000Y-171187000D01*
X368147000Y-171208000D01*
X368154000Y-171229000D01*
X368161000Y-171250000D01*
X368166000Y-171272000D01*
X368170000Y-171294000D01*
X368173000Y-171316000D01*
X368174000Y-171338000D01*
X368175000Y-171360000D01*
X368174000Y-171382000D01*
X368173000Y-171404000D01*
X368170000Y-171426000D01*
X368166000Y-171448000D01*
X368161000Y-171470000D01*
X368154000Y-171491000D01*
X368147000Y-171512000D01*
X368138000Y-171533000D01*
X368129000Y-171553000D01*
X368118000Y-171572000D01*
X368106000Y-171591000D01*
X368094000Y-171610000D01*
X368080000Y-171627000D01*
X368066000Y-171644000D01*
X368051000Y-171661000D01*
X368034000Y-171676000D01*
X368017000Y-171690000D01*
X368000000Y-171704000D01*
X367981000Y-171716000D01*
X367962000Y-171728000D01*
X367943000Y-171739000D01*
X367923000Y-171748000D01*
X367902000Y-171757000D01*
X367881000Y-171764000D01*
X367860000Y-171771000D01*
X367838000Y-171776000D01*
X367816000Y-171780000D01*
X367794000Y-171783000D01*
X367772000Y-171784000D01*
X367750000Y-171785000D01*
X367450000Y-171785000D01*
X367428000Y-171784000D01*
X367406000Y-171783000D01*
X367384000Y-171780000D01*
X367362000Y-171776000D01*
X367340000Y-171771000D01*
X367319000Y-171764000D01*
X367298000Y-171757000D01*
X367277000Y-171748000D01*
X367257000Y-171739000D01*
X367237000Y-171728000D01*
X367219000Y-171716000D01*
X367200000Y-171704000D01*
X367183000Y-171690000D01*
X367166000Y-171676000D01*
X367149000Y-171661000D01*
X367134000Y-171644000D01*
X367120000Y-171627000D01*
X367106000Y-171610000D01*
X367094000Y-171591000D01*
X367082000Y-171572000D01*
X367071000Y-171553000D01*
X367062000Y-171533000D01*
X367053000Y-171512000D01*
X367046000Y-171491000D01*
X367039000Y-171470000D01*
X367034000Y-171448000D01*
X367030000Y-171426000D01*
X367027000Y-171404000D01*
X367026000Y-171382000D01*
X367025000Y-171360000D01*
X367026000Y-171338000D01*
X367027000Y-171316000D01*
X367030000Y-171294000D01*
X367034000Y-171272000D01*
X367039000Y-171250000D01*
X367046000Y-171229000D01*
X367053000Y-171208000D01*
X367062000Y-171187000D01*
X367071000Y-171167000D01*
X367082000Y-171147000D01*
X367094000Y-171129000D01*
X367106000Y-171110000D01*
X367120000Y-171093000D01*
X367134000Y-171076000D01*
X367149000Y-171059000D01*
X367166000Y-171044000D01*
X367183000Y-171030000D01*
X367200000Y-171016000D01*
X367219000Y-171004000D01*
X367237000Y-170992000D01*
X367257000Y-170981000D01*
X367277000Y-170972000D01*
X367298000Y-170963000D01*
X367319000Y-170956000D01*
X367340000Y-170949000D01*
X367362000Y-170944000D01*
X367384000Y-170940000D01*
X367406000Y-170937000D01*
X367428000Y-170936000D01*
X367450000Y-170935000D01*
X367750000Y-170935000D01*
X367772000Y-170936000D01*
G36*
X367772000Y-170936000D02*
G01*
X367794000Y-170937000D01*
X367816000Y-170940000D01*
X367838000Y-170944000D01*
X367860000Y-170949000D01*
X367881000Y-170956000D01*
X367902000Y-170963000D01*
X367923000Y-170972000D01*
X367943000Y-170981000D01*
X367962000Y-170992000D01*
X367981000Y-171004000D01*
X368000000Y-171016000D01*
X368017000Y-171030000D01*
X368034000Y-171044000D01*
X368051000Y-171059000D01*
X368066000Y-171076000D01*
X368080000Y-171093000D01*
X368094000Y-171110000D01*
X368106000Y-171129000D01*
X368118000Y-171147000D01*
X368129000Y-171167000D01*
X368138000Y-171187000D01*
X368147000Y-171208000D01*
X368154000Y-171229000D01*
X368161000Y-171250000D01*
X368166000Y-171272000D01*
X368170000Y-171294000D01*
X368173000Y-171316000D01*
X368174000Y-171338000D01*
X368175000Y-171360000D01*
X368174000Y-171382000D01*
X368173000Y-171404000D01*
X368170000Y-171426000D01*
X368166000Y-171448000D01*
X368161000Y-171470000D01*
X368154000Y-171491000D01*
X368147000Y-171512000D01*
X368138000Y-171533000D01*
X368129000Y-171553000D01*
X368118000Y-171572000D01*
X368106000Y-171591000D01*
X368094000Y-171610000D01*
X368080000Y-171627000D01*
X368066000Y-171644000D01*
X368051000Y-171661000D01*
X368034000Y-171676000D01*
X368017000Y-171690000D01*
X368000000Y-171704000D01*
X367981000Y-171716000D01*
X367962000Y-171728000D01*
X367943000Y-171739000D01*
X367923000Y-171748000D01*
X367902000Y-171757000D01*
X367881000Y-171764000D01*
X367860000Y-171771000D01*
X367838000Y-171776000D01*
X367816000Y-171780000D01*
X367794000Y-171783000D01*
X367772000Y-171784000D01*
X367750000Y-171785000D01*
X367450000Y-171785000D01*
X367428000Y-171784000D01*
X367406000Y-171783000D01*
X367384000Y-171780000D01*
X367362000Y-171776000D01*
X367340000Y-171771000D01*
X367319000Y-171764000D01*
X367298000Y-171757000D01*
X367277000Y-171748000D01*
X367257000Y-171739000D01*
X367237000Y-171728000D01*
X367219000Y-171716000D01*
X367200000Y-171704000D01*
X367183000Y-171690000D01*
X367166000Y-171676000D01*
X367149000Y-171661000D01*
X367134000Y-171644000D01*
X367120000Y-171627000D01*
X367106000Y-171610000D01*
X367094000Y-171591000D01*
X367082000Y-171572000D01*
X367071000Y-171553000D01*
X367062000Y-171533000D01*
X367053000Y-171512000D01*
X367046000Y-171491000D01*
X367039000Y-171470000D01*
X367034000Y-171448000D01*
X367030000Y-171426000D01*
X367027000Y-171404000D01*
X367026000Y-171382000D01*
X367025000Y-171360000D01*
X367026000Y-171338000D01*
X367027000Y-171316000D01*
X367030000Y-171294000D01*
X367034000Y-171272000D01*
X367039000Y-171250000D01*
X367046000Y-171229000D01*
X367053000Y-171208000D01*
X367062000Y-171187000D01*
X367071000Y-171167000D01*
X367082000Y-171147000D01*
X367094000Y-171129000D01*
X367106000Y-171110000D01*
X367120000Y-171093000D01*
X367134000Y-171076000D01*
X367149000Y-171059000D01*
X367166000Y-171044000D01*
X367183000Y-171030000D01*
X367200000Y-171016000D01*
X367219000Y-171004000D01*
X367237000Y-170992000D01*
X367257000Y-170981000D01*
X367277000Y-170972000D01*
X367298000Y-170963000D01*
X367319000Y-170956000D01*
X367340000Y-170949000D01*
X367362000Y-170944000D01*
X367384000Y-170940000D01*
X367406000Y-170937000D01*
X367428000Y-170936000D01*
X367450000Y-170935000D01*
X367750000Y-170935000D01*
X367772000Y-170936000D01*
G37*
%TD*%
D11*
%TO.C,X4*%
X433500000Y-158510000D03*
X436040000Y-158510000D03*
X433500000Y-155970000D03*
X436040000Y-155970000D03*
X433500000Y-153430000D03*
X436040000Y-153430000D03*
X433500000Y-150890000D03*
X436040000Y-150890000D03*
X433500000Y-148350000D03*
X436040000Y-148350000D03*
X433500000Y-145810000D03*
X436040000Y-145810000D03*
X433500000Y-143270000D03*
X436040000Y-143270000D03*
X433500000Y-140730000D03*
X436040000Y-140730000D03*
X433500000Y-138190000D03*
X436040000Y-138190000D03*
X433500000Y-135650000D03*
X436040000Y-135650000D03*
%TD*%
D12*
%TO.C,JP16*%
X425010000Y-158140000D03*
D13*
X425010000Y-160680000D03*
%TD*%
D14*
%TO.C,X9*%
X360400000Y-171360000D03*
X367600000Y-171360000D03*
D15*
X366800000Y-172010000D03*
X366400000Y-172710000D03*
X365600000Y-172710000D03*
X365200000Y-172010000D03*
X364800000Y-172710000D03*
X364400000Y-172010000D03*
X363600000Y-172010000D03*
X363200000Y-172710000D03*
X362800000Y-172010000D03*
X362400000Y-172710000D03*
X361600000Y-172710000D03*
X361200000Y-172010000D03*
D16*
X359510000Y-177000000D03*
X359870000Y-172600000D03*
X368130000Y-172600000D03*
X368490000Y-177000000D03*
%TD*%
D17*
%TO.C,TP5*%
X403060000Y-116720000D03*
%TD*%
%TO.C,TP2*%
X381120000Y-107730000D03*
%TD*%
D18*
%TO.C,X10*%
X315578800Y-98745000D03*
D19*
X315578800Y-96715000D03*
X315578800Y-94685000D03*
X315578800Y-92655000D03*
X315578800Y-90625000D03*
X315578800Y-88595000D03*
X312018800Y-97735000D03*
X312018800Y-95700000D03*
X312018800Y-91640000D03*
X312018800Y-89605000D03*
D20*
X318018800Y-100895000D03*
X318018800Y-98355000D03*
X318018800Y-91510000D03*
X318018800Y-88985000D03*
X318018800Y-86445000D03*
D21*
X306438800Y-90165000D03*
D20*
X306438800Y-92665000D03*
X306438800Y-94675000D03*
X306438800Y-97175000D03*
D22*
X301228800Y-85605000D03*
X312018800Y-85615000D03*
D23*
X309428800Y-87105000D03*
X303738800Y-87105000D03*
X309428800Y-100235000D03*
X303738800Y-100235000D03*
D22*
X311948800Y-101725000D03*
X301228800Y-101735000D03*
D21*
X309058800Y-90165000D03*
D20*
X309058800Y-92665000D03*
X309058800Y-94675000D03*
X309058800Y-97175000D03*
%TD*%
D24*
%TO.C,H4*%
X430800000Y-79000000D03*
X431500000Y-77500000D03*
X431500000Y-80500000D03*
X433000000Y-76800000D03*
D25*
X433000000Y-79000000D03*
D24*
X433000000Y-81200000D03*
X434500000Y-77500000D03*
X434500000Y-80500000D03*
X435200000Y-79000000D03*
%TD*%
D26*
%TO.C,SP1*%
X404200000Y-173000000D03*
D27*
X409200000Y-173000000D03*
%TD*%
D17*
%TO.C,TP14*%
X380780000Y-156390000D03*
%TD*%
D28*
%TO.C,JP12*%
X375560000Y-174840000D03*
D29*
X378100000Y-174840000D03*
X380640000Y-174840000D03*
%TD*%
D30*
%TO.C,X1*%
X297860000Y-131539308D03*
D31*
X297860000Y-134079308D03*
X297860000Y-136619308D03*
%TD*%
D32*
%TO.C,JP5*%
X392990000Y-110600000D03*
D13*
X390450000Y-110600000D03*
%TD*%
D33*
%TO.C,X5*%
X431415000Y-83700000D03*
X431415000Y-106850000D03*
D34*
X430165000Y-118500000D03*
D35*
X428165000Y-117500000D03*
X430165000Y-116500000D03*
X428165000Y-115500000D03*
X430165000Y-114500000D03*
X428165000Y-113500000D03*
X430165000Y-112500000D03*
X428165000Y-111500000D03*
X430165000Y-110500000D03*
X428165000Y-109500000D03*
X430165000Y-108500000D03*
X428165000Y-105500000D03*
X430165000Y-104500000D03*
X428165000Y-103500000D03*
X430165000Y-102500000D03*
X428165000Y-101500000D03*
X430165000Y-100500000D03*
X428165000Y-99500000D03*
X430165000Y-98500000D03*
X428165000Y-97500000D03*
X430165000Y-96500000D03*
X428165000Y-95500000D03*
X430165000Y-94500000D03*
X428165000Y-93500000D03*
X430165000Y-92500000D03*
X428165000Y-91500000D03*
X430165000Y-90500000D03*
X428165000Y-89500000D03*
X430165000Y-88500000D03*
X428165000Y-87500000D03*
X430165000Y-86500000D03*
X428165000Y-85500000D03*
X432665000Y-118500000D03*
X434665000Y-117500000D03*
X432665000Y-116500000D03*
X434665000Y-115500000D03*
X432665000Y-114500000D03*
X434665000Y-113500000D03*
X432665000Y-112500000D03*
X434665000Y-111500000D03*
X432665000Y-110500000D03*
X434665000Y-109500000D03*
X432665000Y-108500000D03*
X434665000Y-105500000D03*
X432665000Y-104500000D03*
X434665000Y-103500000D03*
X432665000Y-102500000D03*
X434665000Y-101500000D03*
X432665000Y-100500000D03*
X434665000Y-99500000D03*
X432665000Y-98500000D03*
X434665000Y-97500000D03*
X432665000Y-96500000D03*
X434665000Y-95500000D03*
X432665000Y-94500000D03*
X434665000Y-93500000D03*
X432665000Y-92500000D03*
X434665000Y-91500000D03*
X432665000Y-90500000D03*
X434665000Y-89500000D03*
X432665000Y-88500000D03*
X434665000Y-87500000D03*
X432665000Y-86500000D03*
X434665000Y-85500000D03*
%TD*%
D17*
%TO.C,TP1*%
X381120000Y-105623333D03*
%TD*%
D36*
%TO.C,X7*%
X423120000Y-83020000D03*
X420580000Y-83020000D03*
X418040000Y-83020000D03*
X415500000Y-83020000D03*
X412960000Y-83020000D03*
X410420000Y-83020000D03*
%TD*%
D37*
%TO.C,X8*%
X318978486Y-175974835D03*
D38*
X324058486Y-173814835D03*
D39*
X321518486Y-173814835D03*
X318978486Y-173814835D03*
X316438486Y-173814835D03*
%TD*%
D30*
%TO.C,X2*%
X314050000Y-130420087D03*
D31*
X314050000Y-132960087D03*
%TD*%
D28*
%TO.C,JP3*%
X322470000Y-128790000D03*
D29*
X325010000Y-128790000D03*
X327550000Y-128790000D03*
%TD*%
D28*
%TO.C,JP2*%
X322380000Y-141030000D03*
D13*
X324920000Y-141030000D03*
%TD*%
D17*
%TO.C,TP17*%
X398550000Y-82570000D03*
%TD*%
%TO.C,TP15*%
X365170000Y-155230000D03*
%TD*%
D32*
%TO.C,JP6*%
X392990000Y-96720000D03*
D13*
X390450000Y-96720000D03*
%TD*%
D40*
%TO.C,SW2*%
X387000000Y-170900000D03*
X392000000Y-170900000D03*
X397000000Y-170900000D03*
D41*
X389500000Y-168300000D03*
X394500000Y-168300000D03*
D42*
X400000000Y-167800000D03*
X384000000Y-167800000D03*
%TD*%
D17*
%TO.C,TP18*%
X392740000Y-118390000D03*
%TD*%
%TO.C,TP7*%
X400640000Y-141780000D03*
%TD*%
D24*
%TO.C,H1*%
X427800000Y-166700000D03*
X428500000Y-165200000D03*
X428500000Y-168200000D03*
X430000000Y-164500000D03*
D25*
X430000000Y-166700000D03*
D24*
X430000000Y-168900000D03*
X431500000Y-165200000D03*
X431500000Y-168200000D03*
X432200000Y-166700000D03*
%TD*%
D17*
%TO.C,TP13*%
X375410000Y-151860000D03*
%TD*%
D43*
%TO.C,X3*%
X417500000Y-175500000D03*
X417500000Y-160200000D03*
%TD*%
D17*
%TO.C,TP16*%
X398550000Y-85000000D03*
%TD*%
%TO.C,TP10*%
X425530000Y-128464000D03*
%TD*%
%TO.C,TP12*%
X376120000Y-157990000D03*
%TD*%
D44*
%TO.C,SW1*%
X307500000Y-160700000D03*
D45*
X307500000Y-158200000D03*
X307500000Y-155700000D03*
X304500000Y-160700000D03*
X304500000Y-158200000D03*
X304500000Y-155700000D03*
X304730000Y-164400000D03*
X307270000Y-164400000D03*
%TD*%
D46*
%TO.C,X6*%
X423120000Y-93290000D03*
D47*
X420580000Y-93290000D03*
D46*
X418040000Y-93290000D03*
X423120000Y-96465000D03*
X418040000Y-96465000D03*
D47*
X421596000Y-98370000D03*
X419564000Y-98370000D03*
%TD*%
D17*
%TO.C,TP9*%
X403910000Y-120640000D03*
%TD*%
%TO.C,TP11*%
X425530000Y-126100000D03*
%TD*%
D48*
%TO.C,Module1*%
X343000000Y-89250000D03*
X343000000Y-137250000D03*
X376000000Y-89250000D03*
X376000000Y-137250000D03*
%TD*%
D17*
%TO.C,TP6*%
X360371459Y-158652180D03*
%TD*%
D24*
%TO.C,H3*%
X294800000Y-166650000D03*
X295500000Y-165150000D03*
X295500000Y-168150000D03*
X297000000Y-164450000D03*
D25*
X297000000Y-166650000D03*
D24*
X297000000Y-168850000D03*
X298500000Y-165150000D03*
X298500000Y-168150000D03*
X299200000Y-166650000D03*
%TD*%
D28*
%TO.C,JP1*%
X322380000Y-138200000D03*
D13*
X324920000Y-138200000D03*
%TD*%
D24*
%TO.C,H2*%
X294800000Y-79000000D03*
X295500000Y-77500000D03*
X295500000Y-80500000D03*
X297000000Y-76800000D03*
D25*
X297000000Y-79000000D03*
D24*
X297000000Y-81200000D03*
X298500000Y-77500000D03*
X298500000Y-80500000D03*
X299200000Y-79000000D03*
%TD*%
D17*
%TO.C,TP3*%
X381120000Y-98640000D03*
%TD*%
D49*
%TO.C,JP7*%
X422210000Y-120460000D03*
D13*
X422210000Y-117920000D03*
%TD*%
D17*
%TO.C,TP8*%
X403910000Y-122560000D03*
%TD*%
%TO.C,TP4*%
X381120000Y-101620000D03*
%TD*%
D50*
%TO.C,X11*%
X396000000Y-78270000D03*
X395400000Y-83170000D03*
X380900000Y-83170000D03*
X380300000Y-78270000D03*
%TD*%
M02*
