%TF.GenerationSoftware,KiCad,Pcbnew,9.0.7-9.0.7~ubuntu24.04.1*%
%TF.CreationDate,2026-02-02T13:58:58+01:00*%
%TF.ProjectId,BB3plus USB hub test,42423370-6c75-4732-9055-534220687562,r1B1*%
%TF.SameCoordinates,Original*%
%TF.FileFunction,Copper,L4,Bot*%
%TF.FilePolarity,Positive*%
%FSLAX46Y46*%
G04 Gerber Fmt 4.6, Leading zero omitted, Abs format (unit mm)*
G04 Created by KiCad (PCBNEW 9.0.7-9.0.7~ubuntu24.04.1) date 2026-02-02 13:58:58*
%MOMM*%
%LPD*%
G01*
G04 APERTURE LIST*
G04 Aperture macros list*
%AMRoundRect*
0 Rectangle with rounded corners*
0 $1 Rounding radius*
0 $2 $3 $4 $5 $6 $7 $8 $9 X,Y pos of 4 corners*
0 Add a 4 corners polygon primitive as box body*
4,1,4,$2,$3,$4,$5,$6,$7,$8,$9,$2,$3,0*
0 Add four circle primitives for the rounded corners*
1,1,$1+$1,$2,$3*
1,1,$1+$1,$4,$5*
1,1,$1+$1,$6,$7*
1,1,$1+$1,$8,$9*
0 Add four rect primitives between the rounded corners*
20,1,$1+$1,$2,$3,$4,$5,0*
20,1,$1+$1,$4,$5,$6,$7,0*
20,1,$1+$1,$6,$7,$8,$9,0*
20,1,$1+$1,$8,$9,$2,$3,0*%
%AMOutline5P*
0 Free polygon, 5 corners , with rotation*
0 The origin of the aperture is its center*
0 number of corners: always 5*
0 $1 to $10 corner X, Y*
0 $11 Rotation angle, in degrees counterclockwise*
0 create outline with 5 corners*
4,1,5,$1,$2,$3,$4,$5,$6,$7,$8,$9,$10,$1,$2,$11*%
%AMOutline6P*
0 Free polygon, 6 corners , with rotation*
0 The origin of the aperture is its center*
0 number of corners: always 6*
0 $1 to $12 corner X, Y*
0 $13 Rotation angle, in degrees counterclockwise*
0 create outline with 6 corners*
4,1,6,$1,$2,$3,$4,$5,$6,$7,$8,$9,$10,$11,$12,$1,$2,$13*%
%AMOutline7P*
0 Free polygon, 7 corners , with rotation*
0 The origin of the aperture is its center*
0 number of corners: always 7*
0 $1 to $14 corner X, Y*
0 $15 Rotation angle, in degrees counterclockwise*
0 create outline with 7 corners*
4,1,7,$1,$2,$3,$4,$5,$6,$7,$8,$9,$10,$11,$12,$13,$14,$1,$2,$15*%
%AMOutline8P*
0 Free polygon, 8 corners , with rotation*
0 The origin of the aperture is its center*
0 number of corners: always 8*
0 $1 to $16 corner X, Y*
0 $17 Rotation angle, in degrees counterclockwise*
0 create outline with 8 corners*
4,1,8,$1,$2,$3,$4,$5,$6,$7,$8,$9,$10,$11,$12,$13,$14,$15,$16,$1,$2,$17*%
G04 Aperture macros list end*
%TA.AperFunction,ComponentPad*%
%ADD10Outline8P,-0.750000X0.310660X-0.310660X0.750000X0.310660X0.750000X0.750000X0.310660X0.750000X-0.310660X0.310660X-0.750000X-0.310660X-0.750000X-0.750000X-0.310660X90.000000*%
%TD*%
%TA.AperFunction,ComponentPad*%
%ADD11RoundRect,0.170000X-0.680000X-0.680000X0.680000X-0.680000X0.680000X0.680000X-0.680000X0.680000X0*%
%TD*%
%TA.AperFunction,ComponentPad*%
%ADD12O,1.700000X1.700000*%
%TD*%
%TA.AperFunction,ComponentPad*%
%ADD13C,0.600000*%
%TD*%
%TA.AperFunction,ComponentPad*%
%ADD14O,0.800000X1.400000*%
%TD*%
%TA.AperFunction,ComponentPad*%
%ADD15C,1.270000*%
%TD*%
%TA.AperFunction,ComponentPad*%
%ADD16R,1.500000X1.100000*%
%TD*%
%TA.AperFunction,ComponentPad*%
%ADD17O,1.500000X1.100000*%
%TD*%
%TA.AperFunction,ComponentPad*%
%ADD18O,1.600000X1.200000*%
%TD*%
%TA.AperFunction,ComponentPad*%
%ADD19R,1.600000X1.200000*%
%TD*%
%TA.AperFunction,ComponentPad*%
%ADD20C,2.355000*%
%TD*%
%TA.AperFunction,ComponentPad*%
%ADD21C,3.326000*%
%TD*%
%TA.AperFunction,ComponentPad*%
%ADD22C,0.800000*%
%TD*%
%TA.AperFunction,ComponentPad*%
%ADD23C,5.500000*%
%TD*%
%TA.AperFunction,ComponentPad*%
%ADD24Outline8P,-0.889000X0.368236X-0.368236X0.889000X0.368236X0.889000X0.889000X0.368236X0.889000X-0.368236X0.368236X-0.889000X-0.368236X-0.889000X-0.889000X-0.368236X90.000000*%
%TD*%
%TA.AperFunction,ComponentPad*%
%ADD25C,1.778000*%
%TD*%
%TA.AperFunction,ComponentPad*%
%ADD26RoundRect,0.170000X0.680000X-0.680000X0.680000X0.680000X-0.680000X0.680000X-0.680000X-0.680000X0*%
%TD*%
%TA.AperFunction,ComponentPad*%
%ADD27C,1.700000*%
%TD*%
%TA.AperFunction,ComponentPad*%
%ADD28RoundRect,0.250000X-0.845000X0.620000X-0.845000X-0.620000X0.845000X-0.620000X0.845000X0.620000X0*%
%TD*%
%TA.AperFunction,ComponentPad*%
%ADD29O,2.190000X1.740000*%
%TD*%
%TA.AperFunction,ComponentPad*%
%ADD30RoundRect,0.170000X-0.680000X0.680000X-0.680000X-0.680000X0.680000X-0.680000X0.680000X0.680000X0*%
%TD*%
%TA.AperFunction,ComponentPad*%
%ADD31R,1.208000X1.208000*%
%TD*%
%TA.AperFunction,ComponentPad*%
%ADD32C,1.208000*%
%TD*%
%TA.AperFunction,ComponentPad*%
%ADD33Outline8P,-0.750000X0.310660X-0.310660X0.750000X0.310660X0.750000X0.750000X0.310660X0.750000X-0.310660X0.310660X-0.750000X-0.310660X-0.750000X-0.750000X-0.310660X180.000000*%
%TD*%
%TA.AperFunction,ComponentPad*%
%ADD34R,1.676400X1.676400*%
%TD*%
%TA.AperFunction,ComponentPad*%
%ADD35C,1.676400*%
%TD*%
%TA.AperFunction,ComponentPad*%
%ADD36C,1.800000*%
%TD*%
%TA.AperFunction,ComponentPad*%
%ADD37C,1.500000*%
%TD*%
%TA.AperFunction,ComponentPad*%
%ADD38C,2.962000*%
%TD*%
%TA.AperFunction,ComponentPad*%
%ADD39C,2.800000*%
%TD*%
%TA.AperFunction,ComponentPad*%
%ADD40R,1.400000X1.400000*%
%TD*%
%TA.AperFunction,ComponentPad*%
%ADD41C,1.400000*%
%TD*%
%TA.AperFunction,ComponentPad*%
%ADD42RoundRect,0.170000X0.680000X0.680000X-0.680000X0.680000X-0.680000X-0.680000X0.680000X-0.680000X0*%
%TD*%
%TA.AperFunction,ComponentPad*%
%ADD43O,1.200000X1.800000*%
%TD*%
%TA.AperFunction,ViaPad*%
%ADD44C,0.450000*%
%TD*%
%TA.AperFunction,ViaPad*%
%ADD45C,0.600000*%
%TD*%
%TA.AperFunction,ViaPad*%
%ADD46C,0.500000*%
%TD*%
%TA.AperFunction,Conductor*%
%ADD47C,0.152400*%
%TD*%
%TA.AperFunction,Conductor*%
%ADD48C,0.254000*%
%TD*%
%TA.AperFunction,Conductor*%
%ADD49C,0.609600*%
%TD*%
%TA.AperFunction,Conductor*%
%ADD50C,0.203200*%
%TD*%
%TA.AperFunction,Conductor*%
%ADD51C,0.812800*%
%TD*%
%TA.AperFunction,Conductor*%
%ADD52C,0.177800*%
%TD*%
%TA.AperFunction,Conductor*%
%ADD53C,1.016000*%
%TD*%
G04 APERTURE END LIST*
D10*
%TO.P,X4,1,IN+*%
%TO.N,Net-(X4-IN+-Pad1)*%
X433500000Y-158510000D03*
%TO.P,X4,2,IN+*%
X436040000Y-158510000D03*
%TO.P,X4,3,IN+*%
X433500000Y-155970000D03*
%TO.P,X4,4,IN+*%
X436040000Y-155970000D03*
%TO.P,X4,5,IN+*%
X433500000Y-153430000D03*
%TO.P,X4,6,OUT+*%
X436040000Y-153430000D03*
%TO.P,X4,7,OUT+*%
X433500000Y-150890000D03*
%TO.P,X4,8,OUT+*%
X436040000Y-150890000D03*
%TO.P,X4,9,OUT+*%
X433500000Y-148350000D03*
%TO.P,X4,10,OUT+*%
X436040000Y-148350000D03*
%TO.P,X4,11,OUT-*%
%TO.N,Net-(X4-IN--Pad15)*%
X433500000Y-145810000D03*
%TO.P,X4,12,OUT-*%
X436040000Y-145810000D03*
%TO.P,X4,13,OUT-*%
X433500000Y-143270000D03*
%TO.P,X4,14,OUT-*%
X436040000Y-143270000D03*
%TO.P,X4,15,IN-*%
X433500000Y-140730000D03*
%TO.P,X4,16,IN-*%
X436040000Y-140730000D03*
%TO.P,X4,17,IN-*%
X433500000Y-138190000D03*
%TO.P,X4,18,IN-*%
X436040000Y-138190000D03*
%TO.P,X4,19,SENSE-*%
%TO.N,unconnected-(X4-SENSE--Pad19)*%
X433500000Y-135650000D03*
%TO.P,X4,20,SENSE+*%
%TO.N,unconnected-(X4-SENSE+-Pad20)*%
X436040000Y-135650000D03*
%TD*%
D11*
%TO.P,JP16,1,1*%
%TO.N,Net-(IC14-OUT6_LS)*%
X425010000Y-158140000D03*
D12*
%TO.P,JP16,2,2*%
%TO.N,+12V*%
X425010000Y-160680000D03*
%TD*%
D13*
%TO.P,X9,B1,GND_B*%
%TO.N,GND*%
X366800000Y-172010000D03*
%TO.P,X9,B2,SSTXP2*%
%TO.N,/USB-C socket\u002C Mux\u002C CC/USBC_TX2+*%
X366400000Y-172710000D03*
%TO.P,X9,B3,SSTXN2*%
%TO.N,/USB-C socket\u002C Mux\u002C CC/USBC_TX2-*%
X365600000Y-172710000D03*
%TO.P,X9,B4,VBUS_B*%
%TO.N,/USB-C socket\u002C Mux\u002C CC/USBC_VBUS*%
X365200000Y-172010000D03*
%TO.P,X9,B5,CC2*%
%TO.N,/USB-C socket\u002C Mux\u002C CC/CC2*%
X364800000Y-172710000D03*
%TO.P,X9,B6,DP2*%
%TO.N,USBC_D+*%
X364400000Y-172010000D03*
%TO.P,X9,B7,DN2*%
%TO.N,USBC_D-*%
X363600000Y-172010000D03*
%TO.P,X9,B8,SBU2*%
%TO.N,unconnected-(X9-SBU2-PadB8)*%
X363200000Y-172710000D03*
%TO.P,X9,B9,VBUS_B*%
%TO.N,/USB-C socket\u002C Mux\u002C CC/USBC_VBUS*%
X362800000Y-172010000D03*
%TO.P,X9,B10,SSRXN1*%
%TO.N,/USB-C socket\u002C Mux\u002C CC/USBC_RX1-*%
X362400000Y-172710000D03*
%TO.P,X9,B11,SSRXP1*%
%TO.N,/USB-C socket\u002C Mux\u002C CC/USBC_RX1+*%
X361600000Y-172710000D03*
%TO.P,X9,B12,GND_B*%
%TO.N,GND*%
X361200000Y-172010000D03*
D14*
%TO.P,X9,SH,SH*%
%TO.N,PE*%
X359510000Y-177000000D03*
X359870000Y-172600000D03*
X368130000Y-172600000D03*
X368490000Y-177000000D03*
%TD*%
D15*
%TO.P,TP5,1,P$1*%
%TO.N,/System MCU\u002C Watchdog\u002C EEPROM/~{SYSMCU_RESET}*%
X403060000Y-116720000D03*
%TD*%
%TO.P,TP2,1,P$1*%
%TO.N,~{DIB5_CSA}*%
X381120000Y-107730000D03*
%TD*%
D16*
%TO.P,X10,1,GND*%
%TO.N,GND*%
X315578800Y-98745000D03*
D17*
%TO.P,X10,2,TRD1+*%
%TO.N,/Ext video\u002C Ethernet\u002C Rear USB\u002C TFT/TRD1+*%
X315578800Y-96715000D03*
%TO.P,X10,3,TRD1-*%
%TO.N,/Ext video\u002C Ethernet\u002C Rear USB\u002C TFT/TRD1-*%
X315578800Y-94685000D03*
%TO.P,X10,4,TRD2+*%
%TO.N,/Ext video\u002C Ethernet\u002C Rear USB\u002C TFT/TRD2+*%
X315578800Y-92655000D03*
%TO.P,X10,5,TRD2-*%
%TO.N,/Ext video\u002C Ethernet\u002C Rear USB\u002C TFT/TRD2-*%
X315578800Y-90625000D03*
%TO.P,X10,6,COMMON_CT*%
%TO.N,Net-(X10A-COMMON_CT)*%
X315578800Y-88595000D03*
%TO.P,X10,7,TRD3+*%
%TO.N,/Ext video\u002C Ethernet\u002C Rear USB\u002C TFT/TRD3+*%
X312018800Y-97735000D03*
%TO.P,X10,8,TRD3-*%
%TO.N,/Ext video\u002C Ethernet\u002C Rear USB\u002C TFT/TRD3-*%
X312018800Y-95700000D03*
%TO.P,X10,9,TRD4+*%
%TO.N,/Ext video\u002C Ethernet\u002C Rear USB\u002C TFT/TRD4+*%
X312018800Y-91640000D03*
%TO.P,X10,10,TRD4-*%
%TO.N,/Ext video\u002C Ethernet\u002C Rear USB\u002C TFT/TRD4-*%
X312018800Y-89605000D03*
D18*
%TO.P,X10,11*%
%TO.N,Net-(R69-Pad1)*%
X318018800Y-100895000D03*
%TO.P,X10,12*%
%TO.N,+3V3*%
X318018800Y-98355000D03*
%TO.P,X10,13*%
%TO.N,Net-(R67-Pad1)*%
X318018800Y-91510000D03*
%TO.P,X10,14*%
%TO.N,+3V3*%
X318018800Y-88985000D03*
%TO.P,X10,15*%
%TO.N,unconnected-(X10-Pad15)*%
X318018800Y-86445000D03*
D19*
%TO.P,X10,B1,VCC*%
%TO.N,Net-(IC18-OUTB)*%
X306438800Y-90165000D03*
D18*
%TO.P,X10,B2,D-*%
%TO.N,REAR_USB_BTM_D-*%
X306438800Y-92665000D03*
%TO.P,X10,B3,D+*%
%TO.N,REAR_USB_BTM_D+*%
X306438800Y-94675000D03*
%TO.P,X10,B4,GND*%
%TO.N,GND*%
X306438800Y-97175000D03*
D20*
%TO.P,X10,SH,SHIELD*%
%TO.N,PE*%
X301228800Y-85605000D03*
X312018800Y-85615000D03*
D21*
X309428800Y-87105000D03*
X303738800Y-87105000D03*
X309428800Y-100235000D03*
X303738800Y-100235000D03*
D20*
X311948800Y-101725000D03*
X301228800Y-101735000D03*
D19*
%TO.P,X10,T1,VCC*%
%TO.N,Net-(IC18-OUTA)*%
X309058800Y-90165000D03*
D18*
%TO.P,X10,T2,D-*%
%TO.N,REAR_USB_TOP_D-*%
X309058800Y-92665000D03*
%TO.P,X10,T3,D+*%
%TO.N,REAR_USB_TOP_D+*%
X309058800Y-94675000D03*
%TO.P,X10,T4,GND*%
%TO.N,GND*%
X309058800Y-97175000D03*
%TD*%
D22*
%TO.P,H4,1,1*%
%TO.N,unconnected-(H4-Pad1)_7*%
X430800000Y-79000000D03*
X431500000Y-77500000D03*
X431500000Y-80500000D03*
X433000000Y-76800000D03*
D23*
X433000000Y-79000000D03*
D22*
X433000000Y-81200000D03*
X434500000Y-77500000D03*
X434500000Y-80500000D03*
X435200000Y-79000000D03*
%TD*%
D24*
%TO.P,SP1,+B,+B*%
%TO.N,+12V*%
X404200000Y-173000000D03*
D25*
%TO.P,SP1,-B,-B*%
%TO.N,Net-(Q4-D)*%
X409200000Y-173000000D03*
%TD*%
D15*
%TO.P,TP14,1,P$1*%
%TO.N,USBC_ID*%
X380780000Y-156390000D03*
%TD*%
D26*
%TO.P,JP12,1,1*%
%TO.N,Net-(IC13-IN)*%
X375560000Y-174840000D03*
D27*
%TO.P,JP12,2,2*%
%TO.N,+5V*%
X378100000Y-174840000D03*
%TO.P,JP12,3,3*%
%TO.N,Net-(IC10-IN-Pad1)*%
X380640000Y-174840000D03*
%TD*%
D28*
%TO.P,X1,1,Pin_1*%
%TO.N,+12V*%
X297860000Y-131539308D03*
D29*
%TO.P,X1,2,Pin_2*%
%TO.N,Net-(X1-Pin_2)*%
X297860000Y-134079308D03*
%TO.P,X1,3,Pin_3*%
%TO.N,GND*%
X297860000Y-136619308D03*
%TD*%
D30*
%TO.P,JP5,1,1*%
%TO.N,/System MCU\u002C Watchdog\u002C EEPROM/SYSMCU_SWCLK*%
X392990000Y-110600000D03*
D12*
%TO.P,JP5,2,2*%
%TO.N,Net-(D5-PadC)*%
X390450000Y-110600000D03*
%TD*%
D31*
%TO.P,X5,A1,PE*%
%TO.N,PE*%
X430165000Y-118500000D03*
D32*
%TO.P,X5,A2,+12V*%
%TO.N,+12V*%
X428165000Y-117500000D03*
%TO.P,X5,A3,+12V*%
X430165000Y-116500000D03*
%TO.P,X5,A4,GND*%
%TO.N,GND*%
X428165000Y-115500000D03*
%TO.P,X5,A5,+5V*%
%TO.N,+5V*%
X430165000Y-114500000D03*
%TO.P,X5,A6,+5V*%
X428165000Y-113500000D03*
%TO.P,X5,A7,GND*%
%TO.N,GND*%
X430165000Y-112500000D03*
%TO.P,X5,A8,~{SHUTDOWN}*%
%TO.N,unconnected-(X5-~{SHUTDOWN}-PadA8)*%
X428165000Y-111500000D03*
%TO.P,X5,A9,~{SMBUS_ALERT}*%
%TO.N,~{SMBUS_ALERT}*%
X430165000Y-110500000D03*
%TO.P,X5,A10,SCL/SMBCLK*%
%TO.N,DIB_SCL*%
X428165000Y-109500000D03*
%TO.P,X5,A11,GND*%
%TO.N,GND*%
X430165000Y-108500000D03*
%TO.P,X5,A12,GND*%
X428165000Y-105500000D03*
%TO.P,X5,A13,QSPI_CLK*%
%TO.N,unconnected-(X5-QSPI_CLK-PadA13)*%
X430165000Y-104500000D03*
%TO.P,X5,A14,QSPI_IO0*%
%TO.N,unconnected-(X5-QSPI_IO0-PadA14)*%
X428165000Y-103500000D03*
%TO.P,X5,A15,QSPI_IO1*%
%TO.N,unconnected-(X5-QSPI_IO1-PadA15)*%
X430165000Y-102500000D03*
%TO.P,X5,A16,QSPI_IO2*%
%TO.N,unconnected-(X5-QSPI_IO2-PadA16)*%
X428165000Y-101500000D03*
%TO.P,X5,A17,QSPI_IO3*%
%TO.N,unconnected-(X5-QSPI_IO3-PadA17)*%
X430165000Y-100500000D03*
%TO.P,X5,A18,QSPI_NCS*%
%TO.N,unconnected-(X5-QSPI_NCS-PadA18)*%
X428165000Y-99500000D03*
%TO.P,X5,A19,RSVD1*%
%TO.N,unconnected-(X5-RSVD1-PadA19)*%
X430165000Y-98500000D03*
%TO.P,X5,A20,RSVD2*%
%TO.N,unconnected-(X5-RSVD2-PadA20)*%
X428165000Y-97500000D03*
%TO.P,X5,A21,SCLK*%
%TO.N,DIB1{slash}DIB3_SCLK*%
X430165000Y-96500000D03*
%TO.P,X5,A22,MOSI*%
%TO.N,DIB1{slash}DIB3_MOSI*%
X428165000Y-95500000D03*
%TO.P,X5,A23,MISO*%
%TO.N,DIB1{slash}DIB3_MISO*%
X430165000Y-94500000D03*
%TO.P,X5,A24,~{IRQ}*%
%TO.N,~{DIB1_IRQ}*%
X428165000Y-93500000D03*
%TO.P,X5,A25,~{CSA}*%
%TO.N,~{DIB1_CSA}*%
X430165000Y-92500000D03*
%TO.P,X5,A26,~{CSB}*%
%TO.N,~{DIB1_CSB}*%
X428165000Y-91500000D03*
%TO.P,X5,A27,HSD+*%
%TO.N,DIB1_USB_D+*%
X430165000Y-90500000D03*
%TO.P,X5,A28,HSD-*%
%TO.N,DIB1_USB_D-*%
X428165000Y-89500000D03*
%TO.P,X5,A29,SSTX+*%
%TO.N,DIB1_USB_TX+*%
X430165000Y-88500000D03*
%TO.P,X5,A30,SSTX-*%
%TO.N,DIB1_USB_TX-*%
X428165000Y-87500000D03*
%TO.P,X5,A31,SSRX+*%
%TO.N,DIB1_USB_RX+*%
X430165000Y-86500000D03*
%TO.P,X5,A32,SSRX-*%
%TO.N,DIB1_USB_RX-*%
X428165000Y-85500000D03*
%TO.P,X5,B1,+12V*%
%TO.N,+12V*%
X432665000Y-118500000D03*
%TO.P,X5,B2,+12V*%
X434665000Y-117500000D03*
%TO.P,X5,B3,GND*%
%TO.N,GND*%
X432665000Y-116500000D03*
%TO.P,X5,B4,+3V3*%
%TO.N,+3V3*%
X434665000Y-115500000D03*
%TO.P,X5,B5,+3V3*%
X432665000Y-114500000D03*
%TO.P,X5,B6,+VAUX*%
%TO.N,unconnected-(X5-+VAUX-PadB6)*%
X434665000Y-113500000D03*
%TO.P,X5,B7,GND*%
%TO.N,GND*%
X432665000Y-112500000D03*
%TO.P,X5,B8,~{RESET}*%
%TO.N,~{DIB1_RESET}*%
X434665000Y-111500000D03*
%TO.P,X5,B9,~{FAULT}*%
%TO.N,~{DIB_FAULT}*%
X432665000Y-110500000D03*
%TO.P,X5,B10,SDA/SMBDAT*%
%TO.N,DIB_SDA*%
X434665000Y-109500000D03*
%TO.P,X5,B11,GND*%
%TO.N,GND*%
X432665000Y-108500000D03*
%TO.P,X5,B12,GND*%
X434665000Y-105500000D03*
%TO.P,X5,B13,OE_SNYC*%
%TO.N,DIB_OE_SYNC*%
X432665000Y-104500000D03*
%TO.P,X5,B14,AC_FREQ*%
%TO.N,AC_FREQ*%
X434665000Y-103500000D03*
%TO.P,X5,B15,A0*%
%TO.N,+3V3*%
X432665000Y-102500000D03*
%TO.P,X5,B16,A1*%
%TO.N,GND*%
X434665000Y-101500000D03*
%TO.P,X5,B17,A2*%
X432665000Y-100500000D03*
%TO.P,X5,B18,UART_RX*%
%TO.N,UART_RX{slash}DIN1*%
X434665000Y-99500000D03*
%TO.P,X5,B19,UART_TX*%
%TO.N,UART_TX{slash}DOUT1*%
X432665000Y-98500000D03*
%TO.P,X5,B20,BOOT*%
%TO.N,DIB1_BOOT0*%
X434665000Y-97500000D03*
%TO.P,X5,B21,GND*%
%TO.N,GND*%
X432665000Y-96500000D03*
%TO.P,X5,B22,PCIe_CLK-*%
%TO.N,unconnected-(X5-PCIe_CLK--PadB22)*%
X434665000Y-95500000D03*
%TO.P,X5,B23,PCIe_CLK+*%
%TO.N,unconnected-(X5-PCIe_CLK+-PadB23)*%
X432665000Y-94500000D03*
%TO.P,X5,B24,GND*%
%TO.N,GND*%
X434665000Y-93500000D03*
%TO.P,X5,B25,PCIe_RX-*%
%TO.N,unconnected-(X5-PCIe_RX--PadB25)*%
X432665000Y-92500000D03*
%TO.P,X5,B26,PCIe_RX+*%
%TO.N,unconnected-(X5-PCIe_RX+-PadB26)*%
X434665000Y-91500000D03*
%TO.P,X5,B27,PCIe_TX-*%
%TO.N,unconnected-(X5-PCIe_TX--PadB27)*%
X432665000Y-90500000D03*
%TO.P,X5,B28,PCIe_TX+*%
%TO.N,unconnected-(X5-PCIe_TX+-PadB28)*%
X434665000Y-89500000D03*
%TO.P,X5,B29,~{PCIe_CLKREQ}*%
%TO.N,unconnected-(X5-~{PCIe_CLKREQ}-PadB29)*%
X432665000Y-88500000D03*
%TO.P,X5,B30,~{PCIe_WAKE}*%
%TO.N,unconnected-(X5-~{PCIe_WAKE}-PadB30)*%
X434665000Y-87500000D03*
%TO.P,X5,B31,GND*%
%TO.N,GND*%
X432665000Y-86500000D03*
%TO.P,X5,B32,ETH_SYNC*%
%TO.N,ETH_SYNC*%
X434665000Y-85500000D03*
%TD*%
D15*
%TO.P,TP1,1,P$1*%
%TO.N,~{DIB4_CSA}*%
X381120000Y-105623333D03*
%TD*%
D33*
%TO.P,X7,1,Pin_1*%
%TO.N,unconnected-(X7-Pin_1-Pad1)*%
X423120000Y-83020000D03*
%TO.P,X7,2,Pin_2*%
%TO.N,/System MCU\u002C Watchdog\u002C EEPROM/SYSMCU_SWCLK*%
X420580000Y-83020000D03*
%TO.P,X7,3,Pin_3*%
%TO.N,GND*%
X418040000Y-83020000D03*
%TO.P,X7,4,Pin_4*%
%TO.N,/System MCU\u002C Watchdog\u002C EEPROM/SYSMCU_SWDIO*%
X415500000Y-83020000D03*
%TO.P,X7,5,Pin_5*%
%TO.N,/System MCU\u002C Watchdog\u002C EEPROM/~{SYSMCU_RESET}*%
X412960000Y-83020000D03*
%TO.P,X7,6,Pin_6*%
%TO.N,unconnected-(X7-Pin_6-Pad6)*%
X410420000Y-83020000D03*
%TD*%
D34*
%TO.P,X8,1,Pin_1*%
%TO.N,GND*%
X324058486Y-173814835D03*
D35*
%TO.P,X8,2,Pin_2*%
%TO.N,/USB-C socket\u002C Mux\u002C CC/FAN_OUT+*%
X321518486Y-173814835D03*
%TO.P,X8,3,Pin_3*%
%TO.N,/USB-C socket\u002C Mux\u002C CC/FAN_SENSE1*%
X318978486Y-173814835D03*
%TO.P,X8,4,Pin_4*%
%TO.N,/USB-C socket\u002C Mux\u002C CC/PWM_OUT*%
X316438486Y-173814835D03*
%TD*%
D28*
%TO.P,X2,1,Pin_1*%
%TO.N,GND*%
X314050000Y-130420087D03*
D29*
%TO.P,X2,2,Pin_2*%
%TO.N,+5V*%
X314050000Y-132960087D03*
%TD*%
D26*
%TO.P,JP3,1,1*%
%TO.N,+3V3*%
X322470000Y-128790000D03*
D27*
%TO.P,JP3,2,2*%
%TO.N,CM5_BOOT0*%
X325010000Y-128790000D03*
%TO.P,JP3,3,3*%
%TO.N,GND*%
X327550000Y-128790000D03*
%TD*%
D26*
%TO.P,JP2,1,1*%
%TO.N,GND*%
X322380000Y-141030000D03*
D12*
%TO.P,JP2,2,2*%
%TO.N,POWER_SW*%
X324920000Y-141030000D03*
%TD*%
D15*
%TO.P,TP17,1,P$1*%
%TO.N,/Ext video\u002C Ethernet\u002C Rear USB\u002C TFT/DVID_5V*%
X398550000Y-82570000D03*
%TD*%
%TO.P,TP15,1,P$1*%
%TO.N,/USB-C socket\u002C Mux\u002C CC/USBC_SEL*%
X365170000Y-155230000D03*
%TD*%
D30*
%TO.P,JP6,1,1*%
%TO.N,/System MCU\u002C Watchdog\u002C EEPROM/~{SYSMCU_RESET_OUT}*%
X392990000Y-96720000D03*
D12*
%TO.P,JP6,2,2*%
%TO.N,Net-(D6-PadC)*%
X390450000Y-96720000D03*
%TD*%
D36*
%TO.P,SW2,A,A*%
%TO.N,Net-(R31-Pad2)*%
X387000000Y-170900000D03*
%TO.P,SW2,B,B*%
%TO.N,Net-(R32-Pad2)*%
X392000000Y-170900000D03*
%TO.P,SW2,C,C*%
%TO.N,GND*%
X397000000Y-170900000D03*
D37*
%TO.P,SW2,S1,S1*%
%TO.N,ENC_SW*%
X389500000Y-168300000D03*
%TO.P,SW2,S2,S2*%
%TO.N,GND*%
X394500000Y-168300000D03*
D38*
%TO.P,SW2,SH,SH*%
X400000000Y-167800000D03*
X384000000Y-167800000D03*
%TD*%
D15*
%TO.P,TP18,1,P$1*%
%TO.N,TFT_BRIGHTNESS*%
X392740000Y-118390000D03*
%TD*%
%TO.P,TP7,1,P$1*%
%TO.N,+1V2*%
X400640000Y-141780000D03*
%TD*%
D22*
%TO.P,H1,1,1*%
%TO.N,unconnected-(H1-Pad1)_2*%
X427800000Y-166700000D03*
X428500000Y-165200000D03*
X428500000Y-168200000D03*
X430000000Y-164500000D03*
D23*
X430000000Y-166700000D03*
D22*
X430000000Y-168900000D03*
X431500000Y-165200000D03*
X431500000Y-168200000D03*
X432200000Y-166700000D03*
%TD*%
D15*
%TO.P,TP13,1,P$1*%
%TO.N,~{USBC_OC}*%
X375410000Y-151860000D03*
%TD*%
D39*
%TO.P,X3,1,Pin_1*%
%TO.N,PE*%
X417500000Y-175500000D03*
X417500000Y-160200000D03*
%TD*%
D15*
%TO.P,TP16,1,P$1*%
%TO.N,REAR_DVID_HPD*%
X398550000Y-85000000D03*
%TD*%
%TO.P,TP10,1,P$1*%
%TO.N,FLEX_CMD*%
X425530000Y-128464000D03*
%TD*%
%TO.P,TP12,1,P$1*%
%TO.N,~{USBC_EN}*%
X376120000Y-157990000D03*
%TD*%
D40*
%TO.P,SW1,1,1*%
%TO.N,unconnected-(SW1-Pad1)*%
X307500000Y-160700000D03*
D41*
%TO.P,SW1,2,2*%
%TO.N,GND*%
X307500000Y-158200000D03*
%TO.P,SW1,3,3*%
%TO.N,POWER_SW*%
X307500000Y-155700000D03*
%TO.P,SW1,4,4*%
%TO.N,unconnected-(SW1-Pad4)*%
X304500000Y-160700000D03*
%TO.P,SW1,5,5*%
%TO.N,GND*%
X304500000Y-158200000D03*
%TO.P,SW1,6,6*%
%TO.N,POWER_SW*%
X304500000Y-155700000D03*
%TO.P,SW1,A,A*%
%TO.N,+5V*%
X304730000Y-164400000D03*
%TO.P,SW1,C,C*%
%TO.N,Net-(R2-Pad2)*%
X307270000Y-164400000D03*
%TD*%
D15*
%TO.P,TP9,1,P$1*%
%TO.N,USB_SUSPEND*%
X403910000Y-120640000D03*
%TD*%
%TO.P,TP11,1,P$1*%
%TO.N,FLEX_STATE*%
X425530000Y-126100000D03*
%TD*%
%TO.P,TP6,1,P$1*%
%TO.N,+3V3*%
X360371459Y-158652180D03*
%TD*%
D22*
%TO.P,H3,1,1*%
%TO.N,unconnected-(H3-Pad1)_4*%
X294800000Y-166650000D03*
X295500000Y-165150000D03*
X295500000Y-168150000D03*
X297000000Y-164450000D03*
D23*
X297000000Y-166650000D03*
D22*
X297000000Y-168850000D03*
X298500000Y-165150000D03*
X298500000Y-168150000D03*
X299200000Y-166650000D03*
%TD*%
D26*
%TO.P,JP1,1,1*%
%TO.N,Net-(JP1-Pad1)*%
X322380000Y-138200000D03*
D12*
%TO.P,JP1,2,2*%
%TO.N,SOFT_PWR*%
X324920000Y-138200000D03*
%TD*%
D22*
%TO.P,H2,1,1*%
%TO.N,unconnected-(H2-Pad1)_6*%
X294800000Y-79000000D03*
X295500000Y-77500000D03*
X295500000Y-80500000D03*
X297000000Y-76800000D03*
D23*
X297000000Y-79000000D03*
D22*
X297000000Y-81200000D03*
X298500000Y-77500000D03*
X298500000Y-80500000D03*
X299200000Y-79000000D03*
%TD*%
D15*
%TO.P,TP3,1,P$1*%
%TO.N,~{DIB2_CSA}*%
X381120000Y-98640000D03*
%TD*%
D42*
%TO.P,JP7,1,1*%
%TO.N,GND*%
X422210000Y-120460000D03*
D12*
%TO.P,JP7,2,2*%
%TO.N,~{RESET_OUT}*%
X422210000Y-117920000D03*
%TD*%
D15*
%TO.P,TP8,1,P$1*%
%TO.N,USBC_ATTACH*%
X403910000Y-122560000D03*
%TD*%
%TO.P,TP4,1,P$1*%
%TO.N,~{DIB3_CSA}*%
X381120000Y-101620000D03*
%TD*%
D43*
%TO.P,X11,SH,SH*%
%TO.N,PE*%
X396000000Y-78270000D03*
X395400000Y-83170000D03*
X380900000Y-83170000D03*
X380300000Y-78270000D03*
%TD*%
D44*
%TO.N,GND*%
X335627800Y-78375500D03*
D45*
X413025000Y-134801500D03*
D44*
X402390000Y-139610000D03*
D45*
X323650000Y-169300000D03*
X393740332Y-150075600D03*
D44*
X344783729Y-120285589D03*
D45*
X347452300Y-165840000D03*
X391200332Y-148678600D03*
D46*
X386610000Y-163810000D03*
D44*
X411390000Y-144280000D03*
D45*
X316100000Y-167200000D03*
X408720000Y-132530000D03*
X396280332Y-150075600D03*
X412390000Y-136198500D03*
D44*
X384750000Y-123260000D03*
D45*
X348912100Y-166347100D03*
D44*
X407010000Y-110580000D03*
D45*
X411755000Y-136198500D03*
D44*
X377450000Y-107150000D03*
D45*
X391835332Y-148678600D03*
D44*
X414315007Y-97422604D03*
D45*
X408720000Y-131831500D03*
D44*
X366670000Y-142790000D03*
D45*
X350182100Y-166347100D03*
X390565332Y-150075600D03*
D44*
X372070000Y-104360000D03*
D45*
X327063334Y-169300000D03*
D44*
X403020000Y-130800000D03*
D45*
X408741500Y-137910000D03*
X317160000Y-154520000D03*
D46*
X372980000Y-80180000D03*
D44*
X405680000Y-108130000D03*
D45*
X312752529Y-166560448D03*
X325356667Y-169300000D03*
D44*
X341730000Y-123760000D03*
X375590000Y-117900000D03*
X362870000Y-143960000D03*
X369670000Y-142790000D03*
D45*
X411755000Y-134801500D03*
X395645332Y-149377100D03*
X416040000Y-139158500D03*
X349547100Y-166347100D03*
D44*
X402915001Y-142384999D03*
X375470000Y-122750000D03*
X417877000Y-144920000D03*
X373330000Y-156955000D03*
X422430000Y-141840000D03*
X377450000Y-116750001D03*
D46*
X430290000Y-152370000D03*
D44*
X377090000Y-166430000D03*
D45*
X322796508Y-170077184D03*
X351452100Y-167045600D03*
X312790000Y-157900000D03*
D44*
X386250000Y-123260000D03*
X371380000Y-172050000D03*
D46*
X374319350Y-78297824D03*
D44*
X421840000Y-102890000D03*
D46*
X407610000Y-163690000D03*
X392976971Y-90977410D03*
D45*
X395645332Y-148678600D03*
X392470332Y-149377100D03*
D44*
X402950000Y-143690000D03*
D45*
X390565332Y-148678600D03*
D46*
X425810000Y-152370000D03*
X331070000Y-120180000D03*
D45*
X355897100Y-165648600D03*
D44*
X363320000Y-166380000D03*
X377460000Y-120350000D03*
D45*
X416028500Y-131860000D03*
D44*
X344788799Y-109848800D03*
D45*
X348912100Y-167045600D03*
D44*
X343510000Y-118750000D03*
D45*
X323840000Y-157680000D03*
D46*
X391390000Y-85250000D03*
D45*
X349547100Y-167045600D03*
X415405000Y-139158500D03*
X395645332Y-150075600D03*
D44*
X408880000Y-145460000D03*
X403060000Y-132070000D03*
X416344197Y-140533898D03*
X317070147Y-84050443D03*
D45*
X327916508Y-170077184D03*
D44*
X377401097Y-108298903D03*
X374110000Y-116700000D03*
D45*
X350182100Y-165648600D03*
D46*
X406040000Y-165880000D03*
D44*
X341590000Y-117550000D03*
X343520000Y-111950000D03*
D45*
X387847532Y-149186600D03*
X353992100Y-165648600D03*
X316100000Y-169000000D03*
D44*
X407730000Y-125530000D03*
X370210000Y-168710000D03*
X375624199Y-109615117D03*
D45*
X394375332Y-149377100D03*
D44*
X403550000Y-111210000D03*
X377460000Y-117950000D03*
D45*
X348912100Y-165648600D03*
X351452100Y-165648600D03*
D44*
X373330000Y-158145000D03*
X422610000Y-132450000D03*
D45*
X416028500Y-132495000D03*
X414631500Y-131860000D03*
D44*
X384640000Y-88940000D03*
X340540000Y-105720000D03*
X387630000Y-88940000D03*
D45*
X389295332Y-148678600D03*
X303315000Y-138330000D03*
X411755000Y-135500000D03*
D46*
X428550000Y-152370000D03*
D44*
X409190000Y-122550000D03*
D46*
X394033480Y-164136660D03*
D44*
X377970000Y-145570000D03*
X368160000Y-142790000D03*
D45*
X393740332Y-148678600D03*
X302620000Y-138330000D03*
D44*
X374130000Y-119080000D03*
D46*
X387590000Y-86070000D03*
D44*
X343501021Y-115950000D03*
D45*
X355897100Y-166347100D03*
D44*
X377460000Y-122750000D03*
D45*
X389930332Y-149377100D03*
X353357100Y-165648600D03*
D44*
X417565000Y-143271855D03*
D45*
X412390000Y-134801500D03*
D44*
X343510000Y-117550000D03*
D45*
X316420000Y-141640000D03*
X319518998Y-154267617D03*
X324503334Y-169300000D03*
D44*
X392250000Y-123260000D03*
D45*
X355262100Y-165648600D03*
X355262100Y-166347100D03*
D44*
X340245986Y-112181905D03*
D45*
X393740332Y-149377100D03*
D44*
X380290000Y-170960000D03*
X361080000Y-155980000D03*
X397510000Y-126020000D03*
D45*
X408720000Y-133228500D03*
D46*
X422790000Y-148330000D03*
D44*
X323450000Y-94980000D03*
D45*
X304010000Y-138330000D03*
D44*
X373330000Y-157550000D03*
D45*
X416040000Y-137761500D03*
D44*
X341687694Y-114254858D03*
X340420000Y-119950000D03*
X370763072Y-159065796D03*
D45*
X353357100Y-166347100D03*
X395010332Y-150075600D03*
D46*
X385400000Y-85250000D03*
D45*
X350182100Y-167045600D03*
X394375332Y-148678600D03*
D46*
X393310000Y-86010000D03*
D45*
X413025000Y-135500000D03*
D44*
X413400000Y-92240000D03*
D46*
X429420000Y-152370000D03*
D44*
X416540000Y-125560000D03*
D46*
X390960000Y-87090000D03*
D44*
X375470000Y-121550000D03*
D45*
X416028500Y-133130000D03*
X408741500Y-138545000D03*
X392470332Y-150075600D03*
D44*
X412120000Y-125520000D03*
X344675806Y-105880000D03*
X412765007Y-98062604D03*
X374160000Y-142790000D03*
D45*
X354627100Y-165648600D03*
D46*
X424940000Y-152370000D03*
D44*
X409378876Y-108150600D03*
D45*
X409440000Y-139180000D03*
X381495532Y-148449500D03*
D44*
X409910000Y-125720000D03*
D45*
X392470332Y-148678600D03*
X395010332Y-149377100D03*
D44*
X375470000Y-125150000D03*
D46*
X384740000Y-86060000D03*
D44*
X344669999Y-108349999D03*
X406045000Y-105220000D03*
X324290000Y-84310000D03*
D45*
X409355000Y-131831500D03*
D44*
X366510000Y-159150002D03*
D45*
X307542863Y-130116805D03*
D44*
X340330000Y-110440000D03*
D45*
X329309792Y-157771369D03*
X328618800Y-80215000D03*
X391835332Y-149377100D03*
D44*
X401520000Y-137070000D03*
D45*
X395010332Y-148678600D03*
X389930332Y-148678600D03*
D44*
X343460000Y-125140000D03*
D45*
X354627100Y-166347100D03*
D44*
X406090000Y-145470000D03*
X393740000Y-123260000D03*
X377452066Y-113157600D03*
D45*
X393105332Y-148678600D03*
D44*
X377450000Y-109540000D03*
D45*
X389295332Y-150075600D03*
X389930332Y-150075600D03*
X390565332Y-149377100D03*
D44*
X422310000Y-130670000D03*
D45*
X394375332Y-150075600D03*
X350817100Y-167045600D03*
X355897100Y-167045600D03*
X350817100Y-165648600D03*
D46*
X383900000Y-85250000D03*
D44*
X341615853Y-108381585D03*
X377090000Y-165700000D03*
X375512441Y-123905201D03*
X389250000Y-123260000D03*
D45*
X352087100Y-167045600D03*
X409990000Y-131831500D03*
D44*
X405645598Y-106628800D03*
D46*
X392920000Y-89080000D03*
D44*
X375330000Y-177740000D03*
D45*
X325356508Y-170077184D03*
D44*
X371977918Y-163397937D03*
D45*
X329972500Y-86850000D03*
D46*
X370780000Y-161910000D03*
D45*
X327063175Y-170077184D03*
D44*
X344675806Y-107198039D03*
X423339000Y-113280000D03*
X372670000Y-142790000D03*
X411470000Y-92240000D03*
D45*
X318099413Y-160479999D03*
D44*
X406704286Y-102505524D03*
D45*
X324503175Y-170077184D03*
D44*
X414791200Y-144774868D03*
X365170000Y-142790000D03*
X423339000Y-113890000D03*
D45*
X353992100Y-166347100D03*
X389295332Y-149377100D03*
X352087100Y-166347100D03*
D44*
X375591887Y-108268800D03*
D45*
X355262100Y-167045600D03*
D46*
X338360000Y-113800000D03*
D44*
X377460000Y-119150000D03*
D46*
X388410000Y-85250000D03*
D45*
X393105332Y-150075600D03*
X351452100Y-166347100D03*
X341620000Y-165080000D03*
D44*
X422420000Y-137650000D03*
D45*
X353992100Y-167045600D03*
X323649841Y-170077184D03*
X327916667Y-169300000D03*
X319329413Y-160479999D03*
D44*
X344630000Y-113950000D03*
X407420000Y-145450000D03*
X377460000Y-125150000D03*
D45*
X410138500Y-139180000D03*
X415330000Y-131860000D03*
D46*
X426680000Y-152370000D03*
D45*
X322796667Y-169300000D03*
D46*
X426550000Y-146740000D03*
D45*
X413025000Y-136198500D03*
X352087100Y-165648600D03*
X391835332Y-150075600D03*
X396280332Y-149377100D03*
D44*
X381310000Y-125220000D03*
D45*
X416040000Y-138460000D03*
X353357100Y-167045600D03*
X316320000Y-157750000D03*
X352722100Y-166347100D03*
X396280332Y-148678600D03*
D44*
X377427254Y-111940355D03*
D46*
X391650000Y-162890000D03*
D44*
X377460000Y-121550000D03*
D45*
X391200332Y-150075600D03*
D44*
X387740000Y-123260000D03*
X422440000Y-134790000D03*
X375520000Y-110780000D03*
X375569034Y-111870535D03*
D45*
X352722100Y-165648600D03*
D44*
X375470000Y-120350000D03*
D45*
X350817100Y-166347100D03*
D44*
X407282650Y-91770001D03*
X341570000Y-107160000D03*
X418765766Y-97911990D03*
X373364281Y-168614281D03*
X377450000Y-110750000D03*
X406150000Y-111170000D03*
X377360000Y-123870000D03*
D45*
X328618800Y-79580000D03*
X326209841Y-170077184D03*
X326210000Y-169300000D03*
D44*
X375470000Y-113160000D03*
D45*
X354627100Y-167045600D03*
D44*
X337720000Y-117870000D03*
D45*
X393105332Y-149377100D03*
D44*
X353065000Y-175137400D03*
D45*
X352722100Y-167045600D03*
D44*
X375520000Y-107150000D03*
X377450000Y-115550000D03*
X380290000Y-169080000D03*
X367900000Y-158270000D03*
D45*
X391200332Y-149377100D03*
D46*
X386890000Y-85250000D03*
D45*
X330607500Y-86850000D03*
D44*
X425170000Y-117770000D03*
D45*
X349547100Y-165648600D03*
D44*
X368660000Y-156770000D03*
X371170000Y-142790000D03*
X341694584Y-116401228D03*
D45*
X412390000Y-135500000D03*
D44*
X323470000Y-91840000D03*
X422440000Y-140370000D03*
X333388800Y-82188600D03*
D45*
X408741500Y-139180000D03*
D44*
X365870000Y-159150002D03*
X364801927Y-166370938D03*
X367130000Y-159150002D03*
X335848800Y-86660000D03*
X401500000Y-135240000D03*
X403222650Y-97160001D03*
X340380000Y-118760000D03*
X390750000Y-123260000D03*
D46*
X391600500Y-101184800D03*
%TO.N,+5V*%
X389660000Y-88740000D03*
D45*
X338584000Y-147656281D03*
D44*
X388710000Y-135900000D03*
D46*
X386395532Y-150590600D03*
X386395532Y-150060900D03*
D45*
X337730000Y-146954380D03*
D44*
X322690572Y-82448272D03*
X413013802Y-147000000D03*
X376060000Y-142090000D03*
D46*
X309693660Y-136265149D03*
X308946573Y-134470000D03*
X386395532Y-151120300D03*
D44*
X412770000Y-149440000D03*
D46*
X335530000Y-83000000D03*
D44*
X375360000Y-165830000D03*
D45*
X337730000Y-146258760D03*
X338584000Y-146960661D03*
X338584000Y-146265041D03*
D46*
X386400332Y-151650000D03*
X392040000Y-91710000D03*
X389650000Y-91710000D03*
D45*
X337730000Y-147650000D03*
D44*
X375360000Y-166410000D03*
D46*
X308946573Y-135060000D03*
X336220000Y-83020000D03*
X372140000Y-83020000D03*
D44*
%TO.N,+3V3*%
X405580000Y-109040000D03*
X369210000Y-157840000D03*
X391230000Y-90590000D03*
D46*
X425980000Y-108123800D03*
X318550000Y-120200000D03*
D44*
X409190000Y-99580000D03*
X356692300Y-158106386D03*
X401990000Y-109620000D03*
X399820000Y-115320000D03*
X385490332Y-142969100D03*
X400680000Y-106550000D03*
X411500000Y-124720000D03*
D46*
X400890000Y-98000000D03*
X422780000Y-149880000D03*
D44*
X357384800Y-158106386D03*
X343360088Y-121331200D03*
D46*
X403260000Y-119130000D03*
X336820000Y-113780000D03*
D44*
X419572231Y-125685128D03*
X358077300Y-158106386D03*
D46*
X396030000Y-161670000D03*
D44*
X341776037Y-78937237D03*
D46*
X318570000Y-114510000D03*
D44*
X370780000Y-163490000D03*
X415040001Y-122656300D03*
D45*
X345170000Y-159780000D03*
D44*
X408892650Y-91770001D03*
X337308800Y-86660000D03*
D46*
X318570000Y-122960000D03*
D44*
X413280000Y-125110000D03*
X410670000Y-122550000D03*
X407860000Y-118510000D03*
X358769800Y-158106386D03*
X347440000Y-122490000D03*
X376910000Y-159360000D03*
X395010000Y-130690000D03*
X399820000Y-118420000D03*
D46*
X400900000Y-92240000D03*
D44*
X370760000Y-174400000D03*
D45*
X327326400Y-153493856D03*
D46*
X318560000Y-117410000D03*
D44*
X415540000Y-98950000D03*
X399820000Y-109010000D03*
X425170000Y-116230000D03*
X403500000Y-109610000D03*
X399820000Y-111480000D03*
X417660000Y-146340000D03*
X419572231Y-126260000D03*
X399820000Y-106540000D03*
X416988301Y-116995641D03*
X362510000Y-154620000D03*
D46*
X390170000Y-162780000D03*
X318570000Y-111680000D03*
D44*
X372490000Y-163010000D03*
D45*
X315760000Y-152970000D03*
D44*
X359462300Y-158106386D03*
D46*
X317180000Y-80690000D03*
D44*
X376570000Y-156530000D03*
D46*
X400890000Y-102120000D03*
%TO.N,/System MCU\u002C Watchdog\u002C EEPROM/~{SYSMCU_RESET}*%
X410618402Y-94403130D03*
D44*
X410660000Y-110640000D03*
D46*
%TO.N,POWER_SW*%
X413120000Y-100774802D03*
X363970000Y-100740000D03*
X394850000Y-100774802D03*
X310760000Y-141910000D03*
D44*
%TO.N,~{USBC_EN}*%
X413820000Y-157290000D03*
X379190000Y-158010000D03*
D46*
X420640000Y-112200000D03*
D44*
X419830000Y-155510000D03*
%TO.N,GBE_TXRX_A+*%
X343224638Y-108038500D03*
X325009750Y-94668500D03*
%TO.N,~{RESET_OUT}*%
X406920000Y-115370000D03*
X406272905Y-120050000D03*
X425549200Y-142810000D03*
X425478000Y-148259687D03*
%TO.N,CM5_BOOT0*%
X418020000Y-112180000D03*
D46*
X340258987Y-124272733D03*
D44*
X356230000Y-124851200D03*
X417520000Y-124020000D03*
%TO.N,~{GBE_LINK_ACT}*%
X323200000Y-100920000D03*
X325610000Y-100920000D03*
%TO.N,GBE_TXRX_A-*%
X343224638Y-107461500D03*
X325009750Y-94091500D03*
D46*
%TO.N,+12V*%
X427590000Y-148070000D03*
X404200000Y-165740000D03*
%TO.N,/System MCU\u002C Watchdog\u002C EEPROM/SYSMCU_SWCLK*%
X393030000Y-105780000D03*
D44*
X418150000Y-105290000D03*
D46*
X421800000Y-95430000D03*
%TO.N,REAR_VBUS_EN*%
X376180000Y-107090000D03*
X371120000Y-90210000D03*
D44*
%TO.N,TFT_DVID_SDA*%
X376080000Y-114770000D03*
X391750002Y-116580000D03*
%TO.N,/System MCU\u002C Watchdog\u002C EEPROM/~{SYSMCU_RESET_OUT}*%
X407050000Y-93860000D03*
X393010000Y-93360000D03*
%TO.N,~{SMBUS_ALERT}*%
X417340000Y-110570000D03*
%TO.N,Net-(Module1A-PWR_Button)*%
X414858900Y-119230000D03*
X361050000Y-120980000D03*
%TO.N,ETH_SYNC*%
X360610000Y-96870000D03*
X394239200Y-91850000D03*
%TO.N,+1V2*%
X398950000Y-142610000D03*
X403000000Y-135200000D03*
X397710000Y-142440000D03*
X399640000Y-142610000D03*
X420780000Y-134920000D03*
X403960000Y-139530000D03*
X411551751Y-142811383D03*
X414774289Y-143390777D03*
X397080000Y-142440000D03*
X404350000Y-132780000D03*
X420790000Y-141840000D03*
X420790000Y-137660000D03*
X420840000Y-130660000D03*
X415000000Y-127100000D03*
X404313854Y-131356146D03*
%TO.N,~{DIB_FAULT}*%
X417940000Y-110520000D03*
%TO.N,~{DIB1_CSB}*%
X409675000Y-92015000D03*
X409460000Y-105130000D03*
%TO.N,DIB1{slash}DIB3_MOSI*%
X342166138Y-116809406D03*
X350220000Y-116910000D03*
D46*
%TO.N,DIB1{slash}DIB3_MISO*%
X367136375Y-95474333D03*
%TO.N,~{DIB1_IRQ}*%
X366856145Y-96183800D03*
D44*
%TO.N,/System MCU\u002C Watchdog\u002C EEPROM/WDG_SET*%
X421340000Y-106950000D03*
X421930000Y-112320000D03*
%TO.N,~{TFT_IRQ}*%
X373669991Y-141427601D03*
X390670000Y-129540000D03*
X339760000Y-120370000D03*
X379220000Y-141301200D03*
D46*
%TO.N,REAR_DVID_HPD*%
X392550000Y-84950000D03*
X390730000Y-88740000D03*
D44*
X376275000Y-116035000D03*
X388380000Y-114610000D03*
%TO.N,SYSMCU_MISO*%
X416580000Y-115728800D03*
D46*
X425910000Y-156010000D03*
D44*
X424281209Y-115367911D03*
%TO.N,DIB1{slash}DIB3_SCLK*%
X350720000Y-115630000D03*
X342570000Y-116070000D03*
D46*
%TO.N,~{DIB1_CSA}*%
X366710642Y-94918676D03*
X366245300Y-104483800D03*
X342100000Y-111830000D03*
D44*
%TO.N,TFT_DVID_SCL*%
X375570147Y-115251200D03*
X391250000Y-116130000D03*
D46*
%TO.N,Net-(Module1B-HDMI1_HOTPLUG)*%
X373960000Y-114576200D03*
X373790000Y-103746200D03*
D44*
%TO.N,DIB4_MOSI*%
X361713802Y-112995002D03*
X414203825Y-114527935D03*
%TO.N,~{SYSMCU_CS}*%
X416150000Y-107940000D03*
D46*
X363820000Y-109450000D03*
D44*
%TO.N,ENC_SW*%
X418920000Y-154700000D03*
X419130401Y-109498800D03*
%TO.N,ENC_A*%
X417946307Y-154916471D03*
X418525574Y-109498800D03*
%TO.N,ENC_B*%
X418450000Y-153830000D03*
X417890000Y-109498800D03*
%TO.N,GBE_TXRX_C-*%
X340101146Y-106838500D03*
X325010000Y-95281500D03*
%TO.N,GBE_TXRX_C+*%
X340101146Y-106261500D03*
X325010000Y-95858500D03*
%TO.N,TFT_BRIGHTNESS*%
X394470000Y-104440000D03*
X389950598Y-129460598D03*
X418070000Y-103650000D03*
X378550000Y-140800000D03*
%TO.N,~{SYSMCU_IRQ}*%
X343000000Y-114770000D03*
X360160000Y-114600000D03*
X414193810Y-112568097D03*
%TO.N,/USB3 Hub\u002C Front USB-C/HUB_3V3*%
X408337600Y-127600000D03*
X419546000Y-127442478D03*
X420638200Y-133360420D03*
X404159217Y-137163323D03*
X419546000Y-128000000D03*
X420880000Y-140370000D03*
X408300000Y-143400000D03*
X405100000Y-143400000D03*
X411512400Y-127700000D03*
%TO.N,SOFT_PWR*%
X354920000Y-125170000D03*
D46*
X335730000Y-138120000D03*
D44*
X418000000Y-123350000D03*
X417948800Y-114458412D03*
%TO.N,~{FAN_FAULT}*%
X361100000Y-126606747D03*
X396040000Y-117840000D03*
X360790000Y-149350000D03*
X396040000Y-126298800D03*
D46*
X324090000Y-149520000D03*
D44*
X410640000Y-117650000D03*
%TO.N,DIB1_BOOT0*%
X411320000Y-99819402D03*
%TO.N,~{DIB1_RESET}*%
X415640000Y-112091200D03*
%TO.N,DIB4_MISO*%
X361215516Y-113412392D03*
X413561200Y-114430277D03*
%TO.N,DIB4_SCLK*%
X343304998Y-113850000D03*
X413090000Y-114960000D03*
X361450000Y-114160000D03*
D46*
%TO.N,SYSMCU_MOSI*%
X425250000Y-156020000D03*
D44*
X424130000Y-111650000D03*
X415170000Y-111080000D03*
D46*
%TO.N,/System MCU\u002C Watchdog\u002C EEPROM/SYSMCU_SWDIO*%
X419680000Y-92290000D03*
D44*
%TO.N,~{DIB3_CSA}*%
X401619800Y-94370000D03*
X353420000Y-114190000D03*
X380557242Y-93700600D03*
%TO.N,~{DIB2_CSA}*%
X339610000Y-110570000D03*
X399428478Y-99031200D03*
X363350000Y-99250000D03*
%TO.N,~{DIB4_CSA}*%
X400040000Y-98150000D03*
X355347602Y-114311202D03*
X382330000Y-98350000D03*
D46*
%TO.N,~{DIB5_CSA}*%
X358895000Y-111585000D03*
D44*
X402250000Y-106850000D03*
D46*
X341735943Y-115481407D03*
D44*
%TO.N,HUB_P1_TX1+*%
X410360000Y-142280000D03*
X366830000Y-157296228D03*
%TO.N,HUB_P1_TX1-*%
X410940000Y-142290000D03*
X367407000Y-157296228D03*
%TO.N,/System MCU\u002C Watchdog\u002C EEPROM/WDG_OUT*%
X416630000Y-112540000D03*
X421390000Y-113290000D03*
%TO.N,UART_RX{slash}DIN1*%
X354880000Y-115790000D03*
D46*
%TO.N,~{USB6_OC}{slash}CTRL6*%
X424680000Y-82660000D03*
X422400000Y-129620000D03*
D44*
%TO.N,USBC_ATTACH*%
X396620000Y-126820000D03*
X363360000Y-155870000D03*
X403090000Y-126810000D03*
X361469364Y-127231200D03*
X362240000Y-152030000D03*
X409930000Y-108480000D03*
X406480000Y-122570000D03*
X405360000Y-126280000D03*
%TO.N,REAR_DVID_SDA*%
X379460000Y-125580000D03*
X375980000Y-125540000D03*
D46*
%TO.N,DIB_SDA*%
X346590777Y-122888864D03*
D44*
X394640200Y-128726750D03*
X395950000Y-109910000D03*
X375171427Y-142799095D03*
%TO.N,REAR_DVID_CEC*%
X387610000Y-113961200D03*
X376240000Y-115440000D03*
D46*
%TO.N,~{RELAY_CS}*%
X423955000Y-154105000D03*
D44*
X412110000Y-110650000D03*
X423060000Y-110178800D03*
%TO.N,TFT_DVID_CLK_N*%
X378990502Y-118838500D03*
X385211500Y-121420811D03*
%TO.N,TFT_DVID_TX2_N*%
X389716698Y-121547389D03*
X378934740Y-115238500D03*
%TO.N,TFT_DVID_TX0_N*%
X386701500Y-121510000D03*
X378990000Y-117638500D03*
%TO.N,TFT_DVID_CLK_P*%
X378990502Y-118261500D03*
X385788500Y-121420811D03*
%TO.N,TFT_DVID_TX1_P*%
X388798500Y-121530000D03*
X378990502Y-115861500D03*
%TO.N,TFT_DVID_TX1_N*%
X388221500Y-121530000D03*
X378990502Y-116438500D03*
%TO.N,TFT_DVID_TX0_P*%
X378990000Y-117061500D03*
X387278500Y-121510000D03*
%TO.N,TFT_DVID_TX2_P*%
X378934740Y-114661500D03*
X390293698Y-121547389D03*
%TO.N,USB_SUSPEND*%
X339110000Y-119160001D03*
X409510000Y-111090000D03*
X407430000Y-131090000D03*
X407259999Y-120640001D03*
X386290000Y-131550000D03*
X403250000Y-127950000D03*
D46*
%TO.N,FLEX_STATE*%
X379860000Y-150090000D03*
X332270000Y-118480000D03*
X416074839Y-143055969D03*
D44*
X425120000Y-144100000D03*
X416090600Y-151110000D03*
%TO.N,SYSMCU_SCLK*%
X423400000Y-116430000D03*
X410550000Y-115710000D03*
D46*
X424600000Y-156000000D03*
D44*
%TO.N,/System MCU\u002C Watchdog\u002C EEPROM/SPKR_OUT*%
X413140000Y-117780000D03*
X414680000Y-160200000D03*
%TO.N,USBC_ID*%
X419930000Y-152560000D03*
X373890000Y-163950000D03*
X372750000Y-167340000D03*
X417050000Y-105750000D03*
%TO.N,USBC_PORT_ROLE*%
X376310000Y-163650000D03*
X416200000Y-118570000D03*
X415800000Y-156760000D03*
X370740000Y-166590000D03*
%TO.N,~{USBC_IRQ}*%
X416160000Y-105780000D03*
X419490000Y-153040000D03*
%TO.N,~{USBC_OCS}*%
X413800000Y-166700000D03*
X414600000Y-103600000D03*
X371370000Y-173000000D03*
%TO.N,PE*%
X295630000Y-101690000D03*
D45*
%TO.N,/System MCU\u002C Watchdog\u002C EEPROM/+3V3out*%
X341336000Y-160942500D03*
X357730000Y-160330000D03*
%TO.N,/System MCU\u002C Watchdog\u002C EEPROM/+1V2out*%
X381530000Y-144040000D03*
X398110000Y-143400000D03*
D44*
%TO.N,DIB_SCL*%
X395530000Y-110480000D03*
X374662771Y-143121829D03*
D46*
X345820000Y-122358000D03*
D44*
X394190000Y-129180000D03*
%TO.N,~{USBC_OC}*%
X409590000Y-129090000D03*
X411300000Y-147480000D03*
D46*
X374920000Y-156640000D03*
D44*
%TO.N,UART_TX{slash}DOUT1*%
X351960000Y-116600000D03*
%TO.N,REAR_USB_BTM_D+*%
X412301500Y-140147747D03*
D46*
X323460000Y-81850000D03*
D44*
%TO.N,REAR_USB_BTM_D-*%
X412878500Y-140147747D03*
D46*
X323990000Y-81200000D03*
%TO.N,SYS_SCL*%
X320570000Y-152510000D03*
D44*
X414441200Y-155280000D03*
D46*
X362500000Y-158190000D03*
X408189603Y-103497563D03*
D44*
X413180000Y-130570000D03*
D46*
X405330000Y-119150000D03*
D44*
X405030000Y-126980000D03*
D46*
X372960000Y-165260000D03*
D44*
%TO.N,SYS_SDA*%
X412640000Y-131030000D03*
X413970000Y-155840000D03*
D46*
X372944087Y-166073177D03*
X361966020Y-158653980D03*
D44*
X404408986Y-127171950D03*
D46*
X407520000Y-103000000D03*
X404653800Y-119150000D03*
X321430000Y-152680000D03*
D44*
%TO.N,/USB-C socket\u002C Mux\u002C CC/USBC_VBUS*%
X372169098Y-160308376D03*
X371200000Y-167295002D03*
D46*
%TO.N,/USB-C socket\u002C Mux\u002C CC/USBC_SEL*%
X340690000Y-141690000D03*
X335560000Y-116610000D03*
D44*
X370210000Y-155870000D03*
X372000121Y-167480000D03*
%TO.N,/USB-C socket\u002C Mux\u002C CC/USBC_TX2+*%
X366821500Y-161020000D03*
%TO.N,/USB-C socket\u002C Mux\u002C CC/USBC_RX1-*%
X364230000Y-161968500D03*
%TO.N,/USB-C socket\u002C Mux\u002C CC/USBC_TX2-*%
X367398500Y-161020000D03*
%TO.N,/USB-C socket\u002C Mux\u002C CC/USBC_RX2+*%
X364266502Y-159262426D03*
X366290000Y-169970000D03*
%TO.N,/USB-C socket\u002C Mux\u002C CC/USBC_RX2-*%
X364266502Y-159839426D03*
X365713000Y-169970000D03*
%TO.N,/USB-C socket\u002C Mux\u002C CC/USBC_RX1+*%
X364230000Y-161391500D03*
%TO.N,/USB-C socket\u002C Mux\u002C CC/CC1*%
X363969324Y-165055412D03*
X363280116Y-171440100D03*
%TO.N,/USB-C socket\u002C Mux\u002C CC/CC2*%
X368860000Y-168610000D03*
D46*
%TO.N,Net-(X10A-COMMON_CT)*%
X315590000Y-84150000D03*
D44*
%TO.N,Net-(IC2B-2Y)*%
X406992650Y-96860001D03*
X404530900Y-96861751D03*
X403260000Y-114940000D03*
D46*
%TO.N,Net-(IC1A-1A)*%
X332220000Y-115830000D03*
X341690000Y-124730000D03*
D44*
%TO.N,Net-(IC2C-3Y)*%
X404870000Y-101181200D03*
D46*
X394990000Y-101480000D03*
%TO.N,/USB-C socket\u002C Mux\u002C CC/PWM_OUT*%
X324160000Y-154140000D03*
%TO.N,/USB-C socket\u002C Mux\u002C CC/FAN_SENSE1*%
X324940000Y-153149835D03*
D44*
%TO.N,RTC_OUT*%
X359240000Y-113560000D03*
D46*
X343050000Y-112760000D03*
X325236858Y-149025213D03*
D44*
X416190000Y-111550000D03*
D46*
%TO.N,REAR_USB_TOP_D+*%
X323490000Y-85390000D03*
X369108322Y-106211678D03*
%TO.N,REAR_USB_TOP_D-*%
X322980000Y-84750000D03*
X369647222Y-105768322D03*
D44*
%TO.N,Net-(IC6-PD0)*%
X418125602Y-105913099D03*
X420370000Y-124550000D03*
%TO.N,Net-(IC6-PD2)*%
X421320000Y-122850000D03*
X418790000Y-101440000D03*
%TO.N,DIB_OE_SYNC*%
X349040000Y-109620000D03*
X348920000Y-114990000D03*
X363240000Y-109290000D03*
%TO.N,Net-(D5-PadC)*%
X390450000Y-114400000D03*
X408490000Y-114000000D03*
%TO.N,Net-(D6-PadC)*%
X391660000Y-113940000D03*
X403740000Y-113930000D03*
%TO.N,Net-(IC9A-SPI_DI{slash}GPIO9{slash}CFG_BC_EN)*%
X410472804Y-125290000D03*
X410790000Y-130447861D03*
%TO.N,Net-(IC9A-SPI_CE_N{slash}GPIO7{slash}CFG_NON_REM)*%
X410290000Y-128910000D03*
X409197070Y-125220000D03*
%TO.N,Net-(IC9A-SPEED_IND3{slash}BC_IND3{slash}GPIO2)*%
X415200000Y-130470000D03*
X415938768Y-125296531D03*
%TO.N,Net-(IC9A-C_ATTACH0{slash}GPIO64)*%
X397200000Y-130140000D03*
X403018300Y-129985680D03*
%TO.N,Net-(IC10-IN-Pad1)*%
X374790000Y-158403684D03*
X374790000Y-158910000D03*
%TO.N,Net-(R67-Pad1)*%
X320890000Y-98780000D03*
%TO.N,USBC_D+*%
X409430000Y-140410000D03*
X363800239Y-170107223D03*
%TO.N,USBC_D-*%
X410010000Y-140400000D03*
%TD*%
D47*
%TO.N,+5V*%
X304730000Y-164400000D02*
X303120000Y-162790000D01*
X389650000Y-88750000D02*
X389650000Y-91710000D01*
X389660000Y-88740000D02*
X389650000Y-88750000D01*
X337724380Y-146960000D02*
X337730000Y-146954380D01*
X303120000Y-162790000D02*
X303120000Y-142838809D01*
D48*
X337710000Y-147630000D02*
X337730000Y-147650000D01*
D47*
X303120000Y-142838809D02*
X309693660Y-136265149D01*
%TO.N,+3V3*%
X346130000Y-158820000D02*
X355978686Y-158820000D01*
D49*
X399820000Y-103190000D02*
X400890000Y-102120000D01*
X399820000Y-106540000D02*
X399820000Y-118420000D01*
D47*
X345170000Y-159780000D02*
X346130000Y-158820000D01*
D49*
X400890000Y-98000000D02*
X400890000Y-102120000D01*
X400890000Y-98000000D02*
X400890000Y-92250000D01*
D47*
X355978686Y-158820000D02*
X356692300Y-158106386D01*
D49*
X400890000Y-92250000D02*
X400900000Y-92240000D01*
X399820000Y-106540000D02*
X399820000Y-103190000D01*
D47*
%TO.N,/System MCU\u002C Watchdog\u002C EEPROM/~{SYSMCU_RESET}*%
X410618402Y-94403130D02*
X410618402Y-85361598D01*
X410660000Y-94444728D02*
X410660000Y-110640000D01*
X410618402Y-94403130D02*
X410660000Y-94444728D01*
X410618402Y-85361598D02*
X412960000Y-83020000D01*
D50*
%TO.N,POWER_SW*%
X304500000Y-155700000D02*
X307500000Y-155700000D01*
X307500000Y-155700000D02*
X307500000Y-145170000D01*
X307500000Y-145170000D02*
X310760000Y-141910000D01*
D47*
X353535000Y-111175000D02*
X332075000Y-111175000D01*
X328883800Y-114366200D02*
X328883800Y-137066200D01*
X328883800Y-137066200D02*
X324920000Y-141030000D01*
X332075000Y-111175000D02*
X328883800Y-114366200D01*
X363970000Y-100740000D02*
X353535000Y-111175000D01*
%TO.N,~{USBC_EN}*%
X419830000Y-155510000D02*
X420370000Y-154970000D01*
X420460000Y-123880000D02*
X420460000Y-112380000D01*
X420370000Y-154970000D02*
X420370000Y-152240000D01*
X420100000Y-151970000D02*
X420100000Y-129140000D01*
X420460000Y-112380000D02*
X420640000Y-112200000D01*
X420880000Y-128360000D02*
X420880000Y-124300000D01*
X420370000Y-152240000D02*
X420100000Y-151970000D01*
X379190000Y-158010000D02*
X413100000Y-158010000D01*
X420880000Y-124300000D02*
X420460000Y-123880000D01*
X413100000Y-158010000D02*
X413820000Y-157290000D01*
X420100000Y-129140000D02*
X420880000Y-128360000D01*
D50*
%TO.N,GBE_TXRX_A+*%
X343101238Y-107915100D02*
X343224638Y-108038500D01*
X327208475Y-94545100D02*
X327335475Y-94545100D01*
X342114900Y-107378388D02*
X342651612Y-107915100D01*
X326446475Y-94113300D02*
X326446475Y-93973600D01*
X325009750Y-94668500D02*
X325133150Y-94545100D01*
X326548075Y-93872000D02*
X326675075Y-93872000D01*
X342651612Y-107915100D02*
X343101238Y-107915100D01*
X327335475Y-94545100D02*
X328560000Y-94545100D01*
X338961612Y-94545100D02*
X342114900Y-97698388D01*
X326776675Y-93973600D02*
X326776675Y-94113300D01*
X328560000Y-94545100D02*
X338961612Y-94545100D01*
X342114900Y-97698388D02*
X342114900Y-107378388D01*
X325133150Y-94545100D02*
X326014675Y-94545100D01*
X326014675Y-94545100D02*
G75*
G03*
X326446500Y-94113300I25J431800D01*
G01*
X326446475Y-93973600D02*
G75*
G02*
X326548075Y-93871975I101625J0D01*
G01*
X326675075Y-93872000D02*
G75*
G02*
X326776700Y-93973600I25J-101600D01*
G01*
X326776675Y-94113300D02*
G75*
G03*
X327208475Y-94545125I431825J0D01*
G01*
D47*
%TO.N,~{RESET_OUT}*%
X406920000Y-115370000D02*
X406300000Y-115990000D01*
X406300000Y-115990000D02*
X406300000Y-120022905D01*
X425549200Y-148188487D02*
X425478000Y-148259687D01*
X425549200Y-142810000D02*
X425549200Y-148188487D01*
X406300000Y-120022905D02*
X406272905Y-120050000D01*
%TO.N,CM5_BOOT0*%
X342572733Y-124272733D02*
X342940000Y-124640000D01*
X340258987Y-124272733D02*
X342572733Y-124272733D01*
X356018800Y-124640000D02*
X356230000Y-124851200D01*
X417520000Y-112680000D02*
X417520000Y-124020000D01*
X342940000Y-124640000D02*
X356018800Y-124640000D01*
X418020000Y-112180000D02*
X417520000Y-112680000D01*
%TO.N,~{GBE_LINK_ACT}*%
X325610000Y-100920000D02*
X323200000Y-100920000D01*
D50*
%TO.N,GBE_TXRX_A-*%
X342788388Y-107584900D02*
X343101238Y-107584900D01*
X327106875Y-93973600D02*
X327106875Y-94113300D01*
X343101238Y-107584900D02*
X343224638Y-107461500D01*
X325133150Y-94214900D02*
X326014675Y-94214900D01*
X339098388Y-94214900D02*
X342445100Y-97561612D01*
X325009750Y-94091500D02*
X325133150Y-94214900D01*
X328560000Y-94214900D02*
X339098388Y-94214900D01*
X326548075Y-93541800D02*
X326675075Y-93541800D01*
X326116275Y-94113300D02*
X326116275Y-93973600D01*
X327335475Y-94214900D02*
X328560000Y-94214900D01*
X342445100Y-107241612D02*
X342788388Y-107584900D01*
X327208475Y-94214900D02*
X327335475Y-94214900D01*
X342445100Y-97561612D02*
X342445100Y-107241612D01*
X326675075Y-93541800D02*
G75*
G02*
X327106900Y-93973600I25J-431800D01*
G01*
X326014675Y-94214900D02*
G75*
G03*
X326116300Y-94113300I25J101600D01*
G01*
X327106875Y-94113300D02*
G75*
G03*
X327208475Y-94214925I101625J0D01*
G01*
X326116275Y-93973600D02*
G75*
G02*
X326548075Y-93541775I431825J0D01*
G01*
D49*
%TO.N,+12V*%
X404140000Y-168040000D02*
X417650000Y-168040000D01*
X296710692Y-131539308D02*
X297860000Y-131539308D01*
D51*
X297860000Y-131539308D02*
X297880692Y-131560000D01*
D49*
X369090557Y-176122800D02*
X368834957Y-175867200D01*
X394090000Y-176122800D02*
X369090557Y-176122800D01*
X429165000Y-116500000D02*
X428165000Y-117500000D01*
X430665000Y-116500000D02*
X432665000Y-118500000D01*
X394090000Y-176122800D02*
X396057200Y-176122800D01*
X417650000Y-168040000D02*
X425010000Y-160680000D01*
X396057200Y-176122800D02*
X404140000Y-168040000D01*
X404140000Y-168040000D02*
X404140000Y-165800000D01*
X427590000Y-118075000D02*
X428165000Y-117500000D01*
X430165000Y-116500000D02*
X430665000Y-116500000D01*
X404140000Y-165800000D02*
X404200000Y-165740000D01*
X295150000Y-133100000D02*
X296710692Y-131539308D01*
X425010000Y-160680000D02*
X427590000Y-158100000D01*
X433665000Y-118500000D02*
X434665000Y-117500000D01*
X432665000Y-118500000D02*
X433665000Y-118500000D01*
X358662800Y-175867200D02*
X357160000Y-177370000D01*
X432665000Y-118900000D02*
X432665000Y-118865000D01*
X427590000Y-148070000D02*
X427590000Y-118075000D01*
X430165000Y-116500000D02*
X429165000Y-116500000D01*
X427590000Y-158100000D02*
X427590000Y-148070000D01*
X368834957Y-175867200D02*
X358662800Y-175867200D01*
X314730000Y-177370000D02*
X295150000Y-157790000D01*
X295150000Y-157790000D02*
X295150000Y-133100000D01*
X357160000Y-177370000D02*
X314730000Y-177370000D01*
D47*
%TO.N,/System MCU\u002C Watchdog\u002C EEPROM/SYSMCU_SWCLK*%
X421800000Y-95430000D02*
X421470000Y-95100000D01*
X421470000Y-95100000D02*
X421470000Y-83910000D01*
X421470000Y-83910000D02*
X420580000Y-83020000D01*
%TO.N,REAR_VBUS_EN*%
X376180000Y-95270000D02*
X376180000Y-107090000D01*
X371120000Y-90210000D02*
X376180000Y-95270000D01*
%TO.N,~{DIB1_CSB}*%
X409675000Y-104915000D02*
X409460000Y-105130000D01*
X409675000Y-92015000D02*
X409675000Y-104915000D01*
%TO.N,DIB1{slash}DIB3_MOSI*%
X342166138Y-116809406D02*
X342215544Y-116760000D01*
X350070000Y-116760000D02*
X350220000Y-116910000D01*
X342215544Y-116760000D02*
X350070000Y-116760000D01*
%TO.N,/System MCU\u002C Watchdog\u002C EEPROM/WDG_SET*%
X421930000Y-112320000D02*
X421930000Y-107540000D01*
X421930000Y-107540000D02*
X421340000Y-106950000D01*
%TO.N,~{TFT_IRQ}*%
X379220000Y-141295132D02*
X379220000Y-141301200D01*
X373669991Y-141427601D02*
X356342390Y-124100000D01*
X343490000Y-124100000D02*
X339760000Y-120370000D01*
X356342390Y-124100000D02*
X343490000Y-124100000D01*
X390670000Y-129845132D02*
X379220000Y-141295132D01*
X390670000Y-129540000D02*
X390670000Y-129845132D01*
%TO.N,REAR_DVID_HPD*%
X392550000Y-84950000D02*
X392550000Y-86920000D01*
X388232400Y-114462400D02*
X388380000Y-114610000D01*
X387139996Y-114200000D02*
X387402396Y-114462400D01*
X392550000Y-86920000D02*
X390730000Y-88740000D01*
X378110000Y-114200000D02*
X387139996Y-114200000D01*
X387402396Y-114462400D02*
X388232400Y-114462400D01*
X376275000Y-116035000D02*
X378110000Y-114200000D01*
%TO.N,SYSMCU_MISO*%
X425910000Y-154310000D02*
X424480000Y-152880000D01*
X424480000Y-152880000D02*
X424480000Y-115566702D01*
X424480000Y-115566702D02*
X424281209Y-115367911D01*
X425910000Y-156010000D02*
X425910000Y-154310000D01*
%TO.N,DIB1{slash}DIB3_SCLK*%
X342570000Y-116070000D02*
X342920000Y-116420000D01*
X342920000Y-116420000D02*
X349930000Y-116420000D01*
X349930000Y-116420000D02*
X350720000Y-115630000D01*
%TO.N,~{DIB1_CSA}*%
X360087149Y-110641951D02*
X359099729Y-110641951D01*
X359099729Y-110641951D02*
X359001680Y-110740000D01*
X342720000Y-111830000D02*
X342100000Y-111830000D01*
X353650731Y-111454400D02*
X343095600Y-111454400D01*
X343095600Y-111454400D02*
X342720000Y-111830000D01*
X366245300Y-104483800D02*
X360087149Y-110641951D01*
X354365132Y-110740000D02*
X353650731Y-111454400D01*
X359001680Y-110740000D02*
X354365132Y-110740000D01*
%TO.N,Net-(Module1B-HDMI1_HOTPLUG)*%
X373960000Y-103800000D02*
X373906200Y-103746200D01*
X373906200Y-103746200D02*
X373790000Y-103746200D01*
X373960000Y-114576200D02*
X373960000Y-103800000D01*
%TO.N,ENC_SW*%
X419220000Y-154400000D02*
X419220000Y-153514735D01*
X419044800Y-109584401D02*
X419130401Y-109498800D01*
X419040600Y-152985732D02*
X419040600Y-130565202D01*
X419044800Y-152989931D02*
X419040600Y-152985732D01*
X419044800Y-153339535D02*
X419044800Y-152989931D01*
X419220000Y-153514735D02*
X419044800Y-153339535D01*
X419044800Y-130561001D02*
X419044800Y-109584401D01*
X419040600Y-130565202D02*
X419044800Y-130561001D01*
X418920000Y-154700000D02*
X419220000Y-154400000D01*
%TO.N,ENC_A*%
X417973529Y-154916471D02*
X418940600Y-153949400D01*
X418940600Y-153634699D02*
X418740000Y-153434099D01*
X418940600Y-153949400D02*
X418940600Y-153634699D01*
X418740000Y-109965626D02*
X418525574Y-109751200D01*
X418740000Y-153434099D02*
X418740000Y-109965626D01*
X418525574Y-109751200D02*
X418525574Y-109498800D01*
X417946307Y-154916471D02*
X417973529Y-154916471D01*
%TO.N,ENC_B*%
X418450000Y-153830000D02*
X418450000Y-110339886D01*
X418450000Y-110339886D02*
X417890000Y-109779886D01*
X417890000Y-109779886D02*
X417890000Y-109498800D01*
D50*
%TO.N,GBE_TXRX_C-*%
X327151069Y-96103400D02*
X327151069Y-95836700D01*
X326820869Y-95836700D02*
X326820869Y-96103400D01*
X329792669Y-96103400D02*
X329792669Y-95836700D01*
X326922469Y-96205000D02*
X327049469Y-96205000D01*
X330351469Y-95404900D02*
X330500000Y-95404900D01*
X341535100Y-98581612D02*
X341535100Y-106178388D01*
X338358388Y-95404900D02*
X341535100Y-98581612D01*
X330500000Y-95404900D02*
X338358388Y-95404900D01*
X329462469Y-95836700D02*
X329462469Y-96103400D01*
X328903669Y-95404900D02*
X329030669Y-95404900D01*
X325010000Y-95281500D02*
X325133400Y-95404900D01*
X327582869Y-95404900D02*
X327709869Y-95404900D01*
X328141669Y-95836700D02*
X328141669Y-96103400D01*
X328243269Y-96205000D02*
X328370269Y-96205000D01*
X328471869Y-96103400D02*
X328471869Y-95836700D01*
X330224469Y-95404900D02*
X330351469Y-95404900D01*
X329564069Y-96205000D02*
X329691069Y-96205000D01*
X340224546Y-106715100D02*
X340101146Y-106838500D01*
X325133400Y-95404900D02*
X326389069Y-95404900D01*
X340998388Y-106715100D02*
X340224546Y-106715100D01*
X341535100Y-106178388D02*
X340998388Y-106715100D01*
X329030669Y-95404900D02*
G75*
G02*
X329462500Y-95836700I31J-431800D01*
G01*
X328141669Y-96103400D02*
G75*
G03*
X328243269Y-96205031I101631J0D01*
G01*
X326389069Y-95404900D02*
G75*
G02*
X326820900Y-95836700I31J-431800D01*
G01*
X329462469Y-96103400D02*
G75*
G03*
X329564069Y-96205031I101631J0D01*
G01*
X327151069Y-95836700D02*
G75*
G02*
X327582869Y-95404869I431831J0D01*
G01*
X328471869Y-95836700D02*
G75*
G02*
X328903669Y-95404869I431831J0D01*
G01*
X329691069Y-96205000D02*
G75*
G03*
X329792700Y-96103400I31J101600D01*
G01*
X328370269Y-96205000D02*
G75*
G03*
X328471900Y-96103400I31J101600D01*
G01*
X327049469Y-96205000D02*
G75*
G03*
X327151100Y-96103400I31J101600D01*
G01*
X326820869Y-96103400D02*
G75*
G03*
X326922469Y-96205031I101631J0D01*
G01*
X327709869Y-95404900D02*
G75*
G02*
X328141700Y-95836700I31J-431800D01*
G01*
X329792669Y-95836700D02*
G75*
G02*
X330224469Y-95404869I431831J0D01*
G01*
%TO.N,GBE_TXRX_C+*%
X327481269Y-96103400D02*
X327481269Y-95836700D01*
X340861612Y-106384900D02*
X340224546Y-106384900D01*
X329564069Y-96535200D02*
X329691069Y-96535200D01*
X330500000Y-95735100D02*
X338221612Y-95735100D01*
X340224546Y-106384900D02*
X340101146Y-106261500D01*
X330351469Y-95735100D02*
X330500000Y-95735100D01*
X329132269Y-95836700D02*
X329132269Y-96103400D01*
X327811469Y-95836700D02*
X327811469Y-96103400D01*
X328903669Y-95735100D02*
X329030669Y-95735100D01*
X341204900Y-106041612D02*
X340861612Y-106384900D01*
X328802069Y-96103400D02*
X328802069Y-95836700D01*
X341204900Y-98718388D02*
X341204900Y-106041612D01*
X328243269Y-96535200D02*
X328370269Y-96535200D01*
X327582869Y-95735100D02*
X327709869Y-95735100D01*
X330122869Y-96103400D02*
X330122869Y-95836700D01*
X326922469Y-96535200D02*
X327049469Y-96535200D01*
X338221612Y-95735100D02*
X341204900Y-98718388D01*
X326490669Y-95836700D02*
X326490669Y-96103400D01*
X330224469Y-95735100D02*
X330351469Y-95735100D01*
X325010000Y-95858500D02*
X325133400Y-95735100D01*
X325133400Y-95735100D02*
X326389069Y-95735100D01*
X327811469Y-96103400D02*
G75*
G03*
X328243269Y-96535231I431831J0D01*
G01*
X329132269Y-96103400D02*
G75*
G03*
X329564069Y-96535231I431831J0D01*
G01*
X328370269Y-96535200D02*
G75*
G03*
X328802100Y-96103400I31J431800D01*
G01*
X326389069Y-95735100D02*
G75*
G02*
X326490700Y-95836700I31J-101600D01*
G01*
X327049469Y-96535200D02*
G75*
G03*
X327481300Y-96103400I31J431800D01*
G01*
X327709869Y-95735100D02*
G75*
G02*
X327811500Y-95836700I31J-101600D01*
G01*
X326490669Y-96103400D02*
G75*
G03*
X326922469Y-96535231I431831J0D01*
G01*
X327481269Y-95836700D02*
G75*
G02*
X327582869Y-95735069I101631J0D01*
G01*
X329030669Y-95735100D02*
G75*
G02*
X329132300Y-95836700I31J-101600D01*
G01*
X330122869Y-95836700D02*
G75*
G02*
X330224469Y-95735069I101631J0D01*
G01*
X328802069Y-95836700D02*
G75*
G02*
X328903669Y-95735069I101631J0D01*
G01*
X329691069Y-96535200D02*
G75*
G03*
X330122900Y-96103400I31J431800D01*
G01*
D47*
%TO.N,TFT_BRIGHTNESS*%
X389950598Y-129460598D02*
X389950598Y-130069402D01*
X389950598Y-130069402D02*
X379220000Y-140800000D01*
X379220000Y-140800000D02*
X378550000Y-140800000D01*
%TO.N,~{SYSMCU_IRQ}*%
X350276020Y-114770000D02*
X359990000Y-114770000D01*
X343232400Y-114537600D02*
X350043620Y-114537600D01*
X343000000Y-114770000D02*
X343232400Y-114537600D01*
X359990000Y-114770000D02*
X360160000Y-114600000D01*
X350043620Y-114537600D02*
X350276020Y-114770000D01*
%TO.N,SOFT_PWR*%
X417880000Y-123230000D02*
X417880000Y-114527212D01*
X417880000Y-114527212D02*
X417948800Y-114458412D01*
X335730000Y-138120000D02*
X348680000Y-125170000D01*
X418000000Y-123350000D02*
X417880000Y-123230000D01*
X348680000Y-125170000D02*
X354920000Y-125170000D01*
%TO.N,~{FAN_FAULT}*%
X360620000Y-149520000D02*
X360790000Y-149350000D01*
X324090000Y-149520000D02*
X360620000Y-149520000D01*
%TO.N,DIB4_SCLK*%
X358610000Y-114160000D02*
X361450000Y-114160000D01*
X343304998Y-113850000D02*
X343884998Y-113270000D01*
X357720000Y-113270000D02*
X358610000Y-114160000D01*
X343884998Y-113270000D02*
X357720000Y-113270000D01*
%TO.N,SYSMCU_MOSI*%
X424190000Y-116520000D02*
X423810000Y-116140000D01*
X423810000Y-116140000D02*
X423810000Y-111970000D01*
X425250000Y-156020000D02*
X425250000Y-154080000D01*
X424190000Y-153020000D02*
X424190000Y-116520000D01*
X425250000Y-154080000D02*
X424190000Y-153020000D01*
X423810000Y-111970000D02*
X424130000Y-111650000D01*
%TO.N,/System MCU\u002C Watchdog\u002C EEPROM/SYSMCU_SWDIO*%
X419680000Y-92290000D02*
X419680000Y-87200000D01*
X419680000Y-87200000D02*
X415500000Y-83020000D01*
%TO.N,~{DIB3_CSA}*%
X380147706Y-94110136D02*
X380557242Y-93700600D01*
X380147706Y-100697706D02*
X380147706Y-94110136D01*
X381120000Y-101670000D02*
X380147706Y-100697706D01*
%TO.N,~{DIB2_CSA}*%
X339610000Y-109990000D02*
X340510000Y-109090000D01*
X340510000Y-109090000D02*
X353510000Y-109090000D01*
X353510000Y-109090000D02*
X363350000Y-99250000D01*
X339610000Y-110570000D02*
X339610000Y-109990000D01*
%TO.N,~{DIB4_CSA}*%
X381120000Y-105623333D02*
X382330000Y-104413333D01*
X382330000Y-104413333D02*
X382330000Y-98350000D01*
%TO.N,~{DIB5_CSA}*%
X357620000Y-112860000D02*
X358895000Y-111585000D01*
X342410000Y-114070000D02*
X343620000Y-112860000D01*
X341735943Y-115481407D02*
X342410000Y-114807350D01*
X342410000Y-114807350D02*
X342410000Y-114070000D01*
X343620000Y-112860000D02*
X357620000Y-112860000D01*
D52*
%TO.N,HUB_P1_TX1+*%
X410502599Y-142422599D02*
X410360000Y-142280000D01*
X405494474Y-155080000D02*
X410502599Y-150071875D01*
X368694474Y-155080000D02*
X405494474Y-155080000D01*
X366966100Y-157160128D02*
X366966100Y-156808374D01*
X366966100Y-156808374D02*
X368694474Y-155080000D01*
X366830000Y-157296228D02*
X366966100Y-157160128D01*
X410502599Y-150071875D02*
X410502599Y-142422599D01*
%TO.N,HUB_P1_TX1-*%
X410807401Y-142422599D02*
X410940000Y-142290000D01*
X410807401Y-150198125D02*
X410807401Y-142422599D01*
X368820726Y-155384800D02*
X405620726Y-155384800D01*
X367270900Y-156934626D02*
X368820726Y-155384800D01*
X367407000Y-157296228D02*
X367270900Y-157160128D01*
X367270900Y-157160128D02*
X367270900Y-156934626D01*
X405620726Y-155384800D02*
X410807401Y-150198125D01*
D47*
%TO.N,~{USB6_OC}{slash}CTRL6*%
X424680000Y-106090000D02*
X424680000Y-82660000D01*
X422400000Y-129620000D02*
X423280600Y-128739400D01*
X422560600Y-108209400D02*
X424680000Y-106090000D01*
X422560600Y-116665731D02*
X422560600Y-108209400D01*
X423280600Y-117385732D02*
X422560600Y-116665731D01*
X423280600Y-128739400D02*
X423280600Y-117385732D01*
%TO.N,USBC_ATTACH*%
X363360000Y-153150000D02*
X363320000Y-153110000D01*
X396620000Y-126820000D02*
X403020000Y-126820000D01*
X407790000Y-115260000D02*
X407790000Y-110620000D01*
X407790000Y-110620000D02*
X409930000Y-108480000D01*
X406780000Y-122530000D02*
X406780000Y-116270000D01*
X405360000Y-126010000D02*
X405360000Y-126280000D01*
X363320000Y-153110000D02*
X362240000Y-152030000D01*
X363360000Y-155870000D02*
X363360000Y-153150000D01*
X406780000Y-124590000D02*
X405360000Y-126010000D01*
X406520000Y-122530000D02*
X406480000Y-122570000D01*
X403080000Y-126820000D02*
X403090000Y-126810000D01*
X406780000Y-116270000D02*
X407790000Y-115260000D01*
X406780000Y-122530000D02*
X406780000Y-124590000D01*
X403020000Y-126820000D02*
X403080000Y-126820000D01*
X406780000Y-122530000D02*
X406520000Y-122530000D01*
%TO.N,REAR_DVID_SDA*%
X375980000Y-125540000D02*
X376230000Y-125790000D01*
X379250000Y-125790000D02*
X379460000Y-125580000D01*
X376230000Y-125790000D02*
X379250000Y-125790000D01*
X375710000Y-125540000D02*
X375980000Y-125540000D01*
%TO.N,DIB_SDA*%
X356520000Y-123220000D02*
X346921913Y-123220000D01*
X375171427Y-142799095D02*
X378439853Y-142799095D01*
X392512198Y-128726750D02*
X394640200Y-128726750D01*
X375171427Y-142799095D02*
X375171427Y-141871427D01*
X375171427Y-141871427D02*
X356520000Y-123220000D01*
X346921913Y-123220000D02*
X346590777Y-122888864D01*
X378439853Y-142799095D02*
X392512198Y-128726750D01*
%TO.N,REAR_DVID_CEC*%
X387418800Y-113770000D02*
X387610000Y-113961200D01*
X377910000Y-113770000D02*
X387418800Y-113770000D01*
X376240000Y-115440000D02*
X377910000Y-113770000D01*
%TO.N,~{RELAY_CS}*%
X423591400Y-117301400D02*
X422909800Y-116619800D01*
X423591400Y-153285731D02*
X423591400Y-117301400D01*
X423955000Y-154105000D02*
X423955000Y-153625000D01*
X422909800Y-110329000D02*
X423060000Y-110178800D01*
X423955000Y-153625000D02*
X423779400Y-153449400D01*
X423755069Y-153449400D02*
X423591400Y-153285731D01*
X422909800Y-116619800D02*
X422909800Y-110329000D01*
X423779400Y-153449400D02*
X423755069Y-153449400D01*
D52*
%TO.N,TFT_DVID_CLK_N*%
X380991600Y-118804001D02*
X380991600Y-119083401D01*
X382160000Y-118702401D02*
X382936873Y-118702401D01*
X385211500Y-121420811D02*
X385347599Y-121284712D01*
X385347599Y-121284712D02*
X385347599Y-121113125D01*
X382936874Y-118702400D02*
X382936873Y-118702400D01*
X379721600Y-118804001D02*
X379721600Y-119083401D01*
X384510414Y-120815111D02*
X384564295Y-120868992D01*
X381398000Y-119489801D02*
X381525000Y-119489801D01*
X379126601Y-118702401D02*
X379620000Y-118702401D01*
X378990502Y-118838500D02*
X379126601Y-118702401D01*
X385209928Y-120975454D02*
X385116475Y-120882001D01*
X384412237Y-120177763D02*
X384564474Y-120330000D01*
X384564474Y-120545526D02*
X384510414Y-120599585D01*
X380128000Y-119489801D02*
X380255000Y-119489801D01*
X380991600Y-118216601D02*
X380991600Y-118397601D01*
X384779821Y-120868992D02*
X384833880Y-120814932D01*
X385049406Y-120814932D02*
X385103289Y-120868815D01*
X383403845Y-119708188D02*
X383601410Y-119510622D01*
X380661400Y-119083401D02*
X380661400Y-118804001D01*
X385347599Y-121113125D02*
X385209928Y-120975454D01*
X380763000Y-118115001D02*
X380890000Y-118115001D01*
X382936873Y-118702401D02*
X382936874Y-118702400D01*
X380661400Y-118804001D02*
X380661400Y-118397601D01*
X380661400Y-118397601D02*
X380661400Y-118216601D01*
X381931400Y-119083401D02*
X381931400Y-118804001D01*
X383834899Y-119600425D02*
X384412237Y-120177763D01*
X385103289Y-120868815D02*
X385116475Y-120882001D01*
X380991600Y-118397601D02*
X380991600Y-118804001D01*
X383745094Y-119510622D02*
X383834899Y-119600425D01*
X382033000Y-118702401D02*
X382160000Y-118702401D01*
X382936873Y-118846084D02*
X382739307Y-119043649D01*
X382739307Y-119618386D02*
X382829109Y-119708188D01*
X384564474Y-120330000D02*
G75*
G02*
X384564511Y-120545563I-107774J-107800D01*
G01*
X380661400Y-118216601D02*
G75*
G02*
X380763000Y-118115000I101600J1D01*
G01*
X380890000Y-118115001D02*
G75*
G02*
X380991599Y-118216601I0J-101599D01*
G01*
X382936873Y-118702400D02*
G75*
G02*
X382936831Y-118846042I-71873J-71800D01*
G01*
X384564295Y-120868992D02*
G75*
G03*
X384779821Y-120868992I107763J107763D01*
G01*
X382829109Y-119708188D02*
G75*
G03*
X383403845Y-119708188I287368J287367D01*
G01*
X380255000Y-119489801D02*
G75*
G03*
X380661401Y-119083401I0J406401D01*
G01*
X380991600Y-119083401D02*
G75*
G03*
X381398000Y-119489800I406400J1D01*
G01*
X382739307Y-119043649D02*
G75*
G03*
X382739324Y-119618369I287393J-287351D01*
G01*
X379620000Y-118702401D02*
G75*
G02*
X379721599Y-118804001I0J-101599D01*
G01*
X384510414Y-120599585D02*
G75*
G03*
X384510462Y-120815063I107786J-107715D01*
G01*
X384833880Y-120814932D02*
G75*
G02*
X385049406Y-120814932I107763J-107763D01*
G01*
X381931400Y-118804001D02*
G75*
G02*
X382033000Y-118702400I101600J1D01*
G01*
X381525000Y-119489801D02*
G75*
G03*
X381931401Y-119083401I0J406401D01*
G01*
X383601410Y-119510622D02*
G75*
G02*
X383745094Y-119510622I71842J-71842D01*
G01*
X379721600Y-119083401D02*
G75*
G03*
X380128000Y-119489800I406400J1D01*
G01*
%TO.N,TFT_DVID_TX2_N*%
X384892401Y-115102401D02*
X379070839Y-115102401D01*
X379070839Y-115102401D02*
X378934740Y-115238500D01*
X389852797Y-120339385D02*
X389852797Y-120263185D01*
X389467293Y-120720385D02*
X389467293Y-120644185D01*
X389716698Y-121547389D02*
X389852797Y-121411290D01*
X389852797Y-120263185D02*
X389852797Y-120062797D01*
X389550000Y-119760000D02*
X384892401Y-115102401D01*
X389852797Y-120062797D02*
X389550000Y-119760000D01*
X389619693Y-120491785D02*
X389700397Y-120491785D01*
X389852797Y-121411290D02*
X389852797Y-121025185D01*
X389700397Y-120872785D02*
X389619693Y-120872785D01*
X389467293Y-120644185D02*
G75*
G02*
X389619693Y-120491793I152407J-15D01*
G01*
X389619693Y-120872785D02*
G75*
G02*
X389467315Y-120720385I7J152385D01*
G01*
X389700397Y-120491785D02*
G75*
G03*
X389852785Y-120339385I3J152385D01*
G01*
X389852797Y-121025185D02*
G75*
G03*
X389700397Y-120872803I-152397J-15D01*
G01*
%TO.N,TFT_DVID_TX0_N*%
X385186805Y-118382465D02*
X385276607Y-118472267D01*
X384737791Y-118687794D02*
X384845555Y-118580030D01*
X386837599Y-121100000D02*
X386837599Y-120787599D01*
X386701500Y-121510000D02*
X386837599Y-121373901D01*
X384378584Y-117717926D02*
X384360621Y-117735886D01*
X385186804Y-118705752D02*
X385079040Y-118813516D01*
X379126099Y-117502401D02*
X382410000Y-117502401D01*
X386281247Y-120589607D02*
X386352662Y-120518189D01*
X382410000Y-117502401D02*
X383552401Y-117502401D01*
X384647989Y-118777597D02*
X384737791Y-118687794D01*
X384360621Y-117735886D02*
X384073252Y-118023255D01*
X385079040Y-118813516D02*
X385079040Y-118813515D01*
X386352662Y-120302663D02*
X386298783Y-120248783D01*
X384899435Y-118993120D02*
X384881473Y-119011081D01*
X384073252Y-118023255D02*
X383983449Y-118113057D01*
X383983449Y-118687795D02*
X384073251Y-118777597D01*
X383552401Y-117502401D02*
X383552399Y-117502401D01*
X385276606Y-118615949D02*
X385186804Y-118705752D01*
X378990000Y-117638500D02*
X379126099Y-117502401D01*
X385707656Y-119657659D02*
X385797460Y-119747463D01*
X385546013Y-119675621D02*
X385563974Y-119657659D01*
X386298783Y-120248783D02*
X386180000Y-120130000D01*
X384953320Y-118472268D02*
X385043123Y-118382465D01*
X386837599Y-121373901D02*
X386837599Y-121100000D01*
X385079040Y-118813515D02*
X385007198Y-118885356D01*
X384288781Y-117484440D02*
X384378583Y-117574242D01*
X386622071Y-120787598D02*
X386550655Y-120859015D01*
X386335129Y-120859015D02*
X386281247Y-120805133D01*
X385797460Y-119747463D02*
X386180000Y-120130000D01*
X384845555Y-118580030D02*
X384953320Y-118472268D01*
X384127139Y-117502403D02*
X384145099Y-117484440D01*
X385007198Y-118885356D02*
X384899435Y-118993120D01*
X384881473Y-119585819D02*
X384971275Y-119675621D01*
X384971275Y-119675621D02*
G75*
G03*
X385546013Y-119675621I287369J287369D01*
G01*
X383983449Y-118113057D02*
G75*
G03*
X383983475Y-118687769I287351J-287343D01*
G01*
X384881473Y-119011081D02*
G75*
G03*
X384881423Y-119585869I287327J-287419D01*
G01*
X386281247Y-120805133D02*
G75*
G02*
X386281277Y-120589637I107753J107733D01*
G01*
X386352662Y-120518189D02*
G75*
G03*
X386352688Y-120302637I-107762J107789D01*
G01*
X385563974Y-119657659D02*
G75*
G02*
X385707656Y-119657659I71841J-71839D01*
G01*
X385276607Y-118472267D02*
G75*
G02*
X385276599Y-118615941I-71807J-71833D01*
G01*
X383552399Y-117502401D02*
G75*
G03*
X384127169Y-117502433I287401J287401D01*
G01*
X386550655Y-120859015D02*
G75*
G02*
X386335129Y-120859015I-107763J107763D01*
G01*
X384145099Y-117484440D02*
G75*
G02*
X384288781Y-117484440I71841J-71843D01*
G01*
X384073251Y-118777597D02*
G75*
G03*
X384647989Y-118777597I287369J287369D01*
G01*
X386837599Y-120787599D02*
G75*
G03*
X386622037Y-120787563I-107799J-107801D01*
G01*
X385043123Y-118382465D02*
G75*
G02*
X385186805Y-118382465I71841J-71836D01*
G01*
X384378583Y-117574242D02*
G75*
G02*
X384378600Y-117717941I-71883J-71858D01*
G01*
%TO.N,TFT_DVID_CLK_P*%
X385652401Y-121284712D02*
X385788500Y-121420811D01*
X380026400Y-118804001D02*
X380026400Y-119083401D01*
X383063126Y-118397600D02*
X383152400Y-118486873D01*
X381296400Y-118804001D02*
X381296400Y-119083401D01*
X381626600Y-119083401D02*
X381626600Y-118804001D01*
X380356600Y-118804001D02*
X380356600Y-118397601D01*
X382033000Y-118397601D02*
X382160000Y-118397601D01*
X381296400Y-118397601D02*
X381296400Y-118804001D01*
X380356600Y-118397601D02*
X380356600Y-118216601D01*
X383960622Y-119295095D02*
X384050425Y-119384899D01*
X379620000Y-118397600D02*
X379620000Y-118397601D01*
X384050425Y-119384899D02*
X384627763Y-119962237D01*
X384627763Y-119962237D02*
X385652401Y-120986875D01*
X385652401Y-120986875D02*
X385652401Y-121284712D01*
X379126602Y-118397600D02*
X379620000Y-118397600D01*
X382954834Y-119402859D02*
X383044636Y-119492661D01*
X382160000Y-118397601D02*
X383063126Y-118397600D01*
X383188320Y-119492661D02*
X383385885Y-119295095D01*
X380128000Y-119185001D02*
X380255000Y-119185001D01*
X381296400Y-118216601D02*
X381296400Y-118397601D01*
X380763000Y-117810201D02*
X380890000Y-117810201D01*
X380356600Y-119083401D02*
X380356600Y-118804001D01*
X383152400Y-119061610D02*
X382954834Y-119259175D01*
X378990502Y-118261500D02*
X379126602Y-118397600D01*
X381398000Y-119185001D02*
X381525000Y-119185001D01*
X381626600Y-118804001D02*
G75*
G02*
X382033000Y-118397600I406400J1D01*
G01*
X380026400Y-119083401D02*
G75*
G03*
X380128000Y-119185000I101600J1D01*
G01*
X383044636Y-119492661D02*
G75*
G03*
X383188320Y-119492661I71842J71842D01*
G01*
X381525000Y-119185001D02*
G75*
G03*
X381626601Y-119083401I0J101601D01*
G01*
X380356600Y-118216601D02*
G75*
G02*
X380763000Y-117810200I406400J1D01*
G01*
X380890000Y-117810201D02*
G75*
G02*
X381296399Y-118216601I0J-406399D01*
G01*
X383385885Y-119295095D02*
G75*
G02*
X383960623Y-119295094I287369J-287368D01*
G01*
X382954834Y-119259175D02*
G75*
G03*
X382954851Y-119402842I71866J-71825D01*
G01*
X380255000Y-119185001D02*
G75*
G03*
X380356601Y-119083401I0J101601D01*
G01*
X381296400Y-119083401D02*
G75*
G03*
X381398000Y-119185000I101600J1D01*
G01*
X379620000Y-118397601D02*
G75*
G02*
X380026399Y-118804001I0J-406399D01*
G01*
X383152400Y-118486873D02*
G75*
G02*
X383152359Y-119061569I-287400J-287327D01*
G01*
%TO.N,TFT_DVID_TX1_P*%
X384448649Y-115997599D02*
X388662401Y-120211351D01*
X380492536Y-115843599D02*
X380492536Y-115896000D01*
X382100000Y-115997599D02*
X384448649Y-115997599D01*
X379552734Y-115896000D02*
X379552734Y-115843599D01*
X388662401Y-120211351D02*
X388662401Y-121393901D01*
X381356135Y-115997599D02*
X382100000Y-115997599D01*
X379959135Y-115437198D02*
X380086135Y-115437198D01*
X380492536Y-115896000D02*
X380492536Y-116404000D01*
X380822734Y-116456401D02*
X380822734Y-116404000D01*
X379126601Y-115997599D02*
X379451135Y-115997599D01*
X380492536Y-116404000D02*
X380492536Y-116456401D01*
X380594135Y-116558000D02*
X380721135Y-116558000D01*
X388662401Y-121393901D02*
X388798500Y-121530000D01*
X378990502Y-115861500D02*
X379126601Y-115997599D01*
X381229135Y-115997599D02*
X381356135Y-115997599D01*
X379451135Y-115997599D02*
G75*
G03*
X379552699Y-115896000I-35J101599D01*
G01*
X380721135Y-116558000D02*
G75*
G03*
X380822700Y-116456401I-35J101600D01*
G01*
X379552734Y-115843599D02*
G75*
G02*
X379959135Y-115437234I406366J-1D01*
G01*
X380086135Y-115437198D02*
G75*
G02*
X380492502Y-115843599I-35J-406402D01*
G01*
X380492536Y-116456401D02*
G75*
G03*
X380594135Y-116557964I101564J1D01*
G01*
X380822734Y-116404000D02*
G75*
G02*
X381229135Y-115997634I406366J0D01*
G01*
%TO.N,TFT_DVID_TX1_N*%
X381127536Y-116456401D02*
X381127536Y-116404000D01*
X388357599Y-120464200D02*
X388357599Y-120388000D01*
X381229135Y-116302401D02*
X381356135Y-116302401D01*
X387756863Y-119736863D02*
X384322401Y-116302401D01*
X380187734Y-115843599D02*
X380187734Y-115896000D01*
X388357599Y-121393901D02*
X388357599Y-121150000D01*
X388357599Y-120337599D02*
X387756863Y-119736863D01*
X379126601Y-116302401D02*
X379451135Y-116302401D01*
X381356135Y-116302401D02*
X382100000Y-116302401D01*
X378990502Y-116438500D02*
X379126601Y-116302401D01*
X380187734Y-116404000D02*
X380187734Y-116456401D01*
X388205199Y-120997600D02*
X388126843Y-120997600D01*
X380187734Y-115896000D02*
X380187734Y-116404000D01*
X388357599Y-120388000D02*
X388357599Y-120337599D01*
X379857536Y-115896000D02*
X379857536Y-115843599D01*
X387974443Y-120845200D02*
X387974443Y-120769000D01*
X384322401Y-116302401D02*
X382100000Y-116302401D01*
X379959135Y-115742000D02*
X380086135Y-115742000D01*
X388126843Y-120616600D02*
X388205199Y-120616600D01*
X388221500Y-121530000D02*
X388357599Y-121393901D01*
X380594135Y-116862802D02*
X380721135Y-116862802D01*
X379857536Y-115843599D02*
G75*
G02*
X379959135Y-115742036I101564J-1D01*
G01*
X381127536Y-116404000D02*
G75*
G02*
X381229135Y-116302436I101564J0D01*
G01*
X388357599Y-121150000D02*
G75*
G03*
X388205199Y-120997601I-152399J0D01*
G01*
X380086135Y-115742000D02*
G75*
G02*
X380187700Y-115843599I-35J-101600D01*
G01*
X380187734Y-116456401D02*
G75*
G03*
X380594135Y-116862766I406366J1D01*
G01*
X379451135Y-116302401D02*
G75*
G03*
X379857501Y-115896000I-35J406401D01*
G01*
X388126843Y-120997600D02*
G75*
G02*
X387974400Y-120845200I-43J152400D01*
G01*
X380721135Y-116862802D02*
G75*
G03*
X381127502Y-116456401I-35J406402D01*
G01*
X388205199Y-120616600D02*
G75*
G03*
X388357600Y-120464200I1J152400D01*
G01*
X387974443Y-120769000D02*
G75*
G02*
X388126843Y-120616643I152357J0D01*
G01*
%TO.N,TFT_DVID_TX0_P*%
X384630028Y-118364503D02*
X384737792Y-118256739D01*
X384594112Y-117933454D02*
X384576149Y-117951414D01*
X383911610Y-117286875D02*
X383929572Y-117268914D01*
X385492135Y-118831477D02*
X385402331Y-118921278D01*
X385330486Y-119460093D02*
X385348447Y-119442131D01*
X385114962Y-119208647D02*
X385097001Y-119226609D01*
X384504310Y-117268914D02*
X384594112Y-117358716D01*
X384576149Y-117951414D02*
X384396544Y-118131019D01*
X386454946Y-119973896D02*
X387142401Y-120661351D01*
X384396543Y-118131018D02*
X384288780Y-118238782D01*
X386012988Y-119531935D02*
X386454946Y-119973896D01*
X378990000Y-117061500D02*
X379126099Y-117197599D01*
X382410000Y-117197599D02*
X383678649Y-117197599D01*
X385923185Y-119442131D02*
X386012988Y-119531935D01*
X384198977Y-118472267D02*
X384288779Y-118562069D01*
X383678649Y-117197599D02*
X383767926Y-117286874D01*
X384522264Y-118472266D02*
X384630028Y-118364502D01*
X384737792Y-118256739D02*
X384827593Y-118166935D01*
X384630028Y-118364502D02*
X384630028Y-118364503D01*
X384288780Y-118238782D02*
X384198977Y-118328585D01*
X384432462Y-118562069D02*
X384522264Y-118472266D01*
X387142401Y-120661351D02*
X387142401Y-121373901D01*
X385097001Y-119370291D02*
X385186803Y-119460093D01*
X379126099Y-117197599D02*
X382410000Y-117197599D01*
X385402331Y-118921278D02*
X385222726Y-119100884D01*
X385222726Y-119100884D02*
X385114962Y-119208647D01*
X384396544Y-118131019D02*
X384396543Y-118131018D01*
X385402333Y-118166937D02*
X385492135Y-118256739D01*
X387142401Y-121373901D02*
X387278500Y-121510000D01*
X383929572Y-117268914D02*
G75*
G02*
X384504310Y-117268914I287369J-287366D01*
G01*
X385186803Y-119460093D02*
G75*
G03*
X385330486Y-119460093I71841J71844D01*
G01*
X384594112Y-117358716D02*
G75*
G02*
X384594127Y-117933469I-287412J-287384D01*
G01*
X384288779Y-118562069D02*
G75*
G03*
X384432462Y-118562070I71842J71844D01*
G01*
X385097001Y-119226609D02*
G75*
G03*
X385096951Y-119370341I71799J-71891D01*
G01*
X384827593Y-118166935D02*
G75*
G02*
X385402371Y-118166899I287407J-287365D01*
G01*
X385348447Y-119442131D02*
G75*
G02*
X385923185Y-119442131I287369J-287369D01*
G01*
X383767926Y-117286874D02*
G75*
G03*
X383911641Y-117286907I71874J71874D01*
G01*
X385492135Y-118256739D02*
G75*
G02*
X385492127Y-118831469I-287335J-287361D01*
G01*
X384198977Y-118328585D02*
G75*
G03*
X384199003Y-118472241I71823J-71815D01*
G01*
%TO.N,TFT_DVID_TX2_P*%
X390157599Y-121411290D02*
X390293698Y-121547389D01*
X390157599Y-119936549D02*
X390157599Y-121411290D01*
X378934740Y-114661500D02*
X379070839Y-114797599D01*
X379070839Y-114797599D02*
X385018649Y-114797599D01*
X385018649Y-114797599D02*
X390157599Y-119936549D01*
D47*
%TO.N,USB_SUSPEND*%
X344930000Y-119240000D02*
X356100000Y-119240000D01*
X384630000Y-129890000D02*
X386290000Y-131550000D01*
X407430000Y-131090000D02*
X407110000Y-130770000D01*
X339270001Y-119160001D02*
X339340000Y-119230000D01*
X339110000Y-119160001D02*
X339270001Y-119160001D01*
X366750000Y-129890000D02*
X384630000Y-129890000D01*
X339340000Y-119230000D02*
X339350000Y-119240000D01*
X409510000Y-114030000D02*
X409510000Y-111090000D01*
X356100000Y-119240000D02*
X366750000Y-129890000D01*
X339350000Y-119240000D02*
X344930000Y-119240000D01*
X407110000Y-130770000D02*
X407110000Y-116430000D01*
X407110000Y-116430000D02*
X409510000Y-114030000D01*
%TO.N,FLEX_STATE*%
X425120000Y-144100000D02*
X425120000Y-130310000D01*
X426369200Y-126939200D02*
X425530000Y-126100000D01*
X332270000Y-118480000D02*
X332270000Y-136780000D01*
X416000600Y-143130208D02*
X416000600Y-151020000D01*
X332270000Y-136780000D02*
X344295000Y-148805000D01*
X416074839Y-143055969D02*
X416000600Y-143130208D01*
X425120000Y-130310000D02*
X426369200Y-129060800D01*
X344295000Y-148805000D02*
X378575000Y-148805000D01*
X416000600Y-151020000D02*
X416090600Y-151110000D01*
X378575000Y-148805000D02*
X379860000Y-150090000D01*
X426369200Y-129060800D02*
X426369200Y-126939200D01*
%TO.N,SYSMCU_SCLK*%
X423870800Y-153120800D02*
X423870800Y-116900800D01*
X424600000Y-156000000D02*
X424600000Y-153850000D01*
X424600000Y-153850000D02*
X423870800Y-153120800D01*
X423870800Y-116900800D02*
X423400000Y-116430000D01*
%TO.N,/System MCU\u002C Watchdog\u002C EEPROM/SPKR_OUT*%
X414590000Y-133740000D02*
X413770000Y-132920000D01*
X413770000Y-118410000D02*
X413140000Y-117780000D01*
X415310000Y-156060000D02*
X415310000Y-140940000D01*
X415310000Y-140940000D02*
X414590000Y-140220000D01*
X414680000Y-156690000D02*
X415310000Y-156060000D01*
X414590000Y-140220000D02*
X414590000Y-133740000D01*
X414680000Y-160200000D02*
X414680000Y-156690000D01*
X413770000Y-132920000D02*
X413770000Y-118410000D01*
%TO.N,USBC_ID*%
X419800000Y-152430000D02*
X419930000Y-152560000D01*
X417050000Y-106030000D02*
X419880000Y-108860000D01*
X420349400Y-128470600D02*
X419800000Y-129020000D01*
X419880000Y-124700600D02*
X420349400Y-125170000D01*
X419800000Y-129020000D02*
X419800000Y-152430000D01*
X417050000Y-105750000D02*
X417050000Y-106030000D01*
X420349400Y-125170000D02*
X420349400Y-128470600D01*
X419880000Y-108860000D02*
X419880000Y-124700600D01*
%TO.N,USBC_PORT_ROLE*%
X417063800Y-119433800D02*
X416200000Y-118570000D01*
X415800000Y-156760000D02*
X417063800Y-155496200D01*
X373350000Y-166590000D02*
X376290000Y-163650000D01*
X417063800Y-155496200D02*
X417063800Y-119433800D01*
X370740000Y-166590000D02*
X373350000Y-166590000D01*
X376290000Y-163650000D02*
X376310000Y-163650000D01*
%TO.N,~{USBC_IRQ}*%
X419600600Y-124830600D02*
X420070000Y-125300000D01*
X420070000Y-125300000D02*
X420070000Y-128350000D01*
X420070000Y-128350000D02*
X419490000Y-128930000D01*
X419490000Y-128930000D02*
X419490000Y-153040000D01*
X416160000Y-105780000D02*
X419600600Y-109220600D01*
X419600600Y-109220600D02*
X419600600Y-124830600D01*
%TO.N,~{USBC_OCS}*%
X414870000Y-133600000D02*
X414870000Y-140104868D01*
X414668800Y-103668800D02*
X414668800Y-111287604D01*
X415589400Y-140824269D02*
X415589400Y-156175732D01*
X415120000Y-156645132D02*
X415120000Y-165380000D01*
X414670000Y-115040000D02*
X414080000Y-115630000D01*
X414080000Y-132810000D02*
X414870000Y-133600000D01*
X415120000Y-165380000D02*
X413800000Y-166700000D01*
X414600000Y-103600000D02*
X414668800Y-103668800D01*
X414670000Y-111288804D02*
X414670000Y-115040000D01*
X414080000Y-115630000D02*
X414080000Y-132810000D01*
X414668800Y-111287604D02*
X414670000Y-111288804D01*
X414870000Y-140104868D02*
X415589400Y-140824269D01*
X415589400Y-156175732D02*
X415120000Y-156645132D01*
%TO.N,DIB_SCL*%
X356420000Y-123520000D02*
X346570000Y-123520000D01*
X394190000Y-129180000D02*
X392490000Y-129180000D01*
X374794637Y-143253695D02*
X374662771Y-143121829D01*
X375573695Y-143080000D02*
X375400000Y-143253695D01*
X374662771Y-141762771D02*
X356420000Y-123520000D01*
X374662771Y-143121829D02*
X374662771Y-141762771D01*
X392490000Y-129180000D02*
X378590000Y-143080000D01*
X378590000Y-143080000D02*
X375573695Y-143080000D01*
X345820000Y-122770000D02*
X345820000Y-122358000D01*
X375400000Y-143253695D02*
X374794637Y-143253695D01*
X346570000Y-123520000D02*
X345820000Y-122770000D01*
%TO.N,~{USBC_OC}*%
X413400000Y-138680000D02*
X413400000Y-145380000D01*
X410770000Y-136050000D02*
X413400000Y-138680000D01*
X410770000Y-131760000D02*
X410770000Y-136050000D01*
X413400000Y-145380000D02*
X411300000Y-147480000D01*
X409590000Y-130580000D02*
X410770000Y-131760000D01*
X409590000Y-129090000D02*
X409590000Y-130580000D01*
D52*
%TO.N,REAR_USB_BTM_D+*%
X412437599Y-138888000D02*
X412437599Y-138753125D01*
X306438800Y-94033600D02*
X306438800Y-94675000D01*
X307894800Y-89039274D02*
X307894800Y-93230726D01*
X412437599Y-138753125D02*
X411240358Y-137555884D01*
X370310000Y-103485526D02*
X348506874Y-81682400D01*
X411240358Y-137555884D02*
X401806874Y-128122400D01*
X348506874Y-81682400D02*
X310553126Y-81682400D01*
X412285199Y-139497600D02*
X412207659Y-139497600D01*
X307303126Y-93822400D02*
X306650000Y-93822400D01*
X307894800Y-93230726D02*
X307303126Y-93822400D01*
X375856252Y-128124800D02*
X375509274Y-128124800D01*
X412055259Y-139345200D02*
X412055259Y-139269000D01*
X412207659Y-139116600D02*
X412285199Y-139116600D01*
X370310000Y-122925526D02*
X370310000Y-103485526D01*
X412437599Y-140011648D02*
X412437599Y-139650000D01*
X401806874Y-128122400D02*
X375858652Y-128122400D01*
X375858652Y-128122400D02*
X375856252Y-128124800D01*
X310553126Y-81682400D02*
X306872400Y-85363126D01*
X412301500Y-140147747D02*
X412437599Y-140011648D01*
X306872400Y-85363126D02*
X306872400Y-88016874D01*
X412437599Y-138964200D02*
X412437599Y-138888000D01*
X306872400Y-88016874D02*
X307894800Y-89039274D01*
X306650000Y-93822400D02*
X306438800Y-94033600D01*
X375509274Y-128124800D02*
X370310000Y-122925526D01*
X412285199Y-139116600D02*
G75*
G03*
X412437600Y-138964200I1J152400D01*
G01*
X412055259Y-139269000D02*
G75*
G02*
X412207659Y-139116559I152441J0D01*
G01*
X412437599Y-139650000D02*
G75*
G03*
X412285199Y-139497601I-152399J0D01*
G01*
X412207659Y-139497600D02*
G75*
G02*
X412055300Y-139345200I41J152400D01*
G01*
%TO.N,REAR_USB_BTM_D-*%
X306650000Y-93517600D02*
X306438800Y-93306400D01*
X375633126Y-127813200D02*
X375628726Y-127813200D01*
X306567600Y-88143126D02*
X307590000Y-89165526D01*
X370614800Y-122799274D02*
X370614800Y-103359274D01*
X375633126Y-127817600D02*
X375628726Y-127813200D01*
X375628726Y-127813200D02*
X370614800Y-122799274D01*
X307590000Y-93104474D02*
X307176874Y-93517600D01*
X306567600Y-85236874D02*
X306567600Y-88143126D01*
X306438800Y-93306400D02*
X306438800Y-92665000D01*
X307590000Y-89165526D02*
X307590000Y-93104474D01*
X412878500Y-140147747D02*
X412742401Y-140011648D01*
X401933126Y-127817600D02*
X375633126Y-127817600D01*
X348633126Y-81377600D02*
X310426874Y-81377600D01*
X412742401Y-140011648D02*
X412742401Y-138626875D01*
X412742401Y-138626875D02*
X401933126Y-127817600D01*
X370614800Y-103359274D02*
X348633126Y-81377600D01*
X310426874Y-81377600D02*
X306567600Y-85236874D01*
X307176874Y-93517600D02*
X306650000Y-93517600D01*
D47*
%TO.N,SYS_SCL*%
X320570000Y-152510000D02*
X320926200Y-152153800D01*
X413470000Y-130860000D02*
X413470000Y-133014868D01*
X356463800Y-152153800D02*
X362500000Y-158190000D01*
X413470000Y-133014868D02*
X414290000Y-133834868D01*
X405150000Y-125511196D02*
X404858800Y-125802396D01*
X405330000Y-119150000D02*
X405150000Y-119150000D01*
X406332437Y-103497563D02*
X405150000Y-104680000D01*
X404858800Y-125802396D02*
X404858800Y-126808800D01*
X408189603Y-103497563D02*
X406332437Y-103497563D01*
X414290000Y-133834868D02*
X414290000Y-155128800D01*
X405150000Y-119150000D02*
X405150000Y-125511196D01*
X405150000Y-104680000D02*
X405150000Y-119150000D01*
X320926200Y-152153800D02*
X356463800Y-152153800D01*
X414290000Y-155128800D02*
X414441200Y-155280000D01*
X404858800Y-126808800D02*
X405030000Y-126980000D01*
X413180000Y-130570000D02*
X413470000Y-130860000D01*
%TO.N,SYS_SDA*%
X321430000Y-152670000D02*
X321640000Y-152460000D01*
X412640000Y-131030000D02*
X412840000Y-131030000D01*
X413940000Y-138730000D02*
X413940000Y-155810000D01*
X404870600Y-125395465D02*
X404408986Y-125857079D01*
X413760000Y-133700000D02*
X413940000Y-133880000D01*
X406400000Y-103000000D02*
X404870600Y-104529400D01*
X361966020Y-158096020D02*
X361966020Y-158653980D01*
X404408986Y-125857079D02*
X404408986Y-127171950D01*
X407520000Y-103000000D02*
X406400000Y-103000000D01*
X356330000Y-152460000D02*
X361966020Y-158096020D01*
X413940000Y-133880000D02*
X413940000Y-138730000D01*
X413180000Y-131370000D02*
X413180000Y-133120000D01*
X412840000Y-131030000D02*
X413180000Y-131370000D01*
X321640000Y-152460000D02*
X356330000Y-152460000D01*
X413940000Y-155810000D02*
X413970000Y-155840000D01*
X413180000Y-133120000D02*
X413760000Y-133700000D01*
X404870600Y-104529400D02*
X404870600Y-125395465D01*
%TO.N,/USB-C socket\u002C Mux\u002C CC/USBC_VBUS*%
X371121624Y-160308376D02*
X370310000Y-161120000D01*
X372169098Y-160308376D02*
X371121624Y-160308376D01*
X371074998Y-167170000D02*
X371200000Y-167295002D01*
X370310000Y-166930690D02*
X370549310Y-167170000D01*
X370549310Y-167170000D02*
X371074998Y-167170000D01*
X370310000Y-161120000D02*
X370310000Y-166930690D01*
%TO.N,/USB-C socket\u002C Mux\u002C CC/USBC_SEL*%
X340690000Y-141690000D02*
X338140000Y-141690000D01*
X334880000Y-117290000D02*
X335560000Y-116610000D01*
X370650000Y-167740000D02*
X371740121Y-167740000D01*
X370030000Y-156050000D02*
X370030000Y-167120000D01*
X370210000Y-155870000D02*
X370030000Y-156050000D01*
X334880000Y-138430000D02*
X334880000Y-117290000D01*
X338140000Y-141690000D02*
X334880000Y-138430000D01*
X371740121Y-167740000D02*
X372000121Y-167480000D01*
X370030000Y-167120000D02*
X370650000Y-167740000D01*
D52*
%TO.N,/USB-C socket\u002C Mux\u002C CC/USBC_TX2+*%
X366957600Y-168293126D02*
X366957600Y-167240000D01*
X369407600Y-173782400D02*
X369407600Y-170743126D01*
X366647600Y-174152800D02*
X366647600Y-174074273D01*
X366800000Y-173921873D02*
X366876200Y-173921873D01*
X366152401Y-173962401D02*
X366323074Y-174133074D01*
X368884800Y-174305200D02*
X369407600Y-173782400D01*
X368019200Y-174305200D02*
X368521607Y-174305200D01*
X367562000Y-173921853D02*
X367638200Y-173921853D01*
X367790600Y-174074253D02*
X367790600Y-174152800D01*
X366957600Y-167240000D02*
X366957599Y-167239999D01*
X366152401Y-172957599D02*
X366152401Y-173962401D01*
X366957599Y-161156099D02*
X366821500Y-161020000D01*
X369407600Y-170743126D02*
X366957600Y-168293126D01*
X368521607Y-174305200D02*
X368884800Y-174305200D01*
X366400000Y-172710000D02*
X366152401Y-172957599D01*
X367943000Y-174305200D02*
X368019200Y-174305200D01*
X366957599Y-167239999D02*
X366957599Y-161156099D01*
X367409600Y-174152800D02*
X367409600Y-174074253D01*
X366323074Y-174133074D02*
X366495200Y-174305200D01*
X367181000Y-174305200D02*
X367257200Y-174305200D01*
X367028600Y-174074273D02*
X367028600Y-174152800D01*
X367257200Y-174305200D02*
G75*
G03*
X367409600Y-174152800I0J152400D01*
G01*
X366647600Y-174074273D02*
G75*
G02*
X366800000Y-173921900I152400J-27D01*
G01*
X366876200Y-173921873D02*
G75*
G02*
X367028627Y-174074273I0J-152427D01*
G01*
X367409600Y-174074253D02*
G75*
G02*
X367562000Y-173921900I152400J-47D01*
G01*
X367028600Y-174152800D02*
G75*
G03*
X367181000Y-174305200I152400J0D01*
G01*
X367790600Y-174152800D02*
G75*
G03*
X367943000Y-174305200I152400J0D01*
G01*
X366495200Y-174305200D02*
G75*
G03*
X366647600Y-174152800I0J152400D01*
G01*
X367638200Y-173921853D02*
G75*
G02*
X367790647Y-174074253I0J-152447D01*
G01*
%TO.N,/USB-C socket\u002C Mux\u002C CC/USBC_RX1-*%
X362400000Y-172710000D02*
X362152401Y-172462401D01*
X362152401Y-172462401D02*
X362152401Y-163573125D01*
X364093901Y-161832401D02*
X364230000Y-161968500D01*
X363893125Y-161832401D02*
X364093901Y-161832401D01*
X362152401Y-163573125D02*
X363893125Y-161832401D01*
%TO.N,/USB-C socket\u002C Mux\u002C CC/USBC_TX2-*%
X366368950Y-174610000D02*
X369011050Y-174610000D01*
X367262401Y-161156099D02*
X367398500Y-161020000D01*
X369712400Y-170616874D02*
X367262400Y-168166874D01*
X367262401Y-168166873D02*
X367262401Y-161156099D01*
X365600000Y-172710000D02*
X365847599Y-172957599D01*
X369712400Y-173908650D02*
X369712400Y-170616874D01*
X365847599Y-174088649D02*
X366368950Y-174610000D01*
X369011050Y-174610000D02*
X369712400Y-173908650D01*
X365847599Y-172957599D02*
X365847599Y-174088649D01*
X367262400Y-168166874D02*
X367262401Y-168166873D01*
%TO.N,/USB-C socket\u002C Mux\u002C CC/USBC_RX2+*%
X366153900Y-160683900D02*
X364868525Y-159398525D01*
X366153900Y-169833900D02*
X366153900Y-160683900D01*
X364868525Y-159398525D02*
X364402601Y-159398525D01*
X366290000Y-169970000D02*
X366153900Y-169833900D01*
X364402601Y-159398525D02*
X364266502Y-159262426D01*
%TO.N,/USB-C socket\u002C Mux\u002C CC/USBC_RX2-*%
X365507892Y-162424600D02*
X365696700Y-162424600D01*
X365713000Y-169970000D02*
X365849100Y-169833900D01*
X365355492Y-162653200D02*
X365355492Y-162577000D01*
X365024052Y-159985102D02*
X364742277Y-159703327D01*
X365849100Y-163034200D02*
X365849100Y-162958000D01*
X364402601Y-159703327D02*
X364266502Y-159839426D01*
X365355492Y-163415200D02*
X365355492Y-163339000D01*
X365284539Y-160943657D02*
X365230657Y-160889775D01*
X365230657Y-160674249D02*
X365364163Y-160540740D01*
X365696700Y-162805600D02*
X365507892Y-162805600D01*
X365310284Y-160271334D02*
X365024052Y-159985102D01*
X365507892Y-163186600D02*
X365696700Y-163186600D01*
X365849100Y-162272200D02*
X365849100Y-162196000D01*
X365507872Y-161662600D02*
X365696700Y-161662600D01*
X365633572Y-160810149D02*
X365500065Y-160943657D01*
X365849100Y-161003000D02*
X365849100Y-160810150D01*
X364742277Y-159703327D02*
X364402601Y-159703327D01*
X365849100Y-161434000D02*
X365849100Y-161003000D01*
X365696700Y-163567600D02*
X365507892Y-163567600D01*
X365355472Y-161891200D02*
X365355472Y-161815000D01*
X365696700Y-162043600D02*
X365507872Y-162043600D01*
X365849100Y-161510200D02*
X365849100Y-161434000D01*
X365364163Y-160325214D02*
X365310284Y-160271334D01*
X365849100Y-169833900D02*
X365849100Y-163720000D01*
X365507892Y-163567600D02*
G75*
G02*
X365355500Y-163415200I8J152400D01*
G01*
X365696700Y-161662600D02*
G75*
G03*
X365849100Y-161510200I0J152400D01*
G01*
X365500065Y-160943657D02*
G75*
G02*
X365284539Y-160943657I-107763J107763D01*
G01*
X365696700Y-162424600D02*
G75*
G03*
X365849100Y-162272200I0J152400D01*
G01*
X365849100Y-163720000D02*
G75*
G03*
X365696700Y-163567600I-152400J0D01*
G01*
X365355492Y-162577000D02*
G75*
G02*
X365507892Y-162424592I152408J0D01*
G01*
X365696700Y-163186600D02*
G75*
G03*
X365849100Y-163034200I0J152400D01*
G01*
X365364163Y-160540740D02*
G75*
G03*
X365364140Y-160325237I-107763J107740D01*
G01*
X365355492Y-163339000D02*
G75*
G02*
X365507892Y-163186592I152408J0D01*
G01*
X365507892Y-162805600D02*
G75*
G02*
X365355500Y-162653200I8J152400D01*
G01*
X365849100Y-162196000D02*
G75*
G03*
X365696700Y-162043600I-152400J0D01*
G01*
X365849100Y-162958000D02*
G75*
G03*
X365696700Y-162805600I-152400J0D01*
G01*
X365355472Y-161815000D02*
G75*
G02*
X365507872Y-161662572I152428J0D01*
G01*
X365507872Y-162043600D02*
G75*
G02*
X365355500Y-161891200I28J152400D01*
G01*
X365230657Y-160889775D02*
G75*
G02*
X365230645Y-160674237I107743J107775D01*
G01*
X365849100Y-160810150D02*
G75*
G03*
X365633537Y-160810113I-107800J-107750D01*
G01*
%TO.N,/USB-C socket\u002C Mux\u002C CC/USBC_RX1+*%
X361600000Y-172710000D02*
X361847599Y-172462401D01*
X361847599Y-172462401D02*
X361847599Y-163446875D01*
X363766875Y-161527599D02*
X364093901Y-161527599D01*
X364093901Y-161527599D02*
X364230000Y-161391500D01*
X361847599Y-163446875D02*
X363766875Y-161527599D01*
D47*
%TO.N,/USB-C socket\u002C Mux\u002C CC/CC1*%
X363280116Y-169250000D02*
X364060000Y-168470116D01*
X363280116Y-171440100D02*
X363280116Y-169250000D01*
X364060000Y-165146088D02*
X363969324Y-165055412D01*
X364060000Y-168470116D02*
X364060000Y-165146088D01*
%TO.N,Net-(IC2B-2Y)*%
X403040000Y-114720000D02*
X403040000Y-98352651D01*
X403040000Y-98352651D02*
X404530900Y-96861751D01*
X403260000Y-114940000D02*
X403040000Y-114720000D01*
X404532650Y-96860001D02*
X404530900Y-96861751D01*
%TO.N,Net-(IC1A-1A)*%
X336270000Y-116280000D02*
X336270000Y-122810000D01*
X332250000Y-115860000D02*
X335850000Y-115860000D01*
X336270000Y-122810000D02*
X338190000Y-124730000D01*
X335850000Y-115860000D02*
X336270000Y-116280000D01*
X332220000Y-115830000D02*
X332250000Y-115860000D01*
X338190000Y-124730000D02*
X341690000Y-124730000D01*
%TO.N,/USB-C socket\u002C Mux\u002C CC/PWM_OUT*%
X324500000Y-162470000D02*
X324500000Y-154480000D01*
X324500000Y-154480000D02*
X324160000Y-154140000D01*
X316438486Y-173814835D02*
X316438486Y-170531514D01*
X316438486Y-170531514D02*
X324500000Y-162470000D01*
%TO.N,/USB-C socket\u002C Mux\u002C CC/FAN_SENSE1*%
X318978486Y-168841514D02*
X318978486Y-168541514D01*
X318978486Y-168541514D02*
X324890000Y-162630000D01*
X318978486Y-173814835D02*
X318978486Y-168841514D01*
X324890000Y-162630000D02*
X324890000Y-153199835D01*
%TO.N,RTC_OUT*%
X341971196Y-112910000D02*
X331280000Y-112910000D01*
X329939400Y-124355732D02*
X329936200Y-124358932D01*
X329936200Y-124121068D02*
X329939400Y-124124268D01*
X329939400Y-124124268D02*
X329939400Y-124355732D01*
X343041200Y-112768800D02*
X342112396Y-112768800D01*
X329936200Y-144363800D02*
X325274787Y-149025213D01*
X329936200Y-114253800D02*
X329936200Y-124121068D01*
X343050000Y-112760000D02*
X343041200Y-112768800D01*
X331280000Y-112910000D02*
X329936200Y-114253800D01*
X342112396Y-112768800D02*
X341971196Y-112910000D01*
X325274787Y-149025213D02*
X325236858Y-149025213D01*
X329936200Y-124358932D02*
X329936200Y-144363800D01*
D52*
%TO.N,REAR_USB_TOP_D+*%
X309058800Y-94034516D02*
X309270916Y-93822400D01*
X314152400Y-86803126D02*
X314152400Y-93013126D01*
X313343126Y-93822400D02*
X309270916Y-93822400D01*
X309058800Y-94675000D02*
X309058800Y-94034516D01*
X369108322Y-106211678D02*
X369108322Y-105983849D01*
X368577600Y-105453127D02*
X368577600Y-103543126D01*
X314152400Y-93013126D02*
X313343126Y-93822400D01*
X369108322Y-105983849D02*
X368577600Y-105453127D01*
X350254474Y-85220000D02*
X315735526Y-85220000D01*
X368577600Y-103543126D02*
X350254474Y-85220000D01*
X315735526Y-85220000D02*
X314152400Y-86803126D01*
%TO.N,REAR_USB_TOP_D-*%
X368882400Y-103416874D02*
X350380726Y-84915200D01*
X369323849Y-105768322D02*
X368882400Y-105326873D01*
X368882400Y-105326873D02*
X368882400Y-103416874D01*
X313216874Y-93517600D02*
X309270916Y-93517600D01*
X309058800Y-92665000D02*
X309058800Y-93305484D01*
X315609274Y-84915200D02*
X313847600Y-86676874D01*
X313847600Y-92886874D02*
X313216874Y-93517600D01*
X309058800Y-93305484D02*
X309270916Y-93517600D01*
X313847600Y-86676874D02*
X313847600Y-92886874D01*
X350380726Y-84915200D02*
X315609274Y-84915200D01*
X369551678Y-105768322D02*
X369323849Y-105768322D01*
D47*
%TO.N,Net-(IC6-PD0)*%
X420170000Y-124350000D02*
X420370000Y-124550000D01*
X420170000Y-108745131D02*
X420170000Y-124350000D01*
X418125602Y-106700733D02*
X420170000Y-108745131D01*
X418125602Y-105913099D02*
X418125602Y-106700733D01*
%TO.N,Net-(IC6-PD2)*%
X420890000Y-116449802D02*
X420908200Y-116468002D01*
X421166200Y-112417960D02*
X420890000Y-112694160D01*
X421166200Y-109346199D02*
X421166200Y-112417960D01*
X418790000Y-106969999D02*
X421166200Y-109346199D01*
X420908200Y-122438200D02*
X421320000Y-122850000D01*
X420908200Y-116468002D02*
X420908200Y-122438200D01*
X418790000Y-101440000D02*
X418790000Y-106969999D01*
X420890000Y-112694160D02*
X420890000Y-116449802D01*
D53*
%TO.N,Net-(X4-IN+-Pad1)*%
X436040000Y-158520000D02*
X436040000Y-148360000D01*
X436040000Y-158520000D02*
X433500000Y-158520000D01*
X433500000Y-158520000D02*
X433500000Y-148360000D01*
D47*
%TO.N,Net-(D6-PadC)*%
X390450000Y-105920000D02*
X391660000Y-107130000D01*
X390450000Y-96720000D02*
X390450000Y-105920000D01*
X391660000Y-107130000D02*
X391660000Y-113940000D01*
D53*
%TO.N,Net-(X4-IN--Pad15)*%
X436040000Y-138200000D02*
X433500000Y-138200000D01*
X436040000Y-138200000D02*
X436040000Y-140740000D01*
X436040000Y-140740000D02*
X436040000Y-143280000D01*
X433500000Y-138200000D02*
X433500000Y-140740000D01*
X433500000Y-140740000D02*
X433500000Y-143280000D01*
X436040000Y-143280000D02*
X436040000Y-145820000D01*
X433500000Y-143280000D02*
X433500000Y-145820000D01*
D47*
%TO.N,Net-(IC9A-SPI_DI{slash}GPIO9{slash}CFG_BC_EN)*%
X410790000Y-125607196D02*
X410472804Y-125290000D01*
X410790000Y-130447861D02*
X410790000Y-125607196D01*
%TO.N,Net-(IC9A-SPI_CE_N{slash}GPIO7{slash}CFG_NON_REM)*%
X409190000Y-125227070D02*
X409197070Y-125220000D01*
X409190000Y-127810000D02*
X409190000Y-125227070D01*
X410290000Y-128910000D02*
X409190000Y-127810000D01*
%TO.N,Net-(IC9A-SPEED_IND3{slash}BC_IND3{slash}GPIO2)*%
X415938768Y-125421232D02*
X415938768Y-125296531D01*
X415660000Y-125700000D02*
X415660000Y-130010000D01*
X415660000Y-130010000D02*
X415200000Y-130470000D01*
X415660000Y-125700000D02*
X415938768Y-125421232D01*
%TO.N,Net-(IC9A-C_ATTACH0{slash}GPIO64)*%
X397440000Y-129900000D02*
X402857708Y-129900000D01*
X402943388Y-129985680D02*
X403018300Y-129985680D01*
X402857708Y-129900000D02*
X402943388Y-129985680D01*
X397200000Y-130140000D02*
X397440000Y-129900000D01*
D51*
%TO.N,Net-(IC10-IN-Pad1)*%
X375110000Y-158750000D02*
X374940000Y-158580000D01*
X378360000Y-167820000D02*
X378360000Y-162000000D01*
X374940000Y-158580000D02*
X374610000Y-158580000D01*
X380640000Y-174840000D02*
X378360000Y-172560000D01*
X378360000Y-162000000D02*
X375110000Y-158750000D01*
X378360000Y-172560000D02*
X378360000Y-167820000D01*
D47*
%TO.N,Net-(R67-Pad1)*%
X318860000Y-91510000D02*
X320890000Y-93540000D01*
X318018800Y-91510000D02*
X318860000Y-91510000D01*
X320890000Y-93540000D02*
X320890000Y-98780000D01*
D52*
%TO.N,USBC_D+*%
X405634474Y-153290000D02*
X368484474Y-153290000D01*
X363800239Y-171410239D02*
X363800239Y-170107223D01*
X364152401Y-172257599D02*
X364400000Y-172010000D01*
X359400000Y-174620000D02*
X363411050Y-174620000D01*
X409567600Y-140400000D02*
X409567600Y-149356874D01*
X358737600Y-163036874D02*
X358737600Y-173957600D01*
X358737600Y-173957600D02*
X359400000Y-174620000D01*
X364152401Y-173878649D02*
X364152401Y-172257599D01*
X364400000Y-172010000D02*
X363800239Y-171410239D01*
X363411050Y-174620000D02*
X364152401Y-173878649D01*
X409567600Y-149356874D02*
X405634474Y-153290000D01*
X368484474Y-153290000D02*
X358737600Y-163036874D01*
%TO.N,USBC_D-*%
X363284800Y-174315200D02*
X362853800Y-174315200D01*
X361737000Y-174315200D02*
X361660800Y-174315200D01*
X363308783Y-174291216D02*
X363284800Y-174315200D01*
X360975000Y-174315200D02*
X360898800Y-174315200D01*
X360136800Y-174315200D02*
X359780000Y-174315200D01*
X409872400Y-149483126D02*
X409872400Y-140400000D01*
X361508400Y-174162800D02*
X361508400Y-173843596D01*
X363847599Y-173722146D02*
X363847599Y-173752401D01*
X360213000Y-174315200D02*
X360136800Y-174315200D01*
X359526250Y-174315200D02*
X359042400Y-173831350D01*
X363136922Y-173796066D02*
X363362663Y-174021807D01*
X363847599Y-173291146D02*
X363847599Y-173722146D01*
X368610726Y-153594800D02*
X405760726Y-153594800D01*
X363190804Y-173526659D02*
X363136922Y-173580540D01*
X362270400Y-174162800D02*
X362270400Y-173843596D01*
X363847599Y-172257599D02*
X363847599Y-173291146D01*
X361127400Y-173843596D02*
X361127400Y-174162800D01*
X359042400Y-163163126D02*
X368610726Y-153594800D01*
X405760726Y-153594800D02*
X409872400Y-149483126D01*
X361356000Y-173691196D02*
X361279800Y-173691196D01*
X361889400Y-173843596D02*
X361889400Y-174162800D01*
X363362663Y-174237333D02*
X363308783Y-174291216D01*
X359780000Y-174315200D02*
X359526250Y-174315200D01*
X359042400Y-173831350D02*
X359042400Y-163163126D01*
X363600000Y-172010000D02*
X363847599Y-172257599D01*
X360365400Y-173843596D02*
X360365400Y-174162800D01*
X360594000Y-173691196D02*
X360517800Y-173691196D01*
X360746400Y-174162800D02*
X360746400Y-173843596D01*
X362118000Y-173691196D02*
X362041800Y-173691196D01*
X363632072Y-173752401D02*
X363406330Y-173526659D01*
X362853800Y-174315200D02*
X362422800Y-174315200D01*
X362041800Y-173691196D02*
G75*
G03*
X361889396Y-173843596I0J-152404D01*
G01*
X363136922Y-173580540D02*
G75*
G03*
X363136925Y-173796063I107778J-107760D01*
G01*
X363847599Y-173752401D02*
G75*
G02*
X363632072Y-173752401I-107763J107764D01*
G01*
X360365400Y-174162800D02*
G75*
G02*
X360213000Y-174315200I-152400J0D01*
G01*
X361127400Y-174162800D02*
G75*
G02*
X360975000Y-174315200I-152400J0D01*
G01*
X360898800Y-174315200D02*
G75*
G02*
X360746400Y-174162800I0J152400D01*
G01*
X361279800Y-173691196D02*
G75*
G03*
X361127396Y-173843596I0J-152404D01*
G01*
X362422800Y-174315200D02*
G75*
G02*
X362270400Y-174162800I0J152400D01*
G01*
X361508400Y-173843596D02*
G75*
G03*
X361356000Y-173691200I-152400J-4D01*
G01*
X361660800Y-174315200D02*
G75*
G02*
X361508400Y-174162800I0J152400D01*
G01*
X362270400Y-173843596D02*
G75*
G03*
X362118000Y-173691200I-152400J-4D01*
G01*
X360517800Y-173691196D02*
G75*
G03*
X360365396Y-173843596I0J-152404D01*
G01*
X360746400Y-173843596D02*
G75*
G03*
X360594000Y-173691200I-152400J-4D01*
G01*
X363406330Y-173526659D02*
G75*
G03*
X363190804Y-173526659I-107763J-107763D01*
G01*
X361889400Y-174162800D02*
G75*
G02*
X361737000Y-174315200I-152400J0D01*
G01*
X363362663Y-174021807D02*
G75*
G02*
X363362693Y-174237363I-107763J-107793D01*
G01*
%TD*%
%TA.AperFunction,Conductor*%
%TO.N,Net-(IC10-IN-Pad1)*%
G36*
X374648792Y-158171550D02*
G01*
X374737026Y-158185525D01*
X374739305Y-158186266D01*
X374740572Y-158186139D01*
X374774511Y-158197704D01*
X374845170Y-158233707D01*
X374877056Y-158256875D01*
X374933124Y-158312943D01*
X374956292Y-158344830D01*
X374992292Y-158415483D01*
X375004474Y-158452973D01*
X375018449Y-158541206D01*
X375020000Y-158560917D01*
X375020000Y-158749082D01*
X375018449Y-158768792D01*
X375018449Y-158768793D01*
X375004474Y-158857026D01*
X374992292Y-158894518D01*
X374956296Y-158965164D01*
X374933124Y-158997056D01*
X374877056Y-159053124D01*
X374845166Y-159076294D01*
X374774518Y-159112292D01*
X374737026Y-159124474D01*
X374671481Y-159134855D01*
X374648791Y-159138449D01*
X374629083Y-159140000D01*
X374320917Y-159140000D01*
X374301208Y-159138449D01*
X374272096Y-159133838D01*
X374212973Y-159124474D01*
X374175483Y-159112292D01*
X374104830Y-159076292D01*
X374072943Y-159053124D01*
X374016875Y-158997056D01*
X373993707Y-158965170D01*
X373957705Y-158894512D01*
X373945525Y-158857025D01*
X373931551Y-158768792D01*
X373930000Y-158749082D01*
X373930000Y-158560917D01*
X373931551Y-158541207D01*
X373945525Y-158452974D01*
X373945526Y-158452969D01*
X373957704Y-158415489D01*
X373993709Y-158344825D01*
X374016872Y-158312946D01*
X374072946Y-158256872D01*
X374104825Y-158233709D01*
X374175489Y-158197704D01*
X374212971Y-158185525D01*
X374301207Y-158171550D01*
X374320917Y-158170000D01*
X374629083Y-158170000D01*
X374648792Y-158171550D01*
G37*
%TD.AperFunction*%
%TD*%
M02*
