M48
; DRILL file {KiCad 9.0.7-9.0.7~ubuntu24.04.1} date 2026-02-02T13:59:00+0100
; FORMAT={-:-/ absolute / inch / decimal}
; #@! TF.CreationDate,2026-02-02T13:59:00+01:00
; #@! TF.GenerationSoftware,Kicad,Pcbnew,9.0.7-9.0.7~ubuntu24.04.1
; #@! TF.FileFunction,Plated,1,4,PTH
FMAT,2
INCH
; #@! TA.AperFunction,Plated,PTH,ViaDrill
T1C0.0118
; #@! TA.AperFunction,Plated,PTH,ComponentDrill
T2C0.0157
; #@! TA.AperFunction,Plated,PTH,ComponentDrill
T3C0.0197
; #@! TA.AperFunction,Plated,PTH,ComponentDrill
T4C0.0240
; #@! TA.AperFunction,Plated,PTH,ComponentDrill
T5C0.0276
; #@! TA.AperFunction,Plated,PTH,ComponentDrill
T6C0.0315
; #@! TA.AperFunction,Plated,PTH,ComponentDrill
T7C0.0354
; #@! TA.AperFunction,Plated,PTH,ComponentDrill
T8C0.0394
; #@! TA.AperFunction,Plated,PTH,ComponentDrill
T9C0.0469
; #@! TA.AperFunction,Plated,PTH,ComponentDrill
T10C0.0472
; #@! TA.AperFunction,Plated,PTH,ComponentDrill
T11C0.0618
; #@! TA.AperFunction,Plated,PTH,ComponentDrill
T12C0.0787
; #@! TA.AperFunction,Plated,PTH,ComponentDrill
T13C0.0866
; #@! TA.AperFunction,Plated,PTH,ComponentDrill
T14C0.0909
; #@! TA.AperFunction,Plated,PTH,ComponentDrill
T15C0.1260
%
G90
G05
T1
X11.639Y-4.0035
X11.9142Y-5.4461
X11.9415Y-5.4461
X11.9689Y-5.4461
X12.108Y-5.1227
X12.1633Y-5.2941
X12.1633Y-5.3173
X12.1927Y-5.3648
X12.2346Y-5.587
X12.3131Y-6.5575
X12.3146Y-6.2165
X12.4248Y-3.313
X12.4315Y-6.0224
X12.4449Y-6.5827
X12.4449Y-6.6535
X12.4535Y-6.2106
X12.4575Y-5.5764
X12.4831Y-3.3091
X12.4866Y-6.0835
X12.4874Y-3.1768
X12.5236Y-6.3181
X12.5413Y-4.7323
X12.5417Y-4.6224
X12.5421Y-4.3969
X12.5421Y-4.5083
X12.5421Y-4.8409
X12.572Y-6.3181
X12.5795Y-6.0735
X12.6209Y-6.0043
X12.6335Y-3.889
X12.6547Y-6.011
X12.7044Y-3.246
X12.7085Y-6.696
X12.7085Y-6.6654
X12.7157Y-3.3366
X12.7244Y-3.9732
X12.7343Y-3.7394
X12.7346Y-3.2224
X12.735Y-3.6157
X12.7358Y-3.3618
X12.7421Y-6.696
X12.7421Y-6.6654
X12.7496Y-6.2079
X12.7555Y-3.1969
X12.7594Y-5.8866
X12.7622Y-6.0685
X12.7673Y-3.3193
X12.7757Y-6.696
X12.7757Y-6.6654
X12.7929Y-6.0295
X12.7957Y-3.7044
X12.7957Y-3.7271
X12.7957Y-3.7512
X12.7957Y-3.774
X12.8046Y-5.8671
X12.8093Y-6.696
X12.8093Y-6.6654
X12.8193Y-3.9732
X12.8429Y-6.696
X12.8429Y-6.6654
X12.8765Y-6.696
X12.8765Y-6.6654
X12.8869Y-6.0431
X12.9101Y-6.696
X12.9101Y-6.6654
X12.9377Y-3.1331
X12.9377Y-3.1581
X12.965Y-6.2115
X12.991Y-3.4193
X13.016Y-3.4193
X13.0343Y-4.7315
X13.0795Y-4.5602
X13.0815Y-4.6646
X13.1255Y-3.2358
X13.2098Y-3.2677
X13.211Y-4.5909
X13.2137Y-3.0856
X13.2177Y-5.4378
X13.2224Y-3.4118
X13.237Y-3.2685
X13.2606Y-4.4795
X13.2799Y-3.4118
X13.2961Y-4.6406
X13.2965Y-5.7582
X13.2965Y-5.7856
X13.2965Y-5.813
X13.3213Y-4.4803
X13.3301Y-5.7585
X13.3301Y-5.7859
X13.3301Y-5.8132
X13.3508Y-4.6913
X13.3705Y-4.3531
X13.3764Y-4.739
X13.3898Y-4.1835
X13.3898Y-4.2062
X13.3955Y-4.4166
X13.396Y-4.8926
X13.3988Y-4.348
X13.4008Y-4.6756
X13.4024Y-4.7224
X13.4071Y-4.1622
X13.413Y-5.5783
X13.4384Y-6.3363
X13.4476Y-4.2189
X13.4484Y-4.628
X13.4494Y-4.267
X13.4496Y-6.4992
X13.4523Y-4.4982
X13.4524Y-4.9106
X13.4525Y-4.5827
X13.4539Y-4.8724
X13.4542Y-4.5465
X13.4557Y-3.1078
X13.4685Y-4.4028
X13.4711Y-4.5988
X13.487Y-4.5697
X13.5039Y-4.5185
X13.5059Y-4.4394
X13.5128Y-4.2308
X13.5128Y-4.2535
X13.5159Y-4.4823
X13.5181Y-4.7768
X13.522Y-4.9268
X13.5237Y-4.565
X13.524Y-4.628
X13.524Y-4.6752
X13.5244Y-4.4075
X13.5681Y-4.4862
X13.5697Y-4.2657
X13.5699Y-4.1685
X13.5699Y-4.2204
X13.5742Y-4.7357
X13.5744Y-4.3248
X13.5894Y-6.2906
X13.615Y-4.8172
X13.6453Y-4.8381
X13.6787Y-4.8224
X13.6792Y-6.5291
X13.7367Y-6.5216
X13.7367Y-6.5491
X13.7367Y-6.5766
X13.737Y-4.5272
X13.7417Y-4.3157
X13.7617Y-6.5216
X13.7617Y-6.5491
X13.7617Y-6.5766
X13.7867Y-6.5216
X13.7867Y-6.5491
X13.7867Y-6.5766
X13.7882Y-4.6028
X13.8079Y-4.5524
X13.8117Y-6.5216
X13.8117Y-6.5491
X13.8117Y-6.5766
X13.8367Y-6.5216
X13.8367Y-6.5491
X13.8367Y-6.5766
X13.8567Y-4.5906
X13.8617Y-6.5216
X13.8617Y-6.5491
X13.8617Y-6.5766
X13.8867Y-6.5216
X13.8867Y-6.5491
X13.8867Y-6.5766
X13.9002Y-6.8952
X13.9117Y-6.5216
X13.9117Y-6.5491
X13.9117Y-6.5766
X13.9142Y-4.4957
X13.9367Y-6.5216
X13.9367Y-6.5491
X13.9367Y-6.5766
X13.9617Y-6.5216
X13.9617Y-6.5491
X13.9617Y-6.5766
X13.9717Y-4.5587
X13.9732Y-4.928
X13.9867Y-6.5216
X13.9867Y-6.5491
X13.9867Y-6.5766
X13.9901Y-4.5004
X14.0117Y-6.5216
X14.0117Y-6.5491
X14.0117Y-6.5766
X14.0248Y-4.9154
X14.043Y-6.2247
X14.0703Y-6.2247
X14.0839Y-6.3122
X14.0975Y-6.2247
X14.1248Y-6.2247
X14.1297Y-4.3931
X14.1433Y-4.4709
X14.1521Y-6.2247
X14.1795Y-4.5118
X14.1972Y-3.8138
X14.2043Y-5.8799
X14.2146Y-4.763
X14.2157Y-6.1409
X14.2165Y-4.9845
X14.2211Y-4.4651
X14.2303Y-4.4945
X14.2311Y-5.0091
X14.2407Y-4.4486
X14.2506Y-6.2462
X14.2614Y-5.9854
X14.2717Y-6.228
X14.272Y-6.0874
X14.2862Y-5.6677
X14.3008Y-4.3028
X14.3024Y-6.7496
X14.3039Y-6.5504
X14.3051Y-3.9075
X14.3055Y-6.1366
X14.3228Y-6.6971
X14.3236Y-4.3091
X14.3295Y-6.4982
X14.3295Y-3.9661
X14.3398Y-6.354
X14.3398Y-6.3767
X14.3412Y-6.2702
X14.3412Y-6.2929
X14.3623Y-6.55
X14.3768Y-5.6217
X14.3981Y-6.6917
X14.4043Y-6.2657
X14.4191Y-4.1135
X14.4209Y-6.6917
X14.4295Y-6.2657
X14.4358Y-5.6217
X14.4374Y-3.737
X14.4418Y-6.3394
X14.4421Y-6.1928
X14.4432Y-3.7868
X14.4539Y-6.2657
X14.4542Y-3.7588
X14.4645Y-6.3394
X14.4648Y-6.1928
X14.4843Y-6.2311
X14.4945Y-5.6217
X14.5142Y-6.172
X14.522Y-6.6382
X14.5318Y-4.1816
X14.5358Y-6.2142
X14.553Y-4.1641
X14.5539Y-5.6217
X14.5752Y-6.1366
X14.5752Y-6.6421
X14.5961Y-6.5587
X14.5969Y-6.8661
X14.597Y-6.2624
X14.5976Y-6.3744
X14.5976Y-6.4366
X14.611Y-3.5516
X14.613Y-5.6217
X14.6142Y-6.5864
X14.6209Y-6.811
X14.6213Y-6.7736
X14.6448Y-6.433
X14.6457Y-6.5937
X14.6484Y-4.1087
X14.6512Y-3.2685
X14.6523Y-6.3114
X14.665Y-6.4177
X14.672Y-5.6217
X14.6752Y-6.5882
X14.6828Y-6.5383
X14.6835Y-6.5063
X14.6843Y-3.1567
X14.698Y-6.1793
X14.698Y-6.2028
X14.698Y-6.2262
X14.6994Y-6.6384
X14.7114Y-5.568
X14.7161Y-4.0845
X14.7201Y-6.4547
X14.7228Y-4.5109
X14.7287Y-4.5945
X14.7295Y-4.6882
X14.7307Y-5.6217
X14.737Y-3.0826
X14.7505Y-5.6347
X14.7555Y-6.2364
X14.7555Y-6.2563
X14.7606Y-6.1669
X14.7705Y-5.622
X14.7768Y-6.9976
X14.778Y-6.5287
X14.778Y-6.5516
X14.7823Y-4.4551
X14.7823Y-4.7382
X14.7823Y-4.7854
X14.7823Y-4.8327
X14.7823Y-4.9272
X14.784Y-4.8782
X14.7843Y-4.2185
X14.7843Y-4.3614
X14.7862Y-4.4044
X14.7862Y-4.5374
X14.787Y-4.6417
X14.7871Y-4.2626
X14.7884Y-4.3156
X14.8024Y-4.9425
X14.8055Y-5.5941
X14.8063Y-4.5185
X14.8102Y-4.2161
X14.8126Y-4.5449
X14.814Y-4.5683
X14.8154Y-6.4429
X14.8256Y-6.1626
X14.839Y-6.274
X14.8461Y-6.5236
X14.8461Y-6.5524
X14.8567Y-4.8768
X14.8583Y-4.2637
X14.8593Y-4.4071
X14.8602Y-4.2185
X14.8602Y-4.3126
X14.8602Y-4.3602
X14.8602Y-4.5492
X14.8602Y-4.5965
X14.8603Y-4.455
X14.8606Y-4.6437
X14.8606Y-4.6909
X14.8606Y-4.7382
X14.8606Y-4.7854
X14.8606Y-4.8327
X14.8606Y-4.9272
X14.8807Y-5.7311
X14.9035Y-5.5433
X14.9187Y-4.5142
X14.9187Y-4.5369
X14.9209Y-4.6087
X14.9209Y-4.6314
X14.9209Y-4.5615
X14.9209Y-4.5842
X14.9209Y-4.656
X14.9209Y-4.6787
X14.9287Y-6.2209
X14.9299Y-5.563
X14.9394Y-4.9441
X14.9551Y-5.9091
X14.972Y-6.6567
X14.972Y-6.7307
X14.9826Y-3.689
X15.0122Y-4.9299
X15.0195Y-5.8445
X15.0209Y-5.6709
X15.0524Y-3.872
X15.1142Y-3.3563
X15.1433Y-3.5016
X15.1472Y-3.3882
X15.1476Y-4.8528
X15.1658Y-4.7803
X15.1732Y-3.3563
X15.1768Y-5.6287
X15.1885Y-4.7803
X15.2067Y-4.8528
X15.2083Y-5.1791
X15.2124Y-5.9079
X15.2124Y-5.9288
X15.2124Y-5.9496
X15.2126Y-5.9705
X15.2209Y-6.4492
X15.2245Y-4.7839
X15.2319Y-3.3563
X15.2472Y-4.7839
X15.2594Y-3.3886
X15.2602Y-4.4867
X15.261Y-3.5016
X15.2654Y-4.8528
X15.2696Y-5.8735
X15.2843Y-4.7846
X15.2906Y-4.5122
X15.2917Y-3.3563
X15.3035Y-5.3504
X15.307Y-4.7846
X15.3248Y-4.8528
X15.3266Y-5.8535
X15.3266Y-5.881
X15.3266Y-5.9085
X15.3406Y-3.6106
X15.3409Y-3.4937
X15.3432Y-4.7853
X15.3516Y-5.8535
X15.3516Y-5.881
X15.3516Y-5.9085
X15.3524Y-5.0969
X15.361Y-6.4087
X15.3659Y-4.7853
X15.372Y-4.5039
X15.3766Y-5.8535
X15.3766Y-5.881
X15.3766Y-5.9085
X15.3807Y-5.1
X15.3831Y-3.4937
X15.3839Y-4.8528
X15.3921Y-3.4287
X15.4016Y-5.8535
X15.4016Y-5.881
X15.4016Y-5.9085
X15.4028Y-3.5665
X15.4035Y-4.572
X15.4091Y-3.3563
X15.4173Y-3.9837
X15.4193Y-6.413
X15.4197Y-4.4858
X15.4232Y-4.5898
X15.4266Y-5.8535
X15.4266Y-5.881
X15.4266Y-5.9085
X15.4346Y-3.6106
X15.4429Y-4.8528
X15.4516Y-5.8535
X15.4516Y-5.881
X15.4516Y-5.9085
X15.4547Y-3.3445
X15.4693Y-3.5071
X15.4715Y-3.5818
X15.4728Y-3.6756
X15.4736Y-4.1646
X15.4766Y-5.8535
X15.4766Y-5.881
X15.4766Y-5.9085
X15.4846Y-3.3862
X15.5016Y-4.8528
X15.5016Y-5.8535
X15.5016Y-5.881
X15.5016Y-5.9085
X15.5131Y-6.4621
X15.5193Y-5.0858
X15.5212Y-3.6161
X15.5266Y-5.8535
X15.5266Y-5.881
X15.5266Y-5.9085
X15.5303Y-4.1118
X15.537Y-5.068
X15.5453Y-3.9675
X15.5508Y-3.9953
X15.5516Y-5.1453
X15.5516Y-5.8535
X15.5516Y-5.881
X15.5516Y-5.9085
X15.572Y-4.3496
X15.5766Y-5.8535
X15.5766Y-5.881
X15.5766Y-5.9085
X15.5886Y-4.3272
X15.5917Y-6.365
X15.5921Y-4.6394
X15.5921Y-4.9724
X15.6016Y-5.8535
X15.6016Y-5.881
X15.6016Y-5.9085
X15.615Y-4.9929
X15.6331Y-5.6079
X15.6378Y-5.1236
X15.65Y-4.9614
X15.6579Y-5.6079
X15.6736Y-5.6457
X15.7067Y-5.6146
X15.7255Y-3.8989
X15.7339Y-5.6146
X15.7409Y-4.1945
X15.7409Y-4.2917
X15.7409Y-4.389
X15.7409Y-4.5402
X15.7409Y-4.6622
X15.7496Y-3.8642
X15.7748Y-4.1949
X15.7831Y-3.8583
X15.7831Y-4.0205
X15.7835Y-3.6315
X15.8071Y-5.3244
X15.8079Y-5.3965
X15.8118Y-3.7154
X15.8264Y-4.3157
X15.8366Y-4.2067
X15.8421Y-5.4965
X15.8628Y-5.6057
X15.8642Y-5.6571
X15.8661Y-5.3228
X15.8669Y-5.1175
X15.8669Y-5.1496
X15.8685Y-5.1996
X15.8697Y-4.9925
X15.8749Y-3.8252
X15.876Y-5.0374
X15.8764Y-4.5252
X15.8764Y-4.6902
X15.8858Y-4.3154
X15.8878Y-4.3783
X15.8953Y-4.4854
X15.9039Y-5.4933
X15.9118Y-5.4001
X15.9134Y-6.5252
X15.9179Y-5.1715
X15.9193Y-5.2276
X15.9216Y-5.0068
X15.9264Y-3.8135
X15.9313Y-4.6909
X15.9398Y-3.9835
X15.9461Y-4.9992
X15.9488Y-5.6457
X15.9579Y-4.6909
X15.9591Y-4.9717
X15.9677Y-4.2929
X15.9703Y-4.198
X15.9717Y-4.2571
X15.9858Y-6.5307
X15.986Y-4.1425
X15.9878Y-5.7272
X15.9902Y-4.3768
X15.995Y-4.7264
X16.0031Y-4.8256
X16.012Y-4.0357
X16.0205Y-4.5421
X16.0233Y-3.8134
X16.024Y-4.3535
X16.0256Y-3.6953
X16.0339Y-4.7496
X16.0347Y-3.613
X16.0402Y-5.7264
X16.0406Y-5.161
X16.0441Y-4.0551
X16.0476Y-6.4445
X16.0524Y-4.9421
X16.0575Y-4.6657
X16.0705Y-4.0747
X16.0748Y-5.6457
X16.0763Y-5.0236
X16.0823Y-4.4882
X16.0913Y-5.1902
X16.0913Y-5.2177
X16.0913Y-5.2452
X16.0922Y-5.4295
X16.0922Y-5.4545
X16.0922Y-5.4795
X16.0976Y-5.7268
X16.0981Y-3.613
X16.1098Y-3.9205
X16.1098Y-4.8248
X16.1101Y-4.9299
X16.1163Y-5.1902
X16.1173Y-4.2579
X16.1193Y-5.528
X16.1197Y-5.4795
X16.1205Y-4.139
X16.1224Y-4.3736
X16.1256Y-5.0823
X16.1289Y-3.6226
X16.1382Y-4.9496
X16.139Y-4.2709
X16.1413Y-5.1902
X16.1421Y-5.5276
X16.1472Y-5.4795
X16.1531Y-5.0752
X16.1559Y-5.6016
X16.1603Y-4.9327
X16.1634Y-4.5555
X16.1661Y-3.7167
X16.1669Y-4.6319
X16.1677Y-4.3559
X16.1681Y-4.8248
X16.1728Y-5.1357
X16.1787Y-5.602
X16.1929Y-5.8063
X16.1937Y-3.9299
X16.1965Y-5.6803
X16.1996Y-3.6315
X16.2008Y-4.9102
X16.2013Y-5.0276
X16.2028Y-5.6225
X16.2108Y-5.3071
X16.2108Y-5.3346
X16.2108Y-5.3621
X16.2248Y-4.3563
X16.2252Y-4.9417
X16.2323Y-5.5176
X16.2358Y-5.3071
X16.2358Y-5.3346
X16.2358Y-5.3621
X16.2457Y-5.1587
X16.2506Y-3.8607
X16.2508Y-5.8835
X16.2551Y-5.5176
X16.2604Y-5.7874
X16.2608Y-5.3071
X16.2608Y-5.3346
X16.2608Y-5.3621
X16.2634Y-4.526
X16.2646Y-3.9675
X16.2654Y-4.637
X16.2669Y-5.1406
X16.2709Y-4.9256
X16.2756Y-3.6315
X16.2819Y-4.5051
X16.2913Y-6.563
X16.2921Y-6.1925
X16.298Y-6.1354
X16.3068Y-4.4318
X16.3072Y-4.509
X16.3116Y-3.8355
X16.3166Y-6.1134
X16.3228Y-4.0787
X16.3241Y-5.1913
X16.326Y-6.3071
X16.3297Y-5.6453
X16.3304Y-5.6998
X16.333Y-4.6941
X16.3386Y-5.0039
X16.3402Y-4.829
X16.3453Y-4.3732
X16.3465Y-5.1366
X16.3516Y-5.1913
X16.3545Y-5.4787
X16.3598Y-3.8957
X16.3638Y-4.413
X16.3701Y-6.1717
X16.3755Y-4.9329
X16.3791Y-5.1913
X16.3791Y-5.2163
X16.3791Y-5.2413
X16.3795Y-5.4237
X16.3795Y-5.4512
X16.3795Y-5.4787
X16.3809Y-5.6321
X16.3815Y-5.9492
X16.3839Y-4.2496
X16.3843Y-4.1646
X16.3854Y-4.3917
X16.3858Y-4.6681
X16.3915Y-5.5328
X16.3992Y-4.9433
X16.4008Y-4.5563
X16.4028Y-4.4307
X16.4169Y-4.6061
X16.4193Y-4.1634
X16.4307Y-4.3531
X16.4378Y-4.8827
X16.4396Y-5.6406
X16.4433Y-5.7614
X16.4519Y-5.7055
X16.4524Y-4.311
X16.4543Y-4.3512
X16.4546Y-6.0991
X16.4547Y-4.5062
X16.4567Y-4.8563
X16.4575Y-4.4165
X16.4594Y-4.0807
X16.4616Y-4.1698
X16.4626Y-4.1453
X16.4744Y-6.0563
X16.4774Y-4.311
X16.4868Y-3.8548
X16.4878Y-3.9937
X16.4929Y-6.0906
X16.5012Y-4.311
X16.5154Y-6.0252
X16.5176Y-5.0174
X16.5176Y-5.0394
X16.5186Y-4.9482
X16.5186Y-4.9709
X16.5228Y-3.6335
X16.5287Y-6.1224
X16.5327Y-6.0063
X16.55Y-4.9035
X16.5606Y-5.2504
X16.5606Y-4.4173
X16.5661Y-5.3118
X16.5665Y-5.4197
X16.5665Y-5.5843
X16.5685Y-5.1441
X16.5701Y-5.5264
X16.5874Y-4.8366
X16.5882Y-4.2106
X16.5902Y-4.4602
X16.6063Y-3.7571
X16.6079Y-4.0508
X16.6114Y-4.422
X16.6264Y-5.1445
X16.6299Y-5.1031
X16.6307Y-5.4193
X16.6311Y-5.5843
X16.6315Y-5.3067
X16.6315Y-5.5264
X16.6382Y-5.2146
X16.6449Y-5.9008
X16.6453Y-5.8398
X16.6559Y-4.3377
X16.6669Y-4.4598
X16.6669Y-4.4839
X16.6693Y-4.5839
X16.6911Y-6.0671
X16.698Y-4.3957
X16.704Y-4.542
X16.7165Y-6.1417
X16.7197Y-3.2543
X16.7299Y-5.9988
X16.737Y-5.6732
X16.739Y-4.576
X16.739Y-4.6366
X16.7421Y-6.1425
X16.7511Y-5.837
X16.7539Y-5.6224
X16.7642Y-5.9988
X16.7681Y-6.1421
X16.7709Y-4.2568
X16.7933Y-5.7772
X16.7984Y-5.9988
X16.8343Y-5.8295
X16.872Y-5.9988
X16.9063Y-5.9988
X16.9406Y-5.9988
T2
X14.2205Y-6.772
X14.2362Y-6.7996
X14.2677Y-6.7996
X14.2835Y-6.772
X14.2992Y-6.7996
X14.315Y-6.772
X14.3465Y-6.772
X14.3622Y-6.7996
X14.378Y-6.772
X14.3937Y-6.7996
X14.4252Y-6.7996
X14.4409Y-6.772
T3
X11.6063Y-3.1102
X11.6063Y-6.561
X11.6339Y-3.0512
X11.6339Y-3.1693
X11.6339Y-6.502
X11.6339Y-6.6201
X11.6929Y-3.0236
X11.6929Y-3.1969
X11.6929Y-6.4744
X11.6929Y-6.6476
X11.752Y-3.0512
X11.752Y-3.1693
X11.752Y-6.502
X11.752Y-6.6201
X11.7795Y-3.1102
X11.7795Y-6.561
X16.8425Y-6.563
X16.8701Y-6.5039
X16.8701Y-6.622
X16.9291Y-6.4764
X16.9291Y-6.6496
X16.9606Y-3.1102
X16.9882Y-3.0512
X16.9882Y-3.1693
X16.9882Y-6.5039
X16.9882Y-6.622
X17.0157Y-6.563
X17.0472Y-3.0236
X17.0472Y-3.1969
X17.1063Y-3.0512
X17.1063Y-3.1693
X17.1339Y-3.1102
T4
X14.1879Y-6.2461
X14.3768Y-6.1114
X14.7799Y-5.9787
X14.8079Y-6.2201
X14.9913Y-6.1571
X15.0047Y-3.8835
X15.0047Y-4.0008
X15.0047Y-4.1584
X15.0047Y-4.2413
X15.4622Y-4.661
X15.6909Y-3.2508
X15.6909Y-3.3465
X15.7732Y-5.5819
X15.8685Y-4.5953
X15.902Y-4.7496
X15.902Y-4.8252
X16.7531Y-4.9646
X16.7531Y-5.0576
T5
X16.8569Y-3.3661
X16.8569Y-3.4449
X16.8569Y-3.5236
X16.8569Y-3.6024
X16.8569Y-3.6811
X16.8569Y-3.7598
X16.8569Y-3.8386
X16.8569Y-3.9173
X16.8569Y-3.9961
X16.8569Y-4.0748
X16.8569Y-4.1535
X16.8569Y-4.311
X16.8569Y-4.3898
X16.8569Y-4.4685
X16.8569Y-4.5472
X16.8569Y-4.626
X16.9356Y-3.4055
X16.9356Y-3.4843
X16.9356Y-3.563
X16.9356Y-3.6417
X16.9356Y-3.7205
X16.9356Y-3.7992
X16.9356Y-3.878
X16.9356Y-3.9567
X16.9356Y-4.0354
X16.9356Y-4.1142
X16.9356Y-4.2717
X16.9356Y-4.3504
X16.9356Y-4.4291
X16.9356Y-4.5079
X16.9356Y-4.5866
X16.9356Y-4.6654
X17.0341Y-3.4055
X17.0341Y-3.4843
X17.0341Y-3.563
X17.0341Y-3.6417
X17.0341Y-3.7205
X17.0341Y-3.7992
X17.0341Y-3.878
X17.0341Y-3.9567
X17.0341Y-4.0354
X17.0341Y-4.1142
X17.0341Y-4.2717
X17.0341Y-4.3504
X17.0341Y-4.4291
X17.0341Y-4.5079
X17.0341Y-4.5866
X17.0341Y-4.6654
X17.1128Y-3.3661
X17.1128Y-3.4449
X17.1128Y-3.5236
X17.1128Y-3.6024
X17.1128Y-3.6811
X17.1128Y-3.7598
X17.1128Y-3.8386
X17.1128Y-3.9173
X17.1128Y-3.9961
X17.1128Y-4.0748
X17.1128Y-4.1535
X17.1128Y-4.311
X17.1128Y-4.3898
X17.1128Y-4.4685
X17.1128Y-4.5472
X17.1128Y-4.626
T6
X12.2842Y-3.5278
X12.2842Y-3.6079
X12.2842Y-3.7677
X12.2842Y-3.8478
X12.4244Y-3.488
X12.4244Y-3.5679
X12.4244Y-3.6478
X12.4244Y-3.7278
X12.4244Y-3.8077
X12.4244Y-3.8876
T7
X11.9882Y-6.1299
X11.9882Y-6.2283
X11.9882Y-6.3268
X11.9972Y-6.4724
X12.0645Y-3.5498
X12.0645Y-3.6482
X12.0645Y-3.7274
X12.0645Y-3.8258
X12.0972Y-6.4724
X12.1063Y-6.1299
X12.1063Y-6.2283
X12.1063Y-6.3268
X12.1677Y-3.5498
X12.1677Y-3.6482
X12.1677Y-3.7274
X12.1677Y-3.8258
X12.5204Y-3.4033
X12.5204Y-3.5033
X12.5204Y-3.6028
X12.5204Y-3.8722
X12.5204Y-3.9722
T8
X12.4582Y-6.8431
X12.5582Y-6.8431
X12.6582Y-6.8431
X12.6921Y-5.4409
X12.6921Y-5.5524
X12.6957Y-5.0705
X12.7582Y-6.8431
X12.7921Y-5.4409
X12.7921Y-5.5524
X12.7957Y-5.0705
X12.8957Y-5.0705
X14.7858Y-6.8835
X14.8858Y-6.8835
X14.9858Y-6.8835
X15.3346Y-6.626
X15.372Y-3.8079
X15.372Y-4.3543
X15.472Y-3.8079
X15.472Y-4.3543
X15.5315Y-6.626
X15.9134Y-6.811
X16.1102Y-6.811
X16.1583Y-3.2685
X16.2583Y-3.2685
X16.3583Y-3.2685
X16.4583Y-3.2685
X16.5583Y-3.2685
X16.6224Y-4.6425
X16.6224Y-4.7425
X16.6583Y-3.2685
X16.7327Y-6.226
X16.7327Y-6.326
X17.0669Y-5.3406
X17.0669Y-5.4406
X17.0669Y-5.5406
X17.0669Y-5.6406
X17.0669Y-5.7406
X17.0669Y-5.8406
X17.0669Y-5.9406
X17.0669Y-6.0406
X17.0669Y-6.1406
X17.0669Y-6.2406
X17.1669Y-5.3406
X17.1669Y-5.4406
X17.1669Y-5.5406
X17.1669Y-5.6406
X17.1669Y-5.7406
X17.1669Y-5.8406
X17.1669Y-5.9406
X17.1669Y-6.0406
X17.1669Y-6.1406
X17.1669Y-6.2406
T9
X11.7268Y-5.1787
X11.7268Y-5.2787
X11.7268Y-5.3787
X12.3642Y-5.1346
X12.3642Y-5.2346
T10
X15.2362Y-6.7283
X15.4331Y-6.7283
X15.6299Y-6.7283
T11
X11.8594Y-3.3703
X11.8594Y-4.0053
X12.2814Y-4.0049
X12.2842Y-3.3707
T12
X16.437Y-6.3071
X16.437Y-6.9094
T13
X15.1181Y-6.6063
X15.748Y-6.6063
T14
X11.9582Y-3.4293
X11.9582Y-3.9463
X12.1822Y-3.4293
X12.1822Y-3.9463
T15
X11.6929Y-3.1102
X11.6929Y-6.561
X16.9291Y-6.563
X17.0472Y-3.1102
T3
G00X14.1539Y-6.9567
M15
G01X14.1539Y-6.9803
M16
G05
G00X14.1681Y-6.7835
M15
G01X14.1681Y-6.8071
M16
G05
G00X14.4933Y-6.7835
M15
G01X14.4933Y-6.8071
M16
G05
G00X14.5075Y-6.9567
M15
G01X14.5075Y-6.9803
M16
G05
T6
G00X14.9724Y-3.0913
M15
G01X14.9724Y-3.0717
M16
G05
G00X14.9961Y-3.2843
M15
G01X14.9961Y-3.2646
M16
G05
G00X15.5669Y-3.2843
M15
G01X15.5669Y-3.2646
M16
G05
G00X15.5906Y-3.0913
M15
G01X15.5906Y-3.0717
M16
G05
M30
